%
T1C.25F095S3
X3102Y067
X311Y067
X311Y065
X3118Y067
X3185Y1195
X27375Y1232
X27275Y1232
X2645Y1057
X2386Y1197
X2333Y12725
X2717Y1619
X27375Y1619
X29495Y156
X28785Y16905
X28735Y16855
X2866Y16805
X2861Y16755
X2838Y1673
X2838Y1663
X2814Y16945
X2813Y17045
X2812Y1673
X2809Y166
X28085Y16995
X28Y1738
X2768Y1757
X2723Y1757
X27067Y1762
X2671Y16505
X267Y17145
X2642Y172
X2631Y1707
X2631Y1691
X2622Y1686
X2614Y1699
X2608Y17075
X26Y1713
X2593Y1713
X23365Y1723
X2586Y1838
X2594Y1838
X2647Y18575
X2675Y18785
X26875Y18525
X27025Y18375
X27055Y18675
X27055Y18975
X27055Y18875
X27055Y18775
X2708Y1827
X27125Y1832
X2714Y18725
X2714Y18925
X2714Y18825
X27375Y1864
X27425Y18555
X27475Y1864
X27525Y18555
X27575Y1864
X27625Y18555
X2766Y18675
X2766Y18975
X2766Y18875
X2766Y18775
X27745Y18625
X27745Y18725
X27745Y1856
X27745Y18925
X27745Y18825
X27775Y18375
X27925Y18525
X2861Y18875
X2866Y18925
X28835Y18845
X28835Y18925
X29815Y19525
X29765Y19575
X29715Y19525
X29515Y19575
X28785Y19075
X28735Y19025
X2853Y1938
X28465Y1938
X283Y19495
X28255Y1933
X28225Y19495
X282Y1928
X2798Y19175
X27925Y19275
X2778Y19425
X27745Y19025
X27745Y19245
X27745Y19125
X2773Y19475
X27675Y19245
X2766Y19075
X27625Y1916
X27575Y19245
X27475Y19245
X27425Y1916
X27325Y1916
X27275Y19245
X27225Y1916
X27175Y19245
X2714Y19125
X2714Y19025
X27055Y19075
X27055Y19175
X27055Y1924
X27025Y19425
X26875Y19275
X2297Y2053
X2593Y2036
X29465Y20225
X29515Y20275
X29565Y20225
X29615Y20275
X29965Y19725
X302Y1965
X2939Y2204
X2939Y2195
X2377Y2153
T2C.3F095S3
X2274Y07967
X2349Y06467
X2484Y0768
X2604Y0768
X2724Y0768
X2844Y0768
X2964Y0768
X3084Y0768
X3109Y0686
X3174Y06467
X3324Y07967
X3239Y09
X3229Y091
X307Y0857
X3023Y0872
X2995Y0909
X295Y0857
X2903Y0872
X2875Y0909
X283Y0857
X2799Y08717
X2783Y0872
X2755Y0909
X2724Y08717
X271Y0857
X2663Y0872
X2635Y0909
X259Y0857
X2574Y08717
X2543Y0872
X2515Y0909
X247Y0857
X2423Y0872
X2395Y0909
X2274Y08717
X2199Y08717
X2199Y09467
X2274Y10217
X2327Y0965
X2327Y1019
X2333Y0984
X2333Y1
X2388Y1007
X23895Y1041
X2405Y1057
X2422Y1024
X2434Y1024
X2452Y101
X2486Y1008
X249Y1041
X2508Y1007
X2512Y1041
X2526Y1057
X2542Y1024
X2554Y1024
X2572Y101
X2606Y1008
X261Y1041
X2628Y1007
X2631Y1041
X2662Y1024
X2674Y1024
X2692Y101
X2724Y10217
X2726Y1008
X2729Y1041
X2748Y1007
X2751Y1041
X2765Y1057
X2782Y1024
X2794Y1024
X2812Y101
X2846Y1008
X2849Y1041
X2868Y1007
X2871Y1041
X2874Y10217
X2885Y1057
X2902Y1024
X2914Y1024
X2932Y101
X2949Y10217
X2966Y1008
X2969Y1041
X2988Y1007
X2991Y1041
X3005Y1057
X3022Y1024
X3034Y1024
X3052Y101
X3086Y1008
X3089Y1041
X3174Y1035
X3174Y10217
X3324Y09467
X3324Y10217
X3324Y10967
X3174Y10967
X3099Y10967
X3081Y1108
X3081Y1092
X3036Y11
X3009Y1118
X2993Y1118
X2983Y1092
X2961Y1108
X2961Y1092
X2916Y11
X2889Y1118
X2873Y1118
X2863Y1092
X2841Y1108
X2841Y1092
X2796Y11
X2769Y1118
X2754Y1118
X2748Y1123
X2743Y1092
X2732Y1123
X2721Y1092
X2721Y1108
X2676Y11
X2649Y1118
X2633Y1118
X2623Y1092
X2602Y1108
X2602Y1092
X2557Y11
X253Y1118
X2514Y1118
X2504Y1092
X2481Y1092
X2481Y1108
X2436Y11
X2409Y1118
X2393Y1118
X2383Y1092
X2274Y10967
X2199Y10967
X2349Y11717
X2499Y11717
X2574Y11717
X2649Y11717
X2664Y1191
X2664Y1175
X2707Y11805
X2707Y1194
X27215Y1166
X273Y1189
X273Y1199
X27375Y1166
X274Y1189
X274Y1199
X275Y1199
X275Y1189
X2755Y1166
X2773Y1189
X2816Y1191
X2816Y1175
X2874Y11717
X2949Y11717
X3174Y11717
X3324Y11717
X3324Y12467
X3174Y12467
X3105Y1262
X3105Y1245
X2961Y1221
X2959Y1258
X2959Y1242
X2915Y125
X2907Y1221
X2818Y1225
X2817Y1255
X2773Y1204
X275Y1209
X27475Y1232
X274Y1209
X273Y1209
X2707Y12125
X269Y124
X2664Y1247
X2664Y1223
X2649Y12467
X264Y1247
X263Y1221
X2614Y1221
X2597Y1236
X2563Y1252
X2536Y1236
X2424Y12467
X2349Y12467
X2274Y12467
X2199Y12467
X2174Y1234
X2199Y13217
X2238Y1269
X2278Y1326
X2278Y1312
X2297Y1312
X2297Y1326
X2316Y1312
X2316Y1326
X2349Y13217
X2372Y1306
X2397Y1306
X2424Y13217
X2448Y1306
X2473Y1306
X2499Y1306
X2536Y1272
X25749Y1306
X2581Y1272
X2597Y1272
X26003Y1306
X26257Y1306
X26511Y1306
X2697Y1275
X27019Y1306
X27273Y1306
X27527Y1306
X2756Y1268
X2772Y1268
X27781Y1306
X2788Y1268
X2799Y13217
X28289Y1306
X2853Y1268
X28543Y1306
X2871Y1269
X28797Y1306
X2889Y1268
X29051Y1306
X2956Y1306
X2981Y1306
X3007Y1306
X3087Y1325
X3112Y1288
X3112Y1324
X3137Y1297
X3151Y1269
X3173Y1297
X3174Y13217
X3216Y1268
X3324Y13217
X32755Y142
X32675Y142
X3262Y1396
X32555Y142
X3249Y1396
X3216Y1338
X3215Y1366
X3215Y142
X3205Y1438
X3199Y1366
X3199Y142
X3174Y13967
X3167Y1423
X3152Y1423
X3133Y1337
X3133Y1329
X3094Y133
X3089Y14395
X30765Y14395
X304Y1422
X3025Y1422
X29625Y14395
X29495Y14395
X2913Y1423
X2898Y1423
X2835Y14395
X28225Y14395
X2799Y13967
X2786Y1423
X2771Y1423
X2708Y14395
X26955Y14395
X2659Y1423
X2644Y1423
X25815Y14395
X25685Y14395
X2532Y1423
X2517Y1423
X2454Y14395
X24415Y14395
X2405Y1423
X2389Y1423
X2347Y1366
X2347Y1331
X2347Y1347
X2327Y1427
X23145Y14395
X2305Y1391
X2299Y1415
X2299Y1439
X22815Y14215
X2273Y1391
X227Y14215
X2199Y13967
X21545Y15445
X22295Y15445
X23045Y15445
X23273Y1561
X2389Y1577
X2405Y1577
X24415Y156
X24543Y156
X2467Y156
X24797Y156
X24924Y156
X25051Y156
X2516Y1577
X2532Y1577
X25686Y156
X25815Y156
X2643Y1577
X2659Y1577
X26795Y15445
X26956Y156
X27085Y156
X277Y1577
X2786Y1577
X28226Y156
X2835Y156
X2897Y1577
X2913Y1577
X29623Y156
X2975Y156
X29877Y156
X30004Y156
X30131Y156
X3024Y1577
X304Y1577
X30545Y15445
X30766Y156
X30895Y156
X3151Y1577
X3167Y1577
X32045Y15445
X3231Y1457
X3247Y1457
X32795Y15445
X32795Y16195
X32045Y16195
X31295Y16195
X29795Y16195
X29045Y16195
X2864Y162
X2838Y163
X2771Y1607
X2763Y1607
X27615Y15985
X27525Y1643
X2738Y15895
X27225Y1643
X27135Y15985
X26365Y162
X26365Y1636
X238Y1586
X23795Y16195
X2347Y1643
X2313Y1586
X23045Y16195
X2255Y1642
X22295Y16195
X22295Y16945
X2265Y1704
X2383Y16865
X25295Y1688
X2642Y16705
X2642Y16505
X2671Y16955
X2695Y1706
X2695Y16905
X2695Y16705
X2785Y16645
X2785Y16555
X2838Y1703
X2847Y16505
X29045Y16945
X30545Y16945
X31295Y16945
X32045Y16945
X32795Y16945
X32795Y17695
X31295Y17695
X30545Y17695
X29795Y17695
X2944Y1748
X2838Y1713
X2833Y17515
X2785Y17115
X27815Y1769
X27625Y1733
X2728Y1763
X27175Y1733
X27025Y17255
X2613Y1742
X2586Y17255
X2581Y1744
X2557Y1764
X2499Y1738
X2489Y1713
X2482Y1723
X2454Y1713
X2437Y1713
X2305Y1747
X2305Y1717
X23045Y17695
X2256Y1726
X2256Y1717
X2256Y1747
X2235Y1747
X2235Y1717
X2235Y1777
X22505Y18215
X2256Y1777
X2272Y1802
X2295Y1823
X23355Y17955
X23725Y17955
X23725Y18115
X2386Y18225
X23995Y17955
X23995Y18115
X24205Y17955
X24205Y18115
X2434Y18225
X24395Y18115
X24395Y17955
X24765Y17955
X24765Y18115
X249Y18225
X2498Y18225
X2506Y18225
X25435Y17955
X25435Y18115
X25635Y17715
X25645Y17955
X2632Y1792
X2684Y17835
X26905Y18325
X2726Y17745
X2752Y1783
X2763Y1783
X27895Y18325
X28225Y1778
X283Y1833
X2841Y1807
X29115Y17895
X29115Y17765
X32795Y18445
X31295Y18445
X303Y1894
X3025Y1875
X2968Y18365
X2968Y18745
X2896Y18635
X2896Y18475
X2844Y1849
X27975Y18405
X26825Y18405
X2578Y1838
X2546Y18435
X2538Y18435
X253Y18435
X2522Y18435
X2482Y18435
X2466Y18435
X23045Y18445
X2295Y1839
X2255Y1879
X22295Y18445
X23045Y19195
X2346Y19575
X2362Y19575
X241Y19575
X245Y19575
X24655Y1958
X249Y19575
X2498Y19575
X2506Y19575
X2514Y19575
X2522Y19575
X253Y19575
X2538Y19575
X2546Y19575
X2554Y19575
X26825Y19395
X26905Y19475
X2793Y19475
X27975Y19395
X2889Y1908
X2907Y1957
X2929Y193
X29365Y1938
X2972Y1904
X2982Y193
X2998Y1914
X303Y193
X3047Y1939
X3083Y1939
X3083Y1958
X3083Y1923
X31295Y19195
X31295Y19945
X3083Y198
X3083Y2002
X3083Y2023
X302Y1981
X2999Y1983
X29815Y20245
X293Y2008
X293Y1992
X28985Y2002
X2882Y2002
X2882Y19925
X2797Y1993
X2793Y19715
X2789Y1993
X2781Y1993
X2773Y1993
X27475Y2014
X27475Y2023
X271Y1988
X27Y1988
X269Y1988
X268Y1988
X2679Y2012
X2663Y2012
X2647Y2012
X2631Y2012
X2615Y2012
X24965Y19845
X24595Y19845
X24445Y19845
X24235Y19845
X24235Y19685
X23965Y19845
X23965Y19685
X23755Y19845
X2362Y2013
X2362Y1987
X2352Y1987
X2324Y20165
X22295Y19945
X21545Y21445
X22295Y20695
X231Y2099
X231Y2091
X231Y2107
X2324Y2026
X23795Y21445
X2421Y212
X24545Y21445
X2478Y2114
X248Y213
X2493Y2114
X2519Y2104
X26045Y20695
X26045Y21445
X26795Y20695
X26795Y21445
X27545Y20695
X27545Y21445
X28295Y20695
X28295Y21445
X2898Y2039
X29045Y21445
X2956Y2063
X2961Y2104
X29795Y21445
X2987Y2114
X29915Y20535
X3Y2029
X3002Y2114
X3016Y2047
X302Y213
X30545Y21445
X3059Y212
X31295Y20695
X31295Y21445
X31295Y22195
X3059Y222
X302Y223
X3002Y2214
X2987Y2214
X29795Y22195
X2961Y2204
X29045Y22195
X28295Y22195
X27545Y22195
X26795Y22195
X26045Y22195
X25295Y22195
X2519Y2204
X2493Y2214
X248Y223
X2478Y2214
X24545Y22195
X2421Y222
X2405Y2165
X2377Y2177
X21545Y22195
T3C.5F095S3
X2304Y0742
X2304Y0702
X2304Y0714
X2323Y0702
X2342Y0702
X2342Y0714
X2342Y0742
X2721Y0754
X2721Y0742
X2721Y0702
X2721Y0714
X274Y0702
X274Y0754
X2759Y0754
X2759Y0742
X2759Y0702
X2759Y0714
X3138Y0742
X3138Y0702
X3138Y0714
X3157Y0702
X3176Y0742
X3176Y0702
X3176Y0714
X3176Y076
X3176Y0798
X3176Y0779
X3138Y076
X3138Y0798
X3138Y0779
X3083Y0797
X307Y0797
X3057Y0797
X3034Y0802
X3021Y0802
X3009Y0774
X3009Y0802
X2996Y0774
X2996Y0802
X2963Y0797
X295Y0797
X2937Y0797
X2914Y0802
X2901Y0802
X2889Y0774
X2889Y0802
X2876Y0774
X2876Y0802
X2843Y0797
X283Y0797
X2817Y0797
X2794Y0802
X2781Y0802
X2769Y0774
X2769Y0802
X2756Y0802
X2756Y0774
X2723Y0797
X271Y0797
X2697Y0797
X2674Y0802
X2661Y0802
X2649Y0802
X2649Y0774
X2636Y0802
X2636Y0774
X2603Y0797
X259Y0797
X2577Y0797
X2554Y0802
X2541Y0802
X2529Y0802
X2529Y0774
X2516Y0774
X2516Y0802
X2483Y0797
X247Y0797
X2457Y0797
X2434Y0802
X2421Y0802
X2409Y0802
X2409Y0774
X2396Y0802
X2396Y0774
X2342Y0779
X2342Y076
X2342Y0798
X2304Y0779
X2304Y0798
X2304Y076
X2304Y085
X2304Y0869
X2342Y085
X2342Y0869
X2396Y0828
X2409Y0828
X2516Y0828
X2529Y0828
X2636Y0828
X2649Y0828
X2756Y0828
X2769Y0828
X2876Y0828
X2889Y0828
X2996Y0828
X3009Y0828
X3138Y085
X3138Y0869
X3176Y085
X3176Y0869
X3176Y0888
X3138Y0888
X2342Y0888
X2304Y0888
X2193Y112
X2159Y112
X2159Y1136
X2193Y1136
X229Y1263
X229Y1275
X276Y1668
X276Y1688
X274Y1668
X274Y1688
X272Y1688
X272Y1668
X272Y1708
X273Y189
X273Y188
X274Y1708
X274Y188
X274Y189
X275Y188
X275Y189
X276Y1708
X31515Y189
X2974Y198
X2974Y199
X2974Y2
X2964Y198
X2964Y2
X2964Y199
X2954Y2
X2954Y199
X2954Y198
X275Y19
X274Y19
X273Y19
X2215Y2188
X2231Y2188
X2281Y2185
X2305Y2213
X2333Y2099
X2333Y22
X2343Y2129
X2352Y2037
X2352Y2058
X2361Y2129
X2361Y21525
X238Y2188
X3312Y2115
T4C.6F197S55
X262Y20525
X2635Y20525
X265Y20525
X2665Y20525
X268Y20525
X2695Y20525
X271Y20525
X2725Y20525
X274Y20525
X2755Y20525
X277Y20525
X2785Y20525
X28Y20525
X2815Y20525
X283Y20525
X2845Y20525
X286Y20525
T5C.7F197S55
X2362Y2023
X238Y2023
X2392Y2058
X2392Y2037
X2384Y2079
X234Y2079
X2313Y2141
X226Y2049
X2215Y2053
X2214Y2108
X217Y2053
X217Y2108
X2292Y2199
X2292Y2218
X2304Y2261
X2378Y2261
T6C.9F197S55
X31973Y19583
X32227Y19456
X32227Y1971
X32227Y19964
X32227Y20218
X31973Y20091
X31973Y19837
X31973Y20345
X2564Y2072G85X257Y2072
X291Y2072G85X2916Y2072
T7C1.F197S55
X215Y2076
X22Y2076
T8C1.F197S55
X3316Y0784
X3316Y08094
X3316Y08348
X3316Y08602
X3316Y08856
X3316Y0911
X31591Y1381
X31591Y13556
X31337Y1381
X31337Y13556
X31083Y1381
X31083Y13556
X30829Y1381
X30829Y13556
X3055Y12493
X3055Y12747
X30321Y1381
X30321Y13556
X30067Y1381
X30067Y13556
X29813Y1381
X29813Y13556
X29559Y1381
X29559Y13556
X29051Y1381
X29051Y13556
X28797Y1381
X28797Y13556
X28543Y1381
X28543Y13556
X28289Y1381
X28289Y13556
X27781Y1381
X27781Y13556
X27527Y1381
X27527Y13556
X27273Y1381
X27273Y13556
X27019Y1381
X27019Y13556
X26511Y1381
X26511Y13556
X26257Y1381
X26257Y13556
X26003Y1381
X26003Y13556
X25749Y1381
X25749Y13556
X25241Y1381
X25241Y13556
X24987Y1381
X24987Y13556
X24733Y1381
X24733Y13556
X24479Y1381
X24479Y13556
X23971Y1381
X23971Y13556
X23717Y1381
X23717Y13556
X22503Y1443
X22757Y1443
X23717Y14064
X23971Y14064
X24479Y14064
X24733Y14064
X24987Y14064
X25241Y14064
X25749Y14064
X26003Y14064
X26257Y14064
X26511Y14064
X27019Y14064
X27273Y14064
X27527Y14064
X27781Y14064
X28289Y14064
X28543Y14064
X28797Y14064
X29051Y14064
X29559Y14064
X29813Y14064
X30067Y14064
X30321Y14064
X30829Y14064
X31083Y14064
X31337Y14064
X31591Y14064
X24694Y1682
X2444Y1682
X22757Y1557
X22503Y1557
X22127Y16311
X22127Y16819
X22127Y16057
X22127Y17073
X22127Y16565
X21873Y16057
X21873Y17073
X21873Y16819
X21873Y16311
X21873Y16565
X21873Y17581
X21873Y17327
X21873Y17835
X21873Y18089
X21873Y18343
X22127Y17327
X22127Y18089
X22127Y17581
X22127Y18343
X22127Y17835
X29281Y1813
X29535Y1813
X29789Y1813
X33268Y19237
X33268Y19491
X33268Y20563
X33268Y20309
X24714Y20456
X24714Y2071
X2446Y20456
X2446Y2071
X22053Y2215
X22307Y2215
X31477Y21388
X31477Y21642
X31731Y21388
X31731Y21642
X31985Y21388
X31985Y21642
X32239Y21388
X32239Y21642
X32493Y2215
X32493Y21388
X32493Y21642
X32747Y21388
X32747Y21642
X32747Y2215
X2245Y08475G85X2245Y08225
X2185Y0845G85X2185Y0825
X2205Y0788G85X2225Y0788
T9C1.2F139S55
X2254Y09475
X2254Y11725
X3241Y16953
X3241Y16679
X32156Y16816
X32156Y16542
X32156Y17364
X32156Y1709
X32156Y17638
X3241Y17501
X3241Y17227
T10C1.4F107S55
X24067Y0628
X24448Y0628
X24829Y0628
X2521Y0628
X25591Y0628
X25972Y0628
X26353Y0628
X26734Y0628
X28067Y0628
X28448Y0628
X28829Y0628
X2921Y0628
X29591Y0628
X29972Y0628
X30353Y0628
X30734Y0628
X331Y10015
X331Y10396
X2175Y0971
X2175Y1021
X331Y11158
X331Y10777
X331Y1192
X331Y11539
X331Y12301
X331Y13063
X331Y12682
X331Y13825
X331Y13444
X331Y14206
T11C1.6F089S55
X32557Y19125
X32557Y20675
T12C3.2F035S794
X2256Y0716
X3224Y0716
X32298Y1584
X32298Y1834
X2256Y2284
X3224Y2284
T13C3.2F035S794
X2185Y15
X3295Y15
T14C3.25F035S794
X32862Y19328
X32862Y20472
M30
