*
*
G04 PADS Layout (Build Number 2008.43.1) generated Gerber (RS-274-X) file*
G04 PC Version=2.1*
*
%IN "XPCB-019.pcb"*%
*
%MOMM*%
*
%FSLAX35Y35*%
*
*
*
*
G04 PC Standard Apertures*
*
*
G04 Thermal Relief Aperture macro.*
%AMTER*
1,1,$1,0,0*
1,0,$1-$2,0,0*
21,0,$3,$4,0,0,45*
21,0,$3,$4,0,0,135*
%
*
*
G04 Annular Aperture macro.*
%AMANN*
1,1,$1,0,0*
1,0,$2,0,0*
%
*
*
G04 Odd Aperture macro.*
%AMODD*
1,1,$1,0,0*
1,0,$1-0.005,0,0*
%
*
*
G04 PC Custom Aperture Macros*
*
*
*
*
*
*
G04 PC Aperture Table*
*
%ADD012C,0.0254*%
%ADD026C,0.5*%
%ADD027C,0.1*%
*
*
*
*
G04 PC Circuitry*
G04 Layer Name XPCB-019.pcb - circuitry*
%LPD*%
*
*
G04 PC Custom Flashes*
G04 Layer Name XPCB-019.pcb - flashes*
%LPD*%
*
*
G04 PC Circuitry*
G04 Layer Name XPCB-019.pcb - circuitry*
%LPD*%
*
G54D12*
G54D26*
G01X10735000Y9485000D03*
X10525000Y10375000D03*
X9475000Y9625000D03*
Y10375000D03*
X10525000Y9620000D03*
X10375000Y10525000D03*
X9625000Y9475000D03*
Y10525000D03*
X10345000Y9825000D03*
X10375000Y9475000D03*
G54D27*
X10381311Y9925000D02*
G75*
G03X10381311I-36311J0D01*
G01Y10025000D02*
G03X10381311I-36311J0D01*
G01Y10125000D02*
G03X10381311I-36311J0D01*
G01Y10225000D02*
G03X10381311I-36311J0D01*
G01X10301311Y9975000D02*
G03X10301311I-36311J0D01*
G01Y10075000D02*
G03X10301311I-36311J0D01*
G01Y10175000D02*
G03X10301311I-36311J0D01*
G01X10161311Y9655000D02*
G03X10161311I-36311J0D01*
G01X10211311Y9735000D02*
G03X10211311I-36311J0D01*
G01X10261311Y10265000D02*
G03X10261311I-36311J0D01*
G01X10061311Y9655000D02*
G03X10061311I-36311J0D01*
G01X10111311Y9735000D02*
G03X10111311I-36311J0D01*
G01X10136311Y9900000D02*
G03X10136311I-36311J0D01*
G01Y10000000D02*
G03X10136311I-36311J0D01*
G01Y10100000D02*
G03X10136311I-36311J0D01*
G01X10161311Y10265000D02*
G03X10161311I-36311J0D01*
G01X10211311Y10345000D02*
G03X10211311I-36311J0D01*
G01X9961311Y9655000D02*
G03X9961311I-36311J0D01*
G01X10011311Y9735000D02*
G03X10011311I-36311J0D01*
G01X10036311Y9900000D02*
G03X10036311I-36311J0D01*
G01Y10000000D02*
G03X10036311I-36311J0D01*
G01Y10100000D02*
G03X10036311I-36311J0D01*
G01X10061311Y10265000D02*
G03X10061311I-36311J0D01*
G01X10111311Y10345000D02*
G03X10111311I-36311J0D01*
G01X9861311Y9655000D02*
G03X9861311I-36311J0D01*
G01X9911311Y9735000D02*
G03X9911311I-36311J0D01*
G01X9936311Y9900000D02*
G03X9936311I-36311J0D01*
G01Y10000000D02*
G03X9936311I-36311J0D01*
G01Y10100000D02*
G03X9936311I-36311J0D01*
G01X9961311Y10265000D02*
G03X9961311I-36311J0D01*
G01X10011311Y10345000D02*
G03X10011311I-36311J0D01*
G01X9811311Y9735000D02*
G03X9811311I-36311J0D01*
G01X9861311Y10265000D02*
G03X9861311I-36311J0D01*
G01X9911311Y10345000D02*
G03X9911311I-36311J0D01*
G01X9771311Y9825000D02*
G03X9771311I-36311J0D01*
G01Y9925000D02*
G03X9771311I-36311J0D01*
G01Y10025000D02*
G03X9771311I-36311J0D01*
G01X9691311Y9775000D02*
G03X9691311I-36311J0D01*
G01Y9875000D02*
G03X9691311I-36311J0D01*
G01Y9975000D02*
G03X9691311I-36311J0D01*
G01X9761311Y10265000D02*
G03X9761311I-36311J0D01*
G01X9811311Y10345000D02*
G03X9811311I-36311J0D01*
G01X10261311Y9655000D02*
G03X10261311I-36311J0D01*
G01X10756311D02*
G03X10756311I-36311J0D01*
G01X10616311Y10485000D02*
G03X10616311I-36311J0D01*
G01X9456311Y9515000D02*
G03X9456311I-36311J0D01*
G01Y10485000D02*
G03X9456311I-36311J0D01*
G01X10795000Y9406000D02*
Y9494000D01*
G03X10794000Y9495000I-1000J0*
G01X10608567*
G03X10607801Y9493357I0J-1000*
G01X10552199D02*
G03X10607801I27801J-23357D01*
G01X10552199D02*
G03X10551433Y9495000I-766J643D01*
G01X10445000*
Y9794000*
G03X10444000Y9795000I-1000J0*
G01X10378986*
G03X10378247Y9794674I0J-1000*
G01X10311753D02*
G03X10378247I33247J30326D01*
G01X10311753D02*
G03X10311014Y9795000I-739J-674D01*
G01X10297110*
G03X10296250Y9793491I0J-1000*
G01X10293223Y9797846D02*
G03X10296250Y9793491I-28223J-22846D01*
G01X10293223Y9797846D02*
G03X10295000Y9798475I777J629D01*
G01Y9851525*
G03X10293223Y9852154I-1000J0*
G01X10296250Y9856509D02*
G03X10293223Y9852154I-31250J18491D01*
G01X10296250Y9856509D02*
G03X10297110Y9855000I860J-509D01*
G01X10311014*
G03X10311753Y9855326I0J1000*
G01X10378247D02*
G03X10311753I-33247J-30326D01*
G01X10378247D02*
G03X10378986Y9855000I739J674D01*
G01X10444000*
G03X10445000Y9856000I0J1000*
G01Y11365591*
X9555000D02*
Y9406000D01*
G03X9556000Y9405000I1000J0*
G01X10445416*
G03X10446343Y9406375I-0J1000*
G01X10513657D02*
G03X10446343I-33657J13625D01*
G01X10513657D02*
G03X10514584Y9405000I927J-375D01*
G01X10794000*
G03X10795000Y9406000I0J1000*
G01X10381311Y9925000D02*
G03X10381311I-36311J0D01*
G01Y10025000D02*
G03X10381311I-36311J0D01*
G01Y10125000D02*
G03X10381311I-36311J0D01*
G01Y10225000D02*
G03X10381311I-36311J0D01*
G01X10301311Y9975000D02*
G03X10301311I-36311J0D01*
G01Y10075000D02*
G03X10301311I-36311J0D01*
G01Y10175000D02*
G03X10301311I-36311J0D01*
G01X10161311Y9655000D02*
G03X10161311I-36311J0D01*
G01X10211311Y9735000D02*
G03X10211311I-36311J0D01*
G01X10261311Y10265000D02*
G03X10261311I-36311J0D01*
G01X10308371Y10327166D02*
G03Y10362834I31629J17834D01*
G01Y10327166D02*
G03X10306629I-871J-492D01*
G01Y10362834D02*
G03Y10327166I-31629J-17834D01*
G01Y10362834D02*
G03X10308371I871J492D01*
G01X10061311Y9655000D02*
G03X10061311I-36311J0D01*
G01X10111311Y9735000D02*
G03X10111311I-36311J0D01*
G01X10136311Y9900000D02*
G03X10136311I-36311J0D01*
G01Y10000000D02*
G03X10136311I-36311J0D01*
G01Y10100000D02*
G03X10136311I-36311J0D01*
G01X10161311Y10265000D02*
G03X10161311I-36311J0D01*
G01X10211311Y10345000D02*
G03X10211311I-36311J0D01*
G01X9961311Y9655000D02*
G03X9961311I-36311J0D01*
G01X10011311Y9735000D02*
G03X10011311I-36311J0D01*
G01X10036311Y9900000D02*
G03X10036311I-36311J0D01*
G01Y10000000D02*
G03X10036311I-36311J0D01*
G01Y10100000D02*
G03X10036311I-36311J0D01*
G01X10061311Y10265000D02*
G03X10061311I-36311J0D01*
G01X10111311Y10345000D02*
G03X10111311I-36311J0D01*
G01X9861311Y9655000D02*
G03X9861311I-36311J0D01*
G01X9911311Y9735000D02*
G03X9911311I-36311J0D01*
G01X9936311Y9900000D02*
G03X9936311I-36311J0D01*
G01Y10000000D02*
G03X9936311I-36311J0D01*
G01Y10100000D02*
G03X9936311I-36311J0D01*
G01X9961311Y10265000D02*
G03X9961311I-36311J0D01*
G01X10011311Y10345000D02*
G03X10011311I-36311J0D01*
G01X9693371Y9637166D02*
G03Y9672834I31629J17834D01*
G01Y9637166D02*
G03X9691629I-871J-492D01*
G01Y9672834D02*
G03Y9637166I-31629J-17834D01*
G01Y9672834D02*
G03X9693371I871J492D01*
G01X9811311Y9735000D02*
G03X9811311I-36311J0D01*
G01X9861311Y10265000D02*
G03X9861311I-36311J0D01*
G01X9911311Y10345000D02*
G03X9911311I-36311J0D01*
G01X9771311Y9825000D02*
G03X9771311I-36311J0D01*
G01Y9925000D02*
G03X9771311I-36311J0D01*
G01Y10025000D02*
G03X9771311I-36311J0D01*
G01X9691311Y9775000D02*
G03X9691311I-36311J0D01*
G01Y9875000D02*
G03X9691311I-36311J0D01*
G01Y9975000D02*
G03X9691311I-36311J0D01*
G01X9761311Y10265000D02*
G03X9761311I-36311J0D01*
G01X9811311Y10345000D02*
G03X9811311I-36311J0D01*
G01X10362834Y9693371D02*
G03X10327166I-17834J31629D01*
G01X10362834D02*
G03Y9691629I492J-871D01*
G01X10327166D02*
G03X10362834I17834J-31629D01*
G01X10327166D02*
G03Y9693371I-492J871D01*
G01X10261311Y9655000D02*
G03X10261311I-36311J0D01*
G01X10820001Y9495000D02*
Y9405000D01*
X10795000Y9379999D02*
G03X10820001Y9405000I0J25001D01*
G01X10795000Y9379999D02*
X9555000D01*
X9535708Y9389099D02*
G03X9555000Y9379999I19292J15901D01*
G01X9535708Y9389099D02*
G03X9534402Y9389308I-771J-636D01*
G01X9528624Y9453658D02*
G03X9534402Y9389308I-13624J-33658D01*
G01X9528624Y9453658D02*
G03X9529999Y9454585I375J927D01*
G01X9529999D02*
Y10545415D01*
X9529999D02*
G03X9528624Y10546342I-1000J0D01*
G01Y10613658D02*
G03Y10546342I-13624J-33658D01*
G01Y10613658D02*
G03X9529999Y10614585I375J927D01*
G01X9529999D02*
Y11365591D01*
X10470001D02*
Y10614585D01*
X10470001D02*
G03X10471376Y10613658I1000J-0D01*
G01Y10546342D02*
G03Y10613658I13624J33658D01*
G01Y10546342D02*
G03X10470001Y10545415I-375J-927D01*
G01X10470001D02*
Y9855000D01*
X10445000Y9829999D02*
G03X10470001Y9855000I0J25001D01*
G01X10445000Y9829999D02*
X10321001D01*
X10321001D02*
G03X10320001Y9828999I-0J-1000D01*
G01X10320001D02*
Y9821001D01*
X10320001D02*
G03X10321001Y9820001I1000J-0D01*
G01X10321001D02*
X10445000D01*
X10470001Y9795000D02*
G03X10445000Y9820001I-25001J0D01*
G01X10470001Y9795000D02*
Y9521001D01*
X10470001D02*
G03X10471001Y9520001I1000J-0D01*
G01X10471001D02*
X10706364D01*
X10706364D02*
G03X10706987Y9520218I0J1000D01*
G01X10763013D02*
G03X10706987I-28013J-35218D01*
G01X10763013D02*
G03X10763636Y9520001I623J783D01*
G01X10763636D02*
X10795000D01*
X10820001Y9495000D02*
G03X10795000Y9520001I-25001J0D01*
G01X10756311Y9655000D02*
G03X10756311I-36311J0D01*
G01X10616311Y10485000D02*
G03X10616311I-36311J0D01*
G01X9456311Y9515000D02*
G03X9456311I-36311J0D01*
G01Y10485000D02*
G03X9456311I-36311J0D01*
G01X10718700Y9405000D02*
X10795000Y9481300D01*
X10731428Y9405000D02*
X10795000Y9468572D01*
X10744156Y9405000D02*
X10795000Y9455844D01*
X10756883Y9405000D02*
X10795000Y9443117D01*
X10769611Y9405000D02*
X10795000Y9430389D01*
X10782339Y9405000D02*
X10795000Y9417661D01*
X10705972Y9405000D02*
X10795000Y9494028D01*
X10693244Y9405000D02*
X10783244Y9495000D01*
X10680516Y9405000D02*
X10770516Y9495000D01*
X10667788Y9405000D02*
X10757788Y9495000D01*
X10655060Y9405000D02*
X10745060Y9495000D01*
X10642333Y9405000D02*
X10732333Y9495000D01*
X10629605Y9405000D02*
X10719605Y9495000D01*
X10616877Y9405000D02*
X10706877Y9495000D01*
X10604149Y9405000D02*
X10694149Y9495000D01*
X10591421Y9405000D02*
X10681421Y9495000D01*
X10578693Y9405000D02*
X10668693Y9495000D01*
X10608623Y9447658D02*
X10655965Y9495000D01*
X10616256Y9468019D02*
X10643237Y9495000D01*
X10615038Y9479528D02*
X10630510Y9495000D01*
X10611258Y9488476D02*
X10617782Y9495000D01*
X10565965Y9405000D02*
X10602342Y9441377D01*
X10553237Y9405000D02*
X10581981Y9433744D01*
X10540510Y9405000D02*
X10570472Y9434962D01*
X10527782Y9405000D02*
X10561523Y9438742D01*
X10515054Y9405000D02*
X10554351Y9444298D01*
X10505243Y9446101D02*
X10551021Y9491879D01*
X10516296Y9418970D02*
X10548782Y9451456D01*
X10514837Y9430239D02*
X10544985Y9460387D01*
X10510915Y9439045D02*
X10543738Y9471867D01*
X10497968Y9451553D02*
X10541414Y9495000D01*
X10488892Y9455205D02*
X10528687Y9495000D01*
X10477158Y9456199D02*
X10515959Y9495000D01*
X10413231Y9405000D02*
X10503231Y9495000D01*
X10400503Y9405000D02*
X10490503Y9495000D01*
X10387775Y9405000D02*
X10477775Y9495000D01*
X10375047Y9405000D02*
X10465047Y9495000D01*
X10362319Y9405000D02*
X10452319Y9495000D01*
X9555000Y10545045D02*
X10375546Y11365591D01*
X9555000Y10532317D02*
X10388274Y11365591D01*
X9555000Y10519589D02*
X10401002Y11365591D01*
X9555000Y10506861D02*
X10413730Y11365591D01*
X9555000Y10494133D02*
X10426458Y11365591D01*
X9555000Y10481405D02*
X10439186Y11365591D01*
X9555000Y10468678D02*
X10445000Y11358677D01*
X9555000Y10455950D02*
X10445000Y11345949D01*
X9555000Y10443222D02*
X10445000Y11333221D01*
X9555000Y10430494D02*
X10445000Y11320493D01*
X9555000Y10417766D02*
X10445000Y11307766D01*
X9555000Y10405038D02*
X10445000Y11295038D01*
X9555000Y10392310D02*
X10445000Y11282310D01*
X9555000Y10379583D02*
X10445000Y11269582D01*
X9555000Y10366855D02*
X10445000Y11256854D01*
X9555000Y10354127D02*
X10445000Y11244126D01*
X9555000Y10341399D02*
X10445000Y11231398D01*
X9555000Y10328671D02*
X10445000Y11218671D01*
X9555000Y10315943D02*
X10445000Y11205943D01*
X9555000Y10303215D02*
X10445000Y11193215D01*
X9555000Y10290487D02*
X10445000Y11180487D01*
X9555000Y10277760D02*
X10445000Y11167759D01*
X9555000Y10265032D02*
X10445000Y11155031D01*
X9555000Y10252304D02*
X10445000Y11142303D01*
X9555000Y10239576D02*
X10445000Y11129575D01*
X9555000Y10226848D02*
X10445000Y11116848D01*
X9555000Y10214120D02*
X10445000Y11104120D01*
X9555000Y10201392D02*
X10445000Y11091392D01*
X9555000Y10188665D02*
X10445000Y11078664D01*
X9752787Y10373723D02*
X10445000Y11065936D01*
X9773049Y10381258D02*
X10445000Y11053208D01*
X9784551Y10380032D02*
X10445000Y11040480D01*
X9793495Y10376247D02*
X10445000Y11027753D01*
X9800663Y10370688D02*
X10445000Y11015025D01*
X9806229Y10363526D02*
X10445000Y11002297D01*
X9810021Y10354590D02*
X10445000Y10989569D01*
X9811261Y10343102D02*
X10445000Y10976841D01*
X9857939Y10377053D02*
X10445000Y10964113D01*
X9874925Y10381310D02*
X10445000Y10951385D01*
X9885959Y10379617D02*
X10445000Y10938657D01*
X9894622Y10375552D02*
X10445000Y10925930D01*
X9901559Y10369761D02*
X10445000Y10913202D01*
X9906890Y10362364D02*
X10445000Y10900474D01*
X9910388Y10353134D02*
X10445000Y10887746D01*
X9911103Y10341121D02*
X10445000Y10875018D01*
X9961361Y10378652D02*
X10445000Y10862290D01*
X9976708Y10381270D02*
X10445000Y10849562D01*
X9987321Y10379156D02*
X10445000Y10836835D01*
X9995715Y10374822D02*
X10445000Y10824107D01*
X10002422Y10368801D02*
X10445000Y10811379D01*
X10007514Y10361165D02*
X10445000Y10798651D01*
X10010701Y10351624D02*
X10445000Y10785923D01*
X10010813Y10339008D02*
X10445000Y10773195D01*
X10064199Y10379667D02*
X10445000Y10760467D01*
X10078410Y10381150D02*
X10445000Y10747739D01*
X10088640Y10378651D02*
X10445000Y10735012D01*
X10096774Y10374058D02*
X10445000Y10722284D01*
X10103253Y10367809D02*
X10445000Y10709556D01*
X10108100Y10359928D02*
X10445000Y10696828D01*
X10110957Y10350057D02*
X10445000Y10684100D01*
X10110356Y10336728D02*
X10445000Y10671372D01*
X10166706Y10380351D02*
X10445000Y10658644D01*
X10180042Y10380959D02*
X10445000Y10645917D01*
X10189916Y10378105D02*
X10445000Y10633189D01*
X10197799Y10373260D02*
X10445000Y10620461D01*
X10204050Y10366784D02*
X10445000Y10607733D01*
X10208646Y10358652D02*
X10445000Y10595005D01*
X10211149Y10348426D02*
X10445000Y10582277D01*
X10209675Y10334224D02*
X10445000Y10569549D01*
X10268988Y10380809D02*
X10445000Y10556821D01*
X10281610Y10380704D02*
X10445000Y10544094D01*
X10291154Y10377519D02*
X10445000Y10531366D01*
X10298792Y10372430D02*
X10445000Y10518638D01*
X10304815Y10365725D02*
X10445000Y10505910D01*
X10332303Y10380485D02*
X10445000Y10493182D01*
X10345446Y10380900D02*
X10445000Y10480454D01*
X10355234Y10377960D02*
X10445000Y10467726D01*
X10363054Y10373053D02*
X10445000Y10454999D01*
X10369248Y10366518D02*
X10445000Y10442271D01*
X10373779Y10358321D02*
X10445000Y10429543D01*
X10376186Y10348001D02*
X10445000Y10416815D01*
X10374456Y10333543D02*
X10445000Y10404087D01*
X10264951Y10211311D02*
X10445000Y10391359D01*
X10275979Y10209611D02*
X10445000Y10378631D01*
X10340071Y10260974D02*
X10445000Y10365903D01*
X10352378Y10260553D02*
X10445000Y10353176D01*
X10361762Y10257210D02*
X10445000Y10340448D01*
X10369279Y10251999D02*
X10445000Y10327720D01*
X10375187Y10245179D02*
X10445000Y10314992D01*
X10379390Y10236654D02*
X10445000Y10302264D01*
X10381301Y10225837D02*
X10445000Y10289536D01*
X10377963Y10209771D02*
X10445000Y10276808D01*
X10342115Y10161196D02*
X10445000Y10264081D01*
X10353860Y10160213D02*
X10445000Y10251353D01*
X10362943Y10156568D02*
X10445000Y10238625D01*
X10370223Y10151120D02*
X10445000Y10225897D01*
X10375900Y10144069D02*
X10445000Y10213169D01*
X10379828Y10135269D02*
X10445000Y10200441D01*
X10381297Y10124010D02*
X10445000Y10187713D01*
X10375827Y10105812D02*
X10445000Y10174985D01*
X10344040Y10061298D02*
X10445000Y10162258D01*
X10355292Y10059821D02*
X10445000Y10149530D01*
X10364087Y10055889D02*
X10445000Y10136802D01*
X10371134Y10050208D02*
X10445000Y10124074D01*
X10376578Y10042924D02*
X10445000Y10111346D01*
X10380219Y10033837D02*
X10445000Y10098618D01*
X10381193Y10022084D02*
X10445000Y10085890D01*
X10329825Y9957987D02*
X10445000Y10073163D01*
X10345865Y9961300D02*
X10445000Y10060435D01*
X10356675Y9959382D02*
X10445000Y10047707D01*
X10365196Y9955175D02*
X10445000Y10034979D01*
X10372013Y9949264D02*
X10445000Y10022251D01*
X10377220Y9941743D02*
X10445000Y10009523D01*
X10380558Y9932354D02*
X10445000Y9996795D01*
X10380970Y9920037D02*
X10445000Y9984067D01*
X10343640Y9869980D02*
X10445000Y9971340D01*
X10355214Y9868826D02*
X10445000Y9958612D01*
X10364616Y9865500D02*
X10445000Y9945884D01*
X10372480Y9860636D02*
X10445000Y9933156D01*
X10379572Y9855000D02*
X10445000Y9920428D01*
X10392300Y9855000D02*
X10445000Y9907700D01*
X10405028Y9855000D02*
X10445000Y9894972D01*
X10417755Y9855000D02*
X10445000Y9882245D01*
X10430483Y9855000D02*
X10445000Y9869517D01*
X10443211Y9855000D02*
X10445000Y9856789D01*
X10381065Y9729215D02*
X10445000Y9793149D01*
X10380034Y9715455D02*
X10445000Y9780422D01*
X10366539Y9689232D02*
X10445000Y9767694D01*
X10373069Y9683035D02*
X10445000Y9754966D01*
X10377972Y9675210D02*
X10445000Y9742238D01*
X10380905Y9665415D02*
X10445000Y9729510D01*
X10380476Y9652258D02*
X10445000Y9716782D01*
X10145945Y9405000D02*
X10445000Y9704054D01*
X10158673Y9405000D02*
X10445000Y9691327D01*
X10171401Y9405000D02*
X10445000Y9678599D01*
X10184129Y9405000D02*
X10445000Y9665871D01*
X10196857Y9405000D02*
X10445000Y9653143D01*
X10209585Y9405000D02*
X10445000Y9640415D01*
X10222313Y9405000D02*
X10445000Y9627687D01*
X10235041Y9405000D02*
X10445000Y9614959D01*
X10247768Y9405000D02*
X10445000Y9602231D01*
X10260496Y9405000D02*
X10445000Y9589504D01*
X10273224Y9405000D02*
X10445000Y9576776D01*
X10285952Y9405000D02*
X10445000Y9564048D01*
X10298680Y9405000D02*
X10445000Y9551320D01*
X10311408Y9405000D02*
X10445000Y9538592D01*
X10324136Y9405000D02*
X10445000Y9525864D01*
X10336864Y9405000D02*
X10445000Y9513136D01*
X10349591Y9405000D02*
X10445000Y9500409D01*
X10438687Y9405000D02*
X10444795Y9411108D01*
X10425959Y9405000D02*
X10443801Y9422842D01*
X9555000Y10557773D02*
X10362819Y11365591D01*
X10378390Y9739267D02*
X10434123Y9795000D01*
X9555000Y10570501D02*
X10350091Y11365591D01*
X10373673Y9747278D02*
X10421395Y9795000D01*
X9555000Y10583228D02*
X10337363Y11365591D01*
X10367313Y9753646D02*
X10408667Y9795000D01*
X9555000Y10595956D02*
X10324635Y11365591D01*
X10359311Y9758372D02*
X10395939Y9795000D01*
X9555000Y10608684D02*
X10311907Y11365591D01*
X10349270Y9761059D02*
X10383211Y9795000D01*
X9555000Y10621412D02*
X10299179Y11365591D01*
X9555000Y10634140D02*
X10286451Y11365591D01*
X10325888Y10055874D02*
X10364188Y10094173D01*
X10277341Y10109149D02*
X10360229Y10192037D01*
X10335540Y9760057D02*
X10357156Y9781672D01*
X9555000Y10646868D02*
X10273723Y11365591D01*
X10133218Y9405000D02*
X10352742Y9624524D01*
X10247996Y10207083D02*
X10351457Y10310544D01*
X10327310Y9866378D02*
X10349963Y9889030D01*
X10270065Y9910956D02*
X10347916Y9988807D01*
X10268434Y10011148D02*
X10345990Y10088703D01*
X10266733Y10111269D02*
X10344163Y10188699D01*
X10246796Y9684041D02*
X10342808Y9780053D01*
X9555000Y10659596D02*
X10260996Y11365591D01*
X10120490Y9405000D02*
X10339585Y9624095D01*
X10303205Y9855000D02*
X10337646Y9889442D01*
X10135555Y10107370D02*
X10336999Y10308814D01*
X10256740Y9910359D02*
X10336163Y9989781D01*
X10254238Y10009679D02*
X10334731Y10090172D01*
X10251405Y10108670D02*
X10333346Y10190610D01*
X10238668Y9688640D02*
X10331958Y9781931D01*
X10107762Y9405000D02*
X10329790Y9627028D01*
X10299663Y9864186D02*
X10328257Y9892780D01*
X9555000Y10672323D02*
X10248268Y11365591D01*
X10300348Y9966694D02*
X10327076Y9993422D01*
X10132213Y10116756D02*
X10326679Y10311221D01*
X10300807Y10068977D02*
X10325931Y10094100D01*
X10301100Y10171092D02*
X10324821Y10194813D01*
X10298645Y9761346D02*
X10323028Y9785728D01*
X10031395Y9405000D02*
X10322722Y9696327D01*
X10095034Y9405000D02*
X10321965Y9631931D01*
X10301151Y9878402D02*
X10320736Y9897987D01*
X10300960Y9980034D02*
X10319792Y9998866D01*
X10300705Y10081602D02*
X10318880Y10099777D01*
X10260605Y10257876D02*
X10318482Y10315752D01*
X10300393Y10183113D02*
X10318001Y10200721D01*
X10260344Y9646677D02*
X10316354Y9702687D01*
X10082306Y9405000D02*
X10315767Y9638461D01*
X10301271Y9776699D02*
X10315548Y9790976D01*
X9555000Y10685051D02*
X10235540Y11365591D01*
X10298654Y9888633D02*
X10314825Y9904804D01*
X10278658Y10008644D02*
X10314126Y10044112D01*
X10298108Y9989910D02*
X10314111Y10005913D01*
X10297523Y10091147D02*
X10313432Y10107057D01*
X10296899Y10192347D02*
X10312790Y10208238D01*
X10279934Y9908097D02*
X10312013Y9940175D01*
X10260838Y10270837D02*
X10311947Y10321946D01*
X10260961Y9660023D02*
X10311628Y9710689D01*
X10069578Y9405000D02*
X10311231Y9646653D01*
X10294062Y9896769D02*
X10310618Y9913325D01*
X10044122Y9405000D02*
X10310527Y9671404D01*
X10293264Y9997794D02*
X10310179Y10014708D01*
X10253270Y9677787D02*
X10309943Y9734460D01*
X10292434Y10098787D02*
X10309787Y10116140D01*
X10291571Y10199747D02*
X10309447Y10217623D01*
X10284638Y10205542D02*
X10309026Y10229929D01*
X10258112Y9669901D02*
X10308941Y9720730D01*
X10056850Y9405000D02*
X10308816Y9656966D01*
X10285730Y10104811D02*
X10308804Y10127885D01*
X10286789Y10004047D02*
X10308702Y10025960D01*
X10287814Y9903249D02*
X10308700Y9924135D01*
X10299159Y9787315D02*
X10306844Y9795000D01*
X9555000Y10697779D02*
X10222812Y11365591D01*
X10259019Y9810815D02*
X10295000Y9846795D01*
X10271632Y9810700D02*
X10295000Y9834068D01*
X10281171Y9807511D02*
X10295000Y9821340D01*
X10288806Y9802418D02*
X10295000Y9808612D01*
X9555000Y10710507D02*
X10210084Y11365591D01*
X10257816Y10280542D02*
X10288610Y10311337D01*
X10228446Y9691147D02*
X10278654Y9741355D01*
X9555000Y10723235D02*
X10197356Y11365591D01*
X10198314Y9762837D02*
X10275814Y9840337D01*
X10097305Y9763652D02*
X10273306Y9939652D01*
X10252847Y10288302D02*
X10273276Y10308730D01*
X10136063Y9904232D02*
X10271023Y10039193D01*
X10135839Y10005831D02*
X10268908Y10138900D01*
X9555000Y10735963D02*
X10184628Y11365591D01*
X10214256Y9689685D02*
X10263301Y9738729D01*
X10246256Y10294439D02*
X10262666Y10310848D01*
X10190558Y9767809D02*
X10261598Y9838849D01*
X10089301Y9768376D02*
X10259966Y9939040D01*
X10133384Y9914281D02*
X10258398Y10039295D01*
X10132818Y10015538D02*
X10256887Y10139607D01*
X10237995Y10298905D02*
X10254275Y10315185D01*
X10160805Y9648961D02*
X10252685Y9740841D01*
X10180856Y9770835D02*
X10251367Y9841346D01*
X9555000Y10748691D02*
X10171900Y11365591D01*
X10079258Y9771060D02*
X10250090Y9941892D01*
X10128664Y9922289D02*
X10248853Y10042477D01*
X10127850Y10023298D02*
X10247653Y10143101D01*
X10227581Y10301219D02*
X10247570Y10321208D01*
X10160707Y9661591D02*
X10244290Y9745174D01*
X10167903Y9770610D02*
X10243231Y9845938D01*
X10212852Y10299218D02*
X10242481Y10328846D01*
X10065522Y9770052D02*
X10242206Y9946736D01*
X10122302Y9928655D02*
X10241213Y10047566D01*
X10121260Y10029436D02*
X10240253Y10148429D01*
X10160974Y10260068D02*
X10239296Y10338390D01*
X10160554Y10272375D02*
X10239191Y10351012D01*
X9555000Y10761419D02*
X10159173Y11365591D01*
X10209206Y9722818D02*
X10237582Y9751194D01*
X10110039Y9725473D02*
X10236751Y9852186D01*
X10010601Y9727859D02*
X10235953Y9953211D01*
X10114297Y9933377D02*
X10235189Y10054270D01*
X10113000Y10033904D02*
X10234458Y10155362D01*
X10018667Y9405000D02*
X10233323Y9619656D01*
X10135973Y10095060D02*
X10232917Y10192004D01*
X10211220Y9737560D02*
X10232489Y9758829D01*
X10127004Y10124275D02*
X10232124Y10229395D01*
X10111064Y9739226D02*
X10231903Y9860066D01*
X10010840Y9740826D02*
X10231356Y9961342D01*
X10135603Y9992867D02*
X10231330Y10088595D01*
X10104252Y9936061D02*
X10230851Y10062659D01*
X10102587Y10036218D02*
X10230389Y10164021D01*
X10135041Y9890482D02*
X10230321Y9985762D01*
X10103667Y9757286D02*
X10229641Y9883260D01*
X10208912Y9747979D02*
X10229300Y9768368D01*
X10204448Y9756243D02*
X10229185Y9780981D01*
X10108386Y9749277D02*
X10229044Y9869935D01*
X10007820Y9750534D02*
X10228852Y9971566D01*
X10090513Y9935049D02*
X10228731Y10073267D01*
X10087862Y10034222D02*
X10228689Y10175049D01*
X9555000Y10774146D02*
X10146445Y11365591D01*
X10005939Y9405000D02*
X10219977Y9619039D01*
X10120185Y10130183D02*
X10219163Y10229162D01*
X9555000Y10786874D02*
X10133717Y11365591D01*
X9993211Y9405000D02*
X10210099Y9621888D01*
X10111661Y10134387D02*
X10209458Y10232184D01*
X9980483Y9405000D02*
X10202213Y9626730D01*
X10100846Y10136301D02*
X10201698Y10237153D01*
X9555000Y10799602D02*
X10120989Y11365591D01*
X9967755Y9405000D02*
X10195959Y9633204D01*
X10084788Y10132971D02*
X10195561Y10243744D01*
X9955027Y9405000D02*
X10191360Y9641332D01*
X10036195Y10097105D02*
X10191095Y10252005D01*
X10031571Y10117937D02*
X10190782Y10277148D01*
X9929572Y9405000D02*
X10190315Y9665744D01*
X9942299Y9405000D02*
X10188853Y9651554D01*
X10035215Y10108853D02*
X10188781Y10262419D01*
X9555000Y10812330D02*
X10108261Y11365591D01*
X10157527Y9671139D02*
X10187182Y9700794D01*
X10157211Y10281760D02*
X10185776Y10310325D01*
X9555000Y10825058D02*
X10095533Y11365591D01*
X10152440Y9678780D02*
X10172440Y9698780D01*
X10152001Y10289278D02*
X10171574Y10308851D01*
X9555000Y10837786D02*
X10082805Y11365591D01*
X10145738Y9684806D02*
X10162021Y9701088D01*
X10145181Y10295186D02*
X10161348Y10311354D01*
X10137350Y9689146D02*
X10153757Y9705552D01*
X10136656Y10299389D02*
X10153216Y10315950D01*
X9555000Y10850514D02*
X10070077Y11365591D01*
X10126745Y9691269D02*
X10147163Y9711686D01*
X10125840Y10301301D02*
X10146740Y10322201D01*
X10111427Y9688678D02*
X10142191Y9719442D01*
X10109776Y10297965D02*
X10141895Y10330084D01*
X10060213Y10273858D02*
X10139649Y10353294D01*
X10060395Y9663102D02*
X10139390Y9742097D01*
X10061098Y9651077D02*
X10139165Y9729144D01*
X10061196Y10262112D02*
X10139041Y10339958D01*
X9555000Y10863241D02*
X10057350Y11365591D01*
X9916844Y9405000D02*
X10131039Y9619195D01*
X10026124Y10125218D02*
X10129932Y10229026D01*
X9555000Y10875969D02*
X10044622Y11365591D01*
X9904116Y9405000D02*
X10118409Y9619293D01*
X10019075Y10130897D02*
X10117625Y10229446D01*
X9555000Y10888697D02*
X10031894Y11365591D01*
X10002853Y9758295D02*
X10109518Y9864959D01*
X9891388Y9405000D02*
X10108861Y9622473D01*
X10010276Y10134826D02*
X10108240Y10232789D01*
X10035603Y9892868D02*
X10107133Y9964397D01*
X10035973Y9995060D02*
X10104940Y10064027D01*
X9878660Y9405000D02*
X10101220Y9627560D01*
X9999020Y10136297D02*
X10100722Y10237999D01*
X9555000Y10901425D02*
X10019166Y11365591D01*
X9996264Y9764433D02*
X10095768Y9863937D01*
X9865932Y9405000D02*
X10095194Y9634262D01*
X9980836Y10130842D02*
X10094814Y10244819D01*
X10035839Y9905831D02*
X10094169Y9964161D01*
X10035555Y10007370D02*
X10092630Y10064445D01*
X9930893Y10119082D02*
X10092035Y10280224D01*
X9827749Y9405000D02*
X10091322Y9668573D01*
X9853204Y9405000D02*
X10090854Y9642650D01*
X9936298Y10099031D02*
X10090611Y10253344D01*
X9840476Y9405000D02*
X10088731Y9653255D01*
X9934824Y10110285D02*
X10088699Y10264160D01*
X9555000Y10914153D02*
X10006438Y11365591D01*
X9988005Y9768902D02*
X10085719Y9866616D01*
X10056904Y9672338D02*
X10084527Y9699961D01*
X10032818Y9915538D02*
X10084462Y9967182D01*
X10056569Y10282941D02*
X10083272Y10309644D01*
X10032213Y10016756D02*
X10083244Y10067787D01*
X9977593Y9771218D02*
X10077711Y9871336D01*
X10027850Y9923298D02*
X10076702Y9972150D01*
X10027004Y10024275D02*
X10075725Y10072996D01*
X9555000Y10926881D02*
X9993710Y11365591D01*
X9962872Y9769225D02*
X10071345Y9877698D01*
X10051578Y9679740D02*
X10070774Y9698936D01*
X10021260Y9929436D02*
X10070564Y9978740D01*
X10051121Y10290222D02*
X10069943Y10309043D01*
X10020185Y10030183D02*
X10069817Y10079815D01*
X9984788Y10032970D02*
X10067029Y10115212D01*
X9910972Y9730053D02*
X10066622Y9885703D01*
X10013000Y9933904D02*
X10066096Y9987000D01*
X9987862Y9934222D02*
X10065778Y10012138D01*
X10011661Y10034387D02*
X10065613Y10088339D01*
X9907215Y9751752D02*
X10064951Y9909487D01*
X9910556Y9742365D02*
X10063939Y9895748D01*
X10002587Y9936218D02*
X10063782Y9997413D01*
X10000846Y10036301D02*
X10063699Y10099154D01*
X10044646Y9685537D02*
X10060723Y9701614D01*
X9555000Y10939609D02*
X9980982Y11365591D01*
X10044071Y10295899D02*
X10060072Y10311900D01*
X10035989Y9689608D02*
X10052714Y9706333D01*
X10035271Y10299827D02*
X10052191Y10316747D01*
X9555000Y10952337D02*
X9968254Y11365591D01*
X10024964Y9691311D02*
X10046348Y9712695D01*
X10024013Y10301297D02*
X10045942Y10323226D01*
X10008023Y9687097D02*
X10041624Y9720699D01*
X10005819Y10295831D02*
X10041349Y10331360D01*
X9959822Y10275290D02*
X10040333Y10355801D01*
X9960030Y9664560D02*
X10039948Y9744478D01*
X9961259Y9653061D02*
X10038940Y9730742D01*
X9961298Y10264038D02*
X10038850Y10341590D01*
X9555000Y10965064D02*
X9955527Y11365591D01*
X9815021Y9405000D02*
X10028923Y9618902D01*
X9925213Y10126130D02*
X10027888Y10228804D01*
X9555000Y10977792D02*
X9942799Y11365591D01*
X9802293Y9405000D02*
X10016898Y9619605D01*
X9917930Y10131575D02*
X10016142Y10229787D01*
X9555000Y10990520D02*
X9930071Y11365591D01*
X9789565Y9405000D02*
X10007662Y9623096D01*
X9902007Y9759271D02*
X10007132Y9864397D01*
X9908844Y10135217D02*
X10007059Y10233431D01*
X9935973Y9895060D02*
X10004940Y9964027D01*
X9936195Y9997105D02*
X10002895Y10063805D01*
X9776837Y9405000D02*
X10000260Y9628422D01*
X9897094Y10136194D02*
X9999778Y10238879D01*
X9555000Y11003248D02*
X9917343Y11365591D01*
X9764109Y9405000D02*
X9994463Y9635354D01*
X9955870Y10245882D02*
X9994169Y10284181D01*
X9895188Y9765181D02*
X9994169Y9864161D01*
X9771260Y10023089D02*
X9994101Y10245929D01*
X9953760Y9632834D02*
X9992903Y9671977D01*
X9935555Y9907370D02*
X9992630Y9964445D01*
X9935215Y10008853D02*
X9991147Y10064785D01*
X9751381Y9405000D02*
X9990392Y9644011D01*
X9770024Y10034580D02*
X9990173Y10254729D01*
X9766234Y10043518D02*
X9988703Y10265987D01*
X9738653Y9405000D02*
X9988689Y9655036D01*
X9886665Y9769386D02*
X9984462Y9867182D01*
X9555000Y11015976D02*
X9904615Y11365591D01*
X9932213Y9916756D02*
X9983244Y9967787D01*
X9956243Y9673501D02*
X9982141Y9699399D01*
X9931571Y10017937D02*
X9982063Y10068429D01*
X9955890Y10284086D02*
X9980992Y10309187D01*
X9875852Y9771301D02*
X9976702Y9872150D01*
X9927004Y9924275D02*
X9975725Y9972996D01*
X9926124Y10025218D02*
X9974782Y10073876D01*
X9555000Y11028704D02*
X9891887Y11365591D01*
X9859800Y9767976D02*
X9970564Y9878740D01*
X9920185Y9930183D02*
X9969817Y9979815D01*
X9950683Y9680668D02*
X9969174Y9699160D01*
X9930859Y10080865D02*
X9969158Y10119164D01*
X9919075Y10030897D02*
X9969103Y10080925D01*
X9950210Y10291133D02*
X9968376Y10309299D01*
X9884788Y9932970D02*
X9967030Y10015212D01*
X9811194Y9732098D02*
X9966096Y9887000D01*
X9806573Y9752933D02*
X9965778Y9912138D01*
X9911661Y9934387D02*
X9965613Y9988339D01*
X9910276Y10034826D02*
X9965174Y10089724D01*
X9810216Y9743848D02*
X9963782Y9897413D01*
X9899020Y10036297D02*
X9963703Y10100980D01*
X9900846Y9936301D02*
X9963699Y9999154D01*
X9943519Y9686233D02*
X9959466Y9702180D01*
X9942926Y10296577D02*
X9958835Y10312486D01*
X9555000Y11041432D02*
X9879159Y11365591D01*
X9934582Y9690023D02*
X9951705Y9707147D01*
X9933839Y10300218D02*
X9951199Y10317578D01*
X9725926Y9405000D02*
X9947166Y9626240D01*
X9555000Y11054159D02*
X9866431Y11365591D01*
X9923091Y9691260D02*
X9945567Y9713736D01*
X9922086Y10301193D02*
X9945178Y10324285D01*
X9760669Y10050681D02*
X9944118Y10234130D01*
X9859383Y10276674D02*
X9941348Y10358639D01*
X9902956Y9683854D02*
X9941098Y9721995D01*
X9857985Y10249820D02*
X9940844Y10332679D01*
X9859615Y9665968D02*
X9940775Y9747128D01*
X9861310Y9654936D02*
X9938782Y9732407D01*
X9861300Y10265863D02*
X9938730Y10343292D01*
X9555000Y11066887D02*
X9853704Y11365591D01*
X9713198Y9405000D02*
X9926939Y9618741D01*
X9753503Y10056243D02*
X9925962Y10228702D01*
X9555000Y11079615D02*
X9840976Y11365591D01*
X9880836Y10030842D02*
X9919135Y10069141D01*
X9700470Y9405000D02*
X9915440Y9619970D01*
X9744561Y10060029D02*
X9914710Y10230178D01*
X9555000Y11092343D02*
X9828248Y11365591D01*
X9687742Y9405000D02*
X9906499Y9623757D01*
X9733063Y10061259D02*
X9905914Y10234110D01*
X9801128Y9760215D02*
X9904940Y9864027D01*
X9770703Y9831614D02*
X9902895Y9963805D01*
X9770390Y9933124D02*
X9900969Y10063702D01*
X9675014Y9405000D02*
X9899332Y9629317D01*
X9712844Y10053767D02*
X9898867Y10239790D01*
X9857065Y9637963D02*
X9896146Y9677044D01*
X9555000Y11105071D02*
X9815520Y11365591D01*
X9662286Y9405000D02*
X9893767Y9636481D01*
X9657568Y10011220D02*
X9893423Y10247074D01*
X9794079Y9765894D02*
X9892630Y9864445D01*
X9767518Y9841156D02*
X9891147Y9964785D01*
X9649558Y9405000D02*
X9889977Y9645418D01*
X9642832Y10009211D02*
X9889782Y10256161D01*
X9766894Y9942355D02*
X9889715Y10065176D01*
X9555000Y9934107D02*
X9888807Y10267914D01*
X9636830Y9405000D02*
X9888740Y9656909D01*
X9785281Y9769825D02*
X9883244Y9867787D01*
X9555000Y11117799D02*
X9802792Y11365591D01*
X9762428Y9848794D02*
X9882063Y9968429D01*
X9761565Y9949754D02*
X9880918Y10069107D01*
X9855548Y9674629D02*
X9879947Y9699028D01*
X9855176Y10285195D02*
X9878879Y10308897D01*
X9774026Y9771297D02*
X9875725Y9872996D01*
X9755723Y9854817D02*
X9874782Y9973876D01*
X9754630Y9955547D02*
X9873870Y10074787D01*
X9755853Y9765852D02*
X9869817Y9879815D01*
X9555000Y11130527D02*
X9790064Y11365591D01*
X9771101Y9921107D02*
X9869158Y10019164D01*
X9747331Y9859153D02*
X9869103Y9980925D01*
X9745969Y9959614D02*
X9868425Y10082070D01*
X9849755Y9681564D02*
X9867635Y9699444D01*
X9770810Y9818993D02*
X9867030Y9915212D01*
X9849265Y10292012D02*
X9866866Y10309612D01*
X9667748Y9690474D02*
X9865613Y9888339D01*
X9736720Y9861270D02*
X9865174Y9989724D01*
X9734938Y9961310D02*
X9864783Y10091156D01*
X9763847Y10002947D02*
X9863806Y10102906D01*
X9721383Y9858660D02*
X9863703Y10000980D01*
X9655587Y9691041D02*
X9863699Y9899154D01*
X9842357Y9686893D02*
X9858248Y9702785D01*
X9841745Y10297219D02*
X9857636Y10313110D01*
X9555000Y11143255D02*
X9777336Y11365591D01*
X9833125Y9690390D02*
X9850729Y9707993D01*
X9832356Y10300558D02*
X9850239Y10318441D01*
X9821109Y9691101D02*
X9844819Y9714812D01*
X9820040Y10300970D02*
X9844448Y10325378D01*
X9555000Y11155982D02*
X9764609Y11365591D01*
X9803889Y10323002D02*
X9842947Y10362061D01*
X9624103Y9405000D02*
X9842037Y9622935D01*
X9759153Y9667329D02*
X9842024Y9750200D01*
X9758659Y9641379D02*
X9840614Y9723335D01*
X9759231Y10252889D02*
X9840383Y10334041D01*
X9555000Y9946835D02*
X9840180Y10232015D01*
X9761270Y9656718D02*
X9838699Y9734148D01*
X9761217Y10267603D02*
X9838690Y10345075D01*
X9555000Y11168710D02*
X9751881Y11365591D01*
X9611375Y9405000D02*
X9825064Y9618690D01*
X9555000Y9959563D02*
X9824137Y10228700D01*
X9555000Y11181438D02*
X9739153Y11365591D01*
X9598647Y9405000D02*
X9814032Y9620385D01*
X9555000Y9972291D02*
X9813326Y10230617D01*
X9555000Y11194166D02*
X9726425Y11365591D01*
X9585919Y9405000D02*
X9805371Y9624452D01*
X9555000Y9985019D02*
X9804805Y10234824D01*
X9573191Y9405000D02*
X9798436Y9630245D01*
X9555000Y9997747D02*
X9797988Y10240735D01*
X9758899Y10278012D02*
X9796998Y10316111D01*
X9560463Y9405000D02*
X9793107Y9637643D01*
X9555000Y11206894D02*
X9713697Y11365591D01*
X9555000Y10010474D02*
X9792781Y10248255D01*
X9555000Y9412265D02*
X9789610Y9646875D01*
X9555000Y10023202D02*
X9789442Y10257644D01*
X9555000Y10035930D02*
X9789030Y10269960D01*
X9555000Y9424993D02*
X9788899Y9658891D01*
X9555000Y11219622D02*
X9700969Y11365591D01*
X9754817Y9675721D02*
X9777902Y9698806D01*
X9754429Y10286270D02*
X9776898Y10308739D01*
X9555000Y11232350D02*
X9688241Y11365591D01*
X9748795Y9682427D02*
X9766152Y9699784D01*
X9748289Y10292858D02*
X9765410Y10309979D01*
X9741158Y9687517D02*
X9757067Y9703427D01*
X9717967Y9957068D02*
X9757053Y9996153D01*
X9740526Y10297824D02*
X9756474Y10313771D01*
X9555000Y11245077D02*
X9675513Y11365591D01*
X9731615Y9690703D02*
X9749785Y9708872D01*
X9730817Y10300842D02*
X9749312Y10319337D01*
X9555000Y10175937D02*
X9746277Y10367213D01*
X9677056Y9687055D02*
X9744148Y9754147D01*
X9718995Y9690811D02*
X9744106Y9715921D01*
X9717846Y10300599D02*
X9743752Y10326505D01*
X9555000Y11257805D02*
X9662786Y11365591D01*
X9555000Y9603183D02*
X9741007Y9789190D01*
X9690366Y9674909D02*
X9740175Y9724719D01*
X9555000Y10150481D02*
X9739968Y10335449D01*
X9660833Y9810839D02*
X9738893Y9888899D01*
X9555000Y10163209D02*
X9738742Y10346951D01*
X9684515Y9681786D02*
X9738703Y9735974D01*
X9555000Y9437720D02*
X9738621Y9621341D01*
X9555000Y10048658D02*
X9737111Y10230769D01*
X9659234Y9911063D02*
X9736911Y9988740D01*
X9555000Y11270533D02*
X9650058Y11365591D01*
X9555000Y9615911D02*
X9728386Y9789297D01*
X9647870Y9810604D02*
X9726876Y9889610D01*
X9645485Y9910042D02*
X9725420Y9989976D01*
X9555000Y9450448D02*
X9723282Y9618730D01*
X9555000Y10061386D02*
X9722397Y10228783D01*
X9689221Y9762859D02*
X9718844Y9792482D01*
X9690048Y9865510D02*
X9717645Y9893106D01*
X9555000Y11283261D02*
X9637330Y11365591D01*
X9690608Y9967892D02*
X9716482Y9993766D01*
X9555000Y9463176D02*
X9712671Y9620847D01*
X9555000Y10074114D02*
X9711988Y10231101D01*
X9691218Y9777585D02*
X9711206Y9797572D01*
X9691061Y9879250D02*
X9710246Y9898435D01*
X9690836Y9980848D02*
X9709319Y9999331D01*
X9667986Y10008909D02*
X9706233Y10047156D01*
X9688904Y9787998D02*
X9705183Y9804277D01*
X9688378Y9889295D02*
X9704453Y9905370D01*
X9555000Y9475904D02*
X9704279Y9625183D01*
X9555000Y11295989D02*
X9624602Y11365591D01*
X9687812Y9990552D02*
X9703757Y10006497D01*
X9555000Y10086842D02*
X9703730Y10235571D01*
X9669283Y9908383D02*
X9702932Y9942033D01*
X9670540Y9807817D02*
X9701340Y9838617D01*
X9684437Y9796259D02*
X9700847Y9812669D01*
X9683656Y9897300D02*
X9700386Y9914031D01*
X9682841Y9998309D02*
X9699971Y10015439D01*
X9676248Y10004444D02*
X9698741Y10026937D01*
X9678300Y9802849D02*
X9698730Y9823280D01*
X9677291Y9903663D02*
X9698690Y9925062D01*
X9555000Y9488632D02*
X9697573Y9631205D01*
X9555000Y10099569D02*
X9697142Y10241711D01*
X9555000Y10112297D02*
X9692176Y10249474D01*
X9555000Y11308717D02*
X9611874Y11365591D01*
X9555000Y10137753D02*
X9689401Y10272154D01*
X9555000Y10125025D02*
X9689158Y10259183D01*
X9555000Y11321445D02*
X9599146Y11365591D01*
X9555000Y9501360D02*
X9676089Y9622448D01*
X9555000Y9628638D02*
X9667141Y9740779D01*
X9555000Y11334173D02*
X9586418Y11365591D01*
X9555000Y9730461D02*
X9664490Y9839952D01*
X9555000Y9832284D02*
X9662108Y9939392D01*
X9555000Y9514088D02*
X9659604Y9618692D01*
X9555000Y11346900D02*
X9573690Y11365591D01*
X9555000Y9641366D02*
X9652415Y9738782D01*
X9555000Y9743189D02*
X9650750Y9838939D01*
X9555000Y9845012D02*
X9649151Y9939164D01*
X9555000Y9526815D02*
X9648683Y9620498D01*
X9555000Y9654094D02*
X9642002Y9741096D01*
X9555000Y9755917D02*
X9640705Y9841622D01*
X9555000Y11359628D02*
X9560963Y11365591D01*
X9555000Y9539543D02*
X9640091Y9624634D01*
X9555000Y9857740D02*
X9639448Y9942188D01*
X9555000Y9666822D02*
X9633741Y9745563D01*
X9555000Y9552271D02*
X9633214Y9630485D01*
X9555000Y9768645D02*
X9632700Y9846344D01*
X9555000Y9870468D02*
X9631691Y9947159D01*
X9555000Y9564999D02*
X9627945Y9637944D01*
X9555000Y9679550D02*
X9627151Y9751700D01*
X9555000Y9781373D02*
X9626337Y9852709D01*
X9555000Y9883196D02*
X9625556Y9953752D01*
X9555000Y9577727D02*
X9624526Y9647253D01*
X9555000Y9590455D02*
X9623959Y9659413D01*
X9555000Y9692278D02*
X9622183Y9759460D01*
X9555000Y9794101D02*
X9621617Y9860717D01*
X9555000Y9895924D02*
X9621091Y9962014D01*
X9555000Y9921379D02*
X9620789Y9987168D01*
X9555000Y9819556D02*
X9619958Y9884515D01*
X9555000Y9717733D02*
X9619396Y9782130D01*
X9555000Y9705006D02*
X9619161Y9769167D01*
X9555000Y9806829D02*
X9618937Y9870766D01*
X9555000Y9908651D02*
X9618780Y9972432D01*
X10470001Y10464409D02*
X11371182Y11365591D01*
X10470001Y10451682D02*
X11383910Y11365591D01*
X10470001Y10438954D02*
X11396638Y11365591D01*
X10556181Y10512407D02*
X11409366Y11365591D01*
X10577743Y10521240D02*
X11422093Y11365591D01*
X10589324Y10520093D02*
X11434821Y11365591D01*
X10598313Y10516354D02*
X11447549Y11365591D01*
X10605518Y10510832D02*
X11460277Y11365591D01*
X10611121Y10503707D02*
X11473005Y11365591D01*
X10614958Y10494817D02*
X11485733Y11365591D01*
X10616276Y10483406D02*
X11498461Y11365591D01*
X10609680Y10464083D02*
X11511188Y11365591D01*
X10470001Y10311675D02*
X11523916Y11365591D01*
X10470001Y10298947D02*
X11536644Y11365591D01*
X10470001Y10286219D02*
X11549372Y11365591D01*
X10470001Y10273491D02*
X11562100Y11365591D01*
X10470001Y10260764D02*
X11574828Y11365591D01*
X10470001Y10248036D02*
X11587556Y11365591D01*
X10470001Y10235308D02*
X11600284Y11365591D01*
X10470001Y10222580D02*
X11613011Y11365591D01*
X10470001Y10209852D02*
X11625739Y11365591D01*
X10470001Y10197124D02*
X11638467Y11365591D01*
X10470001Y10184396D02*
X11651195Y11365591D01*
X10470001Y10171669D02*
X11663923Y11365591D01*
X10470001Y10158941D02*
X11676651Y11365591D01*
X10470001Y10146213D02*
X11689379Y11365591D01*
X10470001Y10133485D02*
X11702106Y11365591D01*
X10470001Y10120757D02*
X11714834Y11365591D01*
X10470001Y10108029D02*
X11727562Y11365591D01*
X10470001Y10095301D02*
X11740290Y11365591D01*
X10470001Y10082573D02*
X11753018Y11365591D01*
X10470001Y10069846D02*
X11765746Y11365591D01*
X10470001Y10057118D02*
X11778474Y11365591D01*
X10470001Y10044390D02*
X11791202Y11365591D01*
X10470001Y10031662D02*
X11803929Y11365591D01*
X10470001Y10018934D02*
X11816657Y11365591D01*
X10470001Y10006206D02*
X11829385Y11365591D01*
X10470001Y9993478D02*
X11842113Y11365591D01*
X10470001Y9980751D02*
X11854841Y11365591D01*
X10470001Y9968023D02*
X11867569Y11365591D01*
X10470001Y9955295D02*
X11880297Y11365591D01*
X10470001Y9942567D02*
X11893024Y11365591D01*
X10470001Y9929839D02*
X11905752Y11365591D01*
X10470001Y9917111D02*
X11918480Y11365591D01*
X10470001Y9904383D02*
X11931208Y11365591D01*
X10470001Y9891655D02*
X11943936Y11365591D01*
X10470001Y9878928D02*
X11956664Y11365591D01*
X10470001Y9866200D02*
X11969392Y11365591D01*
X10469951Y9853422D02*
X11982120Y11365591D01*
X10448944Y9819687D02*
X11994847Y11365591D01*
X10458210Y9816226D02*
X12007575Y11365591D01*
X10464876Y9810164D02*
X12020303Y11365591D01*
X10469098Y9801658D02*
X12033031Y11365591D01*
X10470001Y9789833D02*
X12045759Y11365591D01*
X10470001Y9777105D02*
X12058487Y11365591D01*
X10470001Y9764377D02*
X12071215Y11365591D01*
X10470001Y9751649D02*
X12083942Y11365591D01*
X10470001Y9738921D02*
X12096670Y11365591D01*
X10470001Y9726193D02*
X12109398Y11365591D01*
X10470001Y9713465D02*
X12122126Y11365591D01*
X10470001Y9700737D02*
X12134854Y11365591D01*
X10470001Y9688010D02*
X12147582Y11365591D01*
X10470001Y9675282D02*
X12160310Y11365591D01*
X10470001Y9662554D02*
X12173038Y11365591D01*
X10470001Y9649826D02*
X12185765Y11365591D01*
X10470001Y9637098D02*
X12198493Y11365591D01*
X10470001Y9624370D02*
X12211221Y11365591D01*
X10470001Y9611642D02*
X12223949Y11365591D01*
X10470001Y9598915D02*
X12236677Y11365591D01*
X10470001Y9586187D02*
X12249405Y11365591D01*
X10470001Y9573459D02*
X12262133Y11365591D01*
X10470001Y9560731D02*
X12274860Y11365591D01*
X10470001Y9548003D02*
X12287588Y11365591D01*
X10470001Y9535275D02*
X12300316Y11365591D01*
X10470001Y9522547D02*
X12313044Y11365591D01*
X10480182Y9520001D02*
X12325772Y11365591D01*
X10492909Y9520001D02*
X12338500Y11365591D01*
X10505637Y9520001D02*
X12351228Y11365591D01*
X10518365Y9520001D02*
X12363956Y11365591D01*
X10531093Y9520001D02*
X12376683Y11365591D01*
X10714749Y9690929D02*
X12389411Y11365591D01*
X10727148Y9690600D02*
X12402139Y11365591D01*
X10736580Y9687304D02*
X12414867Y11365591D01*
X10744134Y9682130D02*
X12427595Y11365591D01*
X10750076Y9675344D02*
X12440323Y11365591D01*
X10754319Y9666859D02*
X12453051Y11365591D01*
X10756294Y9656106D02*
X12465778Y11365591D01*
X10753191Y9640276D02*
X12478506Y11365591D01*
X10645644Y9520001D02*
X12491234Y11365591D01*
X10658372Y9520001D02*
X12503962Y11365591D01*
X10671100Y9520001D02*
X12516690Y11365591D01*
X10683827Y9520001D02*
X12529418Y11365591D01*
X10696555Y9520001D02*
X12542146Y11365591D01*
X10714174Y9524892D02*
X12554874Y11365591D01*
X10731904Y9529894D02*
X12567601Y11365591D01*
X10743858Y9529120D02*
X12580329Y11365591D01*
X10753492Y9526026D02*
X12593057Y11365591D01*
X10761537Y9521343D02*
X12605785Y11365591D01*
X10772923Y9520001D02*
X12618513Y11365591D01*
X10785650Y9520001D02*
X12631241Y11365591D01*
X10798176Y9519798D02*
X12643969Y11365591D01*
X10807662Y9516557D02*
X12656696Y11365591D01*
X10814491Y9510657D02*
X12669424Y11365591D01*
X10818899Y9502338D02*
X12682152Y11365591D01*
X10820001Y9490711D02*
X12691425Y11362136D01*
X10820001Y9477983D02*
X12691425Y11349408D01*
X10820001Y9465256D02*
X12691425Y11336680D01*
X10820001Y9452528D02*
X12691425Y11323953D01*
X10820001Y9439800D02*
X12691425Y11311225D01*
X10820001Y9427072D02*
X12691425Y11298497D01*
X10820001Y9414344D02*
X12691425Y11285769D01*
X10819732Y9401348D02*
X12691425Y11273041D01*
X10267576Y8836463D02*
X12691425Y11260313D01*
X10280303Y8836463D02*
X12691425Y11247585D01*
X10293031Y8836463D02*
X12691425Y11234858D01*
X10305759Y8836463D02*
X12691425Y11222130D01*
X10318487Y8836463D02*
X12691425Y11209402D01*
X10331215Y8836463D02*
X12691425Y11196674D01*
X10343943Y8836463D02*
X12691425Y11183946D01*
X10356671Y8836463D02*
X12691425Y11171218D01*
X10369398Y8836463D02*
X12691425Y11158490D01*
X10382126Y8836463D02*
X12691425Y11145762D01*
X10394854Y8836463D02*
X12691425Y11133035D01*
X10407582Y8836463D02*
X12691425Y11120307D01*
X10420310Y8836463D02*
X12691425Y11107579D01*
X10433038Y8836463D02*
X12691425Y11094851D01*
X10445766Y8836463D02*
X12691425Y11082123D01*
X10458494Y8836463D02*
X12691425Y11069395D01*
X10471221Y8836463D02*
X12691425Y11056667D01*
X10483949Y8836463D02*
X12691425Y11043940D01*
X10496677Y8836463D02*
X12691425Y11031212D01*
X10509405Y8836463D02*
X12691425Y11018484D01*
X10522133Y8836463D02*
X12691425Y11005756D01*
X10534861Y8836463D02*
X12691425Y10993028D01*
X10547589Y8836463D02*
X12691425Y10980300D01*
X10560316Y8836463D02*
X12691425Y10967572D01*
X10573044Y8836463D02*
X12691425Y10954844D01*
X10585772Y8836463D02*
X12691425Y10942117D01*
X10598500Y8836463D02*
X12691425Y10929389D01*
X10611228Y8836463D02*
X12691425Y10916661D01*
X10623956Y8836463D02*
X12691425Y10903933D01*
X10636684Y8836463D02*
X12691425Y10891205D01*
X10649412Y8836463D02*
X12691425Y10878477D01*
X10662139Y8836463D02*
X12691425Y10865749D01*
X10674867Y8836463D02*
X12691425Y10853022D01*
X10687595Y8836463D02*
X12691425Y10840294D01*
X10700323Y8836463D02*
X12691425Y10827566D01*
X10713051Y8836463D02*
X12691425Y10814838D01*
X10725779Y8836463D02*
X12691425Y10802110D01*
X10738507Y8836463D02*
X12691425Y10789382D01*
X10751234Y8836463D02*
X12691425Y10776654D01*
X10763962Y8836463D02*
X12691425Y10763926D01*
X10776690Y8836463D02*
X12691425Y10751199D01*
X10789418Y8836463D02*
X12691425Y10738471D01*
X10802146Y8836463D02*
X12691425Y10725743D01*
X10814874Y8836463D02*
X12691425Y10713015D01*
X10827602Y8836463D02*
X12691425Y10700287D01*
X10840330Y8836463D02*
X12691425Y10687559D01*
X10853057Y8836463D02*
X12691425Y10674831D01*
X10865785Y8836463D02*
X12691425Y10662104D01*
X10878513Y8836463D02*
X12691425Y10649376D01*
X10891241Y8836463D02*
X12691425Y10636648D01*
X10903969Y8836463D02*
X12691425Y10623920D01*
X10916697Y8836463D02*
X12691425Y10611192D01*
X10929425Y8836463D02*
X12691425Y10598464D01*
X10942152Y8836463D02*
X12691425Y10585736D01*
X10954880Y8836463D02*
X12691425Y10573008D01*
X10967608Y8836463D02*
X12691425Y10560281D01*
X10980336Y8836463D02*
X12691425Y10547553D01*
X10993064Y8836463D02*
X12691425Y10534825D01*
X11005792Y8836463D02*
X12691425Y10522097D01*
X11018520Y8836463D02*
X12691425Y10509369D01*
X11031248Y8836463D02*
X12691425Y10496641D01*
X11043975Y8836463D02*
X12691425Y10483913D01*
X11056703Y8836463D02*
X12691425Y10471186D01*
X11069431Y8836463D02*
X12691425Y10458458D01*
X11082159Y8836463D02*
X12691425Y10445730D01*
X11094887Y8836463D02*
X12691425Y10433002D01*
X11107615Y8836463D02*
X12691425Y10420274D01*
X11120343Y8836463D02*
X12691425Y10407546D01*
X11133070Y8836463D02*
X12691425Y10394818D01*
X11145798Y8836463D02*
X12691425Y10382090D01*
X11158526Y8836463D02*
X12691425Y10369363D01*
X11171254Y8836463D02*
X12691425Y10356635D01*
X11183982Y8836463D02*
X12691425Y10343907D01*
X11196710Y8836463D02*
X12691425Y10331179D01*
X11209438Y8836463D02*
X12691425Y10318451D01*
X11222166Y8836463D02*
X12691425Y10305723D01*
X11234893Y8836463D02*
X12691425Y10292995D01*
X11247621Y8836463D02*
X12691425Y10280268D01*
X11260349Y8836463D02*
X12691425Y10267540D01*
X11273077Y8836463D02*
X12691425Y10254812D01*
X11285805Y8836463D02*
X12691425Y10242084D01*
X11298533Y8836463D02*
X12691425Y10229356D01*
X11311261Y8836463D02*
X12691425Y10216628D01*
X11323988Y8836463D02*
X12691425Y10203900D01*
X11336716Y8836463D02*
X12691425Y10191172D01*
X11349444Y8836463D02*
X12691425Y10178445D01*
X11362172Y8836463D02*
X12691425Y10165717D01*
X11374900Y8836463D02*
X12691425Y10152989D01*
X11387628Y8836463D02*
X12691425Y10140261D01*
X11400356Y8836463D02*
X12691425Y10127533D01*
X11413084Y8836463D02*
X12691425Y10114805D01*
X11425811Y8836463D02*
X12691425Y10102077D01*
X11438539Y8836463D02*
X12691425Y10089350D01*
X11451267Y8836463D02*
X12691425Y10076622D01*
X11463995Y8836463D02*
X12691425Y10063894D01*
X11476723Y8836463D02*
X12691425Y10051166D01*
X11489451Y8836463D02*
X12691425Y10038438D01*
X11502179Y8836463D02*
X12691425Y10025710D01*
X11514906Y8836463D02*
X12691425Y10012982D01*
X11527634Y8836463D02*
X12691425Y10000254D01*
X11540362Y8836463D02*
X12691425Y9987527D01*
X11553090Y8836463D02*
X12691425Y9974799D01*
X11565818Y8836463D02*
X12691425Y9962071D01*
X11578546Y8836463D02*
X12691425Y9949343D01*
X11591274Y8836463D02*
X12691425Y9936615D01*
X11604002Y8836463D02*
X12691425Y9923887D01*
X11616729Y8836463D02*
X12691425Y9911159D01*
X11629457Y8836463D02*
X12691425Y9898432D01*
X11642185Y8836463D02*
X12691425Y9885704D01*
X11654913Y8836463D02*
X12691425Y9872976D01*
X11667641Y8836463D02*
X12691425Y9860248D01*
X11680369Y8836463D02*
X12691425Y9847520D01*
X11693097Y8836463D02*
X12691425Y9834792D01*
X11705824Y8836463D02*
X12691425Y9822064D01*
X11718552Y8836463D02*
X12691425Y9809336D01*
X11731280Y8836463D02*
X12691425Y9796609D01*
X11744008Y8836463D02*
X12691425Y9783881D01*
X11756736Y8836463D02*
X12691425Y9771153D01*
X11769464Y8836463D02*
X12691425Y9758425D01*
X11782192Y8836463D02*
X12691425Y9745697D01*
X11794920Y8836463D02*
X12691425Y9732969D01*
X11807647Y8836463D02*
X12691425Y9720241D01*
X11820375Y8836463D02*
X12691425Y9707514D01*
X11833103Y8836463D02*
X12691425Y9694786D01*
X11845831Y8836463D02*
X12691425Y9682058D01*
X11858559Y8836463D02*
X12691425Y9669330D01*
X11871287Y8836463D02*
X12691425Y9656602D01*
X11884015Y8836463D02*
X12691425Y9643874D01*
X11896743Y8836463D02*
X12691425Y9631146D01*
X11909470Y8836463D02*
X12691425Y9618418D01*
X11922198Y8836463D02*
X12691425Y9605691D01*
X11934926Y8836463D02*
X12691425Y9592963D01*
X11947654Y8836463D02*
X12691425Y9580235D01*
X11960382Y8836463D02*
X12691425Y9567507D01*
X11973110Y8836463D02*
X12691425Y9554779D01*
X11985838Y8836463D02*
X12691425Y9542051D01*
X11998565Y8836463D02*
X12691425Y9529323D01*
X12011293Y8836463D02*
X12691425Y9516596D01*
X12024021Y8836463D02*
X12691425Y9503868D01*
X12036749Y8836463D02*
X12691425Y9491140D01*
X12049477Y8836463D02*
X12691425Y9478412D01*
X12062205Y8836463D02*
X12691425Y9465684D01*
X12074933Y8836463D02*
X12691425Y9452956D01*
X12087661Y8836463D02*
X12691425Y9440228D01*
X12100388Y8836463D02*
X12691425Y9427500D01*
X12113116Y8836463D02*
X12691425Y9414773D01*
X12125844Y8836463D02*
X12691425Y9402045D01*
X12138572Y8836463D02*
X12691425Y9389317D01*
X12151300Y8836463D02*
X12691425Y9376589D01*
X12164028Y8836463D02*
X12691425Y9363861D01*
X12176756Y8836463D02*
X12691425Y9351133D01*
X12189483Y8836463D02*
X12691425Y9338405D01*
X12202211Y8836463D02*
X12691425Y9325678D01*
X12214939Y8836463D02*
X12691425Y9312950D01*
X12227667Y8836463D02*
X12691425Y9300222D01*
X12240395Y8836463D02*
X12691425Y9287494D01*
X12253123Y8836463D02*
X12691425Y9274766D01*
X12265851Y8836463D02*
X12691425Y9262038D01*
X12278579Y8836463D02*
X12691425Y9249310D01*
X12291306Y8836463D02*
X12691425Y9236582D01*
X12304034Y8836463D02*
X12691425Y9223855D01*
X12316762Y8836463D02*
X12691425Y9211127D01*
X12329490Y8836463D02*
X12691425Y9198399D01*
X12342218Y8836463D02*
X12691425Y9185671D01*
X12354946Y8836463D02*
X12691425Y9172943D01*
X12367674Y8836463D02*
X12691425Y9160215D01*
X12380401Y8836463D02*
X12691425Y9147487D01*
X12393129Y8836463D02*
X12691425Y9134760D01*
X12405857Y8836463D02*
X12691425Y9122032D01*
X12418585Y8836463D02*
X12691425Y9109304D01*
X12431313Y8836463D02*
X12691425Y9096576D01*
X12444041Y8836463D02*
X12691425Y9083848D01*
X12456769Y8836463D02*
X12691425Y9071120D01*
X12469497Y8836463D02*
X12691425Y9058392D01*
X12482224Y8836463D02*
X12691425Y9045664D01*
X12494952Y8836463D02*
X12691425Y9032937D01*
X12507680Y8836463D02*
X12691425Y9020209D01*
X12520408Y8836463D02*
X12691425Y9007481D01*
X12533136Y8836463D02*
X12691425Y8994753D01*
X12545864Y8836463D02*
X12691425Y8982025D01*
X12558592Y8836463D02*
X12691425Y8969297D01*
X12571319Y8836463D02*
X12691425Y8956569D01*
X12584047Y8836463D02*
X12691425Y8943842D01*
X12596775Y8836463D02*
X12691425Y8931114D01*
X12609503Y8836463D02*
X12691425Y8918386D01*
X12622231Y8836463D02*
X12691425Y8905658D01*
X12634959Y8836463D02*
X12691425Y8892930D01*
X12647687Y8836463D02*
X12691425Y8880202D01*
X12660415Y8836463D02*
X12691425Y8867474D01*
X12673142Y8836463D02*
X12691425Y8854746D01*
X12685870Y8836463D02*
X12691425Y8842019D01*
X10470001Y10477137D02*
X11358454Y11365591D01*
X10470001Y10489865D02*
X11345726Y11365591D01*
X10470001Y10502593D02*
X11332998Y11365591D01*
X10516337Y10561657D02*
X11320270Y11365591D01*
X10521305Y10579353D02*
X11307543Y11365591D01*
X10519751Y10590527D02*
X11294815Y11365591D01*
X10515772Y10599276D02*
X11282087Y11365591D01*
X10510052Y10606284D02*
X11269359Y11365591D01*
X10502729Y10611688D02*
X11256631Y11365591D01*
X10493592Y10615279D02*
X11243903Y11365591D01*
X10481749Y10616165D02*
X11231175Y11365591D01*
X10470001Y10617144D02*
X11218447Y11365591D01*
X10470001Y10629872D02*
X11205720Y11365591D01*
X10470001Y10642600D02*
X11192992Y11365591D01*
X10470001Y10655327D02*
X11180264Y11365591D01*
X10470001Y10668055D02*
X11167536Y11365591D01*
X10470001Y10680783D02*
X11154808Y11365591D01*
X10470001Y10693511D02*
X11142080Y11365591D01*
X10470001Y10706239D02*
X11129352Y11365591D01*
X10470001Y10718967D02*
X11116625Y11365591D01*
X10470001Y10731695D02*
X11103897Y11365591D01*
X10470001Y10744423D02*
X11091169Y11365591D01*
X10470001Y10757150D02*
X11078441Y11365591D01*
X10470001Y10769878D02*
X11065713Y11365591D01*
X10470001Y10782606D02*
X11052985Y11365591D01*
X10470001Y10795334D02*
X11040257Y11365591D01*
X10470001Y10808062D02*
X11027529Y11365591D01*
X10470001Y10820790D02*
X11014802Y11365591D01*
X10470001Y10833518D02*
X11002074Y11365591D01*
X10470001Y10846245D02*
X10989346Y11365591D01*
X10470001Y10858973D02*
X10976618Y11365591D01*
X10470001Y10871701D02*
X10963890Y11365591D01*
X10470001Y10884429D02*
X10951162Y11365591D01*
X10470001Y10897157D02*
X10938434Y11365591D01*
X10470001Y10909885D02*
X10925707Y11365591D01*
X10470001Y10922613D02*
X10912979Y11365591D01*
X10470001Y10935341D02*
X10900251Y11365591D01*
X10470001Y10948068D02*
X10887523Y11365591D01*
X10470001Y10960796D02*
X10874795Y11365591D01*
X10470001Y10973524D02*
X10862067Y11365591D01*
X10470001Y10986252D02*
X10849339Y11365591D01*
X10470001Y10998980D02*
X10836611Y11365591D01*
X10470001Y11011708D02*
X10823884Y11365591D01*
X10470001Y11024436D02*
X10811156Y11365591D01*
X10470001Y11037163D02*
X10798428Y11365591D01*
X10470001Y11049891D02*
X10785700Y11365591D01*
X10470001Y11062619D02*
X10772972Y11365591D01*
X10470001Y11075347D02*
X10760244Y11365591D01*
X10470001Y11088075D02*
X10747516Y11365591D01*
X10470001Y11100803D02*
X10734789Y11365591D01*
X10470001Y11113531D02*
X10722061Y11365591D01*
X10470001Y11126259D02*
X10709333Y11365591D01*
X10470001Y11138986D02*
X10696605Y11365591D01*
X10470001Y11151714D02*
X10683877Y11365591D01*
X10470001Y11164442D02*
X10671149Y11365591D01*
X10470001Y11177170D02*
X10658421Y11365591D01*
X10470001Y11189898D02*
X10645693Y11365591D01*
X10470001Y11202626D02*
X10632966Y11365591D01*
X10470001Y11215354D02*
X10620238Y11365591D01*
X10470001Y11228081D02*
X10607510Y11365591D01*
X10470001Y11240809D02*
X10594782Y11365591D01*
X10470001Y11253537D02*
X10582054Y11365591D01*
X10470001Y11266265D02*
X10569326Y11365591D01*
X10470001Y11278993D02*
X10556598Y11365591D01*
X10470001Y11291721D02*
X10543871Y11365591D01*
X10470001Y11304449D02*
X10531143Y11365591D01*
X10470001Y11317177D02*
X10518415Y11365591D01*
X10470001Y11329904D02*
X10505687Y11365591D01*
X10470001Y11342632D02*
X10492959Y11365591D01*
X10470001Y11355360D02*
X10480231Y11365591D01*
X7821810Y9865406D02*
X9321995Y11365591D01*
X7821810Y9878133D02*
X9309267Y11365591D01*
X7821810Y9890861D02*
X9296540Y11365591D01*
X7821810Y9903589D02*
X9283812Y11365591D01*
X7821810Y10119963D02*
X9067438Y11365591D01*
X7821810Y10132691D02*
X9054710Y11365591D01*
X7821810Y10145419D02*
X9041982Y11365591D01*
X7821810Y10158146D02*
X9029254Y11365591D01*
X7821810Y10374520D02*
X8812881Y11365591D01*
X7821810Y10387248D02*
X8800153Y11365591D01*
X7821810Y10399976D02*
X8787425Y11365591D01*
X7821810Y10412704D02*
X8774697Y11365591D01*
X7821810Y10629078D02*
X8558323Y11365591D01*
X7821810Y10641805D02*
X8545595Y11365591D01*
X7821810Y10654533D02*
X8532867Y11365591D01*
X7821810Y10667261D02*
X8520140Y11365591D01*
X7821810Y10883635D02*
X8303766Y11365591D01*
X7821810Y10896363D02*
X8291038Y11365591D01*
X7821810Y10909091D02*
X8278310Y11365591D01*
X7821810Y10921818D02*
X8265582Y11365591D01*
X7821810Y11138192D02*
X8049209Y11365591D01*
X7821810Y11150920D02*
X8036481Y11365591D01*
X7821810Y11163648D02*
X8023753Y11365591D01*
X7821810Y11176376D02*
X8011025Y11365591D01*
X7821810Y9750855D02*
X9436546Y11365591D01*
X7821810Y9763583D02*
X9423818Y11365591D01*
X7821810Y9776310D02*
X9411090Y11365591D01*
X7821810Y9789038D02*
X9398362Y11365591D01*
X7821810Y9852678D02*
X9334723Y11365591D01*
X7821810Y9801766D02*
X9385635Y11365591D01*
X7821810Y9814494D02*
X9372907Y11365591D01*
X7821810Y9839950D02*
X9347451Y11365591D01*
X7821810Y9827222D02*
X9360179Y11365591D01*
X7821810Y9916317D02*
X9271084Y11365591D01*
X7821810Y9929045D02*
X9258356Y11365591D01*
X7821810Y9941773D02*
X9245628Y11365591D01*
X7821810Y9954501D02*
X9232900Y11365591D01*
X7821810Y9967228D02*
X9220172Y11365591D01*
X7821810Y9979956D02*
X9207444Y11365591D01*
X7821810Y9992684D02*
X9194717Y11365591D01*
X7821810Y10005412D02*
X9181989Y11365591D01*
X7821810Y10018140D02*
X9169261Y11365591D01*
X7821810Y10030868D02*
X9156533Y11365591D01*
X7821810Y10043596D02*
X9143805Y11365591D01*
X7821810Y10107235D02*
X9080166Y11365591D01*
X7821810Y10056324D02*
X9131077Y11365591D01*
X7821810Y10069051D02*
X9118349Y11365591D01*
X7821810Y10094507D02*
X9092894Y11365591D01*
X7821810Y10081779D02*
X9105622Y11365591D01*
X7821810Y10170874D02*
X9016526Y11365591D01*
X7821810Y10183602D02*
X9003799Y11365591D01*
X7821810Y10196330D02*
X8991071Y11365591D01*
X7821810Y10209058D02*
X8978343Y11365591D01*
X7821810Y10221786D02*
X8965615Y11365591D01*
X7821810Y10234514D02*
X8952887Y11365591D01*
X7821810Y10247241D02*
X8940159Y11365591D01*
X7821810Y10259969D02*
X8927431Y11365591D01*
X7821810Y10272697D02*
X8914704Y11365591D01*
X7821810Y10285425D02*
X8901976Y11365591D01*
X7821810Y10298153D02*
X8889248Y11365591D01*
X7821810Y10361792D02*
X8825609Y11365591D01*
X7821810Y10310881D02*
X8876520Y11365591D01*
X7821810Y10323609D02*
X8863792Y11365591D01*
X7821810Y10349064D02*
X8838336Y11365591D01*
X7821810Y10336337D02*
X8851064Y11365591D01*
X7821810Y10425432D02*
X8761969Y11365591D01*
X7821810Y10438160D02*
X8749241Y11365591D01*
X7821810Y10450887D02*
X8736513Y11365591D01*
X7821810Y10463615D02*
X8723786Y11365591D01*
X7821810Y10476343D02*
X8711058Y11365591D01*
X7821810Y10489071D02*
X8698330Y11365591D01*
X7821810Y10501799D02*
X8685602Y11365591D01*
X7821810Y10514527D02*
X8672874Y11365591D01*
X7821810Y10527255D02*
X8660146Y11365591D01*
X7821810Y10539982D02*
X8647418Y11365591D01*
X7821810Y10552710D02*
X8634690Y11365591D01*
X7821810Y10616350D02*
X8571051Y11365591D01*
X7821810Y10565438D02*
X8621963Y11365591D01*
X7821810Y10578166D02*
X8609235Y11365591D01*
X7821810Y10603622D02*
X8583779Y11365591D01*
X7821810Y10590894D02*
X8596507Y11365591D01*
X7821810Y10679989D02*
X8507412Y11365591D01*
X7821810Y10692717D02*
X8494684Y11365591D01*
X7821810Y10705445D02*
X8481956Y11365591D01*
X7821810Y10718173D02*
X8469228Y11365591D01*
X7821810Y10730900D02*
X8456500Y11365591D01*
X7821810Y10743628D02*
X8443772Y11365591D01*
X7821810Y10756356D02*
X8431045Y11365591D01*
X7821810Y10769084D02*
X8418317Y11365591D01*
X7821810Y10781812D02*
X8405589Y11365591D01*
X7821810Y10794540D02*
X8392861Y11365591D01*
X7821810Y10807268D02*
X8380133Y11365591D01*
X7821810Y10870907D02*
X8316494Y11365591D01*
X7821810Y10819996D02*
X8367405Y11365591D01*
X7821810Y10832723D02*
X8354677Y11365591D01*
X7821810Y10858179D02*
X8329222Y11365591D01*
X7821810Y10845451D02*
X8341949Y11365591D01*
X7821810Y10934546D02*
X8252854Y11365591D01*
X7821810Y10947274D02*
X8240127Y11365591D01*
X7821810Y10960002D02*
X8227399Y11365591D01*
X7821810Y10972730D02*
X8214671Y11365591D01*
X7821810Y10985458D02*
X8201943Y11365591D01*
X7821810Y10998186D02*
X8189215Y11365591D01*
X7821810Y11010914D02*
X8176487Y11365591D01*
X7821810Y11023641D02*
X8163759Y11365591D01*
X7821810Y11036369D02*
X8151031Y11365591D01*
X7821810Y11049097D02*
X8138304Y11365591D01*
X7821810Y11061825D02*
X8125576Y11365591D01*
X7821810Y11125464D02*
X8061936Y11365591D01*
X7821810Y11074553D02*
X8112848Y11365591D01*
X7821810Y11087281D02*
X8100120Y11365591D01*
X7821810Y11112736D02*
X8074664Y11365591D01*
X7821810Y11100009D02*
X8087392Y11365591D01*
X7821810Y11189104D02*
X7998297Y11365591D01*
X7821810Y11201832D02*
X7985569Y11365591D01*
X7821810Y11214559D02*
X7972841Y11365591D01*
X7821810Y11227287D02*
X7960113Y11365591D01*
X7821810Y11240015D02*
X7947386Y11365591D01*
X7821810Y11252743D02*
X7934658Y11365591D01*
X7821810Y11265471D02*
X7921930Y11365591D01*
X7821810Y11278199D02*
X7909202Y11365591D01*
X7821810Y11290927D02*
X7896474Y11365591D01*
X7821810Y11303654D02*
X7883746Y11365591D01*
X7821810Y11316382D02*
X7871018Y11365591D01*
X7821810Y11329110D02*
X7858291Y11365591D01*
X7821810Y11341838D02*
X7845563Y11365591D01*
X7821810Y11354566D02*
X7832835Y11365591D01*
X10254848Y8836463D02*
X10798652Y9380268D01*
X10242120Y8836463D02*
X10785656Y9379999D01*
X10229392Y8836463D02*
X10772928Y9379999D01*
X10216664Y8836463D02*
X10760200Y9379999D01*
X10203936Y8836463D02*
X10747472Y9379999D01*
X10191208Y8836463D02*
X10734744Y9379999D01*
X10632916Y9520001D02*
X10734724Y9621809D01*
X10178480Y8836463D02*
X10722017Y9379999D01*
X10620188Y9520001D02*
X10718894Y9618706D01*
X10165753Y8836463D02*
X10709289Y9379999D01*
X10607460Y9520001D02*
X10708141Y9620681D01*
X10594732Y9520001D02*
X10699656Y9624924D01*
X10153025Y8836463D02*
X10696561Y9379999D01*
X10582005Y9520001D02*
X10692870Y9630866D01*
X10569277Y9520001D02*
X10687696Y9638420D01*
X10556549Y9520001D02*
X10684400Y9647852D01*
X10543821Y9520001D02*
X10684071Y9660251D01*
X10140297Y8836463D02*
X10683833Y9379999D01*
X10127569Y8836463D02*
X10671105Y9379999D01*
X10114841Y8836463D02*
X10658377Y9379999D01*
X10102113Y8836463D02*
X10645649Y9379999D01*
X10089385Y8836463D02*
X10632921Y9379999D01*
X10076658Y8836463D02*
X10620194Y9379999D01*
X10063930Y8836463D02*
X10607466Y9379999D01*
X10470001Y10324403D02*
X10600917Y10455320D01*
X10051202Y8836463D02*
X10594738Y9379999D01*
X10038474Y8836463D02*
X10582010Y9379999D01*
X10470001Y10337131D02*
X10581594Y10448724D01*
X10470001Y10349859D02*
X10570183Y10450042D01*
X10025746Y8836463D02*
X10569282Y9379999D01*
X10470001Y10362587D02*
X10561293Y10453879D01*
X10013018Y8836463D02*
X10556554Y9379999D01*
X10470001Y10375314D02*
X10554168Y10459482D01*
X10470001Y10426226D02*
X10552593Y10508819D01*
X10470001Y10388042D02*
X10548646Y10466687D01*
X10470001Y10400770D02*
X10544907Y10475676D01*
X10000290Y8836463D02*
X10543826Y9379999D01*
X10470001Y10413498D02*
X10543760Y10487257D01*
X9987562Y8836463D02*
X10531099Y9379999D01*
X9974835Y8836463D02*
X10518371Y9379999D01*
X9962107Y8836463D02*
X10505643Y9379999D01*
X10470001Y10515321D02*
X10503343Y10548663D01*
X9949379Y8836463D02*
X10492915Y9379999D01*
X10470001Y10528049D02*
X10485647Y10543695D01*
X9936651Y8836463D02*
X10480187Y9379999D01*
X10470001Y10540777D02*
X10474473Y10545249D01*
X9923923Y8836463D02*
X10467459Y9379999D01*
X9911195Y8836463D02*
X10454731Y9379999D01*
X10436529Y9820001D02*
X10446578Y9830049D01*
X9898467Y8836463D02*
X10442003Y9379999D01*
X10423801Y9820001D02*
X10433800Y9829999D01*
X9885740Y8836463D02*
X10429276Y9379999D01*
X10411073Y9820001D02*
X10421072Y9829999D01*
X9873012Y8836463D02*
X10416548Y9379999D01*
X10398346Y9820001D02*
X10408345Y9829999D01*
X9860284Y8836463D02*
X10403820Y9379999D01*
X10385618Y9820001D02*
X10395617Y9829999D01*
X9847556Y8836463D02*
X10391092Y9379999D01*
X10372890Y9820001D02*
X10382889Y9829999D01*
X9834828Y8836463D02*
X10378364Y9379999D01*
X10360162Y9820001D02*
X10370161Y9829999D01*
X9822100Y8836463D02*
X10365636Y9379999D01*
X10347434Y9820001D02*
X10357433Y9829999D01*
X9809372Y8836463D02*
X10352908Y9379999D01*
X10334706Y9820001D02*
X10344705Y9829999D01*
X9796644Y8836463D02*
X10340181Y9379999D01*
X10321978Y9820001D02*
X10331977Y9829999D01*
X9783917Y8836463D02*
X10327453Y9379999D01*
X9771189Y8836463D02*
X10314725Y9379999D01*
X9758461Y8836463D02*
X10301997Y9379999D01*
X9745733Y8836463D02*
X10289269Y9379999D01*
X9733005Y8836463D02*
X10276541Y9379999D01*
X9720277Y8836463D02*
X10263813Y9379999D01*
X9707549Y8836463D02*
X10251085Y9379999D01*
X9694822Y8836463D02*
X10238358Y9379999D01*
X9682094Y8836463D02*
X10225630Y9379999D01*
X9669366Y8836463D02*
X10212902Y9379999D01*
X9656638Y8836463D02*
X10200174Y9379999D01*
X9643910Y8836463D02*
X10187446Y9379999D01*
X9631182Y8836463D02*
X10174718Y9379999D01*
X9618454Y8836463D02*
X10161990Y9379999D01*
X9605726Y8836463D02*
X10149263Y9379999D01*
X9592999Y8836463D02*
X10136535Y9379999D01*
X9580271Y8836463D02*
X10123807Y9379999D01*
X9567543Y8836463D02*
X10111079Y9379999D01*
X9554815Y8836463D02*
X10098351Y9379999D01*
X9542087Y8836463D02*
X10085623Y9379999D01*
X9529359Y8836463D02*
X10072895Y9379999D01*
X9516631Y8836463D02*
X10060167Y9379999D01*
X9503904Y8836463D02*
X10047440Y9379999D01*
X9491176Y8836463D02*
X10034712Y9379999D01*
X9478448Y8836463D02*
X10021984Y9379999D01*
X9465720Y8836463D02*
X10009256Y9379999D01*
X9452992Y8836463D02*
X9996528Y9379999D01*
X9440264Y8836463D02*
X9983800Y9379999D01*
X9427536Y8836463D02*
X9971072Y9379999D01*
X9414808Y8836463D02*
X9958344Y9379999D01*
X9402081Y8836463D02*
X9945617Y9379999D01*
X9389353Y8836463D02*
X9932889Y9379999D01*
X9376625Y8836463D02*
X9920161Y9379999D01*
X9363897Y8836463D02*
X9907433Y9379999D01*
X9351169Y8836463D02*
X9894705Y9379999D01*
X9338441Y8836463D02*
X9881977Y9379999D01*
X9325713Y8836463D02*
X9869249Y9379999D01*
X9312985Y8836463D02*
X9856522Y9379999D01*
X9300258Y8836463D02*
X9843794Y9379999D01*
X9287530Y8836463D02*
X9831066Y9379999D01*
X9274802Y8836463D02*
X9818338Y9379999D01*
X9262074Y8836463D02*
X9805610Y9379999D01*
X9249346Y8836463D02*
X9792882Y9379999D01*
X9236618Y8836463D02*
X9780154Y9379999D01*
X9223890Y8836463D02*
X9767426Y9379999D01*
X9211163Y8836463D02*
X9754699Y9379999D01*
X9198435Y8836463D02*
X9741971Y9379999D01*
X9185707Y8836463D02*
X9729243Y9379999D01*
X9172979Y8836463D02*
X9716515Y9379999D01*
X9160251Y8836463D02*
X9703787Y9379999D01*
X9147523Y8836463D02*
X9691059Y9379999D01*
X9134795Y8836463D02*
X9678331Y9379999D01*
X9122067Y8836463D02*
X9665604Y9379999D01*
X9109340Y8836463D02*
X9652876Y9379999D01*
X9096612Y8836463D02*
X9640148Y9379999D01*
X9083884Y8836463D02*
X9627420Y9379999D01*
X9071156Y8836463D02*
X9614692Y9379999D01*
X9058428Y8836463D02*
X9601964Y9379999D01*
X9045700Y8836463D02*
X9589236Y9379999D01*
X9032972Y8836463D02*
X9576508Y9379999D01*
X9020245Y8836463D02*
X9563781Y9379999D01*
X9007517Y8836463D02*
X9551324Y9380271D01*
X8994789Y8836463D02*
X9541982Y9383656D01*
X8982061Y8836463D02*
X9535053Y9389456D01*
X7821810Y9738127D02*
X9449274Y11365591D01*
X7821810Y9725399D02*
X9462002Y11365591D01*
X7821810Y9712671D02*
X9474730Y11365591D01*
X7821810Y9699943D02*
X9487458Y11365591D01*
X7821810Y9687215D02*
X9500185Y11365591D01*
X7821810Y9674488D02*
X9512913Y11365591D01*
X7821810Y9661760D02*
X9525641Y11365591D01*
X7821810Y9649032D02*
X9529999Y11357221D01*
X7821810Y9636304D02*
X9529999Y11344493D01*
X7821810Y9623576D02*
X9529999Y11331766D01*
X7821810Y9610848D02*
X9529999Y11319038D01*
X7821810Y9598120D02*
X9529999Y11306310D01*
X7821810Y9585392D02*
X9529999Y11293582D01*
X7821810Y9572665D02*
X9529999Y11280854D01*
X7821810Y9559937D02*
X9529999Y11268126D01*
X7821810Y9547209D02*
X9529999Y11255398D01*
X7821810Y9534481D02*
X9529999Y11242670D01*
X7821810Y9521753D02*
X9529999Y11229943D01*
X7821810Y9509025D02*
X9529999Y11217215D01*
X7821810Y9496297D02*
X9529999Y11204487D01*
X7821810Y9483570D02*
X9529999Y11191759D01*
X7821810Y9470842D02*
X9529999Y11179031D01*
X7821810Y9458114D02*
X9529999Y11166303D01*
X7821810Y9445386D02*
X9529999Y11153575D01*
X7821810Y9432658D02*
X9529999Y11140848D01*
X7821810Y9419930D02*
X9529999Y11128120D01*
X7821810Y9407202D02*
X9529999Y11115392D01*
X7821810Y9394474D02*
X9529999Y11102664D01*
X7821810Y9381747D02*
X9529999Y11089936D01*
X7821810Y9369019D02*
X9529999Y11077208D01*
X7821810Y9356291D02*
X9529999Y11064480D01*
X7821810Y9343563D02*
X9529999Y11051752D01*
X7821810Y9330835D02*
X9529999Y11039025D01*
X7821810Y9318107D02*
X9529999Y11026297D01*
X7821810Y9305379D02*
X9529999Y11013569D01*
X7821810Y9292652D02*
X9529999Y11000841D01*
X7821810Y9279924D02*
X9529999Y10988113D01*
X7821810Y9267196D02*
X9529999Y10975385D01*
X7821810Y9254468D02*
X9529999Y10962657D01*
X7821810Y9241740D02*
X9529999Y10949930D01*
X7821810Y9229012D02*
X9529999Y10937202D01*
X7821810Y9216284D02*
X9529999Y10924474D01*
X7821810Y9203556D02*
X9529999Y10911746D01*
X7821810Y9190829D02*
X9529999Y10899018D01*
X7821810Y9178101D02*
X9529999Y10886290D01*
X7821810Y9165373D02*
X9529999Y10873562D01*
X7821810Y9152645D02*
X9529999Y10860834D01*
X7821810Y9139917D02*
X9529999Y10848107D01*
X7821810Y9127189D02*
X9529999Y10835379D01*
X7821810Y9114461D02*
X9529999Y10822651D01*
X7821810Y9101734D02*
X9529999Y10809923D01*
X7821810Y9089006D02*
X9529999Y10797195D01*
X7821810Y9076278D02*
X9529999Y10784467D01*
X7821810Y9063550D02*
X9529999Y10771739D01*
X7821810Y9050822D02*
X9529999Y10759012D01*
X7821810Y9038094D02*
X9529999Y10746284D01*
X7821810Y9025366D02*
X9529999Y10733556D01*
X7821810Y9012638D02*
X9529999Y10720828D01*
X7821810Y8999911D02*
X9529999Y10708100D01*
X7821810Y8987183D02*
X9529999Y10695372D01*
X7821810Y8974455D02*
X9529999Y10682644D01*
X7821810Y8961727D02*
X9529999Y10669916D01*
X7821810Y8948999D02*
X9529999Y10657189D01*
X9497170Y10611632D02*
X9529999Y10644461D01*
X9514575Y10616308D02*
X9529999Y10631733D01*
X9525694Y10614700D02*
X9529999Y10619005D01*
X7823825Y8836463D02*
X9529999Y10542638D01*
X7836553Y8836463D02*
X9529999Y10529910D01*
X7849281Y8836463D02*
X9529999Y10517182D01*
X7862009Y8836463D02*
X9529999Y10504454D01*
X7874736Y8836463D02*
X9529999Y10491726D01*
X7887464Y8836463D02*
X9529999Y10478998D01*
X7900192Y8836463D02*
X9529999Y10466271D01*
X7912920Y8836463D02*
X9529999Y10453543D01*
X7925648Y8836463D02*
X9529999Y10440815D01*
X7938376Y8836463D02*
X9529999Y10428087D01*
X7951104Y8836463D02*
X9529999Y10415359D01*
X7963832Y8836463D02*
X9529999Y10402631D01*
X7976559Y8836463D02*
X9529999Y10389903D01*
X7989287Y8836463D02*
X9529999Y10377176D01*
X8002015Y8836463D02*
X9529999Y10364448D01*
X8014743Y8836463D02*
X9529999Y10351720D01*
X8027471Y8836463D02*
X9529999Y10338992D01*
X8040199Y8836463D02*
X9529999Y10326264D01*
X8052927Y8836463D02*
X9529999Y10313536D01*
X8065654Y8836463D02*
X9529999Y10300808D01*
X8078382Y8836463D02*
X9529999Y10288080D01*
X8091110Y8836463D02*
X9529999Y10275353D01*
X8103838Y8836463D02*
X9529999Y10262625D01*
X8116566Y8836463D02*
X9529999Y10249897D01*
X8129294Y8836463D02*
X9529999Y10237169D01*
X8142022Y8836463D02*
X9529999Y10224441D01*
X8154750Y8836463D02*
X9529999Y10211713D01*
X8167477Y8836463D02*
X9529999Y10198985D01*
X8180205Y8836463D02*
X9529999Y10186258D01*
X8192933Y8836463D02*
X9529999Y10173530D01*
X8205661Y8836463D02*
X9529999Y10160802D01*
X8218389Y8836463D02*
X9529999Y10148074D01*
X8231117Y8836463D02*
X9529999Y10135346D01*
X8243845Y8836463D02*
X9529999Y10122618D01*
X8256572Y8836463D02*
X9529999Y10109890D01*
X8269300Y8836463D02*
X9529999Y10097162D01*
X8282028Y8836463D02*
X9529999Y10084435D01*
X8294756Y8836463D02*
X9529999Y10071707D01*
X8307484Y8836463D02*
X9529999Y10058979D01*
X8320212Y8836463D02*
X9529999Y10046251D01*
X8332940Y8836463D02*
X9529999Y10033523D01*
X8345668Y8836463D02*
X9529999Y10020795D01*
X8358395Y8836463D02*
X9529999Y10008067D01*
X8371123Y8836463D02*
X9529999Y9995340D01*
X8383851Y8836463D02*
X9529999Y9982612D01*
X8396579Y8836463D02*
X9529999Y9969884D01*
X8409307Y8836463D02*
X9529999Y9957156D01*
X8422035Y8836463D02*
X9529999Y9944428D01*
X8434763Y8836463D02*
X9529999Y9931700D01*
X8447490Y8836463D02*
X9529999Y9918972D01*
X8460218Y8836463D02*
X9529999Y9906244D01*
X8472946Y8836463D02*
X9529999Y9893517D01*
X8485674Y8836463D02*
X9529999Y9880789D01*
X8498402Y8836463D02*
X9529999Y9868061D01*
X8511130Y8836463D02*
X9529999Y9855333D01*
X8523858Y8836463D02*
X9529999Y9842605D01*
X8536586Y8836463D02*
X9529999Y9829877D01*
X8549313Y8836463D02*
X9529999Y9817149D01*
X8562041Y8836463D02*
X9529999Y9804422D01*
X8574769Y8836463D02*
X9529999Y9791694D01*
X8587497Y8836463D02*
X9529999Y9778966D01*
X8600225Y8836463D02*
X9529999Y9766238D01*
X8612953Y8836463D02*
X9529999Y9753510D01*
X8625681Y8836463D02*
X9529999Y9740782D01*
X8638408Y8836463D02*
X9529999Y9728054D01*
X8651136Y8836463D02*
X9529999Y9715326D01*
X8663864Y8836463D02*
X9529999Y9702599D01*
X8676592Y8836463D02*
X9529999Y9689871D01*
X8689320Y8836463D02*
X9529999Y9677143D01*
X9416749Y9551165D02*
X9529999Y9664415D01*
X9428592Y9550279D02*
X9529999Y9651687D01*
X9437729Y9546688D02*
X9529999Y9638959D01*
X9445052Y9541284D02*
X9529999Y9626231D01*
X9450772Y9534276D02*
X9529999Y9613504D01*
X9454751Y9525527D02*
X9529999Y9600776D01*
X9456305Y9514353D02*
X9529999Y9588048D01*
X9451337Y9496657D02*
X9529999Y9575320D01*
X8803871Y8836463D02*
X9529999Y9562592D01*
X8816599Y8836463D02*
X9529999Y9549864D01*
X8829327Y8836463D02*
X9529999Y9537136D01*
X8842054Y8836463D02*
X9529999Y9524408D01*
X8854782Y8836463D02*
X9529999Y9511681D01*
X8867510Y8836463D02*
X9529999Y9498953D01*
X9491181Y9447406D02*
X9529999Y9486225D01*
X9512743Y9456240D02*
X9529999Y9473497D01*
X9524323Y9455093D02*
X9529999Y9460769D01*
X9456142Y10481508D02*
X9518492Y10543858D01*
X8969333Y8836463D02*
X9516594Y9383724D01*
X9455322Y10493416D02*
X9506584Y10544678D01*
X8956605Y8836463D02*
X9505183Y9385042D01*
X9451766Y10502588D02*
X9497412Y10548234D01*
X8943877Y8836463D02*
X9496293Y9388879D01*
X9446390Y10509940D02*
X9490060Y10553610D01*
X8931149Y8836463D02*
X9489168Y9394482D01*
X8880238Y8836463D02*
X9487594Y9443819D01*
X9439410Y10515687D02*
X9484313Y10560590D01*
X8918422Y8836463D02*
X9483646Y9401687D01*
X9402170Y10516632D02*
X9483368Y10597830D01*
X9430694Y10519700D02*
X9480300Y10569306D01*
X8905694Y8836463D02*
X9479907Y9410677D01*
X8892966Y8836463D02*
X9478760Y9422257D01*
X9419575Y10521308D02*
X9478692Y10580425D01*
X8791143Y8836463D02*
X9438343Y9483663D01*
X7821810Y8847176D02*
X9423492Y10448858D01*
X8778415Y8836463D02*
X9420647Y9478695D01*
X7821810Y8859904D02*
X9411584Y10449678D01*
X8765687Y8836463D02*
X9409473Y9480249D01*
X7821810Y8872632D02*
X9402412Y10453234D01*
X8752959Y8836463D02*
X9400724Y9484228D01*
X7821810Y8885360D02*
X9395060Y10458610D01*
X8740231Y8836463D02*
X9393716Y9489948D01*
X7821810Y8898088D02*
X9389313Y10465590D01*
X7821810Y8936271D02*
X9388368Y10502830D01*
X8727504Y8836463D02*
X9388312Y9497271D01*
X7821810Y8910816D02*
X9385300Y10474306D01*
X8714776Y8836463D02*
X9384721Y9506408D01*
X8702048Y8836463D02*
X9383835Y9518251D01*
X7821810Y8923543D02*
X9383692Y10485425D01*
G74*
X0Y0D02*
M02*
