*
*
G04 PADS Layout (Build Number 2008.43.1) generated Gerber (RS-274-X) file*
G04 PC Version=2.1*
*
%IN "XPCB-019.pcb"*%
*
%MOMM*%
*
%FSLAX35Y35*%
*
*
*
*
G04 PC Standard Apertures*
*
*
G04 Thermal Relief Aperture macro.*
%AMTER*
1,1,$1,0,0*
1,0,$1-$2,0,0*
21,0,$3,$4,0,0,45*
21,0,$3,$4,0,0,135*
%
*
*
G04 Annular Aperture macro.*
%AMANN*
1,1,$1,0,0*
1,0,$2,0,0*
%
*
*
G04 Odd Aperture macro.*
%AMODD*
1,1,$1,0,0*
1,0,$1-0.005,0,0*
%
*
*
G04 PC Custom Aperture Macros*
*
*
*
*
*
*
G04 PC Aperture Table*
*
%ADD012C,0.0254*%
%ADD013C,0.2*%
%ADD015C,0.15*%
%ADD017C,0.3*%
%ADD021R,0.65X0.65*%
%ADD022R,0.9X0.9*%
%ADD026C,0.5*%
%ADD027C,0.1*%
%ADD028R,0.3X0.3*%
%ADD030R,2.8X2.8*%
%ADD031C,0.6*%
*
*
*
*
G04 PC Circuitry*
G04 Layer Name XPCB-019.pcb - circuitry*
%LPD*%
*
*
G04 PC Custom Flashes*
G04 Layer Name XPCB-019.pcb - flashes*
%LPD*%
*
*
G04 PC Circuitry*
G04 Layer Name XPCB-019.pcb - circuitry*
%LPD*%
*
G54D12*
G54D13*
G01X9525000Y9490000D02*
Y9510000D01*
X9490000Y9525000D02*
X9525000D01*
X9350000Y9462500D02*
Y9482500D01*
X9402500Y9515000D02*
X9350000D01*
X9297500D02*
X9350000D01*
X9462500Y9350000D02*
X9482500D01*
X9515000Y9297500D02*
Y9350000D01*
Y9402500D02*
Y9350000D01*
X9462500Y10650000D02*
X9482500D01*
X9515000Y10597500D02*
Y10650000D01*
Y10702500D02*
Y10650000D01*
X9350000Y10537500D02*
Y10517500D01*
X9297500Y10485000D02*
X9350000D01*
X9402500D02*
X9350000D01*
X9525000Y10510000D02*
Y10490000D01*
X9490000Y10475000D02*
X9525000D01*
X10650000Y10537500D02*
Y10517500D01*
X10597500Y10485000D02*
X10650000D01*
X10702500D02*
X10650000D01*
X10537500Y10650000D02*
X10517500D01*
X10485000Y10702500D02*
Y10650000D01*
Y10597500D02*
Y10650000D01*
X10510000Y10475000D02*
X10475000D01*
Y10510000D02*
Y10490000D01*
G54D15*
X10275000Y9600000D02*
Y9635000D01*
X10295000Y9660000*
X10345000*
X10225000Y9600000D02*
Y9655000D01*
X10175000Y9600000D02*
Y9735000D01*
X10125000Y9600000D02*
Y9655000D01*
X10075000Y9600000D02*
Y9735000D01*
X10025000Y9600000D02*
Y9655000D01*
X9975000Y9600000D02*
Y9735000D01*
X9925000Y9600000D02*
Y9655000D01*
X9875000Y9600000D02*
Y9735000D01*
X9825000Y9600000D02*
Y9655000D01*
X9775000Y9600000D02*
Y9735000D01*
X9725000Y9600000D02*
Y9655000D01*
X9600000Y9725000D02*
X9630000D01*
X9660000Y9695000*
Y9655000*
X9600000Y9775000D02*
X9655000D01*
X9600000Y9825000D02*
X9735000D01*
X9600000Y9875000D02*
X9655000D01*
X9600000Y9925000D02*
X9735000D01*
X9600000Y9975000D02*
X9655000D01*
X9600000Y10025000D02*
X9645000D01*
X9600000Y10075000D02*
X9630000D01*
X9645000Y10060000*
Y10025000*
X9600000Y10125000D02*
X9630000D01*
X9675000Y10170000*
Y10400000*
X9600000Y10175000D02*
X9630000D01*
X9645000Y10190000*
X9600000Y10325000D02*
X9630000D01*
X9645000Y10310000*
Y10190000*
X9675000Y10475000D02*
Y10940000D01*
X9725000Y10475000D02*
Y10940000D01*
X9775000Y10475000D02*
Y10940000D01*
X9825000Y10475000D02*
Y10940000D01*
X9875000Y10475000D02*
Y10940000D01*
X9925000Y10475000D02*
Y10940000D01*
X9975000Y10475000D02*
Y10940000D01*
X10025000Y10475000D02*
Y10940000D01*
X10075000Y10475000D02*
Y10940000D01*
X10125000Y10475000D02*
Y10940000D01*
X10175000Y10475000D02*
Y10940000D01*
X10225000Y10475000D02*
Y10940000D01*
X10275000Y10475000D02*
Y10940000D01*
X10475000Y10325000D02*
X10955000D01*
X10475000Y10275000D02*
X10955000D01*
X10475000Y10225000D02*
X10955000D01*
X10475000Y10175000D02*
X10955000D01*
X10475000Y10125000D02*
X10955000D01*
X10475000Y10075000D02*
X10955000D01*
X10475000Y10025000D02*
X10955000D01*
X10475000Y9975000D02*
X10955000D01*
X10475000Y9925000D02*
X10955000D01*
X10475000Y9875000D02*
X10955000D01*
X10475000Y9825000D02*
X10570000D01*
X10585000Y9840000*
X10955000*
X10475000Y9775000D02*
X10575000D01*
X10605000Y9805000*
X10955000*
X10475000Y9525000D02*
X10530000Y9470000D01*
Y9420000*
X10770000Y9180000*
X10825000Y9645000D02*
X10830000D01*
X10520000Y9625000D02*
X10525000Y9620000D01*
X10630000Y9725000D02*
X10650000Y9745000D01*
X10620000Y9675000D02*
X10650000Y9655000D01*
X10325000Y10940000D02*
Y10475000D01*
X9190000Y10175000D02*
X9525000D01*
X9190000Y10225000D02*
X9525000D01*
X9190000Y10275000D02*
X9525000D01*
X9190000Y10325000D02*
X9525000D01*
X9190000Y10125000D02*
X9525000D01*
X9190000Y10075000D02*
X9525000D01*
X9190000Y10025000D02*
X9525000D01*
X9190000Y9975000D02*
X9525000D01*
X9190000Y9925000D02*
X9525000D01*
X9190000Y9875000D02*
X9525000D01*
X9190000Y9825000D02*
X9525000D01*
X9190000Y9775000D02*
X9525000D01*
X9190000Y9675000D02*
X9525000D01*
X9190000Y9725000D02*
X9525000D01*
X10650000Y9470000D02*
Y9465000D01*
X10480000Y9350000D02*
X10485000D01*
X10225000Y9190000D02*
Y9525000D01*
X10175000Y9190000D02*
Y9525000D01*
X10125000Y9190000D02*
Y9525000D01*
X10075000Y9190000D02*
Y9525000D01*
X10025000Y9190000D02*
Y9525000D01*
X9975000Y9190000D02*
Y9525000D01*
X9925000Y9190000D02*
Y9525000D01*
X9825000Y9190000D02*
Y9525000D01*
X9725000Y9190000D02*
Y9525000D01*
X10325000Y9190000D02*
Y9525000D01*
X9775000Y9190000D02*
Y9525000D01*
X9675000Y9190000D02*
Y9525000D01*
X9875000Y9190000D02*
Y9525000D01*
X10340000Y10345000D02*
Y10295000D01*
X10360000Y10275000*
X10400000*
X10345000Y9725000D02*
X10400000D01*
X10345000Y9925000D02*
X10400000D01*
X10265000Y9875000D02*
X10400000D01*
X10345000Y10025000D02*
X10400000D01*
X10265000Y9975000D02*
X10400000D01*
X10265000Y10075000D02*
X10400000D01*
X10345000Y10225000D02*
X10400000D01*
X10265000Y10175000D02*
X10400000D01*
X10345000Y10125000D02*
X10400000D01*
X10225000Y10265000D02*
Y10400000D01*
X10275000Y10345000D02*
Y10400000D01*
X10125000Y10265000D02*
Y10400000D01*
X10175000Y10345000D02*
Y10400000D01*
X10025000Y10265000D02*
Y10400000D01*
X10075000Y10345000D02*
Y10400000D01*
X9645000Y10025000D02*
X9735000D01*
X9825000Y10265000D02*
Y10400000D01*
X9725000Y10265000D02*
Y10400000D01*
X9925000Y10265000D02*
Y10400000D01*
X9975000Y10345000D02*
Y10400000D01*
X9775000Y10345000D02*
Y10400000D01*
X9875000Y10345000D02*
Y10400000D01*
X10265000Y9775000D02*
X10400000D01*
X10275000Y9190000D02*
Y9525000D01*
G54D17*
X10325000Y10400000D02*
X10335000D01*
X10375000Y10440000*
Y10475000*
X10400000Y10325000D02*
Y10335000D01*
X10440000Y10375000*
X10475000*
X10400000Y9675000D02*
Y9665000D01*
X10440000Y9625000*
X10475000*
X10325000Y9600000D02*
X10335000D01*
X10375000Y9560000*
Y9525000*
X9625000Y10475000D02*
Y10440000D01*
X9665000Y10400000*
X9675000*
X9625000Y10475000D02*
Y10525000D01*
X10375000Y10475000D02*
Y10525000D01*
X10475000Y10375000D02*
X10525000D01*
X10475000Y9725000D02*
X10630000D01*
X10475000Y9675000D02*
X10620000D01*
X10475000Y9625000D02*
X10520000D01*
X9625000Y9525000D02*
Y9560000D01*
X9665000Y9600000*
X9675000*
X9525000Y9625000D02*
X9560000D01*
X9600000Y9665000*
Y9675000*
X9525000Y10375000D02*
X9560000D01*
X9600000Y10335000*
Y10325000*
X10735000Y9485000D02*
X10830000D01*
X9475000Y9625000D02*
X9525000D01*
X9475000Y10375000D02*
X9525000D01*
X9625000Y9475000D02*
Y9525000D01*
X10650000Y9745000D02*
X10725000D01*
X10825000Y9645000*
X10345000Y9825000D02*
X10400000D01*
X10375000Y9475000D02*
Y9525000D01*
G54D21*
X10650000Y9745000D03*
Y9655000D03*
X10395000Y9350000D03*
X10485000D03*
X9605000Y10650000D03*
X9515000D03*
X10395000D03*
X10485000D03*
X9605000Y9350000D03*
X9515000D03*
X9350000Y9605000D03*
Y9515000D03*
Y10395000D03*
Y10485000D03*
X10650000Y10395000D03*
Y10485000D03*
Y9555000D03*
Y9465000D03*
G54D22*
X10825000Y9645000D02*
X10835000D01*
X10825000Y9485000D02*
X10835000D01*
G54D26*
X9455000Y10395000D02*
X9475000Y10375000D01*
X9605000Y10545000D02*
X9625000Y10525000D01*
X9455000Y9605000D02*
X9475000Y9625000D01*
X9605000Y9455000D02*
X9625000Y9475000D01*
X10580000Y10485000D02*
X10650000D01*
X10485000Y10580000D02*
Y10650000D01*
X9515000Y10580000D02*
Y10650000D01*
X10480000Y9420000D02*
Y9350000D01*
X10580000Y9470000D02*
X10650000D01*
X10525000Y10375000D02*
X10545000Y10395000D01*
X10525000Y9620000D02*
X10590000Y9555000D01*
X10650000*
X10375000Y10525000D02*
X10395000Y10545000D01*
X9350000Y10485000D02*
X9420000D01*
X9350000Y9515000D02*
X9420000D01*
X9515000Y9350000D02*
Y9420000D01*
X10650000Y9655000D02*
X10720000D01*
X10375000Y9475000D02*
X10395000Y9455000D01*
X10735000Y9485000D03*
X10100000Y10100000D03*
Y10000000D03*
Y9900000D03*
X10000000D03*
Y10000000D03*
Y10100000D03*
X9900000D03*
Y9900000D03*
Y10000000D03*
X9735000Y9825000D03*
Y10025000D03*
Y9925000D03*
X10580000Y10485000D03*
X10485000Y10580000D03*
X9515000D03*
X9420000Y10485000D03*
X9515000Y9420000D03*
X9420000Y9515000D03*
X10480000Y9420000D03*
X10580000Y9470000D03*
X10525000Y10375000D03*
X9475000Y9625000D03*
Y10375000D03*
X10525000Y9620000D03*
X10375000Y10525000D03*
X9625000Y9475000D03*
Y10525000D03*
X10720000Y9655000D03*
X10340000Y10345000D03*
X10345000Y9660000D03*
Y9725000D03*
Y9825000D03*
Y9925000D03*
X10265000Y9875000D03*
X10345000Y10025000D03*
X10265000Y9975000D03*
Y10075000D03*
X10345000Y10225000D03*
X10265000Y10175000D03*
X10345000Y10125000D03*
X10225000Y10265000D03*
X10275000Y10345000D03*
X10125000Y10265000D03*
X10175000Y10345000D03*
X10025000Y10265000D03*
X10075000Y10345000D03*
X9825000Y10265000D03*
X9725000D03*
X9925000D03*
X9975000Y10345000D03*
X9775000D03*
X9875000D03*
X9655000Y9975000D03*
X10265000Y9775000D03*
X10225000Y9655000D03*
X10175000Y9735000D03*
X10125000Y9655000D03*
X10075000Y9735000D03*
X10025000Y9655000D03*
X9975000Y9735000D03*
X9875000D03*
X9660000Y9655000D03*
X9825000D03*
X9925000D03*
X9655000Y9875000D03*
X9775000Y9735000D03*
X9725000Y9655000D03*
X9655000Y9775000D03*
X10375000Y9475000D03*
G54D27*
X9555000Y10702469D02*
Y10724000D01*
G75*
G03X9554000Y10725000I-1000J0D01*
G01X9276000*
G03X9275000Y10724000I0J-1000*
G01Y10446000*
G03X9276000Y10445000I1000J0*
G01X9297531*
G03X9298482Y10446310I-0J1000*
G01X9297499Y10452500D02*
G03X9298482Y10446310I20001J0D01*
G01X9297499Y10452500D02*
Y10517500D01*
X9317500Y10537501D02*
G03X9297499Y10517500I0J-20001D01*
G01X9317500Y10537501D02*
X9382500D01*
X9402501Y10517500D02*
G03X9382500Y10537501I-20001J0D01*
G01X9402501Y10517500D02*
Y10452500D01*
X9401519Y10446310D02*
G03X9402501Y10452500I-19019J6190D01*
G01X9401519Y10446310D02*
G03X9402469Y10445001I950J-309D01*
G01X9402469D02*
X9455000D01*
X9455229Y10445000D02*
G03X9455000Y10445001I-229J-50000D01*
G01X9455229Y10445000D02*
X9455233D01*
X9494347*
G03X9495092Y10446667I-0J1000*
G01X9490000Y10460000D02*
G03X9495092Y10446667I20000J0D01*
G01X9489999Y10460000D02*
Y10490000D01*
X9510000Y10510001D02*
G03X9489999Y10490000I0J-20001D01*
G01X9510000Y10510001D02*
X9540000D01*
X9553333Y10504908D02*
G03X9540000Y10510001I-13333J-14908D01*
G01X9553333Y10504908D02*
G03X9555000Y10505653I667J745D01*
G01Y10544767*
Y10544771*
Y10545000D02*
G03Y10544771I50000J0D01*
G01X9554999Y10545000D02*
Y10597531D01*
X9554999D02*
G03X9553690Y10598481I-1000J-0D01*
G01X9547500Y10597500D02*
G03X9553690Y10598482I0J20000D01*
G01X9547500Y10597499D02*
X9482500D01*
X9462499Y10617500D02*
G03X9482500Y10597499I20001J0D01*
G01X9462499Y10617500D02*
Y10682500D01*
X9482500Y10702501D02*
G03X9462499Y10682500I0J-20001D01*
G01X9482500Y10702501D02*
X9547500D01*
X9553690Y10701518D02*
G03X9547500Y10702501I-6190J-19018D01*
G01X9553691Y10701518D02*
G03X9555000Y10702469I309J951D01*
G01X10725000Y10446000D02*
Y10724000D01*
G03X10724000Y10725000I-1000J0*
G01X10446000*
G03X10445000Y10724000I0J-1000*
G01Y10702469*
G03X10446310Y10701518I1000J0*
G01X10452500Y10702501D02*
G03X10446310Y10701518I0J-20001D01*
G01X10452500Y10702501D02*
X10517500D01*
X10537501Y10682500D02*
G03X10517500Y10702501I-20001J0D01*
G01X10537501Y10682500D02*
Y10617500D01*
X10517500Y10597499D02*
G03X10537501Y10617500I0J20001D01*
G01X10517500Y10597499D02*
X10452500D01*
X10446310Y10598481D02*
G03X10452500Y10597499I6190J19019D01*
G01X10446310Y10598481D02*
G03X10445001Y10597531I-309J-950D01*
G01X10445001D02*
Y10545000D01*
X10445000Y10544771D02*
G03X10445001Y10545000I-50000J229D01*
G01X10445000Y10544771D02*
Y10544767D01*
Y10505653*
G03X10446667Y10504908I1000J0*
G01X10460000Y10510000D02*
G03X10446667Y10504908I0J-20000D01*
G01X10460000Y10510001D02*
X10490000D01*
X10510001Y10490000D02*
G03X10490000Y10510001I-20001J0D01*
G01X10510001Y10490000D02*
Y10460000D01*
X10504908Y10446667D02*
G03X10510001Y10460000I-14908J13333D01*
G01X10504908Y10446667D02*
G03X10505653Y10445000I745J-667D01*
G01X10544767*
X10544771*
X10545000D02*
G03X10544771I0J-50000D01*
G01X10545000Y10445001D02*
X10597531D01*
X10597531D02*
G03X10598481Y10446310I-0J1000D01*
G01X10597500Y10452500D02*
G03X10598482Y10446310I20000J0D01*
G01X10597499Y10452500D02*
Y10517500D01*
X10617500Y10537501D02*
G03X10597499Y10517500I0J-20001D01*
G01X10617500Y10537501D02*
X10682500D01*
X10702501Y10517500D02*
G03X10682500Y10537501I-20001J0D01*
G01X10702501Y10517500D02*
Y10452500D01*
X10701518Y10446310D02*
G03X10702501Y10452500I-19018J6190D01*
G01X10701518Y10446309D02*
G03X10702469Y10445000I951J-309D01*
G01X10724000*
G03X10725000Y10446000I0J1000*
G01X9555000Y9455233D02*
Y9494347D01*
G03X9553333Y9495092I-1000J-0*
G01X9540000Y9490000D02*
G03X9553333Y9495092I0J20000D01*
G01X9540000Y9489999D02*
X9510000D01*
X9489999Y9510000D02*
G03X9510000Y9489999I20001J0D01*
G01X9489999Y9510000D02*
Y9540000D01*
X9495092Y9553333D02*
G03X9489999Y9540000I14908J-13333D01*
G01X9495092Y9553333D02*
G03X9494347Y9555000I-745J667D01*
G01X9455233*
X9455229*
X9455000D02*
G03X9455229I0J50000D01*
G01X9455000Y9554999D02*
X9402469D01*
X9402469D02*
G03X9401519Y9553690I0J-1000D01*
G01X9402500Y9547500D02*
G03X9401518Y9553690I-20000J0D01*
G01X9402501Y9547500D02*
Y9482500D01*
X9382500Y9462499D02*
G03X9402501Y9482500I0J20001D01*
G01X9382500Y9462499D02*
X9317500D01*
X9297499Y9482500D02*
G03X9317500Y9462499I20001J0D01*
G01X9297499Y9482500D02*
Y9547500D01*
X9298482Y9553690D02*
G03X9297499Y9547500I19018J-6190D01*
G01X9298482Y9553691D02*
G03X9297531Y9555000I-951J309D01*
G01X9276000*
G03X9275000Y9554000I0J-1000*
G01Y9276000*
G03X9276000Y9275000I1000J0*
G01X9554000*
G03X9555000Y9276000I0J1000*
G01Y9297531*
G03X9553690Y9298482I-1000J-0*
G01X9547500Y9297499D02*
G03X9553690Y9298482I0J20001D01*
G01X9547500Y9297499D02*
X9482500D01*
X9462499Y9317500D02*
G03X9482500Y9297499I20001J0D01*
G01X9462499Y9317500D02*
Y9382500D01*
X9482500Y9402501D02*
G03X9462499Y9382500I0J-20001D01*
G01X9482500Y9402501D02*
X9547500D01*
X9553690Y9401519D02*
G03X9547500Y9402501I-6190J-19019D01*
G01X9553690Y9401519D02*
G03X9554999Y9402469I309J950D01*
G01X9554999D02*
Y9455000D01*
X9555000Y9455229D02*
G03X9554999Y9455000I50000J-229D01*
G01X9555000Y9455229D02*
Y9455233D01*
X9545282Y10702501D02*
X9555000Y10712218D01*
X9530972Y10510001D02*
X9555000Y10534028D01*
X9543408Y10509708D02*
X9555000Y10521300D01*
X9552243Y10505815D02*
X9555000Y10508572D01*
X9415061Y10445001D02*
X9554999Y10584939D01*
X9427789Y10445001D02*
X9554999Y10572211D01*
X9504839Y10509323D02*
X9554999Y10559483D01*
X9518245Y10510001D02*
X9554999Y10546755D01*
X9402341Y10445009D02*
X9554991Y10597659D01*
X9532554Y10702501D02*
X9554734Y10724680D01*
X9519827Y10702501D02*
X9542326Y10725000D01*
X9402501Y10457896D02*
X9542104Y10597499D01*
X9507099Y10702501D02*
X9529598Y10725000D01*
X9402501Y10470624D02*
X9529376Y10597499D01*
X9494371Y10702501D02*
X9516870Y10725000D01*
X9402501Y10483352D02*
X9516648Y10597499D01*
X9481624Y10702481D02*
X9504142Y10725000D01*
X9402501Y10496080D02*
X9503920Y10597499D01*
X9491428Y10445000D02*
X9494184Y10447757D01*
X9275000Y10508586D02*
X9491414Y10725000D01*
X9402501Y10508808D02*
X9491193Y10597499D01*
X9440516Y10445001D02*
X9490677Y10495161D01*
X9478700Y10445000D02*
X9490292Y10456592D01*
X9453244Y10445001D02*
X9489999Y10481756D01*
X9465972Y10445000D02*
X9489999Y10469028D01*
X9402157Y10521192D02*
X9478808Y10597843D01*
X9275000Y10521314D02*
X9478687Y10725000D01*
X9398168Y10529931D02*
X9470069Y10601832D01*
X9275000Y10534042D02*
X9465959Y10725000D01*
X9391077Y10535568D02*
X9464432Y10608923D01*
X9316623Y10537481D02*
X9462519Y10683376D01*
X9329370Y10537501D02*
X9462499Y10670629D01*
X9342098Y10537501D02*
X9462499Y10657902D01*
X9354826Y10537501D02*
X9462499Y10645174D01*
X9367554Y10537501D02*
X9462499Y10632446D01*
X9380282Y10537501D02*
X9462499Y10619718D01*
X9275000Y10546770D02*
X9453231Y10725000D01*
X9275000Y10559498D02*
X9440503Y10725000D01*
X9275000Y10572225D02*
X9427775Y10725000D01*
X9275000Y10584953D02*
X9415047Y10725000D01*
X9275000Y10597681D02*
X9402319Y10725000D01*
X9275000Y10610409D02*
X9389591Y10725000D01*
X9275000Y10623137D02*
X9376863Y10725000D01*
X9275000Y10635865D02*
X9364135Y10725000D01*
X9275000Y10648593D02*
X9351408Y10725000D01*
X9275000Y10661321D02*
X9338680Y10725000D01*
X9275000Y10674048D02*
X9325952Y10725000D01*
X9275000Y10686776D02*
X9313224Y10725000D01*
X9275000Y10699504D02*
X9300496Y10725000D01*
X9275000Y10495858D02*
X9297519Y10518377D01*
X9275000Y10483130D02*
X9297499Y10505630D01*
X9275000Y10470403D02*
X9297499Y10492902D01*
X9275000Y10457675D02*
X9297499Y10480174D01*
X9275320Y10445267D02*
X9297499Y10467446D01*
X9287781Y10445000D02*
X9297499Y10454718D01*
X9275000Y10712232D02*
X9287768Y10725000D01*
X10509007Y10496226D02*
X10725000Y10712218D01*
X10510001Y10484491D02*
X10725000Y10699490D01*
X10510001Y10471764D02*
X10725000Y10686762D01*
X10509976Y10459011D02*
X10725000Y10674035D01*
X10508693Y10445000D02*
X10725000Y10661307D01*
X10613522Y10537101D02*
X10725000Y10648579D01*
X10626649Y10537501D02*
X10725000Y10635851D01*
X10639377Y10537501D02*
X10725000Y10623123D01*
X10652105Y10537501D02*
X10725000Y10610395D01*
X10664833Y10537501D02*
X10725000Y10597667D01*
X10677561Y10537501D02*
X10725000Y10584940D01*
X10689151Y10536362D02*
X10725000Y10572212D01*
X10696898Y10531382D02*
X10725000Y10559484D01*
X10701618Y10523374D02*
X10725000Y10546756D01*
X10702501Y10511529D02*
X10725000Y10534028D01*
X10702501Y10498801D02*
X10725000Y10521300D01*
X10702501Y10486073D02*
X10725000Y10508572D01*
X10702501Y10473345D02*
X10725000Y10495844D01*
X10702501Y10460617D02*
X10725000Y10483117D01*
X10701776Y10447165D02*
X10725000Y10470389D01*
X10712339Y10445000D02*
X10725000Y10457661D01*
X10504169Y10504116D02*
X10724734Y10724680D01*
X10496306Y10508980D02*
X10712326Y10725000D01*
X10484598Y10510001D02*
X10699598Y10725000D01*
X10471870Y10510001D02*
X10686870Y10725000D01*
X10459123Y10509981D02*
X10674142Y10725000D01*
X10445000Y10508586D02*
X10661414Y10725000D01*
X10537073Y10613387D02*
X10648687Y10725000D01*
X10537501Y10626542D02*
X10635959Y10725000D01*
X10537501Y10639270D02*
X10623231Y10725000D01*
X10537501Y10651998D02*
X10610503Y10725000D01*
X10597836Y10445048D02*
X10598483Y10445695D01*
X10521421Y10445000D02*
X10597899Y10521478D01*
X10537501Y10664726D02*
X10597775Y10725000D01*
X10534149Y10445000D02*
X10597499Y10508351D01*
X10546877Y10445001D02*
X10597499Y10495623D01*
X10559605Y10445001D02*
X10597499Y10482895D01*
X10572333Y10445001D02*
X10597499Y10470167D01*
X10585061Y10445001D02*
X10597499Y10457439D01*
X10537501Y10677454D02*
X10585047Y10725000D01*
X10536390Y10689071D02*
X10572319Y10725000D01*
X10531437Y10696845D02*
X10559591Y10725000D01*
X10523456Y10701593D02*
X10546863Y10725000D01*
X10511636Y10702501D02*
X10534135Y10725000D01*
X10445000Y10521314D02*
X10521613Y10597927D01*
X10498908Y10702501D02*
X10521408Y10725000D01*
X10486180Y10702501D02*
X10508680Y10725000D01*
X10445000Y10534042D02*
X10508458Y10597499D01*
X10473452Y10702501D02*
X10495952Y10725000D01*
X10445001Y10546770D02*
X10495730Y10597499D01*
X10460724Y10702501D02*
X10483224Y10725000D01*
X10445001Y10559498D02*
X10483002Y10597499D01*
X10447312Y10701816D02*
X10470496Y10725000D01*
X10445001Y10572226D02*
X10470274Y10597499D01*
X10445000Y10712232D02*
X10457768Y10725000D01*
X10445001Y10584954D02*
X10457546Y10597499D01*
X10445014Y10597695D02*
X10445836Y10598517D01*
X9338693Y9275000D02*
X9555000Y9491307D01*
X9478522Y9402101D02*
X9555000Y9478579D01*
X9491649Y9402501D02*
X9555000Y9465851D01*
X9542339Y9275000D02*
X9555000Y9287661D01*
X9504377Y9402501D02*
X9554999Y9453123D01*
X9517105Y9402501D02*
X9554999Y9440395D01*
X9529833Y9402501D02*
X9554999Y9427667D01*
X9542561Y9402501D02*
X9554999Y9414939D01*
X9554306Y9401518D02*
X9554951Y9402163D01*
X9529611Y9275000D02*
X9552836Y9298224D01*
X9325965Y9275000D02*
X9540989Y9490024D01*
X9516883Y9275000D02*
X9539383Y9297499D01*
X9313237Y9275000D02*
X9528237Y9489999D01*
X9504155Y9275000D02*
X9526655Y9297499D01*
X9300509Y9275000D02*
X9515509Y9489999D01*
X9491428Y9275000D02*
X9513927Y9297499D01*
X9287781Y9275000D02*
X9503775Y9490993D01*
X9478700Y9275000D02*
X9501199Y9297499D01*
X9275320Y9275267D02*
X9495884Y9495831D01*
X9275000Y9338586D02*
X9491414Y9555000D01*
X9275000Y9287675D02*
X9491020Y9503694D01*
X9275000Y9325858D02*
X9490019Y9540876D01*
X9275000Y9313130D02*
X9489999Y9528129D01*
X9275000Y9300403D02*
X9489999Y9515401D01*
X9465972Y9275000D02*
X9488471Y9297499D01*
X9402073Y9478387D02*
X9478687Y9555000D01*
X9453244Y9275000D02*
X9476626Y9298382D01*
X9440516Y9275000D02*
X9468618Y9303102D01*
X9402501Y9491542D02*
X9465959Y9555000D01*
X9427788Y9275000D02*
X9463638Y9310849D01*
X9351421Y9275000D02*
X9462899Y9386478D01*
X9364149Y9275000D02*
X9462499Y9373351D01*
X9376876Y9275000D02*
X9462499Y9360623D01*
X9389604Y9275000D02*
X9462499Y9347895D01*
X9402332Y9275000D02*
X9462499Y9335167D01*
X9415060Y9275000D02*
X9462499Y9322439D01*
X9402501Y9504270D02*
X9453230Y9554999D01*
X9402501Y9516998D02*
X9440502Y9554999D01*
X9402501Y9529726D02*
X9427774Y9554999D01*
X9402501Y9542454D02*
X9415047Y9554999D01*
X9401483Y9554164D02*
X9402305Y9554986D01*
X9275000Y9351314D02*
X9386613Y9462927D01*
X9275000Y9364042D02*
X9373458Y9462499D01*
X9275000Y9376770D02*
X9360730Y9462499D01*
X9275000Y9389498D02*
X9348002Y9462499D01*
X9275000Y9402225D02*
X9335274Y9462499D01*
X9275000Y9414953D02*
X9322546Y9462499D01*
X9275000Y9427681D02*
X9310929Y9463610D01*
X9275000Y9440409D02*
X9303154Y9468563D01*
X9275000Y9453137D02*
X9298407Y9476544D01*
X9275000Y9529504D02*
X9298184Y9552688D01*
X9275000Y9516776D02*
X9297499Y9539276D01*
X9275000Y9504048D02*
X9297499Y9526548D01*
X9275000Y9491321D02*
X9297499Y9513820D01*
X9275000Y9478593D02*
X9297499Y9501092D01*
X9275000Y9465865D02*
X9297499Y9488364D01*
X9275000Y9542232D02*
X9287768Y9555000D01*
G54D28*
X9525000Y10475000D03*
Y10375000D03*
Y10325000D03*
Y10275000D03*
Y10225000D03*
Y10175000D03*
Y10125000D03*
Y10075000D03*
Y10025000D03*
Y9975000D03*
Y9925000D03*
Y9875000D03*
Y9825000D03*
Y9775000D03*
Y9725000D03*
Y9675000D03*
Y9625000D03*
Y9525000D03*
X9625000D03*
X9675000D03*
X9725000D03*
X9775000D03*
X9825000D03*
X9875000D03*
X9925000D03*
X9975000D03*
X10025000D03*
X10075000D03*
X10125000D03*
X10175000D03*
X10225000D03*
X10275000D03*
X10325000D03*
X10375000D03*
X10475000D03*
Y9625000D03*
Y9675000D03*
Y9725000D03*
Y9775000D03*
Y9825000D03*
Y9875000D03*
Y9925000D03*
Y9975000D03*
Y10025000D03*
Y10075000D03*
Y10125000D03*
Y10175000D03*
Y10225000D03*
Y10275000D03*
Y10325000D03*
Y10375000D03*
Y10475000D03*
X10375000D03*
X10325000D03*
X10275000D03*
X10225000D03*
X10175000D03*
X10125000D03*
X10075000D03*
X10025000D03*
X9975000D03*
X9925000D03*
X9875000D03*
X9825000D03*
X9775000D03*
X9725000D03*
X9675000D03*
X9625000D03*
X9600000Y10325000D03*
Y10275000D03*
Y10225000D03*
Y10175000D03*
Y10125000D03*
Y10075000D03*
Y10025000D03*
Y9975000D03*
Y9925000D03*
Y9875000D03*
Y9825000D03*
Y9775000D03*
Y9725000D03*
Y9675000D03*
X9675000Y9600000D03*
X9725000D03*
X9775000D03*
X9825000D03*
X9875000D03*
X9925000D03*
X9975000D03*
X10025000D03*
X10075000D03*
X10125000D03*
X10175000D03*
X10225000D03*
X10275000D03*
X10325000D03*
X10400000Y9675000D03*
Y9725000D03*
Y9775000D03*
Y9825000D03*
Y9875000D03*
Y9925000D03*
Y9975000D03*
Y10025000D03*
Y10075000D03*
Y10125000D03*
Y10175000D03*
Y10225000D03*
Y10275000D03*
Y10325000D03*
X10325000Y10400000D03*
X10275000D03*
X10225000D03*
X10175000D03*
X10125000D03*
X10075000D03*
X10025000D03*
X9975000D03*
X9925000D03*
X9875000D03*
X9825000D03*
X9775000D03*
X9725000D03*
X9675000D03*
G54D30*
X10000000Y10000000D03*
G54D31*
X10395000Y10545000D02*
Y10650000D01*
Y9455000D02*
Y9350000D01*
X10545000Y10395000D02*
X10650000D01*
X9350000D02*
X9455000D01*
X9350000Y9605000D02*
X9455000D01*
X9605000Y9350000D02*
Y9455000D01*
Y10650000D02*
Y10545000D01*
G74*
X0Y0D02*
M02*
