*
*
G04 PADS Layout (Build Number 2008.43.1) generated Gerber (RS-274-X) file*
G04 PC Version=2.1*
*
%IN "XPCB-019.pcb"*%
*
%MOMM*%
*
%FSLAX35Y35*%
*
*
*
*
G04 PC Standard Apertures*
*
*
G04 Thermal Relief Aperture macro.*
%AMTER*
1,1,$1,0,0*
1,0,$1-$2,0,0*
21,0,$3,$4,0,0,45*
21,0,$3,$4,0,0,135*
%
*
*
G04 Annular Aperture macro.*
%AMANN*
1,1,$1,0,0*
1,0,$2,0,0*
%
*
*
G04 Odd Aperture macro.*
%AMODD*
1,1,$1,0,0*
1,0,$1-0.005,0,0*
%
*
*
G04 PC Custom Aperture Macros*
*
*
*
*
*
*
G04 PC Aperture Table*
*
%ADD010C,0.12*%
%ADD012C,0.0254*%
%ADD013C,0.2*%
%ADD014C,0.25*%
*
*
*
*
G04 PC Circuitry*
G04 Layer Name XPCB-019.pcb - circuitry*
%LPD*%
*
*
G04 PC Custom Flashes*
G04 Layer Name XPCB-019.pcb - flashes*
%LPD*%
*
*
G04 PC Circuitry*
G04 Layer Name XPCB-019.pcb - circuitry*
%LPD*%
*
G54D10*
G01X10920364Y9601875D02*
Y9523125D01*
Y9601875D02*
X10944909D01*
X10953091Y9598125*
X10955818Y9594375*
X10958545Y9586875*
X10958545D02*
Y9579375D01*
X10958545D02*
X10955818Y9571875D01*
X10953091Y9568125*
X10944909Y9564375*
X10920364*
X10939455D02*
X10958545Y9523125D01*
X10983091Y9586875D02*
X10988545Y9590625D01*
X10988545D02*
X10996727Y9601875D01*
Y9523125*
X10649909Y9873125D02*
X10647182Y9880625D01*
X10641727Y9888125*
X10636273Y9891875*
X10625364*
X10625364D02*
X10619909Y9888125D01*
X10614454Y9880625*
X10611727Y9873125*
X10609000Y9861875*
Y9843125*
X10611727Y9831875*
X10614454Y9824375*
X10619909Y9816875*
X10625364Y9813125*
X10625364D02*
X10636273D01*
X10641727Y9816875*
X10647182Y9824375*
X10649909Y9831875*
X10674454Y9876875D02*
X10679909Y9880625D01*
X10688091Y9891875*
Y9813125*
X10427636Y9263125D02*
X10424909Y9270625D01*
X10419455Y9278125*
X10419455D02*
X10414000Y9281875D01*
X10403091*
X10397636Y9278125*
X10392182Y9270625*
X10389455Y9263125*
X10389455D02*
X10386727Y9251875D01*
Y9233125*
X10389455Y9221875*
X10389455D02*
X10392182Y9214375D01*
X10397636Y9206875*
X10403091Y9203125*
X10414000*
X10419455Y9206875*
X10419455D02*
X10424909Y9214375D01*
X10427636Y9221875*
X10454909Y9263125D02*
Y9266875D01*
X10457636Y9274375*
X10460364Y9278125*
X10465818Y9281875*
X10476727*
X10482182Y9278125*
X10484909Y9274375*
X10487636Y9266875*
Y9259375*
X10484909Y9251875*
X10479455Y9240625*
X10479455D02*
X10452182Y9203125D01*
X10490364*
X9547636Y10773125D02*
X9544909Y10780625D01*
X9539454Y10788125*
X9539454D02*
X9534000Y10791875D01*
X9523091*
X9517636Y10788125*
X9512182Y10780625*
X9509454Y10773125*
X9509454D02*
X9506727Y10761875D01*
Y10743125*
X9509454Y10731875*
X9509454D02*
X9512182Y10724375D01*
X9517636Y10716875*
X9523091Y10713125*
X9534000*
X9539454Y10716875*
X9539454D02*
X9544909Y10724375D01*
X9547636Y10731875*
X9577636Y10791875D02*
X9607636D01*
X9591273Y10761875*
X9599454*
X9599454D02*
X9604909Y10758125D01*
X9607636Y10754375*
X9610364Y10743125*
X9610364D02*
Y10735625D01*
X9610364D02*
X9607636Y10724375D01*
X9602182Y10716875*
X9594000Y10713125*
X9585818*
X9577636Y10716875*
X9574909Y10720625*
X9572182Y10728125*
X10426273Y10773125D02*
X10423545Y10780625D01*
X10423545D02*
X10418091Y10788125D01*
X10412636Y10791875*
X10401727*
X10396273Y10788125*
X10390818Y10780625*
X10388091Y10773125*
X10385364Y10761875*
Y10743125*
X10388091Y10731875*
X10390818Y10724375*
X10396273Y10716875*
X10401727Y10713125*
X10412636*
X10418091Y10716875*
X10423545Y10724375*
X10423545D02*
X10426273Y10731875D01*
X10478091Y10791875D02*
X10450818Y10739375D01*
X10491727*
X10478091Y10791875D02*
Y10713125D01*
X9546273Y9263125D02*
X9543545Y9270625D01*
X9543545D02*
X9538091Y9278125D01*
X9532636Y9281875*
X9521727*
X9516273Y9278125*
X9510818Y9270625*
X9508091Y9263125*
X9505364Y9251875*
Y9233125*
X9508091Y9221875*
X9510818Y9214375*
X9516273Y9206875*
X9521727Y9203125*
X9532636*
X9538091Y9206875*
X9543545Y9214375*
X9543545D02*
X9546273Y9221875D01*
X9606273Y9281875D02*
X9579000D01*
X9576273Y9248125*
X9579000Y9251875*
X9587182Y9255625*
X9595364*
X9603545Y9251875*
X9603545D02*
X9609000Y9244375D01*
X9611727Y9233125*
X9609000Y9225625*
X9606273Y9214375*
X9600818Y9206875*
X9592636Y9203125*
X9584455*
X9576273Y9206875*
X9573545Y9210625*
X9573545D02*
X9570818Y9218125D01*
X9219000Y9573125D02*
X9216273Y9580625D01*
X9210818Y9588125*
X9205364Y9591875*
X9194455*
X9189000Y9588125*
X9183545Y9580625*
X9183545D02*
X9180818Y9573125D01*
X9178091Y9561875*
Y9543125*
X9180818Y9531875*
X9183545Y9524375*
X9183545D02*
X9189000Y9516875D01*
X9194455Y9513125*
X9205364*
X9210818Y9516875*
X9216273Y9524375*
X9219000Y9531875*
X9276273Y9580625D02*
X9273545Y9588125D01*
X9273545D02*
X9265364Y9591875D01*
X9259909*
X9251727Y9588125*
X9246273Y9576875*
X9243545Y9558125*
X9243545D02*
Y9539375D01*
X9243545D02*
X9246273Y9524375D01*
X9251727Y9516875*
X9259909Y9513125*
X9262636*
X9270818Y9516875*
X9276273Y9524375*
X9279000Y9535625*
Y9539375*
X9276273Y9550625*
X9270818Y9558125*
X9262636Y9561875*
X9259909*
X9251727Y9558125*
X9246273Y9550625*
X9243545Y9539375*
X9217636Y10453125D02*
X9214909Y10460625D01*
X9209455Y10468125*
X9209455D02*
X9204000Y10471875D01*
X9193091*
X9187636Y10468125*
X9182182Y10460625*
X9179455Y10453125*
X9179455D02*
X9176727Y10441875D01*
Y10423125*
X9179455Y10411875*
X9179455D02*
X9182182Y10404375D01*
X9187636Y10396875*
X9193091Y10393125*
X9204000*
X9209455Y10396875*
X9209455D02*
X9214909Y10404375D01*
X9217636Y10411875*
X9280364Y10471875D02*
X9253091Y10393125D01*
X9242182Y10471875D02*
X9280364D01*
X10757636Y10463125D02*
X10754909Y10470625D01*
X10749455Y10478125*
X10749455D02*
X10744000Y10481875D01*
X10733091*
X10727636Y10478125*
X10722182Y10470625*
X10719455Y10463125*
X10719455D02*
X10716727Y10451875D01*
Y10433125*
X10719455Y10421875*
X10719455D02*
X10722182Y10414375D01*
X10727636Y10406875*
X10733091Y10403125*
X10744000*
X10749455Y10406875*
X10749455D02*
X10754909Y10414375D01*
X10757636Y10421875*
X10795818Y10481875D02*
X10787636Y10478125D01*
X10784909Y10470625*
Y10463125*
X10787636Y10455625*
X10793091Y10451875*
X10804000Y10448125*
X10812182Y10444375*
X10817636Y10436875*
X10820364Y10429375*
Y10418125*
X10817636Y10410625*
X10814909Y10406875*
X10806727Y10403125*
X10795818*
X10787636Y10406875*
X10784909Y10410625*
X10782182Y10418125*
Y10429375*
X10784909Y10436875*
X10790364Y10444375*
X10798545Y10448125*
X10798545D02*
X10809455Y10451875D01*
X10809455D02*
X10814909Y10455625D01*
X10817636Y10463125*
Y10470625*
X10814909Y10478125*
X10806727Y10481875*
X10795818*
X10639000Y9383125D02*
X10636273Y9390625D01*
X10630818Y9398125*
X10625364Y9401875*
X10614455*
X10609000Y9398125*
X10603545Y9390625*
X10603545D02*
X10600818Y9383125D01*
X10598091Y9371875*
Y9353125*
X10600818Y9341875*
X10603545Y9334375*
X10603545D02*
X10609000Y9326875D01*
X10614455Y9323125*
X10625364*
X10630818Y9326875*
X10636273Y9334375*
X10639000Y9341875*
X10699000Y9375625D02*
X10696273Y9364375D01*
X10690818Y9356875*
X10682636Y9353125*
X10679909*
X10671727Y9356875*
X10666273Y9364375*
X10663545Y9375625*
X10663545D02*
Y9379375D01*
X10663545D02*
X10666273Y9390625D01*
X10671727Y9398125*
X10679909Y9401875*
X10682636*
X10690818Y9398125*
X10696273Y9390625*
X10699000Y9375625*
Y9356875*
X10696273Y9338125*
X10690818Y9326875*
X10682636Y9323125*
X10677182*
X10669000Y9326875*
X10666273Y9334375*
X9950364Y9381875D02*
Y9325625D01*
X9953091Y9314375*
X9958545Y9306875*
X9958545D02*
X9966727Y9303125D01*
X9972182*
X9980364Y9306875*
X9985818Y9314375*
X9988545Y9325625*
X9988545D02*
Y9381875D01*
X10013091Y9366875D02*
X10018545Y9370625D01*
X10018545D02*
X10026727Y9381875D01*
Y9303125*
G54D12*
G54D13*
X10780000Y9565000D02*
X10880000D01*
X9460000Y10540000D02*
X10540000D01*
Y9460000*
X9460000*
Y10540000*
G54D14*
X9422500Y10475000D02*
G75*
G03X9422500I-12500J0D01*
G74*
G01X0Y0D02*
M02*
