*
*
G04 PADS Layout (Build Number 2008.43.1) generated Gerber (RS-274-X) file*
G04 PC Version=2.1*
*
%IN "XPCB-019.pcb"*%
*
%MOMM*%
*
%FSLAX35Y35*%
*
*
*
*
G04 PC Standard Apertures*
*
*
G04 Thermal Relief Aperture macro.*
%AMTER*
1,1,$1,0,0*
1,0,$1-$2,0,0*
21,0,$3,$4,0,0,45*
21,0,$3,$4,0,0,135*
%
*
*
G04 Annular Aperture macro.*
%AMANN*
1,1,$1,0,0*
1,0,$2,0,0*
%
*
*
G04 Odd Aperture macro.*
%AMODD*
1,1,$1,0,0*
1,0,$1-0.005,0,0*
%
*
*
G04 PC Custom Aperture Macros*
*
*
*
*
*
*
G04 PC Aperture Table*
*
%ADD012C,0.0254*%
%ADD021R,0.65X0.65*%
%ADD022R,0.9X0.9*%
%ADD028R,0.3X0.3*%
%ADD030R,2.8X2.8*%
*
*
*
*
G04 PC Circuitry*
G04 Layer Name XPCB-019.pcb - circuitry*
%LPD*%
*
*
G04 PC Custom Flashes*
G04 Layer Name XPCB-019.pcb - flashes*
%LPD*%
*
*
G04 PC Circuitry*
G04 Layer Name XPCB-019.pcb - circuitry*
%LPD*%
*
G54D12*
G54D21*
G01X10650000Y9745000D03*
Y9655000D03*
X10395000Y9350000D03*
X10485000D03*
X9605000Y10650000D03*
X9515000D03*
X10395000D03*
X10485000D03*
X9605000Y9350000D03*
X9515000D03*
X9350000Y9605000D03*
Y9515000D03*
Y10395000D03*
Y10485000D03*
X10650000Y10395000D03*
Y10485000D03*
Y9555000D03*
Y9465000D03*
G54D22*
X10825000Y9645000D02*
X10835000D01*
X10825000Y9485000D02*
X10835000D01*
G54D28*
X9525000Y10475000D03*
Y10375000D03*
Y10325000D03*
Y10275000D03*
Y10225000D03*
Y10175000D03*
Y10125000D03*
Y10075000D03*
Y10025000D03*
Y9975000D03*
Y9925000D03*
Y9875000D03*
Y9825000D03*
Y9775000D03*
Y9725000D03*
Y9675000D03*
Y9625000D03*
Y9525000D03*
X9625000D03*
X9675000D03*
X9725000D03*
X9775000D03*
X9825000D03*
X9875000D03*
X9925000D03*
X9975000D03*
X10025000D03*
X10075000D03*
X10125000D03*
X10175000D03*
X10225000D03*
X10275000D03*
X10325000D03*
X10375000D03*
X10475000D03*
Y9625000D03*
Y9675000D03*
Y9725000D03*
Y9775000D03*
Y9825000D03*
Y9875000D03*
Y9925000D03*
Y9975000D03*
Y10025000D03*
Y10075000D03*
Y10125000D03*
Y10175000D03*
Y10225000D03*
Y10275000D03*
Y10325000D03*
Y10375000D03*
Y10475000D03*
X10375000D03*
X10325000D03*
X10275000D03*
X10225000D03*
X10175000D03*
X10125000D03*
X10075000D03*
X10025000D03*
X9975000D03*
X9925000D03*
X9875000D03*
X9825000D03*
X9775000D03*
X9725000D03*
X9675000D03*
X9625000D03*
X9600000Y10325000D03*
Y10275000D03*
Y10225000D03*
Y10175000D03*
Y10125000D03*
Y10075000D03*
Y10025000D03*
Y9975000D03*
Y9925000D03*
Y9875000D03*
Y9825000D03*
Y9775000D03*
Y9725000D03*
Y9675000D03*
X9675000Y9600000D03*
X9725000D03*
X9775000D03*
X9825000D03*
X9875000D03*
X9925000D03*
X9975000D03*
X10025000D03*
X10075000D03*
X10125000D03*
X10175000D03*
X10225000D03*
X10275000D03*
X10325000D03*
X10400000Y9675000D03*
Y9725000D03*
Y9775000D03*
Y9825000D03*
Y9875000D03*
Y9925000D03*
Y9975000D03*
Y10025000D03*
Y10075000D03*
Y10125000D03*
Y10175000D03*
Y10225000D03*
Y10275000D03*
Y10325000D03*
X10325000Y10400000D03*
X10275000D03*
X10225000D03*
X10175000D03*
X10125000D03*
X10075000D03*
X10025000D03*
X9975000D03*
X9925000D03*
X9875000D03*
X9825000D03*
X9775000D03*
X9725000D03*
X9675000D03*
G54D30*
X10000000Y10000000D03*
X0Y0D02*
M02*
