*
*
G04 PADS Layout (Build Number 2008.43.1) generated Gerber (RS-274-X) file*
G04 PC Version=2.1*
*
%IN "XPCB-010.pcb"*%
*
%MOMM*%
*
%FSLAX35Y35*%
*
*
*
*
G04 PC Standard Apertures*
*
*
G04 Thermal Relief Aperture macro.*
%AMTER*
1,1,$1,0,0*
1,0,$1-$2,0,0*
21,0,$3,$4,0,0,45*
21,0,$3,$4,0,0,135*
%
*
*
G04 Annular Aperture macro.*
%AMANN*
1,1,$1,0,0*
1,0,$2,0,0*
%
*
*
G04 Odd Aperture macro.*
%AMODD*
1,1,$1,0,0*
1,0,$1-0.005,0,0*
%
*
*
G04 PC Custom Aperture Macros*
*
*
*
*
*
*
G04 PC Aperture Table*
*
%ADD012C,0.0254*%
%ADD015C,0.15*%
%ADD017C,0.3*%
%ADD018R,1.8X1.8*%
%ADD019C,1.8*%
%ADD020R,0.6X0.6*%
%ADD022R,0.9X0.9*%
%ADD028R,1.6X1.6*%
%ADD029R,1X1*%
%ADD031C,1.4*%
%ADD032R,2.2X2.2*%
%ADD033R,2.8X2.8*%
%ADD034C,1.3*%
%ADD035R,0.7X0.7*%
%ADD036R,0.4X0.4*%
%ADD037R,0.45X0.45*%
%ADD038R,2.55X2.55*%
%ADD039C,1.6*%
%ADD040C,3.8*%
%ADD041C,6*%
%ADD042C,3*%
%ADD044R,0.2X0.2*%
%ADD045R,4.8X4.8*%
*
*
*
*
G04 PC Circuitry*
G04 Layer Name XPCB-010.pcb - circuitry*
%LPD*%
*
*
G04 PC Custom Flashes*
G04 Layer Name XPCB-010.pcb - flashes*
%LPD*%
*
*
G04 PC Circuitry*
G04 Layer Name XPCB-010.pcb - circuitry*
%LPD*%
*
G54D12*
G54D15*
G01X13971136Y8011563D02*
X13962045Y8023125D01*
X13962045D02*
X13948409Y8028906D01*
X13930227*
X13916591Y8023125*
X13907500Y8011563*
X13907500D02*
Y8000000D01*
X13912045Y7988438*
X13912045D02*
X13916591Y7982656D01*
X13925682Y7976875*
X13952955Y7965313*
X13952955D02*
X13962045Y7959531D01*
X13962045D02*
X13966591Y7953750D01*
X13971136Y7942188*
X13971136D02*
Y7924844D01*
X13962045Y7913281*
X13962045D02*
X13948409Y7907500D01*
X13930227*
X13916591Y7913281*
X13907500Y7924844*
X14039318Y8028906D02*
X14030227Y8023125D01*
X14021136Y8011563*
X14021136D02*
X14016591Y8000000D01*
X14012045Y7982656*
X14012045D02*
Y7953750D01*
X14012045D02*
X14016591Y7936406D01*
X14021136Y7924844*
X14030227Y7913281*
X14039318Y7907500*
X14057500*
X14066591Y7913281*
X14075682Y7924844*
X14080227Y7936406*
X14084773Y7953750*
Y7982656*
X14080227Y8000000*
X14075682Y8011563*
X14075682D02*
X14066591Y8023125D01*
X14057500Y8028906*
X14039318*
X14125682D02*
Y7907500D01*
X14180227*
X14221136Y8028906D02*
Y7907500D01*
Y8028906D02*
X14252955D01*
X14252955D02*
X14266591Y8023125D01*
X14275682Y8011563*
X14275682D02*
X14280227Y8000000D01*
X14284773Y7982656*
Y7953750*
X14280227Y7936406*
X14275682Y7924844*
X14266591Y7913281*
X14252955Y7907500*
X14252955D02*
X14221136D01*
X14325682Y8028906D02*
Y7907500D01*
Y8028906D02*
X14384773D01*
X14325682Y7971094D02*
X14362045D01*
X14325682Y7907500D02*
X14384773D01*
X14425682Y8028906D02*
Y7907500D01*
Y8028906D02*
X14466591D01*
X14480227Y8023125*
X14484773Y8017344*
X14489318Y8005781*
Y7994219*
X14484773Y7982656*
X14480227Y7976875*
X14466591Y7971094*
X14425682*
X14457500D02*
X14489318Y7907500D01*
X14634773Y8028906D02*
Y7907500D01*
Y8028906D02*
X14671136Y7907500D01*
X14707500Y8028906D02*
X14671136Y7907500D01*
X14707500Y8028906D02*
Y7907500D01*
X14784773Y8028906D02*
X14748409Y7907500D01*
X14784773Y8028906D02*
X14821136Y7907500D01*
X14762045Y7947969D02*
X14807500D01*
X14925682Y8011563D02*
X14916591Y8023125D01*
X14902955Y8028906*
X14902955D02*
X14884773D01*
X14871136Y8023125*
X14862045Y8011563*
X14862045D02*
Y8000000D01*
X14862045D02*
X14866591Y7988438D01*
X14866591D02*
X14871136Y7982656D01*
X14880227Y7976875*
X14907500Y7965313*
X14907500D02*
X14916591Y7959531D01*
X14921136Y7953750*
X14925682Y7942188*
X14925682D02*
Y7924844D01*
X14916591Y7913281*
X14902955Y7907500*
X14902955D02*
X14884773D01*
X14871136Y7913281*
X14862045Y7924844*
X14966591Y8028906D02*
Y7907500D01*
X15030227Y8028906D02*
X14966591Y7947969D01*
X14989318Y7976875D02*
X15030227Y7907500D01*
X15207500Y8028906D02*
Y7907500D01*
X15175682Y8028906D02*
X15239318D01*
X15307500D02*
X15298409Y8023125D01*
X15289318Y8011563*
X15289318D02*
X15284773Y8000000D01*
X15280227Y7982656*
Y7953750*
X15284773Y7936406*
X15289318Y7924844*
X15298409Y7913281*
X15307500Y7907500*
X15325682*
X15334773Y7913281*
X15343864Y7924844*
X15348409Y7936406*
X15352955Y7953750*
X15352955D02*
Y7982656D01*
X15352955D02*
X15348409Y8000000D01*
X15343864Y8011563*
X15343864D02*
X15334773Y8023125D01*
X15325682Y8028906*
X15307500*
X15393864D02*
Y7907500D01*
Y8028906D02*
X15434773D01*
X15448409Y8023125*
X15452955Y8017344*
X15452955D02*
X15457500Y8005781D01*
Y7988438*
X15457500D02*
X15452955Y7976875D01*
X15452955D02*
X15448409Y7971094D01*
X15434773Y7965313*
X15434773D02*
X15393864D01*
X13007500Y8028906D02*
Y7907500D01*
X13062045*
X13139318Y8028906D02*
X13102955Y7907500D01*
X13139318Y8028906D02*
X13175682Y7907500D01*
X13116591Y7947969D02*
X13162045D01*
X13216591Y8028906D02*
X13252955Y7971094D01*
X13252955D02*
Y7907500D01*
X13289318Y8028906D02*
X13252955Y7971094D01*
X13330227Y8028906D02*
Y7907500D01*
Y8028906D02*
X13389318D01*
X13330227Y7971094D02*
X13366591D01*
X13330227Y7907500D02*
X13389318D01*
X13430227Y8028906D02*
Y7907500D01*
Y8028906D02*
X13471136D01*
X13484773Y8023125*
X13489318Y8017344*
X13493864Y8005781*
Y7994219*
X13489318Y7982656*
X13484773Y7976875*
X13471136Y7971094*
X13430227*
X13462045D02*
X13493864Y7907500D01*
X13639318Y7959531D02*
X13721136D01*
X13007500Y8228906D02*
X13071136Y8107500D01*
Y8228906D02*
X13007500Y8107500D01*
X13112045Y8228906D02*
Y8107500D01*
Y8228906D02*
X13148409Y8107500D01*
X13184773Y8228906D02*
X13148409Y8107500D01*
X13184773Y8228906D02*
Y8107500D01*
X13252955Y8228906D02*
X13243864Y8223125D01*
X13234773Y8211563*
X13234773D02*
X13230227Y8200000D01*
X13225682Y8182656*
Y8153750*
X13230227Y8136406*
X13234773Y8124844*
X13243864Y8113281*
X13252955Y8107500*
X13252955D02*
X13271136D01*
X13280227Y8113281*
X13289318Y8124844*
X13293864Y8136406*
X13298409Y8153750*
Y8182656*
X13293864Y8200000*
X13289318Y8211563*
X13289318D02*
X13280227Y8223125D01*
X13271136Y8228906*
X13252955*
X13402955Y8211563D02*
X13393864Y8223125D01*
X13380227Y8228906*
X13362045*
X13362045D02*
X13348409Y8223125D01*
X13339318Y8211563*
X13339318D02*
Y8200000D01*
X13343864Y8188438*
X13343864D02*
X13348409Y8182656D01*
X13357500Y8176875*
X13384773Y8165313*
X13384773D02*
X13393864Y8159531D01*
X13398409Y8153750*
X13402955Y8142188*
X13402955D02*
Y8124844D01*
X13402955D02*
X13393864Y8113281D01*
X13380227Y8107500*
X13362045*
X13362045D02*
X13348409Y8113281D01*
X13339318Y8124844*
X13548409Y8228906D02*
X13612045Y8107500D01*
Y8228906D02*
X13548409Y8107500D01*
X13652955Y8228906D02*
Y8107500D01*
Y8228906D02*
X13693864D01*
X13707500Y8223125*
X13712045Y8217344*
X13712045D02*
X13716591Y8205781D01*
Y8188438*
X13716591D02*
X13712045Y8176875D01*
X13712045D02*
X13707500Y8171094D01*
X13693864Y8165313*
X13693864D02*
X13652955D01*
X13825682Y8200000D02*
X13821136Y8211563D01*
X13821136D02*
X13812045Y8223125D01*
X13812045D02*
X13802955Y8228906D01*
X13802955D02*
X13784773D01*
X13775682Y8223125*
X13766591Y8211563*
X13766591D02*
X13762045Y8200000D01*
X13762045D02*
X13757500Y8182656D01*
Y8153750*
X13762045Y8136406*
X13762045D02*
X13766591Y8124844D01*
X13775682Y8113281*
X13784773Y8107500*
X13802955*
X13802955D02*
X13812045Y8113281D01*
X13812045D02*
X13821136Y8124844D01*
X13825682Y8136406*
X13866591Y8228906D02*
Y8107500D01*
Y8228906D02*
X13907500D01*
X13921136Y8223125*
X13925682Y8217344*
X13930227Y8205781*
Y8194219*
X13925682Y8182656*
X13921136Y8176875*
X13907500Y8171094*
X13866591D02*
X13907500D01*
X13921136Y8165313*
X13921136D02*
X13925682Y8159531D01*
X13930227Y8147969*
Y8130625*
X13925682Y8119063*
X13925682D02*
X13921136Y8113281D01*
X13907500Y8107500*
X13866591*
X13971136Y8159531D02*
X14052955D01*
X14121136Y8228906D02*
X14107500Y8223125D01*
X14098409Y8205781*
X14093864Y8176875*
Y8159531*
X14098409Y8130625*
X14107500Y8113281*
X14121136Y8107500*
X14130227*
X14143864Y8113281*
X14152955Y8130625*
X14152955D02*
X14157500Y8159531D01*
Y8176875*
X14152955Y8205781*
X14152955D02*
X14143864Y8223125D01*
X14130227Y8228906*
X14121136*
X14198409Y8205781D02*
X14207500Y8211563D01*
X14207500D02*
X14221136Y8228906D01*
Y8107500*
X14289318Y8228906D02*
X14275682Y8223125D01*
X14266591Y8205781*
X14262045Y8176875*
X14262045D02*
Y8159531D01*
X14262045D02*
X14266591Y8130625D01*
X14275682Y8113281*
X14289318Y8107500*
X14298409*
X14312045Y8113281*
X14312045D02*
X14321136Y8130625D01*
X14325682Y8159531*
Y8176875*
X14321136Y8205781*
X14312045Y8223125*
X14312045D02*
X14298409Y8228906D01*
X14289318*
X14471136Y8205781D02*
X14480227Y8211563D01*
X14480227D02*
X14493864Y8228906D01*
Y8107500*
X14598409Y8228906D02*
X14552955Y8107500D01*
X14534773Y8228906D02*
X14598409D01*
X14721136Y8252031D02*
X14639318Y8067031D01*
X14789318Y8228906D02*
X14775682Y8223125D01*
X14766591Y8205781*
X14762045Y8176875*
X14762045D02*
Y8159531D01*
X14762045D02*
X14766591Y8130625D01*
X14775682Y8113281*
X14789318Y8107500*
X14798409*
X14812045Y8113281*
X14812045D02*
X14821136Y8130625D01*
X14825682Y8159531*
Y8176875*
X14821136Y8205781*
X14812045Y8223125*
X14812045D02*
X14798409Y8228906D01*
X14789318*
X14875682D02*
X14925682D01*
X14898409Y8182656*
X14912045*
X14912045D02*
X14921136Y8176875D01*
X14925682Y8171094*
X14930227Y8153750*
Y8142188*
X14930227D02*
X14925682Y8124844D01*
X14916591Y8113281*
X14902955Y8107500*
X14902955D02*
X14889318D01*
X14875682Y8113281*
X14871136Y8119063*
X14871136D02*
X14866591Y8130625D01*
X15052955Y8252031D02*
X14971136Y8067031D01*
X15121136Y8228906D02*
X15107500Y8223125D01*
X15098409Y8205781*
X15093864Y8176875*
Y8159531*
X15098409Y8130625*
X15107500Y8113281*
X15121136Y8107500*
X15130227*
X15143864Y8113281*
X15152955Y8130625*
X15152955D02*
X15157500Y8159531D01*
Y8176875*
X15152955Y8205781*
X15152955D02*
X15143864Y8223125D01*
X15130227Y8228906*
X15121136*
X15257500Y8188438D02*
X15252955Y8171094D01*
X15252955D02*
X15243864Y8159531D01*
X15230227Y8153750*
X15225682*
X15212045Y8159531*
X15212045D02*
X15202955Y8171094D01*
X15202955D02*
X15198409Y8188438D01*
X15198409D02*
Y8194219D01*
X15202955Y8211563*
X15202955D02*
X15212045Y8223125D01*
X15212045D02*
X15225682Y8228906D01*
X15230227*
X15243864Y8223125*
X15252955Y8211563*
X15252955D02*
X15257500Y8188438D01*
X15257500D02*
Y8159531D01*
X15252955Y8130625*
X15252955D02*
X15243864Y8113281D01*
X15230227Y8107500*
X15221136*
X15207500Y8113281*
X15202955Y8124844*
G54D17*
X14770000Y12225000D02*
X14830000D01*
X14770000Y12175000D02*
X14830000D01*
X14770000Y12125000D02*
X14830000D01*
X14770000Y12075000D02*
X14830000D01*
X14770000Y12025000D02*
X14830000D01*
X14770000Y11975000D02*
X14830000D01*
X14875000Y11870000D02*
Y11930000D01*
X14925000Y11870000D02*
Y11930000D01*
X14975000Y11870000D02*
Y11930000D01*
X15025000Y11870000D02*
Y11930000D01*
X15075000Y11870000D02*
Y11930000D01*
X15125000Y11870000D02*
Y11930000D01*
X15170000Y11975000D02*
X15230000D01*
X15170000Y12025000D02*
X15230000D01*
X15170000Y12075000D02*
X15230000D01*
X15170000Y12125000D02*
X15230000D01*
X15170000Y12175000D02*
X15230000D01*
X15170000Y12225000D02*
X15230000D01*
X15125000Y12270000D02*
Y12330000D01*
X15075000Y12270000D02*
Y12330000D01*
X15025000Y12270000D02*
Y12330000D01*
X14975000Y12270000D02*
Y12330000D01*
X14925000Y12270000D02*
Y12330000D01*
X14875000Y12270000D02*
Y12330000D01*
G54D18*
X16157000Y13773000D03*
G54D19*
X21062500Y12846000D03*
Y13354000D03*
X16157000Y14027000D03*
X16411000Y13773000D03*
Y14027000D03*
X16665000Y13773000D03*
Y14027000D03*
X16919000Y13773000D03*
Y14027000D03*
X17173000Y13773000D03*
Y14027000D03*
X17427000Y13773000D03*
Y14027000D03*
X17681000Y13773000D03*
Y14027000D03*
X17935000Y13773000D03*
Y14027000D03*
X18189000Y13773000D03*
Y14027000D03*
X18443000Y13773000D03*
Y14027000D03*
X17208500Y9461500D03*
X20350000Y12800000D03*
X17208500Y10477500D03*
Y9715500D03*
Y10223500D03*
Y9969500D03*
X16954500Y9207500D03*
X17208500D03*
X19177000Y11303000D03*
X17208500Y10731500D03*
X19177000Y11557000D03*
Y11811000D03*
Y12065000D03*
Y12319000D03*
X16256000Y11239500D03*
X15367000Y14160500D03*
Y13906500D03*
X18669000Y10858500D03*
G54D20*
X14995000Y13007500D02*
Y12962500D01*
X14900000Y13007500D02*
Y12962500D01*
X14805000Y13007500D02*
Y12962500D01*
Y12737500D02*
Y12692500D01*
X14995000Y12737500D02*
Y12692500D01*
X17642500Y10345000D02*
X17687500D01*
X17642500Y10250000D02*
X17687500D01*
X17642500Y10155000D02*
X17687500D01*
X17912500D02*
X17957500D01*
X17912500Y10250000D02*
X17957500D01*
X17912500Y10345000D02*
X17957500D01*
X13455000Y13142500D02*
Y13187500D01*
X13550000Y13142500D02*
Y13187500D01*
X13645000Y13142500D02*
Y13187500D01*
Y13412500D02*
Y13457500D01*
X13455000Y13412500D02*
Y13457500D01*
X13549500Y9732500D02*
Y9827500D01*
X13676500Y9732500D02*
Y9827500D01*
X13803500Y9732500D02*
Y9827500D01*
X13930500Y9732500D02*
Y9827500D01*
Y10272500D02*
Y10367500D01*
X13803500Y10272500D02*
Y10367500D01*
X13676500Y10272500D02*
Y10367500D01*
X13549500Y10272500D02*
Y10367500D01*
X18952500Y13345000D02*
X18997500D01*
X18952500Y13250000D02*
X18997500D01*
X18952500Y13155000D02*
X18997500D01*
X19222500D02*
X19267500D01*
X19222500Y13345000D02*
X19267500D01*
X14580000Y11260000D02*
X14625000D01*
X14580000Y11165000D02*
X14625000D01*
X14580000Y11070000D02*
X14625000D01*
X14850000D02*
X14895000D01*
X14850000Y11260000D02*
X14895000D01*
X15342500Y13195000D02*
X15387500D01*
X15342500Y13100000D02*
X15387500D01*
X15342500Y13005000D02*
X15387500D01*
X15612500D02*
X15657500D01*
X15612500Y13195000D02*
X15657500D01*
G54D22*
X15530000Y9705000D02*
Y9695000D01*
X15370000Y9705000D02*
Y9695000D01*
X17630000Y9305000D02*
Y9295000D01*
X17470000Y9305000D02*
Y9295000D01*
X13345000Y9820000D02*
X13335000D01*
X13345000Y9980000D02*
X13335000D01*
X15410000Y12785000D02*
Y12775000D01*
X15250000Y12785000D02*
Y12775000D01*
X13970000Y9565000D02*
Y9555000D01*
X13810000Y9565000D02*
Y9555000D01*
X14770000Y10045000D02*
Y10055000D01*
X14930000Y10045000D02*
Y10055000D01*
X14770000Y9845000D02*
Y9855000D01*
X14930000Y9845000D02*
Y9855000D01*
X16470000Y9395000D02*
Y9405000D01*
X16630000Y9395000D02*
Y9405000D01*
X16470000Y9695000D02*
Y9705000D01*
X16630000Y9695000D02*
Y9705000D01*
X16455000Y10320000D02*
X16445000D01*
X16455000Y10480000D02*
X16445000D01*
X13780000Y12605000D02*
Y12595000D01*
X13620000Y12605000D02*
Y12595000D01*
X18280000Y10305000D02*
Y10295000D01*
X18120000Y10305000D02*
Y10295000D01*
X20830000Y9605000D02*
Y9595000D01*
X20670000Y9605000D02*
Y9595000D01*
X20830000Y9805000D02*
Y9795000D01*
X20670000Y9805000D02*
Y9795000D01*
X13845000Y13680000D02*
X13855000D01*
X13845000Y13520000D02*
X13855000D01*
X15530000Y10205000D02*
Y10195000D01*
X15370000Y10205000D02*
Y10195000D01*
X14420000Y12395000D02*
Y12405000D01*
X14580000Y12395000D02*
Y12405000D01*
X13855000Y13220000D02*
X13845000D01*
X13855000Y13380000D02*
X13845000D01*
X15070000Y10195000D02*
Y10205000D01*
X15230000Y10195000D02*
Y10205000D01*
X15070000Y9695000D02*
Y9705000D01*
X15230000Y9695000D02*
Y9705000D01*
X18280000Y10755000D02*
Y10745000D01*
X18120000Y10755000D02*
Y10745000D01*
X20320000Y9795000D02*
Y9805000D01*
X20480000Y9795000D02*
Y9805000D01*
X20320000Y9595000D02*
Y9605000D01*
X20480000Y9595000D02*
Y9605000D01*
X17470000Y9545000D02*
Y9555000D01*
X17630000Y9545000D02*
Y9555000D01*
X20770000Y12195000D02*
Y12205000D01*
X20930000Y12195000D02*
Y12205000D01*
X16280000Y10575000D02*
Y10565000D01*
X16120000Y10575000D02*
Y10565000D01*
X15395000Y12200000D02*
X15385000D01*
X15395000Y12360000D02*
X15385000D01*
X14980000Y13155000D02*
Y13145000D01*
X14820000Y13155000D02*
Y13145000D01*
X18770000Y9685000D02*
Y9695000D01*
X18930000Y9685000D02*
Y9695000D01*
X16300000Y12585000D02*
Y12575000D01*
X16140000Y12585000D02*
Y12575000D01*
X20405000Y13120000D02*
X20395000D01*
X20405000Y13280000D02*
X20395000D01*
X18770000Y9515000D02*
Y9525000D01*
X18930000Y9515000D02*
Y9525000D01*
X18770000Y9855000D02*
Y9865000D01*
X18930000Y9855000D02*
Y9865000D01*
X18120000Y10145000D02*
Y10155000D01*
X18280000Y10145000D02*
Y10155000D01*
X13345000Y10170000D02*
X13335000D01*
X13345000Y10330000D02*
X13335000D01*
X16610000Y11405000D02*
Y11395000D01*
X16450000Y11405000D02*
Y11395000D01*
X16300000Y12785000D02*
Y12775000D01*
X16140000Y12785000D02*
Y12775000D01*
X15670000Y10195000D02*
Y10205000D01*
X15830000Y10195000D02*
Y10205000D01*
X14930000Y9705000D02*
Y9695000D01*
X14770000Y9705000D02*
Y9695000D01*
X15670000D02*
Y9705000D01*
X15830000Y9695000D02*
Y9705000D01*
X13855000Y13820000D02*
X13845000D01*
X13855000Y13980000D02*
X13845000D01*
Y13080000D02*
X13855000D01*
X13845000Y12920000D02*
X13855000D01*
X14930000Y10205000D02*
Y10195000D01*
X14770000Y10205000D02*
Y10195000D01*
X14980000Y12555000D02*
Y12545000D01*
X14820000Y12555000D02*
Y12545000D01*
X18120000Y10445000D02*
Y10455000D01*
X18280000Y10445000D02*
Y10455000D01*
X15580000Y13375000D02*
Y13365000D01*
X15420000Y13375000D02*
Y13365000D01*
X15670000Y10025000D02*
Y10035000D01*
X15830000Y10025000D02*
Y10035000D01*
X13620000Y10795000D02*
Y10805000D01*
X13780000Y10795000D02*
Y10805000D01*
X19410000Y13245000D02*
Y13255000D01*
X19570000Y13245000D02*
Y13255000D01*
X18770000Y9175000D02*
Y9185000D01*
X18930000Y9175000D02*
Y9185000D01*
X18770000Y9345000D02*
Y9355000D01*
X18930000Y9345000D02*
Y9355000D01*
X18120000Y10595000D02*
Y10605000D01*
X18280000Y10595000D02*
Y10605000D01*
X18460000Y12085000D02*
Y12075000D01*
X18300000Y12085000D02*
Y12075000D01*
X14420000Y12245000D02*
Y12255000D01*
X14580000Y12245000D02*
Y12255000D01*
X20670000Y10995000D02*
Y11005000D01*
X20830000Y10995000D02*
Y11005000D01*
X20670000Y11195000D02*
Y11205000D01*
X20830000Y11195000D02*
Y11205000D01*
X14780000Y11455000D02*
Y11445000D01*
X14620000Y11455000D02*
Y11445000D01*
X20320000Y11195000D02*
Y11205000D01*
X20480000Y11195000D02*
Y11205000D01*
X20320000Y10995000D02*
Y11005000D01*
X20480000Y10995000D02*
Y11005000D01*
X18300000Y12375000D02*
Y12385000D01*
X18460000Y12375000D02*
Y12385000D01*
X14750000Y14145000D02*
Y14155000D01*
X14910000Y14145000D02*
Y14155000D01*
X14750000Y13725000D02*
Y13735000D01*
X14910000Y13725000D02*
Y13735000D01*
X15712500Y11205000D02*
X15722500D01*
X15712500Y11045000D02*
X15722500D01*
X20020000Y13245000D02*
Y13255000D01*
X20180000Y13245000D02*
Y13255000D01*
X20295000Y13830000D02*
X20305000D01*
X20295000Y13670000D02*
X20305000D01*
X18460000Y12535000D02*
Y12525000D01*
X18300000Y12535000D02*
Y12525000D01*
X17720000Y10745000D02*
Y10755000D01*
X17880000Y10745000D02*
Y10755000D01*
X15402500Y11045000D02*
X15392500D01*
X15402500Y11205000D02*
X15392500D01*
X19030000Y13515000D02*
Y13525000D01*
X19190000Y13515000D02*
Y13525000D01*
X21020000Y10995000D02*
Y11005000D01*
X21180000Y10995000D02*
Y11005000D01*
X17095000Y11400000D02*
X17105000D01*
X17095000Y11240000D02*
X17105000D01*
X17395000Y11400000D02*
X17405000D01*
X17395000Y11240000D02*
X17405000D01*
X17590000Y13385000D02*
Y13395000D01*
X17750000Y13385000D02*
Y13395000D01*
X18300000Y12815000D02*
Y12825000D01*
X18460000Y12815000D02*
Y12825000D01*
X17290000Y13385000D02*
Y13395000D01*
X17450000Y13385000D02*
Y13395000D01*
X18300000Y12225000D02*
Y12235000D01*
X18460000Y12225000D02*
Y12235000D01*
X16310000Y11985000D02*
Y11975000D01*
X16150000Y11985000D02*
Y11975000D01*
X17880000Y11405000D02*
Y11395000D01*
X17720000Y11405000D02*
Y11395000D01*
X15195000Y13180000D02*
X15205000D01*
X15195000Y13020000D02*
X15205000D01*
X14580000Y12105000D02*
Y12095000D01*
X14420000Y12105000D02*
Y12095000D01*
X16470000Y9945000D02*
Y9955000D01*
X16630000Y9945000D02*
Y9955000D01*
X16470000Y9545000D02*
Y9555000D01*
X16630000Y9545000D02*
Y9555000D01*
X13470000Y13595000D02*
Y13605000D01*
X13630000Y13595000D02*
Y13605000D01*
X17630000Y9705000D02*
Y9695000D01*
X17470000Y9705000D02*
Y9695000D01*
X17245000Y11400000D02*
X17255000D01*
X17245000Y11240000D02*
X17255000D01*
X15552500Y11205000D02*
X15562500D01*
X15552500Y11045000D02*
X15562500D01*
X14405000Y11420000D02*
X14395000D01*
X14405000Y11580000D02*
X14395000D01*
X14780000Y11605000D02*
Y11595000D01*
X14620000Y11605000D02*
Y11595000D01*
X14750000Y13575000D02*
Y13585000D01*
X14910000Y13575000D02*
Y13585000D01*
X14750000Y13995000D02*
Y14005000D01*
X14910000Y13995000D02*
Y14005000D01*
X15670000Y9865000D02*
Y9875000D01*
X15830000Y9865000D02*
Y9875000D01*
X14820000Y13295000D02*
Y13305000D01*
X14980000Y13295000D02*
Y13305000D01*
G54D28*
X19850000Y10030000D02*
Y10120000D01*
Y10380000D02*
Y10470000D01*
X19300000Y9330000D02*
Y9420000D01*
Y9680000D02*
Y9770000D01*
X18650000Y10180000D02*
Y10270000D01*
Y10530000D02*
Y10620000D01*
X19850000Y9330000D02*
Y9420000D01*
Y9680000D02*
Y9770000D01*
X14200000Y12860000D02*
Y13200000D01*
Y13800000D02*
Y14140000D01*
X19850000Y11430000D02*
Y11520000D01*
Y11780000D02*
Y11870000D01*
Y10730000D02*
Y10820000D01*
Y11080000D02*
Y11170000D01*
X19250000Y10055000D02*
Y10195000D01*
Y10505000D02*
Y10645000D01*
G54D29*
X14380000Y11240000D02*
X14420000D01*
X14380000Y11060000D02*
X14420000D01*
X17890000Y10570000D02*
Y10530000D01*
X17710000Y10570000D02*
Y10530000D01*
X15227500Y11335000D02*
Y11295000D01*
X15047500Y11335000D02*
Y11295000D01*
Y11055000D02*
Y11135000D01*
X15227500Y11055000D02*
Y11135000D01*
X19370000Y13950000D02*
X19550000D01*
X19950000D02*
X20130000D01*
X19370000Y13550000D02*
X19550000D01*
X19950000D02*
X20130000D01*
X19370000Y12950000D02*
X19550000D01*
X19950000D02*
X20130000D01*
X19370000Y12550000D02*
X19550000D01*
X19950000D02*
X20130000D01*
G54D31*
X20800000Y13354000D03*
Y13100000D03*
Y12846000D03*
G54D32*
X21410000Y10640000D02*
Y10700000D01*
X21210000Y9900000D02*
Y9960000D01*
X21410000Y12040000D02*
Y12100000D01*
X21210000Y11300000D02*
Y11360000D01*
G54D33*
X20470000Y10670000D03*
Y12070000D03*
G54D34*
X15056000Y9350000D03*
X15544000D03*
X15056000Y10550000D03*
X15544000D03*
G54D35*
X14310000Y9595000D02*
X14350000D01*
X14310000Y9405000D02*
X14350000D01*
X14550000Y9500000D02*
X14590000D01*
X14310000Y10395000D02*
X14350000D01*
X14310000Y10205000D02*
X14350000D01*
X14550000Y10300000D02*
X14590000D01*
X14310000Y9995000D02*
X14350000D01*
X14310000Y9805000D02*
X14350000D01*
X14550000Y9900000D02*
X14590000D01*
G54D36*
X16075000Y10415000D02*
X16115000D01*
X16075000Y10350000D02*
X16115000D01*
X16075000Y10285000D02*
X16115000D01*
X16285000D02*
X16325000D01*
X16285000Y10350000D02*
X16325000D01*
X16285000Y10415000D02*
X16325000D01*
X16075000Y10015000D02*
X16115000D01*
X16075000Y9950000D02*
X16115000D01*
X16075000Y9885000D02*
X16115000D01*
X16285000D02*
X16325000D01*
X16285000Y9950000D02*
X16325000D01*
X16285000Y10015000D02*
X16325000D01*
X16075000Y9615000D02*
X16115000D01*
X16075000Y9550000D02*
X16115000D01*
X16075000Y9485000D02*
X16115000D01*
X16285000D02*
X16325000D01*
X16285000Y9550000D02*
X16325000D01*
X16285000Y9615000D02*
X16325000D01*
X15175000Y10015000D02*
X15215000D01*
X15175000Y9950000D02*
X15215000D01*
X15175000Y9885000D02*
X15215000D01*
X15385000D02*
X15425000D01*
X15385000Y9950000D02*
X15425000D01*
X15385000Y10015000D02*
X15425000D01*
X19235000Y12855000D02*
X19195000D01*
X19235000Y12920000D02*
X19195000D01*
X19235000Y12985000D02*
X19195000D01*
X19025000D02*
X18985000D01*
X19025000Y12920000D02*
X18985000D01*
X19025000Y12855000D02*
X18985000D01*
G54D37*
X17805000Y9957500D02*
X17905000D01*
X17805000Y9892500D02*
X17905000D01*
X17805000Y9827500D02*
X17905000D01*
X17805000Y9762500D02*
X17905000D01*
X17805000Y9697500D02*
X17905000D01*
X17805000Y9632500D02*
X17905000D01*
X17805000Y9567500D02*
X17905000D01*
X17805000Y9502500D02*
X17905000D01*
X17805000Y9437500D02*
X17905000D01*
X17805000Y9372500D02*
X17905000D01*
X17805000Y9307500D02*
X17905000D01*
X17805000Y9242500D02*
X17905000D01*
X18395000D02*
X18495000D01*
X18395000Y9307500D02*
X18495000D01*
X18395000Y9372500D02*
X18495000D01*
X18395000Y9437500D02*
X18495000D01*
X18395000Y9502500D02*
X18495000D01*
X18395000Y9567500D02*
X18495000D01*
X18395000Y9632500D02*
X18495000D01*
X18395000Y9697500D02*
X18495000D01*
X18395000Y9762500D02*
X18495000D01*
X18395000Y9827500D02*
X18495000D01*
X18395000Y9892500D02*
X18495000D01*
X18395000Y9957500D02*
X18495000D01*
G54D38*
X15000000Y12100000D03*
G54D39*
X14100000Y11575000D03*
Y11825000D03*
X13900000D03*
Y11575000D03*
G54D40*
X13629000Y12300000D03*
Y11100000D03*
G54D41*
X13320000Y14080000D03*
Y9320000D03*
X21280000D03*
Y14080000D03*
G54D42*
X20600000Y9300000D03*
X13400000Y12800000D03*
X20600000Y14100000D03*
G54D44*
X16680000Y11567500D02*
Y11692500D01*
X16720000Y11567500D02*
Y11692500D01*
X16760000Y11567500D02*
Y11692500D01*
X16800000Y11567500D02*
Y11692500D01*
X16840000Y11567500D02*
Y11692500D01*
X16880000Y11567500D02*
Y11692500D01*
X16920000Y11567500D02*
Y11692500D01*
X16960000Y11567500D02*
Y11692500D01*
X17000000Y11567500D02*
Y11692500D01*
X17040000Y11567500D02*
Y11692500D01*
X17080000Y11567500D02*
Y11692500D01*
X17120000Y11567500D02*
Y11692500D01*
X17160000Y11567500D02*
Y11692500D01*
X17200000Y11567500D02*
Y11692500D01*
X17240000Y11567500D02*
Y11692500D01*
X17280000Y11567500D02*
Y11692500D01*
X17320000Y11567500D02*
Y11692500D01*
X17360000Y11567500D02*
Y11692500D01*
X17400000Y11567500D02*
Y11692500D01*
X17440000Y11567500D02*
Y11692500D01*
X17480000Y11567500D02*
Y11692500D01*
X17520000Y11567500D02*
Y11692500D01*
X17560000Y11567500D02*
Y11692500D01*
X17600000Y11567500D02*
Y11692500D01*
X17640000Y11567500D02*
Y11692500D01*
X17680000Y11567500D02*
Y11692500D01*
X17720000Y11567500D02*
Y11692500D01*
X17760000Y11567500D02*
Y11692500D01*
X17800000Y11567500D02*
Y11692500D01*
X17840000Y11567500D02*
Y11692500D01*
X17880000Y11567500D02*
Y11692500D01*
X17920000Y11567500D02*
Y11692500D01*
X18132500Y11780000D02*
X18007500D01*
X18132500Y11820000D02*
X18007500D01*
X18132500Y11860000D02*
X18007500D01*
X18132500Y11900000D02*
X18007500D01*
X18132500Y11940000D02*
X18007500D01*
X18132500Y11980000D02*
X18007500D01*
X18132500Y12020000D02*
X18007500D01*
X18132500Y12060000D02*
X18007500D01*
X18132500Y12100000D02*
X18007500D01*
X18132500Y12140000D02*
X18007500D01*
X18132500Y12180000D02*
X18007500D01*
X18132500Y12220000D02*
X18007500D01*
X18132500Y12260000D02*
X18007500D01*
X18132500Y12300000D02*
X18007500D01*
X18132500Y12340000D02*
X18007500D01*
X18132500Y12380000D02*
X18007500D01*
X18132500Y12420000D02*
X18007500D01*
X18132500Y12460000D02*
X18007500D01*
X18132500Y12500000D02*
X18007500D01*
X18132500Y12540000D02*
X18007500D01*
X18132500Y12580000D02*
X18007500D01*
X18132500Y12620000D02*
X18007500D01*
X18132500Y12660000D02*
X18007500D01*
X18132500Y12700000D02*
X18007500D01*
X18132500Y12740000D02*
X18007500D01*
X18132500Y12780000D02*
X18007500D01*
X18132500Y12820000D02*
X18007500D01*
X18132500Y12860000D02*
X18007500D01*
X18132500Y12900000D02*
X18007500D01*
X18132500Y12940000D02*
X18007500D01*
X18132500Y12980000D02*
X18007500D01*
X18132500Y13020000D02*
X18007500D01*
X17920000Y13107500D02*
Y13232500D01*
X17880000Y13107500D02*
Y13232500D01*
X17840000Y13107500D02*
Y13232500D01*
X17800000Y13107500D02*
Y13232500D01*
X17760000Y13107500D02*
Y13232500D01*
X17720000Y13107500D02*
Y13232500D01*
X17680000Y13107500D02*
Y13232500D01*
X17640000Y13107500D02*
Y13232500D01*
X17600000Y13107500D02*
Y13232500D01*
X17560000Y13107500D02*
Y13232500D01*
X17520000Y13107500D02*
Y13232500D01*
X17480000Y13107500D02*
Y13232500D01*
X17440000Y13107500D02*
Y13232500D01*
X17400000Y13107500D02*
Y13232500D01*
X17360000Y13107500D02*
Y13232500D01*
X17320000Y13107500D02*
Y13232500D01*
X17280000Y13107500D02*
Y13232500D01*
X17240000Y13107500D02*
Y13232500D01*
X17200000Y13107500D02*
Y13232500D01*
X17160000Y13107500D02*
Y13232500D01*
X17120000Y13107500D02*
Y13232500D01*
X17080000Y13107500D02*
Y13232500D01*
X17040000Y13107500D02*
Y13232500D01*
X17000000Y13107500D02*
Y13232500D01*
X16960000Y13107500D02*
Y13232500D01*
X16920000Y13107500D02*
Y13232500D01*
X16880000Y13107500D02*
Y13232500D01*
X16840000Y13107500D02*
Y13232500D01*
X16800000Y13107500D02*
Y13232500D01*
X16760000Y13107500D02*
Y13232500D01*
X16720000Y13107500D02*
Y13232500D01*
X16680000Y13107500D02*
Y13232500D01*
X16592500Y13020000D02*
X16467500D01*
X16592500Y12980000D02*
X16467500D01*
X16592500Y12940000D02*
X16467500D01*
X16592500Y12900000D02*
X16467500D01*
X16592500Y12860000D02*
X16467500D01*
X16592500Y12820000D02*
X16467500D01*
X16592500Y12780000D02*
X16467500D01*
X16592500Y12740000D02*
X16467500D01*
X16592500Y12700000D02*
X16467500D01*
X16592500Y12660000D02*
X16467500D01*
X16592500Y12620000D02*
X16467500D01*
X16592500Y12580000D02*
X16467500D01*
X16592500Y12540000D02*
X16467500D01*
X16592500Y12500000D02*
X16467500D01*
X16592500Y12460000D02*
X16467500D01*
X16592500Y12420000D02*
X16467500D01*
X16592500Y12380000D02*
X16467500D01*
X16592500Y12340000D02*
X16467500D01*
X16592500Y12300000D02*
X16467500D01*
X16592500Y12260000D02*
X16467500D01*
X16592500Y12220000D02*
X16467500D01*
X16592500Y12180000D02*
X16467500D01*
X16592500Y12140000D02*
X16467500D01*
X16592500Y12100000D02*
X16467500D01*
X16592500Y12060000D02*
X16467500D01*
X16592500Y12020000D02*
X16467500D01*
X16592500Y11980000D02*
X16467500D01*
X16592500Y11940000D02*
X16467500D01*
X16592500Y11900000D02*
X16467500D01*
X16592500Y11860000D02*
X16467500D01*
X16592500Y11820000D02*
X16467500D01*
X16592500Y11780000D02*
X16467500D01*
G54D45*
X17300000Y12400000D03*
X0Y0D02*
M02*
