*
*
G04 PADS Layout (Build Number 2008.43.1) generated Gerber (RS-274-X) file*
G04 PC Version=2.1*
*
%IN "XPCB-010.pcb"*%
*
%MOMM*%
*
%FSLAX35Y35*%
*
*
*
*
G04 PC Standard Apertures*
*
*
G04 Thermal Relief Aperture macro.*
%AMTER*
1,1,$1,0,0*
1,0,$1-$2,0,0*
21,0,$3,$4,0,0,45*
21,0,$3,$4,0,0,135*
%
*
*
G04 Annular Aperture macro.*
%AMANN*
1,1,$1,0,0*
1,0,$2,0,0*
%
*
*
G04 Odd Aperture macro.*
%AMODD*
1,1,$1,0,0*
1,0,$1-0.005,0,0*
%
*
*
G04 PC Custom Aperture Macros*
*
*
*
*
*
*
G04 PC Aperture Table*
*
%ADD012C,0.0254*%
%ADD013C,0.2*%
%ADD014C,0.25*%
%ADD015C,0.15*%
%ADD017C,0.3*%
%ADD018R,1.8X1.8*%
%ADD019C,1.8*%
%ADD023C,0.4*%
%ADD026C,0.5*%
%ADD030C,0.6*%
%ADD031C,1.4*%
%ADD034C,1.3*%
%ADD039C,1.6*%
%ADD040C,3.8*%
%ADD041C,6*%
%ADD046C,0.65*%
%ADD047C,0.8*%
*
*
*
*
G04 PC Circuitry*
G04 Layer Name XPCB-010.pcb - circuitry*
%LPD*%
*
*
G04 PC Custom Flashes*
G04 Layer Name XPCB-010.pcb - flashes*
%LPD*%
*
*
G04 PC Circuitry*
G04 Layer Name XPCB-010.pcb - circuitry*
%LPD*%
*
G54D12*
G54D13*
G01X14680000Y12100000D02*
X15170000D01*
X15270000Y12200000*
X15490000*
X21410001Y10300000D02*
G75*
G03X21410001I-110001J0D01*
G01Y11700000D02*
G03X21410001I-110001J0D01*
G01X20710001Y10300000D02*
G03X20710001I-110001J0D01*
G01Y11700000D02*
G03X20710001I-110001J0D01*
G01X21434001Y12820000D02*
G03X21434001I-110001J0D01*
G01Y13380000D02*
G03X21434001I-110001J0D01*
G01X21177501Y12846000D02*
G03X21177501I-115001J0D01*
G01Y13354000D02*
G03X21177501I-115001J0D01*
G01X20895001Y12846000D02*
G03X20895001I-95001J0D01*
G01Y13100000D02*
G03X20895001I-95001J0D01*
G01Y13354000D02*
G03X20895001I-95001J0D01*
G01X20465001Y12800000D02*
G03X20465001I-115001J0D01*
G01X19292001Y11303000D02*
G03X19292001I-115001J0D01*
G01Y11557000D02*
G03X19292001I-115001J0D01*
G01Y12065000D02*
G03X19292001I-115001J0D01*
G01Y12319000D02*
G03X19292001I-115001J0D01*
G01X18050001Y14027000D02*
G03X18050001I-115001J0D01*
G01X17323501Y9461500D02*
G03X17323501I-115001J0D01*
G01X17796001Y13773000D02*
G03X17796001I-115001J0D01*
G01Y14027000D02*
G03X17796001I-115001J0D01*
G01X17542001Y13773000D02*
G03X17542001I-115001J0D01*
G01Y14027000D02*
G03X17542001I-115001J0D01*
G01X17288001Y13773000D02*
G03X17288001I-115001J0D01*
G01Y14027000D02*
G03X17288001I-115001J0D01*
G01X17034001Y13773000D02*
G03X17034001I-115001J0D01*
G01Y14027000D02*
G03X17034001I-115001J0D01*
G01X16780001Y13773000D02*
G03X16780001I-115001J0D01*
G01Y14027000D02*
G03X16780001I-115001J0D01*
G01X15146001Y9350000D02*
G03X15146001I-90001J0D01*
G01Y10550000D02*
G03X15146001I-90001J0D01*
G01X16526001Y13773000D02*
G03X16526001I-115001J0D01*
G01Y14027000D02*
G03X16526001I-115001J0D01*
G01X16272001D02*
G03X16272001I-115001J0D01*
G01X15482001Y14160500D02*
G03X15482001I-115001J0D01*
G01X13844001Y11100000D02*
G03X13844001I-215001J0D01*
G01Y12300000D02*
G03X13844001I-215001J0D01*
G01X15634001Y9350000D02*
G03X15634001I-90001J0D01*
G01Y10550000D02*
G03X15634001I-90001J0D01*
G01X15617501Y11300000D02*
G03X15617501I-57501J0D01*
G01X21574500Y12410701D02*
Y13941642D01*
G03X21574119Y13941727I-200J0*
G01X21141727Y14374119D02*
G03X21574119Y13941727I138273J-294119D01*
G01X21141727Y14374119D02*
G03X21141642Y14374500I-85J181D01*
G01X13458358*
G03X13458273Y14374119I-0J-200*
G01X13025881Y13941727D02*
G03X13458273Y14374119I294119J138273D01*
G01X13025881Y13941727D02*
G03X13025500Y13941642I-181J-85D01*
G01Y9458358*
G03X13025881Y9458273I200J-0*
G01X13458273Y9025881D02*
G03X13025881Y9458273I-138273J294119D01*
G01X13458273Y9025881D02*
G03X13458358Y9025500I85J-181D01*
G01X14287448*
G03X14287589Y9025841I-0J200*
G01X13940984Y9372447*
G03X13940839Y9372505I-142J-141*
G01X13997494Y9429161D02*
G03X13940839Y9372506I-57494J839D01*
G01X13997494Y9429161D02*
Y9429158D01*
G03X13997553Y9429016I200J-0*
G01X14339184Y9087385*
G03X14339326Y9087327I142J141*
G01Y9087326D02*
X14552305D01*
X14552305D02*
G03X14552470Y9087639I-0J200D01*
G01X14556885Y9158045D02*
G03X14552470Y9087639I43115J-38045D01*
G01X14556885Y9158045D02*
G03X14556735Y9158377I-150J132D01*
G01X14319122*
X14296141Y9167896D02*
G03X14319122Y9158377I22981J22982D01*
G01X14296141Y9167896D02*
X13846596Y9617441D01*
G03X13846455Y9617499I-141J-142*
G01X13846455D02*
X13727540D01*
X13727540D02*
G03X13727375Y9617413I-0J-200D01*
G01Y9682587D02*
G03Y9617413I-47375J-32587D01*
G01Y9682587D02*
G03X13727540Y9682501I165J114D01*
G01X13727540D02*
X13860000D01*
X13882981Y9672981D02*
G03X13860000Y9682501I-22981J-22981D01*
G01X13882981Y9672981D02*
X14332526Y9223437D01*
G03X14332667Y9223378I141J141*
G01X15885563*
G03X15885705Y9223437I0J200*
G01X15961292Y9299024*
X15984273Y9308543D02*
G03X15961292Y9299024I0J-32500D01*
G01X15984273Y9308543D02*
X16755498D01*
X16755498D02*
G03X16755639Y9308602I-0J200D01*
G01X17107410Y9660373*
G03X17107444Y9660610I-141J141*
G01X17153610Y9614445D02*
G03X17107445Y9660610I54890J101055D01*
G01X17153610Y9614444D02*
G03X17153373Y9614410I-96J-175D01*
G01X16792024Y9253061*
X16769043Y9243542D02*
G03X16792024Y9253061I-0J32501D01*
G01X16769043Y9243542D02*
X15997818D01*
G03X15997677Y9243483I0J-200*
G01X15997677D02*
X15991769Y9237576D01*
G03X15991991Y9237252I142J-141*
G01X16005073Y9240001D02*
G03X15991991Y9237251I0J-32501D01*
G01X16005073Y9240001D02*
X16844038D01*
X16844038D02*
G03X16844230Y9240144I0J200D01*
G01X16988287Y9097575D02*
G03X16844230Y9240144I-33787J109925D01*
G01X16988287Y9097575D02*
G03X16988346Y9097184I59J-191D01*
G01X17174654*
G03X17174713Y9097575I-0J200*
G01X17242287D02*
G03X17174713I-33787J109925D01*
G01X17242287D02*
G03X17242346Y9097184I59J-191D01*
G01X17320532*
X17320532D02*
G03X17320673Y9097242I-0J200D01*
G01X17412447Y9189016*
G03X17412506Y9189158I-141J142*
G01Y9189161*
X17469161Y9132506D02*
G03X17412506Y9189161I839J57494D01*
G01X17469161Y9132506D02*
G03X17469016Y9132447I-3J-200D01*
G01X17365468Y9028898*
X17362057Y9025857D02*
G03X17365468Y9028899I-24874J31326D01*
G01X17362057Y9025857D02*
G03X17362181Y9025500I124J-157D01*
G01X21141642*
G03X21141727Y9025881I0J200*
G01X21574119Y9458273D02*
G03X21141727Y9025881I-294119J-138273D01*
G01X21574119Y9458273D02*
G03X21574500Y9458358I181J85D01*
G01Y12339299*
X21574500D02*
G03X21574300Y12339499I-200J0D01*
G01X21574300D02*
X20054432D01*
X20054432D02*
G03X20054291Y12339441I0J-200D01*
G01X19510559Y11795709*
G03X19510501Y11795568I142J-141*
G01X19510501D02*
Y11299793D01*
X19507571Y11292722D02*
G03X19510501Y11299793I-7071J7071D01*
G01X19507571Y11292721D02*
X19107279Y10892429D01*
X19100207Y10889499D02*
G03X19107278Y10892429I0J10001D01*
G01X19100207Y10889499D02*
X18780007D01*
X18780007D02*
G03X18779814Y10889246I0J-200D01*
G01X18558186D02*
G03X18779814I110814J-30746D01*
G01X18558186D02*
G03X18557993Y10889499I-193J53D01*
G01X18557993D02*
X18004432D01*
X18004432D02*
G03X18004291Y10889441I0J-200D01*
G01X17910559Y10795709*
G03X17910501Y10795568I142J-141*
G01X17910501D02*
Y10399500D01*
X17900500Y10389499D02*
G03X17910501Y10399500I0J10001D01*
G01X17900500Y10389499D02*
X17849500D01*
X17839499Y10399500D02*
G03X17849500Y10389499I10001J0D01*
G01X17839499Y10399500D02*
Y10812517D01*
X17842488Y10819647D02*
G03X17839499Y10812517I7012J-7130D01*
G01X17842488Y10819647D02*
X17982783Y10957630D01*
X17989795Y10960500D02*
G03X17982783Y10957630I0J-10000D01*
G01X17989795Y10960501D02*
X18615838D01*
X18615838D02*
G03X18615930Y10960523I-0J200D01*
G01X18722070D02*
G03X18615930I-53070J-102023D01*
G01X18722070D02*
G03X18722162Y10960501I92J178D01*
G01X18722162D02*
X19075568D01*
X19075568D02*
G03X19075709Y10960559I-0J200D01*
G01X19439441Y11324291*
G03X19439499Y11324432I-142J141*
G01X19439499D02*
Y11820207D01*
X19442429Y11827279D02*
G03X19439499Y11820207I7071J-7072D01*
G01X19442429Y11827279D02*
X20022721Y12407571D01*
X20029793Y12410501D02*
G03X20022722Y12407571I-0J-10001D01*
G01X20029793Y12410501D02*
X21574300D01*
X21574300D02*
G03X21574500Y12410701I0J200D01*
G01X21410001Y10300000D02*
G03X21410001I-110001J0D01*
G01Y11700000D02*
G03X21410001I-110001J0D01*
G01X20710001Y10300000D02*
G03X20710001I-110001J0D01*
G01Y11700000D02*
G03X20710001I-110001J0D01*
G01X19468752Y9129939D02*
G03Y9210061I41248J40061D01*
G01Y9129939D02*
G03X19468608Y9129999I-144J-140D01*
G01X19468608D02*
X19331392D01*
X19331392D02*
G03X19331248Y9129939I-0J-200D01*
G01Y9210061D02*
G03Y9129939I-41248J-40061D01*
G01Y9210061D02*
G03X19331392Y9210001I144J140D01*
G01X19331392D02*
X19468608D01*
X19468608D02*
G03X19468752Y9210061I0J200D01*
G01X18851964Y10005401D02*
G03X18828752Y10100061I18036J54599D01*
G01X18851964Y10005401D02*
G03X18851721Y10005124I-63J-190D01*
G01X18799161Y9922506D02*
G03X18851721Y10005124I839J57494D01*
G01X18799161Y9922506D02*
G03X18799016Y9922447I-3J-200D01*
G01X18668285Y9791715*
X18640000Y9779999D02*
G03X18668285Y9791715I0J40001D01*
G01X18640000Y9779999D02*
X18611392D01*
X18611392D02*
G03X18611248Y9779939I-0J-200D01*
G01X18528559Y9859861D02*
G03X18611248Y9779939I41441J-39861D01*
G01X18528559Y9859861D02*
G03Y9860139I-144J139D01*
G01X18570839Y9957494D02*
G03X18528559Y9860139I-839J-57494D01*
G01X18570839Y9957494D02*
G03X18570984Y9957553I3J200D01*
G01X18701715Y10088285*
X18730000Y10100001D02*
G03X18701715Y10088285I0J-40001D01*
G01X18730000Y10100001D02*
X18828608D01*
X18828608D02*
G03X18828752Y10100061I0J200D01*
G01X21434001Y12820000D02*
G03X21434001I-110001J0D01*
G01Y13380000D02*
G03X21434001I-110001J0D01*
G01X21177501Y12846000D02*
G03X21177501I-115001J0D01*
G01Y13354000D02*
G03X21177501I-115001J0D01*
G01X20895001Y12846000D02*
G03X20895001I-95001J0D01*
G01Y13100000D02*
G03X20895001I-95001J0D01*
G01Y13354000D02*
G03X20895001I-95001J0D01*
G01X20465001Y12800000D02*
G03X20465001I-115001J0D01*
G01X19827413Y13387375D02*
G03X19892587I32587J-47375D01*
G01X19827413D02*
G03X19827499Y13387540I-114J165D01*
G01X19827499D02*
Y13406455D01*
X19827499D02*
G03X19827441Y13406596I-200J-0D01*
G01X19750634Y13483403*
G03X19750457Y13483458I-141J-141*
G01X19796542Y13529544D02*
G03X19750456Y13483458I-56542J10456D01*
G01X19796542Y13529543D02*
G03X19796597Y13529366I196J-36D01*
G01X19882981Y13442981*
X19892501Y13420000D02*
G03X19882981Y13442981I-32501J0D01*
G01X19892501Y13420000D02*
Y13387540D01*
X19892501D02*
G03X19892587Y13387375I200J-0D01*
G01X19292001Y11303000D02*
G03X19292001I-115001J0D01*
G01Y11557000D02*
G03X19292001I-115001J0D01*
G01X19066730Y11778356D02*
G03Y11843644I110270J32644D01*
G01Y11778356D02*
G03X19066538Y11778499I-192J-57D01*
G01X19066538D02*
X19030284D01*
X19030284D02*
G03X19030110Y11778201I0J-200D01*
G01X18932625Y11717413D02*
G03X19030110Y11778201I47375J32587D01*
G01X18932625Y11717413D02*
G03X18932460Y11717499I-165J-114D01*
G01X18932460D02*
X18840834D01*
X18840834D02*
G03X18840658Y11717205I-0J-200D01*
G01X18742625Y11657413D02*
G03X18840658Y11717205I47375J32587D01*
G01X18742625Y11657413D02*
G03X18742460Y11657499I-165J-114D01*
G01X18742460D02*
X18463545D01*
X18463545D02*
G03X18463404Y11657441I0J-200D01*
G01X18322981Y11517019*
X18300000Y11507499D02*
G03X18322981Y11517019I0J32501D01*
G01X18300000Y11507499D02*
X18037540D01*
X18037540D02*
G03X18037375Y11507413I-0J-200D01*
G01X18003983Y11595774D02*
G03X18037375Y11507413I-13983J-55774D01*
G01X18003983Y11595775D02*
G03X18004225Y11596017I49J193D01*
G01X18073983Y11665774D02*
G03X18004226Y11596017I-13983J-55774D01*
G01X18073983Y11665775D02*
G03X18074225Y11666017I49J193D01*
G01X18143983Y11735774D02*
G03X18074226Y11666017I-13983J-55774D01*
G01X18143983Y11735775D02*
G03X18144225Y11736017I49J193D01*
G01X18247375Y11782587D02*
G03X18144226Y11736017I-47375J-32587D01*
G01X18247375Y11782587D02*
G03X18247540Y11782501I165J114D01*
G01X18247540D02*
X18257564D01*
X18257564D02*
G03X18257705Y11782559I0J200D01*
G01X18257705D02*
X18392304Y11917158D01*
G03X18392163Y11917499I-141J141*
G01X18392163D02*
X18367540D01*
X18367540D02*
G03X18367375Y11917413I-0J-200D01*
G01Y11982587D02*
G03Y11917413I-47375J-32587D01*
G01Y11982587D02*
G03X18367540Y11982501I165J114D01*
G01X18367540D02*
X18386455D01*
X18386455D02*
G03X18386596Y11982559I-0J200D01*
G01X18477019Y12072981*
X18500000Y12082501D02*
G03X18477019Y12072981I0J-32501D01*
G01X18500000Y12082501D02*
X18786455D01*
X18786455D02*
G03X18786596Y12082559I-0J200D01*
G01X18817019Y12112981*
X18840000Y12122501D02*
G03X18817019Y12112981I0J-32501D01*
G01X18840000Y12122501D02*
X18872460D01*
X18872460D02*
G03X18872625Y12122587I0J200D01*
G01X18961441Y12050139D02*
G03X18872625Y12122587I-41441J39861D01*
G01X18961441Y12050139D02*
G03Y12049861I144J-139D01*
G01Y11970139D02*
G03Y12049861I-41441J39861D01*
G01Y11970139D02*
G03Y11969861I144J-139D01*
G01X18977453Y11927661D02*
G03X18961441Y11969861I-57453J2339D01*
G01X18977453Y11927661D02*
Y11927653D01*
G03X18977661Y11927453I200J-0*
G01X19031180Y11843792D02*
G03X18977661Y11927453I-51180J26208D01*
G01X19031181Y11843792D02*
G03X19031358Y11843501I177J-91D01*
G01X19031358D02*
X19066538D01*
X19066538D02*
G03X19066730Y11843644I0J200D01*
G01X19292001Y12065000D02*
G03X19292001I-115001J0D01*
G01Y12319000D02*
G03X19292001I-115001J0D01*
G01X19223458Y13780456D02*
G03X19269544Y13826542I56542J-10456D01*
G01X19223458Y13780457D02*
G03X19223403Y13780634I-196J36D01*
G01X19186596Y13817441*
G03X19186455Y13817499I-141J-142*
G01X19186455D02*
X18937540D01*
X18937540D02*
G03X18937375Y13817413I-0J-200D01*
G01Y13882587D02*
G03Y13817413I-47375J-32587D01*
G01Y13882587D02*
G03X18937540Y13882501I165J114D01*
G01X18937540D02*
X19200000D01*
X19222981Y13872981D02*
G03X19200000Y13882501I-22981J-22981D01*
G01X19222981Y13872981D02*
X19269366Y13826597D01*
G03X19269543Y13826542I141J141*
G01X19992625Y14067413D02*
G03Y14132587I47375J32587D01*
G01Y14067413D02*
G03X19992460Y14067499I-165J-114D01*
G01X19992460D02*
X18947540D01*
X18947540D02*
G03X18947375Y14067413I-0J-200D01*
G01Y14132587D02*
G03Y14067413I-47375J-32587D01*
G01Y14132587D02*
G03X18947540Y14132501I165J114D01*
G01X18947540D02*
X19992460D01*
X19992460D02*
G03X19992625Y14132587I0J200D01*
G01X18050001Y14027000D02*
G03X18050001I-115001J0D01*
G01X17323501Y9461500D02*
G03X17323501I-115001J0D01*
G01X17098230Y9936856D02*
G03Y10002144I110270J32644D01*
G01Y9936856D02*
G03X17098038Y9936999I-192J-57D01*
G01X17098038D02*
X17013045D01*
X17013045D02*
G03X17012904Y9936941I0J-200D01*
G01X16786597Y9710634*
G03X16786542Y9710457I141J-141*
G01X16740456Y9756542D02*
G03X16786542Y9710456I-10456J-56542D01*
G01X16740457Y9756542D02*
G03X16740634Y9756597I36J196D01*
G01X16976519Y9992481*
X16999500Y10002001D02*
G03X16976519Y9992481I0J-32501D01*
G01X16999500Y10002001D02*
X17098038D01*
X17098038D02*
G03X17098230Y10002144I0J200D01*
G01X17379544Y10343458D02*
G03X17333458Y10389544I10456J56542D01*
G01X17379543Y10343458D02*
G03X17379366Y10343403I-36J-196D01*
G01X17345061Y10309098*
X17332182Y10301189D02*
G03X17345061Y10309098I-10103J30890D01*
G01X17332182Y10301189D02*
G03X17332103Y10301140I62J-190D01*
G01X17309590Y10278627*
G03X17309556Y10278390I141J-141*
G01X17263390Y10324555D02*
G03X17309555Y10278390I-54890J-101055D01*
G01X17263390Y10324556D02*
G03X17263627Y10324590I96J175D01*
G01X17294098Y10355061*
X17306976Y10362970D02*
G03X17294098Y10355061I10103J-30891D01*
G01X17306976Y10362970D02*
G03X17307056Y10363018I-62J190D01*
G01X17333403Y10389366*
G03X17333458Y10389543I-141J141*
G01X17432877Y10693421D02*
G03X17496579Y10757123I57123J6579D01*
G01X17432877Y10693421D02*
G03X17432820Y10693540I-199J-23D01*
G01X17417120Y10709239*
G03X17416781Y10709067I-141J-141*
G01X17348271Y10643708D02*
G03X17416781Y10709066I11729J56292D01*
G01X17348271Y10643708D02*
G03X17348089Y10643654I-40J-195D01*
G01X17281454Y10577019*
X17274733Y10571860D02*
G03X17281454Y10577019I-16260J28140D01*
G01X17274733Y10571860D02*
G03X17274718Y10571523I100J-174D01*
G01X17104800Y10527213D02*
G03X17274718Y10571523I103700J-49713D01*
G01X17104800Y10527213D02*
G03X17104619Y10527499I-181J86D01*
G01X17104619D02*
X17087540D01*
X17087540D02*
G03X17087375Y10527413I-0J-200D01*
G01X16982624Y10556213D02*
G03X17087375Y10527413I57376J3787D01*
G01X16982624Y10556213D02*
G03X16982288Y10556345I-199J-13D01*
G01X16960000Y10547499D02*
G03X16982288Y10556345I0J32501D01*
G01X16960000Y10547499D02*
X16880000D01*
X16857019Y10557019D02*
G03X16880000Y10547499I22981J22981D01*
G01X16857019Y10557019D02*
X16806596Y10607441D01*
G03X16806455Y10607499I-141J-142*
G01X16806455D02*
X16577540D01*
X16577540D02*
G03X16577375Y10607413I-0J-200D01*
G01X16532339Y10697453D02*
G03X16577375Y10607413I-2339J-57453D01*
G01X16532339Y10697453D02*
G03X16532547Y10697653I8J200D01*
G01Y10697661*
X16602372Y10756154D02*
G03X16532547Y10697661I-12372J-56154D01*
G01X16602372Y10756154D02*
G03X16602615Y10756362I43J195D01*
G01X16670456Y10816542D02*
G03X16602615Y10756362I-10456J-56542D01*
G01X16670457Y10816542D02*
G03X16670634Y10816597I36J196D01*
G01X16811014Y10956976*
X16832406Y10966457D02*
G03X16811014Y10956976I1589J-32462D01*
G01X16832406Y10966457D02*
G03X16832596Y10966668I-10J199D01*
G01X16839342Y10997205D02*
G03X16832596Y10966668I50658J-27205D01*
G01X16839342Y10997205D02*
G03X16839166Y10997499I-176J94D01*
G01X16839166D02*
X16653545D01*
X16653545D02*
G03X16653404Y10997441I0J-200D01*
G01X16636597Y10980634*
G03X16636542Y10980457I141J-141*
G01X16590456Y11026542D02*
G03X16636542Y10980456I-10456J-56542D01*
G01X16590457Y11026542D02*
G03X16590634Y11026597I36J196D01*
G01X16596553Y11032515*
X16596552D02*
G03X16596389Y11032855I-141J142D01*
G01X16533219Y11099066D02*
G03X16596389Y11032856I56781J-9066D01*
G01X16533219Y11099067D02*
G03X16532880Y11099239I-198J31D01*
G01X16532880D02*
X16517180Y11083540D01*
G03X16517123Y11083421I142J-142*
G01X16453421Y11147123D02*
G03X16517123Y11083421I6579J-57123D01*
G01X16453421Y11147123D02*
G03X16453540Y11147180I-23J199D01*
G01X16513018Y11206658*
G03X16512876Y11206999I-142J141*
G01X16512876D02*
X16366462D01*
X16366462D02*
G03X16366270Y11206856I-0J-200D01*
G01Y11272144D02*
G03Y11206856I-110270J-32644D01*
G01Y11272144D02*
G03X16366462Y11272001I192J57D01*
G01X16366462D02*
X16503329D01*
X16503329D02*
G03X16503471Y11272059I0J200D01*
G01X16554393Y11322981*
X16577374Y11332501D02*
G03X16554393Y11322981I0J-32501D01*
G01X16577374Y11332501D02*
X16712460D01*
X16712460D02*
G03X16712625Y11332587I0J200D01*
G01X16811919Y11275287D02*
G03X16712625Y11332587I-51919J24713D01*
G01X16811919Y11275286D02*
G03X16812099Y11275001I180J-85D01*
G01X16812099D02*
X16830000D01*
X16861820Y11261820D02*
G03X16830000Y11275001I-31820J-31820D01*
G01X16861820Y11261820D02*
X16918581Y11205059D01*
G03X16918723Y11205001I142J142*
G01X16918723D02*
X17030000D01*
X17061820Y11191820D02*
G03X17030000Y11205001I-31820J-31820D01*
G01X17061820Y11191820D02*
X17496460Y10757180D01*
G03X17496579Y10757123I142J142*
G01X17572625Y11337413D02*
G03Y11402587I47375J32587D01*
G01Y11337413D02*
G03X17572460Y11337499I-165J-114D01*
G01X17572460D02*
X17547540D01*
X17547540D02*
G03X17547375Y11337413I-0J-200D01*
G01Y11402587D02*
G03Y11337413I-47375J-32587D01*
G01Y11402587D02*
G03X17547540Y11402501I165J114D01*
G01X17547540D02*
X17572460D01*
X17572460D02*
G03X17572625Y11402587I0J200D01*
G01X17720061Y11858752D02*
G03X17639939I-40061J41248D01*
G01X17720061D02*
G03X17720001Y11858608I140J-144D01*
G01X17720001D02*
Y11791392D01*
X17720001D02*
G03X17720061Y11791248I200J-0D01*
G01X17639939D02*
G03X17720061I40061J-41248D01*
G01X17639939D02*
G03X17639999Y11791392I-140J144D01*
G01X17639999D02*
Y11858608D01*
X17639999D02*
G03X17639939Y11858752I-200J0D01*
G01X17560061D02*
G03X17479939I-40061J41248D01*
G01X17560061D02*
G03X17560001Y11858608I140J-144D01*
G01X17560001D02*
Y11791392D01*
X17560001D02*
G03X17560061Y11791248I200J-0D01*
G01X17479939D02*
G03X17560061I40061J-41248D01*
G01X17479939D02*
G03X17479999Y11791392I-140J144D01*
G01X17479999D02*
Y11858608D01*
X17479999D02*
G03X17479939Y11858752I-200J0D01*
G01X17640061Y13008752D02*
G03X17559939I-40061J41248D01*
G01X17640061D02*
G03X17640001Y13008608I140J-144D01*
G01X17640001D02*
Y12941392D01*
X17640001D02*
G03X17640061Y12941248I200J-0D01*
G01X17559939D02*
G03X17640061I40061J-41248D01*
G01X17559939D02*
G03X17559999Y12941392I-140J144D01*
G01X17559999D02*
Y13008608D01*
X17559999D02*
G03X17559939Y13008752I-200J0D01*
G01X17796001Y13773000D02*
G03X17796001I-115001J0D01*
G01Y14027000D02*
G03X17796001I-115001J0D01*
G01X17400061Y13008752D02*
G03X17319939I-40061J41248D01*
G01X17400061D02*
G03X17400001Y13008608I140J-144D01*
G01X17400001D02*
Y12941392D01*
X17400001D02*
G03X17400061Y12941248I200J-0D01*
G01X17319939D02*
G03X17400061I40061J-41248D01*
G01X17319939D02*
G03X17319999Y12941392I-140J144D01*
G01X17319999D02*
Y13008608D01*
X17319999D02*
G03X17319939Y13008752I-200J0D01*
G01X17542001Y13773000D02*
G03X17542001I-115001J0D01*
G01Y14027000D02*
G03X17542001I-115001J0D01*
G01X17280061Y11858752D02*
G03X17199939I-40061J41248D01*
G01X17280061D02*
G03X17280001Y11858608I140J-144D01*
G01X17280001D02*
Y11791392D01*
X17280001D02*
G03X17280061Y11791248I200J-0D01*
G01X17199939D02*
G03X17280061I40061J-41248D01*
G01X17199939D02*
G03X17199999Y11791392I-140J144D01*
G01X17199999D02*
Y11858608D01*
X17199999D02*
G03X17199939Y11858752I-200J0D01*
G01X17288001Y13773000D02*
G03X17288001I-115001J0D01*
G01Y14027000D02*
G03X17288001I-115001J0D01*
G01X16921441Y11790139D02*
G03X16832625Y11862587I-41441J39861D01*
G01X16921441Y11790139D02*
G03Y11789861I144J-139D01*
G01X16869544Y11693458D02*
G03X16921441Y11789861I10456J56542D01*
G01X16869543Y11693458D02*
G03X16869366Y11693403I-36J-196D01*
G01X16843412Y11667449*
X16820430Y11657930D02*
G03X16843412Y11667449I0J32500D01*
G01X16820430Y11657930D02*
X16579488D01*
G03X16579347Y11657871I0J-200*
G01X16558494Y11637019*
X16535513Y11627499D02*
G03X16558494Y11637019I-0J32501D01*
G01X16535513Y11627499D02*
X16497540D01*
X16497540D02*
G03X16497375Y11627413I-0J-200D01*
G01X16396567Y11638757D02*
G03X16497375Y11627413I53433J21243D01*
G01X16396567Y11638757D02*
G03X16396290Y11638861I-186J-73D01*
G01X16380456Y11746542D02*
G03X16396290Y11638861I-10456J-56542D01*
G01X16380457Y11746542D02*
G03X16380634Y11746597I36J196D01*
G01X16487019Y11852981*
X16510000Y11862501D02*
G03X16487019Y11852981I0J-32501D01*
G01X16510000Y11862501D02*
X16832460D01*
X16832460D02*
G03X16832625Y11862587I0J200D01*
G01X16758752Y12059939D02*
G03Y12140061I41248J40061D01*
G01Y12059939D02*
G03X16758608Y12059999I-144J-140D01*
G01X16758608D02*
X16691392D01*
X16691392D02*
G03X16691248Y12059939I-0J-200D01*
G01Y12140061D02*
G03Y12059939I-41248J-40061D01*
G01Y12140061D02*
G03X16691392Y12140001I144J140D01*
G01X16691392D02*
X16758608D01*
X16758608D02*
G03X16758752Y12140061I0J200D01*
G01Y12419939D02*
G03Y12500061I41248J40061D01*
G01Y12419939D02*
G03X16758608Y12419999I-144J-140D01*
G01X16758608D02*
X16691392D01*
X16691392D02*
G03X16691248Y12419939I-0J-200D01*
G01Y12500061D02*
G03Y12419939I-41248J-40061D01*
G01Y12500061D02*
G03X16691392Y12500001I144J140D01*
G01X16691392D02*
X16758608D01*
X16758608D02*
G03X16758752Y12500061I0J200D01*
G01Y12739939D02*
G03Y12820061I41248J40061D01*
G01Y12739939D02*
G03X16758608Y12739999I-144J-140D01*
G01X16758608D02*
X16691392D01*
X16691392D02*
G03X16691248Y12739939I-0J-200D01*
G01Y12820061D02*
G03Y12739939I-41248J-40061D01*
G01Y12820061D02*
G03X16691392Y12820001I144J140D01*
G01X16691392D02*
X16758608D01*
X16758608D02*
G03X16758752Y12820061I0J200D01*
G01X16840061Y13008752D02*
G03X16759939I-40061J41248D01*
G01X16840061D02*
G03X16840001Y13008608I140J-144D01*
G01X16840001D02*
Y12941392D01*
X16840001D02*
G03X16840061Y12941248I200J-0D01*
G01X16759939D02*
G03X16840061I40061J-41248D01*
G01X16759939D02*
G03X16759999Y12941392I-140J144D01*
G01X16759999D02*
Y13008608D01*
X16759999D02*
G03X16759939Y13008752I-200J0D01*
G01X17034001Y13773000D02*
G03X17034001I-115001J0D01*
G01Y14027000D02*
G03X17034001I-115001J0D01*
G01X16780001Y13773000D02*
G03X16780001I-115001J0D01*
G01Y14027000D02*
G03X16780001I-115001J0D01*
G01X16100394Y12442107D02*
Y11858940D01*
X16090875Y11835959D02*
G03X16100394Y11858940I-22982J22981D01*
G01X16090875Y11835959D02*
X16052559Y11797643D01*
G03X16052501Y11797502I142J-141*
G01X16052501D02*
Y11687540D01*
X16052501D02*
G03X16052587Y11687375I200J-0D01*
G01X15962547Y11642339D02*
G03X16052587Y11687375I57453J-2339D01*
G01X15962547Y11642339D02*
Y11642347D01*
G03X15962339Y11642547I-200J0*
G01X15957661D02*
G03X15962339I2339J57453D01*
G01X15957661D02*
G03X15957453Y11642347I-8J-200D01*
G01Y11642339*
X15842547D02*
G03X15957453I57453J-2339D01*
G01X15842547D02*
Y11642347D01*
G03X15842339Y11642547I-200J0*
G01X15837661D02*
G03X15842339I2339J57453D01*
G01X15837661D02*
G03X15837453Y11642347I-8J-200D01*
G01Y11642339*
X15722547D02*
G03X15837453I57453J-2339D01*
G01X15722547D02*
Y11642347D01*
G03X15722339Y11642547I-200J0*
G01X15717661D02*
G03X15722339I2339J57453D01*
G01X15717661D02*
G03X15717453Y11642347I-8J-200D01*
G01Y11642339*
X15602547D02*
G03X15717453I57453J-2339D01*
G01X15602547D02*
Y11642347D01*
G03X15602339Y11642547I-200J0*
G01X15597661D02*
G03X15602339I2339J57453D01*
G01X15597661D02*
G03X15597453Y11642347I-8J-200D01*
G01Y11642339*
X15482547D02*
G03X15597453I57453J-2339D01*
G01X15482547D02*
Y11642347D01*
G03X15482339Y11642547I-200J0*
G01X15422547Y11702339D02*
G03X15482339Y11642547I57453J-2339D01*
G01X15422547Y11702339D02*
Y11702347D01*
G03X15422339Y11702547I-200J0*
G01X15362547Y11762339D02*
G03X15422339Y11702547I57453J-2339D01*
G01X15362547Y11762339D02*
Y11762347D01*
G03X15362339Y11762547I-200J0*
G01X15302547Y11822339D02*
G03X15362339Y11762547I57453J-2339D01*
G01X15302547Y11822339D02*
Y11822347D01*
G03X15302339Y11822547I-200J0*
G01X15267413Y11927375D02*
G03X15302339Y11822547I32587J-47375D01*
G01X15267413Y11927375D02*
G03X15267499Y11927540I-114J165D01*
G01X15267499D02*
Y12012460D01*
X15267499D02*
G03X15267413Y12012625I-200J0D01*
G01X15357453Y12057661D02*
G03X15267413Y12012625I-57453J2339D01*
G01X15357453Y12057661D02*
Y12057653D01*
G03X15357661Y12057453I200J-0*
G01X15362339D02*
G03X15357661I-2339J-57453D01*
G01X15362339D02*
G03X15362547Y12057653I8J200D01*
G01Y12057661*
X15477453D02*
G03X15362547I-57453J2339D01*
G01X15477453D02*
Y12057653D01*
G03X15477661Y12057453I200J-0*
G01X15534146Y11980647D02*
G03X15477661Y12057453I-54146J19353D01*
G01X15534146Y11980647D02*
G03X15534476Y11980438I188J-67D01*
G01X15543403Y11989366*
G03X15543458Y11989543I-141J141*
G01X15602339Y12057453D02*
G03X15543458Y11989544I-2339J-57453D01*
G01X15602339Y12057453D02*
G03X15602547Y12057653I8J200D01*
G01Y12057661*
X15662339Y12117453D02*
G03X15602547Y12057661I-2339J-57453D01*
G01X15662339Y12117453D02*
G03X15662547Y12117653I8J200D01*
G01Y12117661*
X15722339Y12177453D02*
G03X15662547Y12117661I-2339J-57453D01*
G01X15722339Y12177453D02*
G03X15722547Y12177653I8J200D01*
G01Y12177661*
X15807205Y12230658D02*
G03X15722547Y12177661I-27205J-50658D01*
G01X15807205Y12230658D02*
G03X15807499Y12230834I94J176D01*
G01X15807499D02*
Y12312460D01*
X15807499D02*
G03X15807413Y12312625I-200J0D01*
G01X15897453Y12357661D02*
G03X15807413Y12312625I-57453J2339D01*
G01X15897453Y12357661D02*
Y12357653D01*
G03X15897661Y12357453I200J-0*
G01X15902339D02*
G03X15897661I-2339J-57453D01*
G01X15902339D02*
G03X15902547Y12357653I8J200D01*
G01Y12357661*
X15918559Y12399861D02*
G03X15902547Y12357661I41441J-39861D01*
G01X15918559Y12399861D02*
G03Y12400139I-144J139D01*
G01X15944211Y12495290D02*
G03X15918559Y12400139I15789J-55290D01*
G01X15944210Y12495290D02*
G03X15944349Y12495533I-54J192D01*
G01X16056542Y12499544D02*
G03X15944349Y12495533I-56542J10456D01*
G01X16056542Y12499543D02*
G03X16056597Y12499366I196J-36D01*
G01X16090875Y12465088*
X16100394Y12442107D02*
G03X16090875Y12465088I-32501J-0D01*
G01X15146001Y9350000D02*
G03X15146001I-90001J0D01*
G01Y10550000D02*
G03X15146001I-90001J0D01*
G01X15599161Y12302506D02*
G03X15542506Y12359161I839J57494D01*
G01X15599161Y12302506D02*
G03X15599016Y12302447I-3J-200D01*
G01X15580059Y12283490*
G03X15580001Y12283348I142J-142*
G01X15580001D02*
Y12250000D01*
X15568285Y12221715D02*
G03X15580001Y12250000I-28285J28285D01*
G01X15568285Y12221715D02*
X15547553Y12200984D01*
G03X15547494Y12200842I141J-142*
G01Y12200839*
X15444439Y12164922D02*
G03X15547494Y12200839I45561J35078D01*
G01X15444439Y12164921D02*
G03X15444280Y12164999I-159J-122D01*
G01X15444280D02*
X15284581D01*
X15284581D02*
G03X15284439Y12164941I-0J-200D01*
G01X15194749Y12075251*
X15170000Y12064999D02*
G03X15194749Y12075251I0J35001D01*
G01X15170000Y12064999D02*
X14725720D01*
X14725720D02*
G03X14725561Y12064921I-0J-200D01*
G01Y12135078D02*
G03Y12064922I-45561J-35078D01*
G01Y12135079D02*
G03X14725720Y12135001I159J122D01*
G01X14725720D02*
X15155419D01*
X15155419D02*
G03X15155561Y12135059I0J200D01*
G01X15245251Y12224749*
X15270000Y12235001D02*
G03X15245251Y12224749I0J-35001D01*
G01X15270000Y12235001D02*
X15444280D01*
X15444280D02*
G03X15444439Y12235079I0J200D01*
G01X15490839Y12257494D02*
G03X15444439Y12235078I-839J-57494D01*
G01X15490839Y12257494D02*
G03X15490984Y12257553I3J200D01*
G01X15499941Y12266510*
G03X15499999Y12266652I-142J142*
G01X15499999D02*
Y12300000D01*
X15511715Y12328285D02*
G03X15499999Y12300000I28285J-28285D01*
G01X15511715Y12328285D02*
X15542447Y12359016D01*
G03X15542506Y12359158I-141J142*
G01Y12359161*
X15732625Y12447413D02*
G03Y12512587I47375J32587D01*
G01Y12447413D02*
G03X15732460Y12447499I-165J-114D01*
G01X15732460D02*
X15527540D01*
X15527540D02*
G03X15527375Y12447413I-0J-200D01*
G01Y12512587D02*
G03Y12447413I-47375J-32587D01*
G01Y12512587D02*
G03X15527540Y12512501I165J114D01*
G01X15527540D02*
X15732460D01*
X15732460D02*
G03X15732625Y12512587I0J200D01*
G01X16017661Y12742547D02*
G03X16009544Y12856542I2339J57453D01*
G01X16017661Y12742547D02*
G03X16017453Y12742347I-8J-200D01*
G01Y12742339*
X15956362Y12682615D02*
G03X16017453Y12742339I3638J57385D01*
G01X15956362Y12682615D02*
G03X15956154Y12682372I-13J-200D01*
G01X15852625Y12637413D02*
G03X15956154Y12682372I47375J32587D01*
G01X15852625Y12637413D02*
G03X15852460Y12637499I-165J-114D01*
G01X15852460D02*
X15297540D01*
X15297540D02*
G03X15297375Y12637413I-0J-200D01*
G01Y12702587D02*
G03Y12637413I-47375J-32587D01*
G01Y12702587D02*
G03X15297540Y12702501I165J114D01*
G01X15297540D02*
X15852460D01*
X15852460D02*
G03X15852625Y12702587I0J200D01*
G01X15903638Y12727385D02*
G03X15852625Y12702587I-3638J-57385D01*
G01X15903638Y12727385D02*
G03X15903846Y12727628I13J200D01*
G01X15903458Y12750456D02*
G03X15903846Y12727628I56542J-10456D01*
G01X15903458Y12750457D02*
G03X15903403Y12750634I-196J36D01*
G01X15807019Y12847019*
X15797499Y12870000D02*
G03X15807019Y12847019I32501J0D01*
G01X15797499Y12870000D02*
Y12942460D01*
X15797499D02*
G03X15797413Y12942625I-200J0D01*
G01X15832339Y13047453D02*
G03X15797413Y12942625I-2339J-57453D01*
G01X15832339Y13047453D02*
G03X15832547Y13047653I8J200D01*
G01Y13047661*
X15922587Y13002625D02*
G03X15832547Y13047661I-32587J47375D01*
G01X15922587Y13002625D02*
G03X15922501Y13002460I114J-165D01*
G01X15922501D02*
Y12943545D01*
X15922501D02*
G03X15922559Y12943404I200J0D01*
G01X16009366Y12856597*
G03X16009543Y12856542I141J141*
G01X16244580Y12984672D02*
G03X16315328Y13055420I55420J15328D01*
G01X16244580Y12984672D02*
G03X16244529Y12984760I-193J-54D01*
G01X15974760Y13254529*
G03X15974672Y13254580I-142J-142*
G01X16045420Y13325328D02*
G03X15974672Y13254580I-55420J-15328D01*
G01X16045420Y13325328D02*
G03X16045471Y13325240I193J54D01*
G01X16315240Y13055471*
G03X16315328Y13055420I142J142*
G01X16526001Y13773000D02*
G03X16526001I-115001J0D01*
G01Y14027000D02*
G03X16526001I-115001J0D01*
G01X16272001Y13863000D02*
Y13683000D01*
X16247000Y13657999D02*
G03X16272001Y13683000I0J25001D01*
G01X16247000Y13657999D02*
X16067000D01*
X16041999Y13683000D02*
G03X16067000Y13657999I25001J0D01*
G01X16041999Y13683000D02*
Y13863000D01*
X16067000Y13888001D02*
G03X16041999Y13863000I0J-25001D01*
G01X16067000Y13888001D02*
X16247000D01*
X16272001Y13863000D02*
G03X16247000Y13888001I-25001J0D01*
G01X16272001Y14027000D02*
G03X16272001I-115001J0D01*
G01X15711441Y13590139D02*
G03X15622625Y13662587I-41441J39861D01*
G01X15711441Y13590139D02*
G03Y13589861I144J-139D01*
G01X15622625Y13517413D02*
G03X15711441Y13589861I47375J32587D01*
G01X15622625Y13517413D02*
G03X15622460Y13517499I-165J-114D01*
G01X15622460D02*
X15467540D01*
X15467540D02*
G03X15467375Y13517413I-0J-200D01*
G01X15378559Y13589861D02*
G03X15467375Y13517413I41441J-39861D01*
G01X15378559Y13589861D02*
G03Y13590139I-144J139D01*
G01X15467375Y13662587D02*
G03X15378559Y13590139I-47375J-32587D01*
G01X15467375Y13662587D02*
G03X15467540Y13662501I165J114D01*
G01X15467540D02*
X15622460D01*
X15622460D02*
G03X15622625Y13662587I0J200D01*
G01X15319171Y13801918D02*
G03X15262418Y13858671I47829J104582D01*
G01X15319171Y13801917D02*
G03X15318946Y13801877I-83J-181D01*
G01X15240059Y13722990*
G03X15240001Y13722848I142J-142*
G01X15240001D02*
Y13511392D01*
X15240001D02*
G03X15240061Y13511248I200J-0D01*
G01X15159939D02*
G03X15240061I40061J-41248D01*
G01X15159939D02*
G03X15159999Y13511392I-140J144D01*
G01X15159999D02*
Y13739500D01*
X15171715Y13767785D02*
G03X15159999Y13739500I28285J-28285D01*
G01X15171715Y13767785D02*
X15262377Y13858446D01*
G03X15262417Y13858671I-141J142*
G01X15482001Y14160500D02*
G03X15482001I-115001J0D01*
G01X14699161Y12582506D02*
G03X14642506Y12639161I839J57494D01*
G01X14699161Y12582506D02*
G03X14699016Y12582447I-3J-200D01*
G01X14637553Y12520984*
G03X14637494Y12520842I141J-142*
G01Y12520839*
X14580839Y12577494D02*
G03X14637494Y12520839I-839J-57494D01*
G01X14580839Y12577494D02*
G03X14580984Y12577553I3J200D01*
G01X14642447Y12639016*
G03X14642506Y12639158I-141J142*
G01Y12639161*
X14539544Y13163458D02*
G03X14493458Y13209544I10456J56542D01*
G01X14539543Y13163458D02*
G03X14539366Y13163403I-36J-196D01*
G01X14506597Y13130634*
G03X14506542Y13130457I141J-141*
G01X14460456Y13176542D02*
G03X14506542Y13130456I-10456J-56542D01*
G01X14460457Y13176542D02*
G03X14460634Y13176597I36J196D01*
G01X14493403Y13209366*
G03X14493458Y13209543I-141J141*
G01X14168608Y10953639D02*
G03X14123291Y11000492I11392J56361D01*
G01X14168608Y10953639D02*
G03X14168427Y10953585I-39J-196D01*
G01X14168427D02*
X14136415Y10921573D01*
X14136416D02*
G03X14136361Y10921392I141J-142D01*
G01X14089508Y10966709D02*
G03X14136361Y10921392I-9508J-56709D01*
G01X14089508Y10966709D02*
G03X14089682Y10966765I33J197D01*
G01X14123235Y11000318*
G03X14123291Y11000492I-141J141*
G01X13494580Y10454672D02*
G03X13565328Y10525420I55420J15328D01*
G01X13494580Y10454672D02*
G03X13494529Y10454760I-193J-54D01*
G01X13044846Y10904442*
X13030201Y10939798D02*
G03X13044846Y10904442I50001J0D01*
G01X13030201Y10939798D02*
Y13160202D01*
X13044846Y13195558D02*
G03X13030201Y13160202I35356J-35356D01*
G01X13044846Y13195558D02*
X13294529Y13445240D01*
G03X13294580Y13445328I-142J142*
G01X13365328Y13374580D02*
G03X13294580Y13445328I-15328J55420D01*
G01X13365328Y13374580D02*
G03X13365240Y13374529I54J-193D01*
G01X13130261Y13139550*
Y13139549D02*
G03X13130202Y13139408I141J-141D01*
G01Y12439486*
G03X13130574Y12439384I200J0*
G01X13212587Y12362625D02*
G03X13130574Y12439384I-32587J47375D01*
G01X13212587Y12362625D02*
G03X13212501Y12362460I114J-165D01*
G01X13212501D02*
Y11057540D01*
X13212501D02*
G03X13212587Y11057375I200J-0D01*
G01X13130574Y10980616D02*
G03X13212587Y11057375I49426J29384D01*
G01X13130574Y10980616D02*
G03X13130202Y10980514I-172J-102D01*
G01Y10960592*
G03X13130261Y10960450I200J-0*
G01X13130261D02*
X13565240Y10525471D01*
G03X13565328Y10525420I142J142*
G01X13844001Y11100000D02*
G03X13844001I-215001J0D01*
G01X14000190Y11542395D02*
G03Y11607605I99810J32605D01*
G01Y11542395D02*
G03X13999810I-190J-62D01*
G01Y11607605D02*
G03Y11542395I-99810J-32605D01*
G01Y11607605D02*
G03X14000190I190J62D01*
G01Y11792395D02*
G03X14087749Y11929283I99810J32605D01*
G01X14000190Y11792395D02*
G03X13999810I-190J-62D01*
G01X13902620Y11929968D02*
G03X13999810Y11792395I-2620J-104968D01*
G01X13902620Y11929968D02*
G03X13902766Y11930309I5J200D01*
G01X13884038Y11949038*
X13864999Y11995000D02*
G03X13884038Y11949038I65001J0D01*
G01X13864999Y11995000D02*
Y12000000D01*
X13988400Y12028540D02*
G03X13864999Y12000000I-58400J-28540D01*
G01X13988400Y12028540D02*
G03X13988438Y12028487I179J88D01*
G01X14087584Y11929341*
G03X14087749Y11929283I141J141*
G01X13844001Y12300000D02*
G03X13844001I-215001J0D01*
G01X15634001Y9350000D02*
G03X15634001I-90001J0D01*
G01Y10550000D02*
G03X15634001I-90001J0D01*
G01X15617501Y11300000D02*
G03X15617501I-57501J0D01*
G01X16262506Y9760839D02*
G03X16319161Y9817494I57494J-839D01*
G01X16262506Y9760839D02*
Y9760842D01*
G03X16262447Y9760984I-200J0*
G01X16193490Y9829941*
G03X16193348Y9829999I-142J-142*
G01X16193348D02*
X15961392D01*
X15961392D02*
G03X15961248Y9829939I-0J-200D01*
G01Y9910061D02*
G03Y9829939I-41248J-40061D01*
G01Y9910061D02*
G03X15961392Y9910001I144J140D01*
G01X15961392D02*
X16210000D01*
X16238285Y9898285D02*
G03X16210000Y9910001I-28285J-28285D01*
G01X16238285Y9898285D02*
X16319016Y9817553D01*
G03X16319161Y9817495I142J141*
G01X17862506Y11750839D02*
G03X17919161Y11807494I57494J-839D01*
G01X17862506Y11750839D02*
Y11750842D01*
G03X17862447Y11750984I-200J0*
G01X17831715Y11781715*
X17819999Y11810000D02*
G03X17831715Y11781715I40001J0D01*
G01X17819999Y11810000D02*
Y11823348D01*
X17819999D02*
G03X17819941Y11823490I-200J0D01*
G01X17800984Y11842447*
G03X17800839Y11842505I-142J-141*
G01X17857494Y11899161D02*
G03X17800839Y11842506I-57494J839D01*
G01X17857494Y11899161D02*
Y11899158D01*
G03X17857553Y11899016I200J-0*
G01X17888285Y11868285*
X17900001Y11840000D02*
G03X17888285Y11868285I-40001J0D01*
G01X17900001Y11840000D02*
Y11826652D01*
X17900001D02*
G03X17900059Y11826510I200J-0D01*
G01X17919016Y11807553*
G03X17919161Y11807495I142J141*
G01X17908752Y12219939D02*
G03Y12300061I41248J40061D01*
G01Y12219939D02*
G03X17908608Y12219999I-144J-140D01*
G01X17908608D02*
X17841392D01*
X17841392D02*
G03X17841248Y12219939I-0J-200D01*
G01Y12300061D02*
G03Y12219939I-41248J-40061D01*
G01Y12300061D02*
G03X17841392Y12300001I144J140D01*
G01X17841392D02*
X17908608D01*
X17908608D02*
G03X17908752Y12300061I0J200D01*
G01Y12419939D02*
G03Y12500061I41248J40061D01*
G01Y12419939D02*
G03X17908608Y12419999I-144J-140D01*
G01X17908608D02*
X17841392D01*
X17841392D02*
G03X17841248Y12419939I-0J-200D01*
G01Y12500061D02*
G03Y12419939I-41248J-40061D01*
G01Y12500061D02*
G03X17841392Y12500001I144J140D01*
G01X17841392D02*
X17908608D01*
X17908608D02*
G03X17908752Y12500061I0J200D01*
G01X17949161Y12952506D02*
G03X17892506Y13009161I839J57494D01*
G01X17949161Y12952506D02*
G03X17949016Y12952447I-3J-200D01*
G01X17933285Y12936715*
X17905000Y12924999D02*
G03X17933285Y12936715I0J40001D01*
G01X17905000Y12924999D02*
X17881652D01*
X17881652D02*
G03X17881510Y12924941I-0J-200D01*
G01X17857553Y12900984*
G03X17857494Y12900842I141J-142*
G01Y12900839*
X17800839Y12957494D02*
G03X17857494Y12900839I-839J-57494D01*
G01X17800839Y12957494D02*
G03X17800984Y12957553I3J200D01*
G01X17836715Y12993285*
X17865000Y13005001D02*
G03X17836715Y12993285I0J-40001D01*
G01X17865000Y13005001D02*
X17888348D01*
X17888348D02*
G03X17888490Y13005059I0J200D01*
G01X17892447Y13009016*
G03X17892506Y13009158I-141J142*
G01Y13009161*
X18872625Y12827413D02*
G03Y12892587I47375J32587D01*
G01Y12827413D02*
G03X18872460Y12827499I-165J-114D01*
G01X18872460D02*
X18837540D01*
X18837540D02*
G03X18837375Y12827413I-0J-200D01*
G01Y12892587D02*
G03Y12827413I-47375J-32587D01*
G01Y12892587D02*
G03X18837540Y12892501I165J114D01*
G01X18837540D02*
X18872460D01*
X18872460D02*
G03X18872625Y12892587I0J200D01*
G01Y12947413D02*
G03Y13012587I47375J32587D01*
G01Y12947413D02*
G03X18872460Y12947499I-165J-114D01*
G01X18872460D02*
X18723545D01*
X18723545D02*
G03X18723404Y12947441I0J-200D01*
G01X18612981Y12837019*
X18590000Y12827499D02*
G03X18612981Y12837019I0J32501D01*
G01X18590000Y12827499D02*
X18270000D01*
X18247019Y12837019D02*
G03X18270000Y12827499I22981J22981D01*
G01X18247019Y12837019D02*
X18217019Y12867019D01*
X18207499Y12890000D02*
G03X18217019Y12867019I32501J0D01*
G01X18207499Y12890000D02*
Y13077299D01*
X18207499D02*
G03X18207299Y13077499I-200J0D01*
G01X18207299D02*
X18167540D01*
X18167540D02*
G03X18167375Y13077413I-0J-200D01*
G01X18062547Y13112339D02*
G03X18167375Y13077413I57453J-2339D01*
G01X18062547Y13112339D02*
Y13112347D01*
G03X18062339Y13112547I-200J0*
G01X18070456Y13226542D02*
G03X18062339Y13112547I-10456J-56542D01*
G01X18070457Y13226542D02*
G03X18070634Y13226597I36J196D01*
G01X18107019Y13262981*
X18112108Y13267133D02*
G03X18107019Y13262981I17892J-27133D01*
G01X18112108Y13267133D02*
G03X18111998Y13267499I-110J166D01*
G01X18111998D02*
X18047540D01*
X18047540D02*
G03X18047375Y13267413I-0J-200D01*
G01X17943846Y13312372D02*
G03X18047375Y13267413I56154J-12372D01*
G01X17943846Y13312372D02*
G03X17943638Y13312615I-195J43D01*
G01X17987375Y13402587D02*
G03X17943638Y13312615I-47375J-32587D01*
G01X17987375Y13402587D02*
G03X17987540Y13402501I165J114D01*
G01X17987540D02*
X18402460D01*
X18402460D02*
G03X18402625Y13402587I0J200D01*
G01X18494844Y13405991D02*
G03X18402625Y13402587I-44844J-35991D01*
G01X18494844Y13405991D02*
G03X18495156I156J125D01*
G01X18529544Y13313458D02*
G03X18495156Y13405991I10456J56542D01*
G01X18529543Y13313458D02*
G03X18529366Y13313403I-36J-196D01*
G01X18492981Y13277019*
X18487892Y13272867D02*
G03X18492981Y13277019I-17892J27133D01*
G01X18487892Y13272867D02*
G03X18488002Y13272501I110J-166D01*
G01X18488002D02*
X18736455D01*
X18736455D02*
G03X18736596Y13272559I-0J200D01*
G01X18793403Y13329366*
G03X18793458Y13329543I-141J141*
G01X18896008Y13305509D02*
G03X18793458Y13329544I-46008J34491D01*
G01X18896008Y13305509D02*
G03X18896112Y13305197I160J-120D01*
G01X18879161Y13192506D02*
G03X18896111Y13305197I839J57494D01*
G01X18879161Y13192506D02*
G03X18879016Y13192447I-3J-200D01*
G01X18696605Y13010036*
G03X18696827Y13009712I141J-142*
G01X18710000Y13012500D02*
G03X18696828Y13009711I0J-32500D01*
G01X18710000Y13012501D02*
X18872460D01*
X18872460D02*
G03X18872625Y13012587I0J200D01*
G01X18803458Y13550456D02*
G03X18849544Y13596542I56542J-10456D01*
G01X18803458Y13550457D02*
G03X18803403Y13550634I-196J36D01*
G01X18555510Y13798527*
G03X18555174Y13798342I-141J-141*
G01X18376943Y13867136D02*
G03X18555174Y13798342I66057J-94136D01*
G01X18376942Y13867136D02*
G03X18376828Y13867499I-114J163D01*
G01X18376828D02*
X18255172D01*
X18255172D02*
G03X18255058Y13867136I0J-200D01*
G01X18122943D02*
G03X18255057I66057J-94136D01*
G01X18122942D02*
G03X18122828Y13867499I-114J163D01*
G01X18122828D02*
X18075545D01*
X18075545D02*
G03X18075404Y13867441I0J-200D01*
G01X18036090Y13828127*
G03X18036056Y13827890I141J-141*
G01X17989890Y13874055D02*
G03X18036055Y13827890I-54890J-101055D01*
G01X17989890Y13874056D02*
G03X17990127Y13874090I96J175D01*
G01X18039019Y13922981*
X18062000Y13932501D02*
G03X18039019Y13922981I0J-32501D01*
G01X18062000Y13932501D02*
X18122828D01*
X18122828D02*
G03X18122942Y13932864I-0J200D01*
G01X18255057D02*
G03X18122943I-66057J94136D01*
G01X18255058D02*
G03X18255172Y13932501I114J-163D01*
G01X18255172D02*
X18376828D01*
X18376828D02*
G03X18376942Y13932864I-0J200D01*
G01X18507692Y13931921D02*
G03X18376943Y13932864I-64692J95079D01*
G01X18507692Y13931921D02*
G03X18507757Y13931561I113J-166D01*
G01X18522981Y13922981D02*
G03X18507757Y13931561I-22981J-22981D01*
G01X18522981Y13922981D02*
X18849366Y13596597D01*
G03X18849543Y13596542I141J141*
G01X21570626Y13934528D02*
X21574500Y13938402D01*
X21116883Y13455329D02*
X21574500Y13912947D01*
X21132359Y13445350D02*
X21574500Y13887491D01*
X21145776Y13433311D02*
X21574500Y13862035D01*
X21157186Y13419266D02*
X21574500Y13836579D01*
X21166487Y13403110D02*
X21574500Y13811123D01*
X21251967Y13463135D02*
X21574500Y13785668D01*
X21302083Y13487795D02*
X21574500Y13760212D01*
X21329602Y13489858D02*
X21574500Y13734756D01*
X21351665Y13486465D02*
X21574500Y13709300D01*
X21370394Y13479738D02*
X21574500Y13683844D01*
X21386578Y13470466D02*
X21574500Y13658389D01*
X21400556Y13458989D02*
X21574500Y13632933D01*
X21412437Y13445414D02*
X21574500Y13607477D01*
X21422148Y13429669D02*
X21574500Y13582021D01*
X21429403Y13411469D02*
X21574500Y13556565D01*
X21433532Y13390142D02*
X21574500Y13531110D01*
X21432828Y13363982D02*
X21574500Y13505654D01*
X21419211Y13324909D02*
X21574500Y13480198D01*
X21079496Y12959738D02*
X21574500Y13454742D01*
X21099947Y12954733D02*
X21574500Y13429286D01*
X21117607Y12946937D02*
X21574500Y13403831D01*
X21132990Y12936864D02*
X21574500Y13378375D01*
X21146318Y12924737D02*
X21574500Y13352919D01*
X21157640Y12910603D02*
X21574500Y13327463D01*
X21166843Y12894350D02*
X21574500Y13302007D01*
X21173610Y12875661D02*
X21574500Y13276552D01*
X21177234Y12853830D02*
X21574500Y13251096D01*
X21252170Y12903310D02*
X21574500Y13225640D01*
X21302118Y12927802D02*
X21574500Y13200184D01*
X21329628Y12929856D02*
X21574500Y13174728D01*
X21351687Y12926459D02*
X21574500Y13149273D01*
X21370413Y12919730D02*
X21574500Y13123817D01*
X21386594Y12910455D02*
X21574500Y13098361D01*
X21400570Y12898975D02*
X21574500Y13072905D01*
X21412449Y12885398D02*
X21574500Y13047449D01*
X21422157Y12869651D02*
X21574500Y13021994D01*
X21429410Y12851447D02*
X21574500Y12996538D01*
X21433534Y12830116D02*
X21574500Y12971082D01*
X21432823Y12803949D02*
X21574500Y12945626D01*
X21419173Y12764843D02*
X21574500Y12920170D01*
X21090286Y12410501D02*
X21574500Y12894715D01*
X21115742Y12410501D02*
X21574500Y12869259D01*
X21141197Y12410501D02*
X21574500Y12843803D01*
X21166653Y12410501D02*
X21574500Y12818347D01*
X21192109Y12410501D02*
X21574500Y12792891D01*
X21217565Y12410501D02*
X21574500Y12767436D01*
X21243021Y12410501D02*
X21574500Y12741980D01*
X21268477Y12410501D02*
X21574500Y12716524D01*
X21293932Y12410501D02*
X21574500Y12691068D01*
X21319388Y12410501D02*
X21574500Y12665612D01*
X21344844Y12410501D02*
X21574500Y12640157D01*
X21370300Y12410501D02*
X21574500Y12614701D01*
X21395756Y12410501D02*
X21574500Y12589245D01*
X21421211Y12410501D02*
X21574500Y12563789D01*
X21446667Y12410501D02*
X21574500Y12538333D01*
X21472123Y12410501D02*
X21574500Y12512878D01*
X21497579Y12410501D02*
X21574500Y12487422D01*
X21523035Y12410501D02*
X21574500Y12461966D01*
X21548490Y12410501D02*
X21574500Y12436510D01*
X21573946Y12410501D02*
X21574500Y12411054D01*
X18265313Y9025500D02*
X21574500Y12334687D01*
X18290769Y9025500D02*
X21574500Y12309231D01*
X18316224Y9025500D02*
X21574500Y12283775D01*
X18341680Y9025500D02*
X21574500Y12258320D01*
X18367136Y9025500D02*
X21574500Y12232864D01*
X18392592Y9025500D02*
X21574500Y12207408D01*
X18418048Y9025500D02*
X21574500Y12181952D01*
X18443503Y9025500D02*
X21574500Y12156496D01*
X18468959Y9025500D02*
X21574500Y12131041D01*
X21276341Y11807426D02*
X21574500Y12105585D01*
X21304288Y11809917D02*
X21574500Y12080129D01*
X21326570Y11806743D02*
X21574500Y12054673D01*
X21345453Y11800171D02*
X21574500Y12029217D01*
X21361763Y11791025D02*
X21574500Y12003762D01*
X21375856Y11779662D02*
X21574500Y11978306D01*
X21387850Y11766200D02*
X21574500Y11952850D01*
X21397683Y11750578D02*
X21574500Y11927394D01*
X21405083Y11732522D02*
X21574500Y11901938D01*
X21409409Y11711392D02*
X21574500Y11876483D01*
X21409051Y11685578D02*
X21574500Y11851027D01*
X21396939Y11648010D02*
X21574500Y11825571D01*
X18799885Y9025500D02*
X21574500Y11800115D01*
X18825340Y9025500D02*
X21574500Y11774659D01*
X18850796Y9025500D02*
X21574500Y11749204D01*
X18876252Y9025500D02*
X21574500Y11723748D01*
X18901708Y9025500D02*
X21574500Y11698292D01*
X18927164Y9025500D02*
X21574500Y11672836D01*
X18952619Y9025500D02*
X21574500Y11647380D01*
X18978075Y9025500D02*
X21574500Y11621925D01*
X19003531Y9025500D02*
X21574500Y11596469D01*
X19028987Y9025500D02*
X21574500Y11571013D01*
X19054443Y9025500D02*
X21574500Y11545557D01*
X19281226Y9226827D02*
X21574500Y11520101D01*
X19305286Y9225432D02*
X21574500Y11494646D01*
X19322645Y9217335D02*
X21574500Y11469190D01*
X19340766Y9210001D02*
X21574500Y11443734D01*
X20557810Y10401588D02*
X21574500Y11418278D01*
X20591336Y10409659D02*
X21574500Y11392822D01*
X20615969Y10408835D02*
X21574500Y11367367D01*
X20636395Y10403805D02*
X21574500Y11341911D01*
X20653922Y10395877D02*
X21574500Y11316455D01*
X20669094Y10385593D02*
X21574500Y11290999D01*
X20682131Y10373175D02*
X21574500Y11265543D01*
X20693061Y10358649D02*
X21574500Y11240088D01*
X20701726Y10341857D02*
X21574500Y11214632D01*
X20707701Y10322377D02*
X21574500Y11189176D01*
X20709998Y10299218D02*
X21574500Y11163720D01*
X20705668Y10269433D02*
X21574500Y11138264D01*
X19487191Y9025500D02*
X21574500Y11112809D01*
X19512647Y9025500D02*
X21574500Y11087353D01*
X19538103Y9025500D02*
X21574500Y11061897D01*
X19563559Y9025500D02*
X21574500Y11036441D01*
X19589014Y9025500D02*
X21574500Y11010985D01*
X19614470Y9025500D02*
X21574500Y10985530D01*
X19639926Y9025500D02*
X21574500Y10960074D01*
X19665382Y9025500D02*
X21574500Y10934618D01*
X19690838Y9025500D02*
X21574500Y10909162D01*
X19716293Y9025500D02*
X21574500Y10883706D01*
X19741749Y9025500D02*
X21574500Y10858251D01*
X19767205Y9025500D02*
X21574500Y10832795D01*
X19792661Y9025500D02*
X21574500Y10807339D01*
X19818117Y9025500D02*
X21574500Y10781883D01*
X19843572Y9025500D02*
X21574500Y10756427D01*
X19869028Y9025500D02*
X21574500Y10730972D01*
X21276430Y10407446D02*
X21574500Y10705516D01*
X21304354Y10409914D02*
X21574500Y10680060D01*
X21326625Y10406730D02*
X21574500Y10654604D01*
X21345501Y10400149D02*
X21574500Y10629148D01*
X21361804Y10390997D02*
X21574500Y10603693D01*
X21375891Y10379628D02*
X21574500Y10578237D01*
X21387880Y10366161D02*
X21574500Y10552781D01*
X21397707Y10350532D02*
X21574500Y10527325D01*
X21405099Y10332469D02*
X21574500Y10501869D01*
X21409416Y10311329D02*
X21574500Y10476414D01*
X21409040Y10285498D02*
X21574500Y10450958D01*
X21396859Y10247861D02*
X21574500Y10425502D01*
X20199954Y9025500D02*
X21574500Y10400046D01*
X20225409Y9025500D02*
X21574500Y10374590D01*
X20250865Y9025500D02*
X21574500Y10349135D01*
X20276321Y9025500D02*
X21574500Y10323679D01*
X20301777Y9025500D02*
X21574500Y10298223D01*
X20327233Y9025500D02*
X21574500Y10272767D01*
X20352688Y9025500D02*
X21574500Y10247311D01*
X20378144Y9025500D02*
X21574500Y10221856D01*
X20403600Y9025500D02*
X21574500Y10196400D01*
X20429056Y9025500D02*
X21574500Y10170944D01*
X20454512Y9025500D02*
X21574500Y10145488D01*
X20479968Y9025500D02*
X21574500Y10120032D01*
X20505423Y9025500D02*
X21574500Y10094577D01*
X21086493Y9581113D02*
X21574500Y10069121D01*
X21147679Y9616844D02*
X21574500Y10043665D01*
X21187997Y9631706D02*
X21574500Y10018209D01*
X21221425Y9639678D02*
X21574500Y9992753D01*
X21250897Y9643695D02*
X21574500Y9967298D01*
X21277650Y9644992D02*
X21574500Y9941842D01*
X21302345Y9644231D02*
X21574500Y9916386D01*
X21325386Y9641816D02*
X21574500Y9890930D01*
X21347037Y9638012D02*
X21574500Y9865474D01*
X21367486Y9633004D02*
X21574500Y9840019D01*
X21386866Y9626928D02*
X21574500Y9814563D01*
X21405278Y9619885D02*
X21574500Y9789107D01*
X21422798Y9611949D02*
X21574500Y9763651D01*
X21439484Y9603179D02*
X21574500Y9738195D01*
X21455379Y9593619D02*
X21574500Y9712740D01*
X21470518Y9583302D02*
X21574500Y9687284D01*
X21484924Y9572252D02*
X21574500Y9661828D01*
X21498614Y9560486D02*
X21574500Y9636372D01*
X21511595Y9548011D02*
X21574500Y9610916D01*
X21523871Y9534831D02*
X21574500Y9585461D01*
X21535437Y9520941D02*
X21574500Y9560005D01*
X21546282Y9506331D02*
X21574500Y9534549D01*
X21556389Y9490982D02*
X21574500Y9509093D01*
X21565730Y9474867D02*
X21574500Y9483637D01*
X18239857Y9025500D02*
X21553857Y12339499D01*
X18214401Y9025500D02*
X21528401Y12339499D01*
X18188945Y9025500D02*
X21502945Y12339499D01*
X18163490Y9025500D02*
X21477489Y12339499D01*
X18138034Y9025500D02*
X21452033Y12339499D01*
X18112578Y9025500D02*
X21426578Y12339499D01*
X21099114Y13463016D02*
X21425472Y13789374D01*
X18087122Y9025500D02*
X21401122Y12339499D01*
X21078521Y13467879D02*
X21382093Y13771451D01*
X21064830Y12410501D02*
X21379157Y12724827D01*
X21055062Y12960760D02*
X21379091Y13284789D01*
X20705696Y11669530D02*
X21375666Y12339499D01*
X20174498Y9025500D02*
X21352139Y10203141D01*
X18774429Y9025500D02*
X21351990Y11603061D01*
X20709998Y11699287D02*
X21350210Y12339499D01*
X21053862Y13468676D02*
X21347211Y13762025D01*
X21039374Y12410501D02*
X21340051Y12711177D01*
X21022763Y12953917D02*
X21340018Y13271172D01*
X20707689Y11722434D02*
X21324754Y12339499D01*
X21020970Y13461240D02*
X21316822Y13757092D01*
X20149042Y9025500D02*
X21314502Y10190960D01*
X18748973Y9025500D02*
X21314422Y11590949D01*
X21013918Y12410501D02*
X21313884Y12710466D01*
X20894844Y12851454D02*
X21313858Y13270468D01*
X20701705Y11741906D02*
X21299299Y12339499D01*
X20988463Y12410501D02*
X21292553Y12714590D01*
X20891049Y12873114D02*
X21292531Y13274597D01*
X20894778Y13360503D02*
X21289410Y13755136D01*
X20123586Y9025500D02*
X21288671Y10190584D01*
X18723517Y9025500D02*
X21288608Y11590591D01*
X20963007Y12410501D02*
X21274349Y12721843D01*
X20883601Y12891122D02*
X21274331Y13281852D01*
X20693035Y11758691D02*
X21273843Y12339499D01*
X20098130Y9025500D02*
X21267531Y10194901D01*
X18698061Y9025500D02*
X21267478Y11594917D01*
X20890789Y13381971D02*
X21264202Y13755384D01*
X20937551Y12410501D02*
X21258602Y12731551D01*
X20873371Y12906348D02*
X21258586Y13291563D01*
X20072675Y9025500D02*
X21249468Y10202293D01*
X18672606Y9025500D02*
X21249422Y11602317D01*
X20682099Y11773211D02*
X21248387Y12339499D01*
X20912095Y12410501D02*
X21245025Y12743430D01*
X20860671Y12919104D02*
X21245011Y13303444D01*
X21173371Y13384539D02*
X21240865Y13452033D01*
X20883207Y13399844D02*
X21240742Y13757379D01*
X21175932Y12827072D02*
X21240690Y12891830D01*
X20047219Y9025500D02*
X21233839Y10212120D01*
X18647150Y9025500D02*
X21233800Y11612150D01*
X20886639Y12410501D02*
X21233545Y12757406D01*
X20845505Y12929393D02*
X21233534Y13317422D01*
X20861184Y12410501D02*
X21224270Y12773587D01*
X20827568Y12936913D02*
X21224262Y13333606D01*
X20669056Y11785624D02*
X21222931Y12339499D01*
X20021763Y9025500D02*
X21220372Y10224109D01*
X18621694Y9025500D02*
X21220338Y11624144D01*
X20872865Y13414958D02*
X21218733Y13760826D01*
X20835728Y12410501D02*
X21217541Y12792313D01*
X21162618Y13297418D02*
X21217535Y13352335D01*
X21177158Y13362870D02*
X21216205Y13401917D01*
X21161057Y12786742D02*
X21216198Y12841882D01*
X20810272Y12410501D02*
X21214144Y12814372D01*
X21176146Y13336402D02*
X21214142Y13374398D01*
X19996307Y9025500D02*
X21209003Y10238196D01*
X18596238Y9025500D02*
X21208975Y11638237D01*
X19970851Y9025500D02*
X21199851Y10254499D01*
X18570782Y9025500D02*
X21199829Y11654547D01*
X20860059Y13427607D02*
X21197972Y13765521D01*
X20653878Y11795902D02*
X21197475Y12339499D01*
X19945396Y9025500D02*
X21193270Y10273375D01*
X18545327Y9025500D02*
X21193257Y11673430D01*
X18494415Y9025500D02*
X21192574Y11723659D01*
X19894484Y9025500D02*
X21192554Y10323570D01*
X19919940Y9025500D02*
X21190086Y10295646D01*
X18519871Y9025500D02*
X21190083Y11695712D01*
X20844780Y13437785D02*
X21178313Y13771317D01*
X20636343Y11803823D02*
X21172020Y12339499D01*
X20826708Y13445169D02*
X21159645Y13778106D01*
X20615908Y11808844D02*
X21146564Y12339499D01*
X20804955Y13448871D02*
X21141889Y13785805D01*
X21116363Y9025500D02*
X21125133Y9034270D01*
X20776736Y13446108D02*
X21124981Y13794353D01*
X20784816Y12410501D02*
X21121758Y12747442D01*
X20591261Y11809653D02*
X21121108Y12339499D01*
X21085577Y14340432D02*
X21119645Y14374500D01*
X20806010Y12940810D02*
X21119082Y13253882D01*
X21090907Y9025500D02*
X21109018Y9043612D01*
X19222002Y11916830D02*
X21108873Y13803701D01*
X20557691Y11801539D02*
X21095652Y12339499D01*
X19150623Y12430935D02*
X21094189Y14374500D01*
X21065451Y9025500D02*
X21093669Y9053718D01*
X19202788Y11923072D02*
X21093531Y13813815D01*
X20759360Y12410501D02*
X21081428Y12732568D01*
X20778212Y12938468D02*
X21080098Y13240354D01*
X21039995Y9025500D02*
X21079059Y9064563D01*
X19287539Y12033279D02*
X21078927Y13824667D01*
X18839343Y10108646D02*
X21070196Y12339499D01*
X18776733Y12082501D02*
X21068733Y14374500D01*
X21014539Y9025500D02*
X21065169Y9076129D01*
X19291986Y12063182D02*
X21065044Y13836239D01*
X20733905Y12410501D02*
X21054670Y12731266D01*
X20892458Y13078170D02*
X21053630Y13239342D01*
X20989084Y9025500D02*
X21051989Y9088405D01*
X19289953Y12086604D02*
X21051870Y13848522D01*
X18805241Y10100001D02*
X21044741Y12339499D01*
X18751277Y12082501D02*
X21043277Y14374500D01*
X20963628Y9025500D02*
X21039514Y9101386D01*
X19284291Y12106398D02*
X21039402Y13861509D01*
X20708449Y12410501D02*
X21032839Y12734890D01*
X20894812Y13105980D02*
X21031961Y13243129D01*
X20938172Y9025500D02*
X21027748Y9115076D01*
X19275983Y12123545D02*
X21027642Y13875205D01*
X19179125Y12433981D02*
X21019568Y14274423D01*
X18779786Y10100001D02*
X21019285Y12339499D01*
X20530879Y9025500D02*
X21018887Y9513507D01*
X18725822Y12082501D02*
X21017821Y14374500D01*
X20912716Y9025500D02*
X21016698Y9129482D01*
X19265463Y12138481D02*
X21016599Y13889618D01*
X20682993Y12410501D02*
X21014150Y12741657D01*
X20890920Y13127544D02*
X21013390Y13250013D01*
X20887260Y9025500D02*
X21006381Y9144621D01*
X19252912Y12151386D02*
X21006289Y13904764D01*
X20657537Y12410501D02*
X20997897Y12750860D01*
X20883405Y13145484D02*
X20997234Y13259314D01*
X20861805Y9025500D02*
X20996821Y9160516D01*
X19238343Y12162273D02*
X20996737Y13920667D01*
X18754330Y10100001D02*
X20993829Y12339499D01*
X18700366Y12082501D02*
X20992366Y14374500D01*
X20836349Y9025500D02*
X20988051Y9177202D01*
X19221610Y12170996D02*
X20987974Y13937360D01*
X20632081Y12410501D02*
X20983763Y12762182D01*
X19201878Y12431277D02*
X20983345Y14212745D01*
X20873118Y13160653D02*
X20983189Y13270724D01*
X20556335Y9025500D02*
X20983156Y9452321D01*
X20810893Y9025500D02*
X20980115Y9194722D01*
X19202334Y12177175D02*
X20980046Y13954888D01*
X20785437Y9025500D02*
X20973072Y9213134D01*
X19287759Y12288057D02*
X20973011Y13973308D01*
X20606626Y12410501D02*
X20971636Y12775510D01*
X20860365Y13173356D02*
X20971150Y13284141D01*
X19221216Y12425160D02*
X20968392Y14172336D01*
X18728858Y10099984D02*
X20968373Y12339499D01*
X20581791Y9025500D02*
X20968294Y9412003D01*
X20759981Y9025500D02*
X20966996Y9232514D01*
X19291994Y12317747D02*
X20966945Y13992698D01*
X19914708Y13322298D02*
X20966910Y14374500D01*
X20734526Y9025500D02*
X20961988Y9252963D01*
X19289863Y12341072D02*
X20961948Y14013157D01*
X20581170Y12410501D02*
X20961563Y12790893D01*
X20845143Y13183590D02*
X20961171Y13299617D01*
X19238001Y12416489D02*
X20960374Y14138862D01*
X20607247Y9025500D02*
X20960322Y9378575D01*
X20709070Y9025500D02*
X20958184Y9274614D01*
X19284135Y12360800D02*
X20958155Y14034820D01*
X19252614Y12405647D02*
X20956328Y14109361D01*
X20632702Y9025500D02*
X20956305Y9349103D01*
X20683614Y9025500D02*
X20955769Y9297655D01*
X19275775Y12377896D02*
X20955753Y14057874D01*
X20892627Y13332897D02*
X20955260Y13395530D01*
X19265209Y12392786D02*
X20955010Y14082586D01*
X20658158Y9025500D02*
X20955008Y9322350D01*
X20892282Y12823436D02*
X20954583Y12885737D01*
X20555714Y12410501D02*
X20953767Y12808553D01*
X20827139Y13191042D02*
X20953484Y13317386D01*
X20530258Y12410501D02*
X20948762Y12829005D01*
X20805484Y13194842D02*
X20948621Y13337979D01*
X20777478Y13192292D02*
X20947824Y13362638D01*
X20504802Y12410501D02*
X20947740Y12853438D01*
X18560051Y9956633D02*
X20942917Y12339499D01*
X19916673Y13349719D02*
X20941454Y14374500D01*
X17603462Y9025500D02*
X20917462Y12339499D01*
X19909961Y13368463D02*
X20915998Y14374500D01*
X17578006Y9025500D02*
X20892006Y12339499D01*
X19898632Y13382590D02*
X20890542Y14374500D01*
X17552550Y9025500D02*
X20866550Y12339499D01*
X19892501Y13401914D02*
X20865087Y14374500D01*
X17527094Y9025500D02*
X20841094Y12339499D01*
X19891807Y13426677D02*
X20839631Y14374500D01*
X20479347Y12410501D02*
X20822564Y12753718D01*
X20224789Y12410501D02*
X20821830Y13007542D01*
X20436037Y12876307D02*
X20821103Y13261373D01*
X17501639Y9025500D02*
X20815638Y12339499D01*
X19882819Y13443144D02*
X20814175Y14374500D01*
X20453891Y12410501D02*
X20794546Y12751156D01*
X20199333Y12410501D02*
X20794020Y13005188D01*
X20423074Y12888799D02*
X20793497Y13259222D01*
X17476183Y9025500D02*
X20790183Y12339499D01*
X19870091Y13455872D02*
X20788719Y14374500D01*
X20428435Y12410501D02*
X20772886Y12754951D01*
X20173877Y12410501D02*
X20772456Y13009080D01*
X20408077Y12899258D02*
X20772029Y13263211D01*
X17450727Y9025500D02*
X20764727Y12339499D01*
X19857363Y13468600D02*
X20763263Y14374500D01*
X20402979Y12410501D02*
X20754878Y12762399D01*
X20148421Y12410501D02*
X20754516Y13016595D01*
X20390860Y12907497D02*
X20754156Y13270793D01*
X20377523Y12410501D02*
X20739652Y12772629D01*
X20434954Y12722489D02*
X20739347Y13026882D01*
X17425271Y9025500D02*
X20739271Y12339499D01*
X20370978Y12913071D02*
X20739042Y13281135D01*
X19844635Y13481328D02*
X20737808Y14374500D01*
X20352068Y12410501D02*
X20726896Y12785329D01*
X20462319Y12775310D02*
X20726644Y13039635D01*
X20347423Y12914972D02*
X20726393Y13293941D01*
X20326612Y12410501D02*
X20716607Y12800495D01*
X20464950Y12803397D02*
X20716410Y13054857D01*
X20317227Y12910232D02*
X20716215Y13309220D01*
X17399815Y9025500D02*
X20713815Y12339499D01*
X19831907Y13494056D02*
X20712352Y14374500D01*
X20301156Y12410501D02*
X20709087Y12818432D01*
X20462037Y12825939D02*
X20708958Y13072861D01*
X19265715Y11884176D02*
X20708831Y13327292D01*
X19238685Y11908057D02*
X20707892Y13377264D01*
X20446985Y12861799D02*
X20707708Y13122522D01*
X20250244Y12410501D02*
X20707532Y12867788D01*
X20275700Y12410501D02*
X20705190Y12839990D01*
X20455774Y12845132D02*
X20705158Y13094516D01*
X19253208Y11897125D02*
X20705129Y13349045D01*
X17526057Y9177198D02*
X20688359Y12339499D01*
X19819179Y13506783D02*
X20686896Y14374500D01*
X17526085Y9202681D02*
X20662904Y12339499D01*
X19806451Y13519511D02*
X20661440Y14374500D01*
X17518630Y9220682D02*
X20637448Y12339499D01*
X19797352Y13535868D02*
X20635984Y14374500D01*
X19461735Y9025500D02*
X20630567Y10194332D01*
X18061666Y9025500D02*
X20630470Y11594304D01*
X17506731Y9234239D02*
X20611992Y12339499D01*
X19794465Y13558436D02*
X20610529Y14374500D01*
X19565408Y9154628D02*
X20600782Y10190002D01*
X18036210Y9025500D02*
X20600712Y11590002D01*
X17490687Y9243650D02*
X20586536Y12339499D01*
X19785600Y13575028D02*
X20585073Y14374500D01*
X19566420Y9181096D02*
X20577623Y10192299D01*
X18010755Y9025500D02*
X20577566Y11592311D01*
X17469074Y9247493D02*
X20561080Y12339499D01*
X19772531Y13587414D02*
X20559617Y14374500D01*
X19559361Y9199493D02*
X20558143Y10198275D01*
X17985299Y9025500D02*
X20558094Y11598295D01*
X19547769Y9213357D02*
X20541351Y10206939D01*
X17959843Y9025500D02*
X20541309Y11606965D01*
X19510501Y11314376D02*
X20535625Y12339499D01*
X19755134Y13595473D02*
X20534161Y14374500D01*
X19532058Y9223101D02*
X20526825Y10217869D01*
X17934387Y9025500D02*
X20526789Y11617901D01*
X19510993Y9227492D02*
X20514407Y10230906D01*
X18924183Y10040752D02*
X20514376Y11630944D01*
X19510501Y11339831D02*
X20510169Y12339499D01*
X19730997Y13596791D02*
X20508705Y14374500D01*
X19468045Y9210001D02*
X20504123Y10246078D01*
X18926817Y10068841D02*
X20504098Y11646122D01*
X18873544Y10117391D02*
X20498461Y11742309D01*
X19366222Y9210001D02*
X20498412Y10342191D01*
X19442590Y9210001D02*
X20496195Y10263606D01*
X18920329Y10087809D02*
X20496177Y11663657D01*
X19417134Y9210001D02*
X20491165Y10284031D01*
X18909165Y10102100D02*
X20491156Y11684092D01*
X18893905Y10112296D02*
X20490347Y11708739D01*
X19391678Y9210001D02*
X20490341Y10308664D01*
X19510501Y11365287D02*
X20484713Y12339499D01*
X18976917Y12868168D02*
X20483250Y14374500D01*
X19510501Y11390743D02*
X20459257Y12339499D01*
X18970602Y12887308D02*
X20457794Y14374500D01*
X19510501Y11416199D02*
X20433801Y12339499D01*
X18959564Y12901726D02*
X20432338Y14374500D01*
X20122965Y12410501D02*
X20427511Y12715046D01*
X19510501Y11441655D02*
X20408346Y12339499D01*
X18944433Y12912051D02*
X20406882Y14374500D01*
X19510501Y11467110D02*
X20382890Y12339499D01*
X20096558Y14089632D02*
X20381426Y14374500D01*
X20097510Y12410501D02*
X20374690Y12687681D01*
X19510501Y11492566D02*
X20357434Y12339499D01*
X20095710Y14114239D02*
X20355970Y14374500D01*
X20072054Y12410501D02*
X20346603Y12685050D01*
X19510501Y11518022D02*
X20331978Y12339499D01*
X20087870Y14131855D02*
X20330515Y14374500D01*
X20046598Y12410501D02*
X20324061Y12687963D01*
X19510501Y11543478D02*
X20306522Y12339499D01*
X20075663Y14145105D02*
X20305059Y14374500D01*
X19253504Y11642862D02*
X20304867Y12694226D01*
X19239026Y11653840D02*
X20288201Y12703015D01*
X19510501Y11568934D02*
X20281067Y12339499D01*
X20059276Y14154173D02*
X20279603Y14374500D01*
X19222393Y11662663D02*
X20273693Y12713963D01*
X19203241Y11668967D02*
X20261201Y12726926D01*
X19510501Y11594389D02*
X20255611Y12339499D01*
X20037073Y14157426D02*
X20254147Y14374500D01*
X19287310Y11778492D02*
X20250742Y12741923D01*
X19291976Y11808613D02*
X20242503Y12759140D01*
X19276189Y11869194D02*
X20239768Y12832773D01*
X19290042Y11832135D02*
X20236929Y12779022D01*
X19284446Y11851995D02*
X20235028Y12802577D01*
X19510501Y11619845D02*
X20230155Y12339499D01*
X19986692Y14132501D02*
X20228691Y14374500D01*
X19510501Y11645301D02*
X20204699Y12339499D01*
X19961236Y14132501D02*
X20203236Y14374500D01*
X19510501Y11670757D02*
X20179243Y12339499D01*
X19935780Y14132501D02*
X20177780Y14374500D01*
X19510501Y11696213D02*
X20153788Y12339499D01*
X19910325Y14132501D02*
X20152324Y14374500D01*
X19510501Y11721668D02*
X20128332Y12339499D01*
X19884869Y14132501D02*
X20126868Y14374500D01*
X19510501Y11747124D02*
X20102876Y12339499D01*
X19859413Y14132501D02*
X20101412Y14374500D01*
X19510501Y11772580D02*
X20077420Y12339499D01*
X19833957Y14132501D02*
X20075957Y14374500D01*
X19808501Y14132501D02*
X20050501Y14374500D01*
X18976558Y12969632D02*
X20050368Y14043442D01*
X18975710Y12994239D02*
X20025761Y14044290D01*
X19783046Y14132501D02*
X20025045Y14374500D01*
X18967870Y13011855D02*
X20008145Y14052130D01*
X19757590Y14132501D02*
X19999589Y14374500D01*
X18955663Y13025105D02*
X19994895Y14064337D01*
X19732134Y14132501D02*
X19974133Y14374500D01*
X18939276Y13034173D02*
X19972603Y14067499D01*
X19706678Y14132501D02*
X19948678Y14374500D01*
X18917073Y13037426D02*
X19947147Y14067499D01*
X19681222Y14132501D02*
X19923222Y14374500D01*
X18866692Y13012501D02*
X19921691Y14067499D01*
X19655767Y14132501D02*
X19897766Y14374500D01*
X18841236Y13012501D02*
X19896235Y14067499D01*
X18674910Y12082501D02*
X19877702Y13285292D01*
X19630311Y14132501D02*
X19872310Y14374500D01*
X18815780Y13012501D02*
X19870779Y14067499D01*
X18649454Y12082501D02*
X19850281Y13283327D01*
X19604855Y14132501D02*
X19846854Y14374500D01*
X18790324Y13012501D02*
X19845324Y14067499D01*
X18623998Y12082501D02*
X19831537Y13290039D01*
X19826172Y13386497D02*
X19827499Y13387825D01*
X18496534Y12082315D02*
X19824128Y13409909D01*
X19579399Y14132501D02*
X19821399Y14374500D01*
X18764869Y13012501D02*
X19819868Y14067499D01*
X18598543Y12082501D02*
X19817410Y13301368D01*
X18522175Y12082501D02*
X19813503Y13373828D01*
X18371264Y11982501D02*
X19811400Y13422637D01*
X18573087Y12082501D02*
X19807387Y13316801D01*
X18547631Y12082501D02*
X19802557Y13337426D01*
X18357175Y11993867D02*
X19798672Y13435365D01*
X19553943Y14132501D02*
X19795943Y14374500D01*
X18739413Y13012501D02*
X19794412Y14067499D01*
X18341272Y12003421D02*
X19785944Y13448093D01*
X18319896Y12007500D02*
X19773217Y13460821D01*
X19528488Y14132501D02*
X19770487Y14374500D01*
X18935136Y13233679D02*
X19768956Y14067499D01*
X17674692Y11387752D02*
X19760489Y13473549D01*
X19503032Y14132501D02*
X19745031Y14374500D01*
X17665994Y11404509D02*
X19744132Y13482648D01*
X18936529Y13260528D02*
X19743500Y14067499D01*
X17976746Y11740718D02*
X19721564Y13485535D01*
X19477576Y14132501D02*
X19719575Y14374500D01*
X18929612Y13279067D02*
X19718045Y14067499D01*
X17975523Y11764950D02*
X19704972Y13494400D01*
X19452120Y14132501D02*
X19694120Y14374500D01*
X18918129Y13293040D02*
X19692589Y14067499D01*
X17967509Y11782392D02*
X19692586Y13507469D01*
X17955159Y11795499D02*
X19684527Y13524866D01*
X18973732Y12839527D02*
X19683209Y13549003D01*
X19426664Y14132501D02*
X19668664Y14374500D01*
X18902534Y13302901D02*
X19667133Y14067499D01*
X19401209Y14132501D02*
X19643208Y14374500D01*
X19337058Y13762880D02*
X19641677Y14067499D01*
X19375753Y14132501D02*
X19617752Y14374500D01*
X19335114Y13786393D02*
X19616221Y14067499D01*
X19350297Y14132501D02*
X19592296Y14374500D01*
X19326747Y13803481D02*
X19590765Y14067499D01*
X19324841Y14132501D02*
X19566841Y14374500D01*
X19314105Y13816294D02*
X19565310Y14067499D01*
X19299385Y14132501D02*
X19541385Y14374500D01*
X19297217Y13824862D02*
X19539854Y14067499D01*
X19436280Y9025500D02*
X19525372Y9114592D01*
X19273930Y14132501D02*
X19515929Y14374500D01*
X19274095Y13827197D02*
X19514398Y14067499D01*
X19410824Y9025500D02*
X19498904Y9113580D01*
X19248474Y14132501D02*
X19490473Y14374500D01*
X19258703Y13837260D02*
X19488942Y14067499D01*
X19385368Y9025500D02*
X19480507Y9120639D01*
X19223018Y14132501D02*
X19465017Y14374500D01*
X19359912Y9025500D02*
X19464412Y9129999D01*
X19245975Y13849988D02*
X19463486Y14067499D01*
X19197562Y14132501D02*
X19439562Y14374500D01*
X19265967Y11629870D02*
X19439499Y11803402D01*
X19276395Y11614842D02*
X19439499Y11777946D01*
X19284599Y11597590D02*
X19439499Y11752490D01*
X19290129Y11577664D02*
X19439499Y11727035D01*
X19291962Y11554042D02*
X19439499Y11701579D01*
X19287073Y11523696D02*
X19439499Y11676123D01*
X19203692Y11414860D02*
X19439499Y11650667D01*
X19222782Y11408494D02*
X19439499Y11625211D01*
X19239365Y11399621D02*
X19439499Y11599756D01*
X19253798Y11388599D02*
X19439499Y11574300D01*
X19266218Y11375562D02*
X19439499Y11548844D01*
X19276600Y11360489D02*
X19439499Y11523388D01*
X19284751Y11343184D02*
X19439499Y11497932D01*
X19290214Y11323191D02*
X19439499Y11472477D01*
X19291946Y11299468D02*
X19439499Y11447021D01*
X19286826Y11268892D02*
X19439499Y11421565D01*
X19003891Y10960501D02*
X19439499Y11396109D01*
X19029347Y10960501D02*
X19439499Y11370653D01*
X19054802Y10960501D02*
X19439499Y11345198D01*
X19334456Y9025500D02*
X19438956Y9129999D01*
X19233247Y13862716D02*
X19438031Y14067499D01*
X19172106Y14132501D02*
X19414106Y14374500D01*
X19309001Y9025500D02*
X19413500Y9129999D01*
X19220387Y13875311D02*
X19412575Y14067499D01*
X19146651Y14132501D02*
X19388650Y14374500D01*
X19283545Y9025500D02*
X19388044Y9129999D01*
X19202055Y13882435D02*
X19387119Y14067499D01*
X19121195Y14132501D02*
X19363194Y14374500D01*
X19258089Y9025500D02*
X19362588Y9129999D01*
X19176664Y13882501D02*
X19361663Y14067499D01*
X19095739Y14132501D02*
X19337738Y14374500D01*
X19232633Y9025500D02*
X19337133Y9129999D01*
X19151209Y13882501D02*
X19336207Y14067499D01*
X19070283Y14132501D02*
X19312283Y14374500D01*
X19125753Y13882501D02*
X19310752Y14067499D01*
X19207177Y9025500D02*
X19294341Y9112664D01*
X18907058Y13332881D02*
X19287120Y13712942D01*
X19044827Y14132501D02*
X19286827Y14374500D01*
X19100297Y13882501D02*
X19285296Y14067499D01*
X19181722Y9025500D02*
X19271708Y9115487D01*
X18905114Y13356393D02*
X19263607Y13714886D01*
X19019372Y14132501D02*
X19261371Y14374500D01*
X19074841Y13882501D02*
X19259840Y14067499D01*
X19156266Y9025500D02*
X19255082Y9124316D01*
X18896747Y13373481D02*
X19246519Y13723253D01*
X19130810Y9025500D02*
X19242665Y9137355D01*
X18993916Y14132501D02*
X19235915Y14374500D01*
X19105354Y9025500D02*
X19234568Y9154714D01*
X19049385Y13882501D02*
X19234384Y14067499D01*
X18884105Y13386295D02*
X19233705Y13735895D01*
X19079898Y9025500D02*
X19233173Y9178774D01*
X18867217Y13394862D02*
X19225138Y13752783D01*
X18844095Y13397197D02*
X19222803Y13775905D01*
X18693943Y13272501D02*
X19212740Y13791297D01*
X18978435Y10960501D02*
X19211108Y11193174D01*
X18968460Y14132501D02*
X19210459Y14374500D01*
X19181297Y11417920D02*
X19210304Y11446927D01*
X19180758Y11671939D02*
X19209508Y11700690D01*
X19023930Y13882501D02*
X19208928Y14067499D01*
X19180216Y11925956D02*
X19208721Y11954461D01*
X19179672Y12179969D02*
X19207943Y12208241D01*
X18912473Y13516486D02*
X19200012Y13804025D01*
X18917122Y13546590D02*
X19187284Y13816753D01*
X18945570Y14135067D02*
X19185004Y14374500D01*
X18998474Y13882501D02*
X19183473Y14067499D01*
X18952979Y10960501D02*
X19180532Y11188054D01*
X19153493Y11415572D02*
X19179958Y11442038D01*
X19152785Y11669422D02*
X19179387Y11696024D01*
X19152071Y11923266D02*
X19178818Y11950014D01*
X19151350Y12177104D02*
X19178253Y12204006D01*
X18911215Y13566140D02*
X19162575Y13817499D01*
X18932490Y14147442D02*
X19159548Y14374500D01*
X18973018Y13882501D02*
X19158017Y14067499D01*
X18927523Y10960501D02*
X19156809Y11189786D01*
X19105675Y11393210D02*
X19156336Y11443871D01*
X19102587Y11644681D02*
X19155865Y11697958D01*
X19046849Y11843501D02*
X19155396Y11952047D01*
X18975130Y12026339D02*
X19154928Y12206137D01*
X18900468Y13580849D02*
X19137119Y13817499D01*
X18902068Y10960501D02*
X19136816Y11195249D01*
X18660170Y10973161D02*
X19136410Y11449401D01*
X18392951Y10960501D02*
X19136005Y11703554D01*
X19036325Y11858432D02*
X19135602Y11957709D01*
X18966776Y12043441D02*
X19135200Y12211865D01*
X18915080Y14155488D02*
X19134092Y14374500D01*
X18947562Y13882501D02*
X19132561Y14067499D01*
X18876612Y10960501D02*
X19119511Y11203400D01*
X18627180Y10965627D02*
X19119158Y11457605D01*
X18367496Y10960501D02*
X19118806Y11711811D01*
X19035902Y11883465D02*
X19118455Y11966017D01*
X18976328Y12078449D02*
X19118104Y12220225D01*
X18885634Y13591470D02*
X19111663Y13817499D01*
X18890914Y14156778D02*
X19108636Y14374500D01*
X18930461Y13890856D02*
X19107105Y14067499D01*
X18851156Y10960501D02*
X19104438Y11213782D01*
X18596598Y10960501D02*
X19104130Y11468033D01*
X18342040Y10960501D02*
X19103824Y11722285D01*
X19028253Y11901272D02*
X19103519Y11976537D01*
X18975899Y12103476D02*
X19103214Y12230791D01*
X18825700Y10960501D02*
X19091401Y11226202D01*
X18571142Y10960501D02*
X19091138Y11480496D01*
X18316584Y10960501D02*
X19090875Y11734792D01*
X19016200Y11914675D02*
X19090614Y11989088D01*
X18968248Y12121280D02*
X19090353Y12243386D01*
X18418407Y10960501D02*
X19089319Y11631413D01*
X18684866Y10972401D02*
X19086790Y11374325D01*
X18865905Y13597197D02*
X19086207Y13817499D01*
X17293308Y9097184D02*
X19085624Y10889499D01*
X18577322Y13868641D02*
X19083180Y14374500D01*
X18915625Y13901475D02*
X19081649Y14067499D01*
X18800244Y10960501D02*
X19080379Y11240635D01*
X18545686Y10960501D02*
X19080160Y11494974D01*
X18291128Y10960501D02*
X19079943Y11749315D01*
X18999985Y11923916D02*
X19079727Y12003657D01*
X18956193Y12134681D02*
X19079511Y12257999D01*
X18774788Y10960501D02*
X19071506Y11257218D01*
X18520230Y10960501D02*
X19071337Y11511607D01*
X19033092Y11727920D02*
X19071170Y11765998D01*
X18978083Y11927469D02*
X19071004Y12020390D01*
X18939975Y12143919D02*
X19070840Y12274784D01*
X18749333Y10960501D02*
X19065140Y11276308D01*
X18842189Y12122501D02*
X19065065Y12345377D01*
X18494775Y10960501D02*
X19065033Y11530759D01*
X18977048Y12002802D02*
X19064896Y12090650D01*
X18974241Y11949083D02*
X19064825Y12039666D01*
X18918068Y12147468D02*
X19064723Y12294122D01*
X18443863Y10960501D02*
X19064578Y11581215D01*
X18705481Y10967561D02*
X19064428Y11326507D01*
X18723877Y10960501D02*
X19062080Y11298703D01*
X18469319Y10960501D02*
X19062061Y11553242D01*
X18965220Y11965517D02*
X19062031Y12062328D01*
X18867645Y12122501D02*
X19062019Y12316875D01*
X18844607Y13601355D02*
X19060752Y13817499D01*
X17267853Y9097184D02*
X19060169Y10889499D01*
X19037033Y11757317D02*
X19058216Y11778499D01*
X18564594Y13881369D02*
X19057725Y14374500D01*
X18895892Y13907198D02*
X19056194Y14067499D01*
X18831880Y13614083D02*
X19035296Y13817499D01*
X17318199Y9172986D02*
X19034713Y10889499D01*
X19030938Y11776677D02*
X19032760Y11778499D01*
X18551866Y13894097D02*
X19032269Y14374500D01*
X18865038Y13901800D02*
X19030738Y14067499D01*
X18819152Y13626811D02*
X19009840Y13817499D01*
X17323437Y9203680D02*
X19009257Y10889499D01*
X18539138Y13906825D02*
X19006813Y14374500D01*
X18691873Y13754090D02*
X19005282Y14067499D01*
X18265672Y10960501D02*
X19002080Y11696908D01*
X18806424Y13639539D02*
X18984384Y13817499D01*
X17321756Y9227454D02*
X18983801Y10889499D01*
X18526410Y13919553D02*
X18981357Y14374500D01*
X18679145Y13766818D02*
X18979826Y14067499D01*
X18240217Y10960501D02*
X18972683Y11692967D01*
X18793696Y13652267D02*
X18958928Y13817499D01*
X17316327Y9247481D02*
X18958345Y10889499D01*
X18511716Y13930315D02*
X18955901Y14374500D01*
X18666417Y13779546D02*
X18954370Y14067499D01*
X18214761Y10960501D02*
X18953323Y11699062D01*
X17938611Y11804405D02*
X18940473Y12806268D01*
X18189305Y10960501D02*
X18938748Y11709943D01*
X17308202Y9264812D02*
X18932890Y10889499D01*
X18554402Y13998456D02*
X18930446Y14374500D01*
X18924268Y12917342D02*
X18930368Y12923442D01*
X18163849Y10960501D02*
X18920848Y11717499D01*
X18780968Y13664995D02*
X18913489Y13797516D01*
X17917659Y11808910D02*
X18911832Y12803083D01*
X17297843Y9279909D02*
X18907434Y10889499D01*
X18891291Y12909821D02*
X18905761Y12924290D01*
X18557999Y14027510D02*
X18904990Y14374500D01*
X18653689Y13792274D02*
X18904058Y14042643D01*
X18713957Y13012501D02*
X18896321Y13194864D01*
X18840622Y11662729D02*
X18895392Y11717499D01*
X17904931Y11821638D02*
X18892692Y12809398D01*
X18857157Y9973726D02*
X18889248Y10005817D01*
X18848515Y12892501D02*
X18888145Y12932130D01*
X18668487Y13272501D02*
X18883514Y13487527D01*
X18768240Y13677723D02*
X18883397Y13792880D01*
X17285445Y9292967D02*
X18881978Y10889499D01*
X18640961Y13805002D02*
X18881512Y14045553D01*
X18555567Y14050533D02*
X18879534Y14374500D01*
X17899945Y11842107D02*
X18878274Y12820436D01*
X18830937Y12900379D02*
X18874895Y12944337D01*
X18847295Y11694858D02*
X18869937Y11717499D01*
X18628233Y13817730D02*
X18864933Y14054430D01*
X18755512Y13690451D02*
X18863851Y13798789D01*
X18854941Y9996965D02*
X18861159Y10003183D01*
X17893790Y11861408D02*
X18859881Y12827499D01*
X18769346Y10802323D02*
X18856522Y10889499D01*
X18549636Y14070058D02*
X18854078Y14374500D01*
X18643032Y13272501D02*
X18853410Y13482878D01*
X18816258Y12911155D02*
X18852602Y12947499D01*
X18615505Y13830458D02*
X18852558Y14067510D01*
X18742784Y13703179D02*
X18849144Y13809539D01*
X18602777Y13843185D02*
X18844512Y14084920D01*
X18841846Y11714865D02*
X18844481Y11717499D01*
X18590049Y13855913D02*
X18843222Y14109086D01*
X18730056Y13715906D02*
X18838525Y13824375D01*
X18704601Y13741362D02*
X18838200Y13874962D01*
X18617576Y13272501D02*
X18833860Y13488785D01*
X18717328Y13728634D02*
X18832802Y13844108D01*
X18782678Y10841111D02*
X18831066Y10889499D01*
X18541113Y14086991D02*
X18828622Y14374500D01*
X18796750Y12917103D02*
X18827147Y12947499D01*
X18592120Y13272501D02*
X18819151Y13499532D01*
X18138393Y10960501D02*
X18817271Y11639378D01*
X17881748Y11874822D02*
X18815282Y12808356D01*
X18566664Y13272501D02*
X18808530Y13514366D01*
X17908931Y9025500D02*
X18806274Y9922843D01*
X18783645Y10867534D02*
X18805611Y10889499D01*
X18530404Y14101737D02*
X18803167Y14374500D01*
X18541208Y13272501D02*
X18802803Y13534095D01*
X18766807Y12912615D02*
X18801691Y12947499D01*
X18594281Y13351029D02*
X18798645Y13555393D01*
X18719399Y13272501D02*
X18792803Y13345905D01*
X18596792Y13378996D02*
X18785917Y13568120D01*
X18112938Y10960501D02*
X18785142Y11632705D01*
X17869020Y11887550D02*
X18784257Y12802787D01*
X18779833Y10889178D02*
X18780155Y10889499D01*
X18517671Y14114460D02*
X18777711Y14374500D01*
X17783951Y11955215D02*
X18776235Y12947499D01*
X18590265Y13397924D02*
X18773189Y13580848D01*
X18087482Y10960501D02*
X18765135Y11638154D01*
X17857482Y11901467D02*
X18764485Y12808470D01*
X18579072Y13412187D02*
X18760461Y13593576D01*
X18502915Y14125160D02*
X18752255Y14374500D01*
X17730597Y11927317D02*
X18750779Y12947499D01*
X18062026Y10960501D02*
X18750111Y11648585D01*
X17852958Y11922400D02*
X18749621Y12819063D01*
X18563781Y13422352D02*
X18747733Y13606304D01*
X17843130Y11938027D02*
X18738845Y12833742D01*
X17810689Y11956498D02*
X18737385Y12883193D01*
X18543375Y13427401D02*
X18735005Y13619032D01*
X18036570Y10960501D02*
X18733569Y11657499D01*
X17829188Y11949541D02*
X18732897Y12853250D01*
X18485970Y14133671D02*
X18726799Y14374500D01*
X17719556Y11941733D02*
X18725323Y12947499D01*
X17271035Y9304012D02*
X18725177Y10758154D01*
X18508848Y13418331D02*
X18722277Y13631760D01*
X18482498Y13417436D02*
X18709549Y13644488D01*
X18011114Y10960501D02*
X18708113Y11657499D01*
X18466431Y14139588D02*
X18701343Y14374500D01*
X18465091Y13425485D02*
X18696821Y13657216D01*
X17254477Y9312910D02*
X18686389Y10744822D01*
X18440931Y13426781D02*
X18684094Y13669944D01*
X17982925Y10957767D02*
X18682658Y11657499D01*
X18443387Y14142000D02*
X18675888Y14374500D01*
X18391195Y13402501D02*
X18671366Y13682672D01*
X17235417Y9319306D02*
X18659966Y10743855D01*
X18365739Y13402501D02*
X18658638Y13695399D01*
X17435220Y10435517D02*
X18657202Y11657499D01*
X18414291Y14138359D02*
X18650432Y14374500D01*
X18340283Y13402501D02*
X18645910Y13708127D01*
X17318451Y9427795D02*
X18638322Y10747667D01*
X17883476Y9025500D02*
X18637975Y9779999D01*
X18314827Y13402501D02*
X18633182Y13720855D01*
X17422012Y10447766D02*
X18631746Y11657499D01*
X18301470Y14050994D02*
X18624976Y14374500D01*
X18289371Y13402501D02*
X18620454Y13733583D01*
X17323455Y9458255D02*
X18619769Y10754570D01*
X17858020Y9025500D02*
X18612519Y9779999D01*
X18263916Y13402501D02*
X18607726Y13746311D01*
X17404447Y10455656D02*
X18606290Y11657499D01*
X17321672Y9481928D02*
X18603630Y10763886D01*
X18295475Y14070454D02*
X18599520Y14374500D01*
X18238460Y13402501D02*
X18594998Y13759039D01*
X17316175Y9501887D02*
X18589598Y10775310D01*
X18554206Y13743702D02*
X18582270Y13771767D01*
X17379950Y10456616D02*
X18580834Y11657499D01*
X18007274Y12254906D02*
X18579868Y12827499D01*
X17307998Y9519166D02*
X18577573Y10788741D01*
X18286901Y14087337D02*
X18574064Y14374500D01*
X17832564Y9025500D02*
X18569565Y9762501D01*
X18558001Y13772953D02*
X18569542Y13784495D01*
X17297592Y9534216D02*
X18567609Y10804233D01*
X17285151Y9547231D02*
X18559939Y10822019D01*
X18515753Y13272501D02*
X18558971Y13315719D01*
X18555663Y13796071D02*
X18556815Y13797223D01*
X17233606Y10335727D02*
X18555379Y11657499D01*
X17270695Y9558231D02*
X18555099Y10842634D01*
X18004685Y12277773D02*
X18554412Y12827499D01*
X17254088Y9567079D02*
X18554339Y10867330D01*
X17234967Y9573414D02*
X18551053Y10889499D01*
X18276146Y14102038D02*
X18548609Y14374500D01*
X17807108Y9025500D02*
X18548342Y9766734D01*
X17781652Y9025500D02*
X18532534Y9776381D01*
X18490297Y13272501D02*
X18531004Y13313208D01*
X17319367Y10446943D02*
X18529923Y11657499D01*
X17995982Y12294525D02*
X18528956Y12827499D01*
X17318693Y9682595D02*
X18525597Y10889499D01*
X18263370Y14114717D02*
X18523153Y14374500D01*
X17679829Y9025500D02*
X18522268Y9867938D01*
X17756197Y9025500D02*
X18520852Y9790155D01*
X17705285Y9025500D02*
X18514383Y9834598D01*
X17654373Y9025500D02*
X18514361Y9885487D01*
X17730741Y9025500D02*
X18513675Y9808434D01*
X17628918Y9025500D02*
X18513367Y9909949D01*
X17547498Y10700531D02*
X18504467Y11657499D01*
X17983052Y12307052D02*
X18503500Y12827499D01*
X17323469Y9712828D02*
X18500141Y10889499D01*
X18248568Y14125371D02*
X18497697Y14374500D01*
X17543238Y10721726D02*
X18479011Y11657499D01*
X17965825Y12315280D02*
X18478044Y12827499D01*
X17321585Y9736400D02*
X18474685Y10889499D01*
X18213004Y13402501D02*
X18472298Y13661794D01*
X18231572Y14133831D02*
X18472241Y14374500D01*
X17942035Y12316946D02*
X18452589Y12827499D01*
X17316022Y9756293D02*
X18449229Y10889499D01*
X18211969Y14139683D02*
X18446785Y14374500D01*
X18187548Y13402501D02*
X18443047Y13657999D01*
X17899634Y12300001D02*
X18427133Y12827499D01*
X17307792Y9773518D02*
X18423774Y10889499D01*
X18188830Y14142000D02*
X18421330Y14374500D01*
X18162092Y13402501D02*
X18419929Y13660337D01*
X17874178Y12300001D02*
X18401677Y12827499D01*
X18136637Y13402501D02*
X18400341Y13666204D01*
X17910501Y10401682D02*
X18398318Y10889499D01*
X18159536Y14138162D02*
X18395874Y14374500D01*
X18111181Y13402501D02*
X18383356Y13674676D01*
X18247631Y11782501D02*
X18382630Y11917499D01*
X18007487Y12458766D02*
X18376221Y12827499D01*
X17910501Y10427138D02*
X18372862Y10889499D01*
X18301567Y13796533D02*
X18372533Y13867499D01*
X18047371Y14051453D02*
X18370418Y14374500D01*
X18085725Y13402501D02*
X18368564Y13685339D01*
X18361167Y13932501D02*
X18368263Y13939596D01*
X18060269Y13402501D02*
X18355797Y13698028D01*
X18335711Y13932501D02*
X18355540Y13952329D01*
X18003734Y12480468D02*
X18350765Y12827499D01*
X17910501Y10452594D02*
X18347406Y10889499D01*
X18295636Y13816058D02*
X18347078Y13867499D01*
X18034813Y13402501D02*
X18345052Y13712739D01*
X18041312Y14070850D02*
X18344962Y14374500D01*
X18310255Y13932501D02*
X18344840Y13967085D01*
X18009358Y13402501D02*
X18336490Y13729633D01*
X18284800Y13932501D02*
X18336329Y13984030D01*
X18235167Y11795493D02*
X18333873Y11894198D01*
X18303996Y14028064D02*
X18331641Y14055709D01*
X18303999Y13773510D02*
X18331450Y13800961D01*
X17985958Y13404557D02*
X18330509Y13749107D01*
X18259344Y13932501D02*
X18330412Y14003569D01*
X18300402Y13744456D02*
X18328003Y13772058D01*
X18300591Y13999203D02*
X18328000Y14026613D01*
X17994376Y12496566D02*
X18325310Y12827499D01*
X17910501Y10478050D02*
X18321950Y10889499D01*
X18287113Y13832991D02*
X18321622Y13867499D01*
X18032688Y14087681D02*
X18319506Y14374500D01*
X18218621Y11804402D02*
X18307987Y11893768D01*
X17533574Y10737518D02*
X18303775Y11507719D01*
X17980867Y12508513D02*
X18299854Y12827499D01*
X17910501Y10503505D02*
X18296495Y10889499D01*
X18276404Y13847737D02*
X18296166Y13867499D01*
X18021888Y14102337D02*
X18294051Y14374500D01*
X18196133Y11807370D02*
X18289820Y11901057D01*
X17519785Y10749185D02*
X18278100Y11507499D01*
X17308474Y10945167D02*
X18276133Y11912825D01*
X17962927Y12516029D02*
X18274398Y12827499D01*
X17910501Y10528961D02*
X18271039Y10889499D01*
X18263671Y13860460D02*
X18270710Y13867499D01*
X18009067Y14114973D02*
X18268595Y14374500D01*
X17295746Y10957894D02*
X18266579Y11928728D01*
X17677272Y11364876D02*
X18262500Y11950104D01*
X17937588Y12516145D02*
X18253464Y12832021D01*
X17501486Y10756342D02*
X18252644Y11507499D01*
X17910501Y10554417D02*
X18245583Y10889499D01*
X17994220Y14125581D02*
X18243139Y14374500D01*
X17895987Y12500001D02*
X18240012Y12844025D01*
X17870532Y12500001D02*
X18227284Y12856753D01*
X17486664Y10766976D02*
X18227188Y11507499D01*
X17910501Y10579873D02*
X18220127Y10889499D01*
X17977172Y14133989D02*
X18217683Y14374500D01*
X17973020Y13417074D02*
X18217544Y13661598D01*
X17845076Y12500001D02*
X18214689Y12869613D01*
X17829171Y12509552D02*
X18207565Y12887945D01*
X16925970Y11784541D02*
X18207499Y13066071D01*
X16934678Y11767794D02*
X18207499Y13040615D01*
X16937277Y11744937D02*
X18207499Y13015159D01*
X16489797Y11272001D02*
X18207499Y12989703D01*
X16575710Y11332458D02*
X18207499Y12964247D01*
X17783912Y12515204D02*
X18207499Y12938792D01*
X17810666Y12516503D02*
X18207499Y12913336D01*
X17473937Y10779704D02*
X18201732Y11507499D01*
X17910501Y10605329D02*
X18194671Y10889499D01*
X16936757Y11820784D02*
X18193473Y13077499D01*
X17957504Y14139777D02*
X18192227Y14374500D01*
X17955782Y13425292D02*
X18188490Y13658001D01*
X17461209Y10792432D02*
X18176276Y11507499D01*
X17910501Y10630784D02*
X18169216Y10889499D01*
X18165950Y13075433D02*
X18168017Y13077499D01*
X17934270Y14141998D02*
X18166772Y14374500D01*
X17931971Y13426937D02*
X18165467Y13660433D01*
X16935511Y11844994D02*
X18154567Y13064050D01*
X17448481Y10805160D02*
X18150821Y11507499D01*
X17585120Y13105542D02*
X18145942Y13666364D01*
X17910501Y10656240D02*
X18143760Y10889499D01*
X18126133Y11737370D02*
X18142630Y11753867D01*
X17904773Y14137957D02*
X18141316Y14374500D01*
X17400001Y12945878D02*
X18129009Y13674887D01*
X17435753Y10817888D02*
X18125365Y11507499D01*
X17910501Y10681696D02*
X18118304Y10889499D01*
X18047470Y13796994D02*
X18117975Y13867499D01*
X16927486Y11862425D02*
X18117611Y13052549D01*
X17793270Y14051910D02*
X18115860Y14374500D01*
X17400001Y12971334D02*
X18114263Y13685596D01*
X18106609Y13932501D02*
X18113962Y13939854D01*
X18063361Y13227402D02*
X18103459Y13267499D01*
X17400001Y12996790D02*
X18101540Y13698329D01*
X18081153Y13932501D02*
X18101283Y13952630D01*
X17423025Y10830615D02*
X18099909Y11507499D01*
X16915128Y11875523D02*
X18096934Y13057329D01*
X17910501Y10707152D02*
X18092848Y10889499D01*
X18041475Y13816454D02*
X18092520Y13867499D01*
X17416360Y13038605D02*
X18090840Y13713085D01*
X18054916Y13931719D02*
X18090629Y13967432D01*
X17787149Y14071245D02*
X18090404Y14374500D01*
X17415875Y13063576D02*
X18082329Y13730030D01*
X17977572Y13879831D02*
X18082169Y13984428D01*
X18003766Y12989616D02*
X18081469Y13067319D01*
X18028809Y13218306D02*
X18078003Y13267499D01*
X18049989Y14028615D02*
X18077838Y14056464D01*
X18049996Y13774064D02*
X18077641Y13801709D01*
X17408199Y13081356D02*
X18076412Y13749569D01*
X17957969Y13885683D02*
X18076317Y14004031D01*
X17410297Y10843343D02*
X18074453Y11507499D01*
X18046591Y13745203D02*
X18074000Y13772613D01*
X18046772Y13999943D02*
X18074000Y14027170D01*
X18056133Y11667370D02*
X18072630Y11683867D01*
X18006910Y13018216D02*
X18070108Y13081414D01*
X17910501Y10732608D02*
X18067392Y10889499D01*
X17778473Y14088025D02*
X18064948Y14374500D01*
X18000583Y13037344D02*
X18063355Y13100117D01*
X16647548Y11862501D02*
X18052547Y13267499D01*
X17989535Y13051753D02*
X18050992Y13113209D01*
X17397569Y10856071D02*
X18048997Y11507499D01*
X17910501Y10758063D02*
X18041937Y10889499D01*
X17767628Y14102635D02*
X18039492Y14374500D01*
X17974396Y13062069D02*
X18032067Y13119740D01*
X17954217Y13067346D02*
X18017807Y13130936D01*
X17910501Y10783519D02*
X18016481Y10889499D01*
X17754764Y14115227D02*
X18014037Y14374500D01*
X16673004Y11862501D02*
X18011694Y13201191D01*
X17921160Y13059745D02*
X18007643Y13146228D01*
X17986133Y11597370D02*
X18002630Y11613867D01*
X17793037Y12957077D02*
X18002598Y13166639D01*
X17657461Y12897869D02*
X18002131Y13242539D01*
X17384841Y10868799D02*
X17999298Y11483256D01*
X17739870Y14125790D02*
X17988581Y14374500D01*
X17653971Y12919835D02*
X17980165Y13246029D01*
X17372113Y10881527D02*
X17975060Y11484474D01*
X16898569Y11884420D02*
X17970384Y12956234D01*
X17644767Y12936087D02*
X17963913Y13255233D01*
X17722771Y14134146D02*
X17963125Y14374500D01*
X17396124Y13094737D02*
X17962797Y13661409D01*
X17934830Y13888000D02*
X17962057Y13915228D01*
X17359385Y10894255D02*
X17957616Y11492486D01*
X17704424Y11952056D02*
X17955094Y12202726D01*
X17640001Y12956776D02*
X17951828Y13268603D01*
X17848722Y12300001D02*
X17951234Y12402513D01*
X17346658Y10906983D02*
X17944507Y11504833D01*
X17640001Y12982232D02*
X17944138Y13286370D01*
X17640001Y13007688D02*
X17943623Y13311310D01*
X17703038Y14139869D02*
X17937669Y14374500D01*
X17333930Y10919711D02*
X17935598Y11521379D01*
X17379885Y13103953D02*
X17933936Y13658004D01*
X17905536Y13884162D02*
X17933385Y13912011D01*
X17321202Y10932439D02*
X17932630Y11543867D01*
X17684255Y11957343D02*
X17932227Y12205315D01*
X17831422Y12308156D02*
X17929532Y12406266D01*
X17653069Y11417040D02*
X17929282Y11693254D01*
X17657497Y13050640D02*
X17922186Y13315329D01*
X17651258Y11949802D02*
X17915475Y12214018D01*
X16876059Y11887365D02*
X17914951Y12926257D01*
X17813664Y12315854D02*
X17913434Y12415624D01*
X17679707Y14141993D02*
X17912213Y14374500D01*
X17357939Y13107464D02*
X17911006Y13660530D01*
X17793371Y13797453D02*
X17910547Y13914629D01*
X17653206Y13071805D02*
X17905443Y13324042D01*
X17635846Y11425274D02*
X17905050Y11694477D01*
X17866416Y13005001D02*
X17900255Y13038840D01*
X17297341Y9788523D02*
X17898318Y10389499D01*
X17577481Y11901481D02*
X17896000Y12219999D01*
X17643523Y13087577D02*
X17892926Y13336980D01*
X17788742Y12316388D02*
X17892354Y12419999D01*
X16725021Y12500001D02*
X17891546Y13666525D01*
X17787312Y13816850D02*
X17891150Y13920688D01*
X17857181Y12893942D02*
X17888238Y12924999D01*
X17612067Y11426951D02*
X17887608Y11702491D01*
X17650002Y14137744D02*
X17886758Y14374500D01*
X17629716Y13099227D02*
X17884708Y13354218D01*
X17611394Y13106360D02*
X17883063Y13378029D01*
X16699565Y12500001D02*
X17874663Y13675099D01*
X17562161Y11402501D02*
X17874501Y11714841D01*
X17778688Y13833681D02*
X17874319Y13929312D01*
X17284856Y9801494D02*
X17872862Y10389499D01*
X17572954Y11922409D02*
X17870544Y12219999D01*
X17280001Y11833102D02*
X17866898Y12419999D01*
X17542707Y11408502D02*
X17865595Y11731389D01*
X17539168Y14052366D02*
X17861302Y14374500D01*
X17528621Y11419871D02*
X17861090Y11752341D01*
X16681929Y12507821D02*
X17859962Y13685854D01*
X17767888Y13848337D02*
X17859663Y13940112D01*
X17509930Y11426637D02*
X17848362Y11765069D01*
X17270355Y9812449D02*
X17847590Y10389684D01*
X16664337Y12515684D02*
X17847283Y13698630D01*
X17755067Y13860973D02*
X17847027Y13952933D01*
X17563124Y11938035D02*
X17845089Y12219999D01*
X17280001Y11858558D02*
X17841442Y12419999D01*
X17444241Y10419083D02*
X17839708Y10814550D01*
X17447411Y10396797D02*
X17839499Y10788886D01*
X17321408Y10245338D02*
X17839499Y10763430D01*
X17323490Y10221965D02*
X17839499Y10737974D01*
X17319150Y10192169D02*
X17839499Y10712518D01*
X17234061Y10081624D02*
X17839499Y10687062D01*
X17253306Y10075413D02*
X17839499Y10661607D01*
X17270014Y10066665D02*
X17839499Y10636151D01*
X17284560Y10055755D02*
X17839499Y10610695D01*
X17297089Y10042829D02*
X17839499Y10585239D01*
X17307586Y10027870D02*
X17839499Y10559783D01*
X17315868Y10010697D02*
X17839499Y10534328D01*
X17321498Y9990870D02*
X17839499Y10508872D01*
X17323481Y9967398D02*
X17839499Y10483416D01*
X17318926Y9937387D02*
X17839499Y10457960D01*
X17234515Y9827519D02*
X17839499Y10432504D01*
X17253697Y9821247D02*
X17839499Y10407049D01*
X16639782Y12516585D02*
X17836629Y13713432D01*
X17740220Y13871581D02*
X17836419Y13967780D01*
X17532984Y14071638D02*
X17835846Y14374500D01*
X17482662Y11424824D02*
X17835634Y11777796D01*
X16850797Y12753056D02*
X17828169Y13730428D01*
X17723172Y13879989D02*
X17828011Y13984828D01*
X17143011Y11110629D02*
X17824313Y11791931D01*
X17795980Y14029164D02*
X17824043Y14057227D01*
X17795989Y13774616D02*
X17823838Y13802464D01*
X16857283Y12784998D02*
X17822317Y13750031D01*
X17703504Y13885777D02*
X17822223Y14004496D01*
X17792947Y14000676D02*
X17820002Y14027730D01*
X17792772Y13745943D02*
X17820000Y13773170D01*
X17731644Y11724718D02*
X17819999Y11813073D01*
X17737213Y11755743D02*
X17812450Y11830980D01*
X17524258Y14088368D02*
X17810390Y14374500D01*
X16825739Y11862501D02*
X17806058Y12842819D01*
X17549180Y11949546D02*
X17802174Y12202541D01*
X17731530Y11775515D02*
X17798533Y11842518D01*
X17297481Y11901494D02*
X17798506Y12402519D01*
X17513367Y14102933D02*
X17784934Y14374500D01*
X16800283Y11862501D02*
X17782887Y12845105D01*
X17530678Y11956500D02*
X17780195Y12206018D01*
X17720937Y11790379D02*
X17777600Y11847042D01*
X17292950Y11922419D02*
X17777581Y12407050D01*
X16774827Y11862501D02*
X17765974Y12853647D01*
X17503931Y11955210D02*
X17763936Y12215215D01*
X17720001Y11814898D02*
X17761973Y11856870D01*
X17283117Y11938042D02*
X17761958Y12416883D01*
X17500459Y14115481D02*
X17759479Y14374500D01*
X16749371Y11862501D02*
X17753310Y12866439D01*
X17293734Y11770468D02*
X17751844Y12228578D01*
X17720001Y11840353D02*
X17750459Y11870812D01*
X17269171Y11949552D02*
X17750448Y12430829D01*
X16723916Y11862501D02*
X17744917Y12883502D01*
X17223912Y11955204D02*
X17744796Y12476088D01*
X17736916Y11908180D02*
X17744785Y11916049D01*
X17284376Y11786566D02*
X17744146Y12246336D01*
X17280001Y11807646D02*
X17743612Y12271258D01*
X17733741Y11879550D02*
X17743502Y11889311D01*
X17250666Y11956503D02*
X17743497Y12449334D01*
X16698460Y11862501D02*
X17742923Y12906963D01*
X17485520Y14125997D02*
X17734023Y14374500D01*
X17468369Y14134302D02*
X17708567Y14374500D01*
X16851797Y12804968D02*
X17708057Y13661228D01*
X17680270Y13887998D02*
X17707324Y13915053D01*
X17130283Y11123357D02*
X17705282Y11698356D01*
X17448571Y14139959D02*
X17683111Y14374500D01*
X16841340Y12819966D02*
X17679384Y13658011D01*
X17650773Y13883957D02*
X17678836Y13912020D01*
X17117555Y11136085D02*
X17674257Y11692787D01*
X17425141Y14141986D02*
X17657655Y14374500D01*
X16826794Y12830876D02*
X17656547Y13660629D01*
X17539270Y13797910D02*
X17656090Y13914730D01*
X17104827Y11148813D02*
X17654485Y11698470D01*
X17573738Y11770458D02*
X17639999Y11836720D01*
X17577487Y11748752D02*
X17639999Y11811264D01*
X17092100Y11161541D02*
X17639621Y11709063D01*
X17564382Y11786558D02*
X17638267Y11860444D01*
X16855527Y12885065D02*
X17637150Y13666688D01*
X17533149Y13817245D02*
X17636755Y13920851D01*
X17395223Y14137523D02*
X17632200Y14374500D01*
X17560001Y11858544D02*
X17630198Y11928742D01*
X17079372Y11174269D02*
X17628845Y11723742D01*
X17560001Y11807632D02*
X17627944Y11875576D01*
X17052918Y11198727D02*
X17627385Y11773193D01*
X17283018Y10970622D02*
X17625124Y11312728D01*
X17066644Y11186997D02*
X17622897Y11743250D01*
X17560001Y11833088D02*
X17622657Y11895745D01*
X16856367Y12911361D02*
X17620319Y13675312D01*
X17524473Y13834025D02*
X17619975Y13929527D01*
X17285064Y14052821D02*
X17606744Y14374500D01*
X16849242Y12929691D02*
X17605663Y13686112D01*
X17513628Y13848635D02*
X17605365Y13940372D01*
X17270290Y10983350D02*
X17602248Y11315308D01*
X16857461Y12097869D02*
X17602131Y12842539D01*
X16840001Y12945906D02*
X17593027Y13698933D01*
X17500764Y13861227D02*
X17592773Y13953236D01*
X17257562Y10996078D02*
X17585491Y11324006D01*
X16840001Y12971362D02*
X17582419Y13713780D01*
X17485870Y13871790D02*
X17582210Y13968130D01*
X17278818Y14072030D02*
X17581288Y14374500D01*
X16853971Y12119835D02*
X17580165Y12846029D01*
X16840001Y12996818D02*
X17574011Y13730828D01*
X17468771Y13880146D02*
X17573854Y13985229D01*
X17244834Y11008806D02*
X17572960Y11336931D01*
X17541969Y14029711D02*
X17570256Y14057998D01*
X17541980Y13775165D02*
X17570043Y13803228D01*
X16856367Y13038640D02*
X17568223Y13750496D01*
X17449038Y13885869D02*
X17568131Y14004962D01*
X17539115Y14001402D02*
X17566007Y14028293D01*
X17538947Y13746676D02*
X17566002Y13773730D01*
X16844767Y12136087D02*
X17563913Y12855233D01*
X16695946Y12140001D02*
X17559999Y13004054D01*
X16721402Y12140001D02*
X17559999Y12978598D01*
X16746858Y12140001D02*
X17559999Y12953142D01*
X17270042Y14088709D02*
X17555832Y14374500D01*
X16831397Y12148172D02*
X17551828Y12868603D01*
X17415517Y12885027D02*
X17550773Y13020284D01*
X17545779Y11335207D02*
X17548072Y11337499D01*
X17409252Y12929674D02*
X17544458Y13064880D01*
X16813630Y12155862D02*
X17544138Y12886370D01*
X17416372Y12911338D02*
X17543640Y13038606D01*
X16788690Y12156377D02*
X17543623Y12911310D01*
X17232106Y11021534D02*
X17534793Y11324221D01*
X17259106Y14103229D02*
X17530376Y14374500D01*
X17033592Y11204857D02*
X17521248Y11692513D01*
X17246154Y14115733D02*
X17504921Y14374500D01*
X17008280Y11205001D02*
X17499542Y11696262D01*
X17219379Y11034262D02*
X17497664Y11312547D01*
X17323496Y10476529D02*
X17489469Y10642502D01*
X16982824Y11205001D02*
X17483442Y11705618D01*
X17374360Y9025500D02*
X17482802Y9133943D01*
X16874365Y11249276D02*
X17479999Y11854910D01*
X16887093Y11236548D02*
X17479999Y11829455D01*
X16899820Y11223820D02*
X17479999Y11803999D01*
X17231169Y14126204D02*
X17479465Y14374500D01*
X17206651Y11046990D02*
X17476973Y11317312D01*
X16957369Y11205001D02*
X17471492Y11719124D01*
X16861636Y11262003D02*
X17470454Y11870820D01*
X17321317Y10499805D02*
X17468274Y10646762D01*
X17297487Y11748766D02*
X17464790Y11916069D01*
X16931913Y11205001D02*
X17463974Y11737062D01*
X16912548Y11211092D02*
X17463851Y11762395D01*
X16846172Y11271994D02*
X17463500Y11889322D01*
X17193923Y11059718D02*
X17461498Y11327293D01*
X17213966Y14134457D02*
X17454009Y14374500D01*
X16855870Y13063598D02*
X17453324Y13661053D01*
X17425707Y13887993D02*
X17452598Y13914885D01*
X17315556Y10519501D02*
X17452482Y10656426D01*
X17181195Y11072446D02*
X17450129Y11341379D01*
X17155739Y11097901D02*
X17445176Y11387338D01*
X17168467Y11085173D02*
X17443363Y11360070D01*
X17307170Y10536570D02*
X17440815Y10670215D01*
X17296582Y10551437D02*
X17433658Y10688514D01*
X17194101Y14140048D02*
X17428553Y14374500D01*
X16848188Y13081372D02*
X17424835Y13658020D01*
X17396002Y13883744D02*
X17424289Y13912031D01*
X17417457Y10697769D02*
X17423024Y10703336D01*
X17318764Y9097184D02*
X17412507Y9190926D01*
X17170572Y14141975D02*
X17403097Y14374500D01*
X16836109Y13094749D02*
X17402090Y13660730D01*
X17285168Y13798366D02*
X17401634Y13914832D01*
X17315713Y10265099D02*
X17393203Y10342589D01*
X16819864Y13103960D02*
X17382755Y13666851D01*
X17278984Y13817638D02*
X17382362Y13921016D01*
X17140435Y14137293D02*
X17377642Y14374500D01*
X16679716Y12149227D02*
X17374973Y12844483D01*
X16797911Y13107463D02*
X17365975Y13675527D01*
X17270258Y13834368D02*
X17365632Y13929742D01*
X17283965Y10564277D02*
X17362231Y10642543D01*
X17030959Y14053273D02*
X17352186Y14374500D01*
X16100394Y12435401D02*
X17351365Y13686372D01*
X17259367Y13848933D02*
X17351067Y13940633D01*
X16661394Y12156360D02*
X17348662Y12843628D01*
X16096697Y12457161D02*
X17338773Y13699236D01*
X17246459Y13861481D02*
X17338519Y13953541D01*
X17252913Y10329578D02*
X17333384Y10410050D01*
X16635120Y12155542D02*
X17330326Y12850748D01*
X16085022Y12470941D02*
X17328210Y13714130D01*
X17231520Y13871997D02*
X17328003Y13968480D01*
X17024651Y14072421D02*
X17326730Y14374500D01*
X16833545Y12506702D02*
X17319999Y12993156D01*
X16846341Y12494042D02*
X17319999Y12967700D01*
X16854889Y12477134D02*
X17319999Y12942245D01*
X16072294Y12483669D02*
X17319854Y13731229D01*
X17214369Y13880302D02*
X17319698Y13985631D01*
X16073783Y11619661D02*
X17316508Y12862386D01*
X17287954Y14030255D02*
X17316477Y14058777D01*
X17287969Y13775711D02*
X17316256Y13803998D01*
X16816477Y12515089D02*
X17315263Y13013876D01*
X16059566Y12496397D02*
X17314131Y13750962D01*
X17255705Y13947094D02*
X17314041Y14005429D01*
X17285277Y14002122D02*
X17312014Y14028859D01*
X17285115Y13747402D02*
X17312007Y13774293D01*
X16076907Y11648241D02*
X17306814Y12878147D01*
X16793005Y12517073D02*
X17306047Y13030115D01*
X16750476Y12500001D02*
X17302536Y13052061D01*
X16857184Y12453973D02*
X17302504Y12899293D01*
X17015824Y14089050D02*
X17301274Y14374500D01*
X17004843Y14103525D02*
X17275818Y14374500D01*
X17194571Y13885959D02*
X17252906Y13944295D01*
X16991848Y14115985D02*
X17250363Y14374500D01*
X17242397Y9097184D02*
X17243014Y9097801D01*
X17213065Y9322410D02*
X17242205Y9351549D01*
X17212527Y9576430D02*
X17241405Y9605307D01*
X16823722Y11275001D02*
X17241234Y11692513D01*
X17211987Y9830448D02*
X17240613Y9859074D01*
X17211444Y10084463D02*
X17239831Y10112850D01*
X17210899Y10338476D02*
X17239057Y10366633D01*
X16976817Y14126410D02*
X17224907Y14374500D01*
X16817177Y11293911D02*
X17219532Y11696266D01*
X17185345Y9320145D02*
X17211745Y9346545D01*
X17184639Y9573998D02*
X17211172Y9600531D01*
X17183928Y9827845D02*
X17210602Y9854519D01*
X17183211Y10081685D02*
X17210035Y10108510D01*
X17182487Y10335520D02*
X17209471Y10362504D01*
X16814902Y11317092D02*
X17203434Y11705624D01*
X16677576Y11332501D02*
X17199999Y11854924D01*
X16703032Y11332501D02*
X17199999Y11829468D01*
X16753068Y11357081D02*
X17199999Y11804013D01*
X16959561Y14134610D02*
X17199451Y14374500D01*
X16056781Y12519068D02*
X17198598Y13660885D01*
X17171141Y13887986D02*
X17197878Y13914723D01*
X16806364Y11334010D02*
X17191487Y11719133D01*
X16652120Y11332501D02*
X17190448Y11870829D01*
X17138439Y9298695D02*
X17188072Y9348328D01*
X17135753Y9550567D02*
X17187600Y9602415D01*
X17131936Y9801308D02*
X17187130Y9856502D01*
X17078070Y10002001D02*
X17186662Y10110592D01*
X16130055Y9308543D02*
X17186195Y10364683D01*
X16601208Y11332501D02*
X17184796Y11916088D01*
X16793577Y11346679D02*
X17183971Y11737073D01*
X16776519Y11355077D02*
X17183855Y11762413D01*
X16626664Y11332501D02*
X17183497Y11889334D01*
X16939630Y14140135D02*
X17173995Y14374500D01*
X16050235Y12537978D02*
X17170289Y13658031D01*
X17141223Y13883523D02*
X17169745Y13912046D01*
X17166029Y9097184D02*
X17168519Y9099673D01*
X17062175Y9247887D02*
X17168113Y9353825D01*
X16799730Y9240001D02*
X17167707Y9607978D01*
X16613715Y9308543D02*
X17167303Y9862132D01*
X17052614Y10002001D02*
X17166901Y10116287D01*
X16104599Y9308543D02*
X17166499Y10370444D01*
X17140574Y9097184D02*
X17151188Y9107798D01*
X17053998Y9265166D02*
X17150834Y9362002D01*
X16588259Y9308543D02*
X17150130Y9870414D01*
X17027159Y10002001D02*
X17149779Y10124621D01*
X16079143Y9308543D02*
X17149430Y10378830D01*
X16916001Y14141961D02*
X17148539Y14374500D01*
X16039028Y12552227D02*
X17147634Y13660832D01*
X17031064Y13798821D02*
X17147179Y13914936D01*
X17115118Y9097184D02*
X17136091Y9118157D01*
X17043592Y9280216D02*
X17135784Y9372408D01*
X16562803Y9308543D02*
X17135171Y9880911D01*
X17001703Y10002001D02*
X17134866Y10135164D01*
X16053687Y9308543D02*
X17134563Y10389418D01*
X16023724Y12562378D02*
X17128362Y13667016D01*
X17024818Y13818030D02*
X17127970Y13921182D01*
X16885639Y14137055D02*
X17123084Y14374500D01*
X17089662Y9097184D02*
X17123033Y9130555D01*
X17031151Y9293231D02*
X17122769Y9384849D01*
X16639171Y9308543D02*
X17122692Y9792064D01*
X16537348Y9308543D02*
X17122244Y9893440D01*
X16731721Y9757475D02*
X17121984Y10147737D01*
X16028231Y9308543D02*
X17121723Y10402035D01*
X16881753Y9296567D02*
X17119433Y9534247D01*
X17067672Y9227928D02*
X17117305Y9277561D01*
X17064206Y9097184D02*
X17111988Y9144965D01*
X17016695Y9304231D02*
X17111769Y9399305D01*
X16003296Y12567406D02*
X17111632Y13675742D01*
X16511892Y9308543D02*
X17111334Y9907986D01*
X17016042Y13834709D02*
X17111291Y13929958D01*
X16691496Y9742705D02*
X17111119Y10162328D01*
X16002776Y9308543D02*
X17110904Y10416671D01*
X17038750Y9097184D02*
X17103090Y9161523D01*
X17000088Y9313079D02*
X17102921Y9415912D01*
X16740994Y9308543D02*
X17102753Y9670303D01*
X16486436Y9308543D02*
X17102587Y9924694D01*
X16231878Y9308543D02*
X17102422Y10179087D01*
X15976336Y9307559D02*
X17102258Y10433481D01*
X16776852Y14053724D02*
X17097628Y14374500D01*
X15968612Y12558178D02*
X17097067Y13686633D01*
X17005106Y13849229D02*
X17096771Y13940894D01*
X17013295Y9097184D02*
X17096694Y9180583D01*
X16373495Y9781086D02*
X17096652Y10504243D01*
X16980967Y9319414D02*
X17096586Y9435033D01*
X16715538Y9308543D02*
X17096481Y9689485D01*
X16155510Y9308543D02*
X17096480Y10249513D01*
X16206422Y9308543D02*
X17096273Y10198394D01*
X15866699Y9223378D02*
X17096172Y10452851D01*
X16664627Y9308543D02*
X17096155Y9740072D01*
X16930639Y9319998D02*
X17096002Y9485361D01*
X17069455Y9204255D02*
X17095855Y9230655D01*
X16363987Y9797033D02*
X17094453Y10527499D01*
X17064451Y9173795D02*
X17093590Y9202935D01*
X16958527Y9322430D02*
X17093570Y9457473D01*
X16690082Y9308543D02*
X17093552Y9712013D01*
X16180966Y9308543D02*
X17093524Y10221101D01*
X16377499Y9759634D02*
X17093514Y10475649D01*
X16460980Y9308543D02*
X17089436Y9936999D01*
X15471183Y12086204D02*
X17084519Y13699541D01*
X16992154Y13861733D02*
X17084267Y13953846D01*
X16357464Y12997941D02*
X17074003Y13714480D01*
X16977169Y13872204D02*
X17073796Y13968831D01*
X16770482Y14072810D02*
X17072172Y14374500D01*
X16353953Y13019886D02*
X17065698Y13731631D01*
X16959966Y13880457D02*
X17065543Y13986034D01*
X16435524Y9308543D02*
X17063981Y9936999D01*
X17033938Y14030796D02*
X17062707Y14059565D01*
X17033954Y13776255D02*
X17062477Y13804777D01*
X17001706Y13693094D02*
X17060041Y13751429D01*
X17006901Y13952847D02*
X17059952Y14005899D01*
X17031433Y14002836D02*
X17058025Y14029428D01*
X17031277Y13748122D02*
X17058014Y13774859D01*
X16761606Y14089390D02*
X17046716Y14374500D01*
X16350341Y9808844D02*
X17044147Y10502649D01*
X16785107Y9683581D02*
X17038525Y9936999D01*
X16332227Y9816185D02*
X17021574Y10505532D01*
X16750580Y14103819D02*
X17021260Y14374500D01*
X16786540Y9710470D02*
X17013069Y9936999D01*
X16313578Y9822992D02*
X17004980Y10514394D01*
X16344736Y13036125D02*
X16998906Y13690294D01*
X16737540Y14116236D02*
X16995805Y14374500D01*
X16940101Y13886048D02*
X16993153Y13939099D01*
X16300850Y9835719D02*
X16992592Y10527461D01*
X16288122Y9848447D02*
X16984530Y10544855D01*
X16722463Y14126615D02*
X16970349Y14374500D01*
X16275394Y9861175D02*
X16961766Y10547547D01*
X16705155Y14134762D02*
X16944893Y14374500D01*
X16331355Y13048199D02*
X16943878Y13660723D01*
X16916572Y13887975D02*
X16943164Y13914567D01*
X16262666Y9873903D02*
X16936262Y10547499D01*
X16685157Y14140220D02*
X16919437Y14374500D01*
X16314206Y13056506D02*
X16915745Y13658046D01*
X16886435Y13883293D02*
X16915204Y13912062D01*
X16249938Y9886631D02*
X16910807Y10547499D01*
X16661426Y14141945D02*
X16893981Y14374500D01*
X16301478Y13069234D02*
X16893179Y13660936D01*
X16776959Y13799273D02*
X16892727Y13915041D01*
X16237190Y9899339D02*
X16885351Y10547499D01*
X16464341Y11272001D02*
X16885063Y11692723D01*
X16288750Y13081962D02*
X16873970Y13667182D01*
X16770651Y13818421D02*
X16873579Y13921349D01*
X16630833Y14136808D02*
X16868526Y14374500D01*
X16825186Y9240001D02*
X16865433Y9280247D01*
X16220886Y9908491D02*
X16864068Y10551672D01*
X16276022Y13094690D02*
X16857291Y13675958D01*
X16761824Y13835050D02*
X16856950Y13930176D01*
X16196940Y9910001D02*
X16850488Y10563549D01*
X16522744Y14054174D02*
X16843070Y14374500D01*
X16263294Y13107418D02*
X16842771Y13686894D01*
X16750843Y13849525D02*
X16842475Y13941157D01*
X16171484Y9910001D02*
X16837761Y10576277D01*
X16812970Y10958778D02*
X16833211Y10979020D01*
X16250566Y13120145D02*
X16830267Y13699846D01*
X16737848Y13861985D02*
X16830015Y13954152D01*
X16100394Y12002653D02*
X16826944Y12729203D01*
X16643951Y10815215D02*
X16826235Y10997499D01*
X16438885Y11272001D02*
X16825161Y11658276D01*
X16146029Y9910001D02*
X16825033Y10589005D01*
X16237838Y13132873D02*
X16819796Y13714831D01*
X16722817Y13872410D02*
X16819590Y13969183D01*
X16516313Y14073199D02*
X16817614Y14374500D01*
X16807475Y12837013D02*
X16814935Y12844473D01*
X16120573Y9910001D02*
X16812305Y10601732D01*
X16225110Y13145601D02*
X16811543Y13732034D01*
X16705561Y13880610D02*
X16811390Y13986439D01*
X16779919Y14031335D02*
X16808945Y14060361D01*
X16779938Y13776796D02*
X16808707Y13805565D01*
X16070573Y11667362D02*
X16806027Y12402816D01*
X16752901Y13698847D02*
X16805952Y13751899D01*
X16755359Y13955864D02*
X16805865Y14006370D01*
X16777583Y14003544D02*
X16804039Y14029999D01*
X16777433Y13748836D02*
X16804025Y13775428D01*
X16622092Y11862501D02*
X16802131Y12042539D01*
X15145679Y9342400D02*
X16800779Y10997499D01*
X16413429Y11272001D02*
X16799359Y11657930D01*
X16100394Y12028109D02*
X16795002Y12722717D01*
X16095117Y9910001D02*
X16792616Y10607499D01*
X16507386Y14089728D02*
X16792158Y14374500D01*
X16778224Y12833218D02*
X16788639Y12843633D01*
X16059521Y11681766D02*
X16782866Y12405112D01*
X16596637Y11862501D02*
X16780165Y12046029D01*
X16774275Y9240001D02*
X16779567Y9245293D01*
X15144451Y9366628D02*
X16775323Y10997499D01*
X16100394Y12053564D02*
X16775032Y12728203D01*
X16387973Y11272001D02*
X16773903Y11657930D01*
X16739551Y12820001D02*
X16770309Y12850758D01*
X16069661Y9910001D02*
X16767160Y10607499D01*
X16496315Y14104113D02*
X16766702Y14374500D01*
X16052501Y11700202D02*
X16765958Y12413659D01*
X16571181Y11862501D02*
X16763913Y12055233D01*
X16100394Y12079020D02*
X16760034Y12738660D01*
X16100394Y12333578D02*
X16759999Y12993184D01*
X16623082Y12830811D02*
X16759999Y12967728D01*
X16655009Y12837282D02*
X16759999Y12942272D01*
X16714095Y12820001D02*
X16756496Y12862401D01*
X16100394Y12359034D02*
X16755251Y13013891D01*
X16748819Y9240001D02*
X16752360Y9243542D01*
X15138451Y9386083D02*
X16749867Y10997499D01*
X16365417Y11274899D02*
X16748447Y11657930D01*
X16052501Y11725657D02*
X16746843Y12419999D01*
X16689973Y12821334D02*
X16746806Y12878167D01*
X16410068Y9308543D02*
X16746419Y9644893D01*
X16100394Y12384490D02*
X16746040Y13030136D01*
X16545725Y11862501D02*
X16743224Y12059999D01*
X16100394Y12409946D02*
X16742537Y13052089D01*
X16674976Y12831793D02*
X16742503Y12899320D01*
X16044205Y9910001D02*
X16741704Y10607499D01*
X16483232Y14116485D02*
X16741247Y14374500D01*
X16212382Y13158329D02*
X16739153Y13685099D01*
X16685630Y13886135D02*
X16736136Y13936641D01*
X16100394Y12104476D02*
X16735917Y12739999D01*
X16723363Y9240001D02*
X16726904Y9243542D01*
X15129231Y9402319D02*
X16724412Y10997499D01*
X16357889Y11292827D02*
X16722991Y11657930D01*
X16052501Y11751113D02*
X16721387Y12419999D01*
X16384613Y9308543D02*
X16719530Y9643461D01*
X16520269Y11862501D02*
X16717768Y12059999D01*
X16018750Y9910001D02*
X16716249Y10607499D01*
X16468109Y14126818D02*
X16715791Y14374500D01*
X16100394Y12129932D02*
X16710461Y12739999D01*
X16697907Y9240001D02*
X16701449Y9243542D01*
X16359157Y9308543D02*
X16700976Y9650362D01*
X15117328Y9415871D02*
X16698956Y10997499D01*
X16348046Y11308440D02*
X16697535Y11657930D01*
X16052501Y11776569D02*
X16695931Y12419999D01*
X16379090Y11746777D02*
X16692312Y12059999D01*
X15993294Y9910001D02*
X16690793Y10607499D01*
X16450748Y14134913D02*
X16690335Y14374500D01*
X16199654Y13171057D02*
X16689164Y13660567D01*
X16662001Y13887961D02*
X16688456Y13914417D01*
X16257334Y9308543D02*
X16687295Y9738504D01*
X16333701Y9308543D02*
X16686992Y9661834D01*
X16308245Y9308543D02*
X16677120Y9677417D01*
X16672451Y9240001D02*
X16675993Y9243542D01*
X16636752Y10960751D02*
X16673500Y10997499D01*
X16282789Y9308543D02*
X16672525Y9698279D01*
X16336134Y11321984D02*
X16672080Y11657930D01*
X16100394Y12155388D02*
X16671797Y12726791D01*
X15967838Y9910001D02*
X16665337Y10607499D01*
X16430683Y14140304D02*
X16664879Y14374500D01*
X16186927Y13183785D02*
X16661204Y13658062D01*
X16631639Y13883055D02*
X16660665Y13912081D01*
X16098509Y11848033D02*
X16653057Y12402581D01*
X16646996Y9240001D02*
X16650537Y9243542D01*
X16351196Y11744339D02*
X16649360Y12042503D01*
X16322217Y11333523D02*
X16646624Y11657930D01*
X16100394Y12180843D02*
X16642536Y12722986D01*
X15950884Y9918502D02*
X16639881Y10607499D01*
X16406849Y14141926D02*
X16639423Y14374500D01*
X16174199Y13196513D02*
X16638727Y13661041D01*
X16522852Y13799724D02*
X16638276Y13915148D01*
X16100394Y11875374D02*
X16630815Y12405795D01*
X15144972Y10563571D02*
X16628195Y12046794D01*
X16621540Y9240001D02*
X16625081Y9243542D01*
X16100394Y12206299D02*
X16623214Y12729119D01*
X16306202Y11342964D02*
X16621168Y11657930D01*
X16161471Y13209241D02*
X16619579Y13667349D01*
X16516482Y13818810D02*
X16619190Y13921518D01*
X15932949Y9926023D02*
X16614425Y10607499D01*
X16100394Y11900830D02*
X16614405Y12414841D01*
X16376019Y14136551D02*
X16613968Y14374500D01*
X15139508Y10583563D02*
X16612422Y12056477D01*
X16100394Y12231755D02*
X16608666Y12740027D01*
X16586104Y10757368D02*
X16604785Y10776049D01*
X16148743Y13221969D02*
X16602950Y13676176D01*
X16507606Y13835390D02*
X16602610Y13930394D01*
X16100394Y11926285D02*
X16602179Y12428071D01*
X15130696Y10600206D02*
X16600773Y12070284D01*
X16596084Y9240001D02*
X16599625Y9243542D01*
X16100394Y12308122D02*
X16599189Y12806918D01*
X16100394Y12257211D02*
X16598207Y12755024D01*
X16287799Y11350017D02*
X16595712Y11657930D01*
X15105043Y10625465D02*
X16594458Y12114880D01*
X16100394Y11951741D02*
X16594316Y12445663D01*
X15119155Y10614121D02*
X16593640Y12088606D01*
X16100394Y11977197D02*
X16593415Y12470218D01*
X16100394Y12282667D02*
X16592718Y12774991D01*
X15102847Y9426847D02*
X16589249Y10913248D01*
X15907623Y9926153D02*
X16588970Y10607499D01*
X16268634Y14054622D02*
X16588512Y14374500D01*
X16136015Y13234697D02*
X16588475Y13687157D01*
X16496580Y13849819D02*
X16588181Y13941420D01*
X16576089Y11027367D02*
X16581808Y11033086D01*
X16123287Y13247424D02*
X16576015Y13700152D01*
X16483540Y13862236D02*
X16575764Y13954460D01*
X16570628Y9240001D02*
X16574170Y9243542D01*
X16110559Y13260152D02*
X16565590Y13715183D01*
X16468463Y13872615D02*
X16565385Y13969537D01*
X15085554Y9435010D02*
X16565028Y10914483D01*
X16262142Y14073586D02*
X16563056Y14374500D01*
X14746644Y9223378D02*
X16562674Y11039408D01*
X16097831Y13272880D02*
X16557390Y13732439D01*
X16451155Y13880762D02*
X16557238Y13986845D01*
X16525897Y14031872D02*
X16555192Y14061167D01*
X16525919Y13777335D02*
X16554945Y13806361D01*
X16501360Y13701864D02*
X16551865Y13752370D01*
X16503189Y13958252D02*
X16551780Y14006843D01*
X16523727Y14004246D02*
X16550055Y14030574D01*
X16523583Y13749544D02*
X16550039Y13775999D01*
X16545172Y9240001D02*
X16548714Y9243542D01*
X14721188Y9223378D02*
X16548261Y11050451D01*
X15064671Y9439582D02*
X16547592Y10922503D01*
X16266360Y11354033D02*
X16540160Y11627833D01*
X15179393Y9223378D02*
X16539265Y10583251D01*
X14695732Y9223378D02*
X16537940Y11065586D01*
X16253166Y14090066D02*
X16537600Y14374500D01*
X15037767Y9438134D02*
X16534489Y10934856D01*
X16511671Y11064773D02*
X16532656Y11085758D01*
X16526104Y10697368D02*
X16532632Y10703896D01*
X14797555Y9223378D02*
X16525587Y10951410D01*
X16519716Y9240001D02*
X16523258Y9243542D01*
X14772100Y9223378D02*
X16522633Y10973911D01*
X15153937Y9223378D02*
X16515039Y10584480D01*
X16240294Y11353423D02*
X16514370Y11627499D01*
X16242050Y14104406D02*
X16512144Y14374500D01*
X16436757Y11142594D02*
X16501163Y11206999D01*
X16494261Y9240001D02*
X16497802Y9243542D01*
X15128481Y9223378D02*
X16497600Y10592497D01*
X16228923Y14116734D02*
X16486689Y14374500D01*
X14670276Y9223378D02*
X16485227Y11038329D01*
X15103025Y9223378D02*
X16484495Y10604848D01*
X16085103Y13285608D02*
X16482136Y13682640D01*
X16431157Y13886220D02*
X16479748Y13934811D01*
X14492086Y9223378D02*
X16475707Y11206999D01*
X15077569Y9223378D02*
X16475591Y10621400D01*
X15134222Y9305487D02*
X16472632Y10643896D01*
X16468805Y9240001D02*
X16472346Y9243542D01*
X16202947Y11341532D02*
X16466262Y11604847D01*
X16213754Y14127021D02*
X16461233Y14374500D01*
X14644821Y9223378D02*
X16454232Y11032789D01*
X14466630Y9223378D02*
X16450251Y11206999D01*
X16443349Y9240001D02*
X16446891Y9243542D01*
X14195961Y9360002D02*
X16439437Y11603478D01*
X16196340Y14135063D02*
X16435777Y14374500D01*
X14619365Y9223378D02*
X16434466Y11038480D01*
X16072375Y13298336D02*
X16434456Y13660417D01*
X16407426Y13887945D02*
X16433754Y13914273D01*
X14441174Y9223378D02*
X16424796Y11206999D01*
X16417893Y9240001D02*
X16421435Y9243542D01*
X14183233Y9372730D02*
X16420906Y11610403D01*
X14593909Y9223378D02*
X16419607Y11049076D01*
X16176206Y14140385D02*
X16410321Y14374500D01*
X14568453Y9223378D02*
X16408836Y11063760D01*
X14517542Y9223378D02*
X16407406Y11113243D01*
X14170505Y9385458D02*
X16406940Y11621893D01*
X16059647Y13311064D02*
X16406665Y13658081D01*
X16376833Y13882808D02*
X16406128Y13912103D01*
X14542997Y9223378D02*
X16402894Y11083275D01*
X14415718Y9223378D02*
X16399340Y11206999D01*
X14157777Y9398186D02*
X16397087Y11637495D01*
X16392437Y9240001D02*
X16395979Y9243542D01*
X16152268Y14141903D02*
X16384865Y14374500D01*
X16046920Y13323792D02*
X16384276Y13661148D01*
X16272001Y13803431D02*
X16383826Y13915256D01*
X16362155Y11195270D02*
X16373884Y11206999D01*
X16366982Y9240001D02*
X16370523Y9243542D01*
X14145049Y9410914D02*
X16366729Y11632593D01*
X16038523Y13340851D02*
X16365190Y13667518D01*
X16272001Y13828887D02*
X16364801Y13921687D01*
X16121194Y14136284D02*
X16359410Y14374500D01*
X16026580Y13354364D02*
X16348610Y13676394D01*
X16272001Y13854342D02*
X16348272Y13930614D01*
X14132321Y9423641D02*
X16346294Y11637614D01*
X16341526Y9240001D02*
X16345067Y9243542D01*
X16010487Y13363727D02*
X16334181Y13687420D01*
X15635315Y13675861D02*
X16333954Y14374500D01*
X16268297Y13876095D02*
X16333887Y13941685D01*
X14119593Y9436369D02*
X16330985Y11647761D01*
X15988792Y13367488D02*
X16321764Y13700460D01*
X16253804Y13887057D02*
X16321515Y13954768D01*
X15841243Y9223378D02*
X16320366Y9702501D01*
X14106866Y9449097D02*
X16319774Y11662006D01*
X16316070Y9240001D02*
X16319612Y9243542D01*
X15145249Y10538392D02*
X16315661Y11708804D01*
X15126987Y10494675D02*
X16313223Y11680910D01*
X16270601Y13674752D02*
X16311385Y13715537D01*
X16229291Y13888001D02*
X16311182Y13969891D01*
X15596498Y13662501D02*
X16308498Y14374500D01*
X16272001Y13701608D02*
X16303238Y13732845D01*
X16203835Y13888001D02*
X16303087Y13987252D01*
X15837464Y12477941D02*
X16302059Y12942536D01*
X16271873Y14032406D02*
X16301449Y14061981D01*
X16272001Y13777975D02*
X16301192Y13807167D01*
X14390263Y9223378D02*
X16300230Y11133345D01*
X15815788Y9223378D02*
X16298914Y9706505D01*
X16272001Y13727063D02*
X16297780Y13752843D01*
X16250687Y13960308D02*
X16297696Y14007317D01*
X16269865Y14004942D02*
X16296074Y14031151D01*
X16272001Y13752519D02*
X16296055Y13776574D01*
X16290614Y9240001D02*
X16294156Y9243542D01*
X15571043Y13662501D02*
X16283042Y14374500D01*
X15790332Y9223378D02*
X16282967Y9716013D01*
X15833953Y12499886D02*
X16280114Y12946047D01*
X15764876Y9223378D02*
X16271156Y9729659D01*
X16265158Y9240001D02*
X16268700Y9243542D01*
X14364807Y9223378D02*
X16266399Y11124971D01*
X15949709Y12641098D02*
X16263875Y12955264D01*
X15739420Y9223378D02*
X16263815Y9747773D01*
X15545587Y13662501D02*
X16257586Y14374500D01*
X15713964Y9223378D02*
X16257008Y9766422D01*
X15298349Y12702501D02*
X16255248Y13659399D01*
X16077190Y12794035D02*
X16251801Y12968645D01*
X15688509Y9223378D02*
X16244281Y9779150D01*
X16074875Y12817176D02*
X16243494Y12985794D01*
X16239703Y9240001D02*
X16243244Y9243542D01*
X15623172Y10507199D02*
X16241403Y11125430D01*
X15520131Y13662501D02*
X16232131Y14374500D01*
X15663053Y9223378D02*
X16231553Y9791878D01*
X16066317Y12834074D02*
X16230766Y12998522D01*
X15285571Y12715178D02*
X16228392Y13657999D01*
X16178380Y13888001D02*
X16223692Y13933312D01*
X15633745Y10543228D02*
X16220601Y11130083D01*
X15637597Y9223378D02*
X16218825Y9804606D01*
X16053513Y12846725D02*
X16218038Y13011250D01*
X16214247Y9240001D02*
X16217788Y9243542D01*
X15494675Y13662501D02*
X16206675Y14374500D01*
X15612141Y9223378D02*
X16206097Y9817334D01*
X16036434Y12855102D02*
X16205310Y13023978D01*
X15269154Y12724217D02*
X16202937Y13657999D01*
X15632329Y10567267D02*
X16202673Y11137611D01*
X15586685Y9223378D02*
X16193307Y9829999D01*
X16012942Y12857066D02*
X16192582Y13036706D01*
X16188791Y9240001D02*
X16192333Y9243542D01*
X15626217Y10586612D02*
X16187060Y11147454D01*
X15469219Y13662501D02*
X16181219Y14374500D01*
X15998192Y12867771D02*
X16179855Y13049434D01*
X16152924Y13888001D02*
X16179058Y13914135D01*
X15246898Y12727417D02*
X16177481Y13657999D01*
X15616912Y10602763D02*
X16173516Y11159366D01*
X15561230Y9223378D02*
X16167851Y9829999D01*
X15985464Y12880499D02*
X16167127Y13062162D01*
X16163335Y9240001D02*
X16166877Y9243542D01*
X15604932Y10616238D02*
X16161977Y11173283D01*
X15456055Y13674792D02*
X16155763Y14374500D01*
X15972736Y12893227D02*
X16154399Y13074890D01*
X14208689Y9347274D02*
X16153968Y11292553D01*
X15590372Y10627134D02*
X16152536Y11189298D01*
X14157126Y11663101D02*
X16152025Y13657999D01*
X16127468Y13888001D02*
X16151594Y13912127D01*
X15572987Y10635205D02*
X16145483Y11207701D01*
X15626557Y9314162D02*
X16142395Y9829999D01*
X15524799Y10637929D02*
X16142077Y11255206D01*
X15960008Y12905955D02*
X16141671Y13087618D01*
X15551973Y10639647D02*
X16141467Y11229140D01*
X16137879Y9240001D02*
X16141421Y9243542D01*
X15439794Y13683986D02*
X16130307Y14374500D01*
X16102012Y13888001D02*
X16129378Y13915366D01*
X15947280Y12918683D02*
X16128943Y13100346D01*
X14140461Y11671892D02*
X16126569Y13657999D01*
X15633951Y9347011D02*
X16116939Y9829999D01*
X15934552Y12931411D02*
X16116215Y13113074D01*
X16112424Y9240001D02*
X16115965Y9243542D01*
X16076556Y13888001D02*
X16110414Y13921858D01*
X15417810Y13687459D02*
X16104852Y14374500D01*
X15922501Y12944815D02*
X16103487Y13125801D01*
X14120994Y11677880D02*
X16101113Y13657999D01*
X15726028Y13562928D02*
X16093934Y13930834D01*
X15631701Y9370217D02*
X16091483Y9829999D01*
X15922501Y12970271D02*
X16090759Y13138529D01*
X16086968Y9240001D02*
X16090509Y9243542D01*
X15718513Y13580868D02*
X16079594Y13941950D01*
X15240001Y13535105D02*
X16079396Y14374500D01*
X15922501Y12995726D02*
X16078031Y13151257D01*
X14191938Y11774280D02*
X16075658Y13657999D01*
X15724812Y13612624D02*
X16067266Y13955077D01*
X15625084Y9389056D02*
X16066028Y9829999D01*
X15947364Y13046046D02*
X16065303Y13163985D01*
X16061512Y9240001D02*
X16065054Y9243542D01*
X15726641Y13639908D02*
X16056979Y13970246D01*
X15240001Y13560561D02*
X16053940Y14374500D01*
X14204191Y11811989D02*
X16053905Y13661703D01*
X15944423Y13068560D02*
X16052576Y13176713D01*
X15719881Y13658604D02*
X16048937Y13987660D01*
X15672362Y13687452D02*
X16047716Y14062806D01*
X15708516Y13672695D02*
X16043615Y14007794D01*
X14204253Y11837507D02*
X16042943Y13676196D01*
X15693046Y13682680D02*
X16042097Y14031732D01*
X15726145Y13537589D02*
X16041999Y13853444D01*
X14137201Y11923190D02*
X16041999Y13827988D01*
X14154323Y11914856D02*
X16041999Y13802532D01*
X14169037Y11904114D02*
X16041999Y13777076D01*
X14181537Y11891158D02*
X16041999Y13751620D01*
X14191801Y11875967D02*
X16041999Y13726165D01*
X14199583Y11858292D02*
X16041999Y13700709D01*
X15615384Y9404812D02*
X16040572Y9829999D01*
X15088175Y10634053D02*
X16040339Y11586217D01*
X15935528Y13085121D02*
X16039848Y13189441D01*
X16036056Y9240001D02*
X16039598Y9243542D01*
X15240001Y13586016D02*
X16028484Y14374500D01*
X15922432Y13097481D02*
X16027120Y13202169D01*
X16017190Y12734035D02*
X16025965Y12742810D01*
X15603043Y9417927D02*
X16015116Y9829999D01*
X15905004Y13105509D02*
X16014392Y13214897D01*
X16010600Y9240001D02*
X16014142Y9243542D01*
X15067879Y10639213D02*
X16011759Y11583093D01*
X15240001Y13611472D02*
X16003028Y14374500D01*
X15880799Y13106760D02*
X16001664Y13227625D01*
X15042137Y10638926D02*
X15992638Y11589427D01*
X15588110Y9428450D02*
X15989660Y9829999D01*
X15451084Y12702501D02*
X15988936Y13240353D01*
X13966859Y9589104D02*
X15978234Y11600479D01*
X15477412Y13874340D02*
X15977573Y14374500D01*
X15425628Y12702501D02*
X15976208Y13253080D01*
X13954131Y9601832D02*
X15967922Y11615623D01*
X15957348Y12674192D02*
X15965965Y12682810D01*
X15570282Y9436077D02*
X15964204Y9829999D01*
X15956577Y11629733D02*
X15962652Y11635809D01*
X15400172Y12702501D02*
X15959149Y13261477D01*
X15481981Y13904364D02*
X15952117Y14374500D01*
X15826272Y12415838D02*
X15951822Y12541388D01*
X15374717Y12702501D02*
X15945636Y13273420D01*
X15852103Y12416212D02*
X15942594Y12506704D01*
X15349261Y12702501D02*
X15936273Y13289513D01*
X15323805Y12702501D02*
X15932512Y13311208D01*
X15824736Y12516125D02*
X15928902Y12620291D01*
X15480003Y13927842D02*
X15926661Y14374500D01*
X15548630Y9439881D02*
X15921262Y9812513D01*
X15893452Y12381194D02*
X15915654Y12403397D01*
X15616577Y11289733D02*
X15910267Y11583423D01*
X15883917Y12397116D02*
X15906284Y12419483D01*
X15879659Y12723782D02*
X15902934Y12747058D01*
X15897500Y12359787D02*
X15902718Y12365004D01*
X15870248Y12408902D02*
X15902511Y12441165D01*
X15474378Y13947673D02*
X15901205Y14374500D01*
X15520048Y9436755D02*
X15899552Y9816258D01*
X15811355Y12528199D02*
X15895808Y12612652D01*
X15832921Y12702501D02*
X15892229Y12761808D01*
X15615693Y11314305D02*
X15885695Y11584307D01*
X15281216Y9223378D02*
X15883449Y9825612D01*
X15807465Y12702501D02*
X15879501Y12774536D01*
X15466098Y13964849D02*
X15875749Y14374500D01*
X15793575Y12535875D02*
X15875622Y12617923D01*
X15255760Y9223378D02*
X15871498Y9839116D01*
X15607837Y11331905D02*
X15868095Y11592163D01*
X15782009Y12702501D02*
X15866773Y12787264D01*
X15230304Y9223378D02*
X15863977Y9857051D01*
X15204848Y9223378D02*
X15863847Y9882377D01*
X15768604Y12536360D02*
X15860478Y12628235D01*
X15595617Y11345141D02*
X15854859Y11604383D01*
X15756554Y12702501D02*
X15854045Y12799992D01*
X15455604Y13979811D02*
X15850294Y14374500D01*
X15579215Y11354195D02*
X15845805Y11620785D01*
X15719288Y12512501D02*
X15844287Y12637499D01*
X15837462Y11637898D02*
X15842102Y11642538D01*
X15731098Y12702501D02*
X15841317Y12812720D01*
X15820799Y13046760D02*
X15833240Y13059201D01*
X15705642Y12702501D02*
X15828589Y12825448D01*
X15443078Y13992740D02*
X15824838Y14374500D01*
X15693833Y12512501D02*
X15818832Y12637499D01*
X15680186Y12702501D02*
X15815861Y12838176D01*
X15533452Y12021194D02*
X15807499Y12295242D01*
X15774996Y12237282D02*
X15807499Y12269786D01*
X15797834Y12234665D02*
X15807499Y12244330D01*
X15654730Y12702501D02*
X15803464Y12851234D01*
X15523917Y12037116D02*
X15802884Y12316083D01*
X15428534Y14003653D02*
X15799382Y14374500D01*
X15578363Y12702501D02*
X15797499Y12921637D01*
X15603819Y12702501D02*
X15797499Y12896181D01*
X15629275Y12702501D02*
X15797499Y12870725D01*
X15552907Y12702501D02*
X15794879Y12944472D01*
X15668377Y12512501D02*
X15793376Y12637499D01*
X15510248Y12048902D02*
X15791098Y12329752D01*
X15477112Y12066677D02*
X15784162Y12373728D01*
X15492103Y12056212D02*
X15783788Y12347897D01*
X15527451Y12702501D02*
X15782519Y12957568D01*
X15556986Y11357421D02*
X15782102Y11582538D01*
X15545852Y12186329D02*
X15782059Y12422536D01*
X15501996Y12702501D02*
X15774491Y12974996D01*
X15411829Y14012403D02*
X15773926Y14374500D01*
X15476540Y12702501D02*
X15773240Y12999201D01*
X15642921Y12512501D02*
X15767920Y12637499D01*
X13856609Y9682501D02*
X15760145Y11586036D01*
X15579769Y12245702D02*
X15760114Y12426047D01*
X15392588Y14018618D02*
X15748470Y14374500D01*
X13831153Y9682501D02*
X15743898Y11595246D01*
X15656130Y12347518D02*
X15743875Y12435264D01*
X15617465Y12512501D02*
X15742464Y12637499D01*
X13805697Y9682501D02*
X15731817Y11608620D01*
X15656039Y12372883D02*
X15730655Y12447499D01*
X15710797Y11613056D02*
X15724133Y11626392D01*
X15477637Y14129123D02*
X15723014Y14374500D01*
X15714996Y12177282D02*
X15722718Y12185004D01*
X15592009Y12512501D02*
X15717008Y12637499D01*
X15648534Y12390834D02*
X15705199Y12447499D01*
X15481990Y14158931D02*
X15697559Y14374500D01*
X15566554Y12512501D02*
X15691553Y12637499D01*
X13780241Y9682501D02*
X15686944Y11589203D01*
X14117147Y11928591D02*
X15682411Y13493855D01*
X15636595Y12404352D02*
X15679743Y12447499D01*
X15479913Y14182310D02*
X15672103Y14374500D01*
X15541098Y12512501D02*
X15666097Y12637499D01*
X15654996Y12117282D02*
X15662718Y12125004D01*
X14092857Y11929757D02*
X15657072Y13493972D01*
X13754785Y9682501D02*
X15655002Y11582717D01*
X15620507Y12413719D02*
X15654287Y12447499D01*
X15474222Y14202075D02*
X15646647Y14374500D01*
X15522199Y12519058D02*
X15640641Y12637499D01*
X14750905Y12613261D02*
X15639132Y13501487D01*
X13729330Y9682501D02*
X15635032Y11588203D01*
X15598821Y12417488D02*
X15628832Y12447499D01*
X14757275Y12645087D02*
X15625623Y13513435D01*
X15621954Y13662501D02*
X15624139Y13664685D01*
X15465891Y14219200D02*
X15621191Y14374500D01*
X13716116Y9694743D02*
X15620034Y11598660D01*
X15507941Y12530255D02*
X15615185Y12637499D01*
X15580001Y12271389D02*
X15612482Y12303870D01*
X13699874Y9703957D02*
X15609124Y11613206D01*
X14751765Y12665033D02*
X15604232Y13517499D01*
X15390877Y12235001D02*
X15603376Y12447499D01*
X15595527Y11625065D02*
X15602987Y11632525D01*
X15594996Y12057282D02*
X15602718Y12065004D01*
X15455351Y14234115D02*
X15595735Y14374500D01*
X15489019Y12536789D02*
X15589729Y12637499D01*
X14339351Y9223378D02*
X15586801Y10470828D01*
X15535774Y9223378D02*
X15579838Y9267443D01*
X14741292Y12680016D02*
X15578776Y13517499D01*
X15365421Y12235001D02*
X15577920Y12447499D01*
X15442781Y14247001D02*
X15570280Y14374500D01*
X13941403Y9614560D02*
X15570266Y11243423D01*
X15461069Y12534295D02*
X15564274Y12637499D01*
X13677925Y9707463D02*
X15554935Y11584473D01*
X14726731Y12690910D02*
X15553321Y13517499D01*
X15339965Y12235001D02*
X15552464Y12447499D01*
X14323240Y9232723D02*
X15550772Y10460255D01*
X15510318Y9223378D02*
X15546989Y9260049D01*
X13928675Y9627288D02*
X15545695Y11244307D01*
X15428192Y14257868D02*
X15544824Y14374500D01*
X15537500Y11999787D02*
X15542718Y12005004D01*
X15416333Y12235001D02*
X15542512Y12361179D01*
X15036319Y12135001D02*
X15538818Y12637499D01*
X13520662Y9575656D02*
X15528639Y11583633D01*
X13915947Y9640016D02*
X15528095Y11252163D01*
X14707389Y12697024D02*
X15527865Y13517499D01*
X14310512Y9245451D02*
X15526733Y10461671D01*
X15484862Y9223378D02*
X15523783Y9262299D01*
X15411437Y14266568D02*
X15519368Y14374500D01*
X13903219Y9652744D02*
X15514859Y11264383D01*
X15010863Y12135001D02*
X15513362Y12637499D01*
X15314509Y12235001D02*
X15511226Y12431717D01*
X13506037Y9586487D02*
X15510309Y11590758D01*
X14297784Y9258179D02*
X15507388Y10467783D01*
X13890491Y9665472D02*
X15505805Y11280785D01*
X15459406Y9223378D02*
X15504944Y9268916D01*
X15460420Y12100897D02*
X15503671Y12144148D01*
X13877163Y9677599D02*
X15502579Y11303014D01*
X14678059Y12693150D02*
X15502409Y13517499D01*
X15441788Y12235001D02*
X15499999Y12293212D01*
X15489744Y12257500D02*
X15499999Y12267756D01*
X13490673Y9596579D02*
X15496496Y11602401D01*
X15392133Y14272721D02*
X15493912Y14374500D01*
X14285056Y9270907D02*
X15491237Y10477088D01*
X15433951Y9223378D02*
X15489188Y9278616D01*
X14985407Y12135001D02*
X15487906Y12637499D01*
X13474543Y9605905D02*
X15486806Y11618167D01*
X13457612Y9614429D02*
X15482503Y11639321D01*
X15445569Y12111503D02*
X15477862Y12143795D01*
X14272328Y9283635D02*
X15477762Y10489068D01*
X13988266Y12028812D02*
X15476953Y13517499D01*
X15289054Y12235001D02*
X15476650Y12422597D01*
X15408495Y9223378D02*
X15476073Y9290957D01*
X15369431Y14275475D02*
X15468456Y14374500D01*
X14259600Y9296362D02*
X15466866Y10503628D01*
X15383039Y9223378D02*
X15465550Y9305890D01*
X13439830Y9622103D02*
X15462845Y11645118D01*
X14959951Y12135001D02*
X15462450Y12637499D01*
X15425817Y12117206D02*
X15459726Y12151115D01*
X14246872Y9309090D02*
X15458795Y10521013D01*
X15357583Y9223378D02*
X15457923Y9323718D01*
X15306672Y9223378D02*
X15457245Y9373952D01*
X15262862Y12234265D02*
X15456237Y12427640D01*
X14221417Y9334546D02*
X15456071Y10569201D01*
X14234145Y9321818D02*
X15454353Y10542027D01*
X15332127Y9223378D02*
X15454119Y9345370D01*
X15394877Y12111722D02*
X15446063Y12162908D01*
X13421135Y9628864D02*
X15445942Y11653671D01*
X15341031Y14272530D02*
X15443001Y14374500D01*
X15138142Y12135001D02*
X15440942Y12437801D01*
X14934496Y12135001D02*
X15436995Y12637499D01*
X13401445Y9634630D02*
X15433287Y11666471D01*
X15112686Y12135001D02*
X15429745Y12452059D01*
X13977918Y12043920D02*
X15426915Y13492917D01*
X15061775Y12135001D02*
X15425705Y12498931D01*
X13380651Y9639291D02*
X15424904Y11683545D01*
X15087230Y12135001D02*
X15423211Y12470981D01*
X15348534Y12090834D02*
X15422699Y12164999D01*
X13358603Y9642700D02*
X15418425Y11702521D01*
X13537694Y12494650D02*
X15417545Y14374500D01*
X14909040Y12135001D02*
X15411539Y12637499D01*
X13963964Y12055422D02*
X15403469Y13494927D01*
X15240001Y13636928D02*
X15399160Y13796088D01*
X15369976Y14021462D02*
X15398377Y14049863D01*
X13335098Y9644650D02*
X15397523Y11707075D01*
X15336595Y12104352D02*
X15397243Y12164999D01*
X13212501Y12194912D02*
X15392089Y14374500D01*
X13946069Y12062983D02*
X15386414Y13503328D01*
X14883584Y12135001D02*
X15386083Y12637499D01*
X13309834Y9644841D02*
X15381914Y11716922D01*
X15257194Y13475931D02*
X15375208Y13593945D01*
X13922156Y12064525D02*
X15373629Y13515999D01*
X15320507Y12113719D02*
X15371787Y12164999D01*
X13282348Y9642812D02*
X15370418Y11730881D01*
X15240001Y13662384D02*
X15369136Y13791519D01*
X15341754Y14018695D02*
X15368569Y14045510D01*
X15356039Y12072883D02*
X15368278Y12085123D01*
X13212501Y12220367D02*
X15366633Y14374500D01*
X15251461Y13495653D02*
X15366014Y13610206D01*
X13212501Y11380326D02*
X15365095Y13532920D01*
X13251857Y9637776D02*
X15363484Y11749404D01*
X15251839Y13445121D02*
X15362825Y13556106D01*
X15240834Y13510483D02*
X15362541Y13632190D01*
X14858128Y12135001D02*
X15360627Y12637499D01*
X13216808Y9628183D02*
X15351723Y11763098D01*
X15298820Y12117488D02*
X15346332Y12164999D01*
X15240001Y13687840D02*
X15345658Y13793497D01*
X14571094Y13273492D02*
X15345190Y14047587D01*
X13212501Y12245823D02*
X15341177Y14374500D01*
X14832672Y12135001D02*
X15335171Y12637499D01*
X13173050Y9609881D02*
X15332611Y11769442D01*
X15240001Y13713295D02*
X15325827Y13799122D01*
X14549646Y13277499D02*
X15325425Y14053278D01*
X14212979Y11057103D02*
X15320876Y12164999D01*
X13025500Y9487787D02*
X15318214Y11780500D01*
X13212501Y12271279D02*
X15315722Y14374500D01*
X14807217Y12135001D02*
X15309716Y12637499D01*
X13734198Y12487507D02*
X15308300Y14061609D01*
X13025500Y9513243D02*
X15307909Y11795652D01*
X13025500Y9538699D02*
X15302650Y11815848D01*
X14195728Y11065308D02*
X15295420Y12164999D01*
X13717277Y12496042D02*
X15293385Y14072149D01*
X13212501Y12296735D02*
X15290266Y14374500D01*
X13025500Y9564154D02*
X15285662Y11824316D01*
X13699049Y12503269D02*
X15280499Y14084719D01*
X13679346Y12509023D02*
X15269632Y14099308D01*
X13025500Y9589610D02*
X15268070Y11832180D01*
X13025500Y9767801D02*
X15267499Y12009800D01*
X13025500Y9742345D02*
X15267499Y11984344D01*
X13025500Y9716889D02*
X15267499Y11958888D01*
X13025500Y9691433D02*
X15267499Y11933433D01*
X13212501Y12322191D02*
X15264810Y14374500D01*
X14605883Y13206457D02*
X15261097Y13861671D01*
X13657915Y12513047D02*
X15260932Y14116063D01*
X14781761Y12135001D02*
X15260165Y12613405D01*
X14237286Y11005043D02*
X15255648Y12023405D01*
X13577157Y12508656D02*
X15254970Y14186469D01*
X14606188Y13232217D02*
X15254882Y13880912D01*
X13025500Y9615066D02*
X15254840Y11844406D01*
X14587040Y13263981D02*
X15254805Y13931746D01*
X13634346Y12514934D02*
X15254779Y14135367D01*
X14598848Y13250334D02*
X15252038Y13903524D01*
X13607921Y12513965D02*
X15252025Y14158069D01*
X14234654Y11027867D02*
X15246281Y12039493D01*
X13025500Y9640522D02*
X15245794Y11860816D01*
X13025500Y9665978D02*
X15242581Y11883058D01*
X14225928Y11044596D02*
X15242512Y12061180D01*
X13212501Y12347646D02*
X15239354Y14374500D01*
X14756305Y12135001D02*
X15235629Y12614324D01*
X13212501Y11405782D02*
X15224879Y13418161D01*
X14730849Y12135001D02*
X15218045Y12622196D01*
X13235892Y12396493D02*
X15213898Y14374500D01*
X14715571Y12145178D02*
X15204822Y12634429D01*
X14699154Y12154217D02*
X15195783Y12650846D01*
X13212501Y11431238D02*
X15194069Y13412806D01*
X14676898Y12157417D02*
X15192583Y12673102D01*
X13236183Y12422240D02*
X15188443Y14374500D01*
X13212501Y11456693D02*
X15174346Y13418539D01*
X14171890Y11066926D02*
X15169964Y12064999D01*
X13228838Y12440351D02*
X15162987Y14374500D01*
X13821212Y12396331D02*
X15159999Y13735118D01*
X13829067Y12378730D02*
X15159999Y13709662D01*
X13835534Y12359741D02*
X15159999Y13684206D01*
X13840405Y12339156D02*
X15159999Y13658750D01*
X13843355Y12316650D02*
X15159999Y13633294D01*
X13843839Y12291679D02*
X15159999Y13607839D01*
X13840830Y12263214D02*
X15159999Y13582383D01*
X13831867Y12228795D02*
X15159999Y13556927D01*
X13804905Y12176377D02*
X15159999Y13531471D01*
X13212501Y11482149D02*
X15159517Y13429166D01*
X13212501Y11507605D02*
X15148775Y13443879D01*
X13212501Y11558517D02*
X15147551Y13493567D01*
X13590413Y10510904D02*
X15144508Y12064999D01*
X13212501Y11533061D02*
X15142875Y13463436D01*
X13217025Y12453994D02*
X15137531Y14374500D01*
X13575560Y10521507D02*
X15119053Y12064999D01*
X13201074Y12463499D02*
X15112075Y14374500D01*
X14094138Y9461825D02*
X15111325Y10479013D01*
X15052114Y9223378D02*
X15100513Y9271778D01*
X13559654Y10531057D02*
X15093597Y12064999D01*
X13179619Y12467499D02*
X15086619Y14374500D01*
X13546926Y10543785D02*
X15068141Y12064999D01*
X14081410Y9474553D02*
X15067608Y10460751D01*
X15026658Y9223378D02*
X15063600Y9260321D01*
X13130202Y12443539D02*
X15061164Y14374500D01*
X13534198Y10556513D02*
X15042685Y12064999D01*
X14068682Y9487281D02*
X15042429Y10461028D01*
X15001202Y9223378D02*
X15039372Y9261549D01*
X13130202Y12468995D02*
X15035708Y14374500D01*
X14055954Y9500009D02*
X15022437Y10466492D01*
X14975746Y9223378D02*
X15019917Y9267549D01*
X13521471Y10569241D02*
X15017229Y12064999D01*
X13130202Y12494451D02*
X15010252Y14374500D01*
X14043226Y9512737D02*
X15005794Y10475304D01*
X14950290Y9223378D02*
X15003681Y9276769D01*
X14030498Y9525465D02*
X14991879Y10486845D01*
X13508743Y10581969D02*
X14991774Y12064999D01*
X14924834Y9223378D02*
X14990129Y9288672D01*
X13130202Y12519906D02*
X14984796Y14374500D01*
X14017770Y9538193D02*
X14980535Y10500957D01*
X14899379Y9223378D02*
X14979153Y9303153D01*
X14005042Y9550920D02*
X14971947Y10517825D01*
X14873923Y9223378D02*
X14970990Y9320446D01*
X14823011Y9223378D02*
X14967866Y9368233D01*
X13979587Y9576376D02*
X14967074Y10563863D01*
X13992314Y9563648D02*
X14966787Y10538121D01*
X14848467Y9223378D02*
X14966418Y9341329D01*
X13496015Y10594697D02*
X14966318Y12064999D01*
X13130202Y12545362D02*
X14959340Y14374500D01*
X13483287Y10607425D02*
X14940862Y12064999D01*
X13130202Y12570818D02*
X14933885Y14374500D01*
X13470559Y10620152D02*
X14915406Y12064999D01*
X13130202Y12596274D02*
X14908429Y14374500D01*
X13811845Y10986894D02*
X14889950Y12064999D01*
X13130202Y12621730D02*
X14882973Y14374500D01*
X13833679Y11034184D02*
X14864494Y12064999D01*
X13130202Y12647185D02*
X14857517Y14374500D01*
X13841528Y11067489D02*
X14839039Y12064999D01*
X13130202Y12672641D02*
X14832061Y14374500D01*
X13843951Y11095367D02*
X14813583Y12064999D01*
X13130202Y12698097D02*
X14806606Y14374500D01*
X13843073Y11119946D02*
X14788127Y12064999D01*
X13130202Y12723553D02*
X14781150Y14374500D01*
X13839827Y11142156D02*
X14762671Y12064999D01*
X13130202Y12749009D02*
X14755694Y14374500D01*
X14183325Y11511109D02*
X14737215Y12064999D01*
X13130202Y12774464D02*
X14730238Y14374500D01*
X14630905Y12493261D02*
X14726739Y12589095D01*
X13130202Y12799920D02*
X14704782Y14374500D01*
X14203379Y11556619D02*
X14690165Y12043405D01*
X13130202Y12825376D02*
X14679327Y14374500D01*
X14204667Y11583363D02*
X14665629Y12044324D01*
X13130202Y12850832D02*
X14653871Y14374500D01*
X14200675Y11604827D02*
X14648045Y12052196D01*
X14558059Y12573150D02*
X14646850Y12661941D01*
X14193389Y11622996D02*
X14634822Y12064429D01*
X13130202Y12876288D02*
X14628415Y14374500D01*
X14183543Y11638606D02*
X14625783Y12080846D01*
X14171436Y11651955D02*
X14622583Y12103102D01*
X14077284Y11939640D02*
X14606739Y12469095D01*
X13130202Y12901743D02*
X14602959Y14374500D01*
X13130202Y12927199D02*
X14577503Y14374500D01*
X14064557Y11952368D02*
X14574913Y12462725D01*
X14505883Y13106457D02*
X14563543Y13164117D01*
X14051829Y11965096D02*
X14554967Y12468235D01*
X14483313Y9087326D02*
X14554364Y9158377D01*
X13130202Y12952655D02*
X14552048Y14374500D01*
X14534225Y9087326D02*
X14546311Y9099413D01*
X14508769Y9087326D02*
X14542509Y9121067D01*
X14039101Y11977824D02*
X14539984Y12478708D01*
X14026373Y11990552D02*
X14529090Y12493269D01*
X14457857Y9087326D02*
X14528908Y9158377D01*
X14000917Y12016008D02*
X14526850Y12541941D01*
X13130202Y12978111D02*
X14526592Y14374500D01*
X14013645Y12003280D02*
X14522976Y12512611D01*
X14432401Y9087326D02*
X14503452Y9158377D01*
X13130202Y13003567D02*
X14501136Y14374500D01*
X14449646Y13177499D02*
X14492501Y13220354D01*
X14406946Y9087326D02*
X14477996Y9158377D01*
X13130202Y13029022D02*
X14475680Y14374500D01*
X13812107Y12412681D02*
X14463543Y13064117D01*
X14381490Y9087326D02*
X14452541Y9158377D01*
X13130202Y13054478D02*
X14450224Y14374500D01*
X13801841Y12427871D02*
X14437783Y13063812D01*
X14356034Y9087326D02*
X14427085Y9158377D01*
X13130202Y13079934D02*
X14424769Y14374500D01*
X13790472Y12441958D02*
X14419666Y13071152D01*
X13778029Y12454970D02*
X14406019Y13082960D01*
X14334911Y9091659D02*
X14401629Y9158377D01*
X13130202Y13105390D02*
X14399313Y14374500D01*
X13764517Y12466914D02*
X14396508Y13098906D01*
X13749921Y12477774D02*
X14392501Y13120354D01*
X14322183Y9104387D02*
X14376173Y9158377D01*
X13398554Y13399197D02*
X14373857Y14374500D01*
X14309455Y9117115D02*
X14350717Y9158377D01*
X13407394Y13433493D02*
X14348401Y14374500D01*
X14296727Y9129842D02*
X14325262Y9158377D01*
X13402313Y13453868D02*
X14322945Y14374500D01*
X14283999Y9142570D02*
X14303699Y9162270D01*
X13392126Y13469137D02*
X14297490Y14374500D01*
X14271271Y9155298D02*
X14290005Y9174032D01*
X14268752Y9025500D02*
X14278341Y9035089D01*
X14258543Y9168026D02*
X14277277Y9186760D01*
X13377843Y13480310D02*
X14272034Y14374500D01*
X14243296Y9025500D02*
X14265613Y9047817D01*
X14245815Y9180754D02*
X14264549Y9199488D01*
X14217840Y9025500D02*
X14252885Y9060545D01*
X14233087Y9193482D02*
X14251821Y9212216D01*
X13358887Y13486810D02*
X14246578Y14374500D01*
X14192384Y9025500D02*
X14240158Y9073273D01*
X14220359Y9206210D02*
X14239093Y9224944D01*
X14166929Y9025500D02*
X14227430Y9086001D01*
X14207632Y9218938D02*
X14226365Y9237672D01*
X13330835Y13484213D02*
X14221122Y14374500D01*
X14141473Y9025500D02*
X14214702Y9098729D01*
X14194904Y9231666D02*
X14213638Y9250400D01*
X14116017Y9025500D02*
X14201974Y9111457D01*
X14182176Y9244394D02*
X14200910Y9263128D01*
X13025500Y13204334D02*
X14195666Y14374500D01*
X14090561Y9025500D02*
X14189246Y9124185D01*
X14169448Y9257121D02*
X14188182Y9275855D01*
X14137286Y10905043D02*
X14184957Y10952714D01*
X14065105Y9025500D02*
X14176518Y9136913D01*
X14156720Y9269849D02*
X14175454Y9288583D01*
X13025500Y13229790D02*
X14170211Y14374500D01*
X13834716Y11162500D02*
X14163891Y11491675D01*
X14039650Y9025500D02*
X14163790Y9149641D01*
X14143992Y9282577D02*
X14162726Y9301311D01*
X14014194Y9025500D02*
X14151062Y9162368D01*
X14097632Y11679974D02*
X14150720Y11733062D01*
X14131264Y9295305D02*
X14149998Y9314039D01*
X13025500Y13255245D02*
X14144755Y14374500D01*
X13988738Y9025500D02*
X14138334Y9175096D01*
X14118536Y9308033D02*
X14137270Y9326767D01*
X13963282Y9025500D02*
X14125606Y9187824D01*
X14105808Y9320761D02*
X14124542Y9339495D01*
X14071890Y10966926D02*
X14123074Y11018110D01*
X13025500Y13280701D02*
X14119299Y14374500D01*
X13828043Y11181283D02*
X14118381Y11471621D01*
X14066824Y11674621D02*
X14113011Y11720809D01*
X13937826Y9025500D02*
X14112879Y9200552D01*
X14093080Y9333489D02*
X14111814Y9352223D01*
X13912371Y9025500D02*
X14100151Y9213280D01*
X14080353Y9346217D02*
X14099086Y9364951D01*
X13025500Y13306157D02*
X14093843Y14374500D01*
X13820006Y11198702D02*
X14091637Y11470333D01*
X13992125Y11625379D02*
X14087493Y11720747D01*
X13886915Y9025500D02*
X14087423Y9226008D01*
X14067625Y9358945D02*
X14086359Y9377679D01*
X13025500Y9793257D02*
X14084957Y10852714D01*
X13861459Y9025500D02*
X14074695Y9238736D01*
X14054897Y9371673D02*
X14073631Y9390407D01*
X13810733Y11214884D02*
X14070173Y11474325D01*
X13583127Y13889240D02*
X14068387Y14374500D01*
X13981944Y11640653D02*
X14066708Y11725417D01*
X13025500Y9818712D02*
X14062133Y10855346D01*
X13836003Y9025500D02*
X14061967Y9251464D01*
X14042169Y9384400D02*
X14060903Y9403134D01*
X13800309Y11229917D02*
X14052004Y11481611D01*
X13810547Y9025500D02*
X14049239Y9264192D01*
X13969522Y11653688D02*
X14049033Y11733199D01*
X14029441Y9397128D02*
X14048175Y9415862D01*
X13025500Y9844168D02*
X14045404Y10864072D01*
X13617428Y13948997D02*
X14042932Y14374500D01*
X13785092Y9025500D02*
X14036511Y9276920D01*
X13788788Y11243851D02*
X14036394Y11491457D01*
X14016713Y9409856D02*
X14035447Y9428590D01*
X13954890Y11664511D02*
X14033842Y11743463D01*
X13602562Y10446686D02*
X14032897Y10877021D01*
X13607110Y10476690D02*
X14024692Y10894272D01*
X13759636Y9025500D02*
X14023783Y9289647D01*
X13601178Y10496213D02*
X14023074Y10918110D01*
X13776194Y11256713D02*
X14023045Y11503564D01*
X14003985Y9422584D02*
X14022719Y9441318D01*
X13937860Y11672937D02*
X14020886Y11755963D01*
X13632011Y13989035D02*
X14017476Y14374500D01*
X13762532Y11268507D02*
X14011899Y11517874D01*
X13734180Y9025500D02*
X14011055Y9302375D01*
X13917926Y11678459D02*
X14010144Y11770677D01*
X13996520Y9440575D02*
X14009991Y9454046D01*
X13990745Y11522176D02*
X14003108Y11534539D01*
X13995611Y11781600D02*
X14001810Y11787799D01*
X13999809Y11607607D02*
X14000379Y11608176D01*
X13708724Y9025500D02*
X13998327Y9315103D01*
X13989592Y9459103D02*
X13997263Y9466774D01*
X13639841Y14022322D02*
X13992020Y14374500D01*
X13683268Y9025500D02*
X13985600Y9327831D01*
X13978100Y9473066D02*
X13984535Y9479502D01*
X13657813Y9025500D02*
X13972872Y9340559D01*
X13962495Y9482918D02*
X13971807Y9492230D01*
X13643766Y14051702D02*
X13966564Y14374500D01*
X13632357Y9025500D02*
X13960144Y9353287D01*
X13941600Y9487478D02*
X13959080Y9504958D01*
X13747780Y11279211D02*
X13952824Y11484255D01*
X13606901Y9025500D02*
X13947416Y9366015D01*
X13617243Y9188577D02*
X13946352Y9517686D01*
X13893831Y11679819D02*
X13943400Y11729389D01*
X13644997Y14078388D02*
X13941108Y14374500D01*
X13631914Y9228704D02*
X13933624Y9530413D01*
X13581445Y9025500D02*
X13929425Y9373480D01*
X13639790Y9262035D02*
X13920896Y9543141D01*
X13644183Y14103031D02*
X13915653Y14374500D01*
X13731894Y11288780D02*
X13914059Y11470945D01*
X13555989Y9025500D02*
X13910897Y9380408D01*
X13861075Y11672519D02*
X13908936Y11720380D01*
X13643744Y9291445D02*
X13908168Y9555869D01*
X13530534Y9025500D02*
X13896934Y9391900D01*
X13888862Y11929408D02*
X13896264Y11936811D01*
X13644995Y9318152D02*
X13895440Y9568597D01*
X13641725Y14126028D02*
X13890197Y14374500D01*
X13714798Y11297140D02*
X13888310Y11470652D01*
X13505078Y9025500D02*
X13887082Y9407505D01*
X13217062Y11053962D02*
X13884282Y11721183D01*
X13852783Y11918785D02*
X13883539Y11949542D01*
X13644199Y9342812D02*
X13882712Y9581325D01*
X13582501Y9128379D02*
X13882522Y9428400D01*
X13212501Y11303959D02*
X13872754Y11964212D01*
X13641754Y9365823D02*
X13869984Y9594053D01*
X13696374Y11304172D02*
X13867393Y11475191D01*
X13212501Y11329414D02*
X13866112Y11983026D01*
X13212501Y11354870D02*
X13865475Y12007844D01*
X13637883Y14147642D02*
X13864741Y14374500D01*
X13212501Y11074856D02*
X13864006Y11726362D01*
X13637924Y9387449D02*
X13857256Y9606781D01*
X13676446Y11309700D02*
X13849621Y11482875D01*
X13212501Y11100312D02*
X13846714Y11734525D01*
X13632895Y9407875D02*
X13842519Y9617499D01*
X13632844Y14168058D02*
X13839285Y14374500D01*
X13654744Y11313454D02*
X13834347Y11493056D01*
X13212501Y11125768D02*
X13831852Y11745119D01*
X13630827Y11314993D02*
X13821312Y11505478D01*
X13212501Y11151224D02*
X13819210Y11757933D01*
X13626799Y9427236D02*
X13817063Y9617499D01*
X13626739Y14187409D02*
X13813829Y14374500D01*
X13603911Y11313532D02*
X13810489Y11520110D01*
X13212501Y11176680D02*
X13808795Y11772974D01*
X13212501Y11278503D02*
X13806215Y11872217D01*
X13228864Y11040308D02*
X13802481Y11613925D01*
X13572317Y11307394D02*
X13802063Y11537140D01*
X13212501Y11202135D02*
X13800838Y11790473D01*
X13530659Y11291192D02*
X13796541Y11557074D01*
X13212501Y11227591D02*
X13795934Y11811024D01*
X13212501Y11253047D02*
X13795592Y11836138D01*
X13236195Y11022183D02*
X13795181Y11581169D01*
X13619738Y9445629D02*
X13791608Y9617499D01*
X13619668Y14205795D02*
X13788374Y14374500D01*
X13611785Y9463133D02*
X13766152Y9617499D01*
X13611708Y14223290D02*
X13762918Y14374500D01*
X13212501Y11583972D02*
X13752623Y12124095D01*
X13457831Y10632880D02*
X13742106Y10917155D01*
X13602999Y9479803D02*
X13740696Y9617499D01*
X13602914Y14239952D02*
X13737462Y14374500D01*
X13593332Y14255826D02*
X13712006Y14374500D01*
X13212501Y11609428D02*
X13700205Y12097133D01*
X13445103Y10645608D02*
X13694816Y10895321D01*
X13593424Y9495683D02*
X13691377Y9593636D01*
X13582994Y14270944D02*
X13686550Y14374500D01*
X13583093Y9510808D02*
X13666413Y9594128D01*
X13212501Y11634884D02*
X13665786Y12088170D01*
X13432375Y10658336D02*
X13661511Y10887472D01*
X13571923Y14285329D02*
X13661095Y14374500D01*
X13572029Y9525200D02*
X13648636Y9601807D01*
X13212501Y11660340D02*
X13637321Y12085161D01*
X13560136Y14298998D02*
X13635639Y14374500D01*
X13560248Y9538875D02*
X13635257Y9613884D01*
X13419647Y10671064D02*
X13633633Y10885049D01*
X13547760Y9551842D02*
X13626043Y9630126D01*
X13534566Y9564104D02*
X13622537Y9652075D01*
X13212501Y11685796D02*
X13612350Y12085645D01*
X13547641Y14311958D02*
X13610183Y14374500D01*
X13406919Y10683792D02*
X13609054Y10885927D01*
X13212501Y11711251D02*
X13589844Y12088595D01*
X13394192Y10696520D02*
X13586844Y10889173D01*
X13534441Y14324214D02*
X13584727Y14374500D01*
X13025500Y9869624D02*
X13573314Y10417438D01*
X13212501Y11736707D02*
X13569259Y12093466D01*
X13381464Y10709248D02*
X13566500Y10894284D01*
X13520531Y14335759D02*
X13559271Y14374500D01*
X13212501Y11762163D02*
X13550270Y12099933D01*
X13368736Y10721976D02*
X13547717Y10900957D01*
X13025500Y9895080D02*
X13543310Y10412890D01*
X13505899Y14346584D02*
X13533816Y14374500D01*
X13212501Y11787619D02*
X13532669Y12107788D01*
X13356008Y10734704D02*
X13530298Y10908994D01*
X13025500Y9920536D02*
X13523787Y10418822D01*
X13212501Y11813075D02*
X13516319Y12116893D01*
X13343280Y10747431D02*
X13514116Y10918267D01*
X13479622Y9025500D02*
X13511621Y9057499D01*
X13025500Y13331613D02*
X13510760Y13816873D01*
X13025500Y9945991D02*
X13509096Y10429587D01*
X13490528Y14356669D02*
X13508360Y14374500D01*
X13212501Y11838530D02*
X13501129Y12127159D01*
X13330552Y10760159D02*
X13499083Y10928691D01*
X13025500Y9971447D02*
X13498493Y10444440D01*
X13025500Y9996903D02*
X13488943Y10460346D01*
X13212501Y11863986D02*
X13487042Y12138528D01*
X13317824Y10772887D02*
X13485149Y10940212D01*
X13474391Y14365987D02*
X13482904Y14374500D01*
X13025500Y10022359D02*
X13476215Y10473074D01*
X13212501Y11889442D02*
X13474030Y12150971D01*
X13305096Y10785615D02*
X13472287Y10952806D01*
X13025500Y10047815D02*
X13463487Y10485802D01*
X13212501Y11914898D02*
X13462086Y12164483D01*
X13292368Y10798343D02*
X13460493Y10966468D01*
X13212501Y11940354D02*
X13451226Y12179079D01*
X13025500Y13357069D02*
X13451003Y13782572D01*
X13025500Y10073270D02*
X13450759Y10498529D01*
X13279640Y10811071D02*
X13449789Y10981220D01*
X13212501Y11965809D02*
X13441493Y12194802D01*
X13266913Y10823799D02*
X13440220Y10997106D01*
X13025500Y10098726D02*
X13438031Y10511257D01*
X13235870Y10996402D02*
X13437808Y11198341D01*
X13212501Y12169456D02*
X13434350Y12391306D01*
X13212501Y11991265D02*
X13432958Y12211723D01*
X13254185Y10836527D02*
X13431860Y11014203D01*
X13212501Y12016721D02*
X13425731Y12229951D01*
X13025500Y10124182D02*
X13425303Y10523985D01*
X13241457Y10849255D02*
X13424828Y11032626D01*
X13177817Y10912894D02*
X13421606Y11156683D01*
X13212501Y12144000D02*
X13420344Y12351843D01*
X13212501Y12042177D02*
X13419977Y12249654D01*
X13228729Y10861983D02*
X13419300Y11052554D01*
X13212501Y12067633D02*
X13415953Y12271085D01*
X13216001Y10874710D02*
X13415546Y11074256D01*
X13190545Y10900166D02*
X13415468Y11125089D01*
X13212501Y12118544D02*
X13415035Y12321079D01*
X13212501Y12093088D02*
X13414066Y12294654D01*
X13203273Y10887438D02*
X13414007Y11098173D01*
X13025500Y10149638D02*
X13412575Y10536713D01*
X13025500Y13382524D02*
X13410965Y13767989D01*
X13025500Y10175094D02*
X13399848Y10549441D01*
X13025500Y10200549D02*
X13387120Y10562169D01*
X13130202Y13130846D02*
X13380803Y13381446D01*
X13025500Y13407980D02*
X13377678Y13760159D01*
X13025500Y10226005D02*
X13374392Y10574897D01*
X13025500Y10251461D02*
X13361664Y10587625D01*
X13025500Y10276917D02*
X13348936Y10600353D01*
X13025500Y13433436D02*
X13348298Y13756234D01*
X13025500Y10302373D02*
X13336208Y10613081D01*
X13025500Y10327828D02*
X13323480Y10625808D01*
X13025500Y13458892D02*
X13321612Y13755003D01*
X13025500Y10353284D02*
X13310752Y10638536D01*
X13025500Y10378740D02*
X13298024Y10651264D01*
X13025500Y13484348D02*
X13296969Y13755817D01*
X13025500Y13178878D02*
X13295787Y13449165D01*
X13025500Y10404196D02*
X13285296Y10663992D01*
X13025500Y13509803D02*
X13273972Y13758275D01*
X13025500Y10429652D02*
X13272569Y10676720D01*
X13025500Y10455107D02*
X13259841Y10689448D01*
X13025500Y13535259D02*
X13252358Y13762117D01*
X13025500Y10480563D02*
X13247113Y10702176D01*
X13025500Y10506019D02*
X13234385Y10714904D01*
X13025500Y13560715D02*
X13231942Y13767156D01*
X13025500Y10531475D02*
X13221657Y10727632D01*
X13025500Y13586171D02*
X13212591Y13773261D01*
X13025500Y10556931D02*
X13208929Y10740360D01*
X13025500Y10582386D02*
X13196201Y10753087D01*
X13025500Y13611627D02*
X13194205Y13780332D01*
X13165089Y10925622D02*
X13193598Y10954130D01*
X13025500Y10607842D02*
X13183473Y10765815D01*
X13025500Y13637082D02*
X13176710Y13788292D01*
X13025500Y10633298D02*
X13170745Y10778543D01*
X13152361Y10938350D02*
X13167817Y10953805D01*
X13025500Y13662538D02*
X13160048Y13797086D01*
X13025500Y10658754D02*
X13158017Y10791271D01*
X13139634Y10951078D02*
X13149692Y10961136D01*
X13025500Y10684210D02*
X13145290Y10803999D01*
X13025500Y13687994D02*
X13144174Y13806668D01*
X13130202Y10967103D02*
X13136038Y10972938D01*
X13025500Y10709665D02*
X13132562Y10816727D01*
X13025500Y13713450D02*
X13129056Y13817006D01*
X13025500Y10735121D02*
X13119834Y10829455D01*
X13025500Y13738906D02*
X13114671Y13828077D01*
X13025500Y10760577D02*
X13107106Y10842183D01*
X13025500Y13764361D02*
X13101002Y13839864D01*
X13025500Y10786033D02*
X13094378Y10854911D01*
X13025500Y13789817D02*
X13088041Y13852359D01*
X13025500Y10811489D02*
X13081650Y10867639D01*
X13025500Y13815273D02*
X13075786Y13865559D01*
X13025500Y10836944D02*
X13068922Y10880366D01*
X13025500Y13840729D02*
X13064241Y13879469D01*
X13025500Y10862400D02*
X13056194Y10893094D01*
X13025500Y13866185D02*
X13053416Y13894101D01*
X13025500Y10887856D02*
X13043493Y10905849D01*
X13025500Y13891640D02*
X13043331Y13909472D01*
X13025500Y13917096D02*
X13034013Y13925609D01*
X13025500Y10913312D02*
X13033675Y10921487D01*
X13025500Y13153422D02*
X13030201Y13158123D01*
X13025500Y13127966D02*
X13030201Y13132668D01*
X13025500Y13102511D02*
X13030201Y13107212D01*
X13025500Y13077055D02*
X13030201Y13081756D01*
X13025500Y13051599D02*
X13030201Y13056300D01*
X13025500Y13026143D02*
X13030201Y13030844D01*
X13025500Y13000687D02*
X13030201Y13005389D01*
X13025500Y12975232D02*
X13030201Y12979933D01*
X13025500Y12949776D02*
X13030201Y12954477D01*
X13025500Y12924320D02*
X13030201Y12929021D01*
X13025500Y12898864D02*
X13030201Y12903565D01*
X13025500Y12873408D02*
X13030201Y12878110D01*
X13025500Y12847953D02*
X13030201Y12852654D01*
X13025500Y12822497D02*
X13030201Y12827198D01*
X13025500Y12797041D02*
X13030201Y12801742D01*
X13025500Y12771585D02*
X13030201Y12776286D01*
X13025500Y12746129D02*
X13030201Y12750831D01*
X13025500Y12720674D02*
X13030201Y12725375D01*
X13025500Y12695218D02*
X13030201Y12699919D01*
X13025500Y12669762D02*
X13030201Y12674463D01*
X13025500Y12644306D02*
X13030201Y12649007D01*
X13025500Y12618850D02*
X13030201Y12623552D01*
X13025500Y12593395D02*
X13030201Y12598096D01*
X13025500Y12567939D02*
X13030201Y12572640D01*
X13025500Y12542483D02*
X13030201Y12547184D01*
X13025500Y12517027D02*
X13030201Y12521728D01*
X13025500Y12491571D02*
X13030201Y12496273D01*
X13025500Y12466116D02*
X13030201Y12470817D01*
X13025500Y12440660D02*
X13030201Y12445361D01*
X13025500Y12415204D02*
X13030201Y12419905D01*
X13025500Y12389748D02*
X13030201Y12394449D01*
X13025500Y12364292D02*
X13030201Y12368994D01*
X13025500Y12338837D02*
X13030201Y12343538D01*
X13025500Y12313381D02*
X13030201Y12318082D01*
X13025500Y12287925D02*
X13030201Y12292626D01*
X13025500Y12262469D02*
X13030201Y12267170D01*
X13025500Y12237013D02*
X13030201Y12241715D01*
X13025500Y12211558D02*
X13030201Y12216259D01*
X13025500Y12186102D02*
X13030201Y12190803D01*
X13025500Y12160646D02*
X13030201Y12165347D01*
X13025500Y12135190D02*
X13030201Y12139891D01*
X13025500Y12109734D02*
X13030201Y12114436D01*
X13025500Y12084279D02*
X13030201Y12088980D01*
X13025500Y12058823D02*
X13030201Y12063524D01*
X13025500Y12033367D02*
X13030201Y12038068D01*
X13025500Y12007911D02*
X13030201Y12012612D01*
X13025500Y11982455D02*
X13030201Y11987157D01*
X13025500Y11957000D02*
X13030201Y11961701D01*
X13025500Y11931544D02*
X13030201Y11936245D01*
X13025500Y11906088D02*
X13030201Y11910789D01*
X13025500Y11880632D02*
X13030201Y11885333D01*
X13025500Y11855176D02*
X13030201Y11859878D01*
X13025500Y11829721D02*
X13030201Y11834422D01*
X13025500Y11804265D02*
X13030201Y11808966D01*
X13025500Y11778809D02*
X13030201Y11783510D01*
X13025500Y11753353D02*
X13030201Y11758054D01*
X13025500Y11727897D02*
X13030201Y11732599D01*
X13025500Y11702442D02*
X13030201Y11707143D01*
X13025500Y11676986D02*
X13030201Y11681687D01*
X13025500Y11651530D02*
X13030201Y11656231D01*
X13025500Y11626074D02*
X13030201Y11630775D01*
X13025500Y11600618D02*
X13030201Y11605320D01*
X13025500Y11575163D02*
X13030201Y11579864D01*
X13025500Y11549707D02*
X13030201Y11554408D01*
X13025500Y11524251D02*
X13030201Y11528952D01*
X13025500Y11498795D02*
X13030201Y11503496D01*
X13025500Y11473339D02*
X13030201Y11478041D01*
X13025500Y11447884D02*
X13030201Y11452585D01*
X13025500Y11422428D02*
X13030201Y11427129D01*
X13025500Y11396972D02*
X13030201Y11401673D01*
X13025500Y11371516D02*
X13030201Y11376217D01*
X13025500Y11346060D02*
X13030201Y11350762D01*
X13025500Y11320605D02*
X13030201Y11325306D01*
X13025500Y11295149D02*
X13030201Y11299850D01*
X13025500Y11269693D02*
X13030201Y11274394D01*
X13025500Y11244237D02*
X13030201Y11248938D01*
X13025500Y11218781D02*
X13030201Y11223483D01*
X13025500Y11193326D02*
X13030201Y11198027D01*
X13025500Y11167870D02*
X13030201Y11172571D01*
X13025500Y11142414D02*
X13030201Y11147115D01*
X13025500Y11116958D02*
X13030201Y11121659D01*
X13025500Y11091502D02*
X13030201Y11096204D01*
X13025500Y11066047D02*
X13030201Y11070748D01*
X13025500Y11040591D02*
X13030201Y11045292D01*
X13025500Y11015135D02*
X13030201Y11019836D01*
X13025500Y10989679D02*
X13030201Y10994380D01*
X13025500Y10964223D02*
X13030201Y10968925D01*
X13025500Y10938768D02*
X13030201Y10943469D01*
X13025500Y9462331D02*
X13030119Y9466950D01*
G54D14*
X20800000Y13449000D02*
Y13424000D01*
X20705000Y13354000D02*
X20730000D01*
X20800000Y13259000D02*
Y13284000D01*
X20895000Y13354000D02*
X20870000D01*
X18328000Y14027000D02*
X18353000D01*
X18558000D02*
X18533000D01*
X18443000Y14142000D02*
Y14117000D01*
X17820000Y14027000D02*
X17845000D01*
X17935000Y13912000D02*
Y13937000D01*
X18050000Y14027000D02*
X18025000D01*
X17935000Y14142000D02*
Y14117000D01*
X17312000Y14027000D02*
X17337000D01*
X17427000Y13912000D02*
Y13937000D01*
X17542000Y14027000D02*
X17517000D01*
X17427000Y14142000D02*
Y14117000D01*
X16804000Y14027000D02*
X16829000D01*
X16919000Y13912000D02*
Y13937000D01*
X17034000Y14027000D02*
X17009000D01*
X16919000Y14142000D02*
Y14117000D01*
X16296000Y14027000D02*
X16321000D01*
X16411000Y13912000D02*
Y13937000D01*
X16526000Y14027000D02*
X16501000D01*
X16411000Y14142000D02*
Y14117000D01*
X19292000Y11303000D02*
X19267000D01*
X19177000Y11418000D02*
Y11393000D01*
X19062000Y11303000D02*
X19087000D01*
X19177000Y11188000D02*
Y11213000D01*
X13900000Y11470000D02*
Y11495000D01*
Y11680000D02*
Y11655000D01*
X13795000Y11575000D02*
X13820000D01*
G54D15*
X3507500Y12528906D02*
Y12407500D01*
X3562045*
X3657500Y12488438D02*
Y12407500D01*
Y12471094D02*
X3648409Y12482656D01*
X3639318Y12488438*
X3639318D02*
X3625682D01*
X3625682D02*
X3616591Y12482656D01*
X3607500Y12471094*
X3602955Y12453750*
X3602955D02*
Y12442188D01*
X3602955D02*
X3607500Y12424844D01*
X3616591Y12413281*
X3625682Y12407500*
X3639318*
X3648409Y12413281*
X3657500Y12424844*
X3702955Y12488438D02*
X3730227Y12407500D01*
X3757500Y12488438D02*
X3730227Y12407500D01*
X3721136Y12384375*
X3712045Y12372812*
X3712045D02*
X3702955Y12367031D01*
X3702955D02*
X3698409D01*
X3798409Y12453750D02*
X3852955D01*
X3852955D02*
Y12465313D01*
X3852955D02*
X3848409Y12476875D01*
X3843864Y12482656*
X3834773Y12488438*
X3834773D02*
X3821136D01*
X3821136D02*
X3812045Y12482656D01*
X3812045D02*
X3802955Y12471094D01*
X3802955D02*
X3798409Y12453750D01*
Y12442188*
X3798409D02*
X3802955Y12424844D01*
X3802955D02*
X3812045Y12413281D01*
X3812045D02*
X3821136Y12407500D01*
X3834773*
X3843864Y12413281*
X3852955Y12424844*
X3893864Y12488438D02*
Y12407500D01*
Y12453750D02*
X3898409Y12471094D01*
X3907500Y12482656*
X3916591Y12488438*
X3916591D02*
X3930227D01*
X4102955Y12528906D02*
X4089318Y12523125D01*
X4080227Y12505781*
X4075682Y12476875*
Y12459531*
X4080227Y12430625*
X4089318Y12413281*
X4102955Y12407500*
X4102955D02*
X4112045D01*
X4112045D02*
X4125682Y12413281D01*
X4134773Y12430625*
X4139318Y12459531*
Y12476875*
X4134773Y12505781*
X4125682Y12523125*
X4112045Y12528906*
X4112045D02*
X4102955D01*
X4184773Y12500000D02*
Y12505781D01*
X4189318Y12517344*
X4193864Y12523125*
X4202955Y12528906*
X4202955D02*
X4221136D01*
X4230227Y12523125*
X4234773Y12517344*
X4239318Y12505781*
Y12494219*
X4234773Y12482656*
X4225682Y12465313*
X4225682D02*
X4180227Y12407500D01*
X4243864*
X4421136Y12552031D02*
X4412045Y12540469D01*
X4412045D02*
X4402955Y12523125D01*
X4402955D02*
X4393864Y12500000D01*
X4389318Y12471094*
Y12447969*
X4393864Y12419063*
X4393864D02*
X4402955Y12395937D01*
X4402955D02*
X4412045Y12378594D01*
X4412045D02*
X4421136Y12367031D01*
X4462045Y12528906D02*
Y12407500D01*
Y12528906D02*
X4502955D01*
X4502955D02*
X4516591Y12523125D01*
X4521136Y12517344*
X4525682Y12505781*
Y12494219*
X4521136Y12482656*
X4516591Y12476875*
X4502955Y12471094*
X4462045D02*
X4502955D01*
X4502955D02*
X4516591Y12465313D01*
X4516591D02*
X4521136Y12459531D01*
X4525682Y12447969*
Y12430625*
X4521136Y12419063*
X4521136D02*
X4516591Y12413281D01*
X4502955Y12407500*
X4502955D02*
X4462045D01*
X4593864Y12528906D02*
X4584773Y12523125D01*
X4575682Y12511563*
X4575682D02*
X4571136Y12500000D01*
X4566591Y12482656*
Y12453750*
X4571136Y12436406*
X4575682Y12424844*
X4584773Y12413281*
X4593864Y12407500*
X4612045*
X4612045D02*
X4621136Y12413281D01*
X4630227Y12424844*
X4634773Y12436406*
X4639318Y12453750*
Y12482656*
X4634773Y12500000*
X4630227Y12511563*
X4630227D02*
X4621136Y12523125D01*
X4612045Y12528906*
X4612045D02*
X4593864D01*
X4712045D02*
Y12407500D01*
X4680227Y12528906D02*
X4743864D01*
X4816591D02*
Y12407500D01*
X4784773Y12528906D02*
X4848409D01*
X4916591D02*
X4907500Y12523125D01*
X4898409Y12511563*
X4898409D02*
X4893864Y12500000D01*
X4889318Y12482656*
Y12453750*
X4893864Y12436406*
X4898409Y12424844*
X4907500Y12413281*
X4916591Y12407500*
X4934773*
X4943864Y12413281*
X4952955Y12424844*
X4952955D02*
X4957500Y12436406D01*
X4962045Y12453750*
X4962045D02*
Y12482656D01*
X4962045D02*
X4957500Y12500000D01*
X4952955Y12511563*
X4952955D02*
X4943864Y12523125D01*
X4934773Y12528906*
X4916591*
X5002955D02*
Y12407500D01*
Y12528906D02*
X5039318Y12407500D01*
X5075682Y12528906D02*
X5039318Y12407500D01*
X5075682Y12528906D02*
Y12407500D01*
X5116591Y12552031D02*
X5125682Y12540469D01*
X5134773Y12523125*
X5143864Y12500000*
X5148409Y12471094*
Y12447969*
X5143864Y12419063*
X5143864D02*
X5134773Y12395937D01*
X5134773D02*
X5125682Y12378594D01*
X5116591Y12367031*
X5434773Y12528906D02*
X5421136Y12523125D01*
X5412045Y12505781*
X5412045D02*
X5407500Y12476875D01*
Y12459531*
X5412045Y12430625*
X5412045D02*
X5421136Y12413281D01*
X5434773Y12407500*
X5443864*
X5457500Y12413281*
X5466591Y12430625*
X5471136Y12459531*
Y12476875*
X5466591Y12505781*
X5457500Y12523125*
X5443864Y12528906*
X5434773*
X5516591Y12419063D02*
X5512045Y12413281D01*
X5512045D02*
X5516591Y12407500D01*
X5521136Y12413281*
X5516591Y12419063*
X5621136Y12528906D02*
X5575682D01*
X5571136Y12476875*
X5575682Y12482656*
X5589318Y12488438*
X5589318D02*
X5602955D01*
X5602955D02*
X5616591Y12482656D01*
X5625682Y12471094*
X5630227Y12453750*
X5625682Y12442188*
X5625682D02*
X5621136Y12424844D01*
X5612045Y12413281*
X5612045D02*
X5598409Y12407500D01*
X5584773*
X5571136Y12413281*
X5566591Y12419063*
X5566591D02*
X5562045Y12430625D01*
X5693864Y12488438D02*
X5684773Y12482656D01*
X5675682Y12471094*
X5671136Y12453750*
Y12442188*
X5671136D02*
X5675682Y12424844D01*
X5684773Y12413281*
X5693864Y12407500*
X5707500*
X5716591Y12413281*
X5725682Y12424844*
X5730227Y12442188*
X5730227D02*
Y12453750D01*
X5725682Y12471094*
X5716591Y12482656*
X5707500Y12488438*
X5707500D02*
X5693864D01*
X5821136D02*
X5771136Y12407500D01*
Y12488438D02*
X5821136D01*
X5771136Y12407500D02*
X5821136D01*
X13907500Y8028906D02*
Y7907500D01*
Y8028906D02*
X13948409D01*
X13962045Y8023125*
X13962045D02*
X13966591Y8017344D01*
X13971136Y8005781*
Y7988438*
X13971136D02*
X13966591Y7976875D01*
X13962045Y7971094*
X13962045D02*
X13948409Y7965313D01*
X13948409D02*
X13907500D01*
X14080227Y8000000D02*
X14075682Y8011563D01*
X14075682D02*
X14066591Y8023125D01*
X14057500Y8028906*
X14039318*
X14030227Y8023125*
X14021136Y8011563*
X14021136D02*
X14016591Y8000000D01*
X14012045Y7982656*
X14012045D02*
Y7953750D01*
X14012045D02*
X14016591Y7936406D01*
X14021136Y7924844*
X14030227Y7913281*
X14039318Y7907500*
X14057500*
X14066591Y7913281*
X14075682Y7924844*
X14080227Y7936406*
X14121136Y8028906D02*
Y7907500D01*
Y8028906D02*
X14162045D01*
X14162045D02*
X14175682Y8023125D01*
X14180227Y8017344*
X14184773Y8005781*
Y7994219*
X14180227Y7982656*
X14175682Y7976875*
X14162045Y7971094*
X14121136D02*
X14162045D01*
X14162045D02*
X14175682Y7965313D01*
X14175682D02*
X14180227Y7959531D01*
X14184773Y7947969*
Y7930625*
X14180227Y7919063*
X14180227D02*
X14175682Y7913281D01*
X14162045Y7907500*
X14162045D02*
X14121136D01*
X14398409Y8000000D02*
X14393864Y8011563D01*
X14393864D02*
X14384773Y8023125D01*
X14375682Y8028906*
X14357500*
X14348409Y8023125*
X14339318Y8011563*
X14339318D02*
X14334773Y8000000D01*
X14330227Y7982656*
Y7953750*
X14334773Y7936406*
X14339318Y7924844*
X14348409Y7913281*
X14357500Y7907500*
X14375682*
X14384773Y7913281*
X14393864Y7924844*
X14398409Y7936406*
X14466591Y8028906D02*
X14457500Y8023125D01*
X14448409Y8011563*
X14448409D02*
X14443864Y8000000D01*
X14439318Y7982656*
Y7953750*
X14443864Y7936406*
X14448409Y7924844*
X14457500Y7913281*
X14466591Y7907500*
X14484773*
X14493864Y7913281*
X14502955Y7924844*
X14502955D02*
X14507500Y7936406D01*
X14512045Y7953750*
X14512045D02*
Y7982656D01*
X14512045D02*
X14507500Y8000000D01*
X14502955Y8011563*
X14502955D02*
X14493864Y8023125D01*
X14484773Y8028906*
X14466591*
X14552955D02*
Y7907500D01*
Y8028906D02*
X14593864D01*
X14607500Y8023125*
X14612045Y8017344*
X14612045D02*
X14616591Y8005781D01*
Y7988438*
X14616591D02*
X14612045Y7976875D01*
X14612045D02*
X14607500Y7971094D01*
X14593864Y7965313*
X14593864D02*
X14552955D01*
X14657500Y8028906D02*
Y7907500D01*
Y8028906D02*
X14698409D01*
X14712045Y8023125*
X14712045D02*
X14716591Y8017344D01*
X14721136Y8005781*
Y7988438*
X14721136D02*
X14716591Y7976875D01*
X14712045Y7971094*
X14712045D02*
X14698409Y7965313D01*
X14698409D02*
X14657500D01*
X14762045Y8028906D02*
Y7907500D01*
Y8028906D02*
X14821136D01*
X14762045Y7971094D02*
X14798409D01*
X14762045Y7907500D02*
X14821136D01*
X14862045Y8028906D02*
Y7907500D01*
Y8028906D02*
X14902955D01*
X14902955D02*
X14916591Y8023125D01*
X14921136Y8017344*
X14925682Y8005781*
Y7994219*
X14921136Y7982656*
X14916591Y7976875*
X14902955Y7971094*
X14902955D02*
X14862045D01*
X14893864D02*
X14925682Y7907500D01*
X15071136Y8028906D02*
Y7907500D01*
X15125682*
X15202955Y8028906D02*
X15166591Y7907500D01*
X15202955Y8028906D02*
X15239318Y7907500D01*
X15180227Y7947969D02*
X15225682D01*
X15280227Y8028906D02*
X15316591Y7971094D01*
Y7907500*
X15352955Y8028906D02*
X15316591Y7971094D01*
X15393864Y8028906D02*
Y7907500D01*
Y8028906D02*
X15452955D01*
X15393864Y7971094D02*
X15430227D01*
X15393864Y7907500D02*
X15452955D01*
X15493864Y8028906D02*
Y7907500D01*
Y8028906D02*
X15534773D01*
X15548409Y8023125*
X15552955Y8017344*
X15552955D02*
X15557500Y8005781D01*
Y7994219*
X15552955Y7982656*
X15552955D02*
X15548409Y7976875D01*
X15534773Y7971094*
X15493864*
X15525682D02*
X15557500Y7907500D01*
X15707500Y8000000D02*
Y8005781D01*
X15712045Y8017344*
X15712045D02*
X15716591Y8023125D01*
X15725682Y8028906*
X15743864*
X15752955Y8023125*
X15752955D02*
X15757500Y8017344D01*
X15762045Y8005781*
X15762045D02*
Y7994219D01*
X15762045D02*
X15757500Y7982656D01*
X15748409Y7965313*
X15748409D02*
X15702955Y7907500D01*
X15702955D02*
X15766591D01*
X15943864Y8052031D02*
X15934773Y8040469D01*
X15925682Y8023125*
X15916591Y8000000*
X15912045Y7971094*
X15912045D02*
Y7947969D01*
X15912045D02*
X15916591Y7919063D01*
X15916591D02*
X15925682Y7895937D01*
X15925682D02*
X15934773Y7878594D01*
X15943864Y7867031*
X15984773Y8028906D02*
Y7907500D01*
Y8028906D02*
X16025682D01*
X16039318Y8023125*
X16043864Y8017344*
X16048409Y8005781*
Y7994219*
X16043864Y7982656*
X16039318Y7976875*
X16025682Y7971094*
X15984773D02*
X16025682D01*
X16039318Y7965313*
X16039318D02*
X16043864Y7959531D01*
X16048409Y7947969*
Y7930625*
X16043864Y7919063*
X16043864D02*
X16039318Y7913281D01*
X16025682Y7907500*
X15984773*
X16116591Y8028906D02*
X16107500Y8023125D01*
X16098409Y8011563*
X16098409D02*
X16093864Y8000000D01*
X16089318Y7982656*
Y7953750*
X16093864Y7936406*
X16098409Y7924844*
X16107500Y7913281*
X16116591Y7907500*
X16134773*
X16143864Y7913281*
X16152955Y7924844*
X16152955D02*
X16157500Y7936406D01*
X16162045Y7953750*
X16162045D02*
Y7982656D01*
X16162045D02*
X16157500Y8000000D01*
X16152955Y8011563*
X16152955D02*
X16143864Y8023125D01*
X16134773Y8028906*
X16116591*
X16234773D02*
Y7907500D01*
X16202955Y8028906D02*
X16266591D01*
X16339318D02*
Y7907500D01*
X16307500Y8028906D02*
X16371136D01*
X16439318D02*
X16430227Y8023125D01*
X16421136Y8011563*
X16421136D02*
X16416591Y8000000D01*
X16412045Y7982656*
X16412045D02*
Y7953750D01*
X16412045D02*
X16416591Y7936406D01*
X16421136Y7924844*
X16430227Y7913281*
X16439318Y7907500*
X16457500*
X16466591Y7913281*
X16475682Y7924844*
X16480227Y7936406*
X16484773Y7953750*
Y7982656*
X16480227Y8000000*
X16475682Y8011563*
X16475682D02*
X16466591Y8023125D01*
X16457500Y8028906*
X16439318*
X16525682D02*
Y7907500D01*
Y8028906D02*
X16562045Y7907500D01*
X16598409Y8028906D02*
X16562045Y7907500D01*
X16598409Y8028906D02*
Y7907500D01*
X16639318Y8052031D02*
X16648409Y8040469D01*
X16657500Y8023125*
X16666591Y8000000*
X16671136Y7971094*
Y7947969*
X16666591Y7919063*
X16666591D02*
X16657500Y7895937D01*
X16657500D02*
X16648409Y7878594D01*
X16639318Y7867031*
X13007500Y8028906D02*
Y7907500D01*
X13062045*
X13139318Y8028906D02*
X13102955Y7907500D01*
X13139318Y8028906D02*
X13175682Y7907500D01*
X13116591Y7947969D02*
X13162045D01*
X13216591Y8028906D02*
X13252955Y7971094D01*
X13252955D02*
Y7907500D01*
X13289318Y8028906D02*
X13252955Y7971094D01*
X13330227Y8028906D02*
Y7907500D01*
Y8028906D02*
X13389318D01*
X13330227Y7971094D02*
X13366591D01*
X13330227Y7907500D02*
X13389318D01*
X13430227Y8028906D02*
Y7907500D01*
Y8028906D02*
X13471136D01*
X13484773Y8023125*
X13489318Y8017344*
X13493864Y8005781*
Y7994219*
X13489318Y7982656*
X13484773Y7976875*
X13471136Y7971094*
X13430227*
X13462045D02*
X13493864Y7907500D01*
X13639318Y7959531D02*
X13721136D01*
X13007500Y8228906D02*
X13071136Y8107500D01*
Y8228906D02*
X13007500Y8107500D01*
X13112045Y8228906D02*
Y8107500D01*
Y8228906D02*
X13148409Y8107500D01*
X13184773Y8228906D02*
X13148409Y8107500D01*
X13184773Y8228906D02*
Y8107500D01*
X13252955Y8228906D02*
X13243864Y8223125D01*
X13234773Y8211563*
X13234773D02*
X13230227Y8200000D01*
X13225682Y8182656*
Y8153750*
X13230227Y8136406*
X13234773Y8124844*
X13243864Y8113281*
X13252955Y8107500*
X13252955D02*
X13271136D01*
X13280227Y8113281*
X13289318Y8124844*
X13293864Y8136406*
X13298409Y8153750*
Y8182656*
X13293864Y8200000*
X13289318Y8211563*
X13289318D02*
X13280227Y8223125D01*
X13271136Y8228906*
X13252955*
X13402955Y8211563D02*
X13393864Y8223125D01*
X13380227Y8228906*
X13362045*
X13362045D02*
X13348409Y8223125D01*
X13339318Y8211563*
X13339318D02*
Y8200000D01*
X13343864Y8188438*
X13343864D02*
X13348409Y8182656D01*
X13357500Y8176875*
X13384773Y8165313*
X13384773D02*
X13393864Y8159531D01*
X13398409Y8153750*
X13402955Y8142188*
X13402955D02*
Y8124844D01*
X13402955D02*
X13393864Y8113281D01*
X13380227Y8107500*
X13362045*
X13362045D02*
X13348409Y8113281D01*
X13339318Y8124844*
X13548409Y8228906D02*
X13612045Y8107500D01*
Y8228906D02*
X13548409Y8107500D01*
X13652955Y8228906D02*
Y8107500D01*
Y8228906D02*
X13693864D01*
X13707500Y8223125*
X13712045Y8217344*
X13712045D02*
X13716591Y8205781D01*
Y8188438*
X13716591D02*
X13712045Y8176875D01*
X13712045D02*
X13707500Y8171094D01*
X13693864Y8165313*
X13693864D02*
X13652955D01*
X13825682Y8200000D02*
X13821136Y8211563D01*
X13821136D02*
X13812045Y8223125D01*
X13812045D02*
X13802955Y8228906D01*
X13802955D02*
X13784773D01*
X13775682Y8223125*
X13766591Y8211563*
X13766591D02*
X13762045Y8200000D01*
X13762045D02*
X13757500Y8182656D01*
Y8153750*
X13762045Y8136406*
X13762045D02*
X13766591Y8124844D01*
X13775682Y8113281*
X13784773Y8107500*
X13802955*
X13802955D02*
X13812045Y8113281D01*
X13812045D02*
X13821136Y8124844D01*
X13825682Y8136406*
X13866591Y8228906D02*
Y8107500D01*
Y8228906D02*
X13907500D01*
X13921136Y8223125*
X13925682Y8217344*
X13930227Y8205781*
Y8194219*
X13925682Y8182656*
X13921136Y8176875*
X13907500Y8171094*
X13866591D02*
X13907500D01*
X13921136Y8165313*
X13921136D02*
X13925682Y8159531D01*
X13930227Y8147969*
Y8130625*
X13925682Y8119063*
X13925682D02*
X13921136Y8113281D01*
X13907500Y8107500*
X13866591*
X13971136Y8159531D02*
X14052955D01*
X14121136Y8228906D02*
X14107500Y8223125D01*
X14098409Y8205781*
X14093864Y8176875*
Y8159531*
X14098409Y8130625*
X14107500Y8113281*
X14121136Y8107500*
X14130227*
X14143864Y8113281*
X14152955Y8130625*
X14152955D02*
X14157500Y8159531D01*
Y8176875*
X14152955Y8205781*
X14152955D02*
X14143864Y8223125D01*
X14130227Y8228906*
X14121136*
X14198409Y8205781D02*
X14207500Y8211563D01*
X14207500D02*
X14221136Y8228906D01*
Y8107500*
X14289318Y8228906D02*
X14275682Y8223125D01*
X14266591Y8205781*
X14262045Y8176875*
X14262045D02*
Y8159531D01*
X14262045D02*
X14266591Y8130625D01*
X14275682Y8113281*
X14289318Y8107500*
X14298409*
X14312045Y8113281*
X14312045D02*
X14321136Y8130625D01*
X14325682Y8159531*
Y8176875*
X14321136Y8205781*
X14312045Y8223125*
X14312045D02*
X14298409Y8228906D01*
X14289318*
X14471136Y8205781D02*
X14480227Y8211563D01*
X14480227D02*
X14493864Y8228906D01*
Y8107500*
X14598409Y8228906D02*
X14552955Y8107500D01*
X14534773Y8228906D02*
X14598409D01*
X14721136Y8252031D02*
X14639318Y8067031D01*
X14789318Y8228906D02*
X14775682Y8223125D01*
X14766591Y8205781*
X14762045Y8176875*
X14762045D02*
Y8159531D01*
X14762045D02*
X14766591Y8130625D01*
X14775682Y8113281*
X14789318Y8107500*
X14798409*
X14812045Y8113281*
X14812045D02*
X14821136Y8130625D01*
X14825682Y8159531*
Y8176875*
X14821136Y8205781*
X14812045Y8223125*
X14812045D02*
X14798409Y8228906D01*
X14789318*
X14875682D02*
X14925682D01*
X14898409Y8182656*
X14912045*
X14912045D02*
X14921136Y8176875D01*
X14925682Y8171094*
X14930227Y8153750*
Y8142188*
X14930227D02*
X14925682Y8124844D01*
X14916591Y8113281*
X14902955Y8107500*
X14902955D02*
X14889318D01*
X14875682Y8113281*
X14871136Y8119063*
X14871136D02*
X14866591Y8130625D01*
X15052955Y8252031D02*
X14971136Y8067031D01*
X15121136Y8228906D02*
X15107500Y8223125D01*
X15098409Y8205781*
X15093864Y8176875*
Y8159531*
X15098409Y8130625*
X15107500Y8113281*
X15121136Y8107500*
X15130227*
X15143864Y8113281*
X15152955Y8130625*
X15152955D02*
X15157500Y8159531D01*
Y8176875*
X15152955Y8205781*
X15152955D02*
X15143864Y8223125D01*
X15130227Y8228906*
X15121136*
X15257500Y8188438D02*
X15252955Y8171094D01*
X15252955D02*
X15243864Y8159531D01*
X15230227Y8153750*
X15225682*
X15212045Y8159531*
X15212045D02*
X15202955Y8171094D01*
X15202955D02*
X15198409Y8188438D01*
X15198409D02*
Y8194219D01*
X15202955Y8211563*
X15202955D02*
X15212045Y8223125D01*
X15212045D02*
X15225682Y8228906D01*
X15230227*
X15243864Y8223125*
X15252955Y8211563*
X15252955D02*
X15257500Y8188438D01*
X15257500D02*
Y8159531D01*
X15252955Y8130625*
X15252955D02*
X15243864Y8113281D01*
X15230227Y8107500*
X15221136*
X15207500Y8113281*
X15202955Y8124844*
X14600000Y9120000D02*
X15917573D01*
X16005073Y9207500*
X16954500*
X13180000Y11010000D02*
Y12410000D01*
X14180000Y11011120D02*
X14192587Y11023707D01*
X14319122Y9190878D02*
X15899108D01*
X15984273Y9276043*
X16769043*
X17208500Y9715500*
X14319122Y9190878D02*
X13860000Y9650000D01*
X14180000Y11011120D02*
X14079440Y10910560D01*
X14080000Y10910000*
X14180000Y11010000D02*
X14190000Y11020000D01*
X14192587Y11023707*
X13680000Y9650000D02*
X13860000D01*
X16650000Y11090000D02*
X16960000D01*
X16880000Y10580000D02*
X16960000D01*
X17015243Y10635243*
X17112243*
X17208500Y10731500*
X16880000Y10580000D02*
X16820000Y10640000D01*
X16870000Y10710000D02*
X16990000Y10830000D01*
X16730000Y9700000D02*
X16999500Y9969500D01*
X17208500*
X16580000Y10970000D02*
X16640000Y11030000D01*
X17020000*
X16660000Y10760000D02*
X16833995Y10933995D01*
X16853995*
X16890000Y10970000*
X16590000Y11090000D02*
X16650000D01*
X17040000Y10560000D02*
X17110951D01*
X17110951D02*
X17150951Y10600000D01*
X17150951D02*
X17258473D01*
X17258473D02*
X17360000Y10701527D01*
X16650000Y11160000D02*
X16760000D01*
X16590000Y10700000D02*
X16677782D01*
X16730000Y10752218*
Y10767782*
X16842218Y10880000*
X16890000*
X16980000Y10970000*
X17090000*
X16530000Y10640000D02*
X16820000D01*
X16940000Y10650000D02*
X17060000Y10770000D01*
X16800000Y10760000D02*
X16850000Y10810000D01*
X16871214*
X16970000Y10908786*
X17020000*
Y10910000*
X17208500Y10223500D02*
X17317079Y10332079D01*
X17322079*
X17390000Y10400000*
X17360000Y10700000D02*
Y10701527D01*
X14450000Y13120000D02*
X14550000Y13220000D01*
X16067893Y11858940D02*
Y12442107D01*
X16000000Y12510000*
X16020000Y12800000D02*
X15890000Y12930000D01*
Y13050000*
X16020000Y11640000D02*
Y11811047D01*
X16067893Y11858940*
X16370000Y11690000D02*
X16510000Y11830000D01*
X16880000*
X15960000Y12740000D02*
X15830000Y12870000D01*
Y12990000*
X15960000Y12440000D02*
Y12446846D01*
Y11700000D02*
Y11816701D01*
X15960000D02*
X16026036Y11882738D01*
X16026036D02*
Y12380809D01*
X16026036D02*
X15960000Y12446846D01*
X16450000Y11660000D02*
X16535513D01*
X16565943Y11690430*
X16820430*
X16880000Y11750000*
X15480000Y11700000D02*
Y12000000D01*
X15420000Y11760000D02*
Y12060000D01*
X15480000Y12480000D02*
X15780000D01*
X15840000Y11700000D02*
Y11818332D01*
X15900000Y11878332*
Y12300000*
X15780000Y11640000D02*
Y11821172D01*
X15840000Y11881172*
Y12360000*
X15540000Y11640000D02*
Y11940000D01*
X15600000Y12000000*
X15300000Y11880000D02*
Y12060000D01*
X15360000Y11820000D02*
Y12000000D01*
X15250000Y12670000D02*
X15900000D01*
Y11640000D02*
Y11815837D01*
X15960000Y11875837*
Y12360000*
X16510000Y11720000D02*
Y11720431D01*
X16640216*
X16640216D02*
X16669784Y11750000D01*
X16669784D02*
X16800000D01*
X15720000Y11700000D02*
Y11876553D01*
X15780000Y11936553*
Y12180000*
X15660000Y11640000D02*
Y11896710D01*
X15660000D02*
X15720000Y11956710D01*
X15720000D02*
Y12120000D01*
X15600000Y11700000D02*
Y11907496D01*
X15660000Y11967496*
Y12060000*
X16256000Y11239500D02*
X16516874D01*
X16577374Y11300000*
X16760000*
X18390000Y13170000D02*
X18450000D01*
X18270000Y12860000D02*
X18590000D01*
X18710000Y12980000*
X18920000*
X18270000Y12860000D02*
X18240000Y12890000D01*
Y13110000*
X17805000Y11895000D02*
X17800000Y11900000D01*
X18920000Y12860000D02*
X18790000D01*
X17990000Y11540000D02*
X18300000D01*
X18450000Y11690000*
X18790000*
X17500000Y11370000D02*
X17620000D01*
X18200000Y11750000D02*
X18271109D01*
X18531109Y12010000*
X18920000*
X18130000Y11680000D02*
X18290000D01*
X18421000Y11811000*
X19177000*
X18060000Y11610000D02*
X18300000D01*
X18440000Y11750000*
X18980000*
X18180000Y13170000D02*
X18390000D01*
X18570000Y11930000D02*
X18920000D01*
X18510000Y11870000D02*
X18980000D01*
X18060000Y13170000D02*
X18130000Y13240000D01*
X18750000*
X18850000Y13340000*
X18320000Y11950000D02*
X18400000D01*
X18500000Y12050000*
X18800000*
X18840000Y12090000*
X18920000*
X18120000Y13110000D02*
X18240000D01*
X18390000*
X15420000Y13550000D02*
X15670000D01*
X15420000Y13630000D02*
X15670000D01*
X18000000Y13370000D02*
X18450000D01*
X18860000Y13540000D02*
X18500000Y13900000D01*
X18900000Y14100000D02*
X20040000D01*
X19280000Y13770000D02*
X19200000Y13850000D01*
X18890000*
X18000000Y13300000D02*
X18470000D01*
X18540000Y13370000*
X17940000D02*
X18000000D01*
X17935000Y13773000D02*
X18062000Y13900000D01*
X18500000*
X19860000Y13340000D02*
Y13420000D01*
X19740000Y13540000*
G54D17*
X14322674Y9047326D02*
X15983532D01*
X16056206Y9120000*
X16056206D02*
X16210000D01*
X14322674Y9047326D02*
X13940000Y9430000D01*
X16634267Y9057183D02*
X17337183D01*
X17470000Y9190000*
X16634267Y9057183D02*
X16571451Y9120000D01*
X16571451D02*
X16210000D01*
X15060000Y10546000D02*
X15056000Y10550000D01*
X15540000Y10546000D02*
X15544000Y10550000D01*
X16320000Y9760000D02*
X16210000Y9870000D01*
X15920000*
X19290000Y9170000D02*
X19510000D01*
X18570000Y9820000D02*
X18640000D01*
X18800000Y9980000*
X18570000Y9900000D02*
X18730000Y10060000D01*
X18870000*
X14580000Y12520000D02*
X14700000Y12640000D01*
X16650000Y12100000D02*
X16800000D01*
X16650000Y12460000D02*
X16800000D01*
Y12900000D02*
Y13050000D01*
X16650000Y12780000D02*
X16800000D01*
X17240000Y11750000D02*
Y11900000D01*
X15490000Y12200000D02*
X15540000Y12250000D01*
Y12300000*
X15600000Y12360000*
X18300000Y12920000D02*
X18550000D01*
X18880000Y13250000*
X17800000Y12900000D02*
X17810000D01*
Y12910000*
X17865000Y12965000*
X17905000*
X17950000Y13010000*
X17920000Y11750000D02*
X17860000Y11810000D01*
Y11840000*
X17805000Y11895000*
X17680000Y11750000D02*
Y11900000D01*
X17800000Y12260000D02*
X17950000D01*
X17800000Y12460000D02*
X17950000D01*
X17600000Y12900000D02*
Y13050000D01*
X17520000Y11750000D02*
Y11900000D01*
X17360000Y12900000D02*
Y13050000D01*
X15200000Y13470000D02*
Y13739500D01*
X15367000Y13906500*
G54D18*
X16157000Y13773000D03*
G54D19*
X21062500Y12846000D03*
Y13354000D03*
X16157000Y14027000D03*
X16411000Y13773000D03*
Y14027000D03*
X16665000Y13773000D03*
Y14027000D03*
X16919000Y13773000D03*
Y14027000D03*
X17173000Y13773000D03*
Y14027000D03*
X17427000Y13773000D03*
Y14027000D03*
X17681000Y13773000D03*
Y14027000D03*
X17935000Y13773000D03*
Y14027000D03*
X18189000Y13773000D03*
Y14027000D03*
X18443000Y13773000D03*
Y14027000D03*
X17208500Y9461500D03*
X20350000Y12800000D03*
X17208500Y10477500D03*
Y9715500D03*
Y10223500D03*
Y9969500D03*
X16954500Y9207500D03*
X17208500D03*
X19177000Y11303000D03*
X17208500Y10731500D03*
X19177000Y11557000D03*
Y11811000D03*
Y12065000D03*
Y12319000D03*
X16256000Y11239500D03*
X15367000Y14160500D03*
Y13906500D03*
X18669000Y10858500D03*
G54D23*
X17030000Y11160000D02*
X16900000D01*
X16830000Y11230000*
X16460000Y11090000D02*
X16600000Y11230000D01*
X16830000*
X17490000Y10700000D02*
X17030000Y11160000D01*
G54D26*
X13550000Y10470000D02*
X13080202Y10939798D01*
Y13160202*
X13350000Y13430000*
X16300000Y13000000D02*
X15990000Y13310000D01*
G54D30*
X13940000Y11990000D02*
X13930000Y12000000D01*
G54D31*
X20800000Y13354000D03*
Y13100000D03*
Y12846000D03*
G54D34*
X15056000Y9350000D03*
X15544000D03*
X15056000Y10550000D03*
X15544000D03*
G54D39*
X14100000Y11575000D03*
Y11825000D03*
X13900000D03*
Y11575000D03*
G54D40*
X13629000Y12300000D03*
Y11100000D03*
G54D41*
X13320000Y14080000D03*
Y9320000D03*
X21280000D03*
Y14080000D03*
G54D46*
X14600000Y9120000D03*
X16210000D03*
X18270000Y9140000D03*
X13180000Y11010000D03*
X14080000Y10910000D03*
X14180000Y11010000D03*
X13850000Y9250000D03*
X13930000Y9910000D03*
X13440000Y10330000D03*
X14400000Y10960000D03*
X13870000Y10800000D03*
X15110000Y9950000D03*
X14330000Y9320000D03*
Y10120000D03*
Y9720000D03*
X14770000Y9600000D03*
Y10300000D03*
X13680000Y9650000D03*
X13940000Y9430000D03*
X13550000Y10470000D03*
X16990000Y10830000D03*
X16870000Y10710000D03*
X16730000Y9700000D03*
X16580000Y10970000D03*
X17020000Y11030000D03*
X16460000Y11090000D03*
X16660000Y10760000D03*
X16890000Y10970000D03*
X16850000Y9450000D03*
X16650000Y10190000D03*
X16800000D03*
Y9880000D03*
Y10550000D03*
X17250000Y11150000D03*
X16030000Y10570000D03*
X15920000Y10030000D03*
X16630000Y9850000D03*
X16720000Y9550000D03*
X16010000Y9950000D03*
Y10350000D03*
Y9550000D03*
X15830000Y9600000D03*
Y10300000D03*
X16590000Y11090000D03*
X16960000D03*
X17040000Y10560000D03*
X16760000Y11160000D03*
X16650000D03*
X17090000Y10970000D03*
X16590000Y10700000D03*
X16320000Y9760000D03*
X15920000Y9870000D03*
X16530000Y10640000D03*
X17060000Y10770000D03*
X16940000Y10650000D03*
X16800000Y10760000D03*
X17020000Y10910000D03*
X17490000Y10700000D03*
X19290000Y9170000D03*
X18800000Y9980000D03*
X18570000Y9820000D03*
X18870000Y10060000D03*
X18570000Y9900000D03*
X17760000Y11100000D03*
X18060000Y11160000D03*
X17640000Y9160000D03*
X17380000Y9550000D03*
Y9700000D03*
X18370000Y10450000D03*
X17610000Y10550000D03*
X17770000Y10250000D03*
X18370000Y10150000D03*
Y10300000D03*
X17970000Y9630000D03*
X18330000Y9700000D03*
X19020000Y9860000D03*
Y9690000D03*
Y9520000D03*
Y9350000D03*
Y9180000D03*
X18780000Y10570000D03*
X17360000Y10700000D03*
X17390000Y10400000D03*
X17470000Y9190000D03*
X19510000Y9170000D03*
X19500000Y10100000D03*
Y10900000D03*
X21000000Y10300000D03*
X20300000D03*
X19430000Y9720000D03*
X19380000Y10570000D03*
X21250000Y10670000D03*
X20230000Y9800000D03*
Y9600000D03*
X21270000Y11000000D03*
X20230000D03*
X13180000Y12410000D03*
X14450000Y13120000D03*
X14700000Y12640000D03*
X14580000Y12520000D03*
X14730000Y13150000D03*
X14780000Y11700000D03*
X14940000Y12040000D03*
X15060000D03*
Y12160000D03*
X14940000D03*
X13950000Y12920000D03*
X14950000Y11350000D03*
X13870000Y12600000D03*
X14730000Y12560000D03*
X15200000Y12930000D03*
X14420000Y12500000D03*
Y12000000D03*
X13650000Y13070000D03*
X14680000Y12100000D03*
X13930000Y12000000D03*
X16760000Y11300000D03*
X15560000D03*
X15890000Y13050000D03*
X16020000Y12800000D03*
X16000000Y12510000D03*
X16020000Y11640000D03*
X16370000Y11690000D03*
X16880000Y11830000D03*
X15830000Y12990000D03*
X15960000Y12740000D03*
Y12440000D03*
Y11700000D03*
X16450000Y11660000D03*
X16880000Y11750000D03*
X15480000Y12000000D03*
Y11700000D03*
X15420000Y12060000D03*
Y11760000D03*
X15480000Y12480000D03*
X15780000D03*
X15900000Y12300000D03*
X15840000Y11700000D03*
Y12360000D03*
X15780000Y11640000D03*
X15600000Y12000000D03*
X15540000Y11640000D03*
X15300000Y11880000D03*
Y12060000D03*
X15360000Y12000000D03*
Y11820000D03*
X15250000Y12670000D03*
X15900000D03*
X15960000Y12360000D03*
X15900000Y11640000D03*
X16510000Y11720000D03*
X16800000Y11750000D03*
X15720000Y11700000D03*
X15780000Y12180000D03*
X15720000Y12120000D03*
X15660000Y11640000D03*
Y12060000D03*
X15600000Y11700000D03*
X15950000Y11450000D03*
X16450000Y11300000D03*
X15410000Y12880000D03*
X17000000Y11240000D03*
X16150000Y12080000D03*
X16140000Y12480000D03*
Y12880000D03*
X17150000Y12250000D03*
Y12550000D03*
Y12400000D03*
X15810000Y11200000D03*
X15290000Y12360000D03*
X16880000Y13050000D03*
X17000000D03*
X16650000Y12260000D03*
Y12940000D03*
X16300000Y13000000D03*
X15600000Y12360000D03*
X16800000Y12100000D03*
X16650000D03*
X16800000Y12460000D03*
X16650000D03*
X16800000Y12900000D03*
Y13050000D03*
Y12780000D03*
X16650000D03*
X17240000Y11900000D03*
Y11750000D03*
X15490000Y12200000D03*
X18790000Y12860000D03*
X18920000D03*
X18790000Y11690000D03*
X17990000Y11540000D03*
X17620000Y11370000D03*
X17500000D03*
X18920000Y12010000D03*
X18200000Y11750000D03*
X18130000Y11680000D03*
X18980000Y11750000D03*
X18060000Y11610000D03*
X18300000Y12920000D03*
X18180000Y13170000D03*
X18450000D03*
X19130000Y12920000D03*
X18290000Y11390000D03*
X18520000Y11620000D03*
X18690000Y12660000D03*
Y12110000D03*
X18390000Y11300000D03*
X18640000Y11550000D03*
X18600000Y11200000D03*
X19000000Y12700000D03*
X19070000Y13150000D03*
X17950000Y12880000D03*
Y12620000D03*
X17500000Y11240000D03*
X17450000Y12250000D03*
X17300000D03*
Y12550000D03*
X17450000D03*
Y12400000D03*
X17300000D03*
X17980000Y13170000D03*
X18460000Y12720000D03*
X18550000Y12380000D03*
Y12230000D03*
X17950000Y12180000D03*
Y12060000D03*
X17720000Y11500000D03*
X17680000Y13050000D03*
X17950000Y12740000D03*
Y12540000D03*
Y12340000D03*
X17320000Y11750000D03*
X18920000Y11930000D03*
X18570000D03*
X18980000Y11870000D03*
X18510000D03*
X17800000Y12900000D03*
X17950000Y13010000D03*
X17800000Y11900000D03*
X17920000Y11750000D03*
X17680000Y11900000D03*
Y11750000D03*
X17800000Y12260000D03*
X17950000D03*
X17800000Y12460000D03*
X17950000D03*
X17600000Y12900000D03*
Y13050000D03*
X17520000Y11900000D03*
Y11750000D03*
X17360000Y12900000D03*
Y13050000D03*
X18060000Y13170000D03*
X18920000Y12090000D03*
X18320000Y11950000D03*
X18920000Y12980000D03*
X18120000Y13110000D03*
X18390000D03*
X19570000Y13150000D03*
X20300000Y11700000D03*
X21000000D03*
X20040000Y12650000D03*
X21250000Y12070000D03*
X21020000Y12200000D03*
X20230000Y11200000D03*
X14750000Y13480000D03*
X14550000Y13220000D03*
X15200000Y13470000D03*
X14400000Y13500000D03*
X14750000Y13900000D03*
X13950000Y13980000D03*
X13630000Y13700000D03*
X13350000Y13430000D03*
X15420000Y13550000D03*
X15670000Y13630000D03*
X15420000D03*
X15670000Y13550000D03*
X15800000Y14100000D03*
X16200000Y13600000D03*
X15330000Y13370000D03*
X15990000Y13310000D03*
X18860000Y13540000D03*
X18880000Y13250000D03*
X18430000Y13520000D03*
X18650000Y13320000D03*
X17300000Y13290000D03*
X17840000Y13390000D03*
X17450000Y13290000D03*
X18850000Y13340000D03*
X18900000Y14100000D03*
X19280000Y13770000D03*
X18890000Y13850000D03*
X18540000Y13370000D03*
X18000000Y13300000D03*
X18450000Y13370000D03*
X17940000D03*
X20040000Y13650000D03*
X20400000Y13370000D03*
X20040000Y14100000D03*
X19860000Y13340000D03*
X19740000Y13540000D03*
G54D47*
X14100000Y11825000D02*
X13930000Y11995000D01*
Y12000000*
G74*
X0Y0D02*
M02*
