*
*
G04 PADS Layout (Build Number 2008.43.1) generated Gerber (RS-274-X) file*
G04 PC Version=2.1*
*
%IN "XPCB-010.pcb"*%
*
%MOMM*%
*
%FSLAX35Y35*%
*
*
*
*
G04 PC Standard Apertures*
*
*
G04 Thermal Relief Aperture macro.*
%AMTER*
1,1,$1,0,0*
1,0,$1-$2,0,0*
21,0,$3,$4,0,0,45*
21,0,$3,$4,0,0,135*
%
*
*
G04 Annular Aperture macro.*
%AMANN*
1,1,$1,0,0*
1,0,$2,0,0*
%
*
*
G04 Odd Aperture macro.*
%AMODD*
1,1,$1,0,0*
1,0,$1-0.005,0,0*
%
*
*
G04 PC Custom Aperture Macros*
*
*
*
*
*
*
G04 PC Aperture Table*
*
%ADD010C,0.12*%
%ADD011C,0.01*%
%ADD012C,0.0254*%
%ADD013C,0.2*%
%ADD015C,0.15*%
%ADD027C,0.1*%
*
*
*
*
G04 PC Circuitry*
G04 Layer Name XPCB-010.pcb - circuitry*
%LPD*%
*
*
G04 PC Custom Flashes*
G04 Layer Name XPCB-010.pcb - flashes*
%LPD*%
*
*
G04 PC Circuitry*
G04 Layer Name XPCB-010.pcb - circuitry*
%LPD*%
*
G54D10*
G01X20768125Y13070818D02*
X20828125D01*
X20839375Y13068091*
X20843125Y13065364*
X20846875Y13059909*
Y13054455*
X20846875D02*
X20843125Y13049000D01*
X20839375Y13046273*
X20828125Y13043545*
X20828125D02*
X20820625D01*
X20786875Y13098091D02*
X20783125D01*
X20775625Y13100818*
X20771875Y13103545*
X20771875D02*
X20768125Y13109000D01*
Y13119909*
X20771875Y13125364*
X20775625Y13128091*
X20783125Y13130818*
X20790625*
X20798125Y13128091*
X20809375Y13122636*
X20846875Y13095364*
Y13133545*
X13931875Y11729182D02*
X13871875D01*
X13860625Y11731909*
X13856875Y11734636*
X13853125Y11740091*
Y11745545*
X13853125D02*
X13856875Y11751000D01*
X13860625Y11753727*
X13871875Y11756455*
X13871875D02*
X13879375D01*
X13931875Y11699182D02*
Y11669182D01*
X13901875Y11685545*
X13901875D02*
Y11677364D01*
X13898125Y11671909*
X13894375Y11669182*
X13883125Y11666455*
X13883125D02*
X13875625D01*
X13875625D02*
X13864375Y11669182D01*
X13856875Y11674636*
X13853125Y11682818*
Y11691000*
X13856875Y11699182*
X13860625Y11701909*
X13868125Y11704636*
X13192636Y14111875D02*
Y14033125D01*
Y14111875D02*
X13214455Y14033125D01*
X13236273Y14111875D02*
X13214455Y14033125D01*
X13236273Y14111875D02*
Y14033125D01*
X13279909Y14111875D02*
Y14033125D01*
X13260818Y14111875D02*
X13299000D01*
X13323545D02*
Y14033125D01*
X13361727Y14111875D02*
Y14033125D01*
X13323545Y14074375D02*
X13361727D01*
X13389000Y14093125D02*
Y14096875D01*
X13391727Y14104375*
X13394455Y14108125*
X13399909Y14111875*
X13410818*
X13416273Y14108125*
X13419000Y14104375*
X13421727Y14096875*
Y14089375*
X13419000Y14081875*
X13413545Y14070625*
X13413545D02*
X13386273Y14033125D01*
X13424455*
X13204909Y9351875D02*
Y9273125D01*
Y9351875D02*
X13226727Y9273125D01*
X13248545Y9351875D02*
X13226727Y9273125D01*
X13248545Y9351875D02*
Y9273125D01*
X13292182Y9351875D02*
Y9273125D01*
X13273091Y9351875D02*
X13311273D01*
X13335818D02*
Y9273125D01*
X13374000Y9351875D02*
Y9273125D01*
X13335818Y9314375D02*
X13374000D01*
X13398545Y9336875D02*
X13404000Y9340625D01*
X13412182Y9351875*
Y9273125*
X21151273Y9351875D02*
Y9273125D01*
Y9351875D02*
X21173091Y9273125D01*
X21194909Y9351875D02*
X21173091Y9273125D01*
X21194909Y9351875D02*
Y9273125D01*
X21238545Y9351875D02*
Y9273125D01*
X21219455Y9351875D02*
X21257636D01*
X21282182D02*
Y9273125D01*
X21320364Y9351875D02*
Y9273125D01*
X21282182Y9314375D02*
X21320364D01*
X21372182Y9351875D02*
X21344909Y9299375D01*
X21385818*
X21372182Y9351875D02*
Y9273125D01*
X21152636Y14111875D02*
Y14033125D01*
Y14111875D02*
X21174455Y14033125D01*
X21196273Y14111875D02*
X21174455Y14033125D01*
X21196273Y14111875D02*
Y14033125D01*
X21239909Y14111875D02*
Y14033125D01*
X21220818Y14111875D02*
X21259000D01*
X21283545D02*
Y14033125D01*
X21321727Y14111875D02*
Y14033125D01*
X21283545Y14074375D02*
X21321727D01*
X21351727Y14111875D02*
X21381727D01*
X21365364Y14081875*
X21373545*
X21373545D02*
X21379000Y14078125D01*
X21381727Y14074375*
X21384455Y14063125*
Y14055625*
X21381727Y14044375*
X21376273Y14036875*
X21368091Y14033125*
X21359909*
X21351727Y14036875*
X21349000Y14040625*
X21346273Y14048125*
X21268125Y10272182D02*
X21328125D01*
X21339375Y10269455*
X21343125Y10266727*
X21346875Y10261273*
Y10255818*
X21343125Y10250364*
X21339375Y10247636*
X21328125Y10244909*
X21320625*
X21279375Y10329455D02*
X21271875Y10326727D01*
X21268125Y10318545*
X21268125D02*
Y10313091D01*
X21271875Y10304909*
X21283125Y10299455*
X21301875Y10296727*
X21320625*
X21335625Y10299455*
X21343125Y10304909*
X21346875Y10313091*
Y10315818*
X21343125Y10324000*
X21335625Y10329455*
X21324375Y10332182*
X21320625*
X21309375Y10329455*
X21301875Y10324000*
X21298125Y10315818*
Y10313091*
X21301875Y10304909*
X21309375Y10299455*
X21320625Y10296727*
X21268125Y11669455D02*
X21328125D01*
X21339375Y11666727*
X21343125Y11664000*
X21346875Y11658546*
X21346875D02*
Y11653091D01*
X21343125Y11647636*
X21339375Y11644909*
X21328125Y11642182*
X21320625*
X21268125Y11729455D02*
Y11702182D01*
X21301875Y11699455*
X21298125Y11702182*
X21294375Y11710364*
Y11718546*
X21294375D02*
X21298125Y11726727D01*
X21305625Y11732182*
X21316875Y11734909*
X21324375Y11732182*
X21335625Y11729455*
X21343125Y11724000*
X21346875Y11715818*
Y11707636*
X21343125Y11699455*
X21339375Y11696727*
X21331875Y11694000*
X15543273Y9668125D02*
Y9746875D01*
Y9668125D02*
X15518727D01*
X15510545Y9671875*
X15510545D02*
X15507818Y9675625D01*
X15505091Y9683125*
Y9690625*
X15507818Y9698125*
X15510545Y9701875*
X15510545D02*
X15518727Y9705625D01*
X15543273*
X15524182D02*
X15505091Y9746875D01*
X15477818Y9686875D02*
Y9683125D01*
X15475091Y9675625*
X15472364Y9671875*
X15466909Y9668125*
X15456000*
X15450545Y9671875*
X15450545D02*
X15447818Y9675625D01*
X15445091Y9683125*
Y9690625*
X15447818Y9698125*
X15453273Y9709375*
X15480545Y9746875*
X15480545D02*
X15442364D01*
X15415091Y9686875D02*
Y9683125D01*
X15412364Y9675625*
X15409636Y9671875*
X15404182Y9668125*
X15393273*
X15387818Y9671875*
X15385091Y9675625*
X15382364Y9683125*
Y9690625*
X15385091Y9698125*
X15390545Y9709375*
X15390545D02*
X15417818Y9746875D01*
X15379636*
X17643273Y9268125D02*
Y9346875D01*
Y9268125D02*
X17618727D01*
X17610545Y9271875*
X17610545D02*
X17607818Y9275625D01*
X17605091Y9283125*
Y9290625*
X17607818Y9298125*
X17610545Y9301875*
X17610545D02*
X17618727Y9305625D01*
X17643273*
X17624182D02*
X17605091Y9346875D01*
X17575091Y9268125D02*
X17545091D01*
X17561455Y9298125*
X17561455D02*
X17553273D01*
X17547818Y9301875*
X17545091Y9305625*
X17542364Y9316875*
Y9324375*
X17545091Y9335625*
X17550545Y9343125*
X17550545D02*
X17558727Y9346875D01*
X17566909*
X17575091Y9343125*
X17577818Y9339375*
X17580545Y9331875*
X17479636Y9268125D02*
X17506909Y9346875D01*
X17517818Y9268125D02*
X17479636D01*
X13308125Y9819000D02*
X13386875D01*
X13308125D02*
Y9843545D01*
X13308125D02*
X13311875Y9851727D01*
X13315625Y9854455*
X13315625D02*
X13323125Y9857182D01*
X13330625*
X13338125Y9854455*
X13338125D02*
X13341875Y9851727D01*
X13345625Y9843545*
X13345625D02*
Y9819000D01*
Y9838091D02*
X13386875Y9857182D01*
X13323125Y9881727D02*
X13319375Y9887182D01*
X13308125Y9895364*
X13386875*
X13326875Y9922636D02*
X13323125D01*
X13315625Y9925364*
X13311875Y9928091*
X13308125Y9933545*
X13308125D02*
Y9944455D01*
X13308125D02*
X13311875Y9949909D01*
X13315625Y9952636*
X13323125Y9955364*
X13330625*
X13338125Y9952636*
X13349375Y9947182*
X13386875Y9919909*
Y9958091*
X15412364Y12748125D02*
Y12826875D01*
Y12748125D02*
X15387818D01*
X15379636Y12751875*
X15376909Y12755625*
X15374182Y12763125*
Y12770625*
X15376909Y12778125*
X15379636Y12781875*
X15387818Y12785625*
X15412364*
X15393273D02*
X15374182Y12826875D01*
X15349636Y12763125D02*
X15344182Y12759375D01*
X15336000Y12748125*
Y12826875*
X15284182Y12748125D02*
X15311455Y12800625D01*
X15311455D02*
X15270545D01*
X15284182Y12748125D02*
Y12826875D01*
X13983273Y9528125D02*
Y9606875D01*
Y9528125D02*
X13958727D01*
X13950545Y9531875*
X13950545D02*
X13947818Y9535625D01*
X13945091Y9543125*
Y9550625*
X13947818Y9558125*
X13950545Y9561875*
X13950545D02*
X13958727Y9565625D01*
X13983273*
X13964182D02*
X13945091Y9606875D01*
X13917818Y9546875D02*
Y9543125D01*
X13915091Y9535625*
X13912364Y9531875*
X13906909Y9528125*
X13896000*
X13890545Y9531875*
X13890545D02*
X13887818Y9535625D01*
X13885091Y9543125*
Y9550625*
X13887818Y9558125*
X13893273Y9569375*
X13920545Y9606875*
X13920545D02*
X13882364D01*
X13852364Y9528125D02*
X13822364D01*
X13838727Y9558125*
X13830545*
X13830545D02*
X13825091Y9561875D01*
X13822364Y9565625*
X13819636Y9576875*
Y9584375*
X13822364Y9595625*
X13827818Y9603125*
X13836000Y9606875*
X13844182*
X13852364Y9603125*
X13855091Y9599375*
X13857818Y9591875*
X14755364Y10081875D02*
Y10003125D01*
Y10081875D02*
X14779909D01*
X14788091Y10078125*
X14790818Y10074375*
X14793545Y10066875*
X14793545D02*
Y10059375D01*
X14793545D02*
X14790818Y10051875D01*
X14788091Y10048125*
X14779909Y10044375*
X14755364*
X14774455D02*
X14793545Y10003125D01*
X14820818Y10063125D02*
Y10066875D01*
X14823545Y10074375*
X14823545D02*
X14826273Y10078125D01*
X14831727Y10081875*
X14842636*
X14848091Y10078125*
X14850818Y10074375*
X14853545Y10066875*
X14853545D02*
Y10059375D01*
X14853545D02*
X14850818Y10051875D01*
X14845364Y10040625*
X14818091Y10003125*
X14856273*
X14908091Y10081875D02*
X14880818Y10029375D01*
X14921727*
X14908091Y10081875D02*
Y10003125D01*
X14755364Y9881875D02*
Y9803125D01*
Y9881875D02*
X14779909D01*
X14788091Y9878125*
X14790818Y9874375*
X14793545Y9866875*
X14793545D02*
Y9859375D01*
X14793545D02*
X14790818Y9851875D01*
X14788091Y9848125*
X14779909Y9844375*
X14755364*
X14774455D02*
X14793545Y9803125D01*
X14820818Y9863125D02*
Y9866875D01*
X14823545Y9874375*
X14823545D02*
X14826273Y9878125D01*
X14831727Y9881875*
X14842636*
X14848091Y9878125*
X14850818Y9874375*
X14853545Y9866875*
X14853545D02*
Y9859375D01*
X14853545D02*
X14850818Y9851875D01*
X14845364Y9840625*
X14818091Y9803125*
X14856273*
X14916273Y9881875D02*
X14889000D01*
X14886273Y9848125*
X14889000Y9851875*
X14897182Y9855625*
X14905364*
X14913545Y9851875*
X14913545D02*
X14919000Y9844375D01*
X14921727Y9833125*
X14919000Y9825625*
X14916273Y9814375*
X14910818Y9806875*
X14902636Y9803125*
X14894455*
X14886273Y9806875*
X14883545Y9810625*
X14883545D02*
X14880818Y9818125D01*
X16458091Y9431875D02*
Y9353125D01*
Y9431875D02*
X16482636D01*
X16490818Y9428125*
X16493545Y9424375*
X16493545D02*
X16496273Y9416875D01*
Y9409375*
X16493545Y9401875*
X16493545D02*
X16490818Y9398125D01*
X16482636Y9394375*
X16458091*
X16477182D02*
X16496273Y9353125D01*
X16523545Y9413125D02*
Y9416875D01*
X16523545D02*
X16526273Y9424375D01*
X16529000Y9428125*
X16534455Y9431875*
X16545364*
X16550818Y9428125*
X16553545Y9424375*
X16553545D02*
X16556273Y9416875D01*
Y9409375*
X16553545Y9401875*
X16553545D02*
X16548091Y9390625D01*
X16520818Y9353125*
X16559000*
X16616273Y9420625D02*
X16613545Y9428125D01*
X16613545D02*
X16605364Y9431875D01*
X16599909*
X16591727Y9428125*
X16586273Y9416875*
X16583545Y9398125*
X16583545D02*
Y9379375D01*
X16583545D02*
X16586273Y9364375D01*
X16591727Y9356875*
X16599909Y9353125*
X16602636*
X16610818Y9356875*
X16616273Y9364375*
X16619000Y9375625*
Y9379375*
X16616273Y9390625*
X16610818Y9398125*
X16602636Y9401875*
X16599909*
X16591727Y9398125*
X16586273Y9390625*
X16583545Y9379375*
X16456727Y9731875D02*
Y9653125D01*
Y9731875D02*
X16481273D01*
X16489455Y9728125*
X16489455D02*
X16492182Y9724375D01*
X16494909Y9716875*
Y9709375*
X16492182Y9701875*
X16489455Y9698125*
X16489455D02*
X16481273Y9694375D01*
X16456727*
X16475818D02*
X16494909Y9653125D01*
X16522182Y9713125D02*
Y9716875D01*
X16524909Y9724375*
X16527636Y9728125*
X16533091Y9731875*
X16544000*
X16549455Y9728125*
X16549455D02*
X16552182Y9724375D01*
X16554909Y9716875*
Y9709375*
X16552182Y9701875*
X16546727Y9690625*
X16519455Y9653125*
X16519455D02*
X16557636D01*
X16620364Y9731875D02*
X16593091Y9653125D01*
X16582182Y9731875D02*
X16620364D01*
X16418125Y10336727D02*
X16496875D01*
X16418125D02*
Y10361273D01*
X16421875Y10369455*
X16421875D02*
X16425625Y10372182D01*
X16433125Y10374909*
X16440625*
X16448125Y10372182*
X16451875Y10369455*
X16451875D02*
X16455625Y10361273D01*
Y10336727*
Y10355818D02*
X16496875Y10374909D01*
X16418125Y10434909D02*
Y10407636D01*
X16451875Y10404909*
X16448125Y10407636*
X16444375Y10415818*
Y10424000*
X16448125Y10432182*
X16455625Y10437636*
X16466875Y10440364*
X16474375Y10437636*
X16485625Y10434909*
X16493125Y10429455*
X16493125D02*
X16496875Y10421273D01*
Y10413091*
X16493125Y10404909*
X16489375Y10402182*
X16481875Y10399455*
X13781000Y12568125D02*
Y12646875D01*
Y12568125D02*
X13756455D01*
X13756455D02*
X13748273Y12571875D01*
X13745545Y12575625*
X13745545D02*
X13742818Y12583125D01*
Y12590625*
X13745545Y12598125*
X13745545D02*
X13748273Y12601875D01*
X13756455Y12605625*
X13756455D02*
X13781000D01*
X13761909D02*
X13742818Y12646875D01*
X13718273Y12583125D02*
X13712818Y12579375D01*
X13704636Y12568125*
Y12646875*
X13641909Y12568125D02*
X13669182Y12646875D01*
X13680091Y12568125D02*
X13641909D01*
X18293273Y10268125D02*
Y10346875D01*
Y10268125D02*
X18268727D01*
X18260545Y10271875*
X18260545D02*
X18257818Y10275625D01*
X18255091Y10283125*
Y10290625*
X18257818Y10298125*
X18260545Y10301875*
X18260545D02*
X18268727Y10305625D01*
X18293273*
X18274182D02*
X18255091Y10346875D01*
X18225091Y10268125D02*
X18195091D01*
X18211455Y10298125*
X18211455D02*
X18203273D01*
X18197818Y10301875*
X18195091Y10305625*
X18192364Y10316875*
Y10324375*
X18195091Y10335625*
X18200545Y10343125*
X18200545D02*
X18208727Y10346875D01*
X18216909*
X18225091Y10343125*
X18227818Y10339375*
X18230545Y10331875*
X18154182Y10268125D02*
X18162364Y10271875D01*
X18165091Y10279375*
Y10286875*
X18162364Y10294375*
X18156909Y10298125*
X18146000Y10301875*
X18137818Y10305625*
X18132364Y10313125*
X18129636Y10320625*
Y10331875*
X18132364Y10339375*
X18135091Y10343125*
X18143273Y10346875*
X18154182*
X18162364Y10343125*
X18165091Y10339375*
X18167818Y10331875*
Y10320625*
X18165091Y10313125*
X18159636Y10305625*
X18151455Y10301875*
X18151455D02*
X18140545Y10298125D01*
X18140545D02*
X18135091Y10294375D01*
X18132364Y10286875*
Y10279375*
X18135091Y10271875*
X18143273Y10268125*
X18154182*
X20841909Y9568125D02*
Y9646875D01*
Y9568125D02*
X20817364D01*
X20809182Y9571875*
X20806455Y9575625*
X20806455D02*
X20803727Y9583125D01*
Y9590625*
X20806455Y9598125*
X20806455D02*
X20809182Y9601875D01*
X20817364Y9605625*
X20841909*
X20822818D02*
X20803727Y9646875D01*
X20773727Y9568125D02*
X20743727D01*
X20760091Y9598125*
X20751909*
X20746455Y9601875*
X20746455D02*
X20743727Y9605625D01*
X20741000Y9616875*
Y9624375*
X20743727Y9635625*
X20749182Y9643125*
X20757364Y9646875*
X20765545*
X20773727Y9643125*
X20776455Y9639375*
X20776455D02*
X20779182Y9631875D01*
X20681000Y9594375D02*
X20683727Y9605625D01*
X20689182Y9613125*
X20697364Y9616875*
X20700091*
X20708273Y9613125*
X20713727Y9605625*
X20716455Y9594375*
X20716455D02*
Y9590625D01*
X20716455D02*
X20713727Y9579375D01*
X20708273Y9571875*
X20700091Y9568125*
X20697364*
X20689182Y9571875*
X20683727Y9579375*
X20681000Y9594375*
Y9613125*
X20683727Y9631875*
X20689182Y9643125*
X20697364Y9646875*
X20702818*
X20711000Y9643125*
X20713727Y9635625*
X20844636Y9768125D02*
Y9846875D01*
Y9768125D02*
X20820091D01*
X20811909Y9771875*
X20809182Y9775625*
X20806455Y9783125*
X20806455D02*
Y9790625D01*
X20806455D02*
X20809182Y9798125D01*
X20811909Y9801875*
X20820091Y9805625*
X20844636*
X20825545D02*
X20806455Y9846875D01*
X20754636Y9768125D02*
X20781909Y9820625D01*
X20741000*
X20754636Y9768125D02*
Y9846875D01*
X20700091Y9768125D02*
X20708273Y9771875D01*
X20713727Y9783125*
X20716455Y9801875*
X20716455D02*
Y9813125D01*
X20716455D02*
X20713727Y9831875D01*
X20708273Y9843125*
X20700091Y9846875*
X20694636*
X20686455Y9843125*
X20686455D02*
X20681000Y9831875D01*
X20678273Y9813125*
Y9801875*
X20681000Y9783125*
X20686455Y9771875*
X20686455D02*
X20694636Y9768125D01*
X20700091*
X13881875Y13691909D02*
X13803125D01*
X13881875D02*
Y13667364D01*
X13878125Y13659182*
X13874375Y13656455*
X13874375D02*
X13866875Y13653727D01*
X13859375*
X13851875Y13656455*
X13851875D02*
X13848125Y13659182D01*
X13844375Y13667364*
Y13691909*
Y13672818D02*
X13803125Y13653727D01*
X13863125Y13626455D02*
X13866875D01*
X13866875D02*
X13874375Y13623727D01*
X13878125Y13621000*
X13881875Y13615545*
Y13604636*
X13878125Y13599182*
X13874375Y13596455*
X13874375D02*
X13866875Y13593727D01*
X13859375*
X13851875Y13596455*
X13851875D02*
X13840625Y13601909D01*
X13803125Y13629182*
Y13591000*
X13855625Y13531000D02*
X13844375Y13533727D01*
X13836875Y13539182*
X13833125Y13547364*
Y13550091*
X13836875Y13558273*
X13844375Y13563727*
X13855625Y13566455*
X13855625D02*
X13859375D01*
X13859375D02*
X13870625Y13563727D01*
X13878125Y13558273*
X13881875Y13550091*
Y13547364*
X13878125Y13539182*
X13870625Y13533727*
X13855625Y13531000*
X13836875*
X13818125Y13533727*
X13806875Y13539182*
X13803125Y13547364*
Y13552818*
X13806875Y13561000*
X13814375Y13563727*
X15543273Y10168125D02*
Y10246875D01*
Y10168125D02*
X15518727D01*
X15510545Y10171875*
X15510545D02*
X15507818Y10175625D01*
X15505091Y10183125*
Y10190625*
X15507818Y10198125*
X15510545Y10201875*
X15510545D02*
X15518727Y10205625D01*
X15543273*
X15524182D02*
X15505091Y10246875D01*
X15477818Y10186875D02*
Y10183125D01*
X15475091Y10175625*
X15472364Y10171875*
X15466909Y10168125*
X15456000*
X15450545Y10171875*
X15450545D02*
X15447818Y10175625D01*
X15445091Y10183125*
Y10190625*
X15447818Y10198125*
X15453273Y10209375*
X15480545Y10246875*
X15480545D02*
X15442364D01*
X15404182Y10168125D02*
X15412364Y10171875D01*
X15415091Y10179375*
Y10186875*
X15412364Y10194375*
X15406909Y10198125*
X15396000Y10201875*
X15387818Y10205625*
X15382364Y10213125*
X15379636Y10220625*
Y10231875*
X15382364Y10239375*
X15385091Y10243125*
X15393273Y10246875*
X15404182*
X15412364Y10243125*
X15415091Y10239375*
X15417818Y10231875*
Y10220625*
X15415091Y10213125*
X15409636Y10205625*
X15401455Y10201875*
X15401455D02*
X15390545Y10198125D01*
X15390545D02*
X15385091Y10194375D01*
X15382364Y10186875*
Y10179375*
X15385091Y10171875*
X15393273Y10168125*
X15404182*
X14439455Y12431875D02*
Y12353125D01*
Y12431875D02*
X14464000D01*
X14472182Y12428125*
X14474909Y12424375*
X14477636Y12416875*
Y12409375*
X14474909Y12401875*
X14472182Y12398125*
X14464000Y12394375*
X14439455*
X14458545D02*
X14477636Y12353125D01*
X14534909Y12420625D02*
X14532182Y12428125D01*
X14524000Y12431875*
X14518545*
X14518545D02*
X14510364Y12428125D01*
X14504909Y12416875*
X14502182Y12398125*
Y12379375*
X14504909Y12364375*
X14510364Y12356875*
X14518545Y12353125*
X14518545D02*
X14521273D01*
X14529455Y12356875*
X14529455D02*
X14534909Y12364375D01*
X14537636Y12375625*
Y12379375*
X14534909Y12390625*
X14529455Y12398125*
X14529455D02*
X14521273Y12401875D01*
X14518545*
X14518545D02*
X14510364Y12398125D01*
X14504909Y12390625*
X14502182Y12379375*
X13818125Y13219000D02*
X13896875D01*
X13818125D02*
Y13243545D01*
X13818125D02*
X13821875Y13251727D01*
X13825625Y13254455*
X13825625D02*
X13833125Y13257182D01*
X13840625*
X13848125Y13254455*
X13848125D02*
X13851875Y13251727D01*
X13855625Y13243545*
X13855625D02*
Y13219000D01*
Y13238091D02*
X13896875Y13257182D01*
X13836875Y13284455D02*
X13833125D01*
X13833125D02*
X13825625Y13287182D01*
X13821875Y13289909*
X13818125Y13295364*
Y13306273*
X13821875Y13311727*
X13825625Y13314455*
X13825625D02*
X13833125Y13317182D01*
X13840625*
X13848125Y13314455*
X13848125D02*
X13859375Y13309000D01*
X13896875Y13281727*
Y13319909*
X13833125Y13344455D02*
X13829375Y13349909D01*
X13818125Y13358091*
X13896875*
X15070364Y10231875D02*
Y10153125D01*
Y10231875D02*
X15094909D01*
X15103091Y10228125*
X15105818Y10224375*
X15108545Y10216875*
X15108545D02*
Y10209375D01*
X15108545D02*
X15105818Y10201875D01*
X15103091Y10198125*
X15094909Y10194375*
X15070364*
X15089455D02*
X15108545Y10153125D01*
X15133091Y10216875D02*
X15138545Y10220625D01*
X15138545D02*
X15146727Y10231875D01*
Y10153125*
X15206727Y10205625D02*
X15204000Y10194375D01*
X15198545Y10186875*
X15198545D02*
X15190364Y10183125D01*
X15187636*
X15179455Y10186875*
X15174000Y10194375*
X15171273Y10205625*
Y10209375*
X15174000Y10220625*
X15179455Y10228125*
X15187636Y10231875*
X15190364*
X15198545Y10228125*
X15198545D02*
X15204000Y10220625D01*
X15206727Y10205625*
Y10186875*
X15204000Y10168125*
X15198545Y10156875*
X15198545D02*
X15190364Y10153125D01*
X15184909*
X15176727Y10156875*
X15174000Y10164375*
X15056727Y9731875D02*
Y9653125D01*
Y9731875D02*
X15081273D01*
X15089455Y9728125*
X15089455D02*
X15092182Y9724375D01*
X15094909Y9716875*
Y9709375*
X15092182Y9701875*
X15089455Y9698125*
X15089455D02*
X15081273Y9694375D01*
X15056727*
X15075818D02*
X15094909Y9653125D01*
X15122182Y9713125D02*
Y9716875D01*
X15124909Y9724375*
X15127636Y9728125*
X15133091Y9731875*
X15144000*
X15149455Y9728125*
X15149455D02*
X15152182Y9724375D01*
X15154909Y9716875*
Y9709375*
X15152182Y9701875*
X15146727Y9690625*
X15119455Y9653125*
X15119455D02*
X15157636D01*
X15198545Y9731875D02*
X15190364Y9728125D01*
X15184909Y9716875*
X15182182Y9698125*
Y9686875*
X15184909Y9668125*
X15190364Y9656875*
X15198545Y9653125*
X15198545D02*
X15204000D01*
X15212182Y9656875*
X15217636Y9668125*
X15220364Y9686875*
Y9698125*
X15217636Y9716875*
X15212182Y9728125*
X15204000Y9731875*
X15198545*
X18281000Y10718125D02*
Y10796875D01*
Y10718125D02*
X18256455D01*
X18256455D02*
X18248273Y10721875D01*
X18245545Y10725625*
X18245545D02*
X18242818Y10733125D01*
Y10740625*
X18245545Y10748125*
X18245545D02*
X18248273Y10751875D01*
X18256455Y10755625*
X18256455D02*
X18281000D01*
X18261909D02*
X18242818Y10796875D01*
X18212818Y10718125D02*
X18182818D01*
X18199182Y10748125*
X18191000*
X18185545Y10751875*
X18185545D02*
X18182818Y10755625D01*
X18180091Y10766875*
Y10774375*
X18182818Y10785625*
X18188273Y10793125*
X18196455Y10796875*
X18196455D02*
X18204636D01*
X18212818Y10793125*
X18215545Y10789375*
X18215545D02*
X18218273Y10781875D01*
X18155545Y10733125D02*
X18150091Y10729375D01*
X18141909Y10718125*
Y10796875*
X20306727Y9831875D02*
Y9753125D01*
Y9831875D02*
X20331273D01*
X20339455Y9828125*
X20339455D02*
X20342182Y9824375D01*
X20344909Y9816875*
Y9809375*
X20342182Y9801875*
X20339455Y9798125*
X20339455D02*
X20331273Y9794375D01*
X20306727*
X20325818D02*
X20344909Y9753125D01*
X20374909Y9831875D02*
X20404909D01*
X20388545Y9801875*
X20388545D02*
X20396727D01*
X20402182Y9798125*
X20404909Y9794375*
X20407636Y9783125*
Y9775625*
X20404909Y9764375*
X20399455Y9756875*
X20399455D02*
X20391273Y9753125D01*
X20383091*
X20374909Y9756875*
X20372182Y9760625*
X20369455Y9768125*
X20437636Y9831875D02*
X20467636D01*
X20451273Y9801875*
X20459455*
X20459455D02*
X20464909Y9798125D01*
X20467636Y9794375*
X20470364Y9783125*
Y9775625*
X20467636Y9764375*
X20462182Y9756875*
X20454000Y9753125*
X20445818*
X20437636Y9756875*
X20434909Y9760625*
X20432182Y9768125*
X20306727Y9631875D02*
Y9553125D01*
Y9631875D02*
X20331273D01*
X20339455Y9628125*
X20339455D02*
X20342182Y9624375D01*
X20344909Y9616875*
Y9609375*
X20342182Y9601875*
X20339455Y9598125*
X20339455D02*
X20331273Y9594375D01*
X20306727*
X20325818D02*
X20344909Y9553125D01*
X20374909Y9631875D02*
X20404909D01*
X20388545Y9601875*
X20388545D02*
X20396727D01*
X20402182Y9598125*
X20404909Y9594375*
X20407636Y9583125*
Y9575625*
X20404909Y9564375*
X20399455Y9556875*
X20399455D02*
X20391273Y9553125D01*
X20383091*
X20374909Y9556875*
X20372182Y9560625*
X20369455Y9568125*
X20434909Y9613125D02*
Y9616875D01*
X20437636Y9624375*
X20440364Y9628125*
X20445818Y9631875*
X20456727*
X20462182Y9628125*
X20464909Y9624375*
X20467636Y9616875*
Y9609375*
X20464909Y9601875*
X20459455Y9590625*
X20459455D02*
X20432182Y9553125D01*
X20470364*
X17455364Y9581875D02*
Y9503125D01*
Y9581875D02*
X17479909D01*
X17488091Y9578125*
X17490818Y9574375*
X17493545Y9566875*
X17493545D02*
Y9559375D01*
X17493545D02*
X17490818Y9551875D01*
X17488091Y9548125*
X17479909Y9544375*
X17455364*
X17474455D02*
X17493545Y9503125D01*
X17523545Y9581875D02*
X17553545D01*
X17553545D02*
X17537182Y9551875D01*
X17545364*
X17550818Y9548125*
X17553545Y9544375*
X17553545D02*
X17556273Y9533125D01*
Y9525625*
X17553545Y9514375*
X17553545D02*
X17548091Y9506875D01*
X17539909Y9503125*
X17531727*
X17523545Y9506875*
X17523545D02*
X17520818Y9510625D01*
X17518091Y9518125*
X17608091Y9581875D02*
X17580818Y9529375D01*
X17621727*
X17608091Y9581875D02*
Y9503125D01*
X20794909Y12213125D02*
X20792182Y12220625D01*
X20786727Y12228125*
X20781273Y12231875*
X20770364*
X20764909Y12228125*
X20759455Y12220625*
X20759455D02*
X20756727Y12213125D01*
X20754000Y12201875*
Y12183125*
X20756727Y12171875*
X20759455Y12164375*
X20759455D02*
X20764909Y12156875D01*
X20770364Y12153125*
X20781273*
X20786727Y12156875*
X20792182Y12164375*
X20794909Y12171875*
X20854909Y12231875D02*
X20827636D01*
X20824909Y12198125*
X20827636Y12201875*
X20835818Y12205625*
X20844000*
X20852182Y12201875*
X20857636Y12194375*
X20860364Y12183125*
X20857636Y12175625*
X20854909Y12164375*
X20849455Y12156875*
X20849455D02*
X20841273Y12153125D01*
X20833091*
X20824909Y12156875*
X20822182Y12160625*
X20819455Y12168125*
X20901273Y12231875D02*
X20893091Y12228125D01*
X20887636Y12216875*
X20884909Y12198125*
Y12186875*
X20887636Y12168125*
X20893091Y12156875*
X20901273Y12153125*
X20906727*
X20914909Y12156875*
X20920364Y12168125*
X20923091Y12186875*
Y12198125*
X20920364Y12216875*
X20914909Y12228125*
X20906727Y12231875*
X20901273*
X16222364Y10556875D02*
X16225091Y10549375D01*
X16230545Y10541875*
X16230545D02*
X16236000Y10538125D01*
X16246909*
X16252364Y10541875*
X16257818Y10549375*
X16260545Y10556875*
X16260545D02*
X16263273Y10568125D01*
Y10586875*
X16260545Y10598125*
X16260545D02*
X16257818Y10605625D01*
X16252364Y10613125*
X16246909Y10616875*
X16236000*
X16230545Y10613125*
X16230545D02*
X16225091Y10605625D01*
X16222364Y10598125*
X16195091Y10556875D02*
Y10553125D01*
X16192364Y10545625*
X16189636Y10541875*
X16184182Y10538125*
X16173273*
X16167818Y10541875*
X16165091Y10545625*
X16162364Y10553125*
Y10560625*
X16165091Y10568125*
X16170545Y10579375*
X16170545D02*
X16197818Y10616875D01*
X16159636*
X15376875Y12224909D02*
X15369375Y12222182D01*
X15361875Y12216727*
X15358125Y12211273*
Y12200364*
X15361875Y12194909*
X15369375Y12189455*
X15369375D02*
X15376875Y12186727D01*
X15388125Y12184000*
X15406875*
X15418125Y12186727*
X15425625Y12189455*
X15425625D02*
X15433125Y12194909D01*
X15436875Y12200364*
Y12211273*
X15433125Y12216727*
X15425625Y12222182*
X15418125Y12224909*
X15376875Y12252182D02*
X15373125D01*
X15365625Y12254909*
X15361875Y12257636*
X15358125Y12263091*
Y12274000*
X15361875Y12279455*
X15361875D02*
X15365625Y12282182D01*
X15373125Y12284909*
X15380625*
X15388125Y12282182*
X15399375Y12276727*
X15436875Y12249455*
X15436875D02*
Y12287636D01*
X15358125Y12339455D02*
X15410625Y12312182D01*
Y12353091*
X15358125Y12339455D02*
X15436875D01*
X14955091Y13136875D02*
X14957818Y13129375D01*
X14963273Y13121875*
X14968727Y13118125*
X14979636*
X14985091Y13121875*
X14990545Y13129375*
X14990545D02*
X14993273Y13136875D01*
X14996000Y13148125*
Y13166875*
X14993273Y13178125*
X14990545Y13185625*
X14990545D02*
X14985091Y13193125D01*
X14979636Y13196875*
X14968727*
X14963273Y13193125*
X14957818Y13185625*
X14955091Y13178125*
X14927818Y13136875D02*
Y13133125D01*
X14925091Y13125625*
X14922364Y13121875*
X14916909Y13118125*
X14906000*
X14900545Y13121875*
X14900545D02*
X14897818Y13125625D01*
X14895091Y13133125*
Y13140625*
X14897818Y13148125*
X14903273Y13159375*
X14930545Y13196875*
X14930545D02*
X14892364D01*
X14832364Y13118125D02*
X14859636D01*
X14862364Y13151875*
X14859636Y13148125*
X14851455Y13144375*
X14851455D02*
X14843273D01*
X14835091Y13148125*
X14829636Y13155625*
X14826909Y13166875*
X14829636Y13174375*
X14832364Y13185625*
X14837818Y13193125*
X14846000Y13196875*
X14854182*
X14862364Y13193125*
X14865091Y13189375*
X14867818Y13181875*
X18794909Y9703125D02*
X18792182Y9710625D01*
X18786727Y9718125*
X18781273Y9721875*
X18770364*
X18764909Y9718125*
X18759455Y9710625*
X18759455D02*
X18756727Y9703125D01*
X18754000Y9691875*
Y9673125*
X18756727Y9661875*
X18759455Y9654375*
X18759455D02*
X18764909Y9646875D01*
X18770364Y9643125*
X18781273*
X18786727Y9646875*
X18792182Y9654375*
X18794909Y9661875*
X18854909Y9721875D02*
X18827636D01*
X18824909Y9688125*
X18827636Y9691875*
X18835818Y9695625*
X18844000*
X18852182Y9691875*
X18857636Y9684375*
X18860364Y9673125*
X18857636Y9665625*
X18854909Y9654375*
X18849455Y9646875*
X18849455D02*
X18841273Y9643125D01*
X18833091*
X18824909Y9646875*
X18822182Y9650625*
X18819455Y9658125*
X18887636Y9703125D02*
Y9706875D01*
X18890364Y9714375*
X18893091Y9718125*
X18898545Y9721875*
X18898545D02*
X18909455D01*
X18909455D02*
X18914909Y9718125D01*
X18917636Y9714375*
X18920364Y9706875*
Y9699375*
X18917636Y9691875*
X18912182Y9680625*
X18884909Y9643125*
X18923091*
X16261455Y12566875D02*
X16264182Y12559375D01*
X16269636Y12551875*
X16275091Y12548125*
X16286000*
X16291455Y12551875*
X16291455D02*
X16296909Y12559375D01*
X16299636Y12566875*
X16302364Y12578125*
Y12596875*
X16299636Y12608125*
X16296909Y12615625*
X16291455Y12623125*
X16291455D02*
X16286000Y12626875D01*
X16275091*
X16269636Y12623125*
X16264182Y12615625*
X16261455Y12608125*
X16236909Y12563125D02*
X16231455Y12559375D01*
X16231455D02*
X16223273Y12548125D01*
Y12626875*
X16182364Y12548125D02*
X16190545Y12551875D01*
X16196000Y12563125*
X16198727Y12581875*
Y12593125*
X16196000Y12611875*
X16190545Y12623125*
X16182364Y12626875*
X16176909*
X16168727Y12623125*
X16163273Y12611875*
X16160545Y12593125*
Y12581875*
X16163273Y12563125*
X16168727Y12551875*
X16176909Y12548125*
X16182364*
X20386875Y13189909D02*
X20379375Y13187182D01*
X20371875Y13181727*
X20368125Y13176273*
Y13165364*
X20371875Y13159909*
X20379375Y13154455*
X20379375D02*
X20386875Y13151727D01*
X20398125Y13149000*
X20416875*
X20428125Y13151727*
X20435625Y13154455*
X20435625D02*
X20443125Y13159909D01*
X20446875Y13165364*
Y13176273*
X20443125Y13181727*
X20435625Y13187182*
X20428125Y13189909*
X20383125Y13214455D02*
X20379375Y13219909D01*
X20368125Y13228091*
X20446875*
X18807182Y9533125D02*
X18804455Y9540625D01*
X18804455D02*
X18799000Y9548125D01*
X18793545Y9551875*
X18793545D02*
X18782636D01*
X18777182Y9548125*
X18771727Y9540625*
X18769000Y9533125*
X18766273Y9521875*
Y9503125*
X18769000Y9491875*
X18771727Y9484375*
X18777182Y9476875*
X18782636Y9473125*
X18793545*
X18793545D02*
X18799000Y9476875D01*
X18804455Y9484375*
X18804455D02*
X18807182Y9491875D01*
X18867182Y9551875D02*
X18839909D01*
X18837182Y9518125*
X18839909Y9521875*
X18848091Y9525625*
X18856273*
X18864455Y9521875*
X18864455D02*
X18869909Y9514375D01*
X18872636Y9503125*
X18869909Y9495625*
X18867182Y9484375*
X18861727Y9476875*
X18853545Y9473125*
X18853545D02*
X18845364D01*
X18837182Y9476875*
X18834455Y9480625*
X18834455D02*
X18831727Y9488125D01*
X18897182Y9536875D02*
X18902636Y9540625D01*
X18910818Y9551875*
Y9473125*
X18793545Y9873125D02*
X18790818Y9880625D01*
X18785364Y9888125*
X18779909Y9891875*
X18769000*
X18763545Y9888125*
X18763545D02*
X18758091Y9880625D01*
X18755364Y9873125*
X18752636Y9861875*
Y9843125*
X18755364Y9831875*
X18758091Y9824375*
X18763545Y9816875*
X18763545D02*
X18769000Y9813125D01*
X18779909*
X18785364Y9816875*
X18790818Y9824375*
X18793545Y9831875*
X18853545Y9891875D02*
X18826273D01*
X18823545Y9858125*
X18823545D02*
X18826273Y9861875D01*
X18834455Y9865625*
X18842636*
X18850818Y9861875*
X18856273Y9854375*
X18859000Y9843125*
X18856273Y9835625*
X18853545Y9824375*
X18853545D02*
X18848091Y9816875D01*
X18839909Y9813125*
X18831727*
X18823545Y9816875*
X18823545D02*
X18820818Y9820625D01*
X18818091Y9828125*
X18910818Y9891875D02*
X18883545Y9839375D01*
X18883545D02*
X18924455D01*
X18910818Y9891875D02*
Y9813125D01*
X18144909Y10163125D02*
X18142182Y10170625D01*
X18136727Y10178125*
X18131273Y10181875*
X18120364*
X18114909Y10178125*
X18109455Y10170625*
X18109455D02*
X18106727Y10163125D01*
X18104000Y10151875*
Y10133125*
X18106727Y10121875*
X18109455Y10114375*
X18109455D02*
X18114909Y10106875D01*
X18120364Y10103125*
X18131273*
X18136727Y10106875*
X18142182Y10114375*
X18144909Y10121875*
X18204909Y10181875D02*
X18177636D01*
X18174909Y10148125*
X18177636Y10151875*
X18185818Y10155625*
X18194000*
X18202182Y10151875*
X18207636Y10144375*
X18210364Y10133125*
X18207636Y10125625*
X18204909Y10114375*
X18199455Y10106875*
X18199455D02*
X18191273Y10103125D01*
X18183091*
X18174909Y10106875*
X18172182Y10110625*
X18169455Y10118125*
X18240364Y10181875D02*
X18270364D01*
X18254000Y10151875*
X18262182*
X18267636Y10148125*
X18270364Y10144375*
X18273091Y10133125*
Y10125625*
X18270364Y10114375*
X18264909Y10106875*
X18256727Y10103125*
X18248545*
X18248545D02*
X18240364Y10106875D01*
X18237636Y10110625*
X18234909Y10118125*
X13326875Y10208545D02*
X13319375Y10205818D01*
X13311875Y10200364*
X13308125Y10194909*
Y10184000*
X13311875Y10178545*
X13311875D02*
X13319375Y10173091D01*
X13326875Y10170364*
X13338125Y10167636*
X13356875*
X13368125Y10170364*
X13375625Y10173091*
X13383125Y10178545*
X13383125D02*
X13386875Y10184000D01*
Y10194909*
X13383125Y10200364*
X13375625Y10205818*
X13368125Y10208545*
X13326875Y10235818D02*
X13323125D01*
X13315625Y10238545*
X13315625D02*
X13311875Y10241273D01*
X13308125Y10246727*
Y10257636*
X13311875Y10263091*
X13315625Y10265818*
X13323125Y10268545*
X13323125D02*
X13330625D01*
X13330625D02*
X13338125Y10265818D01*
X13349375Y10260364*
X13386875Y10233091*
Y10271273*
X13323125Y10295818D02*
X13319375Y10301273D01*
X13308125Y10309455*
X13386875*
X16572818Y11386875D02*
X16575545Y11379375D01*
X16575545D02*
X16581000Y11371875D01*
X16586455Y11368125*
X16586455D02*
X16597364D01*
X16602818Y11371875*
X16608273Y11379375*
X16611000Y11386875*
X16613727Y11398125*
Y11416875*
X16611000Y11428125*
X16608273Y11435625*
X16602818Y11443125*
X16597364Y11446875*
X16586455*
X16586455D02*
X16581000Y11443125D01*
X16575545Y11435625*
X16575545D02*
X16572818Y11428125D01*
X16548273Y11383125D02*
X16542818Y11379375D01*
X16534636Y11368125*
Y11446875*
X16474636Y11368125D02*
X16501909D01*
X16504636Y11401875*
X16501909Y11398125*
X16493727Y11394375*
X16485545*
X16485545D02*
X16477364Y11398125D01*
X16471909Y11405625*
X16469182Y11416875*
X16471909Y11424375*
X16474636Y11435625*
X16480091Y11443125*
X16488273Y11446875*
X16496455*
X16496455D02*
X16504636Y11443125D01*
X16507364Y11439375*
X16510091Y11431875*
X16260091Y12766875D02*
X16262818Y12759375D01*
X16268273Y12751875*
X16273727Y12748125*
X16284636*
X16290091Y12751875*
X16295545Y12759375*
X16295545D02*
X16298273Y12766875D01*
X16301000Y12778125*
Y12796875*
X16298273Y12808125*
X16295545Y12815625*
X16295545D02*
X16290091Y12823125D01*
X16284636Y12826875*
X16273727*
X16268273Y12823125*
X16262818Y12815625*
X16260091Y12808125*
X16235545Y12763125D02*
X16230091Y12759375D01*
X16221909Y12748125*
Y12826875*
X16164636Y12759375D02*
X16167364Y12751875D01*
X16175545Y12748125*
X16175545D02*
X16181000D01*
X16189182Y12751875*
X16194636Y12763125*
X16197364Y12781875*
Y12800625*
X16194636Y12815625*
X16189182Y12823125*
X16181000Y12826875*
X16178273*
X16170091Y12823125*
X16164636Y12815625*
X16161909Y12804375*
Y12800625*
X16164636Y12789375*
X16170091Y12781875*
X16178273Y12778125*
X16181000*
X16189182Y12781875*
X16194636Y12789375*
X16197364Y12800625*
X15696273Y10213125D02*
X15693545Y10220625D01*
X15693545D02*
X15688091Y10228125D01*
X15682636Y10231875*
X15671727*
X15666273Y10228125*
X15660818Y10220625*
X15658091Y10213125*
X15655364Y10201875*
Y10183125*
X15658091Y10171875*
X15660818Y10164375*
X15666273Y10156875*
X15671727Y10153125*
X15682636*
X15688091Y10156875*
X15693545Y10164375*
X15693545D02*
X15696273Y10171875D01*
X15726273Y10231875D02*
X15756273D01*
X15739909Y10201875*
X15748091*
X15753545Y10198125*
X15753545D02*
X15756273Y10194375D01*
X15759000Y10183125*
Y10175625*
X15756273Y10164375*
X15750818Y10156875*
X15742636Y10153125*
X15734455*
X15726273Y10156875*
X15723545Y10160625*
X15723545D02*
X15720818Y10168125D01*
X15789000Y10231875D02*
X15819000D01*
X15802636Y10201875*
X15810818*
X15816273Y10198125*
X15819000Y10194375*
X15821727Y10183125*
Y10175625*
X15819000Y10164375*
X15813545Y10156875*
X15813545D02*
X15805364Y10153125D01*
X15797182*
X15789000Y10156875*
X15786273Y10160625*
X15783545Y10168125*
X14905091Y9686875D02*
X14907818Y9679375D01*
X14913273Y9671875*
X14918727Y9668125*
X14929636*
X14935091Y9671875*
X14940545Y9679375*
X14940545D02*
X14943273Y9686875D01*
X14946000Y9698125*
Y9716875*
X14943273Y9728125*
X14940545Y9735625*
X14940545D02*
X14935091Y9743125D01*
X14929636Y9746875*
X14918727*
X14913273Y9743125*
X14907818Y9735625*
X14905091Y9728125*
X14875091Y9668125D02*
X14845091D01*
X14861455Y9698125*
X14861455D02*
X14853273D01*
X14847818Y9701875*
X14845091Y9705625*
X14842364Y9716875*
Y9724375*
X14845091Y9735625*
X14850545Y9743125*
X14850545D02*
X14858727Y9746875D01*
X14866909*
X14875091Y9743125*
X14877818Y9739375*
X14880545Y9731875*
X14790545Y9668125D02*
X14817818Y9720625D01*
X14776909*
X14790545Y9668125D02*
Y9746875D01*
X15694909Y9713125D02*
X15692182Y9720625D01*
X15686727Y9728125*
X15681273Y9731875*
X15670364*
X15664909Y9728125*
X15659455Y9720625*
X15659455D02*
X15656727Y9713125D01*
X15654000Y9701875*
Y9683125*
X15656727Y9671875*
X15659455Y9664375*
X15659455D02*
X15664909Y9656875D01*
X15670364Y9653125*
X15681273*
X15686727Y9656875*
X15692182Y9664375*
X15694909Y9671875*
X15724909Y9731875D02*
X15754909D01*
X15738545Y9701875*
X15738545D02*
X15746727D01*
X15752182Y9698125*
X15754909Y9694375*
X15757636Y9683125*
Y9675625*
X15754909Y9664375*
X15749455Y9656875*
X15749455D02*
X15741273Y9653125D01*
X15733091*
X15724909Y9656875*
X15722182Y9660625*
X15719455Y9668125*
X15817636Y9731875D02*
X15790364D01*
X15787636Y9698125*
X15790364Y9701875*
X15798545Y9705625*
X15798545D02*
X15806727D01*
X15814909Y9701875*
X15820364Y9694375*
X15823091Y9683125*
X15820364Y9675625*
X15817636Y9664375*
X15812182Y9656875*
X15804000Y9653125*
X15795818*
X15787636Y9656875*
X15784909Y9660625*
X15782182Y9668125*
X13836875Y13847636D02*
X13829375Y13844909D01*
X13821875Y13839455*
X13821875D02*
X13818125Y13834000D01*
Y13823091*
X13821875Y13817636*
X13829375Y13812182*
X13836875Y13809455*
X13836875D02*
X13848125Y13806727D01*
X13866875*
X13878125Y13809455*
X13878125D02*
X13885625Y13812182D01*
X13893125Y13817636*
X13896875Y13823091*
Y13834000*
X13893125Y13839455*
X13893125D02*
X13885625Y13844909D01*
X13878125Y13847636*
X13818125Y13877636D02*
Y13907636D01*
X13848125Y13891273*
Y13899455*
X13848125D02*
X13851875Y13904909D01*
X13855625Y13907636*
X13866875Y13910364*
X13874375*
X13885625Y13907636*
X13893125Y13902182*
X13896875Y13894000*
Y13885818*
X13893125Y13877636*
X13889375Y13874909*
X13881875Y13872182*
X13829375Y13967636D02*
X13821875Y13964909D01*
X13818125Y13956727*
Y13951273*
X13821875Y13943091*
X13833125Y13937636*
X13851875Y13934909*
X13870625*
X13885625Y13937636*
X13893125Y13943091*
X13896875Y13951273*
Y13954000*
X13893125Y13962182*
X13885625Y13967636*
X13874375Y13970364*
X13870625*
X13859375Y13967636*
X13851875Y13962182*
X13848125Y13954000*
Y13951273*
X13851875Y13943091*
X13859375Y13937636*
X13870625Y13934909*
X13863125Y13053727D02*
X13870625Y13056455D01*
X13870625D02*
X13878125Y13061909D01*
X13881875Y13067364*
Y13078273*
X13878125Y13083727*
X13870625Y13089182*
X13863125Y13091909*
X13851875Y13094636*
X13833125*
X13821875Y13091909*
X13814375Y13089182*
X13806875Y13083727*
X13803125Y13078273*
Y13067364*
X13806875Y13061909*
X13814375Y13056455*
X13814375D02*
X13821875Y13053727D01*
X13881875Y13023727D02*
Y12993727D01*
X13851875Y13010091*
Y13001909*
X13848125Y12996455*
X13848125D02*
X13844375Y12993727D01*
X13833125Y12991000*
X13825625*
X13814375Y12993727*
X13806875Y12999182*
X13803125Y13007364*
Y13015545*
X13806875Y13023727*
X13810625Y13026455*
X13810625D02*
X13818125Y13029182D01*
X13881875Y12928273D02*
X13803125Y12955545D01*
X13881875Y12966455D02*
Y12928273D01*
X14903727Y10186875D02*
X14906455Y10179375D01*
X14906455D02*
X14911909Y10171875D01*
X14917364Y10168125*
X14928273*
X14933727Y10171875*
X14939182Y10179375*
X14941909Y10186875*
X14944636Y10198125*
Y10216875*
X14941909Y10228125*
X14939182Y10235625*
X14933727Y10243125*
X14928273Y10246875*
X14917364*
X14911909Y10243125*
X14906455Y10235625*
X14906455D02*
X14903727Y10228125D01*
X14873727Y10168125D02*
X14843727D01*
X14860091Y10198125*
X14851909*
X14846455Y10201875*
X14846455D02*
X14843727Y10205625D01*
X14841000Y10216875*
Y10224375*
X14843727Y10235625*
X14849182Y10243125*
X14857364Y10246875*
X14865545*
X14873727Y10243125*
X14876455Y10239375*
X14876455D02*
X14879182Y10231875D01*
X14813727Y10186875D02*
Y10183125D01*
X14811000Y10175625*
X14808273Y10171875*
X14802818Y10168125*
X14791909*
X14786455Y10171875*
X14786455D02*
X14783727Y10175625D01*
X14781000Y10183125*
Y10190625*
X14783727Y10198125*
X14789182Y10209375*
X14816455Y10246875*
X14816455D02*
X14778273D01*
X14953727Y12536875D02*
X14956455Y12529375D01*
X14956455D02*
X14961909Y12521875D01*
X14967364Y12518125*
X14978273*
X14983727Y12521875*
X14989182Y12529375*
X14991909Y12536875*
X14994636Y12548125*
Y12566875*
X14991909Y12578125*
X14989182Y12585625*
X14983727Y12593125*
X14978273Y12596875*
X14967364*
X14961909Y12593125*
X14956455Y12585625*
X14956455D02*
X14953727Y12578125D01*
X14926455Y12536875D02*
Y12533125D01*
X14926455D02*
X14923727Y12525625D01*
X14921000Y12521875*
X14915545Y12518125*
X14904636*
X14899182Y12521875*
X14896455Y12525625*
X14896455D02*
X14893727Y12533125D01*
Y12540625*
X14896455Y12548125*
X14896455D02*
X14901909Y12559375D01*
X14929182Y12596875*
X14891000*
X14828273Y12518125D02*
X14855545Y12596875D01*
X14866455Y12518125D02*
X14828273D01*
X18146273Y10463125D02*
X18143545Y10470625D01*
X18143545D02*
X18138091Y10478125D01*
X18132636Y10481875*
X18121727*
X18116273Y10478125*
X18110818Y10470625*
X18108091Y10463125*
X18105364Y10451875*
Y10433125*
X18108091Y10421875*
X18110818Y10414375*
X18116273Y10406875*
X18121727Y10403125*
X18132636*
X18138091Y10406875*
X18143545Y10414375*
X18143545D02*
X18146273Y10421875D01*
X18206273Y10481875D02*
X18179000D01*
X18176273Y10448125*
X18179000Y10451875*
X18187182Y10455625*
X18195364*
X18203545Y10451875*
X18203545D02*
X18209000Y10444375D01*
X18211727Y10433125*
X18209000Y10425625*
X18206273Y10414375*
X18200818Y10406875*
X18192636Y10403125*
X18184455*
X18176273Y10406875*
X18173545Y10410625*
X18173545D02*
X18170818Y10418125D01*
X18269000Y10470625D02*
X18266273Y10478125D01*
X18258091Y10481875*
X18252636*
X18244455Y10478125*
X18239000Y10466875*
X18236273Y10448125*
Y10429375*
X18239000Y10414375*
X18244455Y10406875*
X18252636Y10403125*
X18255364*
X18263545Y10406875*
X18263545D02*
X18269000Y10414375D01*
X18271727Y10425625*
Y10429375*
X18269000Y10440625*
X18263545Y10448125*
X18263545D02*
X18255364Y10451875D01*
X18252636*
X18244455Y10448125*
X18239000Y10440625*
X18236273Y10429375*
X15552364Y13356875D02*
X15555091Y13349375D01*
X15560545Y13341875*
X15560545D02*
X15566000Y13338125D01*
X15576909*
X15582364Y13341875*
X15587818Y13349375*
X15590545Y13356875*
X15590545D02*
X15593273Y13368125D01*
Y13386875*
X15590545Y13398125*
X15590545D02*
X15587818Y13405625D01*
X15582364Y13413125*
X15576909Y13416875*
X15566000*
X15560545Y13413125*
X15560545D02*
X15555091Y13405625D01*
X15552364Y13398125*
X15525091Y13356875D02*
Y13353125D01*
X15522364Y13345625*
X15519636Y13341875*
X15514182Y13338125*
X15503273*
X15497818Y13341875*
X15495091Y13345625*
X15492364Y13353125*
Y13360625*
X15495091Y13368125*
X15500545Y13379375*
X15500545D02*
X15527818Y13416875D01*
X15489636*
X15432364Y13349375D02*
X15435091Y13341875D01*
X15443273Y13338125*
X15448727*
X15456909Y13341875*
X15462364Y13353125*
X15465091Y13371875*
Y13390625*
X15462364Y13405625*
X15456909Y13413125*
X15448727Y13416875*
X15446000*
X15437818Y13413125*
X15432364Y13405625*
X15429636Y13394375*
Y13390625*
X15432364Y13379375*
X15437818Y13371875*
X15446000Y13368125*
X15448727*
X15456909Y13371875*
X15462364Y13379375*
X15465091Y13390625*
X15696273Y10043125D02*
X15693545Y10050625D01*
X15693545D02*
X15688091Y10058125D01*
X15682636Y10061875*
X15671727*
X15666273Y10058125*
X15660818Y10050625*
X15658091Y10043125*
X15655364Y10031875*
Y10013125*
X15658091Y10001875*
X15660818Y9994375*
X15666273Y9986875*
X15671727Y9983125*
X15682636*
X15688091Y9986875*
X15693545Y9994375*
X15693545D02*
X15696273Y10001875D01*
X15723545Y10043125D02*
Y10046875D01*
X15723545D02*
X15726273Y10054375D01*
X15729000Y10058125*
X15734455Y10061875*
X15745364*
X15750818Y10058125*
X15753545Y10054375*
X15753545D02*
X15756273Y10046875D01*
Y10039375*
X15753545Y10031875*
X15753545D02*
X15748091Y10020625D01*
X15720818Y9983125*
X15759000*
X15797182Y10061875D02*
X15789000Y10058125D01*
X15786273Y10050625*
Y10043125*
X15789000Y10035625*
X15794455Y10031875*
X15805364Y10028125*
X15813545Y10024375*
X15813545D02*
X15819000Y10016875D01*
X15821727Y10009375*
Y9998125*
X15819000Y9990625*
X15816273Y9986875*
X15808091Y9983125*
X15797182*
X15789000Y9986875*
X15786273Y9990625*
X15783545Y9998125*
X15783545D02*
Y10009375D01*
X15783545D02*
X15786273Y10016875D01*
X15791727Y10024375*
X15799909Y10028125*
X15810818Y10031875*
X15816273Y10035625*
X15819000Y10043125*
Y10050625*
X15816273Y10058125*
X15808091Y10061875*
X15797182*
X14413125Y11173727D02*
X14420625Y11176455D01*
X14420625D02*
X14428125Y11181909D01*
X14431875Y11187364*
Y11198273*
X14428125Y11203727*
X14420625Y11209182*
X14413125Y11211909*
X14401875Y11214636*
X14383125*
X14371875Y11211909*
X14364375Y11209182*
X14356875Y11203727*
X14353125Y11198273*
Y11187364*
X14356875Y11181909*
X14364375Y11176455*
X14364375D02*
X14371875Y11173727D01*
X14431875Y11121909D02*
X14379375Y11149182D01*
Y11108273*
X14431875Y11121909D02*
X14353125D01*
X13676273Y10813125D02*
X13673545Y10820625D01*
X13673545D02*
X13668091Y10828125D01*
X13662636Y10831875*
X13651727*
X13646273Y10828125*
X13640818Y10820625*
X13638091Y10813125*
X13635364Y10801875*
Y10783125*
X13638091Y10771875*
X13640818Y10764375*
X13646273Y10756875*
X13651727Y10753125*
X13662636*
X13668091Y10756875*
X13673545Y10764375*
X13673545D02*
X13676273Y10771875D01*
X13736273Y10831875D02*
X13709000D01*
X13706273Y10798125*
X13709000Y10801875*
X13717182Y10805625*
X13725364*
X13733545Y10801875*
X13733545D02*
X13739000Y10794375D01*
X13741727Y10783125*
X13739000Y10775625*
X13736273Y10764375*
X13730818Y10756875*
X13722636Y10753125*
X13714455*
X13706273Y10756875*
X13703545Y10760625*
X13703545D02*
X13700818Y10768125D01*
X19467636Y13263125D02*
X19464909Y13270625D01*
X19459455Y13278125*
X19459455D02*
X19454000Y13281875D01*
X19443091*
X19437636Y13278125*
X19432182Y13270625*
X19429455Y13263125*
X19429455D02*
X19426727Y13251875D01*
Y13233125*
X19429455Y13221875*
X19429455D02*
X19432182Y13214375D01*
X19437636Y13206875*
X19443091Y13203125*
X19454000*
X19459455Y13206875*
X19459455D02*
X19464909Y13214375D01*
X19467636Y13221875*
X19530364Y13281875D02*
X19503091Y13203125D01*
X19492182Y13281875D02*
X19530364D01*
X19836875Y10197636D02*
X19829375Y10194909D01*
X19821875Y10189455*
X19821875D02*
X19818125Y10184000D01*
Y10173091*
X19821875Y10167636*
X19829375Y10162182*
X19836875Y10159455*
X19836875D02*
X19848125Y10156727D01*
X19866875*
X19878125Y10159455*
X19878125D02*
X19885625Y10162182D01*
X19893125Y10167636*
X19896875Y10173091*
Y10184000*
X19893125Y10189455*
X19893125D02*
X19885625Y10194909D01*
X19878125Y10197636*
X19818125Y10227636D02*
Y10257636D01*
X19848125Y10241273*
Y10249455*
X19848125D02*
X19851875Y10254909D01*
X19855625Y10257636*
X19866875Y10260364*
X19874375*
X19885625Y10257636*
X19893125Y10252182*
X19896875Y10244000*
Y10235818*
X19893125Y10227636*
X19889375Y10224909*
X19881875Y10222182*
X19844375Y10320364D02*
X19855625Y10317636D01*
X19863125Y10312182*
X19866875Y10304000*
Y10301273*
X19863125Y10293091*
X19855625Y10287636*
X19844375Y10284909*
X19840625*
X19829375Y10287636*
X19821875Y10293091*
X19818125Y10301273*
Y10304000*
X19821875Y10312182*
X19829375Y10317636*
X19844375Y10320364*
X19863125*
X19881875Y10317636*
X19893125Y10312182*
X19896875Y10304000*
Y10298545*
X19896875D02*
X19893125Y10290364D01*
X19885625Y10287636*
X19286875Y9494909D02*
X19279375Y9492182D01*
X19271875Y9486727*
X19268125Y9481273*
Y9470364*
X19271875Y9464909*
X19279375Y9459455*
X19279375D02*
X19286875Y9456727D01*
X19298125Y9454000*
X19316875*
X19328125Y9456727*
X19335625Y9459455*
X19335625D02*
X19343125Y9464909D01*
X19346875Y9470364*
Y9481273*
X19343125Y9486727*
X19335625Y9492182*
X19328125Y9494909*
X19268125Y9546727D02*
X19320625Y9519455D01*
X19320625D02*
Y9560364D01*
X19268125Y9546727D02*
X19346875D01*
X19268125Y9601273D02*
X19271875Y9593091D01*
X19283125Y9587636*
X19301875Y9584909*
X19313125*
X19331875Y9587636*
X19343125Y9593091*
X19346875Y9601273*
Y9606727*
X19343125Y9614909*
X19331875Y9620364*
X19313125Y9623091*
X19301875*
X19283125Y9620364*
X19271875Y9614909*
X19268125Y9606727*
Y9601273*
X18636875Y10344909D02*
X18629375Y10342182D01*
X18621875Y10336727*
X18618125Y10331273*
Y10320364*
X18621875Y10314909*
X18629375Y10309455*
X18629375D02*
X18636875Y10306727D01*
X18648125Y10304000*
X18666875*
X18678125Y10306727*
X18685625Y10309455*
X18685625D02*
X18693125Y10314909D01*
X18696875Y10320364*
Y10331273*
X18693125Y10336727*
X18685625Y10342182*
X18678125Y10344909*
X18618125Y10396727D02*
X18670625Y10369455D01*
X18670625D02*
Y10410364D01*
X18618125Y10396727D02*
X18696875D01*
X18618125Y10440364D02*
Y10470364D01*
X18648125Y10454000*
Y10462182*
X18651875Y10467636*
X18655625Y10470364*
X18666875Y10473091*
X18674375*
X18685625Y10470364*
X18693125Y10464909*
X18696875Y10456727*
Y10448545*
X18696875D02*
X18693125Y10440364D01*
X18689375Y10437636*
X18681875Y10434909*
X19836875Y9493545D02*
X19829375Y9490818D01*
X19821875Y9485364*
X19818125Y9479909*
Y9469000*
X19821875Y9463545*
X19821875D02*
X19829375Y9458091D01*
X19836875Y9455364*
X19848125Y9452636*
X19866875*
X19878125Y9455364*
X19885625Y9458091*
X19893125Y9463545*
X19893125D02*
X19896875Y9469000D01*
Y9479909*
X19893125Y9485364*
X19885625Y9490818*
X19878125Y9493545*
X19818125Y9545364D02*
X19870625Y9518091D01*
Y9559000*
X19818125Y9545364D02*
X19896875D01*
X19818125Y9610818D02*
X19870625Y9583545D01*
X19870625D02*
Y9624455D01*
X19818125Y9610818D02*
X19896875D01*
X18793545Y9193125D02*
X18790818Y9200625D01*
X18785364Y9208125*
X18779909Y9211875*
X18769000*
X18763545Y9208125*
X18763545D02*
X18758091Y9200625D01*
X18755364Y9193125*
X18752636Y9181875*
Y9163125*
X18755364Y9151875*
X18758091Y9144375*
X18763545Y9136875*
X18763545D02*
X18769000Y9133125D01*
X18779909*
X18785364Y9136875*
X18790818Y9144375*
X18793545Y9151875*
X18845364Y9211875D02*
X18818091Y9159375D01*
X18859000*
X18845364Y9211875D02*
Y9133125D01*
X18919000Y9211875D02*
X18891727D01*
X18889000Y9178125*
X18891727Y9181875*
X18899909Y9185625*
X18908091*
X18916273Y9181875*
X18921727Y9174375*
X18924455Y9163125*
X18921727Y9155625*
X18919000Y9144375*
X18913545Y9136875*
X18913545D02*
X18905364Y9133125D01*
X18897182*
X18889000Y9136875*
X18886273Y9140625*
X18883545Y9148125*
X18796273Y9363125D02*
X18793545Y9370625D01*
X18793545D02*
X18788091Y9378125D01*
X18782636Y9381875*
X18771727*
X18766273Y9378125*
X18760818Y9370625*
X18758091Y9363125*
X18755364Y9351875*
Y9333125*
X18758091Y9321875*
X18760818Y9314375*
X18766273Y9306875*
X18771727Y9303125*
X18782636*
X18788091Y9306875*
X18793545Y9314375*
X18793545D02*
X18796273Y9321875D01*
X18848091Y9381875D02*
X18820818Y9329375D01*
X18861727*
X18848091Y9381875D02*
Y9303125D01*
X18919000Y9370625D02*
X18916273Y9378125D01*
X18908091Y9381875*
X18902636*
X18894455Y9378125*
X18889000Y9366875*
X18886273Y9348125*
Y9329375*
X18889000Y9314375*
X18894455Y9306875*
X18902636Y9303125*
X18905364*
X18913545Y9306875*
X18913545D02*
X18919000Y9314375D01*
X18921727Y9325625*
Y9329375*
X18919000Y9340625*
X18913545Y9348125*
X18913545D02*
X18905364Y9351875D01*
X18902636*
X18894455Y9348125*
X18889000Y9340625*
X18886273Y9329375*
X18144909Y10613125D02*
X18142182Y10620625D01*
X18136727Y10628125*
X18131273Y10631875*
X18120364*
X18114909Y10628125*
X18109455Y10620625*
X18109455D02*
X18106727Y10613125D01*
X18104000Y10601875*
Y10583125*
X18106727Y10571875*
X18109455Y10564375*
X18109455D02*
X18114909Y10556875D01*
X18120364Y10553125*
X18131273*
X18136727Y10556875*
X18142182Y10564375*
X18144909Y10571875*
X18196727Y10631875D02*
X18169455Y10579375D01*
X18169455D02*
X18210364D01*
X18196727Y10631875D02*
Y10553125D01*
X18273091Y10631875D02*
X18245818Y10553125D01*
X18234909Y10631875D02*
X18273091D01*
X14931875Y12913273D02*
X14875625D01*
X14864375Y12910545*
X14864375D02*
X14856875Y12905091D01*
X14853125Y12896909*
Y12891455*
X14853125D02*
X14856875Y12883273D01*
X14864375Y12877818*
X14875625Y12875091*
X14931875*
Y12815091D02*
Y12842364D01*
X14898125Y12845091*
X14901875Y12842364*
X14905625Y12834182*
Y12826000*
X14901875Y12817818*
X14894375Y12812364*
X14883125Y12809636*
X14875625Y12812364*
X14864375Y12815091*
X14856875Y12820545*
X14856875D02*
X14853125Y12828727D01*
Y12836909*
X14856875Y12845091*
X14860625Y12847818*
X14868125Y12850545*
X17717636Y10281875D02*
Y10225625D01*
X17720364Y10214375*
X17725818Y10206875*
X17734000Y10203125*
X17739455*
X17747636Y10206875*
X17753091Y10214375*
X17755818Y10225625*
Y10281875*
X17780364Y10266875D02*
X17785818Y10270625D01*
X17794000Y10281875*
Y10203125*
X17845818Y10281875D02*
X17818545Y10229375D01*
X17818545D02*
X17859455D01*
X17845818Y10281875D02*
Y10203125D01*
X14168125Y13450364D02*
X14246875Y13488545D01*
X14168125D02*
X14246875Y13450364D01*
X14183125Y13513091D02*
X14179375Y13518545D01*
X14179375D02*
X14168125Y13526727D01*
X14246875*
X15238091Y9381875D02*
X15276273Y9303125D01*
Y9381875D02*
X15238091Y9303125D01*
X15303545Y9363125D02*
Y9366875D01*
X15303545D02*
X15306273Y9374375D01*
X15309000Y9378125*
X15314455Y9381875*
X15325364*
X15330818Y9378125*
X15333545Y9374375*
X15333545D02*
X15336273Y9366875D01*
Y9359375*
X15333545Y9351875*
X15333545D02*
X15328091Y9340625D01*
X15300818Y9303125*
X15339000*
X15238091Y10581875D02*
X15276273Y10503125D01*
Y10581875D02*
X15238091Y10503125D01*
X15306273Y10581875D02*
X15336273D01*
X15319909Y10551875*
X15328091*
X15333545Y10548125*
X15333545D02*
X15336273Y10544375D01*
X15339000Y10533125*
Y10525625*
X15336273Y10514375*
X15330818Y10506875*
X15322636Y10503125*
X15314455*
X15306273Y10506875*
X15303545Y10510625*
X15303545D02*
X15300818Y10518125D01*
X14414000Y9531875D02*
X14408545Y9528125D01*
X14408545D02*
X14403091Y9520625D01*
X14400364Y9513125*
X14397636Y9501875*
Y9483125*
X14400364Y9471875*
X14403091Y9464375*
X14408545Y9456875*
X14408545D02*
X14414000Y9453125D01*
X14424909*
X14430364Y9456875*
X14435818Y9464375*
X14438545Y9471875*
X14438545D02*
X14441273Y9483125D01*
Y9501875*
X14438545Y9513125*
X14438545D02*
X14435818Y9520625D01*
X14430364Y9528125*
X14424909Y9531875*
X14414000*
X14422182Y9468125D02*
X14438545Y9445625D01*
X14465818Y9516875D02*
X14471273Y9520625D01*
X14479455Y9531875*
Y9453125*
X14401727Y10331875D02*
X14396273Y10328125D01*
X14390818Y10320625*
X14388091Y10313125*
X14385364Y10301875*
Y10283125*
X14388091Y10271875*
X14390818Y10264375*
X14396273Y10256875*
X14401727Y10253125*
X14412636*
X14418091Y10256875*
X14423545Y10264375*
X14423545D02*
X14426273Y10271875D01*
X14429000Y10283125*
Y10301875*
X14426273Y10313125*
X14423545Y10320625*
X14423545D02*
X14418091Y10328125D01*
X14412636Y10331875*
X14401727*
X14409909Y10268125D02*
X14426273Y10245625D01*
X14456273Y10313125D02*
Y10316875D01*
X14459000Y10324375*
X14461727Y10328125*
X14467182Y10331875*
X14478091*
X14483545Y10328125*
X14483545D02*
X14486273Y10324375D01*
X14489000Y10316875*
Y10309375*
X14486273Y10301875*
X14480818Y10290625*
X14453545Y10253125*
X14453545D02*
X14491727D01*
X14401727Y9931875D02*
X14396273Y9928125D01*
X14390818Y9920625*
X14388091Y9913125*
X14385364Y9901875*
Y9883125*
X14388091Y9871875*
X14390818Y9864375*
X14396273Y9856875*
X14401727Y9853125*
X14412636*
X14418091Y9856875*
X14423545Y9864375*
X14423545D02*
X14426273Y9871875D01*
X14429000Y9883125*
Y9901875*
X14426273Y9913125*
X14423545Y9920625*
X14423545D02*
X14418091Y9928125D01*
X14412636Y9931875*
X14401727*
X14409909Y9868125D02*
X14426273Y9845625D01*
X14459000Y9931875D02*
X14489000D01*
X14472636Y9901875*
X14480818*
X14486273Y9898125*
X14489000Y9894375*
X14491727Y9883125*
Y9875625*
X14489000Y9864375*
X14483545Y9856875*
X14483545D02*
X14475364Y9853125D01*
X14467182*
X14459000Y9856875*
X14456273Y9860625*
X14453545Y9868125*
X16150364Y10381875D02*
Y10325625D01*
X16153091Y10314375*
X16158545Y10306875*
X16158545D02*
X16166727Y10303125D01*
X16172182*
X16180364Y10306875*
X16185818Y10314375*
X16188545Y10325625*
X16188545D02*
Y10381875D01*
X16213091Y10366875D02*
X16218545Y10370625D01*
X16218545D02*
X16226727Y10381875D01*
Y10303125*
X16131273Y9981875D02*
Y9925625D01*
X16134000Y9914375*
X16139455Y9906875*
X16139455D02*
X16147636Y9903125D01*
X16153091*
X16161273Y9906875*
X16166727Y9914375*
X16169455Y9925625*
X16169455D02*
Y9981875D01*
X16194000Y9966875D02*
X16199455Y9970625D01*
X16199455D02*
X16207636Y9981875D01*
Y9903125*
X16232182Y9966875D02*
X16237636Y9970625D01*
X16245818Y9981875*
Y9903125*
X16119000Y9581875D02*
Y9525625D01*
X16121727Y9514375*
X16127182Y9506875*
X16135364Y9503125*
X16140818*
X16149000Y9506875*
X16154455Y9514375*
X16154455D02*
X16157182Y9525625D01*
Y9581875*
X16181727Y9566875D02*
X16187182Y9570625D01*
X16195364Y9581875*
Y9503125*
X16222636Y9563125D02*
Y9566875D01*
X16225364Y9574375*
X16228091Y9578125*
X16233545Y9581875*
X16233545D02*
X16244455D01*
X16244455D02*
X16249909Y9578125D01*
X16252636Y9574375*
X16255364Y9566875*
Y9559375*
X16252636Y9551875*
X16247182Y9540625*
X16219909Y9503125*
X16258091*
X14938091Y12131875D02*
Y12075625D01*
X14940818Y12064375*
X14946273Y12056875*
X14954455Y12053125*
X14959909*
X14968091Y12056875*
X14973545Y12064375*
X14973545D02*
X14976273Y12075625D01*
Y12131875*
X15003545Y12113125D02*
Y12116875D01*
X15003545D02*
X15006273Y12124375D01*
X15009000Y12128125*
X15014455Y12131875*
X15025364*
X15030818Y12128125*
X15033545Y12124375*
X15033545D02*
X15036273Y12116875D01*
Y12109375*
X15033545Y12101875*
X15033545D02*
X15028091Y12090625D01*
X15000818Y12053125*
X15039000*
X13518125Y13239455D02*
X13574375D01*
X13574375D02*
X13585625Y13242182D01*
X13593125Y13247636*
X13596875Y13255818*
Y13261273*
X13593125Y13269455*
X13593125D02*
X13585625Y13274909D01*
X13574375Y13277636*
X13518125*
X13544375Y13337636D02*
X13555625Y13334909D01*
X13563125Y13329455*
X13563125D02*
X13566875Y13321273D01*
Y13318545*
X13566875D02*
X13563125Y13310364D01*
X13555625Y13304909*
X13544375Y13302182*
X13540625*
X13529375Y13304909*
X13521875Y13310364*
X13518125Y13318545*
X13518125D02*
Y13321273D01*
X13521875Y13329455*
X13521875D02*
X13529375Y13334909D01*
X13544375Y13337636*
X13563125*
X13581875Y13334909*
X13593125Y13329455*
X13593125D02*
X13596875Y13321273D01*
Y13315818*
X13593125Y13307636*
X13585625Y13304909*
X18069000Y9631875D02*
Y9575625D01*
X18071727Y9564375*
X18077182Y9556875*
X18085364Y9553125*
X18090818*
X18099000Y9556875*
X18104455Y9564375*
X18104455D02*
X18107182Y9575625D01*
Y9631875*
X18131727Y9616875D02*
X18137182Y9620625D01*
X18145364Y9631875*
Y9553125*
X18175364Y9631875D02*
X18205364D01*
X18189000Y9601875*
X18197182*
X18202636Y9598125*
X18205364Y9594375*
X18208091Y9583125*
Y9575625*
X18205364Y9564375*
X18199909Y9556875*
X18191727Y9553125*
X18183545*
X18183545D02*
X18175364Y9556875D01*
X18172636Y9560625*
X18169909Y9568125*
X15219000Y9981875D02*
Y9925625D01*
X15221727Y9914375*
X15227182Y9906875*
X15235364Y9903125*
X15240818*
X15249000Y9906875*
X15254455Y9914375*
X15254455D02*
X15257182Y9925625D01*
Y9981875*
X15281727Y9966875D02*
X15287182Y9970625D01*
X15295364Y9981875*
Y9903125*
X15336273Y9981875D02*
X15328091Y9978125D01*
X15322636Y9966875*
X15319909Y9948125*
Y9936875*
X15322636Y9918125*
X15328091Y9906875*
X15336273Y9903125*
X15341727*
X15349909Y9906875*
X15355364Y9918125*
X15358091Y9936875*
Y9948125*
X15355364Y9966875*
X15349909Y9978125*
X15341727Y9981875*
X15336273*
X20517636Y9331875D02*
Y9253125D01*
Y9331875D02*
X20553091D01*
X20517636Y9294375D02*
X20539455D01*
X20577636Y9331875D02*
Y9253125D01*
Y9331875D02*
X20599455Y9253125D01*
X20621273Y9331875D02*
X20599455Y9253125D01*
X20621273Y9331875D02*
Y9253125D01*
X20645818Y9316875D02*
X20651273Y9320625D01*
X20659455Y9331875*
Y9253125*
X13305364Y12831875D02*
Y12753125D01*
Y12831875D02*
X13340818D01*
X13305364Y12794375D02*
X13327182D01*
X13365364Y12831875D02*
Y12753125D01*
Y12831875D02*
X13387182Y12753125D01*
X13409000Y12831875D02*
X13387182Y12753125D01*
X13409000Y12831875D02*
Y12753125D01*
X13436273Y12813125D02*
Y12816875D01*
X13439000Y12824375*
X13441727Y12828125*
X13447182Y12831875*
X13458091*
X13463545Y12828125*
X13463545D02*
X13466273Y12824375D01*
X13469000Y12816875*
Y12809375*
X13466273Y12801875*
X13460818Y12790625*
X13433545Y12753125*
X13433545D02*
X13471727D01*
X20505364Y14131875D02*
Y14053125D01*
Y14131875D02*
X20540818D01*
X20505364Y14094375D02*
X20527182D01*
X20565364Y14131875D02*
Y14053125D01*
Y14131875D02*
X20587182Y14053125D01*
X20609000Y14131875D02*
X20587182Y14053125D01*
X20609000Y14131875D02*
Y14053125D01*
X20639000Y14131875D02*
X20669000D01*
X20652636Y14101875*
X20660818*
X20666273Y14098125*
X20669000Y14094375*
X20671727Y14083125*
Y14075625*
X20669000Y14064375*
X20663545Y14056875*
X20663545D02*
X20655364Y14053125D01*
X20647182*
X20639000Y14056875*
X20636273Y14060625*
X20633545Y14068125*
X18440545Y12048125D02*
Y12126875D01*
Y12048125D02*
X18416000D01*
X18407818Y12051875*
X18405091Y12055625*
X18402364Y12063125*
Y12070625*
X18405091Y12078125*
X18407818Y12081875*
X18416000Y12085625*
X18440545*
X18421455D02*
X18402364Y12126875D01*
X18342364Y12074375D02*
X18345091Y12085625D01*
X18350545Y12093125*
X18350545D02*
X18358727Y12096875D01*
X18361455*
X18361455D02*
X18369636Y12093125D01*
X18375091Y12085625*
X18377818Y12074375*
Y12070625*
X18375091Y12059375*
X18369636Y12051875*
X18361455Y12048125*
X18361455D02*
X18358727D01*
X18350545Y12051875*
X18350545D02*
X18345091Y12059375D01*
X18342364Y12074375*
Y12093125*
X18345091Y12111875*
X18350545Y12123125*
X18350545D02*
X18358727Y12126875D01*
X18364182*
X18372364Y12123125*
X18375091Y12115625*
X14419000Y12281875D02*
Y12203125D01*
Y12281875D02*
X14443545D01*
X14443545D02*
X14451727Y12278125D01*
X14454455Y12274375*
X14454455D02*
X14457182Y12266875D01*
Y12259375*
X14454455Y12251875*
X14454455D02*
X14451727Y12248125D01*
X14443545Y12244375*
X14443545D02*
X14419000D01*
X14438091D02*
X14457182Y12203125D01*
X14481727Y12266875D02*
X14487182Y12270625D01*
X14495364Y12281875*
Y12203125*
X14536273Y12281875D02*
X14528091Y12278125D01*
X14522636Y12266875*
X14519909Y12248125*
Y12236875*
X14522636Y12218125*
X14528091Y12206875*
X14536273Y12203125*
X14541727*
X14549909Y12206875*
X14555364Y12218125*
X14558091Y12236875*
Y12248125*
X14555364Y12266875*
X14549909Y12278125*
X14541727Y12281875*
X14536273*
X20667636Y11031875D02*
Y10953125D01*
Y11031875D02*
X20692182D01*
X20700364Y11028125*
X20703091Y11024375*
X20705818Y11016875*
Y11009375*
X20703091Y11001875*
X20700364Y10998125*
X20692182Y10994375*
X20667636*
X20686727D02*
X20705818Y10953125D01*
X20757636Y11031875D02*
X20730364Y10979375D01*
X20771273*
X20757636Y11031875D02*
Y10953125D01*
X20795818Y11016875D02*
X20801273Y11020625D01*
X20809455Y11031875*
Y10953125*
X20655364Y11231875D02*
Y11153125D01*
Y11231875D02*
X20679909D01*
X20688091Y11228125*
X20690818Y11224375*
X20693545Y11216875*
X20693545D02*
Y11209375D01*
X20693545D02*
X20690818Y11201875D01*
X20688091Y11198125*
X20679909Y11194375*
X20655364*
X20674455D02*
X20693545Y11153125D01*
X20745364Y11231875D02*
X20718091Y11179375D01*
X20759000*
X20745364Y11231875D02*
Y11153125D01*
X20786273Y11213125D02*
Y11216875D01*
X20789000Y11224375*
X20791727Y11228125*
X20797182Y11231875*
X20808091*
X20813545Y11228125*
X20813545D02*
X20816273Y11224375D01*
X20819000Y11216875*
Y11209375*
X20816273Y11201875*
X20810818Y11190625*
X20783545Y11153125*
X20783545D02*
X20821727D01*
X14768727Y11418125D02*
Y11496875D01*
Y11418125D02*
X14744182D01*
X14736000Y11421875*
X14733273Y11425625*
X14730545Y11433125*
X14730545D02*
Y11440625D01*
X14730545D02*
X14733273Y11448125D01*
X14736000Y11451875*
X14744182Y11455625*
X14768727*
X14749636D02*
X14730545Y11496875D01*
X14706000Y11433125D02*
X14700545Y11429375D01*
X14700545D02*
X14692364Y11418125D01*
Y11496875*
X14667818Y11433125D02*
X14662364Y11429375D01*
X14654182Y11418125*
Y11496875*
X20305364Y11231875D02*
Y11153125D01*
Y11231875D02*
X20329909D01*
X20338091Y11228125*
X20340818Y11224375*
X20343545Y11216875*
X20343545D02*
Y11209375D01*
X20343545D02*
X20340818Y11201875D01*
X20338091Y11198125*
X20329909Y11194375*
X20305364*
X20324455D02*
X20343545Y11153125D01*
X20373545Y11231875D02*
X20403545D01*
X20403545D02*
X20387182Y11201875D01*
X20395364*
X20400818Y11198125*
X20403545Y11194375*
X20403545D02*
X20406273Y11183125D01*
Y11175625*
X20403545Y11164375*
X20403545D02*
X20398091Y11156875D01*
X20389909Y11153125*
X20381727*
X20373545Y11156875*
X20373545D02*
X20370818Y11160625D01*
X20368091Y11168125*
X20466273Y11231875D02*
X20439000D01*
X20436273Y11198125*
X20439000Y11201875*
X20447182Y11205625*
X20455364*
X20463545Y11201875*
X20463545D02*
X20469000Y11194375D01*
X20471727Y11183125*
X20469000Y11175625*
X20466273Y11164375*
X20460818Y11156875*
X20452636Y11153125*
X20444455*
X20436273Y11156875*
X20433545Y11160625*
X20433545D02*
X20430818Y11168125D01*
X20308091Y11031875D02*
Y10953125D01*
Y11031875D02*
X20332636D01*
X20340818Y11028125*
X20343545Y11024375*
X20343545D02*
X20346273Y11016875D01*
Y11009375*
X20343545Y11001875*
X20343545D02*
X20340818Y10998125D01*
X20332636Y10994375*
X20308091*
X20327182D02*
X20346273Y10953125D01*
X20376273Y11031875D02*
X20406273D01*
X20389909Y11001875*
X20398091*
X20403545Y10998125*
X20403545D02*
X20406273Y10994375D01*
X20409000Y10983125*
Y10975625*
X20406273Y10964375*
X20400818Y10956875*
X20392636Y10953125*
X20384455*
X20376273Y10956875*
X20373545Y10960625*
X20373545D02*
X20370818Y10968125D01*
X20466273Y11020625D02*
X20463545Y11028125D01*
X20463545D02*
X20455364Y11031875D01*
X20449909*
X20441727Y11028125*
X20436273Y11016875*
X20433545Y10998125*
X20433545D02*
Y10979375D01*
X20433545D02*
X20436273Y10964375D01*
X20441727Y10956875*
X20449909Y10953125*
X20452636*
X20460818Y10956875*
X20466273Y10964375*
X20469000Y10975625*
Y10979375*
X20466273Y10990625*
X20460818Y10998125*
X20452636Y11001875*
X20449909*
X20441727Y10998125*
X20436273Y10990625*
X20433545Y10979375*
X18357636Y12393125D02*
X18354909Y12400625D01*
X18349455Y12408125*
X18349455D02*
X18344000Y12411875D01*
X18333091*
X18327636Y12408125*
X18322182Y12400625*
X18319455Y12393125*
X18319455D02*
X18316727Y12381875D01*
Y12363125*
X18319455Y12351875*
X18319455D02*
X18322182Y12344375D01*
X18327636Y12336875*
X18333091Y12333125*
X18344000*
X18349455Y12336875*
X18349455D02*
X18354909Y12344375D01*
X18357636Y12351875*
X18387636Y12411875D02*
X18417636D01*
X18401273Y12381875*
X18409455*
X18409455D02*
X18414909Y12378125D01*
X18417636Y12374375*
X18420364Y12363125*
Y12355625*
X18417636Y12344375*
X18412182Y12336875*
X18404000Y12333125*
X18395818*
X18387636Y12336875*
X18384909Y12340625*
X18382182Y12348125*
X19836875Y11607182D02*
X19829375Y11604455D01*
X19829375D02*
X19821875Y11599000D01*
X19818125Y11593545*
X19818125D02*
Y11582636D01*
X19821875Y11577182*
X19829375Y11571727*
X19836875Y11569000*
X19848125Y11566273*
X19866875*
X19878125Y11569000*
X19885625Y11571727*
X19893125Y11577182*
X19896875Y11582636*
Y11593545*
X19896875D02*
X19893125Y11599000D01*
X19885625Y11604455*
X19885625D02*
X19878125Y11607182D01*
X19818125Y11659000D02*
X19870625Y11631727D01*
Y11672636*
X19818125Y11659000D02*
X19896875D01*
X19833125Y11697182D02*
X19829375Y11702636D01*
X19818125Y11710818*
X19896875*
X19836875Y10894909D02*
X19829375Y10892182D01*
X19821875Y10886727*
X19818125Y10881273*
Y10870364*
X19821875Y10864909*
X19829375Y10859455*
X19829375D02*
X19836875Y10856727D01*
X19848125Y10854000*
X19866875*
X19878125Y10856727*
X19885625Y10859455*
X19885625D02*
X19893125Y10864909D01*
X19896875Y10870364*
Y10881273*
X19893125Y10886727*
X19885625Y10892182*
X19878125Y10894909*
X19818125Y10946727D02*
X19870625Y10919455D01*
X19870625D02*
Y10960364D01*
X19818125Y10946727D02*
X19896875D01*
X19836875Y10987636D02*
X19833125D01*
X19825625Y10990364*
X19821875Y10993091*
X19818125Y10998545*
X19818125D02*
Y11009455D01*
X19818125D02*
X19821875Y11014909D01*
X19825625Y11017636*
X19833125Y11020364*
X19840625*
X19848125Y11017636*
X19859375Y11012182*
X19896875Y10984909*
Y11023091*
X19236875Y10294909D02*
X19229375Y10292182D01*
X19221875Y10286727*
X19218125Y10281273*
Y10270364*
X19221875Y10264909*
X19229375Y10259455*
X19229375D02*
X19236875Y10256727D01*
X19248125Y10254000*
X19266875*
X19278125Y10256727*
X19285625Y10259455*
X19285625D02*
X19293125Y10264909D01*
X19296875Y10270364*
Y10281273*
X19293125Y10286727*
X19285625Y10292182*
X19278125Y10294909*
X19218125Y10346727D02*
X19270625Y10319455D01*
X19270625D02*
Y10360364D01*
X19218125Y10346727D02*
X19296875D01*
X19218125Y10398545D02*
X19221875Y10390364D01*
X19229375Y10387636*
X19236875*
X19244375Y10390364*
X19248125Y10395818*
X19251875Y10406727*
X19255625Y10414909*
X19263125Y10420364*
X19270625Y10423091*
X19281875*
X19289375Y10420364*
X19293125Y10417636*
X19296875Y10409455*
X19296875D02*
Y10398545D01*
X19296875D02*
X19293125Y10390364D01*
X19289375Y10387636*
X19281875Y10384909*
X19270625*
X19263125Y10387636*
X19255625Y10393091*
X19251875Y10401273*
X19248125Y10412182*
X19244375Y10417636*
X19236875Y10420364*
X19229375*
X19221875Y10417636*
X19218125Y10409455*
X19218125D02*
Y10398545D01*
X17853727Y10536875D02*
X17856455Y10529375D01*
X17856455D02*
X17861909Y10521875D01*
X17867364Y10518125*
X17878273*
X17883727Y10521875*
X17889182Y10529375*
X17891909Y10536875*
X17894636Y10548125*
Y10566875*
X17891909Y10578125*
X17889182Y10585625*
X17883727Y10593125*
X17878273Y10596875*
X17867364*
X17861909Y10593125*
X17856455Y10585625*
X17856455D02*
X17853727Y10578125D01*
X17823727Y10518125D02*
X17793727D01*
X17810091Y10548125*
X17801909*
X17796455Y10551875*
X17796455D02*
X17793727Y10555625D01*
X17791000Y10566875*
Y10574375*
X17793727Y10585625*
X17799182Y10593125*
X17807364Y10596875*
X17815545*
X17823727Y10593125*
X17826455Y10589375*
X17826455D02*
X17829182Y10581875D01*
X17752818Y10518125D02*
X17761000Y10521875D01*
X17763727Y10529375*
Y10536875*
X17761000Y10544375*
X17755545Y10548125*
X17744636Y10551875*
X17736455Y10555625*
X17736455D02*
X17731000Y10563125D01*
X17728273Y10570625*
Y10581875*
X17731000Y10589375*
X17733727Y10593125*
X17741909Y10596875*
X17752818*
X17761000Y10593125*
X17763727Y10589375*
X17766455Y10581875*
X17766455D02*
Y10570625D01*
X17766455D02*
X17763727Y10563125D01*
X17758273Y10555625*
X17750091Y10551875*
X17739182Y10548125*
X17733727Y10544375*
X17731000Y10536875*
Y10529375*
X17733727Y10521875*
X17741909Y10518125*
X17752818*
X13708125Y9986727D02*
X13764375D01*
X13775625Y9989455*
X13775625D02*
X13783125Y9994909D01*
X13786875Y10003091*
Y10008545*
X13786875D02*
X13783125Y10016727D01*
X13775625Y10022182*
X13764375Y10024909*
X13708125*
Y10076727D02*
X13760625Y10049455D01*
X13760625D02*
Y10090364D01*
X13708125Y10076727D02*
X13786875D01*
X19048091Y13281875D02*
Y13225625D01*
X19050818Y13214375*
X19056273Y13206875*
X19064455Y13203125*
X19069909*
X19078091Y13206875*
X19083545Y13214375*
X19083545D02*
X19086273Y13225625D01*
Y13281875*
X19124455D02*
X19116273Y13278125D01*
X19113545Y13270625*
X19113545D02*
Y13263125D01*
X19113545D02*
X19116273Y13255625D01*
X19121727Y13251875*
X19132636Y13248125*
X19140818Y13244375*
X19146273Y13236875*
X19149000Y13229375*
Y13218125*
X19146273Y13210625*
X19143545Y13206875*
X19143545D02*
X19135364Y13203125D01*
X19124455*
X19116273Y13206875*
X19113545Y13210625*
X19113545D02*
X19110818Y13218125D01*
Y13229375*
X19113545Y13236875*
X19113545D02*
X19119000Y13244375D01*
X19127182Y13248125*
X19138091Y13251875*
X19143545Y13255625*
X19143545D02*
X19146273Y13263125D01*
Y13270625*
X19143545Y13278125*
X19143545D02*
X19135364Y13281875D01*
X19124455*
X14780364Y14181875D02*
Y14103125D01*
Y14181875D02*
X14804909D01*
X14813091Y14178125*
X14815818Y14174375*
X14818545Y14166875*
X14818545D02*
Y14159375D01*
X14818545D02*
X14815818Y14151875D01*
X14813091Y14148125*
X14804909Y14144375*
X14780364*
X14799455D02*
X14818545Y14103125D01*
X14843091Y14166875D02*
X14848545Y14170625D01*
X14848545D02*
X14856727Y14181875D01*
Y14103125*
X14768091Y13761875D02*
Y13683125D01*
Y13761875D02*
X14792636D01*
X14800818Y13758125*
X14803545Y13754375*
X14803545D02*
X14806273Y13746875D01*
Y13739375*
X14803545Y13731875*
X14803545D02*
X14800818Y13728125D01*
X14792636Y13724375*
X14768091*
X14787182D02*
X14806273Y13683125D01*
X14833545Y13743125D02*
Y13746875D01*
X14833545D02*
X14836273Y13754375D01*
X14839000Y13758125*
X14844455Y13761875*
X14855364*
X14860818Y13758125*
X14863545Y13754375*
X14863545D02*
X14866273Y13746875D01*
Y13739375*
X14863545Y13731875*
X14863545D02*
X14858091Y13720625D01*
X14830818Y13683125*
X14869000*
X15749375Y11206000D02*
X15670625D01*
X15749375D02*
Y11181455D01*
X15749375D02*
X15745625Y11173273D01*
X15741875Y11170545*
X15741875D02*
X15734375Y11167818D01*
X15726875*
X15719375Y11170545*
X15719375D02*
X15715625Y11173273D01*
X15711875Y11181455*
X15711875D02*
Y11206000D01*
Y11186909D02*
X15670625Y11167818D01*
X15734375Y11143273D02*
X15738125Y11137818D01*
X15749375Y11129636*
X15670625*
X15749375Y11099636D02*
Y11069636D01*
X15719375Y11086000*
Y11077818*
X15715625Y11072364*
X15711875Y11069636*
X15700625Y11066909*
X15693125*
X15681875Y11069636*
X15674375Y11075091*
X15670625Y11083273*
Y11091455*
X15670625D02*
X15674375Y11099636D01*
X15678125Y11102364*
X15685625Y11105091*
X20038091Y13281875D02*
Y13203125D01*
Y13281875D02*
X20062636D01*
X20070818Y13278125*
X20073545Y13274375*
X20073545D02*
X20076273Y13266875D01*
Y13259375*
X20073545Y13251875*
X20073545D02*
X20070818Y13248125D01*
X20062636Y13244375*
X20038091*
X20057182D02*
X20076273Y13203125D01*
X20106273Y13281875D02*
X20136273D01*
X20119909Y13251875*
X20128091*
X20133545Y13248125*
X20133545D02*
X20136273Y13244375D01*
X20139000Y13233125*
Y13225625*
X20136273Y13214375*
X20130818Y13206875*
X20122636Y13203125*
X20114455*
X20106273Y13206875*
X20103545Y13210625*
X20103545D02*
X20100818Y13218125D01*
X20331875Y13813273D02*
X20253125D01*
X20331875D02*
Y13788727D01*
X20328125Y13780545*
X20328125D02*
X20324375Y13777818D01*
X20316875Y13775091*
X20309375*
X20301875Y13777818*
X20298125Y13780545*
X20298125D02*
X20294375Y13788727D01*
Y13813273*
Y13794182D02*
X20253125Y13775091D01*
X20331875Y13723273D02*
X20279375Y13750545D01*
X20279375D02*
Y13709636D01*
X20331875Y13723273D02*
X20253125D01*
X18461000Y12498125D02*
Y12576875D01*
Y12498125D02*
X18436455D01*
X18436455D02*
X18428273Y12501875D01*
X18425545Y12505625*
X18425545D02*
X18422818Y12513125D01*
Y12520625*
X18425545Y12528125*
X18425545D02*
X18428273Y12531875D01*
X18436455Y12535625*
X18436455D02*
X18461000D01*
X18441909D02*
X18422818Y12576875D01*
X18398273Y12513125D02*
X18392818Y12509375D01*
X18384636Y12498125*
Y12576875*
X18346455Y12498125D02*
X18354636Y12501875D01*
X18357364Y12509375*
Y12516875*
X18354636Y12524375*
X18349182Y12528125*
X18338273Y12531875*
X18330091Y12535625*
X18324636Y12543125*
X18321909Y12550625*
Y12561875*
X18324636Y12569375*
X18327364Y12573125*
X18335545Y12576875*
X18335545D02*
X18346455D01*
X18346455D02*
X18354636Y12573125D01*
X18357364Y12569375*
X18360091Y12561875*
Y12550625*
X18357364Y12543125*
X18351909Y12535625*
X18343727Y12531875*
X18332818Y12528125*
X18327364Y12524375*
X18324636Y12516875*
Y12509375*
X18327364Y12501875*
X18335545Y12498125*
X18335545D02*
X18346455D01*
X17706727Y10781875D02*
Y10703125D01*
Y10781875D02*
X17731273D01*
X17739455Y10778125*
X17739455D02*
X17742182Y10774375D01*
X17744909Y10766875*
Y10759375*
X17742182Y10751875*
X17739455Y10748125*
X17739455D02*
X17731273Y10744375D01*
X17706727*
X17725818D02*
X17744909Y10703125D01*
X17774909Y10781875D02*
X17804909D01*
X17788545Y10751875*
X17788545D02*
X17796727D01*
X17802182Y10748125*
X17804909Y10744375*
X17807636Y10733125*
Y10725625*
X17804909Y10714375*
X17799455Y10706875*
X17799455D02*
X17791273Y10703125D01*
X17783091*
X17774909Y10706875*
X17772182Y10710625*
X17769455Y10718125*
X17848545Y10781875D02*
X17840364Y10778125D01*
X17834909Y10766875*
X17832182Y10748125*
Y10736875*
X17834909Y10718125*
X17840364Y10706875*
X17848545Y10703125*
X17848545D02*
X17854000D01*
X17862182Y10706875*
X17867636Y10718125*
X17870364Y10736875*
Y10748125*
X17867636Y10766875*
X17862182Y10778125*
X17854000Y10781875*
X17848545*
X15365625Y11063091D02*
X15444375D01*
X15365625D02*
Y11087636D01*
X15369375Y11095818*
X15373125Y11098545*
X15373125D02*
X15380625Y11101273D01*
X15388125*
X15395625Y11098545*
X15395625D02*
X15399375Y11095818D01*
X15403125Y11087636*
Y11063091*
Y11082182D02*
X15444375Y11101273D01*
X15365625Y11164000D02*
X15444375Y11136727D01*
X15365625Y11125818D02*
Y11164000D01*
X19048091Y13551875D02*
Y13473125D01*
Y13551875D02*
X19072636D01*
X19080818Y13548125*
X19083545Y13544375*
X19083545D02*
X19086273Y13536875D01*
Y13529375*
X19083545Y13521875*
X19083545D02*
X19080818Y13518125D01*
X19072636Y13514375*
X19048091*
X19067182D02*
X19086273Y13473125D01*
X19124455Y13551875D02*
X19116273Y13548125D01*
X19113545Y13540625*
X19113545D02*
Y13533125D01*
X19113545D02*
X19116273Y13525625D01*
X19121727Y13521875*
X19132636Y13518125*
X19140818Y13514375*
X19146273Y13506875*
X19149000Y13499375*
Y13488125*
X19146273Y13480625*
X19143545Y13476875*
X19143545D02*
X19135364Y13473125D01*
X19124455*
X19116273Y13476875*
X19113545Y13480625*
X19113545D02*
X19110818Y13488125D01*
Y13499375*
X19113545Y13506875*
X19113545D02*
X19119000Y13514375D01*
X19127182Y13518125*
X19138091Y13521875*
X19143545Y13525625*
X19143545D02*
X19146273Y13533125D01*
Y13540625*
X19143545Y13548125*
X19143545D02*
X19135364Y13551875D01*
X19124455*
X15159864Y11301875D02*
X15162591Y11294375D01*
X15168045Y11286875*
X15168045D02*
X15173500Y11283125D01*
X15184409*
X15189864Y11286875*
X15195318Y11294375*
X15198045Y11301875*
X15198045D02*
X15200773Y11313125D01*
Y11331875*
X15198045Y11343125*
X15198045D02*
X15195318Y11350625D01*
X15189864Y11358125*
X15184409Y11361875*
X15173500*
X15168045Y11358125*
X15168045D02*
X15162591Y11350625D01*
X15159864Y11343125*
X15121682Y11283125D02*
X15129864Y11286875D01*
X15132591Y11294375*
Y11301875*
X15129864Y11309375*
X15124409Y11313125*
X15113500Y11316875*
X15105318Y11320625*
X15099864Y11328125*
X15097136Y11335625*
Y11346875*
X15099864Y11354375*
X15102591Y11358125*
X15110773Y11361875*
X15121682*
X15129864Y11358125*
X15132591Y11354375*
X15135318Y11346875*
Y11335625*
X15132591Y11328125*
X15127136Y11320625*
X15118955Y11316875*
X15118955D02*
X15108045Y11313125D01*
X15108045D02*
X15102591Y11309375D01*
X15099864Y11301875*
Y11294375*
X15102591Y11286875*
X15110773Y11283125*
X15121682*
X21046273Y11013125D02*
X21043545Y11020625D01*
X21043545D02*
X21038091Y11028125D01*
X21032636Y11031875*
X21021727*
X21016273Y11028125*
X21010818Y11020625*
X21008091Y11013125*
X21005364Y11001875*
Y10983125*
X21008091Y10971875*
X21010818Y10964375*
X21016273Y10956875*
X21021727Y10953125*
X21032636*
X21038091Y10956875*
X21043545Y10964375*
X21043545D02*
X21046273Y10971875D01*
X21098091Y11031875D02*
X21070818Y10979375D01*
X21111727*
X21098091Y11031875D02*
Y10953125D01*
X21171727Y11005625D02*
X21169000Y10994375D01*
X21163545Y10986875*
X21163545D02*
X21155364Y10983125D01*
X21152636*
X21144455Y10986875*
X21139000Y10994375*
X21136273Y11005625*
Y11009375*
X21139000Y11020625*
X21144455Y11028125*
X21152636Y11031875*
X21155364*
X21163545Y11028125*
X21163545D02*
X21169000Y11020625D01*
X21171727Y11005625*
Y10986875*
X21169000Y10968125*
X21163545Y10956875*
X21163545D02*
X21155364Y10953125D01*
X21149909*
X21141727Y10956875*
X21139000Y10964375*
X17113125Y11349182D02*
X17120625Y11351909D01*
X17128125Y11357364*
X17131875Y11362818*
Y11373727*
X17128125Y11379182*
X17120625Y11384636*
X17113125Y11387364*
X17101875Y11390091*
X17083125*
X17071875Y11387364*
X17064375Y11384636*
X17056875Y11379182*
X17053125Y11373727*
Y11362818*
X17056875Y11357364*
X17064375Y11351909*
X17071875Y11349182*
X17116875Y11324636D02*
X17120625Y11319182D01*
X17131875Y11311000*
X17053125*
X17116875Y11286455D02*
X17120625Y11281000D01*
X17131875Y11272818*
X17053125*
X17413125Y11361455D02*
X17420625Y11364182D01*
X17428125Y11369636*
X17431875Y11375091*
Y11386000*
X17428125Y11391455*
X17428125D02*
X17420625Y11396909D01*
X17413125Y11399636*
X17401875Y11402364*
X17383125*
X17371875Y11399636*
X17364375Y11396909*
X17356875Y11391455*
X17356875D02*
X17353125Y11386000D01*
Y11375091*
X17356875Y11369636*
X17364375Y11364182*
X17371875Y11361455*
X17416875Y11336909D02*
X17420625Y11331455D01*
X17420625D02*
X17431875Y11323273D01*
X17353125*
X17413125Y11296000D02*
X17416875D01*
X17424375Y11293273*
X17428125Y11290545*
X17431875Y11285091*
Y11274182*
X17428125Y11268727*
X17424375Y11266000*
X17416875Y11263273*
X17409375*
X17401875Y11266000*
X17390625Y11271455*
X17390625D02*
X17353125Y11298727D01*
Y11260545*
X17628545Y13403125D02*
X17625818Y13410625D01*
X17620364Y13418125*
X17614909Y13421875*
X17604000*
X17598545Y13418125*
X17598545D02*
X17593091Y13410625D01*
X17590364Y13403125*
X17587636Y13391875*
Y13373125*
X17590364Y13361875*
X17593091Y13354375*
X17598545Y13346875*
X17598545D02*
X17604000Y13343125D01*
X17614909*
X17620364Y13346875*
X17625818Y13354375*
X17628545Y13361875*
X17653091Y13406875D02*
X17658545Y13410625D01*
X17658545D02*
X17666727Y13421875D01*
Y13343125*
X17696727Y13421875D02*
X17726727D01*
X17710364Y13391875*
X17718545*
X17718545D02*
X17724000Y13388125D01*
X17726727Y13384375*
X17729455Y13373125*
Y13365625*
X17726727Y13354375*
X17721273Y13346875*
X17713091Y13343125*
X17704909*
X17696727Y13346875*
X17694000Y13350625*
X17691273Y13358125*
X18337182Y12833125D02*
X18334455Y12840625D01*
X18334455D02*
X18329000Y12848125D01*
X18323545Y12851875*
X18323545D02*
X18312636D01*
X18307182Y12848125*
X18301727Y12840625*
X18299000Y12833125*
X18296273Y12821875*
Y12803125*
X18299000Y12791875*
X18301727Y12784375*
X18307182Y12776875*
X18312636Y12773125*
X18323545*
X18323545D02*
X18329000Y12776875D01*
X18334455Y12784375*
X18334455D02*
X18337182Y12791875D01*
X18361727Y12836875D02*
X18367182Y12840625D01*
X18375364Y12851875*
Y12773125*
X18427182Y12851875D02*
X18399909Y12799375D01*
X18440818*
X18427182Y12851875D02*
Y12773125D01*
X17328545Y13403125D02*
X17325818Y13410625D01*
X17320364Y13418125*
X17314909Y13421875*
X17304000*
X17298545Y13418125*
X17298545D02*
X17293091Y13410625D01*
X17290364Y13403125*
X17287636Y13391875*
Y13373125*
X17290364Y13361875*
X17293091Y13354375*
X17298545Y13346875*
X17298545D02*
X17304000Y13343125D01*
X17314909*
X17320364Y13346875*
X17325818Y13354375*
X17328545Y13361875*
X17353091Y13406875D02*
X17358545Y13410625D01*
X17358545D02*
X17366727Y13421875D01*
Y13343125*
X17429455Y13421875D02*
X17402182Y13343125D01*
X17391273Y13421875D02*
X17429455D01*
X18338545Y12243125D02*
X18335818Y12250625D01*
X18330364Y12258125*
X18324909Y12261875*
X18314000*
X18308545Y12258125*
X18308545D02*
X18303091Y12250625D01*
X18300364Y12243125*
X18297636Y12231875*
Y12213125*
X18300364Y12201875*
X18303091Y12194375*
X18308545Y12186875*
X18308545D02*
X18314000Y12183125D01*
X18324909*
X18330364Y12186875*
X18335818Y12194375*
X18338545Y12201875*
X18363091Y12246875D02*
X18368545Y12250625D01*
X18368545D02*
X18376727Y12261875D01*
Y12183125*
X18414909Y12261875D02*
X18406727Y12258125D01*
X18404000Y12250625*
Y12243125*
X18406727Y12235625*
X18412182Y12231875*
X18423091Y12228125*
X18431273Y12224375*
X18436727Y12216875*
X18439455Y12209375*
Y12198125*
X18436727Y12190625*
X18434000Y12186875*
X18425818Y12183125*
X18414909*
X18406727Y12186875*
X18404000Y12190625*
X18401273Y12198125*
Y12209375*
X18404000Y12216875*
X18409455Y12224375*
X18417636Y12228125*
X18428545Y12231875*
X18428545D02*
X18434000Y12235625D01*
X18436727Y12243125*
Y12250625*
X18434000Y12258125*
X18425818Y12261875*
X18414909*
X16270091Y11966875D02*
X16272818Y11959375D01*
X16278273Y11951875*
X16283727Y11948125*
X16294636*
X16300091Y11951875*
X16305545Y11959375*
X16305545D02*
X16308273Y11966875D01*
X16311000Y11978125*
Y11996875*
X16308273Y12008125*
X16305545Y12015625*
X16305545D02*
X16300091Y12023125D01*
X16294636Y12026875*
X16283727*
X16278273Y12023125*
X16272818Y12015625*
X16270091Y12008125*
X16245545Y11963125D02*
X16240091Y11959375D01*
X16231909Y11948125*
Y12026875*
X16171909Y11974375D02*
X16174636Y11985625D01*
X16180091Y11993125*
X16188273Y11996875*
X16191000*
X16199182Y11993125*
X16204636Y11985625*
X16207364Y11974375*
Y11970625*
X16204636Y11959375*
X16199182Y11951875*
X16191000Y11948125*
X16188273*
X16180091Y11951875*
X16174636Y11959375*
X16171909Y11974375*
Y11993125*
X16174636Y12011875*
X16180091Y12023125*
X16188273Y12026875*
X16193727*
X16201909Y12023125*
X16204636Y12015625*
X17853727Y11386875D02*
X17856455Y11379375D01*
X17856455D02*
X17861909Y11371875D01*
X17867364Y11368125*
X17878273*
X17883727Y11371875*
X17889182Y11379375*
X17891909Y11386875*
X17894636Y11398125*
Y11416875*
X17891909Y11428125*
X17889182Y11435625*
X17883727Y11443125*
X17878273Y11446875*
X17867364*
X17861909Y11443125*
X17856455Y11435625*
X17856455D02*
X17853727Y11428125D01*
X17826455Y11386875D02*
Y11383125D01*
X17826455D02*
X17823727Y11375625D01*
X17821000Y11371875*
X17815545Y11368125*
X17804636*
X17799182Y11371875*
X17796455Y11375625*
X17796455D02*
X17793727Y11383125D01*
Y11390625*
X17796455Y11398125*
X17796455D02*
X17801909Y11409375D01*
X17829182Y11446875*
X17791000*
X17750091Y11368125D02*
X17758273Y11371875D01*
X17763727Y11383125*
X17766455Y11401875*
X17766455D02*
Y11413125D01*
X17766455D02*
X17763727Y11431875D01*
X17758273Y11443125*
X17750091Y11446875*
X17744636*
X17736455Y11443125*
X17736455D02*
X17731000Y11431875D01*
X17728273Y11413125*
Y11401875*
X17731000Y11383125*
X17736455Y11371875*
X17736455D02*
X17744636Y11368125D01*
X17750091*
X15213125Y13153727D02*
X15220625Y13156455D01*
X15220625D02*
X15228125Y13161909D01*
X15231875Y13167364*
Y13178273*
X15228125Y13183727*
X15220625Y13189182*
X15213125Y13191909*
X15201875Y13194636*
X15183125*
X15171875Y13191909*
X15164375Y13189182*
X15156875Y13183727*
X15153125Y13178273*
Y13167364*
X15156875Y13161909*
X15164375Y13156455*
X15164375D02*
X15171875Y13153727D01*
X15213125Y13126455D02*
X15216875D01*
X15216875D02*
X15224375Y13123727D01*
X15228125Y13121000*
X15231875Y13115545*
Y13104636*
X15228125Y13099182*
X15224375Y13096455*
X15224375D02*
X15216875Y13093727D01*
X15209375*
X15201875Y13096455*
X15201875D02*
X15190625Y13101909D01*
X15153125Y13129182*
Y13091000*
X15213125Y13063727D02*
X15216875D01*
X15224375Y13061000*
X15228125Y13058273*
X15231875Y13052818*
Y13041909*
X15228125Y13036455*
X15228125D02*
X15224375Y13033727D01*
X15216875Y13031000*
X15209375*
X15201875Y13033727*
X15190625Y13039182*
X15153125Y13066455*
X15153125D02*
Y13028273D01*
X14553727Y12086875D02*
X14556455Y12079375D01*
X14556455D02*
X14561909Y12071875D01*
X14567364Y12068125*
X14578273*
X14583727Y12071875*
X14589182Y12079375*
X14591909Y12086875*
X14594636Y12098125*
Y12116875*
X14591909Y12128125*
X14589182Y12135625*
X14583727Y12143125*
X14578273Y12146875*
X14567364*
X14561909Y12143125*
X14556455Y12135625*
X14556455D02*
X14553727Y12128125D01*
X14526455Y12086875D02*
Y12083125D01*
X14526455D02*
X14523727Y12075625D01*
X14521000Y12071875*
X14515545Y12068125*
X14504636*
X14499182Y12071875*
X14496455Y12075625*
X14496455D02*
X14493727Y12083125D01*
Y12090625*
X14496455Y12098125*
X14496455D02*
X14501909Y12109375D01*
X14529182Y12146875*
X14491000*
X14461000Y12068125D02*
X14431000D01*
X14447364Y12098125*
X14439182*
X14433727Y12101875*
X14431000Y12105625*
X14428273Y12116875*
Y12124375*
X14431000Y12135625*
X14436455Y12143125*
X14436455D02*
X14444636Y12146875D01*
X14452818*
X14461000Y12143125*
X14463727Y12139375*
X14466455Y12131875*
X16497636Y9963125D02*
X16494909Y9970625D01*
X16489455Y9978125*
X16489455D02*
X16484000Y9981875D01*
X16473091*
X16467636Y9978125*
X16462182Y9970625*
X16459455Y9963125*
X16459455D02*
X16456727Y9951875D01*
Y9933125*
X16459455Y9921875*
X16459455D02*
X16462182Y9914375D01*
X16467636Y9906875*
X16473091Y9903125*
X16484000*
X16489455Y9906875*
X16489455D02*
X16494909Y9914375D01*
X16497636Y9921875*
X16524909Y9963125D02*
Y9966875D01*
X16527636Y9974375*
X16530364Y9978125*
X16535818Y9981875*
X16546727*
X16552182Y9978125*
X16554909Y9974375*
X16557636Y9966875*
Y9959375*
X16554909Y9951875*
X16549455Y9940625*
X16549455D02*
X16522182Y9903125D01*
X16560364*
X16620364Y9955625D02*
X16617636Y9944375D01*
X16612182Y9936875*
X16604000Y9933125*
X16601273*
X16593091Y9936875*
X16587636Y9944375*
X16584909Y9955625*
Y9959375*
X16587636Y9970625*
X16593091Y9978125*
X16601273Y9981875*
X16604000*
X16612182Y9978125*
X16617636Y9970625*
X16620364Y9955625*
Y9936875*
X16617636Y9918125*
X16612182Y9906875*
X16604000Y9903125*
X16598545*
X16598545D02*
X16590364Y9906875D01*
X16587636Y9914375*
X16496273Y9563125D02*
X16493545Y9570625D01*
X16493545D02*
X16488091Y9578125D01*
X16482636Y9581875*
X16471727*
X16466273Y9578125*
X16460818Y9570625*
X16458091Y9563125*
X16455364Y9551875*
Y9533125*
X16458091Y9521875*
X16460818Y9514375*
X16466273Y9506875*
X16471727Y9503125*
X16482636*
X16488091Y9506875*
X16493545Y9514375*
X16493545D02*
X16496273Y9521875D01*
X16526273Y9581875D02*
X16556273D01*
X16539909Y9551875*
X16548091*
X16553545Y9548125*
X16553545D02*
X16556273Y9544375D01*
X16559000Y9533125*
Y9525625*
X16556273Y9514375*
X16550818Y9506875*
X16542636Y9503125*
X16534455*
X16526273Y9506875*
X16523545Y9510625*
X16523545D02*
X16520818Y9518125D01*
X16599909Y9581875D02*
X16591727Y9578125D01*
X16586273Y9566875*
X16583545Y9548125*
X16583545D02*
Y9536875D01*
X16583545D02*
X16586273Y9518125D01*
X16591727Y9506875*
X16599909Y9503125*
X16605364*
X16613545Y9506875*
X16613545D02*
X16619000Y9518125D01*
X16621727Y9536875*
Y9548125*
X16619000Y9566875*
X16613545Y9578125*
X16613545D02*
X16605364Y9581875D01*
X16599909*
X13508545Y13613125D02*
X13505818Y13620625D01*
X13500364Y13628125*
X13494909Y13631875*
X13484000*
X13478545Y13628125*
X13478545D02*
X13473091Y13620625D01*
X13470364Y13613125*
X13467636Y13601875*
Y13583125*
X13470364Y13571875*
X13473091Y13564375*
X13478545Y13556875*
X13478545D02*
X13484000Y13553125D01*
X13494909*
X13500364Y13556875*
X13505818Y13564375*
X13508545Y13571875*
X13538545Y13631875D02*
X13568545D01*
X13568545D02*
X13552182Y13601875D01*
X13560364*
X13565818Y13598125*
X13568545Y13594375*
X13568545D02*
X13571273Y13583125D01*
Y13575625*
X13568545Y13564375*
X13568545D02*
X13563091Y13556875D01*
X13554909Y13553125*
X13546727*
X13538545Y13556875*
X13538545D02*
X13535818Y13560625D01*
X13533091Y13568125*
X13595818Y13616875D02*
X13601273Y13620625D01*
X13609455Y13631875*
Y13553125*
X17606455Y9686875D02*
X17609182Y9679375D01*
X17614636Y9671875*
X17620091Y9668125*
X17631000*
X17636455Y9671875*
X17636455D02*
X17641909Y9679375D01*
X17644636Y9686875*
X17647364Y9698125*
Y9716875*
X17644636Y9728125*
X17641909Y9735625*
X17636455Y9743125*
X17636455D02*
X17631000Y9746875D01*
X17620091*
X17614636Y9743125*
X17609182Y9735625*
X17606455Y9728125*
X17546455Y9668125D02*
X17573727D01*
X17576455Y9701875*
X17576455D02*
X17573727Y9698125D01*
X17565545Y9694375*
X17557364*
X17549182Y9698125*
X17543727Y9705625*
X17541000Y9716875*
X17543727Y9724375*
X17546455Y9735625*
X17546455D02*
X17551909Y9743125D01*
X17560091Y9746875*
X17568273*
X17576455Y9743125*
X17576455D02*
X17579182Y9739375D01*
X17581909Y9731875*
X17481000Y9668125D02*
X17508273D01*
X17511000Y9701875*
X17508273Y9698125*
X17500091Y9694375*
X17491909*
X17483727Y9698125*
X17478273Y9705625*
X17475545Y9716875*
X17478273Y9724375*
X17481000Y9735625*
X17486455Y9743125*
X17486455D02*
X17494636Y9746875D01*
X17502818*
X17511000Y9743125*
X17513727Y9739375*
X17516455Y9731875*
X17263125Y11341000D02*
X17270625Y11343727D01*
X17278125Y11349182*
X17281875Y11354636*
Y11365545*
X17278125Y11371000*
X17270625Y11376455*
X17270625D02*
X17263125Y11379182D01*
X17251875Y11381909*
X17233125*
X17221875Y11379182*
X17214375Y11376455*
X17214375D02*
X17206875Y11371000D01*
X17203125Y11365545*
Y11354636*
X17206875Y11349182*
X17214375Y11343727*
X17221875Y11341000*
X17255625Y11281000D02*
X17244375Y11283727D01*
X17236875Y11289182*
X17233125Y11297364*
Y11300091*
X17236875Y11308273*
X17244375Y11313727*
X17255625Y11316455*
X17255625D02*
X17259375D01*
X17259375D02*
X17270625Y11313727D01*
X17278125Y11308273*
X17281875Y11300091*
Y11297364*
X17278125Y11289182*
X17270625Y11283727*
X17255625Y11281000*
X17236875*
X17218125Y11283727*
X17206875Y11289182*
X17203125Y11297364*
Y11302818*
X17206875Y11311000*
X17214375Y11313727*
X15570625Y11146000D02*
X15578125Y11148727D01*
X15585625Y11154182*
X15589375Y11159636*
Y11170545*
X15585625Y11176000*
X15578125Y11181455*
X15578125D02*
X15570625Y11184182D01*
X15559375Y11186909*
X15540625*
X15529375Y11184182*
X15521875Y11181455*
X15521875D02*
X15514375Y11176000D01*
X15510625Y11170545*
Y11159636*
X15514375Y11154182*
X15521875Y11148727*
X15529375Y11146000*
X15578125Y11088727D02*
X15585625Y11091455D01*
X15585625D02*
X15589375Y11099636D01*
Y11105091*
X15585625Y11113273*
X15574375Y11118727*
X15555625Y11121455*
X15555625D02*
X15536875D01*
X15536875D02*
X15521875Y11118727D01*
X15514375Y11113273*
X15510625Y11105091*
Y11102364*
X15514375Y11094182*
X15521875Y11088727*
X15533125Y11086000*
X15536875*
X15548125Y11088727*
X15555625Y11094182*
X15559375Y11102364*
Y11105091*
X15555625Y11113273*
X15548125Y11118727*
X15536875Y11121455*
X17330545Y13868125D02*
Y13928125D01*
X17333273Y13939375*
X17336000Y13943125*
X17341454Y13946875*
X17341454D02*
X17346909D01*
X17352364Y13943125*
X17355091Y13939375*
X17357818Y13928125*
Y13920625*
X17278727Y13868125D02*
X17306000Y13920625D01*
X17265091*
X17278727Y13868125D02*
Y13946875D01*
X14675591Y11196875D02*
Y11140625D01*
X14678318Y11129375*
X14683773Y11121875*
X14691955Y11118125*
X14697409*
X14705591Y11121875*
X14711045Y11129375*
X14711045D02*
X14713773Y11140625D01*
Y11196875*
X14776500D02*
X14749227Y11118125D01*
X14738318Y11196875D02*
X14776500D01*
X14368125Y11420364D02*
X14446875D01*
X14368125D02*
Y11455818D01*
X14405625Y11420364D02*
Y11442182D01*
X14368125Y11480364D02*
X14446875D01*
X14368125D02*
Y11504909D01*
X14371875Y11513091*
X14375625Y11515818*
X14383125Y11518545*
X14383125D02*
X14390625D01*
X14390625D02*
X14398125Y11515818D01*
X14401875Y11513091*
X14405625Y11504909*
Y11480364D02*
Y11504909D01*
X14409375Y11513091*
X14413125Y11515818*
X14420625Y11518545*
X14420625D02*
X14431875D01*
X14431875D02*
X14439375Y11515818D01*
X14443125Y11513091*
X14446875Y11504909*
Y11480364*
X14383125Y11543091D02*
X14379375Y11548545D01*
X14379375D02*
X14368125Y11556727D01*
X14446875*
X15090591Y11126875D02*
Y11048125D01*
X15123318*
X15147864Y11111875D02*
X15153318Y11115625D01*
X15161500Y11126875*
Y11048125*
X17268125Y12338091D02*
X17324375D01*
X17335625Y12340818*
X17343125Y12346273*
X17346875Y12354455*
Y12359909*
X17343125Y12368091*
X17335625Y12373545*
X17335625D02*
X17324375Y12376273D01*
X17268125*
Y12406273D02*
Y12436273D01*
X17298125Y12419909*
Y12428091*
X17301875Y12433545*
X17301875D02*
X17305625Y12436273D01*
X17316875Y12439000*
X17324375*
X17335625Y12436273*
X17343125Y12430818*
X17346875Y12422636*
Y12414455*
X17343125Y12406273*
X17339375Y12403545*
X17339375D02*
X17331875Y12400818D01*
X14761909Y11568125D02*
Y11646875D01*
Y11568125D02*
X14742818D01*
X14734636Y11571875*
X14729182Y11579375*
X14726455Y11586875*
X14726455D02*
X14723727Y11598125D01*
Y11616875*
X14726455Y11628125*
X14726455D02*
X14729182Y11635625D01*
X14734636Y11643125*
X14742818Y11646875*
X14761909*
X14693727Y11568125D02*
X14663727D01*
X14680091Y11598125*
X14671909*
X14666455Y11601875*
X14666455D02*
X14663727Y11605625D01*
X14661000Y11616875*
Y11624375*
X14663727Y11635625*
X14669182Y11643125*
X14677364Y11646875*
X14685545*
X14693727Y11643125*
X14696455Y11639375*
X14696455D02*
X14699182Y11631875D01*
X14706727Y13611875D02*
Y13533125D01*
X14739455*
X14764000Y13611875D02*
Y13533125D01*
Y13611875D02*
X14799455D01*
X14764000Y13574375D02*
X14785818D01*
X14764000Y13533125D02*
X14799455D01*
X14824000Y13611875D02*
Y13533125D01*
Y13611875D02*
X14843091D01*
X14851273Y13608125*
X14856727Y13600625*
X14859455Y13593125*
X14859455D02*
X14862182Y13581875D01*
Y13563125*
X14859455Y13551875*
X14859455D02*
X14856727Y13544375D01*
X14851273Y13536875*
X14843091Y13533125*
X14824000*
X14908545Y13611875D02*
X14886727Y13533125D01*
X14908545Y13611875D02*
X14930364Y13533125D01*
X14894909Y13559375D02*
X14922182D01*
X14709455Y14031875D02*
Y13953125D01*
X14709455D02*
X14742182D01*
X14766727Y14031875D02*
Y13953125D01*
Y14031875D02*
X14802182D01*
X14766727Y13994375D02*
X14788545D01*
X14766727Y13953125D02*
X14802182D01*
X14826727Y14031875D02*
Y13953125D01*
Y14031875D02*
X14845818D01*
X14854000Y14028125*
X14859455Y14020625*
X14859455D02*
X14862182Y14013125D01*
X14864909Y14001875*
Y13983125*
X14862182Y13971875*
X14859455Y13964375*
X14859455D02*
X14854000Y13956875D01*
X14845818Y13953125*
X14826727*
X14889455Y14031875D02*
Y13953125D01*
Y14031875D02*
X14914000D01*
X14922182Y14028125*
X14924909Y14024375*
X14927636Y14016875*
Y14009375*
X14924909Y14001875*
X14922182Y13998125*
X14914000Y13994375*
X14889455D02*
X14914000D01*
X14922182Y13990625*
X14924909Y13986875*
X14927636Y13979375*
Y13968125*
X14924909Y13960625*
X14922182Y13956875*
X14914000Y13953125*
X14889455*
X17146591Y9493375D02*
Y9414625D01*
X17127500Y9493375D02*
X17165682D01*
X17190227D02*
Y9414625D01*
Y9493375D02*
X17214773D01*
X17222955Y9489625*
X17222955D02*
X17225682Y9485875D01*
X17228409Y9478375*
Y9467125*
X17225682Y9459625*
X17222955Y9455875*
X17222955D02*
X17214773Y9452125D01*
X17190227*
X17252955Y9478375D02*
X17258409Y9482125D01*
X17266591Y9493375*
Y9414625*
X20256727Y12831875D02*
Y12753125D01*
X20237636Y12831875D02*
X20275818D01*
X20300364D02*
Y12753125D01*
Y12831875D02*
X20324909D01*
X20333091Y12828125*
X20335818Y12824375*
X20338545Y12816875*
X20338545D02*
Y12805625D01*
X20338545D02*
X20335818Y12798125D01*
X20333091Y12794375*
X20324909Y12790625*
X20300364*
X20363091Y12816875D02*
X20368545Y12820625D01*
X20368545D02*
X20376727Y12831875D01*
Y12753125*
X20417636Y12831875D02*
X20409455Y12828125D01*
X20404000Y12816875*
X20401273Y12798125*
Y12786875*
X20404000Y12768125*
X20409455Y12756875*
X20417636Y12753125*
X20423091*
X20431273Y12756875*
X20436727Y12768125*
X20439455Y12786875*
Y12798125*
X20436727Y12816875*
X20431273Y12828125*
X20423091Y12831875*
X20417636*
X17134318Y10509375D02*
Y10430625D01*
X17115227Y10509375D02*
X17153409D01*
X17177955D02*
Y10430625D01*
Y10509375D02*
X17202500D01*
X17210682Y10505625*
X17213409Y10501875*
X17216136Y10494375*
Y10483125*
X17213409Y10475625*
X17210682Y10471875*
X17202500Y10468125*
X17177955*
X17243409Y10490625D02*
Y10494375D01*
X17246136Y10501875*
X17248864Y10505625*
X17254318Y10509375*
X17265227*
X17270682Y10505625*
X17273409Y10501875*
X17276136Y10494375*
Y10486875*
X17273409Y10479375*
X17267955Y10468125*
X17267955D02*
X17240682Y10430625D01*
X17278864*
X17134318Y9747375D02*
Y9668625D01*
X17115227Y9747375D02*
X17153409D01*
X17177955D02*
Y9668625D01*
Y9747375D02*
X17202500D01*
X17210682Y9743625*
X17213409Y9739875*
X17216136Y9732375*
Y9721125*
X17213409Y9713625*
X17210682Y9709875*
X17202500Y9706125*
X17177955*
X17246136Y9747375D02*
X17276136D01*
X17259773Y9717375*
X17267955*
X17267955D02*
X17273409Y9713625D01*
X17276136Y9709875*
X17278864Y9698625*
Y9691125*
X17276136Y9679875*
X17270682Y9672375*
X17262500Y9668625*
X17254318*
X17246136Y9672375*
X17243409Y9676125*
X17240682Y9683625*
X17132955Y10255375D02*
Y10176625D01*
X17113864Y10255375D02*
X17152045D01*
X17176591D02*
Y10176625D01*
Y10255375D02*
X17201136D01*
X17209318Y10251625*
X17212045Y10247875*
X17212045D02*
X17214773Y10240375D01*
Y10229125*
X17212045Y10221625*
X17212045D02*
X17209318Y10217875D01*
X17201136Y10214125*
X17176591*
X17266591Y10255375D02*
X17239318Y10202875D01*
X17280227*
X17266591Y10255375D02*
Y10176625D01*
X17132955Y10001375D02*
Y9922625D01*
X17113864Y10001375D02*
X17152045D01*
X17176591D02*
Y9922625D01*
Y10001375D02*
X17201136D01*
X17209318Y9997625*
X17212045Y9993875*
X17212045D02*
X17214773Y9986375D01*
Y9975125*
X17212045Y9967625*
X17212045D02*
X17209318Y9963875D01*
X17201136Y9960125*
X17176591*
X17274773Y10001375D02*
X17247500D01*
X17244773Y9967625*
X17247500Y9971375*
X17255682Y9975125*
X17263864*
X17272045Y9971375*
X17272045D02*
X17277500Y9963875D01*
X17280227Y9952625*
X17277500Y9945125*
X17274773Y9933875*
X17269318Y9926375*
X17261136Y9922625*
X17252955*
X17244773Y9926375*
X17242045Y9930125*
X17242045D02*
X17239318Y9937625D01*
X16881682Y9239375D02*
Y9160625D01*
X16862591Y9239375D02*
X16900773D01*
X16925318D02*
Y9160625D01*
Y9239375D02*
X16949864D01*
X16958045Y9235625*
X16958045D02*
X16960773Y9231875D01*
X16963500Y9224375*
Y9213125*
X16960773Y9205625*
X16958045Y9201875*
X16958045D02*
X16949864Y9198125D01*
X16925318*
X17020773Y9228125D02*
X17018045Y9235625D01*
X17018045D02*
X17009864Y9239375D01*
X17004409*
X16996227Y9235625*
X16990773Y9224375*
X16988045Y9205625*
X16988045D02*
Y9186875D01*
X16988045D02*
X16990773Y9171875D01*
X16996227Y9164375*
X17004409Y9160625*
X17007136*
X17015318Y9164375*
X17020773Y9171875*
X17023500Y9183125*
Y9186875*
X17020773Y9198125*
X17015318Y9205625*
X17007136Y9209375*
X17004409*
X16996227Y9205625*
X16990773Y9198125*
X16988045Y9186875*
X17134318Y9239375D02*
Y9160625D01*
X17115227Y9239375D02*
X17153409D01*
X17177955D02*
Y9160625D01*
Y9239375D02*
X17202500D01*
X17210682Y9235625*
X17213409Y9231875*
X17216136Y9224375*
Y9213125*
X17213409Y9205625*
X17210682Y9201875*
X17202500Y9198125*
X17177955*
X17278864Y9239375D02*
X17251591Y9160625D01*
X17240682Y9239375D02*
X17278864D01*
X19102818Y11334875D02*
Y11256125D01*
X19083727Y11334875D02*
X19121909D01*
X19146455D02*
Y11256125D01*
Y11334875D02*
X19171000D01*
X19179182Y11331125*
X19181909Y11327375*
X19184636Y11319875*
Y11308625*
X19181909Y11301125*
X19179182Y11297375*
X19171000Y11293625*
X19146455*
X19222818Y11334875D02*
X19214636Y11331125D01*
X19211909Y11323625*
Y11316125*
X19214636Y11308625*
X19220091Y11304875*
X19231000Y11301125*
X19239182Y11297375*
X19244636Y11289875*
X19247364Y11282375*
Y11271125*
X19244636Y11263625*
X19241909Y11259875*
X19233727Y11256125*
X19222818*
X19214636Y11259875*
X19211909Y11263625*
X19209182Y11271125*
Y11282375*
X19211909Y11289875*
X19217364Y11297375*
X19225545Y11301125*
X19225545D02*
X19236455Y11304875D01*
X19236455D02*
X19241909Y11308625D01*
X19244636Y11316125*
Y11323625*
X19241909Y11331125*
X19233727Y11334875*
X19222818*
X17135682Y10763375D02*
Y10684625D01*
X17116591Y10763375D02*
X17154773D01*
X17179318D02*
Y10684625D01*
Y10763375D02*
X17203864D01*
X17212045Y10759625*
X17212045D02*
X17214773Y10755875D01*
X17217500Y10748375*
Y10737125*
X17214773Y10729625*
X17212045Y10725875*
X17212045D02*
X17203864Y10722125D01*
X17179318*
X17277500Y10737125D02*
X17274773Y10725875D01*
X17269318Y10718375*
X17261136Y10714625*
X17258409*
X17250227Y10718375*
X17244773Y10725875*
X17242045Y10737125*
X17242045D02*
Y10740875D01*
X17242045D02*
X17244773Y10752125D01*
X17250227Y10759625*
X17258409Y10763375*
X17261136*
X17269318Y10759625*
X17274773Y10752125*
X17277500Y10737125*
Y10718375*
X17274773Y10699625*
X17269318Y10688375*
X17261136Y10684625*
X17255682*
X17247500Y10688375*
X17244773Y10695875*
X19684000Y13770625D02*
X19678545Y13778125D01*
X19678545D02*
X19670364Y13781875D01*
X19659455*
X19659455D02*
X19651273Y13778125D01*
X19645818Y13770625*
Y13763125*
X19648545Y13755625*
X19648545D02*
X19651273Y13751875D01*
X19656727Y13748125*
X19673091Y13740625*
X19678545Y13736875*
X19678545D02*
X19681273Y13733125D01*
X19684000Y13725625*
Y13714375*
X19678545Y13706875*
X19678545D02*
X19670364Y13703125D01*
X19659455*
X19659455D02*
X19651273Y13706875D01*
X19645818Y13714375*
X19708545Y13781875D02*
X19722182Y13703125D01*
X19735818Y13781875D02*
X19722182Y13703125D01*
X19735818Y13781875D02*
X19749455Y13703125D01*
X19763091Y13781875D02*
X19749455Y13703125D01*
X19809455Y13781875D02*
X19787636Y13703125D01*
X19809455Y13781875D02*
X19831273Y13703125D01*
X19795818Y13729375D02*
X19823091D01*
X19686727Y12770625D02*
X19681273Y12778125D01*
X19673091Y12781875*
X19662182*
X19654000Y12778125*
X19648545Y12770625*
X19648545D02*
Y12763125D01*
X19648545D02*
X19651273Y12755625D01*
X19654000Y12751875*
X19659455Y12748125*
X19659455D02*
X19675818Y12740625D01*
X19681273Y12736875*
X19684000Y12733125*
X19686727Y12725625*
Y12714375*
X19681273Y12706875*
X19673091Y12703125*
X19662182*
X19654000Y12706875*
X19648545Y12714375*
X19711273Y12781875D02*
X19724909Y12703125D01*
X19738545Y12781875D02*
X19724909Y12703125D01*
X19738545Y12781875D02*
X19752182Y12703125D01*
X19765818Y12781875D02*
X19752182Y12703125D01*
X19790364Y12781875D02*
Y12703125D01*
Y12781875D02*
X19814909D01*
X19823091Y12778125*
X19825818Y12774375*
X19828545Y12766875*
X19828545D02*
Y12759375D01*
X19828545D02*
X19825818Y12751875D01*
X19823091Y12748125*
X19814909Y12744375*
X19790364D02*
X19814909D01*
X19823091Y12740625*
X19825818Y12736875*
X19828545Y12729375*
X19828545D02*
Y12718125D01*
X19828545D02*
X19825818Y12710625D01*
X19823091Y12706875*
X19814909Y12703125*
X19790364*
X15658091Y9901875D02*
Y9823125D01*
Y9901875D02*
X15693545D01*
X15658091Y9864375D02*
X15679909D01*
X15718091Y9901875D02*
Y9823125D01*
Y9901875D02*
X15742636D01*
X15750818Y9898125*
X15753545Y9894375*
X15753545D02*
X15756273Y9886875D01*
Y9879375*
X15753545Y9871875*
X15753545D02*
X15750818Y9868125D01*
X15742636Y9864375*
X15718091D02*
X15742636D01*
X15750818Y9860625*
X15753545Y9856875*
X15753545D02*
X15756273Y9849375D01*
Y9838125*
X15753545Y9830625*
X15753545D02*
X15750818Y9826875D01*
X15742636Y9823125*
X15718091*
X15783545Y9883125D02*
Y9886875D01*
X15783545D02*
X15786273Y9894375D01*
X15789000Y9898125*
X15794455Y9901875*
X15805364*
X15810818Y9898125*
X15813545Y9894375*
X15813545D02*
X15816273Y9886875D01*
Y9879375*
X15813545Y9871875*
X15813545D02*
X15808091Y9860625D01*
X15780818Y9823125*
X15819000*
X19096000Y11588875D02*
Y11510125D01*
X19076909Y11588875D02*
X19115091D01*
X19139636D02*
Y11510125D01*
Y11588875D02*
X19164182D01*
X19172364Y11585125*
X19175091Y11581375*
X19177818Y11573875*
Y11562625*
X19175091Y11555125*
X19172364Y11551375*
X19164182Y11547625*
X19139636*
X19202364Y11573875D02*
X19207818Y11577625D01*
X19216000Y11588875*
Y11510125*
X19240545Y11573875D02*
X19246000Y11577625D01*
X19254182Y11588875*
Y11510125*
X19083727Y11842875D02*
Y11764125D01*
X19064636Y11842875D02*
X19102818D01*
X19127364D02*
Y11764125D01*
Y11842875D02*
X19151909D01*
X19160091Y11839125*
X19162818Y11835375*
X19165545Y11827875*
X19165545D02*
Y11816625D01*
X19165545D02*
X19162818Y11809125D01*
X19160091Y11805375*
X19151909Y11801625*
X19127364*
X19190091Y11827875D02*
X19195545Y11831625D01*
X19195545D02*
X19203727Y11842875D01*
Y11764125*
X19231000Y11824125D02*
Y11827875D01*
X19233727Y11835375*
X19236455Y11839125*
X19241909Y11842875*
X19252818*
X19258273Y11839125*
X19261000Y11835375*
X19263727Y11827875*
Y11820375*
X19261000Y11812875*
X19255545Y11801625*
X19255545D02*
X19228273Y11764125D01*
X19266455*
X19083727Y12096875D02*
Y12018125D01*
X19064636Y12096875D02*
X19102818D01*
X19127364D02*
Y12018125D01*
Y12096875D02*
X19151909D01*
X19160091Y12093125*
X19162818Y12089375*
X19165545Y12081875*
X19165545D02*
Y12070625D01*
X19165545D02*
X19162818Y12063125D01*
X19160091Y12059375*
X19151909Y12055625*
X19127364*
X19190091Y12081875D02*
X19195545Y12085625D01*
X19195545D02*
X19203727Y12096875D01*
Y12018125*
X19233727Y12096875D02*
X19263727D01*
X19247364Y12066875*
X19255545*
X19255545D02*
X19261000Y12063125D01*
X19263727Y12059375*
X19266455Y12048125*
Y12040625*
X19263727Y12029375*
X19258273Y12021875*
X19250091Y12018125*
X19241909*
X19233727Y12021875*
X19231000Y12025625*
X19228273Y12033125*
X19082364Y12350875D02*
Y12272125D01*
X19063273Y12350875D02*
X19101455D01*
X19126000D02*
Y12272125D01*
Y12350875D02*
X19150545D01*
X19150545D02*
X19158727Y12347125D01*
X19161455Y12343375*
X19161455D02*
X19164182Y12335875D01*
Y12324625*
X19161455Y12317125*
X19161455D02*
X19158727Y12313375D01*
X19150545Y12309625*
X19150545D02*
X19126000D01*
X19188727Y12335875D02*
X19194182Y12339625D01*
X19202364Y12350875*
Y12272125*
X19254182Y12350875D02*
X19226909Y12298375D01*
X19267818*
X19254182Y12350875D02*
Y12272125D01*
X16161364Y11271375D02*
Y11192625D01*
X16142273Y11271375D02*
X16180455D01*
X16205000D02*
Y11192625D01*
Y11271375D02*
X16229545D01*
X16229545D02*
X16237727Y11267625D01*
X16240455Y11263875*
X16240455D02*
X16243182Y11256375D01*
Y11245125*
X16240455Y11237625*
X16240455D02*
X16237727Y11233875D01*
X16229545Y11230125*
X16229545D02*
X16205000D01*
X16267727Y11256375D02*
X16273182Y11260125D01*
X16281364Y11271375*
Y11192625*
X16341364Y11271375D02*
X16314091D01*
X16311364Y11237625*
X16314091Y11241375*
X16322273Y11245125*
X16330455*
X16330455D02*
X16338636Y11241375D01*
X16344091Y11233875*
X16346818Y11222625*
X16344091Y11215125*
X16341364Y11203875*
X16335909Y11196375*
X16327727Y11192625*
X16319545*
X16319545D02*
X16311364Y11196375D01*
X16308636Y11200125*
X16305909Y11207625*
X15275091Y14192375D02*
Y14113625D01*
X15256000Y14192375D02*
X15294182D01*
X15318727D02*
Y14113625D01*
Y14192375D02*
X15343273D01*
X15351455Y14188625*
X15351455D02*
X15354182Y14184875D01*
X15356909Y14177375*
Y14166125*
X15354182Y14158625*
X15351455Y14154875*
X15351455D02*
X15343273Y14151125D01*
X15318727*
X15381455Y14177375D02*
X15386909Y14181125D01*
X15395091Y14192375*
Y14113625*
X15452364Y14181125D02*
X15449636Y14188625D01*
X15441455Y14192375*
X15441455D02*
X15436000D01*
X15427818Y14188625*
X15422364Y14177375*
X15419636Y14158625*
Y14139875*
X15422364Y14124875*
X15427818Y14117375*
X15436000Y14113625*
X15438727*
X15446909Y14117375*
X15452364Y14124875*
X15455091Y14136125*
Y14139875*
X15452364Y14151125*
X15446909Y14158625*
X15438727Y14162375*
X15436000*
X15427818Y14158625*
X15422364Y14151125*
X15419636Y14139875*
X15273727Y13938375D02*
Y13859625D01*
X15254636Y13938375D02*
X15292818D01*
X15317364D02*
Y13859625D01*
Y13938375D02*
X15341909D01*
X15350091Y13934625*
X15352818Y13930875*
X15355545Y13923375*
X15355545D02*
Y13912125D01*
X15355545D02*
X15352818Y13904625D01*
X15350091Y13900875*
X15341909Y13897125*
X15317364*
X15380091Y13923375D02*
X15385545Y13927125D01*
X15385545D02*
X15393727Y13938375D01*
Y13859625*
X15456455Y13938375D02*
X15429182Y13859625D01*
X15418273Y13938375D02*
X15456455D01*
X18575727Y10890375D02*
Y10811625D01*
X18556636Y10890375D02*
X18594818D01*
X18619364D02*
Y10811625D01*
Y10890375D02*
X18643909D01*
X18652091Y10886625*
X18654818Y10882875*
X18657545Y10875375*
X18657545D02*
Y10864125D01*
X18657545D02*
X18654818Y10856625D01*
X18652091Y10852875*
X18643909Y10849125*
X18619364*
X18682091Y10875375D02*
X18687545Y10879125D01*
X18687545D02*
X18695727Y10890375D01*
Y10811625*
X18733909Y10890375D02*
X18725727Y10886625D01*
X18723000Y10879125*
Y10871625*
X18725727Y10864125*
X18731182Y10860375*
X18742091Y10856625*
X18750273Y10852875*
X18755727Y10845375*
X18758455Y10837875*
Y10826625*
X18755727Y10819125*
X18753000Y10815375*
X18744818Y10811625*
X18733909*
X18725727Y10815375*
X18723000Y10819125*
X18720273Y10826625*
Y10837875*
X18723000Y10845375*
X18728455Y10852875*
X18736636Y10856625*
X18747545Y10860375*
X18747545D02*
X18753000Y10864125D01*
X18755727Y10871625*
Y10879125*
X18753000Y10886625*
X18744818Y10890375*
X18733909*
X15439455Y13131875D02*
Y13075625D01*
X15439455D02*
X15442182Y13064375D01*
X15447636Y13056875*
X15455818Y13053125*
X15461273*
X15469455Y13056875*
X15469455D02*
X15474909Y13064375D01*
X15477636Y13075625*
Y13131875*
X15534909Y13120625D02*
X15532182Y13128125D01*
X15524000Y13131875*
X15518545*
X15518545D02*
X15510364Y13128125D01*
X15504909Y13116875*
X15502182Y13098125*
Y13079375*
X15504909Y13064375*
X15510364Y13056875*
X15518545Y13053125*
X15518545D02*
X15521273D01*
X15529455Y13056875*
X15529455D02*
X15534909Y13064375D01*
X15537636Y13075625*
Y13079375*
X15534909Y13090625*
X15529455Y13098125*
X15529455D02*
X15521273Y13101875D01*
X15518545*
X15518545D02*
X15510364Y13098125D01*
X15504909Y13090625*
X15502182Y13079375*
X14817636Y13331875D02*
Y13253125D01*
Y13331875D02*
X14842182D01*
X14850364Y13328125*
X14853091Y13324375*
X14855818Y13316875*
Y13309375*
X14853091Y13301875*
X14850364Y13298125*
X14842182Y13294375*
X14817636*
X14836727D02*
X14855818Y13253125D01*
X14880364Y13316875D02*
X14885818Y13320625D01*
X14894000Y13331875*
Y13253125*
X14954000Y13331875D02*
X14926727D01*
X14924000Y13298125*
X14926727Y13301875*
X14934909Y13305625*
X14943091*
X14951273Y13301875*
X14956727Y13294375*
X14959455Y13283125*
X14956727Y13275625*
X14954000Y13264375*
X14948545Y13256875*
X14948545D02*
X14940364Y13253125D01*
X14932182*
X14924000Y13256875*
X14921273Y13260625*
X14918545Y13268125*
X19192364Y12888125D02*
Y12944375D01*
X19189636Y12955625*
X19184182Y12963125*
X19176000Y12966875*
X19170545*
X19162364Y12963125*
X19156909Y12955625*
X19154182Y12944375*
Y12888125*
X19129636Y12903125D02*
X19124182Y12899375D01*
X19116000Y12888125*
Y12966875*
X19056000Y12888125D02*
X19083273D01*
X19086000Y12921875*
X19083273Y12918125*
X19075091Y12914375*
X19066909*
X19058727Y12918125*
X19053273Y12925625*
X19050545Y12936875*
X19053273Y12944375*
X19056000Y12955625*
X19061455Y12963125*
X19061455D02*
X19069636Y12966875D01*
X19077818*
X19086000Y12963125*
X19088727Y12959375*
X19091455Y12951875*
G54D11*
X13000000Y9300000D02*
G75*
G03X13300000Y9000000I300000J0D01*
G01X21300000*
G03X21600000Y9300000I0J300000*
G01Y14100000*
G03X21300000Y14400000I-300000J0*
G01X13300000*
G03X13000000Y14100000I0J-300000*
G01Y9300000*
G54D12*
G54D13*
X16172000Y13525000D02*
X16162000Y13550000D01*
X16152000Y13525000*
X16172000*
X16187000Y13515000D02*
X16162000Y13575000D01*
X16137000Y13515000*
X16187000*
X16162000Y13600000D02*
X16122000Y13505000D01*
X16202000*
X16162000Y13600000*
G54D15*
X13007500Y8028906D02*
Y7907500D01*
X13062045*
X13139318Y8028906D02*
X13102955Y7907500D01*
X13139318Y8028906D02*
X13175682Y7907500D01*
X13116591Y7947969D02*
X13162045D01*
X13216591Y8028906D02*
X13252955Y7971094D01*
X13252955D02*
Y7907500D01*
X13289318Y8028906D02*
X13252955Y7971094D01*
X13330227Y8028906D02*
Y7907500D01*
Y8028906D02*
X13389318D01*
X13330227Y7971094D02*
X13366591D01*
X13330227Y7907500D02*
X13389318D01*
X13430227Y8028906D02*
Y7907500D01*
Y8028906D02*
X13471136D01*
X13484773Y8023125*
X13489318Y8017344*
X13493864Y8005781*
Y7994219*
X13489318Y7982656*
X13484773Y7976875*
X13471136Y7971094*
X13430227*
X13462045D02*
X13493864Y7907500D01*
X13639318Y7959531D02*
X13721136D01*
X13007500Y8228906D02*
X13071136Y8107500D01*
Y8228906D02*
X13007500Y8107500D01*
X13112045Y8228906D02*
Y8107500D01*
Y8228906D02*
X13148409Y8107500D01*
X13184773Y8228906D02*
X13148409Y8107500D01*
X13184773Y8228906D02*
Y8107500D01*
X13252955Y8228906D02*
X13243864Y8223125D01*
X13234773Y8211563*
X13234773D02*
X13230227Y8200000D01*
X13225682Y8182656*
Y8153750*
X13230227Y8136406*
X13234773Y8124844*
X13243864Y8113281*
X13252955Y8107500*
X13252955D02*
X13271136D01*
X13280227Y8113281*
X13289318Y8124844*
X13293864Y8136406*
X13298409Y8153750*
Y8182656*
X13293864Y8200000*
X13289318Y8211563*
X13289318D02*
X13280227Y8223125D01*
X13271136Y8228906*
X13252955*
X13402955Y8211563D02*
X13393864Y8223125D01*
X13380227Y8228906*
X13362045*
X13362045D02*
X13348409Y8223125D01*
X13339318Y8211563*
X13339318D02*
Y8200000D01*
X13343864Y8188438*
X13343864D02*
X13348409Y8182656D01*
X13357500Y8176875*
X13384773Y8165313*
X13384773D02*
X13393864Y8159531D01*
X13398409Y8153750*
X13402955Y8142188*
X13402955D02*
Y8124844D01*
X13402955D02*
X13393864Y8113281D01*
X13380227Y8107500*
X13362045*
X13362045D02*
X13348409Y8113281D01*
X13339318Y8124844*
X13548409Y8228906D02*
X13612045Y8107500D01*
Y8228906D02*
X13548409Y8107500D01*
X13652955Y8228906D02*
Y8107500D01*
Y8228906D02*
X13693864D01*
X13707500Y8223125*
X13712045Y8217344*
X13712045D02*
X13716591Y8205781D01*
Y8188438*
X13716591D02*
X13712045Y8176875D01*
X13712045D02*
X13707500Y8171094D01*
X13693864Y8165313*
X13693864D02*
X13652955D01*
X13825682Y8200000D02*
X13821136Y8211563D01*
X13821136D02*
X13812045Y8223125D01*
X13812045D02*
X13802955Y8228906D01*
X13802955D02*
X13784773D01*
X13775682Y8223125*
X13766591Y8211563*
X13766591D02*
X13762045Y8200000D01*
X13762045D02*
X13757500Y8182656D01*
Y8153750*
X13762045Y8136406*
X13762045D02*
X13766591Y8124844D01*
X13775682Y8113281*
X13784773Y8107500*
X13802955*
X13802955D02*
X13812045Y8113281D01*
X13812045D02*
X13821136Y8124844D01*
X13825682Y8136406*
X13866591Y8228906D02*
Y8107500D01*
Y8228906D02*
X13907500D01*
X13921136Y8223125*
X13925682Y8217344*
X13930227Y8205781*
Y8194219*
X13925682Y8182656*
X13921136Y8176875*
X13907500Y8171094*
X13866591D02*
X13907500D01*
X13921136Y8165313*
X13921136D02*
X13925682Y8159531D01*
X13930227Y8147969*
Y8130625*
X13925682Y8119063*
X13925682D02*
X13921136Y8113281D01*
X13907500Y8107500*
X13866591*
X13971136Y8159531D02*
X14052955D01*
X14121136Y8228906D02*
X14107500Y8223125D01*
X14098409Y8205781*
X14093864Y8176875*
Y8159531*
X14098409Y8130625*
X14107500Y8113281*
X14121136Y8107500*
X14130227*
X14143864Y8113281*
X14152955Y8130625*
X14152955D02*
X14157500Y8159531D01*
Y8176875*
X14152955Y8205781*
X14152955D02*
X14143864Y8223125D01*
X14130227Y8228906*
X14121136*
X14198409Y8205781D02*
X14207500Y8211563D01*
X14207500D02*
X14221136Y8228906D01*
Y8107500*
X14289318Y8228906D02*
X14275682Y8223125D01*
X14266591Y8205781*
X14262045Y8176875*
X14262045D02*
Y8159531D01*
X14262045D02*
X14266591Y8130625D01*
X14275682Y8113281*
X14289318Y8107500*
X14298409*
X14312045Y8113281*
X14312045D02*
X14321136Y8130625D01*
X14325682Y8159531*
Y8176875*
X14321136Y8205781*
X14312045Y8223125*
X14312045D02*
X14298409Y8228906D01*
X14289318*
X14471136Y8205781D02*
X14480227Y8211563D01*
X14480227D02*
X14493864Y8228906D01*
Y8107500*
X14598409Y8228906D02*
X14552955Y8107500D01*
X14534773Y8228906D02*
X14598409D01*
X14721136Y8252031D02*
X14639318Y8067031D01*
X14789318Y8228906D02*
X14775682Y8223125D01*
X14766591Y8205781*
X14762045Y8176875*
X14762045D02*
Y8159531D01*
X14762045D02*
X14766591Y8130625D01*
X14775682Y8113281*
X14789318Y8107500*
X14798409*
X14812045Y8113281*
X14812045D02*
X14821136Y8130625D01*
X14825682Y8159531*
Y8176875*
X14821136Y8205781*
X14812045Y8223125*
X14812045D02*
X14798409Y8228906D01*
X14789318*
X14875682D02*
X14925682D01*
X14898409Y8182656*
X14912045*
X14912045D02*
X14921136Y8176875D01*
X14925682Y8171094*
X14930227Y8153750*
Y8142188*
X14930227D02*
X14925682Y8124844D01*
X14916591Y8113281*
X14902955Y8107500*
X14902955D02*
X14889318D01*
X14875682Y8113281*
X14871136Y8119063*
X14871136D02*
X14866591Y8130625D01*
X15052955Y8252031D02*
X14971136Y8067031D01*
X15121136Y8228906D02*
X15107500Y8223125D01*
X15098409Y8205781*
X15093864Y8176875*
Y8159531*
X15098409Y8130625*
X15107500Y8113281*
X15121136Y8107500*
X15130227*
X15143864Y8113281*
X15152955Y8130625*
X15152955D02*
X15157500Y8159531D01*
Y8176875*
X15152955Y8205781*
X15152955D02*
X15143864Y8223125D01*
X15130227Y8228906*
X15121136*
X15257500Y8188438D02*
X15252955Y8171094D01*
X15252955D02*
X15243864Y8159531D01*
X15230227Y8153750*
X15225682*
X15212045Y8159531*
X15212045D02*
X15202955Y8171094D01*
X15202955D02*
X15198409Y8188438D01*
X15198409D02*
Y8194219D01*
X15202955Y8211563*
X15202955D02*
X15212045Y8223125D01*
X15212045D02*
X15225682Y8228906D01*
X15230227*
X15243864Y8223125*
X15252955Y8211563*
X15252955D02*
X15257500Y8188438D01*
X15257500D02*
Y8159531D01*
X15252955Y8130625*
X15252955D02*
X15243864Y8113281D01*
X15230227Y8107500*
X15221136*
X15207500Y8113281*
X15202955Y8124844*
X13943864Y8028906D02*
X13907500Y7907500D01*
X13943864Y8028906D02*
X13980227Y7907500D01*
X13921136Y7947969D02*
X13966591D01*
X14084773Y8011563D02*
X14075682Y8023125D01*
X14062045Y8028906*
X14062045D02*
X14043864D01*
X14030227Y8023125*
X14021136Y8011563*
X14021136D02*
Y8000000D01*
X14025682Y7988438*
X14025682D02*
X14030227Y7982656D01*
X14039318Y7976875*
X14066591Y7965313*
X14066591D02*
X14075682Y7959531D01*
X14080227Y7953750*
X14084773Y7942188*
X14084773D02*
Y7924844D01*
X14075682Y7913281*
X14062045Y7907500*
X14062045D02*
X14043864D01*
X14030227Y7913281*
X14021136Y7924844*
X14189318Y8011563D02*
X14180227Y8023125D01*
X14166591Y8028906*
X14148409*
X14134773Y8023125*
X14125682Y8011563*
X14125682D02*
Y8000000D01*
X14130227Y7988438*
X14130227D02*
X14134773Y7982656D01*
X14143864Y7976875*
X14171136Y7965313*
X14171136D02*
X14180227Y7959531D01*
X14184773Y7953750*
X14189318Y7942188*
X14189318D02*
Y7924844D01*
X14180227Y7913281*
X14166591Y7907500*
X14148409*
X14134773Y7913281*
X14125682Y7924844*
X14230227Y8028906D02*
Y7907500D01*
Y8028906D02*
X14289318D01*
X14230227Y7971094D02*
X14266591D01*
X14230227Y7907500D02*
X14289318D01*
X14330227Y8028906D02*
Y7907500D01*
Y8028906D02*
X14366591Y7907500D01*
X14402955Y8028906D02*
X14366591Y7907500D01*
X14402955Y8028906D02*
Y7907500D01*
X14443864Y8028906D02*
Y7907500D01*
Y8028906D02*
X14484773D01*
X14498409Y8023125*
X14502955Y8017344*
X14502955D02*
X14507500Y8005781D01*
Y7994219*
X14502955Y7982656*
X14502955D02*
X14498409Y7976875D01*
X14484773Y7971094*
X14443864D02*
X14484773D01*
X14498409Y7965313*
X14498409D02*
X14502955Y7959531D01*
X14502955D02*
X14507500Y7947969D01*
Y7930625*
X14502955Y7919063*
X14502955D02*
X14498409Y7913281D01*
X14484773Y7907500*
X14443864*
X14548409Y8028906D02*
Y7907500D01*
X14602955*
X14643864Y8028906D02*
X14680227Y7971094D01*
Y7907500*
X14716591Y8028906D02*
X14680227Y7971094D01*
X14862045Y8028906D02*
Y7907500D01*
Y8028906D02*
X14893864D01*
X14907500Y8023125*
X14916591Y8011563*
X14916591D02*
X14921136Y8000000D01*
X14925682Y7982656*
Y7953750*
X14921136Y7936406*
X14916591Y7924844*
X14907500Y7913281*
X14893864Y7907500*
X14862045*
X14966591Y8028906D02*
Y7907500D01*
Y8028906D02*
X15007500D01*
X15021136Y8023125*
X15025682Y8017344*
X15030227Y8005781*
Y7994219*
X15025682Y7982656*
X15021136Y7976875*
X15007500Y7971094*
X14966591*
X14998409D02*
X15030227Y7907500D01*
X15107500Y8028906D02*
X15071136Y7907500D01*
X15107500Y8028906D02*
X15143864Y7907500D01*
X15084773Y7947969D02*
X15130227D01*
X15184773Y8028906D02*
X15207500Y7907500D01*
X15230227Y8028906D02*
X15207500Y7907500D01*
X15230227Y8028906D02*
X15252955Y7907500D01*
X15275682Y8028906D02*
X15252955Y7907500D01*
X15316591Y8028906D02*
Y7907500D01*
X15357500Y8028906D02*
Y7907500D01*
Y8028906D02*
X15421136Y7907500D01*
Y8028906D02*
Y7907500D01*
X15530227Y8000000D02*
X15525682Y8011563D01*
X15525682D02*
X15516591Y8023125D01*
X15507500Y8028906*
X15489318*
X15480227Y8023125*
X15471136Y8011563*
X15471136D02*
X15466591Y8000000D01*
X15462045Y7982656*
X15462045D02*
Y7953750D01*
X15462045D02*
X15466591Y7936406D01*
X15471136Y7924844*
X15480227Y7913281*
X15489318Y7907500*
X15507500*
X15516591Y7913281*
X15525682Y7924844*
X15530227Y7936406*
Y7953750*
X15507500D02*
X15530227D01*
X15707500Y8028906D02*
Y7907500D01*
X15675682Y8028906D02*
X15739318D01*
X15807500D02*
X15798409Y8023125D01*
X15789318Y8011563*
X15789318D02*
X15784773Y8000000D01*
X15780227Y7982656*
Y7953750*
X15784773Y7936406*
X15789318Y7924844*
X15798409Y7913281*
X15807500Y7907500*
X15825682*
X15834773Y7913281*
X15843864Y7924844*
X15848409Y7936406*
X15852955Y7953750*
X15852955D02*
Y7982656D01*
X15852955D02*
X15848409Y8000000D01*
X15843864Y8011563*
X15843864D02*
X15834773Y8023125D01*
X15825682Y8028906*
X15807500*
X15893864D02*
Y7907500D01*
Y8028906D02*
X15934773D01*
X15948409Y8023125*
X15952955Y8017344*
X15952955D02*
X15957500Y8005781D01*
Y7988438*
X15957500D02*
X15952955Y7976875D01*
X15952955D02*
X15948409Y7971094D01*
X15934773Y7965313*
X15934773D02*
X15893864D01*
G54D27*
X20550000Y12600000D02*
Y13600000D01*
X21930000*
Y12600000*
X20550000*
X14230000Y12300000D02*
Y11100000D01*
X12600000*
Y12300000*
X14230000*
X13630000Y14080000D02*
G03X13630000I-310000J0D01*
G01Y9320000D02*
G03X13630000I-310000J0D01*
G01X21590000D02*
G03X21590000I-310000J0D01*
G01Y14080000D02*
G03X21590000I-310000J0D01*
G01X20180000Y9990000D02*
Y10610000D01*
X21650000*
Y9990000*
X20180000*
Y11390000D02*
Y12010000D01*
X21650000*
Y11390000*
X20180000*
X15595000Y9630000D02*
X15305000D01*
Y9770000*
X15595000*
Y9630000*
X17695000Y9230000D02*
X17405000D01*
Y9370000*
X17695000*
Y9230000*
X13270000Y9755000D02*
Y10045000D01*
X13410000*
Y9755000*
X13270000*
X15475000Y12710000D02*
X15185000D01*
Y12850000*
X15475000*
Y12710000*
X14035000Y9490000D02*
X13745000D01*
Y9630000*
X14035000*
Y9490000*
X14705000Y10120000D02*
X14995000D01*
Y9980000*
X14705000*
Y10120000*
Y9920000D02*
X14995000D01*
Y9780000*
X14705000*
Y9920000*
X16405000Y9470000D02*
X16695000D01*
Y9330000*
X16405000*
Y9470000*
Y9770000D02*
X16695000D01*
Y9630000*
X16405000*
Y9770000*
X16380000Y10255000D02*
Y10545000D01*
X16520000*
Y10255000*
X16380000*
X13845000Y12530000D02*
X13555000D01*
Y12670000*
X13845000*
Y12530000*
X18345000Y10230000D02*
X18055000D01*
Y10370000*
X18345000*
Y10230000*
X20895000Y9530000D02*
X20605000D01*
Y9670000*
X20895000*
Y9530000*
Y9730000D02*
X20605000D01*
Y9870000*
X20895000*
Y9730000*
X13920000Y13745000D02*
Y13455000D01*
X13780000*
Y13745000*
X13920000*
X15595000Y10130000D02*
X15305000D01*
Y10270000*
X15595000*
Y10130000*
X14355000Y12470000D02*
X14645000D01*
Y12330000*
X14355000*
Y12470000*
X13780000Y13155000D02*
Y13445000D01*
X13920000*
Y13155000*
X13780000*
X15005000Y10270000D02*
X15295000D01*
Y10130000*
X15005000*
Y10270000*
Y9770000D02*
X15295000D01*
Y9630000*
X15005000*
Y9770000*
X18345000Y10680000D02*
X18055000D01*
Y10820000*
X18345000*
Y10680000*
X20255000Y9870000D02*
X20545000D01*
Y9730000*
X20255000*
Y9870000*
Y9670000D02*
X20545000D01*
Y9530000*
X20255000*
Y9670000*
X17405000Y9620000D02*
X17695000D01*
Y9480000*
X17405000*
Y9620000*
X20705000Y12270000D02*
X20995000D01*
Y12130000*
X20705000*
Y12270000*
X16345000Y10500000D02*
X16055000D01*
Y10640000*
X16345000*
Y10500000*
X15320000Y12135000D02*
Y12425000D01*
X15460000*
Y12135000*
X15320000*
X15045000Y13080000D02*
X14755000D01*
Y13220000*
X15045000*
Y13080000*
X18705000Y9760000D02*
X18995000D01*
Y9620000*
X18705000*
Y9760000*
X16365000Y12510000D02*
X16075000D01*
Y12650000*
X16365000*
Y12510000*
X20330000Y13055000D02*
Y13345000D01*
X20470000*
Y13055000*
X20330000*
X18705000Y9590000D02*
X18995000D01*
Y9450000*
X18705000*
Y9590000*
Y9930000D02*
X18995000D01*
Y9790000*
X18705000*
Y9930000*
X18055000Y10220000D02*
X18345000D01*
Y10080000*
X18055000*
Y10220000*
X13270000Y10105000D02*
Y10395000D01*
X13410000*
Y10105000*
X13270000*
X16675000Y11330000D02*
X16385000D01*
Y11470000*
X16675000*
Y11330000*
X16365000Y12710000D02*
X16075000D01*
Y12850000*
X16365000*
Y12710000*
X15605000Y10270000D02*
X15895000D01*
Y10130000*
X15605000*
Y10270000*
X14995000Y9630000D02*
X14705000D01*
Y9770000*
X14995000*
Y9630000*
X15605000Y9770000D02*
X15895000D01*
Y9630000*
X15605000*
Y9770000*
X13780000Y13755000D02*
Y14045000D01*
X13920000*
Y13755000*
X13780000*
X13920000Y13145000D02*
Y12855000D01*
X13780000*
Y13145000*
X13920000*
X14995000Y10130000D02*
X14705000D01*
Y10270000*
X14995000*
Y10130000*
X15045000Y12480000D02*
X14755000D01*
Y12620000*
X15045000*
Y12480000*
X18055000Y10520000D02*
X18345000D01*
Y10380000*
X18055000*
Y10520000*
X15645000Y13300000D02*
X15355000D01*
Y13440000*
X15645000*
Y13300000*
X15605000Y10100000D02*
X15895000D01*
Y9960000*
X15605000*
Y10100000*
X14490000Y11310000D02*
Y10990000D01*
X14310000*
Y11310000*
X14490000*
X13555000Y10870000D02*
X13845000D01*
Y10730000*
X13555000*
Y10870000*
X19345000Y13320000D02*
X19635000D01*
Y13180000*
X19345000*
Y13320000*
X19730000Y10030000D02*
X19630000Y10130000D01*
Y10470000*
X20070000*
Y10130000*
X19970000Y10030000*
X19730000*
X19180000Y9330000D02*
X19080000Y9430000D01*
Y9770000*
X19520000*
Y9430000*
X19420000Y9330000*
X19180000*
X18530000Y10180000D02*
X18430000Y10280000D01*
Y10620000*
X18870000*
Y10280000*
X18770000Y10180000*
X18530000*
X19730000Y9330000D02*
X19630000Y9430000D01*
Y9770000*
X20070000*
Y9430000*
X19970000Y9330000*
X19730000*
X18705000Y9250000D02*
X18995000D01*
Y9110000*
X18705000*
Y9250000*
Y9420000D02*
X18995000D01*
Y9280000*
X18705000*
Y9420000*
X18055000Y10670000D02*
X18345000D01*
Y10530000*
X18055000*
Y10670000*
X14750000Y12980000D02*
Y12720000D01*
X15050000*
Y12980000*
X14750000*
X14950000D02*
X15050000Y12880000D01*
Y12890000D02*
X14960000Y12980000D01*
X14970000D02*
X15050000Y12900000D01*
Y12910000D02*
X14980000Y12980000D01*
X14990000D02*
X15050000Y12920000D01*
X15000000Y12980000D02*
X15050000Y12930000D01*
Y12940000D02*
X15010000Y12980000D01*
X15020000D02*
X15050000Y12950000D01*
X15030000Y12980000D02*
X15050000Y12960000D01*
X15040000Y12980000D02*
X15050000Y12970000D01*
X17670000Y10100000D02*
X17930000D01*
Y10400000*
X17670000*
Y10100000*
Y10300000D02*
X17770000Y10400000D01*
X17760000D02*
X17670000Y10310000D01*
Y10320000D02*
X17750000Y10400000D01*
X17740000D02*
X17670000Y10330000D01*
Y10340000D02*
X17730000Y10400000D01*
X17670000Y10350000D02*
X17720000Y10400000D01*
X17710000D02*
X17670000Y10360000D01*
Y10370000D02*
X17700000Y10400000D01*
X17670000Y10380000D02*
X17690000Y10400000D01*
X17670000Y10390000D02*
X17680000Y10400000D01*
X13960000Y12920000D02*
Y14080000D01*
X14440000*
Y12920000*
X13960000*
X14975000Y9600000D02*
X15625000D01*
Y9100000D02*
G03Y9600000I0J250000D01*
G01Y9100000D02*
X14975000D01*
Y9600000D02*
G03Y9100000I0J-250000D01*
G01Y10800000D02*
X15625000D01*
Y10300000D02*
G03Y10800000I0J250000D01*
G01Y10300000D02*
X14975000D01*
Y10800000D02*
G03Y10300000I0J-250000D01*
G01X14315000Y9345000D02*
X14585000D01*
Y9655000*
X14315000*
Y9345000*
Y9555000D02*
X14415000Y9655000D01*
X14405000D02*
X14315000Y9565000D01*
Y9575000D02*
X14395000Y9655000D01*
X14385000D02*
X14315000Y9585000D01*
Y9595000D02*
X14375000Y9655000D01*
X14315000Y9605000D02*
X14365000Y9655000D01*
X14355000D02*
X14315000Y9615000D01*
Y9625000D02*
X14345000Y9655000D01*
X14315000Y9635000D02*
X14335000Y9655000D01*
X14315000Y9645000D02*
X14325000Y9655000D01*
X14315000Y10145000D02*
X14585000D01*
Y10455000*
X14315000*
Y10145000*
Y10355000D02*
X14415000Y10455000D01*
X14405000D02*
X14315000Y10365000D01*
Y10375000D02*
X14395000Y10455000D01*
X14385000D02*
X14315000Y10385000D01*
Y10395000D02*
X14375000Y10455000D01*
X14315000Y10405000D02*
X14365000Y10455000D01*
X14355000D02*
X14315000Y10415000D01*
Y10425000D02*
X14345000Y10455000D01*
X14315000Y10435000D02*
X14335000Y10455000D01*
X14315000Y10445000D02*
X14325000Y10455000D01*
X14315000Y9745000D02*
X14585000D01*
Y10055000*
X14315000*
Y9745000*
Y9955000D02*
X14415000Y10055000D01*
X14405000D02*
X14315000Y9965000D01*
Y9975000D02*
X14395000Y10055000D01*
X14385000D02*
X14315000Y9985000D01*
Y9995000D02*
X14375000Y10055000D01*
X14315000Y10005000D02*
X14365000Y10055000D01*
X14355000D02*
X14315000Y10015000D01*
Y10025000D02*
X14345000Y10055000D01*
X14315000Y10035000D02*
X14335000Y10055000D01*
X14315000Y10045000D02*
X14325000Y10055000D01*
X16090000Y10460000D02*
X16310000D01*
Y10240000*
X16090000*
Y10460000*
Y10360000D02*
X16190000Y10460000D01*
X16170000D02*
X16090000Y10380000D01*
Y10400000D02*
X16150000Y10460000D01*
X16130000D02*
X16090000Y10420000D01*
Y10440000D02*
X16110000Y10460000D01*
X16090000Y10450000D02*
X16100000Y10460000D01*
X16120000D02*
X16090000Y10430000D01*
X16140000Y10460000D02*
X16090000Y10410000D01*
Y10390000D02*
X16160000Y10460000D01*
X16090000Y10370000D02*
X16180000Y10460000D01*
X16090000Y10060000D02*
X16310000D01*
Y9840000*
X16090000*
Y10060000*
Y9960000D02*
X16190000Y10060000D01*
X16170000D02*
X16090000Y9980000D01*
Y10000000D02*
X16150000Y10060000D01*
X16130000D02*
X16090000Y10020000D01*
Y10040000D02*
X16110000Y10060000D01*
X16090000Y10050000D02*
X16100000Y10060000D01*
X16120000D02*
X16090000Y10030000D01*
X16140000Y10060000D02*
X16090000Y10010000D01*
Y9990000D02*
X16160000Y10060000D01*
X16090000Y9970000D02*
X16180000Y10060000D01*
X16090000Y9660000D02*
X16310000D01*
Y9440000*
X16090000*
Y9660000*
Y9560000D02*
X16190000Y9660000D01*
X16170000D02*
X16090000Y9580000D01*
Y9600000D02*
X16150000Y9660000D01*
X16130000D02*
X16090000Y9620000D01*
Y9640000D02*
X16110000Y9660000D01*
X16090000Y9650000D02*
X16100000Y9660000D01*
X16120000D02*
X16090000Y9630000D01*
X16140000Y9660000D02*
X16090000Y9610000D01*
Y9590000D02*
X16160000Y9660000D01*
X16090000Y9570000D02*
X16180000Y9660000D01*
X14790000Y12310000D02*
X15210000D01*
Y11890000*
X14790000*
Y12310000*
Y12210000D02*
X14890000Y12310000D01*
X14790000Y12220000D02*
X14880000Y12310000D01*
X14790000Y12230000D02*
X14870000Y12310000D01*
X14790000Y12240000D02*
X14860000Y12310000D01*
X14790000Y12250000D02*
X14850000Y12310000D01*
X14790000Y12260000D02*
X14840000Y12310000D01*
X14790000Y12270000D02*
X14830000Y12310000D01*
X14790000Y12280000D02*
X14820000Y12310000D01*
X14790000Y12290000D02*
X14810000Y12310000D01*
X14790000Y12300000D02*
X14800000Y12310000D01*
X13700000Y13170000D02*
Y13430000D01*
X13400000*
Y13170000*
X13700000*
X13500000D02*
X13400000Y13270000D01*
Y13260000D02*
X13490000Y13170000D01*
X13480000D02*
X13400000Y13250000D01*
Y13240000D02*
X13470000Y13170000D01*
X13460000D02*
X13400000Y13230000D01*
X13450000Y13170000D02*
X13400000Y13220000D01*
Y13210000D02*
X13440000Y13170000D01*
X13430000D02*
X13400000Y13200000D01*
X13420000Y13170000D02*
X13400000Y13190000D01*
X13410000Y13170000D02*
X13400000Y13180000D01*
X17925000Y9995000D02*
X18375000D01*
Y9205000*
X17925000*
Y9995000*
X18075000Y9895000D02*
G03X18075000I-50000J0D01*
G01X15190000Y10060000D02*
X15410000D01*
Y9840000*
X15190000*
Y10060000*
Y9960000D02*
X15290000Y10060000D01*
X15270000D02*
X15190000Y9980000D01*
Y10000000D02*
X15250000Y10060000D01*
X15230000D02*
X15190000Y10020000D01*
Y10040000D02*
X15210000Y10060000D01*
X15190000Y10050000D02*
X15200000Y10060000D01*
X15220000D02*
X15190000Y10030000D01*
X15240000Y10060000D02*
X15190000Y10010000D01*
Y9990000D02*
X15260000Y10060000D01*
X15190000Y9970000D02*
X15280000Y10060000D01*
X20675000Y9300000D02*
G03X20675000I-75000J0D01*
G01X13475000Y12800000D02*
G03X13475000I-75000J0D01*
G01X20675000Y14100000D02*
G03X20675000I-75000J0D01*
G01X18525000Y12010000D02*
X18235000D01*
Y12150000*
X18525000*
Y12010000*
X14355000Y12320000D02*
X14645000D01*
Y12180000*
X14355000*
Y12320000*
X20605000Y11070000D02*
X20895000D01*
Y10930000*
X20605000*
Y11070000*
Y11270000D02*
X20895000D01*
Y11130000*
X20605000*
Y11270000*
X14845000Y11380000D02*
X14555000D01*
Y11520000*
X14845000*
Y11380000*
X20255000Y11270000D02*
X20545000D01*
Y11130000*
X20255000*
Y11270000*
Y11070000D02*
X20545000D01*
Y10930000*
X20255000*
Y11070000*
X18235000Y12450000D02*
X18525000D01*
Y12310000*
X18235000*
Y12450000*
X19730000Y11430000D02*
X19630000Y11530000D01*
Y11870000*
X20070000*
Y11530000*
X19970000Y11430000*
X19730000*
Y10730000D02*
X19630000Y10830000D01*
Y11170000*
X20070000*
Y10830000*
X19970000Y10730000*
X19730000*
X19090000Y10080000D02*
X18980000Y10190000D01*
Y10620000*
X19520000*
Y10190000*
X19410000Y10080000*
X19090000*
X17960000Y10460000D02*
X17640000D01*
Y10640000*
X17960000*
Y10460000*
X13490000Y9850000D02*
Y10250000D01*
X13990000*
Y9850000*
X13490000*
X13640000Y9950000D02*
G03X13640000I-50000J0D01*
G01X18980000Y13100000D02*
X19240000D01*
Y13400000*
X18980000*
Y13100000*
Y13300000D02*
X19080000Y13400000D01*
X19070000D02*
X18980000Y13310000D01*
Y13320000D02*
X19060000Y13400000D01*
X19050000D02*
X18980000Y13330000D01*
Y13340000D02*
X19040000Y13400000D01*
X18980000Y13350000D02*
X19030000Y13400000D01*
X19020000D02*
X18980000Y13360000D01*
Y13370000D02*
X19010000Y13400000D01*
X18980000Y13380000D02*
X19000000Y13400000D01*
X18980000Y13390000D02*
X18990000Y13400000D01*
X14685000Y14220000D02*
X14975000D01*
Y14080000*
X14685000*
Y14220000*
Y13800000D02*
X14975000D01*
Y13660000*
X14685000*
Y13800000*
X15787500Y11270000D02*
Y10980000D01*
X15647500*
Y11270000*
X15787500*
X19955000Y13320000D02*
X20245000D01*
Y13180000*
X19955000*
Y13320000*
X20370000Y13895000D02*
Y13605000D01*
X20230000*
Y13895000*
X20370000*
X18525000Y12460000D02*
X18235000D01*
Y12600000*
X18525000*
Y12460000*
X17655000Y10820000D02*
X17945000D01*
Y10680000*
X17655000*
Y10820000*
X15327500Y10980000D02*
Y11270000D01*
X15467500*
Y10980000*
X15327500*
X18965000Y13590000D02*
X19255000D01*
Y13450000*
X18965000*
Y13590000*
X15297500Y11225000D02*
X14977500D01*
Y11405000*
X15297500*
Y11225000*
X20955000Y11070000D02*
X21245000D01*
Y10930000*
X20955000*
Y11070000*
X17170000Y11465000D02*
Y11175000D01*
X17030000*
Y11465000*
X17170000*
X17470000D02*
Y11175000D01*
X17330000*
Y11465000*
X17470000*
X17525000Y13460000D02*
X17815000D01*
Y13320000*
X17525000*
Y13460000*
X18235000Y12890000D02*
X18525000D01*
Y12750000*
X18235000*
Y12890000*
X17225000Y13460000D02*
X17515000D01*
Y13320000*
X17225000*
Y13460000*
X18235000Y12300000D02*
X18525000D01*
Y12160000*
X18235000*
Y12300000*
X16375000Y11910000D02*
X16085000D01*
Y12050000*
X16375000*
Y11910000*
X17945000Y11330000D02*
X17655000D01*
Y11470000*
X17945000*
Y11330000*
X15270000Y13245000D02*
Y12955000D01*
X15130000*
Y13245000*
X15270000*
X14645000Y12030000D02*
X14355000D01*
Y12170000*
X14645000*
Y12030000*
X16405000Y10020000D02*
X16695000D01*
Y9880000*
X16405000*
Y10020000*
Y9620000D02*
X16695000D01*
Y9480000*
X16405000*
Y9620000*
X13405000Y13670000D02*
X13695000D01*
Y13530000*
X13405000*
Y13670000*
X17695000Y9630000D02*
X17405000D01*
Y9770000*
X17695000*
Y9630000*
X17320000Y11465000D02*
Y11175000D01*
X17180000*
Y11465000*
X17320000*
X15627500Y11270000D02*
Y10980000D01*
X15487500*
Y11270000*
X15627500*
X18960000Y15100000D02*
X15640000D01*
Y13650000*
X18960000*
Y15100000*
X14607500Y11015000D02*
X14867500D01*
Y11315000*
X14607500*
Y11015000*
Y11215000D02*
X14707500Y11315000D01*
X14697500D02*
X14607500Y11225000D01*
Y11235000D02*
X14687500Y11315000D01*
X14677500D02*
X14607500Y11245000D01*
Y11255000D02*
X14667500Y11315000D01*
X14607500Y11265000D02*
X14657500Y11315000D01*
X14647500D02*
X14607500Y11275000D01*
Y11285000D02*
X14637500Y11315000D01*
X14607500Y11295000D02*
X14627500Y11315000D01*
X14607500Y11305000D02*
X14617500Y11315000D01*
X14330000Y11355000D02*
Y11645000D01*
X14470000*
Y11355000*
X14330000*
X14977500Y11205000D02*
X15297500D01*
Y10985000*
X14977500*
Y11205000*
X16600000Y11700000D02*
Y13100000D01*
X18000000*
Y11700000*
X16600000*
X16740000Y11800000D02*
G03X16740000I-40000J0D01*
G01X14845000Y11530000D02*
X14555000D01*
Y11670000*
X14845000*
Y11530000*
X14835000Y11670000D02*
Y11530000D01*
X14825000D02*
Y11670000D01*
X14815000Y11530000D02*
Y11670000D01*
X14805000Y11530000D02*
Y11670000D01*
X14795000Y11530000D02*
Y11670000D01*
X14785000Y11530000D02*
Y11670000D01*
X14685000Y13650000D02*
X14975000D01*
Y13510000*
X14685000*
Y13650000*
X14695000Y13510000D02*
Y13650000D01*
X14705000D02*
Y13510000D01*
X14715000Y13650000D02*
Y13510000D01*
X14725000Y13650000D02*
Y13510000D01*
X14735000Y13650000D02*
Y13510000D01*
X14745000Y13650000D02*
Y13510000D01*
X14685000Y14070000D02*
X14975000D01*
Y13930000*
X14685000*
Y14070000*
X14695000Y13930000D02*
Y14070000D01*
X14705000D02*
Y13930000D01*
X14715000Y14070000D02*
Y13930000D01*
X14725000Y14070000D02*
Y13930000D01*
X14735000Y14070000D02*
Y13930000D01*
X14745000Y14070000D02*
Y13930000D01*
X17081500Y9334500D02*
X17335500D01*
Y9588500*
X17081500*
Y9334500*
X20223000Y12673000D02*
X20477000D01*
Y12927000*
X20223000*
Y12673000*
X17081500Y10350500D02*
X17335500D01*
Y10604500*
X17081500*
Y10350500*
Y9588500D02*
X17335500D01*
Y9842500*
X17081500*
Y9588500*
Y10096500D02*
X17335500D01*
Y10350500*
X17081500*
Y10096500*
Y9842500D02*
X17335500D01*
Y10096500*
X17081500*
Y9842500*
X16827500Y9080500D02*
X17081500D01*
Y9334500*
X16827500*
Y9080500*
X17081500D02*
X17335500D01*
Y9334500*
X17081500*
Y9080500*
X19050000Y11176000D02*
X19304000D01*
Y11430000*
X19050000*
Y11176000*
X17081500Y10604500D02*
X17335500D01*
Y10858500*
X17081500*
Y10604500*
X19430000Y14070000D02*
X20070000D01*
Y13430000*
X19430000*
Y14070000*
Y13070000D02*
X20070000D01*
Y12430000*
X19430000*
Y13070000*
X15605000Y9940000D02*
X15895000D01*
Y9800000*
X15605000*
Y9940000*
X19050000Y11430000D02*
X19304000D01*
Y11684000*
X19050000*
Y11430000*
Y11684000D02*
X19304000D01*
Y11938000*
X19050000*
Y11684000*
Y11938000D02*
X19304000D01*
Y12192000*
X19050000*
Y11938000*
Y12192000D02*
X19304000D01*
Y12446000*
X19050000*
Y12192000*
X16129000Y11112500D02*
X16383000D01*
Y11366500*
X16129000*
Y11112500*
X15240000Y14033500D02*
X15494000D01*
Y14287500*
X15240000*
Y14033500*
Y13779500D02*
X15494000D01*
Y14033500*
X15240000*
Y13779500*
X18542000Y10731500D02*
X18796000D01*
Y10985500*
X18542000*
Y10731500*
X15370000Y12950000D02*
X15630000D01*
Y13250000*
X15370000*
Y12950000*
Y13150000D02*
X15470000Y13250000D01*
X15460000D02*
X15370000Y13160000D01*
Y13170000D02*
X15450000Y13250000D01*
X15440000D02*
X15370000Y13180000D01*
Y13190000D02*
X15430000Y13250000D01*
X15370000Y13200000D02*
X15420000Y13250000D01*
X15410000D02*
X15370000Y13210000D01*
Y13220000D02*
X15400000Y13250000D01*
X15370000Y13230000D02*
X15390000Y13250000D01*
X15370000Y13240000D02*
X15380000Y13250000D01*
X14755000Y13370000D02*
X15045000D01*
Y13230000*
X14755000*
Y13370000*
X19220000Y12810000D02*
X19000000D01*
Y13030000*
X19220000*
Y12810000*
Y12910000D02*
X19120000Y12810000D01*
X19140000D02*
X19220000Y12890000D01*
Y12870000D02*
X19160000Y12810000D01*
X19180000D02*
X19220000Y12850000D01*
Y12830000D02*
X19200000Y12810000D01*
X19220000Y12820000D02*
X19210000Y12810000D01*
X19190000D02*
X19220000Y12840000D01*
X19170000Y12810000D02*
X19220000Y12860000D01*
Y12880000D02*
X19150000Y12810000D01*
X19220000Y12900000D02*
X19130000Y12810000D01*
G74*
X0Y0D02*
M02*
