*
*
G04 PADS Layout (Build Number 2008.43.1) generated Gerber (RS-274-X) file*
G04 PC Version=2.1*
*
%IN "XPCB-019.pcb"*%
*
%MOMM*%
*
%FSLAX35Y35*%
*
*
*
*
G04 PC Standard Apertures*
*
*
G04 Thermal Relief Aperture macro.*
%AMTER*
1,1,$1,0,0*
1,0,$1-$2,0,0*
21,0,$3,$4,0,0,45*
21,0,$3,$4,0,0,135*
%
*
*
G04 Annular Aperture macro.*
%AMANN*
1,1,$1,0,0*
1,0,$2,0,0*
%
*
*
G04 Odd Aperture macro.*
%AMODD*
1,1,$1,0,0*
1,0,$1-0.005,0,0*
%
*
*
G04 PC Custom Aperture Macros*
*
*
*
*
*
*
G04 PC Aperture Table*
*
%ADD012C,0.0254*%
%ADD026C,0.5*%
%ADD027C,0.1*%
*
*
*
*
G04 PC Circuitry*
G04 Layer Name XPCB-019.pcb - circuitry*
%LPD*%
*
*
G04 PC Custom Flashes*
G04 Layer Name XPCB-019.pcb - flashes*
%LPD*%
*
*
G04 PC Circuitry*
G04 Layer Name XPCB-019.pcb - circuitry*
%LPD*%
*
G54D12*
G54D26*
G01X10100000Y10100000D03*
Y10000000D03*
Y9900000D03*
X10000000D03*
Y10000000D03*
Y10100000D03*
X9900000D03*
Y9900000D03*
Y10000000D03*
X10580000Y10485000D03*
X10485000Y10580000D03*
X9515000D03*
X9420000Y10485000D03*
X9515000Y9420000D03*
X9420000Y9515000D03*
X10480000Y9420000D03*
X10580000Y9470000D03*
X10720000Y9655000D03*
G54D27*
X10771311Y9485000D02*
G75*
G03X10771311I-36311J0D01*
G01X10561311Y9620000D02*
G03X10561311I-36311J0D01*
G01Y10375000D02*
G03X10561311I-36311J0D01*
G01X10411311Y9475000D02*
G03X10411311I-36311J0D01*
G01X10381311Y9825000D02*
G03X10381311I-36311J0D01*
G01Y9925000D02*
G03X10381311I-36311J0D01*
G01Y10025000D02*
G03X10381311I-36311J0D01*
G01Y10125000D02*
G03X10381311I-36311J0D01*
G01Y10225000D02*
G03X10381311I-36311J0D01*
G01X10261311Y9655000D02*
G03X10261311I-36311J0D01*
G01X10301311Y9775000D02*
G03X10301311I-36311J0D01*
G01Y9875000D02*
G03X10301311I-36311J0D01*
G01Y9975000D02*
G03X10301311I-36311J0D01*
G01Y10075000D02*
G03X10301311I-36311J0D01*
G01Y10175000D02*
G03X10301311I-36311J0D01*
G01X10161311Y9655000D02*
G03X10161311I-36311J0D01*
G01X10211311Y9735000D02*
G03X10211311I-36311J0D01*
G01X10261311Y10265000D02*
G03X10261311I-36311J0D01*
G01X10411311Y10525000D02*
G03X10411311I-36311J0D01*
G01X10061311Y9655000D02*
G03X10061311I-36311J0D01*
G01X10111311Y9735000D02*
G03X10111311I-36311J0D01*
G01X10161311Y10265000D02*
G03X10161311I-36311J0D01*
G01X10211311Y10345000D02*
G03X10211311I-36311J0D01*
G01X9961311Y9655000D02*
G03X9961311I-36311J0D01*
G01X10011311Y9735000D02*
G03X10011311I-36311J0D01*
G01X10061311Y10265000D02*
G03X10061311I-36311J0D01*
G01X10111311Y10345000D02*
G03X10111311I-36311J0D01*
G01X9861311Y9655000D02*
G03X9861311I-36311J0D01*
G01X9911311Y9735000D02*
G03X9911311I-36311J0D01*
G01X9961311Y10265000D02*
G03X9961311I-36311J0D01*
G01X10011311Y10345000D02*
G03X10011311I-36311J0D01*
G01X9661311Y9475000D02*
G03X9661311I-36311J0D01*
G01X9811311Y9735000D02*
G03X9811311I-36311J0D01*
G01X9861311Y10265000D02*
G03X9861311I-36311J0D01*
G01X9911311Y10345000D02*
G03X9911311I-36311J0D01*
G01X9771311Y9825000D02*
G03X9771311I-36311J0D01*
G01Y9925000D02*
G03X9771311I-36311J0D01*
G01Y10025000D02*
G03X9771311I-36311J0D01*
G01X9691311Y9775000D02*
G03X9691311I-36311J0D01*
G01Y9875000D02*
G03X9691311I-36311J0D01*
G01Y9975000D02*
G03X9691311I-36311J0D01*
G01X9761311Y10265000D02*
G03X9761311I-36311J0D01*
G01X9811311Y10345000D02*
G03X9811311I-36311J0D01*
G01X9661311Y10525000D02*
G03X9661311I-36311J0D01*
G01X9511311Y9625000D02*
G03X9511311I-36311J0D01*
G01Y10375000D02*
G03X9511311I-36311J0D01*
G01X10771311Y9485000D02*
G03X10771311I-36311J0D01*
G01X10561311Y9620000D02*
G03X10561311I-36311J0D01*
G01Y10375000D02*
G03X10561311I-36311J0D01*
G01X10411311Y9475000D02*
G03X10411311I-36311J0D01*
G01X10364225Y9694197D02*
G03X10325775I-19225J30803D01*
G01X10364225D02*
G03Y9690803I1059J-1697D01*
G01X10325775D02*
G03X10364225I19225J-30803D01*
G01X10325775D02*
G03Y9694197I-1059J1697D01*
G01X10381311Y9825000D02*
G03X10381311I-36311J0D01*
G01Y9925000D02*
G03X10381311I-36311J0D01*
G01Y10025000D02*
G03X10381311I-36311J0D01*
G01Y10125000D02*
G03X10381311I-36311J0D01*
G01Y10225000D02*
G03X10381311I-36311J0D01*
G01X10261311Y9655000D02*
G03X10261311I-36311J0D01*
G01X10301311Y9775000D02*
G03X10301311I-36311J0D01*
G01Y9875000D02*
G03X10301311I-36311J0D01*
G01Y9975000D02*
G03X10301311I-36311J0D01*
G01Y10075000D02*
G03X10301311I-36311J0D01*
G01Y10175000D02*
G03X10301311I-36311J0D01*
G01X10161311Y9655000D02*
G03X10161311I-36311J0D01*
G01X10211311Y9735000D02*
G03X10211311I-36311J0D01*
G01X10261311Y10265000D02*
G03X10261311I-36311J0D01*
G01X10309197Y10325775D02*
G03Y10364225I30803J19225D01*
G01Y10325775D02*
G03X10305803I-1697J-1059D01*
G01Y10364225D02*
G03Y10325775I-30803J-19225D01*
G01Y10364225D02*
G03X10309197I1697J1059D01*
G01X10411311Y10525000D02*
G03X10411311I-36311J0D01*
G01X10061311Y9655000D02*
G03X10061311I-36311J0D01*
G01X10111311Y9735000D02*
G03X10111311I-36311J0D01*
G01X10161311Y10265000D02*
G03X10161311I-36311J0D01*
G01X10211311Y10345000D02*
G03X10211311I-36311J0D01*
G01X9961311Y9655000D02*
G03X9961311I-36311J0D01*
G01X10011311Y9735000D02*
G03X10011311I-36311J0D01*
G01X10061311Y10265000D02*
G03X10061311I-36311J0D01*
G01X10111311Y10345000D02*
G03X10111311I-36311J0D01*
G01X9861311Y9655000D02*
G03X9861311I-36311J0D01*
G01X9911311Y9735000D02*
G03X9911311I-36311J0D01*
G01X9961311Y10265000D02*
G03X9961311I-36311J0D01*
G01X10011311Y10345000D02*
G03X10011311I-36311J0D01*
G01X9661311Y9475000D02*
G03X9661311I-36311J0D01*
G01X9694197Y9635775D02*
G03Y9674225I30803J19225D01*
G01Y9635775D02*
G03X9690803I-1697J-1059D01*
G01Y9674225D02*
G03Y9635775I-30803J-19225D01*
G01Y9674225D02*
G03X9694197I1697J1059D01*
G01X9811311Y9735000D02*
G03X9811311I-36311J0D01*
G01X9861311Y10265000D02*
G03X9861311I-36311J0D01*
G01X9911311Y10345000D02*
G03X9911311I-36311J0D01*
G01X9771311Y9825000D02*
G03X9771311I-36311J0D01*
G01Y9925000D02*
G03X9771311I-36311J0D01*
G01Y10025000D02*
G03X9771311I-36311J0D01*
G01X9691311Y9775000D02*
G03X9691311I-36311J0D01*
G01Y9875000D02*
G03X9691311I-36311J0D01*
G01Y9975000D02*
G03X9691311I-36311J0D01*
G01X9761311Y10265000D02*
G03X9761311I-36311J0D01*
G01X9811311Y10345000D02*
G03X9811311I-36311J0D01*
G01X9661311Y10525000D02*
G03X9661311I-36311J0D01*
G01X9511311Y9625000D02*
G03X9511311I-36311J0D01*
G01Y10375000D02*
G03X9511311I-36311J0D01*
G01X10370419Y10364828D02*
X11371182Y11365591D01*
X10374535Y10356216D02*
X11383910Y11365591D01*
X10376310Y10345263D02*
X11396638Y11365591D01*
X10372418Y10328643D02*
X11409365Y11365591D01*
X10267712Y10211209D02*
X11422093Y11365591D01*
X10323467Y10254237D02*
X11434821Y11365591D01*
X10343225Y10261267D02*
X11447549Y11365591D01*
X10354682Y10259996D02*
X11460277Y11365591D01*
X10518054Y10410640D02*
X11473005Y11365591D01*
X10530960Y10410818D02*
X11485733Y11365591D01*
X10540640Y10407770D02*
X11498461Y11365591D01*
X10548380Y10402782D02*
X11511188Y11365591D01*
X10554498Y10396173D02*
X11523916Y11365591D01*
X10558945Y10387892D02*
X11536644Y11365591D01*
X10561228Y10377447D02*
X11549372Y11365591D01*
X10559138Y10362629D02*
X11562100Y11365591D01*
X10364724Y10155487D02*
X11574828Y11365591D01*
X10371639Y10149674D02*
X11587556Y11365591D01*
X10376948Y10142256D02*
X11600284Y11365591D01*
X10380419Y10132998D02*
X11613011Y11365591D01*
X10381082Y10120934D02*
X11625739Y11365591D01*
X10331639Y10058763D02*
X11638467Y11365591D01*
X10346867Y10061263D02*
X11651195Y11365591D01*
X10357444Y10059112D02*
X11663923Y11365591D01*
X10365813Y10054753D02*
X11676651Y11365591D01*
X10372499Y10048712D02*
X11689379Y11365591D01*
X10377569Y10041053D02*
X11702106Y11365591D01*
X10380727Y10031484D02*
X11714834Y11365591D01*
X10380779Y10018807D02*
X11727562Y11365591D01*
X10334440Y9959741D02*
X11740290Y11365591D01*
X10348562Y9961135D02*
X11753018Y11365591D01*
X10358758Y9958603D02*
X11765746Y11365591D01*
X10366869Y9953986D02*
X11778474Y11365591D01*
X10373327Y9947716D02*
X11791201Y11365591D01*
X10378152Y9939813D02*
X11803929Y11365591D01*
X10380977Y9929911D02*
X11816657Y11365591D01*
X10380304Y9916510D02*
X11829385Y11365591D01*
X10336923Y9860401D02*
X11842113Y11365591D01*
X10350188Y9860938D02*
X11854841Y11365591D01*
X10360031Y9858053D02*
X11867569Y11365591D01*
X10367891Y9853186D02*
X11880297Y11365591D01*
X10374122Y9846688D02*
X11893024Y11365591D01*
X10378694Y9838533D02*
X11905752Y11365591D01*
X10381163Y9828273D02*
X11918480Y11365591D01*
X10379598Y9813981D02*
X11931208Y11365591D01*
X10339187Y9760842D02*
X11943936Y11365591D01*
X10351750Y9760678D02*
X11956664Y11365591D01*
X10361265Y9757464D02*
X11969392Y11365591D01*
X10368881Y9752352D02*
X11982120Y11365591D01*
X10374883Y9745627D02*
X11994847Y11365591D01*
X10379196Y9737211D02*
X12007575Y11365591D01*
X10381277Y9726565D02*
X12020303Y11365591D01*
X10378548Y9711108D02*
X12033031Y11365591D01*
X10368145Y9687978D02*
X12045759Y11365591D01*
X10374318Y9681422D02*
X12058487Y11365591D01*
X10378826Y9673202D02*
X12071215Y11365591D01*
X10381199Y9662847D02*
X12083942Y11365591D01*
X10379371Y9648292D02*
X12096670Y11365591D01*
X9580271Y8836463D02*
X12109398Y11365591D01*
X9592999Y8836463D02*
X12122126Y11365591D01*
X9605726Y8836463D02*
X12134854Y11365591D01*
X9618454Y8836463D02*
X12147582Y11365591D01*
X9631182Y8836463D02*
X12160310Y11365591D01*
X9643910Y8836463D02*
X12173038Y11365591D01*
X9656638Y8836463D02*
X12185765Y11365591D01*
X9669366Y8836463D02*
X12198493Y11365591D01*
X9682094Y8836463D02*
X12211221Y11365591D01*
X10512420Y9654062D02*
X12223949Y11365591D01*
X10527322Y9656236D02*
X12236677Y11365591D01*
X10537795Y9653981D02*
X12249405Y11365591D01*
X10546096Y9649554D02*
X12262133Y11365591D01*
X10552721Y9643452D02*
X12274860Y11365591D01*
X10557727Y9635729D02*
X12287588Y11365591D01*
X10560799Y9626074D02*
X12300316Y11365591D01*
X10560672Y9613218D02*
X12313044Y11365591D01*
X9796644Y8836463D02*
X12325772Y11365591D01*
X9809372Y8836463D02*
X12338500Y11365591D01*
X9822100Y8836463D02*
X12351228Y11365591D01*
X9834828Y8836463D02*
X12363956Y11365591D01*
X9847556Y8836463D02*
X12376683Y11365591D01*
X9860284Y8836463D02*
X12389411Y11365591D01*
X9873012Y8836463D02*
X12402139Y11365591D01*
X9885740Y8836463D02*
X12414867Y11365591D01*
X9898467Y8836463D02*
X12427595Y11365591D01*
X9911195Y8836463D02*
X12440323Y11365591D01*
X9923923Y8836463D02*
X12453051Y11365591D01*
X9936651Y8836463D02*
X12465778Y11365591D01*
X9949379Y8836463D02*
X12478506Y11365591D01*
X9962107Y8836463D02*
X12491234Y11365591D01*
X9974835Y8836463D02*
X12503962Y11365591D01*
X9987562Y8836463D02*
X12516690Y11365591D01*
X10000290Y8836463D02*
X12529418Y11365591D01*
X10013018Y8836463D02*
X12542146Y11365591D01*
X10025746Y8836463D02*
X12554874Y11365591D01*
X10720142Y9518131D02*
X12567601Y11365591D01*
X10736034Y9521296D02*
X12580329Y11365591D01*
X10746804Y9519338D02*
X12593057Y11365591D01*
X10755300Y9515106D02*
X12605785Y11365591D01*
X10762095Y9509173D02*
X12618513Y11365591D01*
X10767279Y9501629D02*
X12631241Y11365591D01*
X10770588Y9492210D02*
X12643969Y11365591D01*
X10770941Y9479836D02*
X12656696Y11365591D01*
X10140297Y8836463D02*
X12669424Y11365591D01*
X10153025Y8836463D02*
X12682152Y11365591D01*
X10165753Y8836463D02*
X12691425Y11362136D01*
X10178480Y8836463D02*
X12691425Y11349408D01*
X10191208Y8836463D02*
X12691425Y11336680D01*
X10203936Y8836463D02*
X12691425Y11323953D01*
X10216664Y8836463D02*
X12691425Y11311225D01*
X10229392Y8836463D02*
X12691425Y11298497D01*
X10242120Y8836463D02*
X12691425Y11285769D01*
X10254848Y8836463D02*
X12691425Y11273041D01*
X10267576Y8836463D02*
X12691425Y11260313D01*
X10280303Y8836463D02*
X12691425Y11247585D01*
X10293031Y8836463D02*
X12691425Y11234858D01*
X10305759Y8836463D02*
X12691425Y11222130D01*
X10318487Y8836463D02*
X12691425Y11209402D01*
X10331215Y8836463D02*
X12691425Y11196674D01*
X10343943Y8836463D02*
X12691425Y11183946D01*
X10356671Y8836463D02*
X12691425Y11171218D01*
X10369398Y8836463D02*
X12691425Y11158490D01*
X10382126Y8836463D02*
X12691425Y11145762D01*
X10394854Y8836463D02*
X12691425Y11133035D01*
X10407582Y8836463D02*
X12691425Y11120307D01*
X10420310Y8836463D02*
X12691425Y11107579D01*
X10433038Y8836463D02*
X12691425Y11094851D01*
X10445766Y8836463D02*
X12691425Y11082123D01*
X10458494Y8836463D02*
X12691425Y11069395D01*
X10471221Y8836463D02*
X12691425Y11056667D01*
X10483949Y8836463D02*
X12691425Y11043940D01*
X10496677Y8836463D02*
X12691425Y11031212D01*
X10509405Y8836463D02*
X12691425Y11018484D01*
X10522133Y8836463D02*
X12691425Y11005756D01*
X10534861Y8836463D02*
X12691425Y10993028D01*
X10547589Y8836463D02*
X12691425Y10980300D01*
X10560316Y8836463D02*
X12691425Y10967572D01*
X10573044Y8836463D02*
X12691425Y10954844D01*
X10585772Y8836463D02*
X12691425Y10942117D01*
X10598500Y8836463D02*
X12691425Y10929389D01*
X10611228Y8836463D02*
X12691425Y10916661D01*
X10623956Y8836463D02*
X12691425Y10903933D01*
X10636684Y8836463D02*
X12691425Y10891205D01*
X10649412Y8836463D02*
X12691425Y10878477D01*
X10662139Y8836463D02*
X12691425Y10865749D01*
X10674867Y8836463D02*
X12691425Y10853022D01*
X10687595Y8836463D02*
X12691425Y10840294D01*
X10700323Y8836463D02*
X12691425Y10827566D01*
X10713051Y8836463D02*
X12691425Y10814838D01*
X10725779Y8836463D02*
X12691425Y10802110D01*
X10738507Y8836463D02*
X12691425Y10789382D01*
X10751234Y8836463D02*
X12691425Y10776654D01*
X10763962Y8836463D02*
X12691425Y10763926D01*
X10776690Y8836463D02*
X12691425Y10751199D01*
X10789418Y8836463D02*
X12691425Y10738471D01*
X10802146Y8836463D02*
X12691425Y10725743D01*
X10814874Y8836463D02*
X12691425Y10713015D01*
X10827602Y8836463D02*
X12691425Y10700287D01*
X10840330Y8836463D02*
X12691425Y10687559D01*
X10853057Y8836463D02*
X12691425Y10674831D01*
X10865785Y8836463D02*
X12691425Y10662104D01*
X10878513Y8836463D02*
X12691425Y10649376D01*
X10891241Y8836463D02*
X12691425Y10636648D01*
X10903969Y8836463D02*
X12691425Y10623920D01*
X10916697Y8836463D02*
X12691425Y10611192D01*
X10929425Y8836463D02*
X12691425Y10598464D01*
X10942152Y8836463D02*
X12691425Y10585736D01*
X10954880Y8836463D02*
X12691425Y10573008D01*
X10967608Y8836463D02*
X12691425Y10560281D01*
X10980336Y8836463D02*
X12691425Y10547553D01*
X10993064Y8836463D02*
X12691425Y10534825D01*
X11005792Y8836463D02*
X12691425Y10522097D01*
X11018520Y8836463D02*
X12691425Y10509369D01*
X11031248Y8836463D02*
X12691425Y10496641D01*
X11043975Y8836463D02*
X12691425Y10483913D01*
X11056703Y8836463D02*
X12691425Y10471186D01*
X11069431Y8836463D02*
X12691425Y10458458D01*
X11082159Y8836463D02*
X12691425Y10445730D01*
X11094887Y8836463D02*
X12691425Y10433002D01*
X11107615Y8836463D02*
X12691425Y10420274D01*
X11120343Y8836463D02*
X12691425Y10407546D01*
X11133070Y8836463D02*
X12691425Y10394818D01*
X11145798Y8836463D02*
X12691425Y10382090D01*
X11158526Y8836463D02*
X12691425Y10369363D01*
X11171254Y8836463D02*
X12691425Y10356635D01*
X11183982Y8836463D02*
X12691425Y10343907D01*
X11196710Y8836463D02*
X12691425Y10331179D01*
X11209438Y8836463D02*
X12691425Y10318451D01*
X11222166Y8836463D02*
X12691425Y10305723D01*
X11234893Y8836463D02*
X12691425Y10292995D01*
X11247621Y8836463D02*
X12691425Y10280268D01*
X11260349Y8836463D02*
X12691425Y10267540D01*
X11273077Y8836463D02*
X12691425Y10254812D01*
X11285805Y8836463D02*
X12691425Y10242084D01*
X11298533Y8836463D02*
X12691425Y10229356D01*
X11311261Y8836463D02*
X12691425Y10216628D01*
X11323988Y8836463D02*
X12691425Y10203900D01*
X11336716Y8836463D02*
X12691425Y10191172D01*
X11349444Y8836463D02*
X12691425Y10178445D01*
X11362172Y8836463D02*
X12691425Y10165717D01*
X11374900Y8836463D02*
X12691425Y10152989D01*
X11387628Y8836463D02*
X12691425Y10140261D01*
X11400356Y8836463D02*
X12691425Y10127533D01*
X11413084Y8836463D02*
X12691425Y10114805D01*
X11425811Y8836463D02*
X12691425Y10102077D01*
X11438539Y8836463D02*
X12691425Y10089350D01*
X11451267Y8836463D02*
X12691425Y10076622D01*
X11463995Y8836463D02*
X12691425Y10063894D01*
X11476723Y8836463D02*
X12691425Y10051166D01*
X11489451Y8836463D02*
X12691425Y10038438D01*
X11502179Y8836463D02*
X12691425Y10025710D01*
X11514906Y8836463D02*
X12691425Y10012982D01*
X11527634Y8836463D02*
X12691425Y10000254D01*
X11540362Y8836463D02*
X12691425Y9987527D01*
X11553090Y8836463D02*
X12691425Y9974799D01*
X11565818Y8836463D02*
X12691425Y9962071D01*
X11578546Y8836463D02*
X12691425Y9949343D01*
X11591274Y8836463D02*
X12691425Y9936615D01*
X11604002Y8836463D02*
X12691425Y9923887D01*
X11616729Y8836463D02*
X12691425Y9911159D01*
X11629457Y8836463D02*
X12691425Y9898432D01*
X11642185Y8836463D02*
X12691425Y9885704D01*
X11654913Y8836463D02*
X12691425Y9872976D01*
X11667641Y8836463D02*
X12691425Y9860248D01*
X11680369Y8836463D02*
X12691425Y9847520D01*
X11693097Y8836463D02*
X12691425Y9834792D01*
X11705824Y8836463D02*
X12691425Y9822064D01*
X11718552Y8836463D02*
X12691425Y9809336D01*
X11731280Y8836463D02*
X12691425Y9796609D01*
X11744008Y8836463D02*
X12691425Y9783881D01*
X11756736Y8836463D02*
X12691425Y9771153D01*
X11769464Y8836463D02*
X12691425Y9758425D01*
X11782192Y8836463D02*
X12691425Y9745697D01*
X11794920Y8836463D02*
X12691425Y9732969D01*
X11807647Y8836463D02*
X12691425Y9720241D01*
X11820375Y8836463D02*
X12691425Y9707514D01*
X11833103Y8836463D02*
X12691425Y9694786D01*
X11845831Y8836463D02*
X12691425Y9682058D01*
X11858559Y8836463D02*
X12691425Y9669330D01*
X11871287Y8836463D02*
X12691425Y9656602D01*
X11884015Y8836463D02*
X12691425Y9643874D01*
X11896743Y8836463D02*
X12691425Y9631146D01*
X11909470Y8836463D02*
X12691425Y9618418D01*
X11922198Y8836463D02*
X12691425Y9605691D01*
X11934926Y8836463D02*
X12691425Y9592963D01*
X11947654Y8836463D02*
X12691425Y9580235D01*
X11960382Y8836463D02*
X12691425Y9567507D01*
X11973110Y8836463D02*
X12691425Y9554779D01*
X11985838Y8836463D02*
X12691425Y9542051D01*
X11998565Y8836463D02*
X12691425Y9529323D01*
X12011293Y8836463D02*
X12691425Y9516596D01*
X12024021Y8836463D02*
X12691425Y9503868D01*
X12036749Y8836463D02*
X12691425Y9491140D01*
X12049477Y8836463D02*
X12691425Y9478412D01*
X12062205Y8836463D02*
X12691425Y9465684D01*
X12074933Y8836463D02*
X12691425Y9452956D01*
X12087661Y8836463D02*
X12691425Y9440228D01*
X12100388Y8836463D02*
X12691425Y9427500D01*
X12113116Y8836463D02*
X12691425Y9414773D01*
X12125844Y8836463D02*
X12691425Y9402045D01*
X12138572Y8836463D02*
X12691425Y9389317D01*
X12151300Y8836463D02*
X12691425Y9376589D01*
X12164028Y8836463D02*
X12691425Y9363861D01*
X12176756Y8836463D02*
X12691425Y9351133D01*
X12189483Y8836463D02*
X12691425Y9338405D01*
X12202211Y8836463D02*
X12691425Y9325678D01*
X12214939Y8836463D02*
X12691425Y9312950D01*
X12227667Y8836463D02*
X12691425Y9300222D01*
X12240395Y8836463D02*
X12691425Y9287494D01*
X12253123Y8836463D02*
X12691425Y9274766D01*
X12265851Y8836463D02*
X12691425Y9262038D01*
X12278579Y8836463D02*
X12691425Y9249310D01*
X12291306Y8836463D02*
X12691425Y9236582D01*
X12304034Y8836463D02*
X12691425Y9223855D01*
X12316762Y8836463D02*
X12691425Y9211127D01*
X12329490Y8836463D02*
X12691425Y9198399D01*
X12342218Y8836463D02*
X12691425Y9185671D01*
X12354946Y8836463D02*
X12691425Y9172943D01*
X12367674Y8836463D02*
X12691425Y9160215D01*
X12380401Y8836463D02*
X12691425Y9147487D01*
X12393129Y8836463D02*
X12691425Y9134760D01*
X12405857Y8836463D02*
X12691425Y9122032D01*
X12418585Y8836463D02*
X12691425Y9109304D01*
X12431313Y8836463D02*
X12691425Y9096576D01*
X12444041Y8836463D02*
X12691425Y9083848D01*
X12456769Y8836463D02*
X12691425Y9071120D01*
X12469497Y8836463D02*
X12691425Y9058392D01*
X12482224Y8836463D02*
X12691425Y9045664D01*
X12494952Y8836463D02*
X12691425Y9032937D01*
X12507680Y8836463D02*
X12691425Y9020209D01*
X12520408Y8836463D02*
X12691425Y9007481D01*
X12533136Y8836463D02*
X12691425Y8994753D01*
X12545864Y8836463D02*
X12691425Y8982025D01*
X12558592Y8836463D02*
X12691425Y8969297D01*
X12571319Y8836463D02*
X12691425Y8956569D01*
X12584047Y8836463D02*
X12691425Y8943842D01*
X12596775Y8836463D02*
X12691425Y8931114D01*
X12609503Y8836463D02*
X12691425Y8918386D01*
X12622231Y8836463D02*
X12691425Y8905658D01*
X12634959Y8836463D02*
X12691425Y8892930D01*
X12647687Y8836463D02*
X12691425Y8880202D01*
X12660415Y8836463D02*
X12691425Y8867474D01*
X12673142Y8836463D02*
X12691425Y8854746D01*
X12685870Y8836463D02*
X12691425Y8842019D01*
X10364585Y10371722D02*
X11358454Y11365591D01*
X10357144Y10377009D02*
X11345726Y11365591D01*
X10347858Y10380450D02*
X11332998Y11365591D01*
X10335739Y10381060D02*
X11320270Y11365591D01*
X10305960Y10364008D02*
X11307543Y11365591D01*
X10300284Y10371061D02*
X11294815Y11365591D01*
X10293020Y10376524D02*
X11282087Y11365591D01*
X10283957Y10380189D02*
X11269359Y11365591D01*
X10410952Y10519912D02*
X11256631Y11365591D01*
X10410577Y10532264D02*
X11243903Y11365591D01*
X10407257Y10541672D02*
X11231175Y11365591D01*
X10402064Y10549207D02*
X11218447Y11365591D01*
X10395261Y10555132D02*
X11205720Y11365591D01*
X10386756Y10559355D02*
X11192992Y11365591D01*
X10375971Y10561298D02*
X11180264Y11365591D01*
X10360023Y10558078D02*
X11167536Y11365591D01*
X10170211Y10380993D02*
X11154808Y11365591D01*
X10109149Y10332660D02*
X11142080Y11365591D01*
X10111227Y10347465D02*
X11129352Y11365591D01*
X10108940Y10357906D02*
X11116625Y11365591D01*
X10104490Y10366184D02*
X11103897Y11365591D01*
X10098369Y10372791D02*
X11091169Y11365591D01*
X10090626Y10377776D02*
X11078441Y11365591D01*
X10080943Y10380821D02*
X11065713Y11365591D01*
X10068030Y10380635D02*
X11052985Y11365591D01*
X10010000Y10335334D02*
X11040257Y11365591D01*
X10011074Y10349136D02*
X11027530Y11365591D01*
X10008416Y10359206D02*
X11014802Y11365591D01*
X10003711Y10367229D02*
X11002074Y11365591D01*
X9997362Y10373607D02*
X10989346Y11365591D01*
X9989372Y10378345D02*
X10976618Y11365591D01*
X9979349Y10381049D02*
X10963890Y11365591D01*
X9965660Y10380089D02*
X10951162Y11365591D01*
X9910576Y10337732D02*
X10938434Y11365591D01*
X9910854Y10350739D02*
X10925707Y11365591D01*
X9907853Y10360465D02*
X10912979Y11365591D01*
X9902899Y10368240D02*
X10900251Y11365591D01*
X9896323Y10374391D02*
X10887523Y11365591D01*
X9888078Y10378874D02*
X10874795Y11365591D01*
X9877687Y10381211D02*
X10862067Y11365591D01*
X9863029Y10379280D02*
X10849339Y11365591D01*
X9810956Y10339935D02*
X10836612Y11365591D01*
X9810573Y10352280D02*
X10823884Y11365591D01*
X9807250Y10361685D02*
X10811156Y11365591D01*
X9802055Y10369218D02*
X10798428Y11365591D01*
X9795249Y10375140D02*
X10785700Y11365591D01*
X9786741Y10379360D02*
X10772972Y11365591D01*
X9775951Y10381298D02*
X10760244Y11365591D01*
X9759987Y10378062D02*
X10747516Y11365591D01*
X8205661Y8836463D02*
X10734789Y11365591D01*
X8192933Y8836463D02*
X10722061Y11365591D01*
X8180205Y8836463D02*
X10709333Y11365591D01*
X8167477Y8836463D02*
X10696605Y11365591D01*
X8154750Y8836463D02*
X10683877Y11365591D01*
X8142022Y8836463D02*
X10671149Y11365591D01*
X8129294Y8836463D02*
X10658421Y11365591D01*
X8116566Y8836463D02*
X10645693Y11365591D01*
X8103838Y8836463D02*
X10632966Y11365591D01*
X8091110Y8836463D02*
X10620238Y11365591D01*
X8078382Y8836463D02*
X10607510Y11365591D01*
X8065655Y8836463D02*
X10594782Y11365591D01*
X8052927Y8836463D02*
X10582054Y11365591D01*
X8040199Y8836463D02*
X10569326Y11365591D01*
X8027471Y8836463D02*
X10556598Y11365591D01*
X8014743Y8836463D02*
X10543870Y11365591D01*
X8002015Y8836463D02*
X10531143Y11365591D01*
X7989287Y8836463D02*
X10518415Y11365591D01*
X9661089Y10520993D02*
X10505687Y11365591D01*
X9660409Y10533041D02*
X10492959Y11365591D01*
X9656930Y10542290D02*
X10480231Y11365591D01*
X9651614Y10549701D02*
X10467503Y11365591D01*
X9644692Y10555507D02*
X10454775Y11365591D01*
X9636046Y10559590D02*
X10442048Y11365591D01*
X9625039Y10561311D02*
X10429320Y11365591D01*
X9608182Y10557181D02*
X10416592Y11365591D01*
X7874736Y8836463D02*
X10403864Y11365591D01*
X7862009Y8836463D02*
X10391136Y11365591D01*
X7849281Y8836463D02*
X10378408Y11365591D01*
X7836553Y8836463D02*
X10365680Y11365591D01*
X7823825Y8836463D02*
X10352952Y11365591D01*
X7821810Y8847176D02*
X10340225Y11365591D01*
X7821810Y8859904D02*
X10327497Y11365591D01*
X7821810Y8872632D02*
X10314769Y11365591D01*
X7821810Y8885360D02*
X10302041Y11365591D01*
X7821810Y8898088D02*
X10289313Y11365591D01*
X7821810Y8910816D02*
X10276585Y11365591D01*
X7821810Y8923543D02*
X10263857Y11365591D01*
X7821810Y8936271D02*
X10251130Y11365591D01*
X7821810Y8948999D02*
X10238402Y11365591D01*
X7821810Y8961727D02*
X10225674Y11365591D01*
X7821810Y8974455D02*
X10212946Y11365591D01*
X7821810Y8987183D02*
X10200218Y11365591D01*
X7821810Y8999911D02*
X10187490Y11365591D01*
X7821810Y9012638D02*
X10174762Y11365591D01*
X7821810Y9025366D02*
X10162034Y11365591D01*
X7821810Y9038094D02*
X10149307Y11365591D01*
X7821810Y9050822D02*
X10136579Y11365591D01*
X7821810Y9063550D02*
X10123851Y11365591D01*
X7821810Y9076278D02*
X10111123Y11365591D01*
X7821810Y9089006D02*
X10098395Y11365591D01*
X7821810Y9101734D02*
X10085667Y11365591D01*
X7821810Y9114461D02*
X10072939Y11365591D01*
X7821810Y9127189D02*
X10060212Y11365591D01*
X7821810Y9139917D02*
X10047484Y11365591D01*
X7821810Y9152645D02*
X10034756Y11365591D01*
X7821810Y9165373D02*
X10022028Y11365591D01*
X7821810Y9178101D02*
X10009300Y11365591D01*
X7821810Y9190829D02*
X9996572Y11365591D01*
X7821810Y9203556D02*
X9983844Y11365591D01*
X7821810Y9216284D02*
X9971116Y11365591D01*
X7821810Y9229012D02*
X9958389Y11365591D01*
X7821810Y9241740D02*
X9945661Y11365591D01*
X7821810Y9254468D02*
X9932933Y11365591D01*
X7821810Y9267196D02*
X9920205Y11365591D01*
X7821810Y9279924D02*
X9907477Y11365591D01*
X7821810Y9292652D02*
X9894749Y11365591D01*
X7821810Y9305379D02*
X9882021Y11365591D01*
X7821810Y9318107D02*
X9869294Y11365591D01*
X7821810Y9330835D02*
X9856566Y11365591D01*
X7821810Y9343563D02*
X9843838Y11365591D01*
X7821810Y9356291D02*
X9831110Y11365591D01*
X7821810Y9369019D02*
X9818382Y11365591D01*
X7821810Y9381747D02*
X9805654Y11365591D01*
X7821810Y9394474D02*
X9792926Y11365591D01*
X7821810Y9407202D02*
X9780198Y11365591D01*
X7821810Y9419930D02*
X9767471Y11365591D01*
X7821810Y9432658D02*
X9754743Y11365591D01*
X7821810Y9445386D02*
X9742015Y11365591D01*
X7821810Y9458114D02*
X9729287Y11365591D01*
X7821810Y9470842D02*
X9716559Y11365591D01*
X7821810Y9483570D02*
X9703831Y11365591D01*
X7821810Y9496297D02*
X9691103Y11365591D01*
X7821810Y9509025D02*
X9678376Y11365591D01*
X7821810Y9521753D02*
X9665648Y11365591D01*
X7821810Y9534481D02*
X9652920Y11365591D01*
X7821810Y9547209D02*
X9640192Y11365591D01*
X7821810Y9559937D02*
X9627464Y11365591D01*
X7821810Y9572665D02*
X9614736Y11365591D01*
X7821810Y9585392D02*
X9602008Y11365591D01*
X7821810Y9598120D02*
X9589280Y11365591D01*
X7821810Y9610848D02*
X9576553Y11365591D01*
X7821810Y9623576D02*
X9563825Y11365591D01*
X7821810Y9636304D02*
X9551097Y11365591D01*
X7821810Y9649032D02*
X9538369Y11365591D01*
X7821810Y9865406D02*
X9321995Y11365591D01*
X7821810Y9878133D02*
X9309267Y11365591D01*
X7821810Y9890861D02*
X9296540Y11365591D01*
X7821810Y9903589D02*
X9283812Y11365591D01*
X7821810Y10119963D02*
X9067438Y11365591D01*
X7821810Y10132691D02*
X9054710Y11365591D01*
X7821810Y10145419D02*
X9041982Y11365591D01*
X7821810Y10158146D02*
X9029254Y11365591D01*
X7821810Y10374520D02*
X8812881Y11365591D01*
X7821810Y10387248D02*
X8800153Y11365591D01*
X7821810Y10399976D02*
X8787425Y11365591D01*
X7821810Y10412704D02*
X8774697Y11365591D01*
X7821810Y10629078D02*
X8558323Y11365591D01*
X7821810Y10641805D02*
X8545595Y11365591D01*
X7821810Y10654533D02*
X8532867Y11365591D01*
X7821810Y10667261D02*
X8520140Y11365591D01*
X7821810Y10883635D02*
X8303766Y11365591D01*
X7821810Y10896363D02*
X8291038Y11365591D01*
X7821810Y10909091D02*
X8278310Y11365591D01*
X7821810Y10921818D02*
X8265582Y11365591D01*
X7821810Y11138192D02*
X8049209Y11365591D01*
X7821810Y11150920D02*
X8036481Y11365591D01*
X7821810Y11163648D02*
X8023753Y11365591D01*
X7821810Y11176376D02*
X8011025Y11365591D01*
X7821810Y9661760D02*
X9525641Y11365591D01*
X7821810Y9674488D02*
X9512913Y11365591D01*
X7821810Y9687215D02*
X9500185Y11365591D01*
X7821810Y9699943D02*
X9487458Y11365591D01*
X7821810Y9712671D02*
X9474730Y11365591D01*
X7821810Y9725399D02*
X9462002Y11365591D01*
X7821810Y9738127D02*
X9449274Y11365591D01*
X7821810Y9750855D02*
X9436546Y11365591D01*
X7821810Y9763583D02*
X9423818Y11365591D01*
X7821810Y9776310D02*
X9411090Y11365591D01*
X7821810Y9789038D02*
X9398362Y11365591D01*
X7821810Y9852678D02*
X9334723Y11365591D01*
X7821810Y9801766D02*
X9385635Y11365591D01*
X7821810Y9814494D02*
X9372907Y11365591D01*
X7821810Y9839950D02*
X9347451Y11365591D01*
X7821810Y9827222D02*
X9360179Y11365591D01*
X7821810Y9916317D02*
X9271084Y11365591D01*
X7821810Y9929045D02*
X9258356Y11365591D01*
X7821810Y9941773D02*
X9245628Y11365591D01*
X7821810Y9954501D02*
X9232900Y11365591D01*
X7821810Y9967228D02*
X9220172Y11365591D01*
X7821810Y9979956D02*
X9207444Y11365591D01*
X7821810Y9992684D02*
X9194717Y11365591D01*
X7821810Y10005412D02*
X9181989Y11365591D01*
X7821810Y10018140D02*
X9169261Y11365591D01*
X7821810Y10030868D02*
X9156533Y11365591D01*
X7821810Y10043596D02*
X9143805Y11365591D01*
X7821810Y10107235D02*
X9080166Y11365591D01*
X7821810Y10056324D02*
X9131077Y11365591D01*
X7821810Y10069051D02*
X9118349Y11365591D01*
X7821810Y10094507D02*
X9092894Y11365591D01*
X7821810Y10081779D02*
X9105622Y11365591D01*
X7821810Y10170874D02*
X9016526Y11365591D01*
X7821810Y10183602D02*
X9003799Y11365591D01*
X7821810Y10196330D02*
X8991071Y11365591D01*
X7821810Y10209058D02*
X8978343Y11365591D01*
X7821810Y10221786D02*
X8965615Y11365591D01*
X7821810Y10234514D02*
X8952887Y11365591D01*
X7821810Y10247241D02*
X8940159Y11365591D01*
X7821810Y10259969D02*
X8927431Y11365591D01*
X7821810Y10272697D02*
X8914704Y11365591D01*
X7821810Y10285425D02*
X8901976Y11365591D01*
X7821810Y10298153D02*
X8889248Y11365591D01*
X7821810Y10361792D02*
X8825609Y11365591D01*
X7821810Y10310881D02*
X8876520Y11365591D01*
X7821810Y10323609D02*
X8863792Y11365591D01*
X7821810Y10349064D02*
X8838336Y11365591D01*
X7821810Y10336337D02*
X8851064Y11365591D01*
X7821810Y10425432D02*
X8761969Y11365591D01*
X7821810Y10438160D02*
X8749241Y11365591D01*
X7821810Y10450887D02*
X8736513Y11365591D01*
X7821810Y10463615D02*
X8723786Y11365591D01*
X7821810Y10476343D02*
X8711058Y11365591D01*
X7821810Y10489071D02*
X8698330Y11365591D01*
X7821810Y10501799D02*
X8685602Y11365591D01*
X7821810Y10514527D02*
X8672874Y11365591D01*
X7821810Y10527255D02*
X8660146Y11365591D01*
X7821810Y10539982D02*
X8647418Y11365591D01*
X7821810Y10552710D02*
X8634690Y11365591D01*
X7821810Y10616350D02*
X8571051Y11365591D01*
X7821810Y10565438D02*
X8621963Y11365591D01*
X7821810Y10578166D02*
X8609235Y11365591D01*
X7821810Y10603622D02*
X8583779Y11365591D01*
X7821810Y10590894D02*
X8596507Y11365591D01*
X7821810Y10679989D02*
X8507412Y11365591D01*
X7821810Y10692717D02*
X8494684Y11365591D01*
X7821810Y10705445D02*
X8481956Y11365591D01*
X7821810Y10718173D02*
X8469228Y11365591D01*
X7821810Y10730900D02*
X8456500Y11365591D01*
X7821810Y10743628D02*
X8443772Y11365591D01*
X7821810Y10756356D02*
X8431045Y11365591D01*
X7821810Y10769084D02*
X8418317Y11365591D01*
X7821810Y10781812D02*
X8405589Y11365591D01*
X7821810Y10794540D02*
X8392861Y11365591D01*
X7821810Y10807268D02*
X8380133Y11365591D01*
X7821810Y10870907D02*
X8316494Y11365591D01*
X7821810Y10819996D02*
X8367405Y11365591D01*
X7821810Y10832723D02*
X8354677Y11365591D01*
X7821810Y10858179D02*
X8329222Y11365591D01*
X7821810Y10845451D02*
X8341949Y11365591D01*
X7821810Y10934546D02*
X8252854Y11365591D01*
X7821810Y10947274D02*
X8240127Y11365591D01*
X7821810Y10960002D02*
X8227399Y11365591D01*
X7821810Y10972730D02*
X8214671Y11365591D01*
X7821810Y10985458D02*
X8201943Y11365591D01*
X7821810Y10998186D02*
X8189215Y11365591D01*
X7821810Y11010914D02*
X8176487Y11365591D01*
X7821810Y11023641D02*
X8163759Y11365591D01*
X7821810Y11036369D02*
X8151031Y11365591D01*
X7821810Y11049097D02*
X8138304Y11365591D01*
X7821810Y11061825D02*
X8125576Y11365591D01*
X7821810Y11125464D02*
X8061936Y11365591D01*
X7821810Y11074553D02*
X8112848Y11365591D01*
X7821810Y11087281D02*
X8100120Y11365591D01*
X7821810Y11112736D02*
X8074664Y11365591D01*
X7821810Y11100009D02*
X8087392Y11365591D01*
X7821810Y11189104D02*
X7998297Y11365591D01*
X7821810Y11201832D02*
X7985569Y11365591D01*
X7821810Y11214559D02*
X7972841Y11365591D01*
X7821810Y11227287D02*
X7960113Y11365591D01*
X7821810Y11240015D02*
X7947386Y11365591D01*
X7821810Y11252743D02*
X7934658Y11365591D01*
X7821810Y11265471D02*
X7921930Y11365591D01*
X7821810Y11278199D02*
X7909202Y11365591D01*
X7821810Y11290927D02*
X7896474Y11365591D01*
X7821810Y11303654D02*
X7883746Y11365591D01*
X7821810Y11316382D02*
X7871018Y11365591D01*
X7821810Y11329110D02*
X7858291Y11365591D01*
X7821810Y11341838D02*
X7845563Y11365591D01*
X7821810Y11354566D02*
X7832835Y11365591D01*
X10127569Y8836463D02*
X10740164Y9449059D01*
X10114841Y8836463D02*
X10727790Y9449412D01*
X10102113Y8836463D02*
X10718371Y9452721D01*
X10089385Y8836463D02*
X10710827Y9457905D01*
X10076658Y8836463D02*
X10704894Y9464700D01*
X10038474Y8836463D02*
X10701869Y9499858D01*
X10063930Y8836463D02*
X10700662Y9473196D01*
X10051202Y8836463D02*
X10698704Y9483966D01*
X10356086Y10159577D02*
X10537371Y10340862D01*
X10408539Y9461085D02*
X10531782Y9584328D01*
X10345092Y10161310D02*
X10522553Y10338772D01*
X10411277Y9476552D02*
X10518926Y9584201D01*
X10373287Y10202233D02*
X10512108Y10341055D01*
X10409199Y9487202D02*
X10509271Y9587273D01*
X10381251Y10222926D02*
X10503827Y10345502D01*
X10404888Y9495619D02*
X10501548Y9592279D01*
X10380057Y10234459D02*
X10497218Y10351620D01*
X10398888Y9502346D02*
X10495446Y9598904D01*
X10376291Y10243421D02*
X10492230Y10359360D01*
X10391273Y9507460D02*
X10491019Y9607205D01*
X10369203Y9510845D02*
X10490938Y9632580D01*
X10363599Y10256185D02*
X10489360Y10381946D01*
X10370746Y10250604D02*
X10489182Y10369040D01*
X10381761Y9510675D02*
X10488764Y9617678D01*
X9783917Y8836463D02*
X10388915Y9441461D01*
X10272246Y10381206D02*
X10380088Y10489048D01*
X9771189Y8836463D02*
X10373448Y9438723D01*
X10328291Y10157238D02*
X10367767Y10196713D01*
X10207857Y10329545D02*
X10367736Y10489423D01*
X9758461Y8836463D02*
X10362798Y9440801D01*
X10211303Y10345719D02*
X10358328Y10492743D01*
X9567543Y8836463D02*
X10356708Y9625629D01*
X10253069Y10209294D02*
X10356357Y10312582D01*
X10248390Y9682773D02*
X10356019Y9790402D01*
X9745733Y8836463D02*
X10354381Y9445112D01*
X10273977Y9810183D02*
X10353490Y9889696D01*
X10272499Y9910528D02*
X10351193Y9989221D01*
X10209420Y10356563D02*
X10350793Y10497936D01*
X10270966Y10010817D02*
X10349066Y10088918D01*
X9733005Y8836463D02*
X10347654Y9451112D01*
X10269372Y10111046D02*
X10347074Y10188749D01*
X10205235Y10365107D02*
X10344868Y10504739D01*
X9720277Y8836463D02*
X10342540Y9458727D01*
X9554815Y8836463D02*
X10342153Y9623801D01*
X10182477Y10380532D02*
X10341922Y10539977D01*
X10240653Y9687763D02*
X10341727Y9788837D01*
X10199343Y10371942D02*
X10340645Y10513244D01*
X10262274Y9811208D02*
X10340089Y9889023D01*
X9795806Y9764759D02*
X10339737Y10308690D01*
X9707549Y8836463D02*
X10339325Y9468239D01*
X9694821Y8836463D02*
X10339155Y9480797D01*
X10191842Y10377169D02*
X10338702Y10524029D01*
X10260241Y9910997D02*
X10338516Y9989273D01*
X10258062Y10010642D02*
X10337002Y10089581D01*
X10255696Y10110098D02*
X10335541Y10189943D01*
X9542087Y8836463D02*
X10331798Y9626174D01*
X10295575Y9755413D02*
X10331467Y9791306D01*
X10297834Y9859495D02*
X10330187Y9891848D01*
X10299134Y9962619D02*
X10328947Y9992431D01*
X9787434Y9769115D02*
X10328784Y10310465D01*
X10299990Y10065298D02*
X10327744Y10093052D01*
X10300569Y10167699D02*
X10326579Y10193709D01*
X9465720Y8836463D02*
X10324373Y9695117D01*
X9529359Y8836463D02*
X10323578Y9630682D01*
X10301293Y9773859D02*
X10323312Y9795878D01*
X10301304Y9875693D02*
X10322284Y9896673D01*
X10301228Y9977441D02*
X10321288Y9997501D01*
X10301077Y10079112D02*
X10320326Y10098361D01*
X10259610Y10254019D02*
X10320172Y10314581D01*
X10300858Y10180716D02*
X10319396Y10199254D01*
X10259127Y9642598D02*
X10317648Y9701119D01*
X9516631Y8836463D02*
X10317022Y9636855D01*
X10299861Y9785156D02*
X10316814Y9802109D01*
X10299427Y9886544D02*
X10316014Y9903131D01*
X10278097Y10208866D02*
X10315763Y10246533D01*
X10298947Y9987887D02*
X10315247Y10004187D01*
X10298424Y10089187D02*
X10314513Y10105276D01*
X10297861Y10190447D02*
X10313815Y10206401D01*
X10261161Y10268297D02*
X10313278Y10320415D01*
X10279391Y10108337D02*
X10312762Y10141709D01*
X10261229Y9657428D02*
X10312536Y9708735D01*
X9503903Y8836463D02*
X10312092Y9644652D01*
X10295956Y9793978D02*
X10311947Y9809969D01*
X10295246Y9895091D02*
X10311397Y9911242D01*
X10280644Y10007768D02*
X10311237Y10038361D01*
X10294501Y9996169D02*
X10310888Y10012556D01*
X10293723Y10097214D02*
X10310423Y10113914D01*
X10281859Y9907160D02*
X10310259Y9935560D01*
X10292911Y10198225D02*
X10310004Y10215318D01*
X10283036Y9806514D02*
X10309599Y9833077D01*
X9478448Y8836463D02*
X10309469Y9667485D01*
X10258950Y9667877D02*
X10309322Y9718250D01*
X10254507Y9676162D02*
X10309158Y9730813D01*
X9491176Y8836463D02*
X10309122Y9654410D01*
X10290298Y9801048D02*
X10309062Y9819812D01*
X10289357Y9901930D02*
X10308865Y9921438D01*
X10288383Y10002779D02*
X10308737Y10023133D01*
X10286338Y10204380D02*
X10308733Y10226775D01*
X10287377Y10103596D02*
X10308690Y10124908D01*
X10305621Y10325486D02*
X10306672Y10326536D01*
X10258687Y10278552D02*
X10294514Y10314379D01*
X10230977Y9690815D02*
X10284587Y9744425D01*
X10199831Y9761493D02*
X10280505Y9842166D01*
X10098874Y9762358D02*
X10277381Y9940866D01*
X10254111Y10286703D02*
X10276114Y10308707D01*
X9997884Y9763192D02*
X10274702Y10040010D01*
X9896862Y9763992D02*
X10272301Y10139431D01*
X10218078Y9690645D02*
X10266141Y9738707D01*
X10247877Y10293197D02*
X10264824Y10310145D01*
X10192452Y9766841D02*
X10264307Y9838696D01*
X10091256Y9767468D02*
X10262559Y9938772D01*
X9990022Y9768057D02*
X10260888Y10038923D01*
X9888749Y9768607D02*
X10259284Y10139142D01*
X10240013Y10298061D02*
X10256006Y10314054D01*
X10159985Y9645280D02*
X10254844Y9740139D01*
X10183245Y9770362D02*
X10253456Y9840573D01*
X10081739Y9770680D02*
X10252113Y9941053D01*
X9980177Y9770940D02*
X10250813Y10041576D01*
X9878550Y9771137D02*
X10249553Y10142139D01*
X10230165Y10300941D02*
X10248939Y10319716D01*
X10161078Y9659100D02*
X10246022Y9744044D01*
X10171274Y9771119D02*
X10244909Y9844754D01*
X10069172Y9770840D02*
X10243831Y9945499D01*
X10216889Y10300393D02*
X10243476Y10326980D01*
X9966906Y9770397D02*
X10242786Y10046277D01*
X9864422Y9769735D02*
X10241775Y10147089D01*
X10160312Y10256544D02*
X10239811Y10336043D01*
X10206894Y9717644D02*
X10238952Y9749702D01*
X10160974Y10269934D02*
X10238794Y10347754D01*
X10108557Y9721130D02*
X10238070Y9850643D01*
X9452992Y8836463D02*
X10237402Y9620873D01*
X10009604Y9724000D02*
X10237221Y9951617D01*
X9910308Y9726527D02*
X10236404Y10052623D01*
X9776854Y9771263D02*
X10235981Y10230390D01*
X9810781Y9728823D02*
X10235620Y10153662D01*
X10211310Y9734788D02*
X10233486Y9756964D01*
X10111276Y9736577D02*
X10232840Y9858141D01*
X10011162Y9738285D02*
X10232232Y9959356D01*
X9910975Y9739922D02*
X10231663Y10060609D01*
X9810725Y9741495D02*
X10231134Y10161903D01*
X9802493Y9758719D02*
X10230706Y10186931D01*
X9903321Y9757724D02*
X10229902Y10084304D01*
X10209650Y9745856D02*
X10229817Y9766023D01*
X10109192Y9747221D02*
X10229472Y9867501D01*
X10004116Y9756696D02*
X10229358Y9981938D01*
X10008691Y9748542D02*
X10229183Y9969034D01*
X10104878Y9755634D02*
X10229003Y9879759D01*
X9908148Y9749822D02*
X10228954Y10070628D01*
X10205605Y9754539D02*
X10228792Y9777726D01*
X9807565Y9751062D02*
X10228791Y10172288D01*
X9440264Y8836463D02*
X10222572Y9618771D01*
X9761618Y9768755D02*
X10221703Y10228839D01*
X9427536Y8836463D02*
X10212123Y9621050D01*
X9670032Y9689897D02*
X10211448Y10231313D01*
X9414808Y8836463D02*
X10203838Y9625493D01*
X9658694Y9691287D02*
X10203297Y10235889D01*
X9402081Y8836463D02*
X10197227Y9631610D01*
X9769995Y9815316D02*
X10196803Y10242123D01*
X10158428Y9669178D02*
X10192356Y9703106D01*
X9389353Y8836463D02*
X10192237Y9639347D01*
X9771076Y9829124D02*
X10191939Y10249987D01*
X10158144Y10279831D02*
X10190455Y10312143D01*
X9763717Y9847221D02*
X10189607Y10273111D01*
X9363897Y8836463D02*
X10189355Y9661922D01*
X9376625Y8836463D02*
X10189185Y9649023D01*
X9768420Y9839196D02*
X10189059Y10259835D01*
X10153729Y9677206D02*
X10175212Y9698690D01*
X10153315Y10287731D02*
X10174281Y10308697D01*
X10147384Y9683590D02*
X10164144Y9700350D01*
X10146854Y10293997D02*
X10163437Y10310580D01*
X10139400Y9688333D02*
X10155461Y9704395D01*
X10138739Y10298611D02*
X10154893Y10314765D01*
X10129383Y9691045D02*
X10148507Y9710169D01*
X10128539Y10301138D02*
X10148058Y10320657D01*
X10115714Y9690103D02*
X10143159Y9717548D01*
X10114403Y10299730D02*
X10142831Y10328158D01*
X10060566Y9647683D02*
X10139638Y9726755D01*
X10060784Y10258839D02*
X10139468Y10337523D01*
X10060723Y10271506D02*
X10139007Y10349789D01*
X10060860Y9660705D02*
X10138881Y9738726D01*
X9351169Y8836463D02*
X10134720Y9620015D01*
X9757370Y9853602D02*
X10133456Y10229688D01*
X9338441Y8836463D02*
X10120900Y9618922D01*
X9749381Y9858341D02*
X10120066Y10229026D01*
X9325713Y8836463D02*
X10110822Y9621572D01*
X9739360Y9861048D02*
X10110169Y10231856D01*
X9312985Y8836463D02*
X10102794Y9626271D01*
X9725678Y9860094D02*
X10102269Y10236685D01*
X9300258Y8836463D02*
X10096410Y9632616D01*
X9770572Y9917716D02*
X10096003Y10243146D01*
X9287530Y8836463D02*
X10091667Y9640600D01*
X9770856Y9930727D02*
X10091389Y10251261D01*
X9762905Y9948232D02*
X10090270Y10275597D01*
X9262074Y8836463D02*
X10089897Y9664286D01*
X9274802Y8836463D02*
X10088955Y9650617D01*
X10057865Y9670438D02*
X10088870Y9701443D01*
X9767857Y9940456D02*
X10088862Y10261461D01*
X10057560Y10281071D02*
X10087340Y10310851D01*
X10052917Y9678218D02*
X10073423Y9698724D01*
X10052487Y10288726D02*
X10072535Y10308773D01*
X10046345Y9684374D02*
X10062779Y9700808D01*
X10045798Y10294764D02*
X10062094Y10311060D01*
X10038106Y9688863D02*
X10054366Y9705122D01*
X10037425Y10299119D02*
X10053816Y10315510D01*
X10027724Y9691208D02*
X10047642Y9711126D01*
X10026842Y10301264D02*
X10047209Y10321631D01*
X10013089Y9689301D02*
X10042532Y9718744D01*
X10011596Y10298746D02*
X10042224Y10329374D01*
X9960414Y10273020D02*
X10039365Y10351970D01*
X9960949Y9649889D02*
X10039320Y9728261D01*
X9961085Y10260963D02*
X10039179Y10339057D01*
X9960580Y9662248D02*
X10039160Y9740828D01*
X9249346Y8836463D02*
X10032317Y9619434D01*
X9756330Y9954385D02*
X10031161Y10229216D01*
X9236618Y8836463D02*
X10019295Y9619140D01*
X9748087Y9958870D02*
X10018494Y10229277D01*
X9223890Y8836463D02*
X10009562Y9622135D01*
X9737699Y9961210D02*
X10008929Y10232440D01*
X9211163Y8836463D02*
X10001782Y9627083D01*
X9723049Y9959287D02*
X10001274Y10237513D01*
X9198435Y8836463D02*
X9995626Y9633655D01*
X9770953Y10019920D02*
X9995236Y10244202D01*
X9762061Y10049211D02*
X9991254Y10278404D01*
X9185707Y8836463D02*
X9991137Y9641894D01*
X9770575Y10032270D02*
X9990881Y10252575D01*
X9160251Y8836463D02*
X9990699Y9666911D01*
X9172979Y8836463D02*
X9988792Y9652276D01*
X9767254Y10041676D02*
X9988736Y10263158D01*
X9957263Y9671659D02*
X9986000Y9700396D01*
X9956939Y10282273D02*
X9984666Y10310000D01*
X9952073Y9679197D02*
X9971715Y9698838D01*
X9951626Y10289688D02*
X9970864Y10308926D01*
X9945273Y9685124D02*
X9961458Y9701309D01*
X9944708Y10295497D02*
X9960794Y10311584D01*
X9936770Y9689350D02*
X9953304Y9705884D01*
X9936066Y10299583D02*
X9952771Y10316289D01*
X9925990Y9691297D02*
X9946808Y9712116D01*
X9925066Y10301310D02*
X9946393Y10322638D01*
X9910059Y9688094D02*
X9941943Y9719978D01*
X9908236Y10297209D02*
X9941655Y10330628D01*
X9860051Y10274480D02*
X9939911Y10354340D01*
X9860244Y9663735D02*
X9939603Y9743094D01*
X9861182Y9651945D02*
X9939060Y9729823D01*
X9861253Y10262954D02*
X9938951Y10340651D01*
X9147523Y8836463D02*
X9930111Y9619051D01*
X9755257Y10055135D02*
X9929037Y10228915D01*
X9134795Y8836463D02*
X9917752Y9619420D01*
X9746751Y10059357D02*
X9916980Y10229586D01*
X9122067Y8836463D02*
X9908341Y9622737D01*
X9735964Y10061298D02*
X9907727Y10233061D01*
X9109340Y8836463D02*
X9900803Y9627927D01*
X9720011Y10058072D02*
X9900312Y10238374D01*
X9096612Y8836463D02*
X9894876Y9634727D01*
X9660154Y10010943D02*
X9894503Y10245292D01*
X9853392Y10242365D02*
X9892791Y10281764D01*
X9058428Y8836463D02*
X9891906Y9669941D01*
X9083884Y8836463D02*
X9890650Y9643230D01*
X9646872Y10010389D02*
X9890417Y10253934D01*
X9071156Y8836463D02*
X9888703Y9654010D01*
X8460218Y8836463D02*
X9888690Y10264934D01*
X9856624Y9672843D02*
X9883473Y9699692D01*
X9856281Y10283438D02*
X9882268Y10309424D01*
X9851197Y9680143D02*
X9870078Y9699025D01*
X9850733Y10290618D02*
X9869261Y10309146D01*
X9844166Y9685840D02*
X9860178Y9701852D01*
X9843583Y10296195D02*
X9859535Y10312147D01*
X9835390Y9689792D02*
X9852276Y9706679D01*
X9834662Y10300002D02*
X9851760Y10317101D01*
X8447490Y8836463D02*
X9847635Y10236608D01*
X9824171Y9691301D02*
X9846008Y9713138D01*
X9823198Y10301266D02*
X9845609Y10323677D01*
X9806216Y9686075D02*
X9841393Y9721251D01*
X9803367Y10294163D02*
X9841126Y10331922D01*
X9759639Y10275890D02*
X9840720Y10356971D01*
X9759857Y9665171D02*
X9840265Y9745578D01*
X9761293Y9653879D02*
X9838863Y9731450D01*
X9761310Y10264834D02*
X9838789Y10342313D01*
X9045700Y8836463D02*
X9828055Y9618818D01*
X8434763Y8836463D02*
X9827046Y10228747D01*
X9659138Y9462629D02*
X9816265Y9619756D01*
X8422035Y8836463D02*
X9815520Y10229949D01*
X9661228Y9477447D02*
X9807157Y9623376D01*
X8409307Y8836463D02*
X9806562Y10233719D01*
X9658945Y9487892D02*
X9799857Y9628803D01*
X8396579Y8836463D02*
X9799382Y10239267D01*
X9756948Y10247744D02*
X9795837Y10286633D01*
X9654498Y9496173D02*
X9794160Y9635834D01*
X9755610Y9635468D02*
X9793925Y9673784D01*
X8383851Y8836463D02*
X9793805Y10246417D01*
X9648380Y9502782D02*
X9790208Y9644610D01*
X8371123Y8836463D02*
X9789998Y10255338D01*
X8358395Y8836463D02*
X9788734Y10266802D01*
X9640640Y9507770D02*
X9788699Y9655829D01*
X9755949Y9673990D02*
X9781177Y9699219D01*
X9755587Y10284567D02*
X9780065Y10309044D01*
X9750288Y9681057D02*
X9768505Y9699275D01*
X9749808Y10291515D02*
X9767720Y10309427D01*
X9743024Y9686521D02*
X9758938Y9702435D01*
X9742423Y10296858D02*
X9758315Y10312750D01*
X9733962Y9690187D02*
X9751281Y9707507D01*
X9733208Y10300371D02*
X9750782Y10317945D01*
X9722253Y9691206D02*
X9745241Y9714194D01*
X9721223Y10301114D02*
X9744860Y10324751D01*
X9639957Y9685278D02*
X9744684Y9790005D01*
X9630960Y9510818D02*
X9744532Y9624390D01*
X9663224Y9810367D02*
X9742284Y9889428D01*
X8345668Y8836463D02*
X9742256Y10233052D01*
X8218389Y8836463D02*
X9741938Y10360013D01*
X9678880Y9686016D02*
X9741245Y9748382D01*
X9691749Y9673430D02*
X9740885Y9722566D01*
X8243845Y8836463D02*
X9740640Y10333259D01*
X9661717Y9910684D02*
X9740080Y9989047D01*
X9685969Y9680378D02*
X9738737Y9733146D01*
X8231117Y8836463D02*
X9738702Y10344049D01*
X8778415Y8836463D02*
X9730876Y9788924D01*
X9651245Y9811116D02*
X9729273Y9889144D01*
X9649140Y9910835D02*
X9727730Y9989425D01*
X9618054Y9510640D02*
X9726121Y9618707D01*
X8332940Y8836463D02*
X9725166Y10228690D01*
X9686925Y9757701D02*
X9720804Y9791580D01*
X9688575Y9861175D02*
X9719544Y9892143D01*
X9689616Y9964039D02*
X9718324Y9992746D01*
X8931149Y8836463D02*
X9714829Y9620143D01*
X8320212Y8836463D02*
X9714110Y10230361D01*
X9691310Y9774814D02*
X9712779Y9796283D01*
X9691275Y9876602D02*
X9711768Y9897095D01*
X9691159Y9978309D02*
X9710789Y9997939D01*
X9689644Y9785876D02*
X9706398Y9802630D01*
X8918422Y8836463D02*
X9706010Y9624051D01*
X9689185Y9887240D02*
X9705615Y9903670D01*
X8307484Y8836463D02*
X9705433Y10234413D01*
X9688683Y9988561D02*
X9704865Y10004743D01*
X9670004Y10008066D02*
X9701928Y10039989D01*
X9685595Y9794555D02*
X9701659Y9810619D01*
X9684867Y9895650D02*
X9701130Y9911913D01*
X9671239Y9907477D02*
X9700713Y9936951D01*
X9684105Y9996711D02*
X9700643Y10013249D01*
X9672435Y9806851D02*
X9699906Y9834322D01*
X9679818Y9801505D02*
X9698952Y9820640D01*
X8905694Y8836463D02*
X9698943Y9629712D01*
X9678860Y9902371D02*
X9698790Y9922301D01*
X9677870Y10003203D02*
X9698702Y10024036D01*
X8294756Y8836463D02*
X9698485Y10240192D01*
X8282028Y8836463D02*
X9693142Y10247577D01*
X8892966Y8836463D02*
X9693120Y9636617D01*
X8269300Y8836463D02*
X9689629Y10256792D01*
X8256572Y8836463D02*
X9688886Y10268777D01*
X8765687Y8836463D02*
X9672299Y9743075D01*
X9486756Y9659355D02*
X9668825Y9841425D01*
X8562041Y8836463D02*
X9665961Y9940384D01*
X8880238Y8836463D02*
X9662554Y9618779D01*
X8752959Y8836463D02*
X9655186Y9738690D01*
X9475971Y9661298D02*
X9653398Y9838725D01*
X8549313Y8836463D02*
X9651691Y9938841D01*
X8867510Y8836463D02*
X9650896Y9619849D01*
X8740231Y8836463D02*
X9644124Y9740356D01*
X9460023Y9658078D02*
X9642760Y9840815D01*
X8854782Y8836463D02*
X9641863Y9623544D01*
X8536586Y8836463D02*
X9641439Y9941317D01*
X9032972Y8836463D02*
X9637371Y9440862D01*
X9510952Y9619912D02*
X9635445Y9744405D01*
X8842054Y8836463D02*
X9634622Y9629031D01*
X8625681Y8836463D02*
X9634350Y9845133D01*
X8523858Y8836463D02*
X9633289Y9945895D01*
X8791143Y8836463D02*
X9629722Y9675043D01*
X9511089Y10370993D02*
X9629007Y10488911D01*
X8829327Y8836463D02*
X9628984Y9636120D01*
X9510576Y9632264D02*
X9628495Y9750182D01*
X8612953Y8836463D02*
X9627629Y9851140D01*
X8511130Y8836463D02*
X9626797Y9952130D01*
X8816599Y8836463D02*
X9625103Y9644968D01*
X8803871Y8836463D02*
X9623713Y9656306D01*
X9507257Y9641672D02*
X9623149Y9757565D01*
X9020245Y8836463D02*
X9622553Y9438772D01*
X8600225Y8836463D02*
X9622523Y9858761D01*
X8498402Y8836463D02*
X9621934Y9959996D01*
X9502064Y9649207D02*
X9619633Y9766776D01*
X8472946Y8836463D02*
X9619611Y9983128D01*
X8587497Y8836463D02*
X9619316Y9868283D01*
X8574769Y8836463D02*
X9619165Y9880860D01*
X8485674Y8836463D02*
X9619057Y9969846D01*
X9495261Y9655132D02*
X9618884Y9778755D01*
X9510409Y10383041D02*
X9616959Y10489591D01*
X9007517Y8836463D02*
X9612108Y9441055D01*
X9506930Y10392290D02*
X9607710Y10493070D01*
X8994789Y8836463D02*
X9603827Y9445502D01*
X9501614Y10399701D02*
X9600299Y10498386D01*
X8982061Y8836463D02*
X9597218Y9451620D01*
X9494692Y10405507D02*
X9594493Y10505308D01*
X9458182Y10407181D02*
X9592819Y10541818D01*
X8969333Y8836463D02*
X9592230Y9459361D01*
X9486046Y10409590D02*
X9590410Y10513954D01*
X8943877Y8836463D02*
X9589360Y9481946D01*
X8956605Y8836463D02*
X9589182Y9469040D01*
X9475039Y10411311D02*
X9588689Y10524961D01*
X8727504Y8836463D02*
X9480088Y9589048D01*
X7976559Y8836463D02*
X9479007Y10338911D01*
X8714776Y8836463D02*
X9467736Y9589424D01*
X7963832Y8836463D02*
X9466959Y10339591D01*
X8702048Y8836463D02*
X9458328Y9592743D01*
X7951104Y8836463D02*
X9457710Y10343070D01*
X8689320Y8836463D02*
X9450793Y9597936D01*
X7938376Y8836463D02*
X9450299Y10348386D01*
X8676592Y8836463D02*
X9444868Y9604739D01*
X7925648Y8836463D02*
X9444493Y10355308D01*
X7887464Y8836463D02*
X9442819Y10391818D01*
X8638409Y8836463D02*
X9441922Y9639977D01*
X8663864Y8836463D02*
X9440645Y9613244D01*
X7912920Y8836463D02*
X9440410Y10363954D01*
X8651136Y8836463D02*
X9438702Y9624029D01*
X7900192Y8836463D02*
X9438689Y10374961D01*
G74*
X0Y0D02*
M02*
