M48
;DRILL file {PCBnew (2011-04-29 BZR 2986)-stable} date 09/09/2011 17:06:36
;FORMAT={3:2/ absolute / metric / keep zeros}
FMAT,2
METRIC,TZ
T1C0.300
T2C0.450
T3C0.749
T4C0.851
%
G90
G05
M71
T1
X04080Y12220
X04085Y05600
X04090Y07700
X04090Y07800
X04090Y12920
X04095Y07900
X04095Y08000
X04095Y08100
X04095Y08200
X04095Y08300
X04095Y08400
X04095Y08500
X04095Y08600
X04095Y12570
X04100Y04465
X04100Y07350
X04105Y11520
X04105Y11870
X04120Y05950
X04190Y05350
X04195Y05150
X04195Y05550
X04195Y05450
X04200Y04950
X04200Y05050
X04200Y06250
X04200Y06400
X04200Y07150
X04200Y07400
X04200Y07850
X04200Y07950
X04200Y08050
X04200Y08150
X04200Y08250
X04200Y08350
X04200Y08450
X04200Y08550
X04200Y07750
X04205Y05900
X04210Y09470
X04280Y15105
X04280Y15225
X04285Y04065
X04285Y10810
X04290Y10695
X04320Y09360
X04350Y04245
X04380Y04795
X04575Y05105
X04575Y05570
X04650Y04115
X04680Y04665
X04790Y14955
X05015Y09079
X05085Y06385
X05085Y08190
X05090Y11500
X05090Y11615
X05090Y12225
X05115Y09059
X05115Y05640
X05115Y06250
X05165Y12300
X05165Y12925
X05170Y15660
X05200Y06530
X05205Y15465
X05220Y10600
X05225Y06855
X05295Y10320
X05320Y03285
X05365Y05050
X05400Y10325
X05420Y09740
X05460Y15230
X05510Y10325
X05525Y09890
X05530Y08715
X05535Y11055
X05570Y15120
X05590Y15550
X05620Y10335
X05625Y08895
X05645Y11260
X05675Y09925
X05680Y09590
X05690Y06855
X05702Y04318
X05715Y10935
X05715Y15125
X05715Y06690
X05717Y04118
X05720Y15550
X05727Y04223
X05745Y07745
X05765Y14480
X05770Y03100
X05780Y05305
X05785Y15225
X05805Y09740
X05805Y10635
X05805Y10815
X05815Y15375
X05835Y03400
X05835Y15550
X05840Y06800
X05885Y03205
X05900Y03705
X05900Y06915
X05900Y07025
X05900Y09360
X05900Y12370
X05910Y14815
X05910Y14975
X05930Y15375
X05950Y10710
X05955Y03155
X05955Y03780
X05955Y06740
X05955Y07120
X05955Y12460
X06000Y10235
X06010Y03270
X06010Y03640
X06010Y06370
X06010Y06850
X06010Y12290
X06010Y12565
X06030Y14975
X06035Y09365
X06035Y14865
X06065Y03565
X06065Y06675
X06065Y12680
X06075Y03335
X06085Y09620
X06085Y09755
X06120Y06525
X06120Y06965
X06120Y07440
X06120Y07570
X06120Y12780
X06120Y13150
X06120Y13280
X06130Y09365
X06130Y09470
X06140Y04090
X06170Y03810
X06175Y12890
X06205Y11420
X06222Y03918
X06230Y09060
X06230Y12550
X06235Y12280
X06240Y09220
X06245Y10275
X06245Y10450
X06245Y14770
X06250Y07505
X06255Y07195
X06280Y06435
X06280Y07055
X06300Y04960
X06305Y09130
X06305Y12185
X06305Y13215
X06315Y12370
X06315Y12685
X06320Y04580
X06320Y12790
X06320Y12900
X06335Y10350
X06345Y09220
X06350Y07745
X06360Y14875
X06420Y04960
X06425Y04460
X06425Y06060
X06440Y15015
X06445Y04850
X06465Y12430
X06480Y07220
X06505Y15100
X06505Y15520
X06555Y04465
X06570Y10210
X06575Y10070
X06585Y04850
X06590Y04595
X06625Y02915
X06640Y07300
X06650Y04510
X06650Y07055
X06655Y09575
X06665Y07445
X06670Y06435
X06680Y15000
X06685Y12185
X06685Y13215
X06700Y12790
X06710Y09715
X06720Y04850
X06735Y12670
X06740Y07120
X06740Y13000
X06745Y15090
X06745Y15495
X06765Y09840
X06790Y12855
X06795Y04310
X06800Y04150
X06820Y09705
X06830Y06370
X06850Y07710
X06875Y09630
X06900Y03050
X06910Y06535
X06915Y12120
X06915Y15005
X06925Y04150
X06925Y04310
X06975Y13405
X06980Y12310
X06980Y15085
X06980Y15540
X07015Y10065
X07070Y10430
X07105Y06015
X07110Y14605
X07115Y05280
X07115Y08860
X07115Y13810
X07139Y02895
X07145Y11720
X07155Y04650
X07155Y09875
X07220Y14520
X07230Y08805
X07230Y11650
X07240Y02895
X07240Y05960
X07254Y10590
X07254Y10715
X07254Y13435
X07254Y13560
X07255Y04900
X07255Y05025
X07255Y07744
X07255Y07869
X07315Y11850
X07315Y14695
X07315Y06160
X07315Y09004
X07339Y02895
X07355Y10590
X07355Y10715
X07355Y13435
X07355Y13560
X07355Y04900
X07355Y05025
X07355Y07744
X07355Y07869
X07375Y09685
X07385Y11915
X07385Y06225
X07385Y09069
X07395Y14760
X07425Y16365
X07430Y10060
X07525Y16370
X07540Y02805
X07540Y10275
X07590Y02895
X07600Y04740
X07600Y10435
X07600Y13290
X07620Y06250
X07625Y14825
X07625Y16370
X07630Y09120
X07630Y14965
X07640Y02800
X07655Y09230
X07660Y11525
X07665Y05830
X07670Y11395
X07675Y06365
X07675Y12165
X07680Y08550
X07680Y08680
X07680Y14370
X07685Y14230
X07690Y02895
X07720Y06960
X07720Y11135
X07720Y13980
X07735Y08265
X07740Y02800
X07745Y08155
X07745Y11340
X07750Y09280
X07750Y13820
X07755Y06440
X07755Y08485
X07755Y08620
X07755Y11465
X07755Y12065
X07760Y05635
X07760Y08360
X07760Y14170
X07760Y14295
X07775Y14050
X07790Y02895
X07790Y11600
X07805Y06565
X07805Y09415
X07805Y12190
X07825Y16275
X07840Y02795
X07855Y06440
X07855Y09280
X07855Y12065
X07875Y11485
X07875Y16365
X07880Y05795
X07885Y11185
X07885Y11280
X07885Y11375
X07885Y14030
X07885Y14125
X07885Y14220
X07885Y05495
X07885Y05590
X07885Y05685
X07885Y08339
X07885Y08434
X07885Y08529
X07890Y02895
X07905Y06565
X07905Y09415
X07905Y12190
X07925Y14375
X07925Y16275
X07940Y03580
X07945Y12885
X07955Y06440
X07955Y09280
X07955Y12065
X07975Y16365
X07980Y11185
X07980Y11375
X07980Y14030
X07980Y14220
X07980Y05495
X07980Y05685
X07980Y08339
X07980Y08529
X07980Y11280
X07980Y14125
X07980Y05590
X07980Y08434
X07990Y03655
X07990Y05815
X08000Y11510
X08005Y06565
X08005Y09415
X08005Y12190
X08025Y16275
X08040Y03575
X08060Y08660
X08075Y11185
X08075Y11280
X08075Y11375
X08075Y14030
X08075Y14125
X08075Y14220
X08075Y05495
X08075Y05590
X08075Y05685
X08075Y08339
X08075Y08434
X08075Y08529
X08075Y16355
X08090Y03650
X08105Y06440
X08105Y09275
X08105Y12065
X08125Y16265
X08140Y03570
X08145Y15900
X08155Y06560
X08155Y09415
X08155Y12190
X08160Y05280
X08160Y08225
X08160Y10995
X08170Y13880
X08175Y16360
X08190Y02895
X08200Y08730
X08205Y06440
X08205Y09275
X08205Y12065
X08230Y11450
X08230Y14415
X08240Y02805
X08255Y06560
X08255Y09415
X08255Y12190
X08260Y11255
X08265Y07640
X08270Y10475
X08275Y05565
X08280Y13300
X08290Y03650
X08290Y14025
X08300Y08335
X08300Y11150
X08305Y05480
X08330Y13445
X08330Y14940
X08335Y07760
X08340Y03565
X08340Y04800
X08340Y06270
X08345Y09115
X08345Y10605
X08345Y11970
X08350Y04915
X08350Y14820
X08390Y03650
X08440Y03565
X08475Y16265
X08490Y03655
X08490Y09110
X08500Y11950
X08515Y06270
X08525Y16355
X08539Y02895
X08545Y10665
X08545Y13510
X08545Y04975
X08545Y07819
X08570Y06960
X08590Y02795
X08590Y06490
X08595Y10735
X08595Y13580
X08595Y05045
X08595Y06200
X08595Y07889
X08610Y09050
X08625Y14745
X08625Y11960
X08645Y05920
X08645Y08725
X08650Y11565
X08655Y08050
X08655Y11675
X08660Y05205
X08660Y13725
X08665Y08840
X08665Y14425
X08665Y14525
X08670Y06120
X08670Y10900
X08710Y11805
X08710Y14650
X08725Y08965
X08735Y06545
X08735Y06685
X08760Y05245
X08775Y08060
X08780Y10885
X08780Y13775
X08790Y09210
X08800Y15900
X08810Y06320
X08810Y06905
X08825Y16365
X08840Y11830
X08875Y16265
X08885Y06555
X08885Y06810
X08895Y12680
X08935Y09110
X08935Y09495
X08945Y11450
X08950Y11320
X08955Y11005
X08955Y11105
X08955Y11205
X08955Y12465
X08960Y13850
X08960Y13950
X08960Y14050
X08960Y14150
X08960Y14250
X08985Y08160
X08985Y08260
X08985Y08360
X08985Y08460
X08985Y08565
X08995Y06895
X09000Y08990
X09005Y06620
X09010Y06385
X09035Y05315
X09035Y05415
X09035Y05515
X09035Y05615
X09090Y11255
X09090Y11390
X09090Y11505
X09095Y11155
X09100Y11055
X09130Y13900
X09130Y14000
X09130Y14100
X09130Y14200
X09130Y14300
X09140Y08210
X09145Y08310
X09145Y08410
X09150Y05365
X09150Y05465
X09150Y05565
X09150Y05665
X09150Y08510
X09150Y08620
X09195Y12065
X09200Y12295
X09220Y12635
X09255Y05715
X09345Y05790
X09405Y06755
X09425Y06620
X09425Y06895
X09430Y06385
X09565Y06320
X09595Y12635
X09605Y12065
X09610Y12295
X09630Y06450
X09640Y04130
X09680Y12000
X09700Y06325
X09750Y12130
X09760Y15945
X09770Y03285
X09785Y03630
X09800Y06555
X09805Y06755
X09820Y11755
X09820Y12000
X09870Y12230
X09890Y14505
X09890Y15325
X09895Y08775
X09900Y05275
X09900Y10965
X09910Y13810
X09915Y02885
X09920Y07035
X09920Y16260
X09925Y05960
X09935Y03850
X09935Y04055
X09945Y08090
X09950Y03745
X09950Y11765
X09955Y15435
X09965Y02805
X09970Y16350
X09985Y11645
X09990Y06615
X10005Y08800
X10015Y14480
X10020Y12700
X10030Y05965
X10044Y10716
X10044Y13435
X10044Y13560
X10045Y04900
X10045Y05025
X10045Y07745
X10045Y07870
X10045Y10620
X10065Y02880
X10070Y16260
X10085Y11565
X10085Y15400
X10100Y03400
X10105Y11851
X10105Y14695
X10105Y06160
X10105Y09005
X10135Y12360
X10145Y10716
X10145Y13435
X10145Y13560
X10145Y04900
X10145Y05025
X10145Y07745
X10145Y07870
X10145Y10620
X10165Y02805
X10170Y16365
X10174Y11916
X10174Y14760
X10175Y06225
X10175Y09070
X10215Y02880
X10220Y16260
X10265Y02800
X10270Y16365
X10315Y02880
X10320Y16260
X10365Y02795
X10370Y12115
X10370Y16365
X10385Y10430
X10385Y13275
X10390Y04750
X10395Y09095
X10400Y14810
X10415Y11990
X10415Y02880
X10420Y16260
X10425Y06250
X10450Y14370
X10450Y14970
X10460Y11525
X10465Y08675
X10465Y02795
X10470Y16365
X10475Y06390
X10475Y08535
X10475Y11390
X10480Y05695
X10480Y14225
X10495Y09200
X10515Y13970
X10515Y02880
X10520Y08260
X10520Y16260
X10525Y11120
X10525Y12435
X10530Y14315
X10540Y05420
X10545Y06440
X10545Y09315
X10545Y11325
X10545Y11460
X10545Y12105
X10550Y05635
X10550Y08170
X10550Y14170
X10555Y08480
X10555Y13830
X10560Y08370
X10565Y02795
X10570Y14055
X10570Y16365
X10575Y11605
X10580Y05915
X10580Y14450
X10585Y08760
X10595Y06565
X10595Y09480
X10595Y12225
X10615Y02880
X10620Y16260
X10625Y05825
X10645Y06440
X10645Y09315
X10645Y12105
X10665Y02795
X10670Y16365
X10675Y11186
X10675Y11281
X10675Y11376
X10675Y14030
X10675Y14125
X10675Y14220
X10675Y05495
X10675Y05590
X10675Y05685
X10675Y08340
X10675Y08435
X10675Y08530
X10675Y11485
X10695Y06565
X10695Y09480
X10695Y12225
X10695Y14385
X10715Y15910
X10715Y02880
X10720Y16260
X10740Y08670
X10745Y06440
X10745Y09315
X10745Y12105
X10770Y11186
X10770Y11376
X10770Y14030
X10770Y14220
X10770Y05495
X10770Y05685
X10770Y08340
X10770Y08530
X10770Y11281
X10770Y14125
X10770Y05590
X10770Y08435
X10780Y11540
X10795Y06565
X10795Y09485
X10795Y12225
X10865Y11186
X10865Y11281
X10865Y11376
X10865Y14030
X10865Y14125
X10865Y14220
X10865Y05495
X10865Y05590
X10865Y05685
X10865Y08340
X10865Y08435
X10865Y08530
X10870Y08740
X10895Y06440
X10895Y09315
X10895Y12105
X10945Y06565
X10945Y09490
X10945Y12225
X10950Y05300
X10950Y13905
X10970Y08245
X10980Y10985
X10990Y05880
X10995Y06440
X10995Y09320
X10995Y12105
X11015Y02795
X11020Y11560
X11020Y14340
X11020Y16210
X11045Y06565
X11045Y09495
X11045Y11255
X11045Y12225
X11050Y05460
X11055Y10455
X11055Y11150
X11065Y05565
X11065Y02880
X11070Y14065
X11070Y16310
X11075Y07630
X11080Y13225
X11085Y08340
X11115Y04790
X11120Y11975
X11125Y07755
X11130Y14830
X11135Y04915
X11135Y06280
X11135Y09115
X11135Y10605
X11135Y13455
X11140Y14985
X11175Y12360
X11230Y06415
X11280Y11980
X11290Y09110
X11330Y15910
X11334Y10666
X11334Y13510
X11335Y04975
X11335Y07820
X11345Y06200
X11365Y02880
X11370Y16210
X11385Y10736
X11385Y13580
X11385Y11895
X11410Y07875
X11430Y09110
X11440Y05885
X11440Y05990
X11440Y13755
X11445Y08720
X11445Y05230
X11450Y08070
X11450Y08840
X11455Y10900
X11465Y14525
X11470Y11670
X11475Y06120
X11500Y13640
X11510Y08965
X11530Y07980
X11550Y11830
X11560Y05255
X11560Y10840
X11680Y13850
X11680Y13950
X11680Y14050
X11680Y14150
X11680Y14255
X11715Y06435
X11735Y11306
X11735Y11005
X11735Y11105
X11735Y11205
X11735Y11410
X11790Y08210
X11790Y08310
X11790Y08410
X11790Y08510
X11790Y08610
X11805Y05315
X11805Y05415
X11805Y05515
X11855Y13900
X11855Y14000
X11855Y14100
X11855Y14200
X11855Y14315
X11880Y06355
X11945Y11055
X11949Y11156
X11950Y11255
X11950Y11355
X11950Y11465
X11970Y05365
X11970Y05465
X11980Y08160
X11980Y08260
X11980Y08360
X11980Y08460
X11980Y08560
X12055Y05565
X12055Y05665
X12115Y05830
X12120Y05735
X12135Y05615
X12205Y09525
X12270Y09065
X12270Y09435
X12335Y08650
X12335Y08965
X12335Y09530
X12360Y06080
X12525Y12365
X12565Y04195
X12595Y04365
X12595Y09935
X12635Y08140
X12660Y11585
X12660Y12225
X12670Y05450
X12695Y08235
X12695Y08620
X12700Y05540
X12730Y09690
X12740Y06265
X12740Y12305
X12740Y12915
X12760Y08150
X12770Y05190
X12800Y09760
X12840Y07955
X12840Y09405
X12841Y09539
X12875Y15225
X12880Y05245
X12880Y08145
X12889Y09691
X12945Y08230
X12945Y08615
X12965Y05295
X12975Y05390
X12995Y15535
X13000Y05490
X13030Y09325
X13050Y07695
X13055Y06525
X13080Y15345
X13145Y05565
X13160Y15905
X13175Y04925
X13175Y14180
X13190Y08220
X13190Y08620
X13235Y10205
X13240Y15995
X13255Y08095
X13285Y04390
X13290Y03215
X13320Y15930
X13325Y14030
X13335Y10265
X13415Y09210
X13435Y13540
X13455Y04720
X13500Y13990
X13545Y09210
X13635Y10105
X13665Y14020
X13670Y14940
X13675Y04990
X13695Y09225
X13735Y10100
X13745Y14735
X13755Y14180
X13795Y16000
X13806Y15079
X13815Y15800
X13815Y16150
X13840Y10110
X13905Y15505
X13905Y15070
X13940Y10120
X13950Y07690
X13950Y07790
X13950Y07890
X13950Y07990
X13950Y08090
X13950Y08190
X13950Y08290
X13950Y08390
X13950Y08490
X13950Y08590
X13960Y05040
X13960Y05340
X13960Y05440
X13965Y04940
X13965Y05140
X13965Y05540
X13990Y15005
X14010Y05890
X14030Y05590
X14055Y07740
X14055Y07840
X14055Y07940
X14055Y08040
X14055Y08140
X14055Y08240
X14055Y08340
X14055Y08440
X14060Y06240
X14060Y06390
X14060Y07140
X14060Y08540
X14070Y12560
X14075Y07340
X14080Y11860
X14085Y12210
X14100Y11510
X14125Y12910
X14195Y04380
X14200Y04195
T2
X04780Y15485
X04780Y15590
X04830Y15670
X04950Y15665
X05150Y11265
X05260Y11265
X05320Y09925
X05365Y11250
X05400Y09845
X05480Y11205
X05605Y04895
X05625Y04805
X05635Y04990
X05715Y04765
X05760Y05015
X06260Y05910
X06260Y08130
X06480Y05910
X06495Y06245
X06675Y12020
X06675Y13830
X06765Y08130
X06915Y13830
X07690Y05695
X07720Y11240
X07735Y14445
X07740Y08755
X07750Y05450
X07760Y05540
X07775Y05745
X07825Y05885
X07835Y14385
X07885Y08650
X08210Y05880
X08520Y14805
X08715Y06005
X09240Y05975
X09565Y06620
X09585Y12465
X09715Y06205
X10465Y05830
X10540Y05525
X10550Y05765
X10550Y08615
X10555Y11215
X10640Y08675
X10765Y03180
X10815Y03300
X10840Y05835
X10865Y03180
X10915Y03300
X10965Y03180
X11010Y03965
X11070Y04425
X11115Y03180
X11165Y03320
X11215Y03180
X11265Y03320
X11315Y03180
X11335Y14805
X11425Y14750
X11440Y05110
X11460Y14425
X11465Y11570
X11510Y14660
X12575Y10045
X12580Y10150
X12630Y10230
X12950Y09790
X13315Y10075
X13375Y10145
X13470Y09360
X13470Y09450
X13515Y10080
X13525Y09985
T3
X07100Y08080
X07105Y10925
X07595Y07590
X10380Y07585
T4
X07610Y11965
X12175Y15325
X12175Y15695
X12385Y15325
X12390Y15695
X12975Y14760
X12975Y14915
X13135Y14760
X13135Y14920
T0
M30
