%
T1C.3F095S3
X1368Y0965
X1385Y0925
X1394Y0943
X1433Y0932
X1433Y0972
X146Y0912
X1477Y096
X1583Y096
X1601Y0955
X1621Y0912
X1672Y0955
X1673Y097
X1685Y0945
X1738Y0955
X1738Y097
X1747Y0919
X1764Y0916
X1797Y0963
X1827Y0914
X1833Y097
X1902Y0969
X1902Y0952
X1902Y0935
X1902Y0918
X1929Y0917
X1943Y0972
X1951Y0917
X2023Y096
X21Y103
X203Y103
X2023Y098
X195Y101
X1902Y0986
X1887Y1006
X188Y0998
X1857Y0982
X1857Y099
X1837Y1015
X1837Y103
X1777Y1025
X168Y1019
X168Y0988
X1665Y1019
X1663Y0985
X1632Y0976
X1601Y0995
X1601Y1035
X1592Y1003
X1592Y0987
X1583Y103
X1511Y0995
X1477Y103
X1433Y1012
X1393Y0991
X1344Y1033
X1318Y1101
X1355Y1047
X1387Y108
X1408Y1091
X1418Y1101
X144Y1096
X1603Y1057
X1653Y1064
X1658Y1097
X1659Y107
X1666Y1076
X168Y1076
X168Y1055
X1687Y1071
X1689Y1097
X1694Y1065
X1699Y1083
X1702Y1091
X1704Y1056
X1706Y1077
X1709Y1097
X1736Y107
X1739Y104
X1749Y107
X1761Y1055
X1837Y1045
X1878Y1057
X1938Y1057
X195Y109
X2023Y11
X2125Y1067
X2127Y11
X2023Y112
X1864Y1155
X186Y112
X1852Y1162
X1839Y113
X1829Y1139
X1806Y1116
X1806Y1161
X1799Y1154
X1776Y111
X1772Y115
X1762Y1137
X175Y1137
X175Y1124
X1725Y1115
X1702Y1103
X17Y1124
X1696Y1109
X1676Y1116
X1676Y113
X1665Y1116
X1659Y1109
X1646Y1109
X1645Y113
X1602Y1164
X1595Y1145
X159Y1164
X1581Y112
X1578Y1164
X1566Y1164
X1556Y113
X1554Y1164
X1495Y1135
X1393Y12
X1442Y12
X1468Y121
X1478Y117
X1494Y1204
X1494Y1216
X1506Y1204
X1506Y1216
X153Y1188
X153Y1206
X1536Y12
X1536Y1182
X1542Y1176
X1542Y1206
X1548Y117
X1548Y12
X1549Y122
X156Y12
X156Y117
X1566Y1206
X1572Y1212
X1572Y117
X1578Y1218
X1584Y117
X1596Y117
X1615Y1208
X1637Y1169
X1645Y1166
X1651Y1172
X1665Y1226
X1665Y121
X168Y121
X168Y1175
X1688Y1175
X1688Y1183
X1715Y1225
X1724Y1175
X1724Y119
X173Y1225
X1732Y1175
X1745Y1225
X1752Y119
X1752Y1175
X1768Y119
X1768Y1175
X178Y119
X178Y1226
X1792Y1175
X1795Y1206
X1795Y1218
X1795Y1226
X1813Y1168
X182Y1175
X1832Y1195
X1851Y1187
X1855Y1223
X1857Y1193
X1869Y1211
X1879Y1169
X1892Y1193
X1892Y1201
X1892Y1209
X1898Y1187
X1898Y1175
X203Y117
X21Y117
X2102Y122
X2125Y1207
X2004Y1265
X1913Y1292
X19Y127
X1892Y1286
X1879Y1286
X1869Y1266
X1855Y1238
X1846Y1272
X183Y1292
X1795Y1288
X1795Y1262
X1795Y1274
X1795Y1254
X1795Y1234
X1795Y1246
X178Y129
X178Y1246
X176Y129
X1745Y1255
X1745Y124
X1736Y129
X173Y1255
X173Y124
X1715Y1255
X1715Y124
X168Y1246
X168Y129
X168Y1278
X1665Y1246
X1665Y1278
X1614Y1248
X1614Y1288
X1602Y128
X16Y1251
X1596Y1236
X1596Y1274
X1596Y1244
X159Y1267
X159Y123
X1584Y1236
X1578Y1248
X156Y1236
X1548Y1248
X1541Y1288
X1529Y1236
X1525Y1267
X1473Y1256
X147Y1264
X1458Y1252
X1442Y125
X1395Y1292
X1387Y126
X1318Y1241
X1335Y1343
X1365Y1307
X144Y135
X1445Y1312
X1455Y1322
X1473Y1315
X1475Y1348
X152Y1293
X152Y1347
X1533Y1337
X1542Y1355
X1567Y1355
X1583Y1299
X1589Y1305
X1599Y1331
X163Y13
X1665Y1294
X168Y1305
X1688Y1305
X17Y1305
X173Y1329
X1736Y1305
X1745Y1329
X176Y1305
X1768Y1305
X1784Y1339
X1794Y1337
X1795Y1301
X1798Y1317
X18Y133
X1806Y1317
X1812Y1311
X1818Y1317
X1839Y1311
X1843Y1352
X1845Y1317
X1845Y1337
X1854Y1337
X1865Y1332
X1885Y1334
X1886Y1354
X1888Y1325
X1892Y1298
X1907Y1315
X1957Y1315
X1974Y1354
X1986Y1334
X204Y1337
X2004Y1365
X2004Y141
X1928Y1377
X189Y141
X1889Y1385
X162Y136
X158Y141
X1567Y1363
X1542Y1363
X1475Y139
X1395Y1398
X1363Y137
T2C.75F197S55
X15056Y0935
X15056Y1055
X15544Y0935
X15544Y1055
T3C.8F197S55
X208Y12846
X208Y131
X208Y13354
T4C.95F197S55
X139Y11575
X139Y11825
X141Y11575
X141Y11825
T5C1.F197S55
X16955Y09208
X17209Y09716
X17209Y09462
X17209Y09208
X17209Y10224
X17209Y0997
X17209Y10478
X17209Y10732
X18669Y10859
X2035Y128
X19177Y11557
X19177Y11811
X19177Y12065
X19177Y11303
X19177Y12319
X16256Y1124
X15367Y14161
X15367Y13907
X16157Y13773
X16157Y14027
X16411Y13773
X16411Y14027
X16665Y13773
X16665Y14027
X16919Y13773
X16919Y14027
X17173Y14027
X17173Y13773
X17427Y13773
X17427Y14027
X17681Y13773
X17681Y14027
X17935Y14027
X17935Y13773
X18189Y13773
X18189Y14027
X18443Y14027
X18443Y13773
T6C1.1F139S55
X21063Y12846
X21063Y13354
T7C1.7F089S55
X206Y103
X206Y117
X213Y117
X213Y103
X21324Y1282
X21324Y1338
T8C2.3F066S55
X13629Y111
X13629Y123
T9C3.2F035S794
X1332Y0932
X2128Y0932
X2128Y1408
X1332Y1408
M30
