%
T1C.3F95S300
X55250Y61850
X58900Y60950
X59800Y64000
X62250Y60000
X63050Y54300
X68250Y60100
X79250Y62950
X79800Y58550
X81050Y58200
X86500Y56350
X87800Y58550
X96500Y61950
X98850Y55600
X93000Y66600
X87900Y66650
X84100Y69800
X82600Y69800
X81700Y68550
X80700Y66700
X80600Y68100
X76700Y66750
X75150Y69900
X74250Y69100
X68250Y65000
X58800Y66550
X57400Y74000
X58100Y76150
X59150Y71600
X65650Y76150
X65650Y75000
X67500Y71150
X69250Y75650
X70650Y75700
X71300Y71800
X72950Y71500
X74700Y75250
X75000Y76450
X77100Y75100
X77250Y71900
X78400Y71850
X79250Y75650
X80200Y75150
X82400Y74350
X82650Y73250
X83850Y73400
X84300Y74900
X84450Y72450
X84450Y76600
X85450Y75400
X85500Y76900
X87300Y73050
X88400Y73050
X88900Y75950
X89050Y71250
X89050Y74750
X90000Y72000
X90000Y74000
X88750Y79200
X84650Y80500
X84500Y78450
X81050Y81450
X80589Y82997
X80450Y78600
X80400Y77450
X80150Y80000
X78400Y77000
X78202Y79011
X76650Y80050
X76600Y81450
X76550Y83050
X75000Y81500
X74998Y83114
X74950Y80000
X73250Y81450
X73219Y79997
X73200Y83050
X71000Y77400
X68750Y79250
X68650Y82050
X65540Y80911
X65300Y79300
X64350Y77600
X63700Y80900
X62250Y78750
X61000Y77850
X59400Y79500
X59000Y77650
X57700Y77700
X55400Y82600
X58050Y88150
X58900Y85850
X59150Y84350
X59450Y88900
X60000Y87450
X60200Y89600
X63650Y85050
X64250Y83700
X68750Y85250
X68810Y83307
X70709Y85804
X70710Y87801
X74000Y86900
X76705Y87801
X78150Y86350
X79600Y87103
X80800Y87500
X81299Y85704
X81300Y84450
X86500Y88600
X87300Y87250
X87500Y84500
X88150Y86450
X94150Y93800
X86550Y89800
X86500Y95500
X86400Y91650
X85250Y90900
X84350Y91850
X81350Y91400
X79650Y92150
X78301Y91899
X76300Y91400
X72300Y92600
X71150Y92850
X68600Y91300
X67500Y91300
X61700Y92100
X61450Y89750
X58700Y92150
X58700Y98850
X61700Y98850
X88700Y98700
X91700Y98700
T2C.8F197S550
X52750Y57500
X60947Y51556
X60947Y56551
X64250Y62750
X69550Y63700
X63250Y69750
T3C1.F197S550
X68970Y54300
X68970Y51760
X71510Y54300
X71510Y51760
X74050Y54300
X74050Y51760
X76590Y54300
X76590Y51760
X79130Y54300
X79130Y51760
X81670Y54300
X81670Y51760
X84210Y54300
X84210Y51760
X86750Y54300
X86750Y51760
X98040Y63500
X98040Y66040
X98040Y68580
X95500Y66040
X95500Y63500
X95500Y68580
X54500Y63500
X54500Y66040
X54500Y68580
X51960Y66040
X51960Y63500
X51960Y68580
X51960Y71120
X51960Y73660
X51960Y76200
X54500Y71120
X54500Y73660
X54500Y76200
X95500Y71120
X95500Y76200
X95500Y73660
X98040Y71120
X98040Y76200
X98040Y73660
X98040Y78740
X98040Y81280
X95500Y81280
X95500Y78740
X54500Y78740
X54500Y81280
X51960Y78740
X51960Y81280
X51960Y83820
X51960Y86360
X54500Y83820
X54500Y86360
X95500Y86360
X95500Y83820
X98040Y86360
X98040Y83820
X84280Y95500
X81740Y95500
X79200Y95500
X76660Y95500
X74120Y95500
X71580Y95500
X69040Y95500
X66500Y95500
X66500Y98040
X69040Y98040
X71580Y98040
X74120Y98040
X76660Y98040
X79200Y98040
X81740Y98040
X84280Y98040
T4C3.F69S658
X53000Y53000
X97000Y53000
X97000Y97000
X53000Y97000
M30
