G04 (created by PCBNEW-RS274X (2011-04-29 BZR 2986)-stable) date 09/09/2011 17:06:47*
G01*
G70*
G90*
%MOIN*%
G04 Gerber Fmt 3.4, Leading zero omitted, Abs format*
%FSLAX34Y34*%
G04 APERTURE LIST*
%ADD10C,0.006000*%
%ADD11C,0.012000*%
%ADD12C,0.015000*%
G04 APERTURE END LIST*
G54D10*
G54D11*
X61951Y-63552D02*
X61951Y-62752D01*
X61951Y-63133D02*
X62294Y-63133D01*
X62294Y-63552D02*
X62294Y-62752D01*
X62666Y-63552D02*
X62608Y-63514D01*
X62580Y-63476D01*
X62551Y-63399D01*
X62551Y-63171D01*
X62580Y-63095D01*
X62608Y-63057D01*
X62666Y-63018D01*
X62751Y-63018D01*
X62808Y-63057D01*
X62837Y-63095D01*
X62866Y-63171D01*
X62866Y-63399D01*
X62837Y-63476D01*
X62808Y-63514D01*
X62751Y-63552D01*
X62666Y-63552D01*
X63209Y-63552D02*
X63151Y-63514D01*
X63123Y-63438D01*
X63123Y-62752D01*
X63665Y-63514D02*
X63608Y-63552D01*
X63494Y-63552D01*
X63437Y-63514D01*
X63408Y-63438D01*
X63408Y-63133D01*
X63437Y-63057D01*
X63494Y-63018D01*
X63608Y-63018D01*
X63665Y-63057D01*
X63694Y-63133D01*
X63694Y-63209D01*
X63408Y-63285D01*
X64379Y-63514D02*
X64436Y-63552D01*
X64551Y-63552D01*
X64608Y-63514D01*
X64636Y-63438D01*
X64636Y-63399D01*
X64608Y-63323D01*
X64551Y-63285D01*
X64465Y-63285D01*
X64408Y-63247D01*
X64379Y-63171D01*
X64379Y-63133D01*
X64408Y-63057D01*
X64465Y-63018D01*
X64551Y-63018D01*
X64608Y-63057D01*
X64894Y-63552D02*
X64894Y-63018D01*
X64894Y-62752D02*
X64865Y-62790D01*
X64894Y-62828D01*
X64922Y-62790D01*
X64894Y-62752D01*
X64894Y-62828D01*
X65123Y-63018D02*
X65437Y-63018D01*
X65123Y-63552D01*
X65437Y-63552D01*
X65894Y-63514D02*
X65837Y-63552D01*
X65723Y-63552D01*
X65666Y-63514D01*
X65637Y-63438D01*
X65637Y-63133D01*
X65666Y-63057D01*
X65723Y-63018D01*
X65837Y-63018D01*
X65894Y-63057D01*
X65923Y-63133D01*
X65923Y-63209D01*
X65637Y-63285D01*
X66637Y-63552D02*
X66637Y-63018D01*
X66637Y-62752D02*
X66608Y-62790D01*
X66637Y-62828D01*
X66665Y-62790D01*
X66637Y-62752D01*
X66637Y-62828D01*
X66894Y-63514D02*
X66951Y-63552D01*
X67066Y-63552D01*
X67123Y-63514D01*
X67151Y-63438D01*
X67151Y-63399D01*
X67123Y-63323D01*
X67066Y-63285D01*
X66980Y-63285D01*
X66923Y-63247D01*
X66894Y-63171D01*
X66894Y-63133D01*
X66923Y-63057D01*
X66980Y-63018D01*
X67066Y-63018D01*
X67123Y-63057D01*
X67780Y-63018D02*
X68009Y-63018D01*
X67866Y-63552D02*
X67866Y-62866D01*
X67894Y-62790D01*
X67952Y-62752D01*
X68009Y-62752D01*
X68209Y-63552D02*
X68209Y-63018D01*
X68209Y-62752D02*
X68180Y-62790D01*
X68209Y-62828D01*
X68237Y-62790D01*
X68209Y-62752D01*
X68209Y-62828D01*
X68495Y-63018D02*
X68495Y-63552D01*
X68495Y-63095D02*
X68523Y-63057D01*
X68581Y-63018D01*
X68666Y-63018D01*
X68723Y-63057D01*
X68752Y-63133D01*
X68752Y-63552D01*
X69038Y-63552D02*
X69038Y-63018D01*
X69038Y-62752D02*
X69009Y-62790D01*
X69038Y-62828D01*
X69066Y-62790D01*
X69038Y-62752D01*
X69038Y-62828D01*
X69295Y-63514D02*
X69352Y-63552D01*
X69467Y-63552D01*
X69524Y-63514D01*
X69552Y-63438D01*
X69552Y-63399D01*
X69524Y-63323D01*
X69467Y-63285D01*
X69381Y-63285D01*
X69324Y-63247D01*
X69295Y-63171D01*
X69295Y-63133D01*
X69324Y-63057D01*
X69381Y-63018D01*
X69467Y-63018D01*
X69524Y-63057D01*
X69810Y-63552D02*
X69810Y-62752D01*
X70067Y-63552D02*
X70067Y-63133D01*
X70038Y-63057D01*
X69981Y-63018D01*
X69896Y-63018D01*
X69838Y-63057D01*
X69810Y-63095D01*
X70581Y-63514D02*
X70524Y-63552D01*
X70410Y-63552D01*
X70353Y-63514D01*
X70324Y-63438D01*
X70324Y-63133D01*
X70353Y-63057D01*
X70410Y-63018D01*
X70524Y-63018D01*
X70581Y-63057D01*
X70610Y-63133D01*
X70610Y-63209D01*
X70324Y-63285D01*
X71124Y-63552D02*
X71124Y-62752D01*
X71124Y-63514D02*
X71067Y-63552D01*
X70953Y-63552D01*
X70895Y-63514D01*
X70867Y-63476D01*
X70838Y-63399D01*
X70838Y-63171D01*
X70867Y-63095D01*
X70895Y-63057D01*
X70953Y-63018D01*
X71067Y-63018D01*
X71124Y-63057D01*
X71838Y-63514D02*
X71895Y-63552D01*
X72010Y-63552D01*
X72067Y-63514D01*
X72095Y-63438D01*
X72095Y-63399D01*
X72067Y-63323D01*
X72010Y-63285D01*
X71924Y-63285D01*
X71867Y-63247D01*
X71838Y-63171D01*
X71838Y-63133D01*
X71867Y-63057D01*
X71924Y-63018D01*
X72010Y-63018D01*
X72067Y-63057D01*
X72353Y-63552D02*
X72353Y-63018D01*
X72353Y-62752D02*
X72324Y-62790D01*
X72353Y-62828D01*
X72381Y-62790D01*
X72353Y-62752D01*
X72353Y-62828D01*
X72582Y-63018D02*
X72896Y-63018D01*
X72582Y-63552D01*
X72896Y-63552D01*
X73353Y-63514D02*
X73296Y-63552D01*
X73182Y-63552D01*
X73125Y-63514D01*
X73096Y-63438D01*
X73096Y-63133D01*
X73125Y-63057D01*
X73182Y-63018D01*
X73296Y-63018D01*
X73353Y-63057D01*
X73382Y-63133D01*
X73382Y-63209D01*
X73096Y-63285D01*
X73639Y-63476D02*
X73667Y-63514D01*
X73639Y-63552D01*
X73610Y-63514D01*
X73639Y-63476D01*
X73639Y-63552D01*
X61925Y-62135D02*
X61925Y-61335D01*
X62068Y-61335D01*
X62153Y-61373D01*
X62211Y-61449D01*
X62239Y-61525D01*
X62268Y-61678D01*
X62268Y-61792D01*
X62239Y-61944D01*
X62211Y-62021D01*
X62153Y-62097D01*
X62068Y-62135D01*
X61925Y-62135D01*
X62525Y-62135D02*
X62525Y-61601D01*
X62525Y-61754D02*
X62553Y-61678D01*
X62582Y-61640D01*
X62639Y-61601D01*
X62696Y-61601D01*
X62896Y-62135D02*
X62896Y-61601D01*
X62896Y-61335D02*
X62867Y-61373D01*
X62896Y-61411D01*
X62924Y-61373D01*
X62896Y-61335D01*
X62896Y-61411D01*
X63268Y-62135D02*
X63210Y-62097D01*
X63182Y-62021D01*
X63182Y-61335D01*
X63582Y-62135D02*
X63524Y-62097D01*
X63496Y-62021D01*
X63496Y-61335D01*
X64267Y-62135D02*
X64267Y-61335D01*
X64410Y-61335D01*
X64495Y-61373D01*
X64553Y-61449D01*
X64581Y-61525D01*
X64610Y-61678D01*
X64610Y-61792D01*
X64581Y-61944D01*
X64553Y-62021D01*
X64495Y-62097D01*
X64410Y-62135D01*
X64267Y-62135D01*
X65124Y-62135D02*
X65124Y-61716D01*
X65095Y-61640D01*
X65038Y-61601D01*
X64924Y-61601D01*
X64867Y-61640D01*
X65124Y-62097D02*
X65067Y-62135D01*
X64924Y-62135D01*
X64867Y-62097D01*
X64838Y-62021D01*
X64838Y-61944D01*
X64867Y-61868D01*
X64924Y-61830D01*
X65067Y-61830D01*
X65124Y-61792D01*
X65324Y-61601D02*
X65553Y-61601D01*
X65410Y-61335D02*
X65410Y-62021D01*
X65438Y-62097D01*
X65496Y-62135D01*
X65553Y-62135D01*
X66010Y-62135D02*
X66010Y-61716D01*
X65981Y-61640D01*
X65924Y-61601D01*
X65810Y-61601D01*
X65753Y-61640D01*
X66010Y-62097D02*
X65953Y-62135D01*
X65810Y-62135D01*
X65753Y-62097D01*
X65724Y-62021D01*
X65724Y-61944D01*
X65753Y-61868D01*
X65810Y-61830D01*
X65953Y-61830D01*
X66010Y-61792D01*
X66753Y-62135D02*
X66753Y-61601D01*
X66753Y-61335D02*
X66724Y-61373D01*
X66753Y-61411D01*
X66781Y-61373D01*
X66753Y-61335D01*
X66753Y-61411D01*
X67010Y-62097D02*
X67067Y-62135D01*
X67182Y-62135D01*
X67239Y-62097D01*
X67267Y-62021D01*
X67267Y-61982D01*
X67239Y-61906D01*
X67182Y-61868D01*
X67096Y-61868D01*
X67039Y-61830D01*
X67010Y-61754D01*
X67010Y-61716D01*
X67039Y-61640D01*
X67096Y-61601D01*
X67182Y-61601D01*
X67239Y-61640D01*
X67982Y-62135D02*
X67982Y-61601D01*
X67982Y-61335D02*
X67953Y-61373D01*
X67982Y-61411D01*
X68010Y-61373D01*
X67982Y-61335D01*
X67982Y-61411D01*
X68268Y-61601D02*
X68268Y-62135D01*
X68268Y-61678D02*
X68296Y-61640D01*
X68354Y-61601D01*
X68439Y-61601D01*
X68496Y-61640D01*
X68525Y-61716D01*
X68525Y-62135D01*
X69268Y-61716D02*
X69468Y-61716D01*
X69554Y-62135D02*
X69268Y-62135D01*
X69268Y-61335D01*
X69554Y-61335D01*
X69754Y-62135D02*
X70068Y-61601D01*
X69754Y-61601D02*
X70068Y-62135D01*
X70554Y-62097D02*
X70497Y-62135D01*
X70383Y-62135D01*
X70325Y-62097D01*
X70297Y-62059D01*
X70268Y-61982D01*
X70268Y-61754D01*
X70297Y-61678D01*
X70325Y-61640D01*
X70383Y-61601D01*
X70497Y-61601D01*
X70554Y-61640D01*
X71039Y-62097D02*
X70982Y-62135D01*
X70868Y-62135D01*
X70811Y-62097D01*
X70782Y-62021D01*
X70782Y-61716D01*
X70811Y-61640D01*
X70868Y-61601D01*
X70982Y-61601D01*
X71039Y-61640D01*
X71068Y-61716D01*
X71068Y-61792D01*
X70782Y-61868D01*
X71411Y-62135D02*
X71353Y-62097D01*
X71325Y-62021D01*
X71325Y-61335D01*
X71725Y-62135D02*
X71667Y-62097D01*
X71639Y-62021D01*
X71639Y-61335D01*
X72039Y-62135D02*
X71981Y-62097D01*
X71953Y-62059D01*
X71924Y-61982D01*
X71924Y-61754D01*
X71953Y-61678D01*
X71981Y-61640D01*
X72039Y-61601D01*
X72124Y-61601D01*
X72181Y-61640D01*
X72210Y-61678D01*
X72239Y-61754D01*
X72239Y-61982D01*
X72210Y-62059D01*
X72181Y-62097D01*
X72124Y-62135D01*
X72039Y-62135D01*
X72496Y-61601D02*
X72496Y-62135D01*
X72496Y-61678D02*
X72524Y-61640D01*
X72582Y-61601D01*
X72667Y-61601D01*
X72724Y-61640D01*
X72753Y-61716D01*
X72753Y-62135D01*
X73410Y-61601D02*
X73639Y-61601D01*
X73496Y-62135D02*
X73496Y-61449D01*
X73524Y-61373D01*
X73582Y-61335D01*
X73639Y-61335D01*
X73925Y-62135D02*
X73867Y-62097D01*
X73839Y-62059D01*
X73810Y-61982D01*
X73810Y-61754D01*
X73839Y-61678D01*
X73867Y-61640D01*
X73925Y-61601D01*
X74010Y-61601D01*
X74067Y-61640D01*
X74096Y-61678D01*
X74125Y-61754D01*
X74125Y-61982D01*
X74096Y-62059D01*
X74067Y-62097D01*
X74010Y-62135D01*
X73925Y-62135D01*
X74382Y-62135D02*
X74382Y-61601D01*
X74382Y-61754D02*
X74410Y-61678D01*
X74439Y-61640D01*
X74496Y-61601D01*
X74553Y-61601D01*
X74753Y-62135D02*
X74753Y-61601D01*
X74753Y-61678D02*
X74781Y-61640D01*
X74839Y-61601D01*
X74924Y-61601D01*
X74981Y-61640D01*
X75010Y-61716D01*
X75010Y-62135D01*
X75010Y-61716D02*
X75039Y-61640D01*
X75096Y-61601D01*
X75181Y-61601D01*
X75239Y-61640D01*
X75267Y-61716D01*
X75267Y-62135D01*
X75810Y-62135D02*
X75810Y-61716D01*
X75781Y-61640D01*
X75724Y-61601D01*
X75610Y-61601D01*
X75553Y-61640D01*
X75810Y-62097D02*
X75753Y-62135D01*
X75610Y-62135D01*
X75553Y-62097D01*
X75524Y-62021D01*
X75524Y-61944D01*
X75553Y-61868D01*
X75610Y-61830D01*
X75753Y-61830D01*
X75810Y-61792D01*
X76010Y-61601D02*
X76239Y-61601D01*
X76096Y-61335D02*
X76096Y-62021D01*
X76124Y-62097D01*
X76182Y-62135D01*
X76239Y-62135D01*
X76467Y-62097D02*
X76467Y-62135D01*
X76439Y-62211D01*
X76410Y-62249D01*
X77182Y-61601D02*
X77182Y-62135D01*
X77182Y-61678D02*
X77210Y-61640D01*
X77268Y-61601D01*
X77353Y-61601D01*
X77410Y-61640D01*
X77439Y-61716D01*
X77439Y-62135D01*
X77811Y-62135D02*
X77753Y-62097D01*
X77725Y-62059D01*
X77696Y-61982D01*
X77696Y-61754D01*
X77725Y-61678D01*
X77753Y-61640D01*
X77811Y-61601D01*
X77896Y-61601D01*
X77953Y-61640D01*
X77982Y-61678D01*
X78011Y-61754D01*
X78011Y-61982D01*
X77982Y-62059D01*
X77953Y-62097D01*
X77896Y-62135D01*
X77811Y-62135D01*
X78668Y-61601D02*
X78982Y-61601D01*
X78668Y-62135D01*
X78982Y-62135D01*
X79439Y-62097D02*
X79382Y-62135D01*
X79268Y-62135D01*
X79211Y-62097D01*
X79182Y-62021D01*
X79182Y-61716D01*
X79211Y-61640D01*
X79268Y-61601D01*
X79382Y-61601D01*
X79439Y-61640D01*
X79468Y-61716D01*
X79468Y-61792D01*
X79182Y-61868D01*
X79725Y-62135D02*
X79725Y-61601D01*
X79725Y-61754D02*
X79753Y-61678D01*
X79782Y-61640D01*
X79839Y-61601D01*
X79896Y-61601D01*
X80182Y-62135D02*
X80124Y-62097D01*
X80096Y-62059D01*
X80067Y-61982D01*
X80067Y-61754D01*
X80096Y-61678D01*
X80124Y-61640D01*
X80182Y-61601D01*
X80267Y-61601D01*
X80324Y-61640D01*
X80353Y-61678D01*
X80382Y-61754D01*
X80382Y-61982D01*
X80353Y-62059D01*
X80324Y-62097D01*
X80267Y-62135D01*
X80182Y-62135D01*
X81067Y-62097D02*
X81124Y-62135D01*
X81239Y-62135D01*
X81296Y-62097D01*
X81324Y-62021D01*
X81324Y-61982D01*
X81296Y-61906D01*
X81239Y-61868D01*
X81153Y-61868D01*
X81096Y-61830D01*
X81067Y-61754D01*
X81067Y-61716D01*
X81096Y-61640D01*
X81153Y-61601D01*
X81239Y-61601D01*
X81296Y-61640D01*
X81839Y-61601D02*
X81839Y-62135D01*
X81582Y-61601D02*
X81582Y-62021D01*
X81610Y-62097D01*
X81668Y-62135D01*
X81753Y-62135D01*
X81810Y-62097D01*
X81839Y-62059D01*
X82125Y-61601D02*
X82125Y-62401D01*
X82125Y-61640D02*
X82182Y-61601D01*
X82296Y-61601D01*
X82353Y-61640D01*
X82382Y-61678D01*
X82411Y-61754D01*
X82411Y-61982D01*
X82382Y-62059D01*
X82353Y-62097D01*
X82296Y-62135D01*
X82182Y-62135D01*
X82125Y-62097D01*
X82668Y-61601D02*
X82668Y-62401D01*
X82668Y-61640D02*
X82725Y-61601D01*
X82839Y-61601D01*
X82896Y-61640D01*
X82925Y-61678D01*
X82954Y-61754D01*
X82954Y-61982D01*
X82925Y-62059D01*
X82896Y-62097D01*
X82839Y-62135D01*
X82725Y-62135D01*
X82668Y-62097D01*
X83211Y-62135D02*
X83211Y-61601D01*
X83211Y-61754D02*
X83239Y-61678D01*
X83268Y-61640D01*
X83325Y-61601D01*
X83382Y-61601D01*
X83810Y-62097D02*
X83753Y-62135D01*
X83639Y-62135D01*
X83582Y-62097D01*
X83553Y-62021D01*
X83553Y-61716D01*
X83582Y-61640D01*
X83639Y-61601D01*
X83753Y-61601D01*
X83810Y-61640D01*
X83839Y-61716D01*
X83839Y-61792D01*
X83553Y-61868D01*
X84067Y-62097D02*
X84124Y-62135D01*
X84239Y-62135D01*
X84296Y-62097D01*
X84324Y-62021D01*
X84324Y-61982D01*
X84296Y-61906D01*
X84239Y-61868D01*
X84153Y-61868D01*
X84096Y-61830D01*
X84067Y-61754D01*
X84067Y-61716D01*
X84096Y-61640D01*
X84153Y-61601D01*
X84239Y-61601D01*
X84296Y-61640D01*
X84553Y-62097D02*
X84610Y-62135D01*
X84725Y-62135D01*
X84782Y-62097D01*
X84810Y-62021D01*
X84810Y-61982D01*
X84782Y-61906D01*
X84725Y-61868D01*
X84639Y-61868D01*
X84582Y-61830D01*
X84553Y-61754D01*
X84553Y-61716D01*
X84582Y-61640D01*
X84639Y-61601D01*
X84725Y-61601D01*
X84782Y-61640D01*
X85068Y-62135D02*
X85068Y-61601D01*
X85068Y-61335D02*
X85039Y-61373D01*
X85068Y-61411D01*
X85096Y-61373D01*
X85068Y-61335D01*
X85068Y-61411D01*
X85440Y-62135D02*
X85382Y-62097D01*
X85354Y-62059D01*
X85325Y-61982D01*
X85325Y-61754D01*
X85354Y-61678D01*
X85382Y-61640D01*
X85440Y-61601D01*
X85525Y-61601D01*
X85582Y-61640D01*
X85611Y-61678D01*
X85640Y-61754D01*
X85640Y-61982D01*
X85611Y-62059D01*
X85582Y-62097D01*
X85525Y-62135D01*
X85440Y-62135D01*
X85897Y-61601D02*
X85897Y-62135D01*
X85897Y-61678D02*
X85925Y-61640D01*
X85983Y-61601D01*
X86068Y-61601D01*
X86125Y-61640D01*
X86154Y-61716D01*
X86154Y-62135D01*
X86468Y-62097D02*
X86468Y-62135D01*
X86440Y-62211D01*
X86411Y-62249D01*
X87440Y-62135D02*
X87440Y-61716D01*
X87411Y-61640D01*
X87354Y-61601D01*
X87240Y-61601D01*
X87183Y-61640D01*
X87440Y-62097D02*
X87383Y-62135D01*
X87240Y-62135D01*
X87183Y-62097D01*
X87154Y-62021D01*
X87154Y-61944D01*
X87183Y-61868D01*
X87240Y-61830D01*
X87383Y-61830D01*
X87440Y-61792D01*
X87726Y-62135D02*
X87726Y-61335D01*
X87726Y-61640D02*
X87783Y-61601D01*
X87897Y-61601D01*
X87954Y-61640D01*
X87983Y-61678D01*
X88012Y-61754D01*
X88012Y-61982D01*
X87983Y-62059D01*
X87954Y-62097D01*
X87897Y-62135D01*
X87783Y-62135D01*
X87726Y-62097D01*
X88240Y-62097D02*
X88297Y-62135D01*
X88412Y-62135D01*
X88469Y-62097D01*
X88497Y-62021D01*
X88497Y-61982D01*
X88469Y-61906D01*
X88412Y-61868D01*
X88326Y-61868D01*
X88269Y-61830D01*
X88240Y-61754D01*
X88240Y-61716D01*
X88269Y-61640D01*
X88326Y-61601D01*
X88412Y-61601D01*
X88469Y-61640D01*
X88841Y-62135D02*
X88783Y-62097D01*
X88755Y-62059D01*
X88726Y-61982D01*
X88726Y-61754D01*
X88755Y-61678D01*
X88783Y-61640D01*
X88841Y-61601D01*
X88926Y-61601D01*
X88983Y-61640D01*
X89012Y-61678D01*
X89041Y-61754D01*
X89041Y-61982D01*
X89012Y-62059D01*
X88983Y-62097D01*
X88926Y-62135D01*
X88841Y-62135D01*
X89384Y-62135D02*
X89326Y-62097D01*
X89298Y-62021D01*
X89298Y-61335D01*
X89869Y-61601D02*
X89869Y-62135D01*
X89612Y-61601D02*
X89612Y-62021D01*
X89640Y-62097D01*
X89698Y-62135D01*
X89783Y-62135D01*
X89840Y-62097D01*
X89869Y-62059D01*
X90069Y-61601D02*
X90298Y-61601D01*
X90155Y-61335D02*
X90155Y-62021D01*
X90183Y-62097D01*
X90241Y-62135D01*
X90298Y-62135D01*
X90726Y-62097D02*
X90669Y-62135D01*
X90555Y-62135D01*
X90498Y-62097D01*
X90469Y-62021D01*
X90469Y-61716D01*
X90498Y-61640D01*
X90555Y-61601D01*
X90669Y-61601D01*
X90726Y-61640D01*
X90755Y-61716D01*
X90755Y-61792D01*
X90469Y-61868D01*
X91726Y-62097D02*
X91669Y-62135D01*
X91555Y-62135D01*
X91497Y-62097D01*
X91469Y-62059D01*
X91440Y-61982D01*
X91440Y-61754D01*
X91469Y-61678D01*
X91497Y-61640D01*
X91555Y-61601D01*
X91669Y-61601D01*
X91726Y-61640D01*
X92069Y-62135D02*
X92011Y-62097D01*
X91983Y-62059D01*
X91954Y-61982D01*
X91954Y-61754D01*
X91983Y-61678D01*
X92011Y-61640D01*
X92069Y-61601D01*
X92154Y-61601D01*
X92211Y-61640D01*
X92240Y-61678D01*
X92269Y-61754D01*
X92269Y-61982D01*
X92240Y-62059D01*
X92211Y-62097D01*
X92154Y-62135D01*
X92069Y-62135D01*
X92612Y-62135D02*
X92554Y-62097D01*
X92526Y-62059D01*
X92497Y-61982D01*
X92497Y-61754D01*
X92526Y-61678D01*
X92554Y-61640D01*
X92612Y-61601D01*
X92697Y-61601D01*
X92754Y-61640D01*
X92783Y-61678D01*
X92812Y-61754D01*
X92812Y-61982D01*
X92783Y-62059D01*
X92754Y-62097D01*
X92697Y-62135D01*
X92612Y-62135D01*
X93069Y-62135D02*
X93069Y-61601D01*
X93069Y-61754D02*
X93097Y-61678D01*
X93126Y-61640D01*
X93183Y-61601D01*
X93240Y-61601D01*
X93697Y-62135D02*
X93697Y-61335D01*
X93697Y-62097D02*
X93640Y-62135D01*
X93526Y-62135D01*
X93468Y-62097D01*
X93440Y-62059D01*
X93411Y-61982D01*
X93411Y-61754D01*
X93440Y-61678D01*
X93468Y-61640D01*
X93526Y-61601D01*
X93640Y-61601D01*
X93697Y-61640D01*
X93983Y-62135D02*
X93983Y-61601D01*
X93983Y-61335D02*
X93954Y-61373D01*
X93983Y-61411D01*
X94011Y-61373D01*
X93983Y-61335D01*
X93983Y-61411D01*
X94269Y-61601D02*
X94269Y-62135D01*
X94269Y-61678D02*
X94297Y-61640D01*
X94355Y-61601D01*
X94440Y-61601D01*
X94497Y-61640D01*
X94526Y-61716D01*
X94526Y-62135D01*
X95069Y-62135D02*
X95069Y-61716D01*
X95040Y-61640D01*
X94983Y-61601D01*
X94869Y-61601D01*
X94812Y-61640D01*
X95069Y-62097D02*
X95012Y-62135D01*
X94869Y-62135D01*
X94812Y-62097D01*
X94783Y-62021D01*
X94783Y-61944D01*
X94812Y-61868D01*
X94869Y-61830D01*
X95012Y-61830D01*
X95069Y-61792D01*
X95269Y-61601D02*
X95498Y-61601D01*
X95355Y-61335D02*
X95355Y-62021D01*
X95383Y-62097D01*
X95441Y-62135D01*
X95498Y-62135D01*
X95926Y-62097D02*
X95869Y-62135D01*
X95755Y-62135D01*
X95698Y-62097D01*
X95669Y-62021D01*
X95669Y-61716D01*
X95698Y-61640D01*
X95755Y-61601D01*
X95869Y-61601D01*
X95926Y-61640D01*
X95955Y-61716D01*
X95955Y-61792D01*
X95669Y-61868D01*
X96183Y-62097D02*
X96240Y-62135D01*
X96355Y-62135D01*
X96412Y-62097D01*
X96440Y-62021D01*
X96440Y-61982D01*
X96412Y-61906D01*
X96355Y-61868D01*
X96269Y-61868D01*
X96212Y-61830D01*
X96183Y-61754D01*
X96183Y-61716D01*
X96212Y-61640D01*
X96269Y-61601D01*
X96355Y-61601D01*
X96412Y-61640D01*
X96698Y-62059D02*
X96726Y-62097D01*
X96698Y-62135D01*
X96669Y-62097D01*
X96698Y-62059D01*
X96698Y-62135D01*
X61797Y-59694D02*
X61797Y-58894D01*
X61940Y-58894D01*
X62025Y-58932D01*
X62083Y-59008D01*
X62111Y-59084D01*
X62140Y-59237D01*
X62140Y-59351D01*
X62111Y-59503D01*
X62083Y-59580D01*
X62025Y-59656D01*
X61940Y-59694D01*
X61797Y-59694D01*
X62397Y-59694D02*
X62397Y-59160D01*
X62397Y-59313D02*
X62425Y-59237D01*
X62454Y-59199D01*
X62511Y-59160D01*
X62568Y-59160D01*
X62768Y-59694D02*
X62768Y-59160D01*
X62768Y-58894D02*
X62739Y-58932D01*
X62768Y-58970D01*
X62796Y-58932D01*
X62768Y-58894D01*
X62768Y-58970D01*
X63140Y-59694D02*
X63082Y-59656D01*
X63054Y-59580D01*
X63054Y-58894D01*
X63454Y-59694D02*
X63396Y-59656D01*
X63368Y-59580D01*
X63368Y-58894D01*
X64139Y-59694D02*
X64139Y-58894D01*
X64282Y-58894D01*
X64367Y-58932D01*
X64425Y-59008D01*
X64453Y-59084D01*
X64482Y-59237D01*
X64482Y-59351D01*
X64453Y-59503D01*
X64425Y-59580D01*
X64367Y-59656D01*
X64282Y-59694D01*
X64139Y-59694D01*
X64996Y-59694D02*
X64996Y-59275D01*
X64967Y-59199D01*
X64910Y-59160D01*
X64796Y-59160D01*
X64739Y-59199D01*
X64996Y-59656D02*
X64939Y-59694D01*
X64796Y-59694D01*
X64739Y-59656D01*
X64710Y-59580D01*
X64710Y-59503D01*
X64739Y-59427D01*
X64796Y-59389D01*
X64939Y-59389D01*
X64996Y-59351D01*
X65196Y-59160D02*
X65425Y-59160D01*
X65282Y-58894D02*
X65282Y-59580D01*
X65310Y-59656D01*
X65368Y-59694D01*
X65425Y-59694D01*
X65882Y-59694D02*
X65882Y-59275D01*
X65853Y-59199D01*
X65796Y-59160D01*
X65682Y-59160D01*
X65625Y-59199D01*
X65882Y-59656D02*
X65825Y-59694D01*
X65682Y-59694D01*
X65625Y-59656D01*
X65596Y-59580D01*
X65596Y-59503D01*
X65625Y-59427D01*
X65682Y-59389D01*
X65825Y-59389D01*
X65882Y-59351D01*
X61382Y-60629D02*
X61839Y-60629D01*
X62125Y-60629D02*
X62582Y-60629D01*
X62868Y-60629D02*
X63325Y-60629D01*
X63611Y-60629D02*
X64068Y-60629D01*
X64354Y-60629D02*
X64811Y-60629D01*
X65097Y-60629D02*
X65554Y-60629D01*
X65840Y-60629D02*
X66297Y-60629D01*
X63459Y-57216D02*
X63430Y-57254D01*
X63344Y-57292D01*
X63287Y-57292D01*
X63202Y-57254D01*
X63144Y-57178D01*
X63116Y-57101D01*
X63087Y-56949D01*
X63087Y-56835D01*
X63116Y-56682D01*
X63144Y-56606D01*
X63202Y-56530D01*
X63287Y-56492D01*
X63344Y-56492D01*
X63430Y-56530D01*
X63459Y-56568D01*
X63802Y-57292D02*
X63744Y-57254D01*
X63716Y-57216D01*
X63687Y-57139D01*
X63687Y-56911D01*
X63716Y-56835D01*
X63744Y-56797D01*
X63802Y-56758D01*
X63887Y-56758D01*
X63944Y-56797D01*
X63973Y-56835D01*
X64002Y-56911D01*
X64002Y-57139D01*
X63973Y-57216D01*
X63944Y-57254D01*
X63887Y-57292D01*
X63802Y-57292D01*
X64345Y-57292D02*
X64287Y-57254D01*
X64259Y-57178D01*
X64259Y-56492D01*
X64659Y-57292D02*
X64601Y-57254D01*
X64573Y-57216D01*
X64544Y-57139D01*
X64544Y-56911D01*
X64573Y-56835D01*
X64601Y-56797D01*
X64659Y-56758D01*
X64744Y-56758D01*
X64801Y-56797D01*
X64830Y-56835D01*
X64859Y-56911D01*
X64859Y-57139D01*
X64830Y-57216D01*
X64801Y-57254D01*
X64744Y-57292D01*
X64659Y-57292D01*
X65373Y-56758D02*
X65373Y-57292D01*
X65116Y-56758D02*
X65116Y-57178D01*
X65144Y-57254D01*
X65202Y-57292D01*
X65287Y-57292D01*
X65344Y-57254D01*
X65373Y-57216D01*
X65659Y-57292D02*
X65659Y-56758D01*
X65659Y-56911D02*
X65687Y-56835D01*
X65716Y-56797D01*
X65773Y-56758D01*
X65830Y-56758D01*
X66430Y-56758D02*
X66544Y-57292D01*
X66658Y-56911D01*
X66773Y-57292D01*
X66887Y-56758D01*
X67116Y-57292D02*
X67116Y-56492D01*
X67373Y-57292D02*
X67373Y-56873D01*
X67344Y-56797D01*
X67287Y-56758D01*
X67202Y-56758D01*
X67144Y-56797D01*
X67116Y-56835D01*
X67659Y-57292D02*
X67659Y-56758D01*
X67659Y-56492D02*
X67630Y-56530D01*
X67659Y-56568D01*
X67687Y-56530D01*
X67659Y-56492D01*
X67659Y-56568D01*
X67859Y-56758D02*
X68088Y-56758D01*
X67945Y-56492D02*
X67945Y-57178D01*
X67973Y-57254D01*
X68031Y-57292D01*
X68088Y-57292D01*
X68516Y-57254D02*
X68459Y-57292D01*
X68345Y-57292D01*
X68288Y-57254D01*
X68259Y-57178D01*
X68259Y-56873D01*
X68288Y-56797D01*
X68345Y-56758D01*
X68459Y-56758D01*
X68516Y-56797D01*
X68545Y-56873D01*
X68545Y-56949D01*
X68259Y-57025D01*
X68802Y-57216D02*
X68830Y-57254D01*
X68802Y-57292D01*
X68773Y-57254D01*
X68802Y-57216D01*
X68802Y-57292D01*
X69516Y-57254D02*
X69602Y-57292D01*
X69745Y-57292D01*
X69802Y-57254D01*
X69831Y-57216D01*
X69859Y-57139D01*
X69859Y-57063D01*
X69831Y-56987D01*
X69802Y-56949D01*
X69745Y-56911D01*
X69631Y-56873D01*
X69573Y-56835D01*
X69545Y-56797D01*
X69516Y-56720D01*
X69516Y-56644D01*
X69545Y-56568D01*
X69573Y-56530D01*
X69631Y-56492D01*
X69773Y-56492D01*
X69859Y-56530D01*
X70373Y-56758D02*
X70373Y-57292D01*
X70116Y-56758D02*
X70116Y-57178D01*
X70144Y-57254D01*
X70202Y-57292D01*
X70287Y-57292D01*
X70344Y-57254D01*
X70373Y-57216D01*
X70659Y-56758D02*
X70659Y-57558D01*
X70659Y-56797D02*
X70716Y-56758D01*
X70830Y-56758D01*
X70887Y-56797D01*
X70916Y-56835D01*
X70945Y-56911D01*
X70945Y-57139D01*
X70916Y-57216D01*
X70887Y-57254D01*
X70830Y-57292D01*
X70716Y-57292D01*
X70659Y-57254D01*
X71202Y-56758D02*
X71202Y-57558D01*
X71202Y-56797D02*
X71259Y-56758D01*
X71373Y-56758D01*
X71430Y-56797D01*
X71459Y-56835D01*
X71488Y-56911D01*
X71488Y-57139D01*
X71459Y-57216D01*
X71430Y-57254D01*
X71373Y-57292D01*
X71259Y-57292D01*
X71202Y-57254D01*
X71831Y-57292D02*
X71773Y-57254D01*
X71745Y-57178D01*
X71745Y-56492D01*
X72059Y-57292D02*
X72059Y-56758D01*
X72059Y-56492D02*
X72030Y-56530D01*
X72059Y-56568D01*
X72087Y-56530D01*
X72059Y-56492D01*
X72059Y-56568D01*
X72573Y-57254D02*
X72516Y-57292D01*
X72402Y-57292D01*
X72345Y-57254D01*
X72316Y-57178D01*
X72316Y-56873D01*
X72345Y-56797D01*
X72402Y-56758D01*
X72516Y-56758D01*
X72573Y-56797D01*
X72602Y-56873D01*
X72602Y-56949D01*
X72316Y-57025D01*
X72859Y-57292D02*
X72859Y-56758D01*
X72859Y-56911D02*
X72887Y-56835D01*
X72916Y-56797D01*
X72973Y-56758D01*
X73030Y-56758D01*
X73658Y-57254D02*
X73715Y-57292D01*
X73830Y-57292D01*
X73887Y-57254D01*
X73915Y-57178D01*
X73915Y-57139D01*
X73887Y-57063D01*
X73830Y-57025D01*
X73744Y-57025D01*
X73687Y-56987D01*
X73658Y-56911D01*
X73658Y-56873D01*
X73687Y-56797D01*
X73744Y-56758D01*
X73830Y-56758D01*
X73887Y-56797D01*
X74173Y-57292D02*
X74173Y-56492D01*
X74430Y-57292D02*
X74430Y-56873D01*
X74401Y-56797D01*
X74344Y-56758D01*
X74259Y-56758D01*
X74201Y-56797D01*
X74173Y-56835D01*
X74802Y-57292D02*
X74744Y-57254D01*
X74716Y-57216D01*
X74687Y-57139D01*
X74687Y-56911D01*
X74716Y-56835D01*
X74744Y-56797D01*
X74802Y-56758D01*
X74887Y-56758D01*
X74944Y-56797D01*
X74973Y-56835D01*
X75002Y-56911D01*
X75002Y-57139D01*
X74973Y-57216D01*
X74944Y-57254D01*
X74887Y-57292D01*
X74802Y-57292D01*
X75516Y-56758D02*
X75516Y-57292D01*
X75259Y-56758D02*
X75259Y-57178D01*
X75287Y-57254D01*
X75345Y-57292D01*
X75430Y-57292D01*
X75487Y-57254D01*
X75516Y-57216D01*
X75888Y-57292D02*
X75830Y-57254D01*
X75802Y-57178D01*
X75802Y-56492D01*
X76373Y-57292D02*
X76373Y-56492D01*
X76373Y-57254D02*
X76316Y-57292D01*
X76202Y-57292D01*
X76144Y-57254D01*
X76116Y-57216D01*
X76087Y-57139D01*
X76087Y-56911D01*
X76116Y-56835D01*
X76144Y-56797D01*
X76202Y-56758D01*
X76316Y-56758D01*
X76373Y-56797D01*
X77116Y-57292D02*
X77116Y-56758D01*
X77116Y-56911D02*
X77144Y-56835D01*
X77173Y-56797D01*
X77230Y-56758D01*
X77287Y-56758D01*
X77715Y-57254D02*
X77658Y-57292D01*
X77544Y-57292D01*
X77487Y-57254D01*
X77458Y-57178D01*
X77458Y-56873D01*
X77487Y-56797D01*
X77544Y-56758D01*
X77658Y-56758D01*
X77715Y-56797D01*
X77744Y-56873D01*
X77744Y-56949D01*
X77458Y-57025D01*
X78001Y-57292D02*
X78001Y-56758D01*
X78001Y-56835D02*
X78029Y-56797D01*
X78087Y-56758D01*
X78172Y-56758D01*
X78229Y-56797D01*
X78258Y-56873D01*
X78258Y-57292D01*
X78258Y-56873D02*
X78287Y-56797D01*
X78344Y-56758D01*
X78429Y-56758D01*
X78487Y-56797D01*
X78515Y-56873D01*
X78515Y-57292D01*
X78887Y-57292D02*
X78829Y-57254D01*
X78801Y-57216D01*
X78772Y-57139D01*
X78772Y-56911D01*
X78801Y-56835D01*
X78829Y-56797D01*
X78887Y-56758D01*
X78972Y-56758D01*
X79029Y-56797D01*
X79058Y-56835D01*
X79087Y-56911D01*
X79087Y-57139D01*
X79058Y-57216D01*
X79029Y-57254D01*
X78972Y-57292D01*
X78887Y-57292D01*
X79287Y-56758D02*
X79430Y-57292D01*
X79572Y-56758D01*
X80029Y-57254D02*
X79972Y-57292D01*
X79858Y-57292D01*
X79801Y-57254D01*
X79772Y-57178D01*
X79772Y-56873D01*
X79801Y-56797D01*
X79858Y-56758D01*
X79972Y-56758D01*
X80029Y-56797D01*
X80058Y-56873D01*
X80058Y-56949D01*
X79772Y-57025D01*
X81029Y-57292D02*
X81029Y-56873D01*
X81000Y-56797D01*
X80943Y-56758D01*
X80829Y-56758D01*
X80772Y-56797D01*
X81029Y-57254D02*
X80972Y-57292D01*
X80829Y-57292D01*
X80772Y-57254D01*
X80743Y-57178D01*
X80743Y-57101D01*
X80772Y-57025D01*
X80829Y-56987D01*
X80972Y-56987D01*
X81029Y-56949D01*
X81315Y-56758D02*
X81315Y-57292D01*
X81315Y-56835D02*
X81343Y-56797D01*
X81401Y-56758D01*
X81486Y-56758D01*
X81543Y-56797D01*
X81572Y-56873D01*
X81572Y-57292D01*
X81801Y-56758D02*
X81944Y-57292D01*
X82086Y-56758D02*
X81944Y-57292D01*
X81886Y-57482D01*
X81858Y-57520D01*
X81801Y-57558D01*
X82743Y-57254D02*
X82800Y-57292D01*
X82915Y-57292D01*
X82972Y-57254D01*
X83000Y-57178D01*
X83000Y-57139D01*
X82972Y-57063D01*
X82915Y-57025D01*
X82829Y-57025D01*
X82772Y-56987D01*
X82743Y-56911D01*
X82743Y-56873D01*
X82772Y-56797D01*
X82829Y-56758D01*
X82915Y-56758D01*
X82972Y-56797D01*
X83258Y-57292D02*
X83258Y-56758D01*
X83258Y-56492D02*
X83229Y-56530D01*
X83258Y-56568D01*
X83286Y-56530D01*
X83258Y-56492D01*
X83258Y-56568D01*
X83630Y-57292D02*
X83572Y-57254D01*
X83544Y-57178D01*
X83544Y-56492D01*
X83858Y-57292D02*
X83858Y-56492D01*
X83915Y-56987D02*
X84086Y-57292D01*
X84086Y-56758D02*
X83858Y-57063D01*
X84315Y-57254D02*
X84372Y-57292D01*
X84487Y-57292D01*
X84544Y-57254D01*
X84572Y-57178D01*
X84572Y-57139D01*
X84544Y-57063D01*
X84487Y-57025D01*
X84401Y-57025D01*
X84344Y-56987D01*
X84315Y-56911D01*
X84315Y-56873D01*
X84344Y-56797D01*
X84401Y-56758D01*
X84487Y-56758D01*
X84544Y-56797D01*
X85087Y-57254D02*
X85030Y-57292D01*
X84916Y-57292D01*
X84858Y-57254D01*
X84830Y-57216D01*
X84801Y-57139D01*
X84801Y-56911D01*
X84830Y-56835D01*
X84858Y-56797D01*
X84916Y-56758D01*
X85030Y-56758D01*
X85087Y-56797D01*
X85344Y-57292D02*
X85344Y-56758D01*
X85344Y-56911D02*
X85372Y-56835D01*
X85401Y-56797D01*
X85458Y-56758D01*
X85515Y-56758D01*
X85943Y-57254D02*
X85886Y-57292D01*
X85772Y-57292D01*
X85715Y-57254D01*
X85686Y-57178D01*
X85686Y-56873D01*
X85715Y-56797D01*
X85772Y-56758D01*
X85886Y-56758D01*
X85943Y-56797D01*
X85972Y-56873D01*
X85972Y-56949D01*
X85686Y-57025D01*
X86457Y-57254D02*
X86400Y-57292D01*
X86286Y-57292D01*
X86229Y-57254D01*
X86200Y-57178D01*
X86200Y-56873D01*
X86229Y-56797D01*
X86286Y-56758D01*
X86400Y-56758D01*
X86457Y-56797D01*
X86486Y-56873D01*
X86486Y-56949D01*
X86200Y-57025D01*
X86743Y-56758D02*
X86743Y-57292D01*
X86743Y-56835D02*
X86771Y-56797D01*
X86829Y-56758D01*
X86914Y-56758D01*
X86971Y-56797D01*
X87000Y-56873D01*
X87000Y-57292D01*
X87686Y-56758D02*
X87800Y-57292D01*
X87914Y-56911D01*
X88029Y-57292D01*
X88143Y-56758D01*
X88372Y-57292D02*
X88372Y-56492D01*
X88629Y-57292D02*
X88629Y-56873D01*
X88600Y-56797D01*
X88543Y-56758D01*
X88458Y-56758D01*
X88400Y-56797D01*
X88372Y-56835D01*
X88915Y-57292D02*
X88915Y-56758D01*
X88915Y-56492D02*
X88886Y-56530D01*
X88915Y-56568D01*
X88943Y-56530D01*
X88915Y-56492D01*
X88915Y-56568D01*
X89458Y-57254D02*
X89401Y-57292D01*
X89287Y-57292D01*
X89229Y-57254D01*
X89201Y-57216D01*
X89172Y-57139D01*
X89172Y-56911D01*
X89201Y-56835D01*
X89229Y-56797D01*
X89287Y-56758D01*
X89401Y-56758D01*
X89458Y-56797D01*
X89715Y-57292D02*
X89715Y-56492D01*
X89972Y-57292D02*
X89972Y-56873D01*
X89943Y-56797D01*
X89886Y-56758D01*
X89801Y-56758D01*
X89743Y-56797D01*
X89715Y-56835D01*
X90801Y-57292D02*
X90743Y-57254D01*
X90715Y-57216D01*
X90686Y-57139D01*
X90686Y-56911D01*
X90715Y-56835D01*
X90743Y-56797D01*
X90801Y-56758D01*
X90886Y-56758D01*
X90943Y-56797D01*
X90972Y-56835D01*
X91001Y-56911D01*
X91001Y-57139D01*
X90972Y-57216D01*
X90943Y-57254D01*
X90886Y-57292D01*
X90801Y-57292D01*
X91201Y-56758D02*
X91344Y-57292D01*
X91486Y-56758D01*
X91943Y-57254D02*
X91886Y-57292D01*
X91772Y-57292D01*
X91715Y-57254D01*
X91686Y-57178D01*
X91686Y-56873D01*
X91715Y-56797D01*
X91772Y-56758D01*
X91886Y-56758D01*
X91943Y-56797D01*
X91972Y-56873D01*
X91972Y-56949D01*
X91686Y-57025D01*
X92229Y-57292D02*
X92229Y-56758D01*
X92229Y-56911D02*
X92257Y-56835D01*
X92286Y-56797D01*
X92343Y-56758D01*
X92400Y-56758D01*
X92600Y-57292D02*
X92600Y-56492D01*
X92857Y-57292D02*
X92857Y-56873D01*
X92828Y-56797D01*
X92771Y-56758D01*
X92686Y-56758D01*
X92628Y-56797D01*
X92600Y-56835D01*
X93400Y-57292D02*
X93400Y-56873D01*
X93371Y-56797D01*
X93314Y-56758D01*
X93200Y-56758D01*
X93143Y-56797D01*
X93400Y-57254D02*
X93343Y-57292D01*
X93200Y-57292D01*
X93143Y-57254D01*
X93114Y-57178D01*
X93114Y-57101D01*
X93143Y-57025D01*
X93200Y-56987D01*
X93343Y-56987D01*
X93400Y-56949D01*
X93686Y-56758D02*
X93686Y-57292D01*
X93686Y-56835D02*
X93714Y-56797D01*
X93772Y-56758D01*
X93857Y-56758D01*
X93914Y-56797D01*
X93943Y-56873D01*
X93943Y-57292D01*
X94486Y-57292D02*
X94486Y-56492D01*
X94486Y-57254D02*
X94429Y-57292D01*
X94315Y-57292D01*
X94257Y-57254D01*
X94229Y-57216D01*
X94200Y-57139D01*
X94200Y-56911D01*
X94229Y-56835D01*
X94257Y-56797D01*
X94315Y-56758D01*
X94429Y-56758D01*
X94486Y-56797D01*
X94743Y-57254D02*
X94800Y-57292D01*
X94915Y-57292D01*
X94972Y-57254D01*
X95000Y-57178D01*
X95000Y-57139D01*
X94972Y-57063D01*
X94915Y-57025D01*
X94829Y-57025D01*
X94772Y-56987D01*
X94743Y-56911D01*
X94743Y-56873D01*
X94772Y-56797D01*
X94829Y-56758D01*
X94915Y-56758D01*
X94972Y-56797D01*
X95715Y-56758D02*
X95715Y-57558D01*
X95715Y-56797D02*
X95772Y-56758D01*
X95886Y-56758D01*
X95943Y-56797D01*
X95972Y-56835D01*
X96001Y-56911D01*
X96001Y-57139D01*
X95972Y-57216D01*
X95943Y-57254D01*
X95886Y-57292D01*
X95772Y-57292D01*
X95715Y-57254D01*
X96515Y-57292D02*
X96515Y-56873D01*
X96486Y-56797D01*
X96429Y-56758D01*
X96315Y-56758D01*
X96258Y-56797D01*
X96515Y-57254D02*
X96458Y-57292D01*
X96315Y-57292D01*
X96258Y-57254D01*
X96229Y-57178D01*
X96229Y-57101D01*
X96258Y-57025D01*
X96315Y-56987D01*
X96458Y-56987D01*
X96515Y-56949D01*
X97058Y-57292D02*
X97058Y-56492D01*
X97058Y-57254D02*
X97001Y-57292D01*
X96887Y-57292D01*
X96829Y-57254D01*
X96801Y-57216D01*
X96772Y-57139D01*
X96772Y-56911D01*
X96801Y-56835D01*
X96829Y-56797D01*
X96887Y-56758D01*
X97001Y-56758D01*
X97058Y-56797D01*
X97315Y-57254D02*
X97372Y-57292D01*
X97487Y-57292D01*
X97544Y-57254D01*
X97572Y-57178D01*
X97572Y-57139D01*
X97544Y-57063D01*
X97487Y-57025D01*
X97401Y-57025D01*
X97344Y-56987D01*
X97315Y-56911D01*
X97315Y-56873D01*
X97344Y-56797D01*
X97401Y-56758D01*
X97487Y-56758D01*
X97544Y-56797D01*
X97830Y-57216D02*
X97858Y-57254D01*
X97830Y-57292D01*
X97801Y-57254D01*
X97830Y-57216D01*
X97830Y-57292D01*
X61621Y-55594D02*
X61707Y-55632D01*
X61735Y-55670D01*
X61764Y-55746D01*
X61764Y-55860D01*
X61735Y-55937D01*
X61707Y-55975D01*
X61649Y-56013D01*
X61421Y-56013D01*
X61421Y-55213D01*
X61621Y-55213D01*
X61678Y-55251D01*
X61707Y-55289D01*
X61735Y-55365D01*
X61735Y-55441D01*
X61707Y-55518D01*
X61678Y-55556D01*
X61621Y-55594D01*
X61421Y-55594D01*
X62021Y-55937D02*
X62049Y-55975D01*
X62021Y-56013D01*
X61992Y-55975D01*
X62021Y-55937D01*
X62021Y-56013D01*
X62250Y-56318D02*
X62278Y-56279D01*
X62335Y-56165D01*
X62364Y-56089D01*
X62393Y-55975D01*
X62421Y-55784D01*
X62421Y-55632D01*
X62393Y-55441D01*
X62364Y-55327D01*
X62335Y-55251D01*
X62278Y-55137D01*
X62250Y-55099D01*
X63135Y-55975D02*
X63221Y-56013D01*
X63364Y-56013D01*
X63421Y-55975D01*
X63450Y-55937D01*
X63478Y-55860D01*
X63478Y-55784D01*
X63450Y-55708D01*
X63421Y-55670D01*
X63364Y-55632D01*
X63250Y-55594D01*
X63192Y-55556D01*
X63164Y-55518D01*
X63135Y-55441D01*
X63135Y-55365D01*
X63164Y-55289D01*
X63192Y-55251D01*
X63250Y-55213D01*
X63392Y-55213D01*
X63478Y-55251D01*
X63735Y-56013D02*
X63735Y-55479D01*
X63735Y-55213D02*
X63706Y-55251D01*
X63735Y-55289D01*
X63763Y-55251D01*
X63735Y-55213D01*
X63735Y-55289D01*
X64107Y-56013D02*
X64049Y-55975D01*
X64021Y-55899D01*
X64021Y-55213D01*
X64335Y-56013D02*
X64335Y-55213D01*
X64392Y-55708D02*
X64563Y-56013D01*
X64563Y-55479D02*
X64335Y-55784D01*
X64792Y-55975D02*
X64849Y-56013D01*
X64964Y-56013D01*
X65021Y-55975D01*
X65049Y-55899D01*
X65049Y-55860D01*
X65021Y-55784D01*
X64964Y-55746D01*
X64878Y-55746D01*
X64821Y-55708D01*
X64792Y-55632D01*
X64792Y-55594D01*
X64821Y-55518D01*
X64878Y-55479D01*
X64964Y-55479D01*
X65021Y-55518D01*
X65564Y-55975D02*
X65507Y-56013D01*
X65393Y-56013D01*
X65335Y-55975D01*
X65307Y-55937D01*
X65278Y-55860D01*
X65278Y-55632D01*
X65307Y-55556D01*
X65335Y-55518D01*
X65393Y-55479D01*
X65507Y-55479D01*
X65564Y-55518D01*
X65821Y-56013D02*
X65821Y-55479D01*
X65821Y-55632D02*
X65849Y-55556D01*
X65878Y-55518D01*
X65935Y-55479D01*
X65992Y-55479D01*
X66420Y-55975D02*
X66363Y-56013D01*
X66249Y-56013D01*
X66192Y-55975D01*
X66163Y-55899D01*
X66163Y-55594D01*
X66192Y-55518D01*
X66249Y-55479D01*
X66363Y-55479D01*
X66420Y-55518D01*
X66449Y-55594D01*
X66449Y-55670D01*
X66163Y-55746D01*
X66934Y-55975D02*
X66877Y-56013D01*
X66763Y-56013D01*
X66706Y-55975D01*
X66677Y-55899D01*
X66677Y-55594D01*
X66706Y-55518D01*
X66763Y-55479D01*
X66877Y-55479D01*
X66934Y-55518D01*
X66963Y-55594D01*
X66963Y-55670D01*
X66677Y-55746D01*
X67220Y-55479D02*
X67220Y-56013D01*
X67220Y-55556D02*
X67248Y-55518D01*
X67306Y-55479D01*
X67391Y-55479D01*
X67448Y-55518D01*
X67477Y-55594D01*
X67477Y-56013D01*
X63008Y-53534D02*
X63094Y-53572D01*
X63237Y-53572D01*
X63294Y-53534D01*
X63323Y-53496D01*
X63351Y-53419D01*
X63351Y-53343D01*
X63323Y-53267D01*
X63294Y-53229D01*
X63237Y-53191D01*
X63123Y-53153D01*
X63065Y-53115D01*
X63037Y-53077D01*
X63008Y-53000D01*
X63008Y-52924D01*
X63037Y-52848D01*
X63065Y-52810D01*
X63123Y-52772D01*
X63265Y-52772D01*
X63351Y-52810D01*
X63865Y-53038D02*
X63865Y-53572D01*
X63608Y-53038D02*
X63608Y-53458D01*
X63636Y-53534D01*
X63694Y-53572D01*
X63779Y-53572D01*
X63836Y-53534D01*
X63865Y-53496D01*
X64151Y-53038D02*
X64151Y-53838D01*
X64151Y-53077D02*
X64208Y-53038D01*
X64322Y-53038D01*
X64379Y-53077D01*
X64408Y-53115D01*
X64437Y-53191D01*
X64437Y-53419D01*
X64408Y-53496D01*
X64379Y-53534D01*
X64322Y-53572D01*
X64208Y-53572D01*
X64151Y-53534D01*
X64694Y-53038D02*
X64694Y-53838D01*
X64694Y-53077D02*
X64751Y-53038D01*
X64865Y-53038D01*
X64922Y-53077D01*
X64951Y-53115D01*
X64980Y-53191D01*
X64980Y-53419D01*
X64951Y-53496D01*
X64922Y-53534D01*
X64865Y-53572D01*
X64751Y-53572D01*
X64694Y-53534D01*
X65323Y-53572D02*
X65265Y-53534D01*
X65237Y-53458D01*
X65237Y-52772D01*
X65551Y-53572D02*
X65551Y-53038D01*
X65551Y-52772D02*
X65522Y-52810D01*
X65551Y-52848D01*
X65579Y-52810D01*
X65551Y-52772D01*
X65551Y-52848D01*
X66065Y-53534D02*
X66008Y-53572D01*
X65894Y-53572D01*
X65837Y-53534D01*
X65808Y-53458D01*
X65808Y-53153D01*
X65837Y-53077D01*
X65894Y-53038D01*
X66008Y-53038D01*
X66065Y-53077D01*
X66094Y-53153D01*
X66094Y-53229D01*
X65808Y-53305D01*
X66351Y-53572D02*
X66351Y-53038D01*
X66351Y-53191D02*
X66379Y-53115D01*
X66408Y-53077D01*
X66465Y-53038D01*
X66522Y-53038D01*
X67150Y-53534D02*
X67207Y-53572D01*
X67322Y-53572D01*
X67379Y-53534D01*
X67407Y-53458D01*
X67407Y-53419D01*
X67379Y-53343D01*
X67322Y-53305D01*
X67236Y-53305D01*
X67179Y-53267D01*
X67150Y-53191D01*
X67150Y-53153D01*
X67179Y-53077D01*
X67236Y-53038D01*
X67322Y-53038D01*
X67379Y-53077D01*
X67665Y-53572D02*
X67665Y-52772D01*
X67922Y-53572D02*
X67922Y-53153D01*
X67893Y-53077D01*
X67836Y-53038D01*
X67751Y-53038D01*
X67693Y-53077D01*
X67665Y-53115D01*
X68294Y-53572D02*
X68236Y-53534D01*
X68208Y-53496D01*
X68179Y-53419D01*
X68179Y-53191D01*
X68208Y-53115D01*
X68236Y-53077D01*
X68294Y-53038D01*
X68379Y-53038D01*
X68436Y-53077D01*
X68465Y-53115D01*
X68494Y-53191D01*
X68494Y-53419D01*
X68465Y-53496D01*
X68436Y-53534D01*
X68379Y-53572D01*
X68294Y-53572D01*
X69008Y-53038D02*
X69008Y-53572D01*
X68751Y-53038D02*
X68751Y-53458D01*
X68779Y-53534D01*
X68837Y-53572D01*
X68922Y-53572D01*
X68979Y-53534D01*
X69008Y-53496D01*
X69380Y-53572D02*
X69322Y-53534D01*
X69294Y-53458D01*
X69294Y-52772D01*
X69865Y-53572D02*
X69865Y-52772D01*
X69865Y-53534D02*
X69808Y-53572D01*
X69694Y-53572D01*
X69636Y-53534D01*
X69608Y-53496D01*
X69579Y-53419D01*
X69579Y-53191D01*
X69608Y-53115D01*
X69636Y-53077D01*
X69694Y-53038D01*
X69808Y-53038D01*
X69865Y-53077D01*
X70694Y-53572D02*
X70636Y-53534D01*
X70608Y-53496D01*
X70579Y-53419D01*
X70579Y-53191D01*
X70608Y-53115D01*
X70636Y-53077D01*
X70694Y-53038D01*
X70779Y-53038D01*
X70836Y-53077D01*
X70865Y-53115D01*
X70894Y-53191D01*
X70894Y-53419D01*
X70865Y-53496D01*
X70836Y-53534D01*
X70779Y-53572D01*
X70694Y-53572D01*
X71094Y-53038D02*
X71237Y-53572D01*
X71379Y-53038D01*
X71836Y-53534D02*
X71779Y-53572D01*
X71665Y-53572D01*
X71608Y-53534D01*
X71579Y-53458D01*
X71579Y-53153D01*
X71608Y-53077D01*
X71665Y-53038D01*
X71779Y-53038D01*
X71836Y-53077D01*
X71865Y-53153D01*
X71865Y-53229D01*
X71579Y-53305D01*
X72122Y-53572D02*
X72122Y-53038D01*
X72122Y-53191D02*
X72150Y-53115D01*
X72179Y-53077D01*
X72236Y-53038D01*
X72293Y-53038D01*
X72464Y-53534D02*
X72521Y-53572D01*
X72636Y-53572D01*
X72693Y-53534D01*
X72721Y-53458D01*
X72721Y-53419D01*
X72693Y-53343D01*
X72636Y-53305D01*
X72550Y-53305D01*
X72493Y-53267D01*
X72464Y-53191D01*
X72464Y-53153D01*
X72493Y-53077D01*
X72550Y-53038D01*
X72636Y-53038D01*
X72693Y-53077D01*
X72979Y-53572D02*
X72979Y-53038D01*
X72979Y-52772D02*
X72950Y-52810D01*
X72979Y-52848D01*
X73007Y-52810D01*
X72979Y-52772D01*
X72979Y-52848D01*
X73208Y-53038D02*
X73522Y-53038D01*
X73208Y-53572D01*
X73522Y-53572D01*
X73979Y-53534D02*
X73922Y-53572D01*
X73808Y-53572D01*
X73751Y-53534D01*
X73722Y-53458D01*
X73722Y-53153D01*
X73751Y-53077D01*
X73808Y-53038D01*
X73922Y-53038D01*
X73979Y-53077D01*
X74008Y-53153D01*
X74008Y-53229D01*
X73722Y-53305D01*
X74693Y-53534D02*
X74750Y-53572D01*
X74865Y-53572D01*
X74922Y-53534D01*
X74950Y-53458D01*
X74950Y-53419D01*
X74922Y-53343D01*
X74865Y-53305D01*
X74779Y-53305D01*
X74722Y-53267D01*
X74693Y-53191D01*
X74693Y-53153D01*
X74722Y-53077D01*
X74779Y-53038D01*
X74865Y-53038D01*
X74922Y-53077D01*
X75294Y-53572D02*
X75236Y-53534D01*
X75208Y-53496D01*
X75179Y-53419D01*
X75179Y-53191D01*
X75208Y-53115D01*
X75236Y-53077D01*
X75294Y-53038D01*
X75379Y-53038D01*
X75436Y-53077D01*
X75465Y-53115D01*
X75494Y-53191D01*
X75494Y-53419D01*
X75465Y-53496D01*
X75436Y-53534D01*
X75379Y-53572D01*
X75294Y-53572D01*
X75837Y-53572D02*
X75779Y-53534D01*
X75751Y-53458D01*
X75751Y-52772D01*
X76322Y-53572D02*
X76322Y-52772D01*
X76322Y-53534D02*
X76265Y-53572D01*
X76151Y-53572D01*
X76093Y-53534D01*
X76065Y-53496D01*
X76036Y-53419D01*
X76036Y-53191D01*
X76065Y-53115D01*
X76093Y-53077D01*
X76151Y-53038D01*
X76265Y-53038D01*
X76322Y-53077D01*
X76836Y-53534D02*
X76779Y-53572D01*
X76665Y-53572D01*
X76608Y-53534D01*
X76579Y-53458D01*
X76579Y-53153D01*
X76608Y-53077D01*
X76665Y-53038D01*
X76779Y-53038D01*
X76836Y-53077D01*
X76865Y-53153D01*
X76865Y-53229D01*
X76579Y-53305D01*
X77122Y-53572D02*
X77122Y-53038D01*
X77122Y-53191D02*
X77150Y-53115D01*
X77179Y-53077D01*
X77236Y-53038D01*
X77293Y-53038D01*
X77493Y-53572D02*
X77493Y-53038D01*
X77493Y-53115D02*
X77521Y-53077D01*
X77579Y-53038D01*
X77664Y-53038D01*
X77721Y-53077D01*
X77750Y-53153D01*
X77750Y-53572D01*
X77750Y-53153D02*
X77779Y-53077D01*
X77836Y-53038D01*
X77921Y-53038D01*
X77979Y-53077D01*
X78007Y-53153D01*
X78007Y-53572D01*
X78550Y-53572D02*
X78550Y-53153D01*
X78521Y-53077D01*
X78464Y-53038D01*
X78350Y-53038D01*
X78293Y-53077D01*
X78550Y-53534D02*
X78493Y-53572D01*
X78350Y-53572D01*
X78293Y-53534D01*
X78264Y-53458D01*
X78264Y-53381D01*
X78293Y-53305D01*
X78350Y-53267D01*
X78493Y-53267D01*
X78550Y-53229D01*
X78807Y-53534D02*
X78864Y-53572D01*
X78979Y-53572D01*
X79036Y-53534D01*
X79064Y-53458D01*
X79064Y-53419D01*
X79036Y-53343D01*
X78979Y-53305D01*
X78893Y-53305D01*
X78836Y-53267D01*
X78807Y-53191D01*
X78807Y-53153D01*
X78836Y-53077D01*
X78893Y-53038D01*
X78979Y-53038D01*
X79036Y-53077D01*
X79322Y-53572D02*
X79322Y-52772D01*
X79379Y-53267D02*
X79550Y-53572D01*
X79550Y-53038D02*
X79322Y-53343D01*
X80351Y-53572D02*
X80293Y-53534D01*
X80265Y-53496D01*
X80236Y-53419D01*
X80236Y-53191D01*
X80265Y-53115D01*
X80293Y-53077D01*
X80351Y-53038D01*
X80436Y-53038D01*
X80493Y-53077D01*
X80522Y-53115D01*
X80551Y-53191D01*
X80551Y-53419D01*
X80522Y-53496D01*
X80493Y-53534D01*
X80436Y-53572D01*
X80351Y-53572D01*
X80808Y-53038D02*
X80808Y-53572D01*
X80808Y-53115D02*
X80836Y-53077D01*
X80894Y-53038D01*
X80979Y-53038D01*
X81036Y-53077D01*
X81065Y-53153D01*
X81065Y-53572D01*
X81808Y-53038D02*
X81808Y-53838D01*
X81808Y-53077D02*
X81865Y-53038D01*
X81979Y-53038D01*
X82036Y-53077D01*
X82065Y-53115D01*
X82094Y-53191D01*
X82094Y-53419D01*
X82065Y-53496D01*
X82036Y-53534D01*
X81979Y-53572D01*
X81865Y-53572D01*
X81808Y-53534D01*
X82608Y-53572D02*
X82608Y-53153D01*
X82579Y-53077D01*
X82522Y-53038D01*
X82408Y-53038D01*
X82351Y-53077D01*
X82608Y-53534D02*
X82551Y-53572D01*
X82408Y-53572D01*
X82351Y-53534D01*
X82322Y-53458D01*
X82322Y-53381D01*
X82351Y-53305D01*
X82408Y-53267D01*
X82551Y-53267D01*
X82608Y-53229D01*
X83151Y-53572D02*
X83151Y-52772D01*
X83151Y-53534D02*
X83094Y-53572D01*
X82980Y-53572D01*
X82922Y-53534D01*
X82894Y-53496D01*
X82865Y-53419D01*
X82865Y-53191D01*
X82894Y-53115D01*
X82922Y-53077D01*
X82980Y-53038D01*
X83094Y-53038D01*
X83151Y-53077D01*
X83408Y-53534D02*
X83465Y-53572D01*
X83580Y-53572D01*
X83637Y-53534D01*
X83665Y-53458D01*
X83665Y-53419D01*
X83637Y-53343D01*
X83580Y-53305D01*
X83494Y-53305D01*
X83437Y-53267D01*
X83408Y-53191D01*
X83408Y-53153D01*
X83437Y-53077D01*
X83494Y-53038D01*
X83580Y-53038D01*
X83637Y-53077D01*
X84294Y-53038D02*
X84523Y-53038D01*
X84380Y-52772D02*
X84380Y-53458D01*
X84408Y-53534D01*
X84466Y-53572D01*
X84523Y-53572D01*
X84809Y-53572D02*
X84751Y-53534D01*
X84723Y-53496D01*
X84694Y-53419D01*
X84694Y-53191D01*
X84723Y-53115D01*
X84751Y-53077D01*
X84809Y-53038D01*
X84894Y-53038D01*
X84951Y-53077D01*
X84980Y-53115D01*
X85009Y-53191D01*
X85009Y-53419D01*
X84980Y-53496D01*
X84951Y-53534D01*
X84894Y-53572D01*
X84809Y-53572D01*
X85694Y-53534D02*
X85751Y-53572D01*
X85866Y-53572D01*
X85923Y-53534D01*
X85951Y-53458D01*
X85951Y-53419D01*
X85923Y-53343D01*
X85866Y-53305D01*
X85780Y-53305D01*
X85723Y-53267D01*
X85694Y-53191D01*
X85694Y-53153D01*
X85723Y-53077D01*
X85780Y-53038D01*
X85866Y-53038D01*
X85923Y-53077D01*
X86466Y-53038D02*
X86466Y-53572D01*
X86209Y-53038D02*
X86209Y-53458D01*
X86237Y-53534D01*
X86295Y-53572D01*
X86380Y-53572D01*
X86437Y-53534D01*
X86466Y-53496D01*
X86752Y-53572D02*
X86752Y-53038D01*
X86752Y-52772D02*
X86723Y-52810D01*
X86752Y-52848D01*
X86780Y-52810D01*
X86752Y-52772D01*
X86752Y-52848D01*
X86952Y-53038D02*
X87181Y-53038D01*
X87038Y-52772D02*
X87038Y-53458D01*
X87066Y-53534D01*
X87124Y-53572D01*
X87181Y-53572D01*
X87838Y-53038D02*
X87838Y-53838D01*
X87838Y-53077D02*
X87895Y-53038D01*
X88009Y-53038D01*
X88066Y-53077D01*
X88095Y-53115D01*
X88124Y-53191D01*
X88124Y-53419D01*
X88095Y-53496D01*
X88066Y-53534D01*
X88009Y-53572D01*
X87895Y-53572D01*
X87838Y-53534D01*
X88381Y-53572D02*
X88381Y-53038D01*
X88381Y-53191D02*
X88409Y-53115D01*
X88438Y-53077D01*
X88495Y-53038D01*
X88552Y-53038D01*
X88838Y-53572D02*
X88780Y-53534D01*
X88752Y-53496D01*
X88723Y-53419D01*
X88723Y-53191D01*
X88752Y-53115D01*
X88780Y-53077D01*
X88838Y-53038D01*
X88923Y-53038D01*
X88980Y-53077D01*
X89009Y-53115D01*
X89038Y-53191D01*
X89038Y-53419D01*
X89009Y-53496D01*
X88980Y-53534D01*
X88923Y-53572D01*
X88838Y-53572D01*
X89552Y-53534D02*
X89495Y-53572D01*
X89381Y-53572D01*
X89323Y-53534D01*
X89295Y-53496D01*
X89266Y-53419D01*
X89266Y-53191D01*
X89295Y-53115D01*
X89323Y-53077D01*
X89381Y-53038D01*
X89495Y-53038D01*
X89552Y-53077D01*
X90037Y-53534D02*
X89980Y-53572D01*
X89866Y-53572D01*
X89809Y-53534D01*
X89780Y-53458D01*
X89780Y-53153D01*
X89809Y-53077D01*
X89866Y-53038D01*
X89980Y-53038D01*
X90037Y-53077D01*
X90066Y-53153D01*
X90066Y-53229D01*
X89780Y-53305D01*
X90294Y-53534D02*
X90351Y-53572D01*
X90466Y-53572D01*
X90523Y-53534D01*
X90551Y-53458D01*
X90551Y-53419D01*
X90523Y-53343D01*
X90466Y-53305D01*
X90380Y-53305D01*
X90323Y-53267D01*
X90294Y-53191D01*
X90294Y-53153D01*
X90323Y-53077D01*
X90380Y-53038D01*
X90466Y-53038D01*
X90523Y-53077D01*
X90780Y-53534D02*
X90837Y-53572D01*
X90952Y-53572D01*
X91009Y-53534D01*
X91037Y-53458D01*
X91037Y-53419D01*
X91009Y-53343D01*
X90952Y-53305D01*
X90866Y-53305D01*
X90809Y-53267D01*
X90780Y-53191D01*
X90780Y-53153D01*
X90809Y-53077D01*
X90866Y-53038D01*
X90952Y-53038D01*
X91009Y-53077D01*
X91295Y-53496D02*
X91323Y-53534D01*
X91295Y-53572D01*
X91266Y-53534D01*
X91295Y-53496D01*
X91295Y-53572D01*
X63331Y-52331D02*
X63045Y-52331D01*
X63045Y-51531D01*
X63531Y-52331D02*
X63531Y-51797D01*
X63531Y-51531D02*
X63502Y-51569D01*
X63531Y-51607D01*
X63559Y-51569D01*
X63531Y-51531D01*
X63531Y-51607D01*
X64074Y-51797D02*
X64074Y-52597D01*
X64074Y-52293D02*
X64017Y-52331D01*
X63903Y-52331D01*
X63845Y-52293D01*
X63817Y-52255D01*
X63788Y-52178D01*
X63788Y-51950D01*
X63817Y-51874D01*
X63845Y-51836D01*
X63903Y-51797D01*
X64017Y-51797D01*
X64074Y-51836D01*
X64617Y-51797D02*
X64617Y-52331D01*
X64360Y-51797D02*
X64360Y-52217D01*
X64388Y-52293D01*
X64446Y-52331D01*
X64531Y-52331D01*
X64588Y-52293D01*
X64617Y-52255D01*
X64903Y-52331D02*
X64903Y-51797D01*
X64903Y-51531D02*
X64874Y-51569D01*
X64903Y-51607D01*
X64931Y-51569D01*
X64903Y-51531D01*
X64903Y-51607D01*
X65446Y-52331D02*
X65446Y-51531D01*
X65446Y-52293D02*
X65389Y-52331D01*
X65275Y-52331D01*
X65217Y-52293D01*
X65189Y-52255D01*
X65160Y-52178D01*
X65160Y-51950D01*
X65189Y-51874D01*
X65217Y-51836D01*
X65275Y-51797D01*
X65389Y-51797D01*
X65446Y-51836D01*
X66189Y-51797D02*
X66189Y-52597D01*
X66189Y-51836D02*
X66246Y-51797D01*
X66360Y-51797D01*
X66417Y-51836D01*
X66446Y-51874D01*
X66475Y-51950D01*
X66475Y-52178D01*
X66446Y-52255D01*
X66417Y-52293D01*
X66360Y-52331D01*
X66246Y-52331D01*
X66189Y-52293D01*
X66732Y-52331D02*
X66732Y-51531D01*
X66989Y-52331D02*
X66989Y-51912D01*
X66960Y-51836D01*
X66903Y-51797D01*
X66818Y-51797D01*
X66760Y-51836D01*
X66732Y-51874D01*
X67361Y-52331D02*
X67303Y-52293D01*
X67275Y-52255D01*
X67246Y-52178D01*
X67246Y-51950D01*
X67275Y-51874D01*
X67303Y-51836D01*
X67361Y-51797D01*
X67446Y-51797D01*
X67503Y-51836D01*
X67532Y-51874D01*
X67561Y-51950D01*
X67561Y-52178D01*
X67532Y-52255D01*
X67503Y-52293D01*
X67446Y-52331D01*
X67361Y-52331D01*
X67732Y-51797D02*
X67961Y-51797D01*
X67818Y-51531D02*
X67818Y-52217D01*
X67846Y-52293D01*
X67904Y-52331D01*
X67961Y-52331D01*
X68247Y-52331D02*
X68189Y-52293D01*
X68161Y-52255D01*
X68132Y-52178D01*
X68132Y-51950D01*
X68161Y-51874D01*
X68189Y-51836D01*
X68247Y-51797D01*
X68332Y-51797D01*
X68389Y-51836D01*
X68418Y-51874D01*
X68447Y-51950D01*
X68447Y-52178D01*
X68418Y-52255D01*
X68389Y-52293D01*
X68332Y-52331D01*
X68247Y-52331D01*
X69161Y-52331D02*
X69161Y-51797D01*
X69161Y-51531D02*
X69132Y-51569D01*
X69161Y-51607D01*
X69189Y-51569D01*
X69161Y-51531D01*
X69161Y-51607D01*
X69447Y-52331D02*
X69447Y-51797D01*
X69447Y-51874D02*
X69475Y-51836D01*
X69533Y-51797D01*
X69618Y-51797D01*
X69675Y-51836D01*
X69704Y-51912D01*
X69704Y-52331D01*
X69704Y-51912D02*
X69733Y-51836D01*
X69790Y-51797D01*
X69875Y-51797D01*
X69933Y-51836D01*
X69961Y-51912D01*
X69961Y-52331D01*
X70504Y-52331D02*
X70504Y-51912D01*
X70475Y-51836D01*
X70418Y-51797D01*
X70304Y-51797D01*
X70247Y-51836D01*
X70504Y-52293D02*
X70447Y-52331D01*
X70304Y-52331D01*
X70247Y-52293D01*
X70218Y-52217D01*
X70218Y-52140D01*
X70247Y-52064D01*
X70304Y-52026D01*
X70447Y-52026D01*
X70504Y-51988D01*
X71047Y-51797D02*
X71047Y-52445D01*
X71018Y-52521D01*
X70990Y-52559D01*
X70933Y-52597D01*
X70847Y-52597D01*
X70790Y-52559D01*
X71047Y-52293D02*
X70990Y-52331D01*
X70876Y-52331D01*
X70818Y-52293D01*
X70790Y-52255D01*
X70761Y-52178D01*
X70761Y-51950D01*
X70790Y-51874D01*
X70818Y-51836D01*
X70876Y-51797D01*
X70990Y-51797D01*
X71047Y-51836D01*
X71561Y-52293D02*
X71504Y-52331D01*
X71390Y-52331D01*
X71333Y-52293D01*
X71304Y-52217D01*
X71304Y-51912D01*
X71333Y-51836D01*
X71390Y-51797D01*
X71504Y-51797D01*
X71561Y-51836D01*
X71590Y-51912D01*
X71590Y-51988D01*
X71304Y-52064D01*
X72104Y-52331D02*
X72104Y-51912D01*
X72075Y-51836D01*
X72018Y-51797D01*
X71904Y-51797D01*
X71847Y-51836D01*
X72104Y-52293D02*
X72047Y-52331D01*
X71904Y-52331D01*
X71847Y-52293D01*
X71818Y-52217D01*
X71818Y-52140D01*
X71847Y-52064D01*
X71904Y-52026D01*
X72047Y-52026D01*
X72104Y-51988D01*
X72390Y-52331D02*
X72390Y-51531D01*
X72390Y-51836D02*
X72447Y-51797D01*
X72561Y-51797D01*
X72618Y-51836D01*
X72647Y-51874D01*
X72676Y-51950D01*
X72676Y-52178D01*
X72647Y-52255D01*
X72618Y-52293D01*
X72561Y-52331D01*
X72447Y-52331D01*
X72390Y-52293D01*
X73019Y-52331D02*
X72961Y-52293D01*
X72933Y-52217D01*
X72933Y-51531D01*
X73475Y-52293D02*
X73418Y-52331D01*
X73304Y-52331D01*
X73247Y-52293D01*
X73218Y-52217D01*
X73218Y-51912D01*
X73247Y-51836D01*
X73304Y-51797D01*
X73418Y-51797D01*
X73475Y-51836D01*
X73504Y-51912D01*
X73504Y-51988D01*
X73218Y-52064D01*
X74189Y-52293D02*
X74246Y-52331D01*
X74361Y-52331D01*
X74418Y-52293D01*
X74446Y-52217D01*
X74446Y-52178D01*
X74418Y-52102D01*
X74361Y-52064D01*
X74275Y-52064D01*
X74218Y-52026D01*
X74189Y-51950D01*
X74189Y-51912D01*
X74218Y-51836D01*
X74275Y-51797D01*
X74361Y-51797D01*
X74418Y-51836D01*
X74790Y-52331D02*
X74732Y-52293D01*
X74704Y-52255D01*
X74675Y-52178D01*
X74675Y-51950D01*
X74704Y-51874D01*
X74732Y-51836D01*
X74790Y-51797D01*
X74875Y-51797D01*
X74932Y-51836D01*
X74961Y-51874D01*
X74990Y-51950D01*
X74990Y-52178D01*
X74961Y-52255D01*
X74932Y-52293D01*
X74875Y-52331D01*
X74790Y-52331D01*
X75333Y-52331D02*
X75275Y-52293D01*
X75247Y-52217D01*
X75247Y-51531D01*
X75818Y-52331D02*
X75818Y-51531D01*
X75818Y-52293D02*
X75761Y-52331D01*
X75647Y-52331D01*
X75589Y-52293D01*
X75561Y-52255D01*
X75532Y-52178D01*
X75532Y-51950D01*
X75561Y-51874D01*
X75589Y-51836D01*
X75647Y-51797D01*
X75761Y-51797D01*
X75818Y-51836D01*
X76332Y-52293D02*
X76275Y-52331D01*
X76161Y-52331D01*
X76104Y-52293D01*
X76075Y-52217D01*
X76075Y-51912D01*
X76104Y-51836D01*
X76161Y-51797D01*
X76275Y-51797D01*
X76332Y-51836D01*
X76361Y-51912D01*
X76361Y-51988D01*
X76075Y-52064D01*
X76618Y-52331D02*
X76618Y-51797D01*
X76618Y-51950D02*
X76646Y-51874D01*
X76675Y-51836D01*
X76732Y-51797D01*
X76789Y-51797D01*
X76989Y-52331D02*
X76989Y-51797D01*
X76989Y-51874D02*
X77017Y-51836D01*
X77075Y-51797D01*
X77160Y-51797D01*
X77217Y-51836D01*
X77246Y-51912D01*
X77246Y-52331D01*
X77246Y-51912D02*
X77275Y-51836D01*
X77332Y-51797D01*
X77417Y-51797D01*
X77475Y-51836D01*
X77503Y-51912D01*
X77503Y-52331D01*
X78046Y-52331D02*
X78046Y-51912D01*
X78017Y-51836D01*
X77960Y-51797D01*
X77846Y-51797D01*
X77789Y-51836D01*
X78046Y-52293D02*
X77989Y-52331D01*
X77846Y-52331D01*
X77789Y-52293D01*
X77760Y-52217D01*
X77760Y-52140D01*
X77789Y-52064D01*
X77846Y-52026D01*
X77989Y-52026D01*
X78046Y-51988D01*
X78303Y-52293D02*
X78360Y-52331D01*
X78475Y-52331D01*
X78532Y-52293D01*
X78560Y-52217D01*
X78560Y-52178D01*
X78532Y-52102D01*
X78475Y-52064D01*
X78389Y-52064D01*
X78332Y-52026D01*
X78303Y-51950D01*
X78303Y-51912D01*
X78332Y-51836D01*
X78389Y-51797D01*
X78475Y-51797D01*
X78532Y-51836D01*
X78818Y-52331D02*
X78818Y-51531D01*
X78875Y-52026D02*
X79046Y-52331D01*
X79046Y-51797D02*
X78818Y-52102D01*
X79475Y-52636D02*
X79447Y-52597D01*
X79390Y-52483D01*
X79361Y-52407D01*
X79332Y-52293D01*
X79304Y-52102D01*
X79304Y-51950D01*
X79332Y-51759D01*
X79361Y-51645D01*
X79390Y-51569D01*
X79447Y-51455D01*
X79475Y-51417D01*
X79704Y-52331D02*
X79704Y-51531D01*
X79704Y-51836D02*
X79761Y-51797D01*
X79875Y-51797D01*
X79932Y-51836D01*
X79961Y-51874D01*
X79990Y-51950D01*
X79990Y-52178D01*
X79961Y-52255D01*
X79932Y-52293D01*
X79875Y-52331D01*
X79761Y-52331D01*
X79704Y-52293D01*
X80333Y-52331D02*
X80275Y-52293D01*
X80247Y-52217D01*
X80247Y-51531D01*
X80818Y-51797D02*
X80818Y-52331D01*
X80561Y-51797D02*
X80561Y-52217D01*
X80589Y-52293D01*
X80647Y-52331D01*
X80732Y-52331D01*
X80789Y-52293D01*
X80818Y-52255D01*
X81332Y-52293D02*
X81275Y-52331D01*
X81161Y-52331D01*
X81104Y-52293D01*
X81075Y-52217D01*
X81075Y-51912D01*
X81104Y-51836D01*
X81161Y-51797D01*
X81275Y-51797D01*
X81332Y-51836D01*
X81361Y-51912D01*
X81361Y-51988D01*
X81075Y-52064D01*
X81561Y-52636D02*
X81589Y-52597D01*
X81646Y-52483D01*
X81675Y-52407D01*
X81704Y-52293D01*
X81732Y-52102D01*
X81732Y-51950D01*
X81704Y-51759D01*
X81675Y-51645D01*
X81646Y-51569D01*
X81589Y-51455D01*
X81561Y-51417D01*
X82018Y-52255D02*
X82046Y-52293D01*
X82018Y-52331D01*
X81989Y-52293D01*
X82018Y-52255D01*
X82018Y-52331D01*
X82761Y-52331D02*
X82761Y-51531D01*
X82989Y-51531D01*
X83047Y-51569D01*
X83075Y-51607D01*
X83104Y-51683D01*
X83104Y-51797D01*
X83075Y-51874D01*
X83047Y-51912D01*
X82989Y-51950D01*
X82761Y-51950D01*
X83618Y-52331D02*
X83618Y-51912D01*
X83589Y-51836D01*
X83532Y-51797D01*
X83418Y-51797D01*
X83361Y-51836D01*
X83618Y-52293D02*
X83561Y-52331D01*
X83418Y-52331D01*
X83361Y-52293D01*
X83332Y-52217D01*
X83332Y-52140D01*
X83361Y-52064D01*
X83418Y-52026D01*
X83561Y-52026D01*
X83618Y-51988D01*
X84161Y-52331D02*
X84161Y-51531D01*
X84161Y-52293D02*
X84104Y-52331D01*
X83990Y-52331D01*
X83932Y-52293D01*
X83904Y-52255D01*
X83875Y-52178D01*
X83875Y-51950D01*
X83904Y-51874D01*
X83932Y-51836D01*
X83990Y-51797D01*
X84104Y-51797D01*
X84161Y-51836D01*
X84418Y-52293D02*
X84475Y-52331D01*
X84590Y-52331D01*
X84647Y-52293D01*
X84675Y-52217D01*
X84675Y-52178D01*
X84647Y-52102D01*
X84590Y-52064D01*
X84504Y-52064D01*
X84447Y-52026D01*
X84418Y-51950D01*
X84418Y-51912D01*
X84447Y-51836D01*
X84504Y-51797D01*
X84590Y-51797D01*
X84647Y-51836D01*
X85390Y-52331D02*
X85390Y-51531D01*
X85647Y-52331D02*
X85647Y-51912D01*
X85618Y-51836D01*
X85561Y-51797D01*
X85476Y-51797D01*
X85418Y-51836D01*
X85390Y-51874D01*
X86190Y-52331D02*
X86190Y-51912D01*
X86161Y-51836D01*
X86104Y-51797D01*
X85990Y-51797D01*
X85933Y-51836D01*
X86190Y-52293D02*
X86133Y-52331D01*
X85990Y-52331D01*
X85933Y-52293D01*
X85904Y-52217D01*
X85904Y-52140D01*
X85933Y-52064D01*
X85990Y-52026D01*
X86133Y-52026D01*
X86190Y-51988D01*
X86419Y-51797D02*
X86562Y-52331D01*
X86704Y-51797D01*
X87161Y-52293D02*
X87104Y-52331D01*
X86990Y-52331D01*
X86933Y-52293D01*
X86904Y-52217D01*
X86904Y-51912D01*
X86933Y-51836D01*
X86990Y-51797D01*
X87104Y-51797D01*
X87161Y-51836D01*
X87190Y-51912D01*
X87190Y-51988D01*
X86904Y-52064D01*
X87904Y-51797D02*
X87904Y-52331D01*
X87904Y-51874D02*
X87932Y-51836D01*
X87990Y-51797D01*
X88075Y-51797D01*
X88132Y-51836D01*
X88161Y-51912D01*
X88161Y-52331D01*
X88533Y-52331D02*
X88475Y-52293D01*
X88447Y-52255D01*
X88418Y-52178D01*
X88418Y-51950D01*
X88447Y-51874D01*
X88475Y-51836D01*
X88533Y-51797D01*
X88618Y-51797D01*
X88675Y-51836D01*
X88704Y-51874D01*
X88733Y-51950D01*
X88733Y-52178D01*
X88704Y-52255D01*
X88675Y-52293D01*
X88618Y-52331D01*
X88533Y-52331D01*
X88904Y-51797D02*
X89133Y-51797D01*
X88990Y-51531D02*
X88990Y-52217D01*
X89018Y-52293D01*
X89076Y-52331D01*
X89133Y-52331D01*
X89790Y-52331D02*
X89790Y-51531D01*
X89790Y-51836D02*
X89847Y-51797D01*
X89961Y-51797D01*
X90018Y-51836D01*
X90047Y-51874D01*
X90076Y-51950D01*
X90076Y-52178D01*
X90047Y-52255D01*
X90018Y-52293D01*
X89961Y-52331D01*
X89847Y-52331D01*
X89790Y-52293D01*
X90561Y-52293D02*
X90504Y-52331D01*
X90390Y-52331D01*
X90333Y-52293D01*
X90304Y-52217D01*
X90304Y-51912D01*
X90333Y-51836D01*
X90390Y-51797D01*
X90504Y-51797D01*
X90561Y-51836D01*
X90590Y-51912D01*
X90590Y-51988D01*
X90304Y-52064D01*
X91075Y-52293D02*
X91018Y-52331D01*
X90904Y-52331D01*
X90847Y-52293D01*
X90818Y-52217D01*
X90818Y-51912D01*
X90847Y-51836D01*
X90904Y-51797D01*
X91018Y-51797D01*
X91075Y-51836D01*
X91104Y-51912D01*
X91104Y-51988D01*
X90818Y-52064D01*
X91361Y-51797D02*
X91361Y-52331D01*
X91361Y-51874D02*
X91389Y-51836D01*
X91447Y-51797D01*
X91532Y-51797D01*
X91589Y-51836D01*
X91618Y-51912D01*
X91618Y-52331D01*
X92447Y-52331D02*
X92389Y-52293D01*
X92361Y-52255D01*
X92332Y-52178D01*
X92332Y-51950D01*
X92361Y-51874D01*
X92389Y-51836D01*
X92447Y-51797D01*
X92532Y-51797D01*
X92589Y-51836D01*
X92618Y-51874D01*
X92647Y-51950D01*
X92647Y-52178D01*
X92618Y-52255D01*
X92589Y-52293D01*
X92532Y-52331D01*
X92447Y-52331D01*
X92847Y-51797D02*
X92990Y-52331D01*
X93132Y-51797D01*
X93589Y-52293D02*
X93532Y-52331D01*
X93418Y-52331D01*
X93361Y-52293D01*
X93332Y-52217D01*
X93332Y-51912D01*
X93361Y-51836D01*
X93418Y-51797D01*
X93532Y-51797D01*
X93589Y-51836D01*
X93618Y-51912D01*
X93618Y-51988D01*
X93332Y-52064D01*
X93875Y-52331D02*
X93875Y-51797D01*
X93875Y-51950D02*
X93903Y-51874D01*
X93932Y-51836D01*
X93989Y-51797D01*
X94046Y-51797D01*
X94217Y-52293D02*
X94274Y-52331D01*
X94389Y-52331D01*
X94446Y-52293D01*
X94474Y-52217D01*
X94474Y-52178D01*
X94446Y-52102D01*
X94389Y-52064D01*
X94303Y-52064D01*
X94246Y-52026D01*
X94217Y-51950D01*
X94217Y-51912D01*
X94246Y-51836D01*
X94303Y-51797D01*
X94389Y-51797D01*
X94446Y-51836D01*
X94732Y-52331D02*
X94732Y-51797D01*
X94732Y-51531D02*
X94703Y-51569D01*
X94732Y-51607D01*
X94760Y-51569D01*
X94732Y-51531D01*
X94732Y-51607D01*
X94961Y-51797D02*
X95275Y-51797D01*
X94961Y-52331D01*
X95275Y-52331D01*
X95732Y-52293D02*
X95675Y-52331D01*
X95561Y-52331D01*
X95504Y-52293D01*
X95475Y-52217D01*
X95475Y-51912D01*
X95504Y-51836D01*
X95561Y-51797D01*
X95675Y-51797D01*
X95732Y-51836D01*
X95761Y-51912D01*
X95761Y-51988D01*
X95475Y-52064D01*
X96275Y-52331D02*
X96275Y-51531D01*
X96275Y-52293D02*
X96218Y-52331D01*
X96104Y-52331D01*
X96046Y-52293D01*
X96018Y-52255D01*
X95989Y-52178D01*
X95989Y-51950D01*
X96018Y-51874D01*
X96046Y-51836D01*
X96104Y-51797D01*
X96218Y-51797D01*
X96275Y-51836D01*
X96561Y-52255D02*
X96589Y-52293D01*
X96561Y-52331D01*
X96532Y-52293D01*
X96561Y-52255D01*
X96561Y-52331D01*
X63660Y-46499D02*
X63460Y-46499D01*
X63460Y-46918D02*
X63460Y-46118D01*
X63746Y-46118D01*
X63974Y-46918D02*
X63974Y-46384D01*
X63974Y-46118D02*
X63945Y-46156D01*
X63974Y-46194D01*
X64002Y-46156D01*
X63974Y-46118D01*
X63974Y-46194D01*
X64260Y-46384D02*
X64260Y-46918D01*
X64260Y-46461D02*
X64288Y-46423D01*
X64346Y-46384D01*
X64431Y-46384D01*
X64488Y-46423D01*
X64517Y-46499D01*
X64517Y-46918D01*
X64803Y-46918D02*
X64803Y-46384D01*
X64803Y-46118D02*
X64774Y-46156D01*
X64803Y-46194D01*
X64831Y-46156D01*
X64803Y-46118D01*
X64803Y-46194D01*
X65060Y-46880D02*
X65117Y-46918D01*
X65232Y-46918D01*
X65289Y-46880D01*
X65317Y-46804D01*
X65317Y-46765D01*
X65289Y-46689D01*
X65232Y-46651D01*
X65146Y-46651D01*
X65089Y-46613D01*
X65060Y-46537D01*
X65060Y-46499D01*
X65089Y-46423D01*
X65146Y-46384D01*
X65232Y-46384D01*
X65289Y-46423D01*
X65575Y-46918D02*
X65575Y-46118D01*
X65832Y-46918D02*
X65832Y-46499D01*
X65803Y-46423D01*
X65746Y-46384D01*
X65661Y-46384D01*
X65603Y-46423D01*
X65575Y-46461D01*
X62560Y-47853D02*
X63017Y-47853D01*
X63303Y-47853D02*
X63760Y-47853D01*
X64046Y-47853D02*
X64503Y-47853D01*
X64789Y-47853D02*
X65246Y-47853D01*
X65532Y-47853D02*
X65989Y-47853D01*
X66275Y-47853D02*
X66732Y-47853D01*
X61346Y-50409D02*
X61632Y-50409D01*
X61289Y-50638D02*
X61489Y-49838D01*
X61689Y-50638D01*
X61889Y-50562D02*
X61917Y-50600D01*
X61889Y-50638D01*
X61860Y-50600D01*
X61889Y-50562D01*
X61889Y-50638D01*
X62118Y-50943D02*
X62146Y-50904D01*
X62203Y-50790D01*
X62232Y-50714D01*
X62261Y-50600D01*
X62289Y-50409D01*
X62289Y-50257D01*
X62261Y-50066D01*
X62232Y-49952D01*
X62203Y-49876D01*
X62146Y-49762D01*
X62118Y-49724D01*
X63003Y-50600D02*
X63089Y-50638D01*
X63232Y-50638D01*
X63289Y-50600D01*
X63318Y-50562D01*
X63346Y-50485D01*
X63346Y-50409D01*
X63318Y-50333D01*
X63289Y-50295D01*
X63232Y-50257D01*
X63118Y-50219D01*
X63060Y-50181D01*
X63032Y-50143D01*
X63003Y-50066D01*
X63003Y-49990D01*
X63032Y-49914D01*
X63060Y-49876D01*
X63118Y-49838D01*
X63260Y-49838D01*
X63346Y-49876D01*
X63689Y-50638D02*
X63631Y-50600D01*
X63603Y-50562D01*
X63574Y-50485D01*
X63574Y-50257D01*
X63603Y-50181D01*
X63631Y-50143D01*
X63689Y-50104D01*
X63774Y-50104D01*
X63831Y-50143D01*
X63860Y-50181D01*
X63889Y-50257D01*
X63889Y-50485D01*
X63860Y-50562D01*
X63831Y-50600D01*
X63774Y-50638D01*
X63689Y-50638D01*
X64232Y-50638D02*
X64174Y-50600D01*
X64146Y-50524D01*
X64146Y-49838D01*
X64717Y-50638D02*
X64717Y-49838D01*
X64717Y-50600D02*
X64660Y-50638D01*
X64546Y-50638D01*
X64488Y-50600D01*
X64460Y-50562D01*
X64431Y-50485D01*
X64431Y-50257D01*
X64460Y-50181D01*
X64488Y-50143D01*
X64546Y-50104D01*
X64660Y-50104D01*
X64717Y-50143D01*
X65231Y-50600D02*
X65174Y-50638D01*
X65060Y-50638D01*
X65003Y-50600D01*
X64974Y-50524D01*
X64974Y-50219D01*
X65003Y-50143D01*
X65060Y-50104D01*
X65174Y-50104D01*
X65231Y-50143D01*
X65260Y-50219D01*
X65260Y-50295D01*
X64974Y-50371D01*
X65517Y-50638D02*
X65517Y-50104D01*
X65517Y-50257D02*
X65545Y-50181D01*
X65574Y-50143D01*
X65631Y-50104D01*
X65688Y-50104D01*
X65888Y-50638D02*
X65888Y-50104D01*
X65888Y-50181D02*
X65916Y-50143D01*
X65974Y-50104D01*
X66059Y-50104D01*
X66116Y-50143D01*
X66145Y-50219D01*
X66145Y-50638D01*
X66145Y-50219D02*
X66174Y-50143D01*
X66231Y-50104D01*
X66316Y-50104D01*
X66374Y-50143D01*
X66402Y-50219D01*
X66402Y-50638D01*
X66945Y-50638D02*
X66945Y-50219D01*
X66916Y-50143D01*
X66859Y-50104D01*
X66745Y-50104D01*
X66688Y-50143D01*
X66945Y-50600D02*
X66888Y-50638D01*
X66745Y-50638D01*
X66688Y-50600D01*
X66659Y-50524D01*
X66659Y-50447D01*
X66688Y-50371D01*
X66745Y-50333D01*
X66888Y-50333D01*
X66945Y-50295D01*
X67202Y-50600D02*
X67259Y-50638D01*
X67374Y-50638D01*
X67431Y-50600D01*
X67459Y-50524D01*
X67459Y-50485D01*
X67431Y-50409D01*
X67374Y-50371D01*
X67288Y-50371D01*
X67231Y-50333D01*
X67202Y-50257D01*
X67202Y-50219D01*
X67231Y-50143D01*
X67288Y-50104D01*
X67374Y-50104D01*
X67431Y-50143D01*
X67717Y-50638D02*
X67717Y-49838D01*
X67774Y-50333D02*
X67945Y-50638D01*
X67945Y-50104D02*
X67717Y-50409D01*
X61774Y-43664D02*
X61574Y-43664D01*
X61574Y-44083D02*
X61574Y-43283D01*
X61860Y-43283D01*
X62088Y-44083D02*
X62088Y-43549D01*
X62088Y-43283D02*
X62059Y-43321D01*
X62088Y-43359D01*
X62116Y-43321D01*
X62088Y-43283D01*
X62088Y-43359D01*
X62374Y-43549D02*
X62374Y-44083D01*
X62374Y-43626D02*
X62402Y-43588D01*
X62460Y-43549D01*
X62545Y-43549D01*
X62602Y-43588D01*
X62631Y-43664D01*
X62631Y-44083D01*
X62917Y-44083D02*
X62917Y-43549D01*
X62917Y-43283D02*
X62888Y-43321D01*
X62917Y-43359D01*
X62945Y-43321D01*
X62917Y-43283D01*
X62917Y-43359D01*
X63174Y-44045D02*
X63231Y-44083D01*
X63346Y-44083D01*
X63403Y-44045D01*
X63431Y-43969D01*
X63431Y-43930D01*
X63403Y-43854D01*
X63346Y-43816D01*
X63260Y-43816D01*
X63203Y-43778D01*
X63174Y-43702D01*
X63174Y-43664D01*
X63203Y-43588D01*
X63260Y-43549D01*
X63346Y-43549D01*
X63403Y-43588D01*
X63689Y-44083D02*
X63689Y-43283D01*
X63946Y-44083D02*
X63946Y-43664D01*
X63917Y-43588D01*
X63860Y-43549D01*
X63775Y-43549D01*
X63717Y-43588D01*
X63689Y-43626D01*
X64460Y-44045D02*
X64403Y-44083D01*
X64289Y-44083D01*
X64232Y-44045D01*
X64203Y-43969D01*
X64203Y-43664D01*
X64232Y-43588D01*
X64289Y-43549D01*
X64403Y-43549D01*
X64460Y-43588D01*
X64489Y-43664D01*
X64489Y-43740D01*
X64203Y-43816D01*
X65003Y-44083D02*
X65003Y-43283D01*
X65003Y-44045D02*
X64946Y-44083D01*
X64832Y-44083D01*
X64774Y-44045D01*
X64746Y-44007D01*
X64717Y-43930D01*
X64717Y-43702D01*
X64746Y-43626D01*
X64774Y-43588D01*
X64832Y-43549D01*
X64946Y-43549D01*
X65003Y-43588D01*
X65946Y-43664D02*
X66032Y-43702D01*
X66060Y-43740D01*
X66089Y-43816D01*
X66089Y-43930D01*
X66060Y-44007D01*
X66032Y-44045D01*
X65974Y-44083D01*
X65746Y-44083D01*
X65746Y-43283D01*
X65946Y-43283D01*
X66003Y-43321D01*
X66032Y-43359D01*
X66060Y-43435D01*
X66060Y-43511D01*
X66032Y-43588D01*
X66003Y-43626D01*
X65946Y-43664D01*
X65746Y-43664D01*
X66432Y-44083D02*
X66374Y-44045D01*
X66346Y-44007D01*
X66317Y-43930D01*
X66317Y-43702D01*
X66346Y-43626D01*
X66374Y-43588D01*
X66432Y-43549D01*
X66517Y-43549D01*
X66574Y-43588D01*
X66603Y-43626D01*
X66632Y-43702D01*
X66632Y-43930D01*
X66603Y-44007D01*
X66574Y-44045D01*
X66517Y-44083D01*
X66432Y-44083D01*
X67146Y-44083D02*
X67146Y-43664D01*
X67117Y-43588D01*
X67060Y-43549D01*
X66946Y-43549D01*
X66889Y-43588D01*
X67146Y-44045D02*
X67089Y-44083D01*
X66946Y-44083D01*
X66889Y-44045D01*
X66860Y-43969D01*
X66860Y-43892D01*
X66889Y-43816D01*
X66946Y-43778D01*
X67089Y-43778D01*
X67146Y-43740D01*
X67432Y-44083D02*
X67432Y-43549D01*
X67432Y-43702D02*
X67460Y-43626D01*
X67489Y-43588D01*
X67546Y-43549D01*
X67603Y-43549D01*
X68060Y-44083D02*
X68060Y-43283D01*
X68060Y-44045D02*
X68003Y-44083D01*
X67889Y-44083D01*
X67831Y-44045D01*
X67803Y-44007D01*
X67774Y-43930D01*
X67774Y-43702D01*
X67803Y-43626D01*
X67831Y-43588D01*
X67889Y-43549D01*
X68003Y-43549D01*
X68060Y-43588D01*
X68717Y-43549D02*
X68946Y-43549D01*
X68803Y-43283D02*
X68803Y-43969D01*
X68831Y-44045D01*
X68889Y-44083D01*
X68946Y-44083D01*
X69146Y-44083D02*
X69146Y-43283D01*
X69403Y-44083D02*
X69403Y-43664D01*
X69374Y-43588D01*
X69317Y-43549D01*
X69232Y-43549D01*
X69174Y-43588D01*
X69146Y-43626D01*
X69689Y-44083D02*
X69689Y-43549D01*
X69689Y-43283D02*
X69660Y-43321D01*
X69689Y-43359D01*
X69717Y-43321D01*
X69689Y-43283D01*
X69689Y-43359D01*
X70232Y-44045D02*
X70175Y-44083D01*
X70061Y-44083D01*
X70003Y-44045D01*
X69975Y-44007D01*
X69946Y-43930D01*
X69946Y-43702D01*
X69975Y-43626D01*
X70003Y-43588D01*
X70061Y-43549D01*
X70175Y-43549D01*
X70232Y-43588D01*
X70489Y-44083D02*
X70489Y-43283D01*
X70546Y-43778D02*
X70717Y-44083D01*
X70717Y-43549D02*
X70489Y-43854D01*
X70975Y-43549D02*
X70975Y-44083D01*
X70975Y-43626D02*
X71003Y-43588D01*
X71061Y-43549D01*
X71146Y-43549D01*
X71203Y-43588D01*
X71232Y-43664D01*
X71232Y-44083D01*
X71746Y-44045D02*
X71689Y-44083D01*
X71575Y-44083D01*
X71518Y-44045D01*
X71489Y-43969D01*
X71489Y-43664D01*
X71518Y-43588D01*
X71575Y-43549D01*
X71689Y-43549D01*
X71746Y-43588D01*
X71775Y-43664D01*
X71775Y-43740D01*
X71489Y-43816D01*
X72003Y-44045D02*
X72060Y-44083D01*
X72175Y-44083D01*
X72232Y-44045D01*
X72260Y-43969D01*
X72260Y-43930D01*
X72232Y-43854D01*
X72175Y-43816D01*
X72089Y-43816D01*
X72032Y-43778D01*
X72003Y-43702D01*
X72003Y-43664D01*
X72032Y-43588D01*
X72089Y-43549D01*
X72175Y-43549D01*
X72232Y-43588D01*
X72489Y-44045D02*
X72546Y-44083D01*
X72661Y-44083D01*
X72718Y-44045D01*
X72746Y-43969D01*
X72746Y-43930D01*
X72718Y-43854D01*
X72661Y-43816D01*
X72575Y-43816D01*
X72518Y-43778D01*
X72489Y-43702D01*
X72489Y-43664D01*
X72518Y-43588D01*
X72575Y-43549D01*
X72661Y-43549D01*
X72718Y-43588D01*
X73461Y-43778D02*
X73918Y-43778D01*
X74975Y-44083D02*
X74632Y-44083D01*
X74804Y-44083D02*
X74804Y-43283D01*
X74747Y-43397D01*
X74689Y-43473D01*
X74632Y-43511D01*
X75232Y-44007D02*
X75260Y-44045D01*
X75232Y-44083D01*
X75203Y-44045D01*
X75232Y-44007D01*
X75232Y-44083D01*
X75775Y-43283D02*
X75661Y-43283D01*
X75604Y-43321D01*
X75575Y-43359D01*
X75518Y-43473D01*
X75489Y-43626D01*
X75489Y-43930D01*
X75518Y-44007D01*
X75546Y-44045D01*
X75604Y-44083D01*
X75718Y-44083D01*
X75775Y-44045D01*
X75804Y-44007D01*
X75832Y-43930D01*
X75832Y-43740D01*
X75804Y-43664D01*
X75775Y-43626D01*
X75718Y-43588D01*
X75604Y-43588D01*
X75546Y-43626D01*
X75518Y-43664D01*
X75489Y-43740D01*
X76089Y-44083D02*
X76089Y-43549D01*
X76089Y-43626D02*
X76117Y-43588D01*
X76175Y-43549D01*
X76260Y-43549D01*
X76317Y-43588D01*
X76346Y-43664D01*
X76346Y-44083D01*
X76346Y-43664D02*
X76375Y-43588D01*
X76432Y-43549D01*
X76517Y-43549D01*
X76575Y-43588D01*
X76603Y-43664D01*
X76603Y-44083D01*
X76889Y-44083D02*
X76889Y-43549D01*
X76889Y-43626D02*
X76917Y-43588D01*
X76975Y-43549D01*
X77060Y-43549D01*
X77117Y-43588D01*
X77146Y-43664D01*
X77146Y-44083D01*
X77146Y-43664D02*
X77175Y-43588D01*
X77232Y-43549D01*
X77317Y-43549D01*
X77375Y-43588D01*
X77403Y-43664D01*
X77403Y-44083D01*
X78146Y-43626D02*
X78603Y-43626D01*
X78374Y-43930D02*
X78374Y-43321D01*
X78603Y-44083D02*
X78146Y-44083D01*
X79460Y-43283D02*
X79517Y-43283D01*
X79574Y-43321D01*
X79603Y-43359D01*
X79632Y-43435D01*
X79660Y-43588D01*
X79660Y-43778D01*
X79632Y-43930D01*
X79603Y-44007D01*
X79574Y-44045D01*
X79517Y-44083D01*
X79460Y-44083D01*
X79403Y-44045D01*
X79374Y-44007D01*
X79346Y-43930D01*
X79317Y-43778D01*
X79317Y-43588D01*
X79346Y-43435D01*
X79374Y-43359D01*
X79403Y-43321D01*
X79460Y-43283D01*
X79917Y-44007D02*
X79945Y-44045D01*
X79917Y-44083D01*
X79888Y-44045D01*
X79917Y-44007D01*
X79917Y-44083D01*
X80517Y-44083D02*
X80174Y-44083D01*
X80346Y-44083D02*
X80346Y-43283D01*
X80289Y-43397D01*
X80231Y-43473D01*
X80174Y-43511D01*
X80774Y-44083D02*
X80774Y-43549D01*
X80774Y-43626D02*
X80802Y-43588D01*
X80860Y-43549D01*
X80945Y-43549D01*
X81002Y-43588D01*
X81031Y-43664D01*
X81031Y-44083D01*
X81031Y-43664D02*
X81060Y-43588D01*
X81117Y-43549D01*
X81202Y-43549D01*
X81260Y-43588D01*
X81288Y-43664D01*
X81288Y-44083D01*
X81574Y-44083D02*
X81574Y-43549D01*
X81574Y-43626D02*
X81602Y-43588D01*
X81660Y-43549D01*
X81745Y-43549D01*
X81802Y-43588D01*
X81831Y-43664D01*
X81831Y-44083D01*
X81831Y-43664D02*
X81860Y-43588D01*
X81917Y-43549D01*
X82002Y-43549D01*
X82060Y-43588D01*
X82088Y-43664D01*
X82088Y-44083D01*
X70823Y-39812D02*
X70480Y-39812D01*
X70652Y-39812D02*
X70652Y-39012D01*
X70595Y-39126D01*
X70537Y-39202D01*
X70480Y-39240D01*
X71080Y-39736D02*
X71108Y-39774D01*
X71080Y-39812D01*
X71051Y-39774D01*
X71080Y-39736D01*
X71080Y-39812D01*
X71480Y-39012D02*
X71537Y-39012D01*
X71594Y-39050D01*
X71623Y-39088D01*
X71652Y-39164D01*
X71680Y-39317D01*
X71680Y-39507D01*
X71652Y-39659D01*
X71623Y-39736D01*
X71594Y-39774D01*
X71537Y-39812D01*
X71480Y-39812D01*
X71423Y-39774D01*
X71394Y-39736D01*
X71366Y-39659D01*
X71337Y-39507D01*
X71337Y-39317D01*
X71366Y-39164D01*
X71394Y-39088D01*
X71423Y-39050D01*
X71480Y-39012D01*
X72023Y-39812D02*
X71965Y-39774D01*
X71937Y-39736D01*
X71908Y-39659D01*
X71908Y-39431D01*
X71937Y-39355D01*
X71965Y-39317D01*
X72023Y-39278D01*
X72108Y-39278D01*
X72165Y-39317D01*
X72194Y-39355D01*
X72223Y-39431D01*
X72223Y-39659D01*
X72194Y-39736D01*
X72165Y-39774D01*
X72108Y-39812D01*
X72023Y-39812D01*
X72423Y-39278D02*
X72737Y-39278D01*
X72423Y-39812D01*
X72737Y-39812D01*
X70643Y-40803D02*
X70700Y-40803D01*
X70757Y-40841D01*
X70786Y-40879D01*
X70815Y-40955D01*
X70843Y-41108D01*
X70843Y-41298D01*
X70815Y-41450D01*
X70786Y-41527D01*
X70757Y-41565D01*
X70700Y-41603D01*
X70643Y-41603D01*
X70586Y-41565D01*
X70557Y-41527D01*
X70529Y-41450D01*
X70500Y-41298D01*
X70500Y-41108D01*
X70529Y-40955D01*
X70557Y-40879D01*
X70586Y-40841D01*
X70643Y-40803D01*
X71100Y-41527D02*
X71128Y-41565D01*
X71100Y-41603D01*
X71071Y-41565D01*
X71100Y-41527D01*
X71100Y-41603D01*
X71672Y-40803D02*
X71386Y-40803D01*
X71357Y-41184D01*
X71386Y-41146D01*
X71443Y-41108D01*
X71586Y-41108D01*
X71643Y-41146D01*
X71672Y-41184D01*
X71700Y-41260D01*
X71700Y-41450D01*
X71672Y-41527D01*
X71643Y-41565D01*
X71586Y-41603D01*
X71443Y-41603D01*
X71386Y-41565D01*
X71357Y-41527D01*
X72043Y-41603D02*
X71985Y-41565D01*
X71957Y-41527D01*
X71928Y-41450D01*
X71928Y-41222D01*
X71957Y-41146D01*
X71985Y-41108D01*
X72043Y-41069D01*
X72128Y-41069D01*
X72185Y-41108D01*
X72214Y-41146D01*
X72243Y-41222D01*
X72243Y-41450D01*
X72214Y-41527D01*
X72185Y-41565D01*
X72128Y-41603D01*
X72043Y-41603D01*
X72443Y-41069D02*
X72757Y-41069D01*
X72443Y-41603D01*
X72757Y-41603D01*
X70824Y-38217D02*
X70481Y-38217D01*
X70653Y-38217D02*
X70653Y-37417D01*
X70596Y-37531D01*
X70538Y-37607D01*
X70481Y-37645D01*
X71081Y-38141D02*
X71109Y-38179D01*
X71081Y-38217D01*
X71052Y-38179D01*
X71081Y-38141D01*
X71081Y-38217D01*
X71481Y-37417D02*
X71538Y-37417D01*
X71595Y-37455D01*
X71624Y-37493D01*
X71653Y-37569D01*
X71681Y-37722D01*
X71681Y-37912D01*
X71653Y-38064D01*
X71624Y-38141D01*
X71595Y-38179D01*
X71538Y-38217D01*
X71481Y-38217D01*
X71424Y-38179D01*
X71395Y-38141D01*
X71367Y-38064D01*
X71338Y-37912D01*
X71338Y-37722D01*
X71367Y-37569D01*
X71395Y-37493D01*
X71424Y-37455D01*
X71481Y-37417D01*
X72024Y-38217D02*
X71966Y-38179D01*
X71938Y-38141D01*
X71909Y-38064D01*
X71909Y-37836D01*
X71938Y-37760D01*
X71966Y-37722D01*
X72024Y-37683D01*
X72109Y-37683D01*
X72166Y-37722D01*
X72195Y-37760D01*
X72224Y-37836D01*
X72224Y-38064D01*
X72195Y-38141D01*
X72166Y-38179D01*
X72109Y-38217D01*
X72024Y-38217D01*
X72424Y-37683D02*
X72738Y-37683D01*
X72424Y-38217D01*
X72738Y-38217D01*
X70604Y-35626D02*
X70661Y-35626D01*
X70718Y-35664D01*
X70747Y-35702D01*
X70776Y-35778D01*
X70804Y-35931D01*
X70804Y-36121D01*
X70776Y-36273D01*
X70747Y-36350D01*
X70718Y-36388D01*
X70661Y-36426D01*
X70604Y-36426D01*
X70547Y-36388D01*
X70518Y-36350D01*
X70490Y-36273D01*
X70461Y-36121D01*
X70461Y-35931D01*
X70490Y-35778D01*
X70518Y-35702D01*
X70547Y-35664D01*
X70604Y-35626D01*
X71061Y-36350D02*
X71089Y-36388D01*
X71061Y-36426D01*
X71032Y-36388D01*
X71061Y-36350D01*
X71061Y-36426D01*
X71633Y-35626D02*
X71347Y-35626D01*
X71318Y-36007D01*
X71347Y-35969D01*
X71404Y-35931D01*
X71547Y-35931D01*
X71604Y-35969D01*
X71633Y-36007D01*
X71661Y-36083D01*
X71661Y-36273D01*
X71633Y-36350D01*
X71604Y-36388D01*
X71547Y-36426D01*
X71404Y-36426D01*
X71347Y-36388D01*
X71318Y-36350D01*
X72004Y-36426D02*
X71946Y-36388D01*
X71918Y-36350D01*
X71889Y-36273D01*
X71889Y-36045D01*
X71918Y-35969D01*
X71946Y-35931D01*
X72004Y-35892D01*
X72089Y-35892D01*
X72146Y-35931D01*
X72175Y-35969D01*
X72204Y-36045D01*
X72204Y-36273D01*
X72175Y-36350D01*
X72146Y-36388D01*
X72089Y-36426D01*
X72004Y-36426D01*
X72404Y-35892D02*
X72718Y-35892D01*
X72404Y-36426D01*
X72718Y-36426D01*
X70810Y-34244D02*
X70781Y-34282D01*
X70695Y-34320D01*
X70638Y-34320D01*
X70553Y-34282D01*
X70495Y-34206D01*
X70467Y-34129D01*
X70438Y-33977D01*
X70438Y-33863D01*
X70467Y-33710D01*
X70495Y-33634D01*
X70553Y-33558D01*
X70638Y-33520D01*
X70695Y-33520D01*
X70781Y-33558D01*
X70810Y-33596D01*
X71153Y-34320D02*
X71095Y-34282D01*
X71067Y-34244D01*
X71038Y-34167D01*
X71038Y-33939D01*
X71067Y-33863D01*
X71095Y-33825D01*
X71153Y-33786D01*
X71238Y-33786D01*
X71295Y-33825D01*
X71324Y-33863D01*
X71353Y-33939D01*
X71353Y-34167D01*
X71324Y-34244D01*
X71295Y-34282D01*
X71238Y-34320D01*
X71153Y-34320D01*
X71610Y-33786D02*
X71610Y-34586D01*
X71610Y-33825D02*
X71667Y-33786D01*
X71781Y-33786D01*
X71838Y-33825D01*
X71867Y-33863D01*
X71896Y-33939D01*
X71896Y-34167D01*
X71867Y-34244D01*
X71838Y-34282D01*
X71781Y-34320D01*
X71667Y-34320D01*
X71610Y-34282D01*
X72153Y-33786D02*
X72153Y-34586D01*
X72153Y-33825D02*
X72210Y-33786D01*
X72324Y-33786D01*
X72381Y-33825D01*
X72410Y-33863D01*
X72439Y-33939D01*
X72439Y-34167D01*
X72410Y-34244D01*
X72381Y-34282D01*
X72324Y-34320D01*
X72210Y-34320D01*
X72153Y-34282D01*
X72924Y-34282D02*
X72867Y-34320D01*
X72753Y-34320D01*
X72696Y-34282D01*
X72667Y-34206D01*
X72667Y-33901D01*
X72696Y-33825D01*
X72753Y-33786D01*
X72867Y-33786D01*
X72924Y-33825D01*
X72953Y-33901D01*
X72953Y-33977D01*
X72667Y-34053D01*
X73210Y-34320D02*
X73210Y-33786D01*
X73210Y-33939D02*
X73238Y-33863D01*
X73267Y-33825D01*
X73324Y-33786D01*
X73381Y-33786D01*
X73981Y-33520D02*
X74124Y-34320D01*
X74238Y-33748D01*
X74352Y-34320D01*
X74495Y-33520D01*
X74952Y-34282D02*
X74895Y-34320D01*
X74781Y-34320D01*
X74724Y-34282D01*
X74695Y-34206D01*
X74695Y-33901D01*
X74724Y-33825D01*
X74781Y-33786D01*
X74895Y-33786D01*
X74952Y-33825D01*
X74981Y-33901D01*
X74981Y-33977D01*
X74695Y-34053D01*
X75238Y-34320D02*
X75238Y-33786D01*
X75238Y-33520D02*
X75209Y-33558D01*
X75238Y-33596D01*
X75266Y-33558D01*
X75238Y-33520D01*
X75238Y-33596D01*
X75781Y-33786D02*
X75781Y-34434D01*
X75752Y-34510D01*
X75724Y-34548D01*
X75667Y-34586D01*
X75581Y-34586D01*
X75524Y-34548D01*
X75781Y-34282D02*
X75724Y-34320D01*
X75610Y-34320D01*
X75552Y-34282D01*
X75524Y-34244D01*
X75495Y-34167D01*
X75495Y-33939D01*
X75524Y-33863D01*
X75552Y-33825D01*
X75610Y-33786D01*
X75724Y-33786D01*
X75781Y-33825D01*
X76067Y-34320D02*
X76067Y-33520D01*
X76324Y-34320D02*
X76324Y-33901D01*
X76295Y-33825D01*
X76238Y-33786D01*
X76153Y-33786D01*
X76095Y-33825D01*
X76067Y-33863D01*
X76524Y-33786D02*
X76753Y-33786D01*
X76610Y-33520D02*
X76610Y-34206D01*
X76638Y-34282D01*
X76696Y-34320D01*
X76753Y-34320D01*
X77581Y-34625D02*
X77553Y-34586D01*
X77496Y-34472D01*
X77467Y-34396D01*
X77438Y-34282D01*
X77410Y-34091D01*
X77410Y-33939D01*
X77438Y-33748D01*
X77467Y-33634D01*
X77496Y-33558D01*
X77553Y-33444D01*
X77581Y-33406D01*
X77810Y-34320D02*
X77810Y-33520D01*
X78038Y-33520D01*
X78096Y-33558D01*
X78124Y-33596D01*
X78153Y-33672D01*
X78153Y-33786D01*
X78124Y-33863D01*
X78096Y-33901D01*
X78038Y-33939D01*
X77810Y-33939D01*
X78410Y-34320D02*
X78410Y-33786D01*
X78410Y-33939D02*
X78438Y-33863D01*
X78467Y-33825D01*
X78524Y-33786D01*
X78581Y-33786D01*
X79009Y-34282D02*
X78952Y-34320D01*
X78838Y-34320D01*
X78781Y-34282D01*
X78752Y-34206D01*
X78752Y-33901D01*
X78781Y-33825D01*
X78838Y-33786D01*
X78952Y-33786D01*
X79009Y-33825D01*
X79038Y-33901D01*
X79038Y-33977D01*
X78752Y-34053D01*
X79752Y-34320D02*
X79752Y-33520D01*
X79980Y-33520D01*
X80038Y-33558D01*
X80066Y-33596D01*
X80095Y-33672D01*
X80095Y-33786D01*
X80066Y-33863D01*
X80038Y-33901D01*
X79980Y-33939D01*
X79752Y-33939D01*
X80438Y-34320D02*
X80380Y-34282D01*
X80352Y-34206D01*
X80352Y-33520D01*
X80923Y-34320D02*
X80923Y-33901D01*
X80894Y-33825D01*
X80837Y-33786D01*
X80723Y-33786D01*
X80666Y-33825D01*
X80923Y-34282D02*
X80866Y-34320D01*
X80723Y-34320D01*
X80666Y-34282D01*
X80637Y-34206D01*
X80637Y-34129D01*
X80666Y-34053D01*
X80723Y-34015D01*
X80866Y-34015D01*
X80923Y-33977D01*
X81123Y-33786D02*
X81352Y-33786D01*
X81209Y-33520D02*
X81209Y-34206D01*
X81237Y-34282D01*
X81295Y-34320D01*
X81352Y-34320D01*
X81552Y-34320D02*
X81552Y-33786D01*
X81552Y-33520D02*
X81523Y-33558D01*
X81552Y-33596D01*
X81580Y-33558D01*
X81552Y-33520D01*
X81552Y-33596D01*
X81838Y-33786D02*
X81838Y-34320D01*
X81838Y-33863D02*
X81866Y-33825D01*
X81924Y-33786D01*
X82009Y-33786D01*
X82066Y-33825D01*
X82095Y-33901D01*
X82095Y-34320D01*
X82638Y-33786D02*
X82638Y-34434D01*
X82609Y-34510D01*
X82581Y-34548D01*
X82524Y-34586D01*
X82438Y-34586D01*
X82381Y-34548D01*
X82638Y-34282D02*
X82581Y-34320D01*
X82467Y-34320D01*
X82409Y-34282D01*
X82381Y-34244D01*
X82352Y-34167D01*
X82352Y-33939D01*
X82381Y-33863D01*
X82409Y-33825D01*
X82467Y-33786D01*
X82581Y-33786D01*
X82638Y-33825D01*
X82867Y-34625D02*
X82895Y-34586D01*
X82952Y-34472D01*
X82981Y-34396D01*
X83010Y-34282D01*
X83038Y-34091D01*
X83038Y-33939D01*
X83010Y-33748D01*
X82981Y-33634D01*
X82952Y-33558D01*
X82895Y-33444D01*
X82867Y-33406D01*
X61961Y-34261D02*
X61675Y-34261D01*
X61675Y-33461D01*
X62418Y-34261D02*
X62418Y-33842D01*
X62389Y-33766D01*
X62332Y-33727D01*
X62218Y-33727D01*
X62161Y-33766D01*
X62418Y-34223D02*
X62361Y-34261D01*
X62218Y-34261D01*
X62161Y-34223D01*
X62132Y-34147D01*
X62132Y-34070D01*
X62161Y-33994D01*
X62218Y-33956D01*
X62361Y-33956D01*
X62418Y-33918D01*
X62647Y-33727D02*
X62790Y-34261D01*
X62932Y-33727D02*
X62790Y-34261D01*
X62732Y-34451D01*
X62704Y-34489D01*
X62647Y-34527D01*
X63389Y-34223D02*
X63332Y-34261D01*
X63218Y-34261D01*
X63161Y-34223D01*
X63132Y-34147D01*
X63132Y-33842D01*
X63161Y-33766D01*
X63218Y-33727D01*
X63332Y-33727D01*
X63389Y-33766D01*
X63418Y-33842D01*
X63418Y-33918D01*
X63132Y-33994D01*
X63675Y-34261D02*
X63675Y-33727D01*
X63675Y-33880D02*
X63703Y-33804D01*
X63732Y-33766D01*
X63789Y-33727D01*
X63846Y-33727D01*
X61631Y-30620D02*
X61717Y-30658D01*
X61860Y-30658D01*
X61917Y-30620D01*
X61946Y-30582D01*
X61974Y-30505D01*
X61974Y-30429D01*
X61946Y-30353D01*
X61917Y-30315D01*
X61860Y-30277D01*
X61746Y-30239D01*
X61688Y-30201D01*
X61660Y-30163D01*
X61631Y-30086D01*
X61631Y-30010D01*
X61660Y-29934D01*
X61688Y-29896D01*
X61746Y-29858D01*
X61888Y-29858D01*
X61974Y-29896D01*
X62145Y-30124D02*
X62374Y-30124D01*
X62231Y-29858D02*
X62231Y-30544D01*
X62259Y-30620D01*
X62317Y-30658D01*
X62374Y-30658D01*
X62831Y-30658D02*
X62831Y-30239D01*
X62802Y-30163D01*
X62745Y-30124D01*
X62631Y-30124D01*
X62574Y-30163D01*
X62831Y-30620D02*
X62774Y-30658D01*
X62631Y-30658D01*
X62574Y-30620D01*
X62545Y-30544D01*
X62545Y-30467D01*
X62574Y-30391D01*
X62631Y-30353D01*
X62774Y-30353D01*
X62831Y-30315D01*
X63374Y-30620D02*
X63317Y-30658D01*
X63203Y-30658D01*
X63145Y-30620D01*
X63117Y-30582D01*
X63088Y-30505D01*
X63088Y-30277D01*
X63117Y-30201D01*
X63145Y-30163D01*
X63203Y-30124D01*
X63317Y-30124D01*
X63374Y-30163D01*
X63631Y-30658D02*
X63631Y-29858D01*
X63688Y-30353D02*
X63859Y-30658D01*
X63859Y-30124D02*
X63631Y-30429D01*
X64374Y-30124D02*
X64374Y-30658D01*
X64117Y-30124D02*
X64117Y-30544D01*
X64145Y-30620D01*
X64203Y-30658D01*
X64288Y-30658D01*
X64345Y-30620D01*
X64374Y-30582D01*
X64660Y-30124D02*
X64660Y-30924D01*
X64660Y-30163D02*
X64717Y-30124D01*
X64831Y-30124D01*
X64888Y-30163D01*
X64917Y-30201D01*
X64946Y-30277D01*
X64946Y-30505D01*
X64917Y-30582D01*
X64888Y-30620D01*
X64831Y-30658D01*
X64717Y-30658D01*
X64660Y-30620D01*
X65660Y-30658D02*
X65660Y-30124D01*
X65660Y-29858D02*
X65631Y-29896D01*
X65660Y-29934D01*
X65688Y-29896D01*
X65660Y-29858D01*
X65660Y-29934D01*
X65917Y-30620D02*
X65974Y-30658D01*
X66089Y-30658D01*
X66146Y-30620D01*
X66174Y-30544D01*
X66174Y-30505D01*
X66146Y-30429D01*
X66089Y-30391D01*
X66003Y-30391D01*
X65946Y-30353D01*
X65917Y-30277D01*
X65917Y-30239D01*
X65946Y-30163D01*
X66003Y-30124D01*
X66089Y-30124D01*
X66146Y-30163D01*
X66803Y-30124D02*
X67032Y-30124D01*
X66889Y-29858D02*
X66889Y-30544D01*
X66917Y-30620D01*
X66975Y-30658D01*
X67032Y-30658D01*
X67318Y-30658D02*
X67260Y-30620D01*
X67232Y-30582D01*
X67203Y-30505D01*
X67203Y-30277D01*
X67232Y-30201D01*
X67260Y-30163D01*
X67318Y-30124D01*
X67403Y-30124D01*
X67460Y-30163D01*
X67489Y-30201D01*
X67518Y-30277D01*
X67518Y-30505D01*
X67489Y-30582D01*
X67460Y-30620D01*
X67403Y-30658D01*
X67318Y-30658D01*
X68232Y-30658D02*
X68232Y-29858D01*
X68232Y-30163D02*
X68289Y-30124D01*
X68403Y-30124D01*
X68460Y-30163D01*
X68489Y-30201D01*
X68518Y-30277D01*
X68518Y-30505D01*
X68489Y-30582D01*
X68460Y-30620D01*
X68403Y-30658D01*
X68289Y-30658D01*
X68232Y-30620D01*
X69003Y-30620D02*
X68946Y-30658D01*
X68832Y-30658D01*
X68775Y-30620D01*
X68746Y-30544D01*
X68746Y-30239D01*
X68775Y-30163D01*
X68832Y-30124D01*
X68946Y-30124D01*
X69003Y-30163D01*
X69032Y-30239D01*
X69032Y-30315D01*
X68746Y-30391D01*
X70003Y-30658D02*
X70003Y-30239D01*
X69974Y-30163D01*
X69917Y-30124D01*
X69803Y-30124D01*
X69746Y-30163D01*
X70003Y-30620D02*
X69946Y-30658D01*
X69803Y-30658D01*
X69746Y-30620D01*
X69717Y-30544D01*
X69717Y-30467D01*
X69746Y-30391D01*
X69803Y-30353D01*
X69946Y-30353D01*
X70003Y-30315D01*
X70260Y-30620D02*
X70317Y-30658D01*
X70432Y-30658D01*
X70489Y-30620D01*
X70517Y-30544D01*
X70517Y-30505D01*
X70489Y-30429D01*
X70432Y-30391D01*
X70346Y-30391D01*
X70289Y-30353D01*
X70260Y-30277D01*
X70260Y-30239D01*
X70289Y-30163D01*
X70346Y-30124D01*
X70432Y-30124D01*
X70489Y-30163D01*
X71146Y-30124D02*
X71375Y-30124D01*
X71232Y-30658D02*
X71232Y-29972D01*
X71260Y-29896D01*
X71318Y-29858D01*
X71375Y-29858D01*
X71661Y-30658D02*
X71603Y-30620D01*
X71575Y-30582D01*
X71546Y-30505D01*
X71546Y-30277D01*
X71575Y-30201D01*
X71603Y-30163D01*
X71661Y-30124D01*
X71746Y-30124D01*
X71803Y-30163D01*
X71832Y-30201D01*
X71861Y-30277D01*
X71861Y-30505D01*
X71832Y-30582D01*
X71803Y-30620D01*
X71746Y-30658D01*
X71661Y-30658D01*
X72204Y-30658D02*
X72146Y-30620D01*
X72118Y-30544D01*
X72118Y-29858D01*
X72518Y-30658D02*
X72460Y-30620D01*
X72432Y-30544D01*
X72432Y-29858D01*
X72832Y-30658D02*
X72774Y-30620D01*
X72746Y-30582D01*
X72717Y-30505D01*
X72717Y-30277D01*
X72746Y-30201D01*
X72774Y-30163D01*
X72832Y-30124D01*
X72917Y-30124D01*
X72974Y-30163D01*
X73003Y-30201D01*
X73032Y-30277D01*
X73032Y-30505D01*
X73003Y-30582D01*
X72974Y-30620D01*
X72917Y-30658D01*
X72832Y-30658D01*
X73232Y-30124D02*
X73346Y-30658D01*
X73460Y-30277D01*
X73575Y-30658D01*
X73689Y-30124D01*
X73889Y-30620D02*
X73946Y-30658D01*
X74061Y-30658D01*
X74118Y-30620D01*
X74146Y-30544D01*
X74146Y-30505D01*
X74118Y-30429D01*
X74061Y-30391D01*
X73975Y-30391D01*
X73918Y-30353D01*
X73889Y-30277D01*
X73889Y-30239D01*
X73918Y-30163D01*
X73975Y-30124D01*
X74061Y-30124D01*
X74118Y-30163D01*
X74404Y-30582D02*
X74432Y-30620D01*
X74404Y-30658D01*
X74375Y-30620D01*
X74404Y-30582D01*
X74404Y-30658D01*
X74404Y-30163D02*
X74432Y-30201D01*
X74404Y-30239D01*
X74375Y-30201D01*
X74404Y-30163D01*
X74404Y-30239D01*
X67259Y-13558D02*
X67202Y-13520D01*
X67116Y-13520D01*
X67031Y-13558D01*
X66973Y-13634D01*
X66945Y-13710D01*
X66916Y-13863D01*
X66916Y-13977D01*
X66945Y-14129D01*
X66973Y-14206D01*
X67031Y-14282D01*
X67116Y-14320D01*
X67173Y-14320D01*
X67259Y-14282D01*
X67288Y-14244D01*
X67288Y-13977D01*
X67173Y-13977D01*
X67773Y-14282D02*
X67716Y-14320D01*
X67602Y-14320D01*
X67545Y-14282D01*
X67516Y-14206D01*
X67516Y-13901D01*
X67545Y-13825D01*
X67602Y-13786D01*
X67716Y-13786D01*
X67773Y-13825D01*
X67802Y-13901D01*
X67802Y-13977D01*
X67516Y-14053D01*
X68059Y-13786D02*
X68059Y-14320D01*
X68059Y-13863D02*
X68087Y-13825D01*
X68145Y-13786D01*
X68230Y-13786D01*
X68287Y-13825D01*
X68316Y-13901D01*
X68316Y-14320D01*
X68830Y-14282D02*
X68773Y-14320D01*
X68659Y-14320D01*
X68602Y-14282D01*
X68573Y-14206D01*
X68573Y-13901D01*
X68602Y-13825D01*
X68659Y-13786D01*
X68773Y-13786D01*
X68830Y-13825D01*
X68859Y-13901D01*
X68859Y-13977D01*
X68573Y-14053D01*
X69116Y-14320D02*
X69116Y-13786D01*
X69116Y-13939D02*
X69144Y-13863D01*
X69173Y-13825D01*
X69230Y-13786D01*
X69287Y-13786D01*
X69744Y-14320D02*
X69744Y-13901D01*
X69715Y-13825D01*
X69658Y-13786D01*
X69544Y-13786D01*
X69487Y-13825D01*
X69744Y-14282D02*
X69687Y-14320D01*
X69544Y-14320D01*
X69487Y-14282D01*
X69458Y-14206D01*
X69458Y-14129D01*
X69487Y-14053D01*
X69544Y-14015D01*
X69687Y-14015D01*
X69744Y-13977D01*
X70116Y-14320D02*
X70058Y-14282D01*
X70030Y-14206D01*
X70030Y-13520D01*
X70801Y-14320D02*
X70801Y-13520D01*
X71087Y-13786D02*
X71087Y-14320D01*
X71087Y-13863D02*
X71115Y-13825D01*
X71173Y-13786D01*
X71258Y-13786D01*
X71315Y-13825D01*
X71344Y-13901D01*
X71344Y-14320D01*
X71544Y-13786D02*
X71773Y-13786D01*
X71630Y-14320D02*
X71630Y-13634D01*
X71658Y-13558D01*
X71716Y-13520D01*
X71773Y-13520D01*
X72059Y-14320D02*
X72001Y-14282D01*
X71973Y-14244D01*
X71944Y-14167D01*
X71944Y-13939D01*
X71973Y-13863D01*
X72001Y-13825D01*
X72059Y-13786D01*
X72144Y-13786D01*
X72201Y-13825D01*
X72230Y-13863D01*
X72259Y-13939D01*
X72259Y-14167D01*
X72230Y-14244D01*
X72201Y-14282D01*
X72144Y-14320D01*
X72059Y-14320D01*
X66387Y-15255D02*
X66844Y-15255D01*
X67130Y-15255D02*
X67587Y-15255D01*
X67873Y-15255D02*
X68330Y-15255D01*
X68616Y-15255D02*
X69073Y-15255D01*
X69359Y-15255D02*
X69816Y-15255D01*
X70102Y-15255D02*
X70559Y-15255D01*
X70845Y-15255D02*
X71302Y-15255D01*
X71588Y-15255D02*
X72045Y-15255D01*
X72331Y-15255D02*
X72788Y-15255D01*
X61017Y-17621D02*
X61103Y-17659D01*
X61131Y-17697D01*
X61160Y-17773D01*
X61160Y-17887D01*
X61131Y-17964D01*
X61103Y-18002D01*
X61045Y-18040D01*
X60817Y-18040D01*
X60817Y-17240D01*
X61017Y-17240D01*
X61074Y-17278D01*
X61103Y-17316D01*
X61131Y-17392D01*
X61131Y-17468D01*
X61103Y-17545D01*
X61074Y-17583D01*
X61017Y-17621D01*
X60817Y-17621D01*
X61503Y-18040D02*
X61445Y-18002D01*
X61417Y-17964D01*
X61388Y-17887D01*
X61388Y-17659D01*
X61417Y-17583D01*
X61445Y-17545D01*
X61503Y-17506D01*
X61588Y-17506D01*
X61645Y-17545D01*
X61674Y-17583D01*
X61703Y-17659D01*
X61703Y-17887D01*
X61674Y-17964D01*
X61645Y-18002D01*
X61588Y-18040D01*
X61503Y-18040D01*
X62217Y-18040D02*
X62217Y-17621D01*
X62188Y-17545D01*
X62131Y-17506D01*
X62017Y-17506D01*
X61960Y-17545D01*
X62217Y-18002D02*
X62160Y-18040D01*
X62017Y-18040D01*
X61960Y-18002D01*
X61931Y-17926D01*
X61931Y-17849D01*
X61960Y-17773D01*
X62017Y-17735D01*
X62160Y-17735D01*
X62217Y-17697D01*
X62503Y-18040D02*
X62503Y-17506D01*
X62503Y-17659D02*
X62531Y-17583D01*
X62560Y-17545D01*
X62617Y-17506D01*
X62674Y-17506D01*
X63131Y-18040D02*
X63131Y-17240D01*
X63131Y-18002D02*
X63074Y-18040D01*
X62960Y-18040D01*
X62902Y-18002D01*
X62874Y-17964D01*
X62845Y-17887D01*
X62845Y-17659D01*
X62874Y-17583D01*
X62902Y-17545D01*
X62960Y-17506D01*
X63074Y-17506D01*
X63131Y-17545D01*
X63874Y-18040D02*
X63874Y-17240D01*
X64017Y-17240D01*
X64102Y-17278D01*
X64160Y-17354D01*
X64188Y-17430D01*
X64217Y-17583D01*
X64217Y-17697D01*
X64188Y-17849D01*
X64160Y-17926D01*
X64102Y-18002D01*
X64017Y-18040D01*
X63874Y-18040D01*
X64474Y-18040D02*
X64474Y-17506D01*
X64474Y-17240D02*
X64445Y-17278D01*
X64474Y-17316D01*
X64502Y-17278D01*
X64474Y-17240D01*
X64474Y-17316D01*
X64760Y-18040D02*
X64760Y-17506D01*
X64760Y-17583D02*
X64788Y-17545D01*
X64846Y-17506D01*
X64931Y-17506D01*
X64988Y-17545D01*
X65017Y-17621D01*
X65017Y-18040D01*
X65017Y-17621D02*
X65046Y-17545D01*
X65103Y-17506D01*
X65188Y-17506D01*
X65246Y-17545D01*
X65274Y-17621D01*
X65274Y-18040D01*
X65788Y-18002D02*
X65731Y-18040D01*
X65617Y-18040D01*
X65560Y-18002D01*
X65531Y-17926D01*
X65531Y-17621D01*
X65560Y-17545D01*
X65617Y-17506D01*
X65731Y-17506D01*
X65788Y-17545D01*
X65817Y-17621D01*
X65817Y-17697D01*
X65531Y-17773D01*
X66074Y-17506D02*
X66074Y-18040D01*
X66074Y-17583D02*
X66102Y-17545D01*
X66160Y-17506D01*
X66245Y-17506D01*
X66302Y-17545D01*
X66331Y-17621D01*
X66331Y-18040D01*
X66588Y-18002D02*
X66645Y-18040D01*
X66760Y-18040D01*
X66817Y-18002D01*
X66845Y-17926D01*
X66845Y-17887D01*
X66817Y-17811D01*
X66760Y-17773D01*
X66674Y-17773D01*
X66617Y-17735D01*
X66588Y-17659D01*
X66588Y-17621D01*
X66617Y-17545D01*
X66674Y-17506D01*
X66760Y-17506D01*
X66817Y-17545D01*
X67103Y-18040D02*
X67103Y-17506D01*
X67103Y-17240D02*
X67074Y-17278D01*
X67103Y-17316D01*
X67131Y-17278D01*
X67103Y-17240D01*
X67103Y-17316D01*
X67475Y-18040D02*
X67417Y-18002D01*
X67389Y-17964D01*
X67360Y-17887D01*
X67360Y-17659D01*
X67389Y-17583D01*
X67417Y-17545D01*
X67475Y-17506D01*
X67560Y-17506D01*
X67617Y-17545D01*
X67646Y-17583D01*
X67675Y-17659D01*
X67675Y-17887D01*
X67646Y-17964D01*
X67617Y-18002D01*
X67560Y-18040D01*
X67475Y-18040D01*
X67932Y-17506D02*
X67932Y-18040D01*
X67932Y-17583D02*
X67960Y-17545D01*
X68018Y-17506D01*
X68103Y-17506D01*
X68160Y-17545D01*
X68189Y-17621D01*
X68189Y-18040D01*
X68446Y-18002D02*
X68503Y-18040D01*
X68618Y-18040D01*
X68675Y-18002D01*
X68703Y-17926D01*
X68703Y-17887D01*
X68675Y-17811D01*
X68618Y-17773D01*
X68532Y-17773D01*
X68475Y-17735D01*
X68446Y-17659D01*
X68446Y-17621D01*
X68475Y-17545D01*
X68532Y-17506D01*
X68618Y-17506D01*
X68675Y-17545D01*
X69418Y-17735D02*
X69875Y-17735D01*
X70932Y-18040D02*
X70589Y-18040D01*
X70761Y-18040D02*
X70761Y-17240D01*
X70704Y-17354D01*
X70646Y-17430D01*
X70589Y-17468D01*
X71303Y-17240D02*
X71360Y-17240D01*
X71417Y-17278D01*
X71446Y-17316D01*
X71475Y-17392D01*
X71503Y-17545D01*
X71503Y-17735D01*
X71475Y-17887D01*
X71446Y-17964D01*
X71417Y-18002D01*
X71360Y-18040D01*
X71303Y-18040D01*
X71246Y-18002D01*
X71217Y-17964D01*
X71189Y-17887D01*
X71160Y-17735D01*
X71160Y-17545D01*
X71189Y-17392D01*
X71217Y-17316D01*
X71246Y-17278D01*
X71303Y-17240D01*
X72046Y-17240D02*
X71760Y-17240D01*
X71731Y-17621D01*
X71760Y-17583D01*
X71817Y-17545D01*
X71960Y-17545D01*
X72017Y-17583D01*
X72046Y-17621D01*
X72074Y-17697D01*
X72074Y-17887D01*
X72046Y-17964D01*
X72017Y-18002D01*
X71960Y-18040D01*
X71817Y-18040D01*
X71760Y-18002D01*
X71731Y-17964D01*
X72331Y-18040D02*
X72331Y-17506D01*
X72331Y-17583D02*
X72359Y-17545D01*
X72417Y-17506D01*
X72502Y-17506D01*
X72559Y-17545D01*
X72588Y-17621D01*
X72588Y-18040D01*
X72588Y-17621D02*
X72617Y-17545D01*
X72674Y-17506D01*
X72759Y-17506D01*
X72817Y-17545D01*
X72845Y-17621D01*
X72845Y-18040D01*
X73131Y-18040D02*
X73131Y-17506D01*
X73131Y-17583D02*
X73159Y-17545D01*
X73217Y-17506D01*
X73302Y-17506D01*
X73359Y-17545D01*
X73388Y-17621D01*
X73388Y-18040D01*
X73388Y-17621D02*
X73417Y-17545D01*
X73474Y-17506D01*
X73559Y-17506D01*
X73617Y-17545D01*
X73645Y-17621D01*
X73645Y-18040D01*
X74331Y-18040D02*
X74645Y-17506D01*
X74331Y-17506D02*
X74645Y-18040D01*
X75645Y-18040D02*
X75302Y-18040D01*
X75474Y-18040D02*
X75474Y-17240D01*
X75417Y-17354D01*
X75359Y-17430D01*
X75302Y-17468D01*
X76159Y-17506D02*
X76159Y-18040D01*
X76016Y-17202D02*
X75873Y-17773D01*
X76245Y-17773D01*
X76444Y-17316D02*
X76473Y-17278D01*
X76530Y-17240D01*
X76673Y-17240D01*
X76730Y-17278D01*
X76759Y-17316D01*
X76787Y-17392D01*
X76787Y-17468D01*
X76759Y-17583D01*
X76416Y-18040D01*
X76787Y-18040D01*
X77044Y-18040D02*
X77044Y-17506D01*
X77044Y-17583D02*
X77072Y-17545D01*
X77130Y-17506D01*
X77215Y-17506D01*
X77272Y-17545D01*
X77301Y-17621D01*
X77301Y-18040D01*
X77301Y-17621D02*
X77330Y-17545D01*
X77387Y-17506D01*
X77472Y-17506D01*
X77530Y-17545D01*
X77558Y-17621D01*
X77558Y-18040D01*
X77844Y-18040D02*
X77844Y-17506D01*
X77844Y-17583D02*
X77872Y-17545D01*
X77930Y-17506D01*
X78015Y-17506D01*
X78072Y-17545D01*
X78101Y-17621D01*
X78101Y-18040D01*
X78101Y-17621D02*
X78130Y-17545D01*
X78187Y-17506D01*
X78272Y-17506D01*
X78330Y-17545D01*
X78358Y-17621D01*
X78358Y-18040D01*
X64588Y-19280D02*
X64588Y-18480D01*
X64931Y-19280D01*
X64931Y-18480D01*
X65474Y-18746D02*
X65474Y-19280D01*
X65217Y-18746D02*
X65217Y-19166D01*
X65245Y-19242D01*
X65303Y-19280D01*
X65388Y-19280D01*
X65445Y-19242D01*
X65474Y-19204D01*
X65760Y-19280D02*
X65760Y-18746D01*
X65760Y-18823D02*
X65788Y-18785D01*
X65846Y-18746D01*
X65931Y-18746D01*
X65988Y-18785D01*
X66017Y-18861D01*
X66017Y-19280D01*
X66017Y-18861D02*
X66046Y-18785D01*
X66103Y-18746D01*
X66188Y-18746D01*
X66246Y-18785D01*
X66274Y-18861D01*
X66274Y-19280D01*
X66560Y-19280D02*
X66560Y-18480D01*
X66560Y-18785D02*
X66617Y-18746D01*
X66731Y-18746D01*
X66788Y-18785D01*
X66817Y-18823D01*
X66846Y-18899D01*
X66846Y-19127D01*
X66817Y-19204D01*
X66788Y-19242D01*
X66731Y-19280D01*
X66617Y-19280D01*
X66560Y-19242D01*
X67331Y-19242D02*
X67274Y-19280D01*
X67160Y-19280D01*
X67103Y-19242D01*
X67074Y-19166D01*
X67074Y-18861D01*
X67103Y-18785D01*
X67160Y-18746D01*
X67274Y-18746D01*
X67331Y-18785D01*
X67360Y-18861D01*
X67360Y-18937D01*
X67074Y-19013D01*
X67617Y-19280D02*
X67617Y-18746D01*
X67617Y-18899D02*
X67645Y-18823D01*
X67674Y-18785D01*
X67731Y-18746D01*
X67788Y-18746D01*
X68531Y-19280D02*
X68473Y-19242D01*
X68445Y-19204D01*
X68416Y-19127D01*
X68416Y-18899D01*
X68445Y-18823D01*
X68473Y-18785D01*
X68531Y-18746D01*
X68616Y-18746D01*
X68673Y-18785D01*
X68702Y-18823D01*
X68731Y-18899D01*
X68731Y-19127D01*
X68702Y-19204D01*
X68673Y-19242D01*
X68616Y-19280D01*
X68531Y-19280D01*
X68902Y-18746D02*
X69131Y-18746D01*
X68988Y-19280D02*
X68988Y-18594D01*
X69016Y-18518D01*
X69074Y-18480D01*
X69131Y-18480D01*
X70074Y-19280D02*
X69788Y-19280D01*
X69788Y-18480D01*
X70531Y-19280D02*
X70531Y-18861D01*
X70502Y-18785D01*
X70445Y-18746D01*
X70331Y-18746D01*
X70274Y-18785D01*
X70531Y-19242D02*
X70474Y-19280D01*
X70331Y-19280D01*
X70274Y-19242D01*
X70245Y-19166D01*
X70245Y-19089D01*
X70274Y-19013D01*
X70331Y-18975D01*
X70474Y-18975D01*
X70531Y-18937D01*
X70760Y-18746D02*
X70903Y-19280D01*
X71045Y-18746D02*
X70903Y-19280D01*
X70845Y-19470D01*
X70817Y-19508D01*
X70760Y-19546D01*
X71502Y-19242D02*
X71445Y-19280D01*
X71331Y-19280D01*
X71274Y-19242D01*
X71245Y-19166D01*
X71245Y-18861D01*
X71274Y-18785D01*
X71331Y-18746D01*
X71445Y-18746D01*
X71502Y-18785D01*
X71531Y-18861D01*
X71531Y-18937D01*
X71245Y-19013D01*
X71788Y-19280D02*
X71788Y-18746D01*
X71788Y-18899D02*
X71816Y-18823D01*
X71845Y-18785D01*
X71902Y-18746D01*
X71959Y-18746D01*
X72130Y-19242D02*
X72187Y-19280D01*
X72302Y-19280D01*
X72359Y-19242D01*
X72387Y-19166D01*
X72387Y-19127D01*
X72359Y-19051D01*
X72302Y-19013D01*
X72216Y-19013D01*
X72159Y-18975D01*
X72130Y-18899D01*
X72130Y-18861D01*
X72159Y-18785D01*
X72216Y-18746D01*
X72302Y-18746D01*
X72359Y-18785D01*
X73102Y-18975D02*
X73559Y-18975D01*
X74559Y-18746D02*
X74559Y-19280D01*
X74416Y-18442D02*
X74273Y-19013D01*
X74645Y-19013D01*
X64788Y-20482D02*
X64874Y-20520D01*
X65017Y-20520D01*
X65074Y-20482D01*
X65103Y-20444D01*
X65131Y-20367D01*
X65131Y-20291D01*
X65103Y-20215D01*
X65074Y-20177D01*
X65017Y-20139D01*
X64903Y-20101D01*
X64845Y-20063D01*
X64817Y-20025D01*
X64788Y-19948D01*
X64788Y-19872D01*
X64817Y-19796D01*
X64845Y-19758D01*
X64903Y-19720D01*
X65045Y-19720D01*
X65131Y-19758D01*
X65388Y-20520D02*
X65388Y-19986D01*
X65388Y-20063D02*
X65416Y-20025D01*
X65474Y-19986D01*
X65559Y-19986D01*
X65616Y-20025D01*
X65645Y-20101D01*
X65645Y-20520D01*
X65645Y-20101D02*
X65674Y-20025D01*
X65731Y-19986D01*
X65816Y-19986D01*
X65874Y-20025D01*
X65902Y-20101D01*
X65902Y-20520D01*
X66445Y-20520D02*
X66445Y-20101D01*
X66416Y-20025D01*
X66359Y-19986D01*
X66245Y-19986D01*
X66188Y-20025D01*
X66445Y-20482D02*
X66388Y-20520D01*
X66245Y-20520D01*
X66188Y-20482D01*
X66159Y-20406D01*
X66159Y-20329D01*
X66188Y-20253D01*
X66245Y-20215D01*
X66388Y-20215D01*
X66445Y-20177D01*
X66817Y-20520D02*
X66759Y-20482D01*
X66731Y-20406D01*
X66731Y-19720D01*
X67131Y-20520D02*
X67073Y-20482D01*
X67045Y-20406D01*
X67045Y-19720D01*
X67587Y-20482D02*
X67530Y-20520D01*
X67416Y-20520D01*
X67359Y-20482D01*
X67330Y-20406D01*
X67330Y-20101D01*
X67359Y-20025D01*
X67416Y-19986D01*
X67530Y-19986D01*
X67587Y-20025D01*
X67616Y-20101D01*
X67616Y-20177D01*
X67330Y-20253D01*
X67844Y-20482D02*
X67901Y-20520D01*
X68016Y-20520D01*
X68073Y-20482D01*
X68101Y-20406D01*
X68101Y-20367D01*
X68073Y-20291D01*
X68016Y-20253D01*
X67930Y-20253D01*
X67873Y-20215D01*
X67844Y-20139D01*
X67844Y-20101D01*
X67873Y-20025D01*
X67930Y-19986D01*
X68016Y-19986D01*
X68073Y-20025D01*
X68273Y-19986D02*
X68502Y-19986D01*
X68359Y-19720D02*
X68359Y-20406D01*
X68387Y-20482D01*
X68445Y-20520D01*
X68502Y-20520D01*
X69159Y-20520D02*
X69159Y-19720D01*
X69159Y-20101D02*
X69502Y-20101D01*
X69502Y-20520D02*
X69502Y-19720D01*
X69874Y-20520D02*
X69816Y-20482D01*
X69788Y-20444D01*
X69759Y-20367D01*
X69759Y-20139D01*
X69788Y-20063D01*
X69816Y-20025D01*
X69874Y-19986D01*
X69959Y-19986D01*
X70016Y-20025D01*
X70045Y-20063D01*
X70074Y-20139D01*
X70074Y-20367D01*
X70045Y-20444D01*
X70016Y-20482D01*
X69959Y-20520D01*
X69874Y-20520D01*
X70417Y-20520D02*
X70359Y-20482D01*
X70331Y-20406D01*
X70331Y-19720D01*
X70873Y-20482D02*
X70816Y-20520D01*
X70702Y-20520D01*
X70645Y-20482D01*
X70616Y-20406D01*
X70616Y-20101D01*
X70645Y-20025D01*
X70702Y-19986D01*
X70816Y-19986D01*
X70873Y-20025D01*
X70902Y-20101D01*
X70902Y-20177D01*
X70616Y-20253D01*
X71730Y-19720D02*
X71787Y-19720D01*
X71844Y-19758D01*
X71873Y-19796D01*
X71902Y-19872D01*
X71930Y-20025D01*
X71930Y-20215D01*
X71902Y-20367D01*
X71873Y-20444D01*
X71844Y-20482D01*
X71787Y-20520D01*
X71730Y-20520D01*
X71673Y-20482D01*
X71644Y-20444D01*
X71616Y-20367D01*
X71587Y-20215D01*
X71587Y-20025D01*
X71616Y-19872D01*
X71644Y-19796D01*
X71673Y-19758D01*
X71730Y-19720D01*
X72187Y-20444D02*
X72215Y-20482D01*
X72187Y-20520D01*
X72158Y-20482D01*
X72187Y-20444D01*
X72187Y-20520D01*
X72416Y-19720D02*
X72787Y-19720D01*
X72587Y-20025D01*
X72673Y-20025D01*
X72730Y-20063D01*
X72759Y-20101D01*
X72787Y-20177D01*
X72787Y-20367D01*
X72759Y-20444D01*
X72730Y-20482D01*
X72673Y-20520D01*
X72501Y-20520D01*
X72444Y-20482D01*
X72416Y-20444D01*
X73044Y-20520D02*
X73044Y-19986D01*
X73044Y-20063D02*
X73072Y-20025D01*
X73130Y-19986D01*
X73215Y-19986D01*
X73272Y-20025D01*
X73301Y-20101D01*
X73301Y-20520D01*
X73301Y-20101D02*
X73330Y-20025D01*
X73387Y-19986D01*
X73472Y-19986D01*
X73530Y-20025D01*
X73558Y-20101D01*
X73558Y-20520D01*
X73844Y-20520D02*
X73844Y-19986D01*
X73844Y-20063D02*
X73872Y-20025D01*
X73930Y-19986D01*
X74015Y-19986D01*
X74072Y-20025D01*
X74101Y-20101D01*
X74101Y-20520D01*
X74101Y-20101D02*
X74130Y-20025D01*
X74187Y-19986D01*
X74272Y-19986D01*
X74330Y-20025D01*
X74358Y-20101D01*
X74358Y-20520D01*
X62231Y-21760D02*
X62231Y-20960D01*
X62574Y-21760D01*
X62574Y-20960D01*
X63117Y-21226D02*
X63117Y-21760D01*
X62860Y-21226D02*
X62860Y-21646D01*
X62888Y-21722D01*
X62946Y-21760D01*
X63031Y-21760D01*
X63088Y-21722D01*
X63117Y-21684D01*
X63403Y-21760D02*
X63403Y-21226D01*
X63403Y-21303D02*
X63431Y-21265D01*
X63489Y-21226D01*
X63574Y-21226D01*
X63631Y-21265D01*
X63660Y-21341D01*
X63660Y-21760D01*
X63660Y-21341D02*
X63689Y-21265D01*
X63746Y-21226D01*
X63831Y-21226D01*
X63889Y-21265D01*
X63917Y-21341D01*
X63917Y-21760D01*
X64203Y-21760D02*
X64203Y-20960D01*
X64203Y-21265D02*
X64260Y-21226D01*
X64374Y-21226D01*
X64431Y-21265D01*
X64460Y-21303D01*
X64489Y-21379D01*
X64489Y-21607D01*
X64460Y-21684D01*
X64431Y-21722D01*
X64374Y-21760D01*
X64260Y-21760D01*
X64203Y-21722D01*
X64974Y-21722D02*
X64917Y-21760D01*
X64803Y-21760D01*
X64746Y-21722D01*
X64717Y-21646D01*
X64717Y-21341D01*
X64746Y-21265D01*
X64803Y-21226D01*
X64917Y-21226D01*
X64974Y-21265D01*
X65003Y-21341D01*
X65003Y-21417D01*
X64717Y-21493D01*
X65260Y-21760D02*
X65260Y-21226D01*
X65260Y-21379D02*
X65288Y-21303D01*
X65317Y-21265D01*
X65374Y-21226D01*
X65431Y-21226D01*
X66174Y-21760D02*
X66116Y-21722D01*
X66088Y-21684D01*
X66059Y-21607D01*
X66059Y-21379D01*
X66088Y-21303D01*
X66116Y-21265D01*
X66174Y-21226D01*
X66259Y-21226D01*
X66316Y-21265D01*
X66345Y-21303D01*
X66374Y-21379D01*
X66374Y-21607D01*
X66345Y-21684D01*
X66316Y-21722D01*
X66259Y-21760D01*
X66174Y-21760D01*
X66545Y-21226D02*
X66774Y-21226D01*
X66631Y-21760D02*
X66631Y-21074D01*
X66659Y-20998D01*
X66717Y-20960D01*
X66774Y-20960D01*
X67431Y-21760D02*
X67431Y-20960D01*
X67688Y-21760D02*
X67688Y-21341D01*
X67659Y-21265D01*
X67602Y-21226D01*
X67517Y-21226D01*
X67459Y-21265D01*
X67431Y-21303D01*
X68060Y-21760D02*
X68002Y-21722D01*
X67974Y-21684D01*
X67945Y-21607D01*
X67945Y-21379D01*
X67974Y-21303D01*
X68002Y-21265D01*
X68060Y-21226D01*
X68145Y-21226D01*
X68202Y-21265D01*
X68231Y-21303D01*
X68260Y-21379D01*
X68260Y-21607D01*
X68231Y-21684D01*
X68202Y-21722D01*
X68145Y-21760D01*
X68060Y-21760D01*
X68603Y-21760D02*
X68545Y-21722D01*
X68517Y-21646D01*
X68517Y-20960D01*
X69059Y-21722D02*
X69002Y-21760D01*
X68888Y-21760D01*
X68831Y-21722D01*
X68802Y-21646D01*
X68802Y-21341D01*
X68831Y-21265D01*
X68888Y-21226D01*
X69002Y-21226D01*
X69059Y-21265D01*
X69088Y-21341D01*
X69088Y-21417D01*
X68802Y-21493D01*
X69316Y-21722D02*
X69373Y-21760D01*
X69488Y-21760D01*
X69545Y-21722D01*
X69573Y-21646D01*
X69573Y-21607D01*
X69545Y-21531D01*
X69488Y-21493D01*
X69402Y-21493D01*
X69345Y-21455D01*
X69316Y-21379D01*
X69316Y-21341D01*
X69345Y-21265D01*
X69402Y-21226D01*
X69488Y-21226D01*
X69545Y-21265D01*
X70288Y-21455D02*
X70745Y-21455D01*
X71459Y-21531D02*
X71745Y-21531D01*
X71402Y-21760D02*
X71602Y-20960D01*
X71802Y-21760D01*
X72002Y-21226D02*
X72002Y-22026D01*
X72002Y-21265D02*
X72059Y-21226D01*
X72173Y-21226D01*
X72230Y-21265D01*
X72259Y-21303D01*
X72288Y-21379D01*
X72288Y-21607D01*
X72259Y-21684D01*
X72230Y-21722D01*
X72173Y-21760D01*
X72059Y-21760D01*
X72002Y-21722D01*
X72545Y-21226D02*
X72545Y-22026D01*
X72545Y-21265D02*
X72602Y-21226D01*
X72716Y-21226D01*
X72773Y-21265D01*
X72802Y-21303D01*
X72831Y-21379D01*
X72831Y-21607D01*
X72802Y-21684D01*
X72773Y-21722D01*
X72716Y-21760D01*
X72602Y-21760D01*
X72545Y-21722D01*
X73088Y-21760D02*
X73088Y-21226D01*
X73088Y-21379D02*
X73116Y-21303D01*
X73145Y-21265D01*
X73202Y-21226D01*
X73259Y-21226D01*
X73545Y-21760D02*
X73487Y-21722D01*
X73459Y-21684D01*
X73430Y-21607D01*
X73430Y-21379D01*
X73459Y-21303D01*
X73487Y-21265D01*
X73545Y-21226D01*
X73630Y-21226D01*
X73687Y-21265D01*
X73716Y-21303D01*
X73745Y-21379D01*
X73745Y-21607D01*
X73716Y-21684D01*
X73687Y-21722D01*
X73630Y-21760D01*
X73545Y-21760D01*
X73945Y-21760D02*
X74259Y-21226D01*
X73945Y-21226D02*
X74259Y-21760D01*
X75259Y-21760D02*
X74916Y-21760D01*
X75088Y-21760D02*
X75088Y-20960D01*
X75031Y-21074D01*
X74973Y-21150D01*
X74916Y-21188D01*
X75630Y-20960D02*
X75687Y-20960D01*
X75744Y-20998D01*
X75773Y-21036D01*
X75802Y-21112D01*
X75830Y-21265D01*
X75830Y-21455D01*
X75802Y-21607D01*
X75773Y-21684D01*
X75744Y-21722D01*
X75687Y-21760D01*
X75630Y-21760D01*
X75573Y-21722D01*
X75544Y-21684D01*
X75516Y-21607D01*
X75487Y-21455D01*
X75487Y-21265D01*
X75516Y-21112D01*
X75544Y-21036D01*
X75573Y-20998D01*
X75630Y-20960D01*
X76373Y-20960D02*
X76087Y-20960D01*
X76058Y-21341D01*
X76087Y-21303D01*
X76144Y-21265D01*
X76287Y-21265D01*
X76344Y-21303D01*
X76373Y-21341D01*
X76401Y-21417D01*
X76401Y-21607D01*
X76373Y-21684D01*
X76344Y-21722D01*
X76287Y-21760D01*
X76144Y-21760D01*
X76087Y-21722D01*
X76058Y-21684D01*
X76772Y-20960D02*
X76829Y-20960D01*
X76886Y-20998D01*
X76915Y-21036D01*
X76944Y-21112D01*
X76972Y-21265D01*
X76972Y-21455D01*
X76944Y-21607D01*
X76915Y-21684D01*
X76886Y-21722D01*
X76829Y-21760D01*
X76772Y-21760D01*
X76715Y-21722D01*
X76686Y-21684D01*
X76658Y-21607D01*
X76629Y-21455D01*
X76629Y-21265D01*
X76658Y-21112D01*
X76686Y-21036D01*
X76715Y-20998D01*
X76772Y-20960D01*
X61602Y-23000D02*
X61602Y-22200D01*
X61802Y-22771D01*
X62002Y-22200D01*
X62002Y-23000D01*
X62288Y-23000D02*
X62288Y-22466D01*
X62288Y-22200D02*
X62259Y-22238D01*
X62288Y-22276D01*
X62316Y-22238D01*
X62288Y-22200D01*
X62288Y-22276D01*
X62574Y-22466D02*
X62574Y-23000D01*
X62574Y-22543D02*
X62602Y-22505D01*
X62660Y-22466D01*
X62745Y-22466D01*
X62802Y-22505D01*
X62831Y-22581D01*
X62831Y-23000D01*
X63117Y-23000D02*
X63117Y-22466D01*
X63117Y-22200D02*
X63088Y-22238D01*
X63117Y-22276D01*
X63145Y-22238D01*
X63117Y-22200D01*
X63117Y-22276D01*
X63403Y-23000D02*
X63403Y-22466D01*
X63403Y-22543D02*
X63431Y-22505D01*
X63489Y-22466D01*
X63574Y-22466D01*
X63631Y-22505D01*
X63660Y-22581D01*
X63660Y-23000D01*
X63660Y-22581D02*
X63689Y-22505D01*
X63746Y-22466D01*
X63831Y-22466D01*
X63889Y-22505D01*
X63917Y-22581D01*
X63917Y-23000D01*
X64460Y-22466D02*
X64460Y-23000D01*
X64203Y-22466D02*
X64203Y-22886D01*
X64231Y-22962D01*
X64289Y-23000D01*
X64374Y-23000D01*
X64431Y-22962D01*
X64460Y-22924D01*
X64746Y-23000D02*
X64746Y-22466D01*
X64746Y-22543D02*
X64774Y-22505D01*
X64832Y-22466D01*
X64917Y-22466D01*
X64974Y-22505D01*
X65003Y-22581D01*
X65003Y-23000D01*
X65003Y-22581D02*
X65032Y-22505D01*
X65089Y-22466D01*
X65174Y-22466D01*
X65232Y-22505D01*
X65260Y-22581D01*
X65260Y-23000D01*
X65917Y-22200D02*
X66260Y-22200D01*
X66089Y-23000D02*
X66089Y-22200D01*
X66460Y-23000D02*
X66460Y-22466D01*
X66460Y-22619D02*
X66488Y-22543D01*
X66517Y-22505D01*
X66574Y-22466D01*
X66631Y-22466D01*
X67088Y-23000D02*
X67088Y-22581D01*
X67059Y-22505D01*
X67002Y-22466D01*
X66888Y-22466D01*
X66831Y-22505D01*
X67088Y-22962D02*
X67031Y-23000D01*
X66888Y-23000D01*
X66831Y-22962D01*
X66802Y-22886D01*
X66802Y-22809D01*
X66831Y-22733D01*
X66888Y-22695D01*
X67031Y-22695D01*
X67088Y-22657D01*
X67631Y-22962D02*
X67574Y-23000D01*
X67460Y-23000D01*
X67402Y-22962D01*
X67374Y-22924D01*
X67345Y-22847D01*
X67345Y-22619D01*
X67374Y-22543D01*
X67402Y-22505D01*
X67460Y-22466D01*
X67574Y-22466D01*
X67631Y-22505D01*
X67888Y-23000D02*
X67888Y-22200D01*
X67945Y-22695D02*
X68116Y-23000D01*
X68116Y-22466D02*
X67888Y-22771D01*
X69088Y-23000D02*
X69088Y-22581D01*
X69059Y-22505D01*
X69002Y-22466D01*
X68888Y-22466D01*
X68831Y-22505D01*
X69088Y-22962D02*
X69031Y-23000D01*
X68888Y-23000D01*
X68831Y-22962D01*
X68802Y-22886D01*
X68802Y-22809D01*
X68831Y-22733D01*
X68888Y-22695D01*
X69031Y-22695D01*
X69088Y-22657D01*
X69374Y-22466D02*
X69374Y-23000D01*
X69374Y-22543D02*
X69402Y-22505D01*
X69460Y-22466D01*
X69545Y-22466D01*
X69602Y-22505D01*
X69631Y-22581D01*
X69631Y-23000D01*
X70174Y-23000D02*
X70174Y-22200D01*
X70174Y-22962D02*
X70117Y-23000D01*
X70003Y-23000D01*
X69945Y-22962D01*
X69917Y-22924D01*
X69888Y-22847D01*
X69888Y-22619D01*
X69917Y-22543D01*
X69945Y-22505D01*
X70003Y-22466D01*
X70117Y-22466D01*
X70174Y-22505D01*
X71231Y-22238D02*
X71174Y-22200D01*
X71088Y-22200D01*
X71003Y-22238D01*
X70945Y-22314D01*
X70917Y-22390D01*
X70888Y-22543D01*
X70888Y-22657D01*
X70917Y-22809D01*
X70945Y-22886D01*
X71003Y-22962D01*
X71088Y-23000D01*
X71145Y-23000D01*
X71231Y-22962D01*
X71260Y-22924D01*
X71260Y-22657D01*
X71145Y-22657D01*
X71774Y-23000D02*
X71774Y-22581D01*
X71745Y-22505D01*
X71688Y-22466D01*
X71574Y-22466D01*
X71517Y-22505D01*
X71774Y-22962D02*
X71717Y-23000D01*
X71574Y-23000D01*
X71517Y-22962D01*
X71488Y-22886D01*
X71488Y-22809D01*
X71517Y-22733D01*
X71574Y-22695D01*
X71717Y-22695D01*
X71774Y-22657D01*
X72060Y-22466D02*
X72060Y-23266D01*
X72060Y-22505D02*
X72117Y-22466D01*
X72231Y-22466D01*
X72288Y-22505D01*
X72317Y-22543D01*
X72346Y-22619D01*
X72346Y-22847D01*
X72317Y-22924D01*
X72288Y-22962D01*
X72231Y-23000D01*
X72117Y-23000D01*
X72060Y-22962D01*
X73060Y-22695D02*
X73517Y-22695D01*
X74374Y-22200D02*
X74431Y-22200D01*
X74488Y-22238D01*
X74517Y-22276D01*
X74546Y-22352D01*
X74574Y-22505D01*
X74574Y-22695D01*
X74546Y-22847D01*
X74517Y-22924D01*
X74488Y-22962D01*
X74431Y-23000D01*
X74374Y-23000D01*
X74317Y-22962D01*
X74288Y-22924D01*
X74260Y-22847D01*
X74231Y-22695D01*
X74231Y-22505D01*
X74260Y-22352D01*
X74288Y-22276D01*
X74317Y-22238D01*
X74374Y-22200D01*
X74831Y-22924D02*
X74859Y-22962D01*
X74831Y-23000D01*
X74802Y-22962D01*
X74831Y-22924D01*
X74831Y-23000D01*
X75431Y-23000D02*
X75088Y-23000D01*
X75260Y-23000D02*
X75260Y-22200D01*
X75203Y-22314D01*
X75145Y-22390D01*
X75088Y-22428D01*
X75974Y-22200D02*
X75688Y-22200D01*
X75659Y-22581D01*
X75688Y-22543D01*
X75745Y-22505D01*
X75888Y-22505D01*
X75945Y-22543D01*
X75974Y-22581D01*
X76002Y-22657D01*
X76002Y-22847D01*
X75974Y-22924D01*
X75945Y-22962D01*
X75888Y-23000D01*
X75745Y-23000D01*
X75688Y-22962D01*
X75659Y-22924D01*
X76259Y-23000D02*
X76259Y-22466D01*
X76259Y-22543D02*
X76287Y-22505D01*
X76345Y-22466D01*
X76430Y-22466D01*
X76487Y-22505D01*
X76516Y-22581D01*
X76516Y-23000D01*
X76516Y-22581D02*
X76545Y-22505D01*
X76602Y-22466D01*
X76687Y-22466D01*
X76745Y-22505D01*
X76773Y-22581D01*
X76773Y-23000D01*
X77059Y-23000D02*
X77059Y-22466D01*
X77059Y-22543D02*
X77087Y-22505D01*
X77145Y-22466D01*
X77230Y-22466D01*
X77287Y-22505D01*
X77316Y-22581D01*
X77316Y-23000D01*
X77316Y-22581D02*
X77345Y-22505D01*
X77402Y-22466D01*
X77487Y-22466D01*
X77545Y-22505D01*
X77573Y-22581D01*
X77573Y-23000D01*
X64273Y-24240D02*
X64273Y-23440D01*
X64616Y-24240D02*
X64359Y-23783D01*
X64616Y-23440D02*
X64273Y-23897D01*
X64873Y-23706D02*
X64873Y-24240D01*
X64873Y-23783D02*
X64901Y-23745D01*
X64959Y-23706D01*
X65044Y-23706D01*
X65101Y-23745D01*
X65130Y-23821D01*
X65130Y-24240D01*
X65502Y-24240D02*
X65444Y-24202D01*
X65416Y-24164D01*
X65387Y-24087D01*
X65387Y-23859D01*
X65416Y-23783D01*
X65444Y-23745D01*
X65502Y-23706D01*
X65587Y-23706D01*
X65644Y-23745D01*
X65673Y-23783D01*
X65702Y-23859D01*
X65702Y-24087D01*
X65673Y-24164D01*
X65644Y-24202D01*
X65587Y-24240D01*
X65502Y-24240D01*
X65902Y-23706D02*
X66016Y-24240D01*
X66130Y-23859D01*
X66245Y-24240D01*
X66359Y-23706D01*
X66588Y-23706D02*
X66588Y-24240D01*
X66588Y-23783D02*
X66616Y-23745D01*
X66674Y-23706D01*
X66759Y-23706D01*
X66816Y-23745D01*
X66845Y-23821D01*
X66845Y-24240D01*
X67902Y-23478D02*
X67845Y-23440D01*
X67759Y-23440D01*
X67674Y-23478D01*
X67616Y-23554D01*
X67588Y-23630D01*
X67559Y-23783D01*
X67559Y-23897D01*
X67588Y-24049D01*
X67616Y-24126D01*
X67674Y-24202D01*
X67759Y-24240D01*
X67816Y-24240D01*
X67902Y-24202D01*
X67931Y-24164D01*
X67931Y-23897D01*
X67816Y-23897D01*
X68274Y-24240D02*
X68216Y-24202D01*
X68188Y-24164D01*
X68159Y-24087D01*
X68159Y-23859D01*
X68188Y-23783D01*
X68216Y-23745D01*
X68274Y-23706D01*
X68359Y-23706D01*
X68416Y-23745D01*
X68445Y-23783D01*
X68474Y-23859D01*
X68474Y-24087D01*
X68445Y-24164D01*
X68416Y-24202D01*
X68359Y-24240D01*
X68274Y-24240D01*
X68817Y-24240D02*
X68759Y-24202D01*
X68731Y-24164D01*
X68702Y-24087D01*
X68702Y-23859D01*
X68731Y-23783D01*
X68759Y-23745D01*
X68817Y-23706D01*
X68902Y-23706D01*
X68959Y-23745D01*
X68988Y-23783D01*
X69017Y-23859D01*
X69017Y-24087D01*
X68988Y-24164D01*
X68959Y-24202D01*
X68902Y-24240D01*
X68817Y-24240D01*
X69531Y-24240D02*
X69531Y-23440D01*
X69531Y-24202D02*
X69474Y-24240D01*
X69360Y-24240D01*
X69302Y-24202D01*
X69274Y-24164D01*
X69245Y-24087D01*
X69245Y-23859D01*
X69274Y-23783D01*
X69302Y-23745D01*
X69360Y-23706D01*
X69474Y-23706D01*
X69531Y-23745D01*
X70274Y-23821D02*
X70474Y-23821D01*
X70560Y-24240D02*
X70274Y-24240D01*
X70274Y-23440D01*
X70560Y-23440D01*
X70817Y-24240D02*
X70817Y-23706D01*
X70817Y-23859D02*
X70845Y-23783D01*
X70874Y-23745D01*
X70931Y-23706D01*
X70988Y-23706D01*
X71188Y-24240D02*
X71188Y-23706D01*
X71188Y-23859D02*
X71216Y-23783D01*
X71245Y-23745D01*
X71302Y-23706D01*
X71359Y-23706D01*
X71645Y-24240D02*
X71587Y-24202D01*
X71559Y-24164D01*
X71530Y-24087D01*
X71530Y-23859D01*
X71559Y-23783D01*
X71587Y-23745D01*
X71645Y-23706D01*
X71730Y-23706D01*
X71787Y-23745D01*
X71816Y-23783D01*
X71845Y-23859D01*
X71845Y-24087D01*
X71816Y-24164D01*
X71787Y-24202D01*
X71730Y-24240D01*
X71645Y-24240D01*
X72102Y-24240D02*
X72102Y-23706D01*
X72102Y-23859D02*
X72130Y-23783D01*
X72159Y-23745D01*
X72216Y-23706D01*
X72273Y-23706D01*
X72444Y-24202D02*
X72501Y-24240D01*
X72616Y-24240D01*
X72673Y-24202D01*
X72701Y-24126D01*
X72701Y-24087D01*
X72673Y-24011D01*
X72616Y-23973D01*
X72530Y-23973D01*
X72473Y-23935D01*
X72444Y-23859D01*
X72444Y-23821D01*
X72473Y-23745D01*
X72530Y-23706D01*
X72616Y-23706D01*
X72673Y-23745D01*
X73416Y-23935D02*
X73873Y-23935D01*
X74730Y-23440D02*
X74787Y-23440D01*
X74844Y-23478D01*
X74873Y-23516D01*
X74902Y-23592D01*
X74930Y-23745D01*
X74930Y-23935D01*
X74902Y-24087D01*
X74873Y-24164D01*
X74844Y-24202D01*
X74787Y-24240D01*
X74730Y-24240D01*
X74673Y-24202D01*
X74644Y-24164D01*
X74616Y-24087D01*
X74587Y-23935D01*
X74587Y-23745D01*
X74616Y-23592D01*
X74644Y-23516D01*
X74673Y-23478D01*
X74730Y-23440D01*
X67930Y-26682D02*
X68016Y-26720D01*
X68159Y-26720D01*
X68216Y-26682D01*
X68245Y-26644D01*
X68273Y-26567D01*
X68273Y-26491D01*
X68245Y-26415D01*
X68216Y-26377D01*
X68159Y-26339D01*
X68045Y-26301D01*
X67987Y-26263D01*
X67959Y-26225D01*
X67930Y-26148D01*
X67930Y-26072D01*
X67959Y-25996D01*
X67987Y-25958D01*
X68045Y-25920D01*
X68187Y-25920D01*
X68273Y-25958D01*
X68444Y-26186D02*
X68673Y-26186D01*
X68530Y-25920D02*
X68530Y-26606D01*
X68558Y-26682D01*
X68616Y-26720D01*
X68673Y-26720D01*
X69130Y-26720D02*
X69130Y-26301D01*
X69101Y-26225D01*
X69044Y-26186D01*
X68930Y-26186D01*
X68873Y-26225D01*
X69130Y-26682D02*
X69073Y-26720D01*
X68930Y-26720D01*
X68873Y-26682D01*
X68844Y-26606D01*
X68844Y-26529D01*
X68873Y-26453D01*
X68930Y-26415D01*
X69073Y-26415D01*
X69130Y-26377D01*
X69673Y-26682D02*
X69616Y-26720D01*
X69502Y-26720D01*
X69444Y-26682D01*
X69416Y-26644D01*
X69387Y-26567D01*
X69387Y-26339D01*
X69416Y-26263D01*
X69444Y-26225D01*
X69502Y-26186D01*
X69616Y-26186D01*
X69673Y-26225D01*
X69930Y-26720D02*
X69930Y-25920D01*
X69987Y-26415D02*
X70158Y-26720D01*
X70158Y-26186D02*
X69930Y-26491D01*
X70673Y-26186D02*
X70673Y-26720D01*
X70416Y-26186D02*
X70416Y-26606D01*
X70444Y-26682D01*
X70502Y-26720D01*
X70587Y-26720D01*
X70644Y-26682D01*
X70673Y-26644D01*
X70959Y-26186D02*
X70959Y-26986D01*
X70959Y-26225D02*
X71016Y-26186D01*
X71130Y-26186D01*
X71187Y-26225D01*
X71216Y-26263D01*
X71245Y-26339D01*
X71245Y-26567D01*
X71216Y-26644D01*
X71187Y-26682D01*
X71130Y-26720D01*
X71016Y-26720D01*
X70959Y-26682D01*
X67501Y-27655D02*
X67958Y-27655D01*
X68244Y-27655D02*
X68701Y-27655D01*
X68987Y-27655D02*
X69444Y-27655D01*
X69730Y-27655D02*
X70187Y-27655D01*
X70473Y-27655D02*
X70930Y-27655D01*
X71216Y-27655D02*
X71673Y-27655D01*
X63003Y-10580D02*
X63003Y-09780D01*
X63231Y-09780D01*
X63289Y-09818D01*
X63317Y-09856D01*
X63346Y-09932D01*
X63346Y-10046D01*
X63317Y-10123D01*
X63289Y-10161D01*
X63231Y-10199D01*
X63003Y-10199D01*
X63946Y-10504D02*
X63917Y-10542D01*
X63831Y-10580D01*
X63774Y-10580D01*
X63689Y-10542D01*
X63631Y-10466D01*
X63603Y-10389D01*
X63574Y-10237D01*
X63574Y-10123D01*
X63603Y-09970D01*
X63631Y-09894D01*
X63689Y-09818D01*
X63774Y-09780D01*
X63831Y-09780D01*
X63917Y-09818D01*
X63946Y-09856D01*
X64403Y-10161D02*
X64489Y-10199D01*
X64517Y-10237D01*
X64546Y-10313D01*
X64546Y-10427D01*
X64517Y-10504D01*
X64489Y-10542D01*
X64431Y-10580D01*
X64203Y-10580D01*
X64203Y-09780D01*
X64403Y-09780D01*
X64460Y-09818D01*
X64489Y-09856D01*
X64517Y-09932D01*
X64517Y-10008D01*
X64489Y-10085D01*
X64460Y-10123D01*
X64403Y-10161D01*
X64203Y-10161D01*
X65260Y-10580D02*
X65260Y-09780D01*
X65460Y-10351D01*
X65660Y-09780D01*
X65660Y-10580D01*
X66203Y-10580D02*
X66203Y-10161D01*
X66174Y-10085D01*
X66117Y-10046D01*
X66003Y-10046D01*
X65946Y-10085D01*
X66203Y-10542D02*
X66146Y-10580D01*
X66003Y-10580D01*
X65946Y-10542D01*
X65917Y-10466D01*
X65917Y-10389D01*
X65946Y-10313D01*
X66003Y-10275D01*
X66146Y-10275D01*
X66203Y-10237D01*
X66489Y-10046D02*
X66489Y-10580D01*
X66489Y-10123D02*
X66517Y-10085D01*
X66575Y-10046D01*
X66660Y-10046D01*
X66717Y-10085D01*
X66746Y-10161D01*
X66746Y-10580D01*
X67289Y-10046D02*
X67289Y-10580D01*
X67032Y-10046D02*
X67032Y-10466D01*
X67060Y-10542D01*
X67118Y-10580D01*
X67203Y-10580D01*
X67260Y-10542D01*
X67289Y-10504D01*
X67489Y-10046D02*
X67718Y-10046D01*
X67575Y-10580D02*
X67575Y-09894D01*
X67603Y-09818D01*
X67661Y-09780D01*
X67718Y-09780D01*
X68175Y-10580D02*
X68175Y-10161D01*
X68146Y-10085D01*
X68089Y-10046D01*
X67975Y-10046D01*
X67918Y-10085D01*
X68175Y-10542D02*
X68118Y-10580D01*
X67975Y-10580D01*
X67918Y-10542D01*
X67889Y-10466D01*
X67889Y-10389D01*
X67918Y-10313D01*
X67975Y-10275D01*
X68118Y-10275D01*
X68175Y-10237D01*
X68718Y-10542D02*
X68661Y-10580D01*
X68547Y-10580D01*
X68489Y-10542D01*
X68461Y-10504D01*
X68432Y-10427D01*
X68432Y-10199D01*
X68461Y-10123D01*
X68489Y-10085D01*
X68547Y-10046D01*
X68661Y-10046D01*
X68718Y-10085D01*
X68889Y-10046D02*
X69118Y-10046D01*
X68975Y-09780D02*
X68975Y-10466D01*
X69003Y-10542D01*
X69061Y-10580D01*
X69118Y-10580D01*
X69575Y-10046D02*
X69575Y-10580D01*
X69318Y-10046D02*
X69318Y-10466D01*
X69346Y-10542D01*
X69404Y-10580D01*
X69489Y-10580D01*
X69546Y-10542D01*
X69575Y-10504D01*
X69861Y-10580D02*
X69861Y-10046D01*
X69861Y-10199D02*
X69889Y-10123D01*
X69918Y-10085D01*
X69975Y-10046D01*
X70032Y-10046D01*
X70232Y-10580D02*
X70232Y-10046D01*
X70232Y-09780D02*
X70203Y-09818D01*
X70232Y-09856D01*
X70260Y-09818D01*
X70232Y-09780D01*
X70232Y-09856D01*
X70518Y-10046D02*
X70518Y-10580D01*
X70518Y-10123D02*
X70546Y-10085D01*
X70604Y-10046D01*
X70689Y-10046D01*
X70746Y-10085D01*
X70775Y-10161D01*
X70775Y-10580D01*
X71318Y-10046D02*
X71318Y-10694D01*
X71289Y-10770D01*
X71261Y-10808D01*
X71204Y-10846D01*
X71118Y-10846D01*
X71061Y-10808D01*
X71318Y-10542D02*
X71261Y-10580D01*
X71147Y-10580D01*
X71089Y-10542D01*
X71061Y-10504D01*
X71032Y-10427D01*
X71032Y-10199D01*
X71061Y-10123D01*
X71089Y-10085D01*
X71147Y-10046D01*
X71261Y-10046D01*
X71318Y-10085D01*
X72061Y-10580D02*
X72061Y-09780D01*
X72347Y-10046D02*
X72347Y-10580D01*
X72347Y-10123D02*
X72375Y-10085D01*
X72433Y-10046D01*
X72518Y-10046D01*
X72575Y-10085D01*
X72604Y-10161D01*
X72604Y-10580D01*
X72804Y-10046D02*
X73033Y-10046D01*
X72890Y-10580D02*
X72890Y-09894D01*
X72918Y-09818D01*
X72976Y-09780D01*
X73033Y-09780D01*
X73319Y-10580D02*
X73261Y-10542D01*
X73233Y-10504D01*
X73204Y-10427D01*
X73204Y-10199D01*
X73233Y-10123D01*
X73261Y-10085D01*
X73319Y-10046D01*
X73404Y-10046D01*
X73461Y-10085D01*
X73490Y-10123D01*
X73519Y-10199D01*
X73519Y-10427D01*
X73490Y-10504D01*
X73461Y-10542D01*
X73404Y-10580D01*
X73319Y-10580D01*
X73776Y-10580D02*
X73776Y-10046D01*
X73776Y-10199D02*
X73804Y-10123D01*
X73833Y-10085D01*
X73890Y-10046D01*
X73947Y-10046D01*
X74147Y-10580D02*
X74147Y-10046D01*
X74147Y-10123D02*
X74175Y-10085D01*
X74233Y-10046D01*
X74318Y-10046D01*
X74375Y-10085D01*
X74404Y-10161D01*
X74404Y-10580D01*
X74404Y-10161D02*
X74433Y-10085D01*
X74490Y-10046D01*
X74575Y-10046D01*
X74633Y-10085D01*
X74661Y-10161D01*
X74661Y-10580D01*
X75204Y-10580D02*
X75204Y-10161D01*
X75175Y-10085D01*
X75118Y-10046D01*
X75004Y-10046D01*
X74947Y-10085D01*
X75204Y-10542D02*
X75147Y-10580D01*
X75004Y-10580D01*
X74947Y-10542D01*
X74918Y-10466D01*
X74918Y-10389D01*
X74947Y-10313D01*
X75004Y-10275D01*
X75147Y-10275D01*
X75204Y-10237D01*
X75404Y-10046D02*
X75633Y-10046D01*
X75490Y-09780D02*
X75490Y-10466D01*
X75518Y-10542D01*
X75576Y-10580D01*
X75633Y-10580D01*
X75833Y-10580D02*
X75833Y-10046D01*
X75833Y-09780D02*
X75804Y-09818D01*
X75833Y-09856D01*
X75861Y-09818D01*
X75833Y-09780D01*
X75833Y-09856D01*
X76205Y-10580D02*
X76147Y-10542D01*
X76119Y-10504D01*
X76090Y-10427D01*
X76090Y-10199D01*
X76119Y-10123D01*
X76147Y-10085D01*
X76205Y-10046D01*
X76290Y-10046D01*
X76347Y-10085D01*
X76376Y-10123D01*
X76405Y-10199D01*
X76405Y-10427D01*
X76376Y-10504D01*
X76347Y-10542D01*
X76290Y-10580D01*
X76205Y-10580D01*
X76662Y-10046D02*
X76662Y-10580D01*
X76662Y-10123D02*
X76690Y-10085D01*
X76748Y-10046D01*
X76833Y-10046D01*
X76890Y-10085D01*
X76919Y-10161D01*
X76919Y-10580D01*
X62674Y-11515D02*
X63131Y-11515D01*
X63417Y-11515D02*
X63874Y-11515D01*
X64160Y-11515D02*
X64617Y-11515D01*
X64903Y-11515D02*
X65360Y-11515D01*
X65646Y-11515D02*
X66103Y-11515D01*
X66389Y-11515D02*
X66846Y-11515D01*
X67132Y-11515D02*
X67589Y-11515D01*
X67875Y-11515D02*
X68332Y-11515D01*
X68618Y-11515D02*
X69075Y-11515D01*
X69361Y-11515D02*
X69818Y-11515D01*
X70104Y-11515D02*
X70561Y-11515D01*
X70847Y-11515D02*
X71304Y-11515D01*
X71590Y-11515D02*
X72047Y-11515D01*
X72333Y-11515D02*
X72790Y-11515D01*
X73076Y-11515D02*
X73533Y-11515D01*
X73819Y-11515D02*
X74276Y-11515D01*
X74562Y-11515D02*
X75019Y-11515D01*
X75305Y-11515D02*
X75762Y-11515D01*
X76048Y-11515D02*
X76505Y-11515D01*
X76791Y-11515D02*
X77248Y-11515D01*
G54D12*
X56358Y-09882D02*
X56358Y-11083D01*
X15236Y-09882D02*
X15236Y-11063D01*
X56358Y-65335D02*
X15236Y-65335D01*
X15236Y-09882D02*
X56358Y-09882D01*
X56358Y-65335D02*
X56358Y-11102D01*
X15236Y-18661D02*
X15236Y-11102D01*
X15236Y-65315D02*
X15236Y-65335D01*
X15236Y-18681D02*
X15236Y-65315D01*
M02*
