*
*
G04 PADS Layout (Build Number 2008.43.1) generated Gerber (RS-274-X) file*
G04 PC Version=2.1*
*
%IN "XPCB-018.pcb"*%
*
%MOMM*%
*
%FSLAX35Y35*%
*
*
*
*
G04 PC Standard Apertures*
*
*
G04 Thermal Relief Aperture macro.*
%AMTER*
1,1,$1,0,0*
1,0,$1-$2,0,0*
21,0,$3,$4,0,0,45*
21,0,$3,$4,0,0,135*
%
*
*
G04 Annular Aperture macro.*
%AMANN*
1,1,$1,0,0*
1,0,$2,0,0*
%
*
*
G04 Odd Aperture macro.*
%AMODD*
1,1,$1,0,0*
1,0,$1-0.005,0,0*
%
*
*
G04 PC Custom Aperture Macros*
*
*
*
*
*
*
G04 PC Aperture Table*
*
%ADD011C,0.01*%
%ADD012C,0.0254*%
%ADD016C,0.254*%
%ADD017C,0.3*%
%ADD020R,0.6X0.6*%
%ADD021R,0.65X0.65*%
%ADD022R,0.9X0.9*%
%ADD028R,1X1*%
%ADD029R,0.55X0.55*%
%ADD030C,0.6*%
%ADD031R,1.6X1.6*%
%ADD034R,0.3X0.3*%
%ADD035R,0.4X0.4*%
%ADD036R,0.7X0.7*%
%ADD037R,0.45X0.45*%
%ADD048R,1.7X1.7*%
%ADD049R,2.6X2.6*%
%ADD051R,1.3X1.3*%
%ADD053R,1.2X1.2*%
%ADD056R,2.05X2.05*%
%ADD063R,1.55X1.55*%
%ADD068R,2X2*%
%ADD071R,1.25X1.25*%
%ADD072R,2.56X2.56*%
%ADD073R,0.8X0.8*%
%ADD074R,2.1X2.1*%
%ADD082R,2.5X2.5*%
%ADD085R,2.4X2.4*%
*
*
*
*
G04 PC Circuitry*
G04 Layer Name XPCB-018.pcb - circuitry*
%LPD*%
*
*
G04 PC Custom Flashes*
G04 Layer Name XPCB-018.pcb - flashes*
%LPD*%
*
*
G04 PC Circuitry*
G04 Layer Name XPCB-018.pcb - circuitry*
%LPD*%
*
G54D11*
G01X27619500Y16980500D02*
Y17099500D01*
X27500500*
Y16980500*
X27619500*
X27500500D02*
Y17099500D01*
X27501000Y16980500D02*
Y17099500D01*
X27501500Y16980500D02*
Y17099500D01*
X27502000Y16980500D02*
Y17099500D01*
X27502500Y16980500D02*
Y17099500D01*
X27503000Y16980500D02*
Y17099500D01*
X27503500Y16980500D02*
Y17099500D01*
X27504000Y16980500D02*
Y17099500D01*
X27504500Y16980500D02*
Y17099500D01*
X27505000Y16980500D02*
Y17099500D01*
X27505500Y16980500D02*
Y17099500D01*
X27506000Y16980500D02*
Y17099500D01*
X27506500Y16980500D02*
Y17099500D01*
X27507000Y16980500D02*
Y17099500D01*
X27507500Y16980500D02*
Y17099500D01*
X27508000Y16980500D02*
Y17099500D01*
X27508500Y16980500D02*
Y17099500D01*
X27509000Y16980500D02*
Y17099500D01*
X27509500Y16980500D02*
Y17099500D01*
X27510000Y16980500D02*
Y17099500D01*
X27510500Y16980500D02*
Y17099500D01*
X27511000Y16980500D02*
Y17099500D01*
X27511500Y16980500D02*
Y17099500D01*
X27512000Y16980500D02*
Y17099500D01*
X27512500Y16980500D02*
Y17099500D01*
X27513000Y16980500D02*
Y17099500D01*
X27513500Y16980500D02*
Y17099500D01*
X27514000Y16980500D02*
Y17099500D01*
X27514500Y16980500D02*
Y17099500D01*
X27515000Y16980500D02*
Y17099500D01*
X27515500Y16980500D02*
Y17099500D01*
X27516000Y16980500D02*
Y17099500D01*
X27516500Y16980500D02*
Y17099500D01*
X27517000Y16980500D02*
Y17099500D01*
X27517500Y16980500D02*
Y17099500D01*
X27518000Y16980500D02*
Y17099500D01*
X27518500Y16980500D02*
Y17099500D01*
X27519000Y16980500D02*
Y17099500D01*
X27519500Y16980500D02*
Y17099500D01*
X27520000Y16980500D02*
Y17099500D01*
X27520500Y16980500D02*
Y17099500D01*
X27521000Y16980500D02*
Y17099500D01*
X27521500Y16980500D02*
Y17099500D01*
X27522000Y16980500D02*
Y17099500D01*
X27522500Y16980500D02*
Y17099500D01*
X27523000Y16980500D02*
Y17099500D01*
X27523500Y16980500D02*
Y17099500D01*
X27524000Y16980500D02*
Y17099500D01*
X27524500Y16980500D02*
Y17099500D01*
X27525000Y16980500D02*
Y17099500D01*
X27525500Y16980500D02*
Y17099500D01*
X27526000Y16980500D02*
Y17099500D01*
X27526500Y16980500D02*
Y17099500D01*
X27527000Y16980500D02*
Y17099500D01*
X27527500Y16980500D02*
Y17099500D01*
X27528000Y16980500D02*
Y17099500D01*
X27528500Y16980500D02*
Y17099500D01*
X27529000Y16980500D02*
Y17099500D01*
X27529500Y16980500D02*
Y17099500D01*
X27530000Y16980500D02*
Y17099500D01*
X27530500Y16980500D02*
Y17099500D01*
X27531000Y16980500D02*
Y17099500D01*
X27531500Y16980500D02*
Y17099500D01*
X27532000Y16980500D02*
Y17099500D01*
X27532500Y16980500D02*
Y17099500D01*
X27533000Y16980500D02*
Y17099500D01*
X27533500Y16980500D02*
Y17099500D01*
X27534000Y16980500D02*
Y17099500D01*
X27534500Y16980500D02*
Y17099500D01*
X27535000Y16980500D02*
Y17099500D01*
X27535500Y16980500D02*
Y17099500D01*
X27536000Y16980500D02*
Y17099500D01*
X27536500Y16980500D02*
Y17099500D01*
X27537000Y16980500D02*
Y17099500D01*
X27537500Y16980500D02*
Y17099500D01*
X27538000Y16980500D02*
Y17099500D01*
X27538500Y16980500D02*
Y17099500D01*
X27539000Y16980500D02*
Y17099500D01*
X27539500Y16980500D02*
Y17099500D01*
X27540000Y16980500D02*
Y17099500D01*
X27540500Y16980500D02*
Y17099500D01*
X27541000Y16980500D02*
Y17099500D01*
X27541500Y16980500D02*
Y17099500D01*
X27542000Y16980500D02*
Y17099500D01*
X27542500Y16980500D02*
Y17099500D01*
X27543000Y16980500D02*
Y17099500D01*
X27543500Y16980500D02*
Y17099500D01*
X27544000Y16980500D02*
Y17099500D01*
X27544500Y16980500D02*
Y17099500D01*
X27545000Y16980500D02*
Y17099500D01*
X27545500Y16980500D02*
Y17099500D01*
X27546000Y16980500D02*
Y17099500D01*
X27546500Y16980500D02*
Y17099500D01*
X27547000Y16980500D02*
Y17099500D01*
X27547500Y16980500D02*
Y17099500D01*
X27548000Y16980500D02*
Y17099500D01*
X27548500Y16980500D02*
Y17099500D01*
X27549000Y16980500D02*
Y17099500D01*
X27549500Y16980500D02*
Y17099500D01*
X27550000Y16980500D02*
Y17099500D01*
X27550500Y16980500D02*
Y17099500D01*
X27551000Y16980500D02*
Y17099500D01*
X27551500Y16980500D02*
Y17099500D01*
X27552000Y16980500D02*
Y17099500D01*
X27552500Y16980500D02*
Y17099500D01*
X27553000Y16980500D02*
Y17099500D01*
X27553500Y16980500D02*
Y17099500D01*
X27554000Y16980500D02*
Y17099500D01*
X27554500Y16980500D02*
Y17099500D01*
X27555000Y16980500D02*
Y17099500D01*
X27555500Y16980500D02*
Y17099500D01*
X27556000Y16980500D02*
Y17099500D01*
X27556500Y16980500D02*
Y17099500D01*
X27557000Y16980500D02*
Y17099500D01*
X27557500Y16980500D02*
Y17099500D01*
X27558000Y16980500D02*
Y17099500D01*
X27558500Y16980500D02*
Y17099500D01*
X27559000Y16980500D02*
Y17099500D01*
X27559500Y16980500D02*
Y17099500D01*
X27560000Y16980500D02*
Y17099500D01*
X27560500Y16980500D02*
Y17099500D01*
X27561000Y16980500D02*
Y17099500D01*
X27561500Y16980500D02*
Y17099500D01*
X27562000Y16980500D02*
Y17099500D01*
X27562500Y16980500D02*
Y17099500D01*
X27563000Y16980500D02*
Y17099500D01*
X27563500Y16980500D02*
Y17099500D01*
X27564000Y16980500D02*
Y17099500D01*
X27564500Y16980500D02*
Y17099500D01*
X27565000Y16980500D02*
Y17099500D01*
X27565500Y16980500D02*
Y17099500D01*
X27566000Y16980500D02*
Y17099500D01*
X27566500Y16980500D02*
Y17099500D01*
X27567000Y16980500D02*
Y17099500D01*
X27567500Y16980500D02*
Y17099500D01*
X27568000Y16980500D02*
Y17099500D01*
X27568500Y16980500D02*
Y17099500D01*
X27569000Y16980500D02*
Y17099500D01*
X27569500Y16980500D02*
Y17099500D01*
X27570000Y16980500D02*
Y17099500D01*
X27570500Y16980500D02*
Y17099500D01*
X27571000Y16980500D02*
Y17099500D01*
X27571500Y16980500D02*
Y17099500D01*
X27572000Y16980500D02*
Y17099500D01*
X27572500Y16980500D02*
Y17099500D01*
X27573000Y16980500D02*
Y17099500D01*
X27573500Y16980500D02*
Y17099500D01*
X27574000Y16980500D02*
Y17099500D01*
X27574500Y16980500D02*
Y17099500D01*
X27575000Y16980500D02*
Y17099500D01*
X27575500Y16980500D02*
Y17099500D01*
X27576000Y16980500D02*
Y17099500D01*
X27576500Y16980500D02*
Y17099500D01*
X27577000Y16980500D02*
Y17099500D01*
X27577500Y16980500D02*
Y17099500D01*
X27578000Y16980500D02*
Y17099500D01*
X27578500Y16980500D02*
Y17099500D01*
X27579000Y16980500D02*
Y17099500D01*
X27579500Y16980500D02*
Y17099500D01*
X27580000Y16980500D02*
Y17099500D01*
X27580500Y16980500D02*
Y17099500D01*
X27581000Y16980500D02*
Y17099500D01*
X27581500Y16980500D02*
Y17099500D01*
X27582000Y16980500D02*
Y17099500D01*
X27582500Y16980500D02*
Y17099500D01*
X27583000Y16980500D02*
Y17099500D01*
X27583500Y16980500D02*
Y17099500D01*
X27584000Y16980500D02*
Y17099500D01*
X27584500Y16980500D02*
Y17099500D01*
X27585000Y16980500D02*
Y17099500D01*
X27585500Y16980500D02*
Y17099500D01*
X27586000Y16980500D02*
Y17099500D01*
X27586500Y16980500D02*
Y17099500D01*
X27587000Y16980500D02*
Y17099500D01*
X27587500Y16980500D02*
Y17099500D01*
X27588000Y16980500D02*
Y17099500D01*
X27588500Y16980500D02*
Y17099500D01*
X27589000Y16980500D02*
Y17099500D01*
X27589500Y16980500D02*
Y17099500D01*
X27590000Y16980500D02*
Y17099500D01*
X27590500Y16980500D02*
Y17099500D01*
X27591000Y16980500D02*
Y17099500D01*
X27591500Y16980500D02*
Y17099500D01*
X27592000Y16980500D02*
Y17099500D01*
X27592500Y16980500D02*
Y17099500D01*
X27593000Y16980500D02*
Y17099500D01*
X27593500Y16980500D02*
Y17099500D01*
X27594000Y16980500D02*
Y17099500D01*
X27594500Y16980500D02*
Y17099500D01*
X27595000Y16980500D02*
Y17099500D01*
X27595500Y16980500D02*
Y17099500D01*
X27596000Y16980500D02*
Y17099500D01*
X27596500Y16980500D02*
Y17099500D01*
X27597000Y16980500D02*
Y17099500D01*
X27597500Y16980500D02*
Y17099500D01*
X27598000Y16980500D02*
Y17099500D01*
X27598500Y16980500D02*
Y17099500D01*
X27599000Y16980500D02*
Y17099500D01*
X27599500Y16980500D02*
Y17099500D01*
X27600000Y16980500D02*
Y17099500D01*
X27600500Y16980500D02*
Y17099500D01*
X27601000Y16980500D02*
Y17099500D01*
X27601500Y16980500D02*
Y17099500D01*
X27602000Y16980500D02*
Y17099500D01*
X27602500Y16980500D02*
Y17099500D01*
X27603000Y16980500D02*
Y17099500D01*
X27603500Y16980500D02*
Y17099500D01*
X27604000Y16980500D02*
Y17099500D01*
X27604500Y16980500D02*
Y17099500D01*
X27605000Y16980500D02*
Y17099500D01*
X27605500Y16980500D02*
Y17099500D01*
X27606000Y16980500D02*
Y17099500D01*
X27606500Y16980500D02*
Y17099500D01*
X27607000Y16980500D02*
Y17099500D01*
X27607500Y16980500D02*
Y17099500D01*
X27608000Y16980500D02*
Y17099500D01*
X27608500Y16980500D02*
Y17099500D01*
X27609000Y16980500D02*
Y17099500D01*
X27609500Y16980500D02*
Y17099500D01*
X27610000Y16980500D02*
Y17099500D01*
X27610500Y16980500D02*
Y17099500D01*
X27611000Y16980500D02*
Y17099500D01*
X27611500Y16980500D02*
Y17099500D01*
X27612000Y16980500D02*
Y17099500D01*
X27612500Y16980500D02*
Y17099500D01*
X27613000Y16980500D02*
Y17099500D01*
X27613500Y16980500D02*
Y17099500D01*
X27614000Y16980500D02*
Y17099500D01*
X27614500Y16980500D02*
Y17099500D01*
X27615000Y16980500D02*
Y17099500D01*
X27615500Y16980500D02*
Y17099500D01*
X27616000Y16980500D02*
Y17099500D01*
X27616500Y16980500D02*
Y17099500D01*
X27617000Y16980500D02*
Y17099500D01*
X27617500Y16980500D02*
Y17099500D01*
X27618000Y16980500D02*
Y17099500D01*
X27618500Y16980500D02*
Y17099500D01*
X27619000Y16980500D02*
Y17099500D01*
X27619500Y16820500D02*
Y16939500D01*
X27500500*
Y16820500*
X27619500*
X27500500D02*
Y16939500D01*
X27501000Y16820500D02*
Y16939500D01*
X27501500Y16820500D02*
Y16939500D01*
X27502000Y16820500D02*
Y16939500D01*
X27502500Y16820500D02*
Y16939500D01*
X27503000Y16820500D02*
Y16939500D01*
X27503500Y16820500D02*
Y16939500D01*
X27504000Y16820500D02*
Y16939500D01*
X27504500Y16820500D02*
Y16939500D01*
X27505000Y16820500D02*
Y16939500D01*
X27505500Y16820500D02*
Y16939500D01*
X27506000Y16820500D02*
Y16939500D01*
X27506500Y16820500D02*
Y16939500D01*
X27507000Y16820500D02*
Y16939500D01*
X27507500Y16820500D02*
Y16939500D01*
X27508000Y16820500D02*
Y16939500D01*
X27508500Y16820500D02*
Y16939500D01*
X27509000Y16820500D02*
Y16939500D01*
X27509500Y16820500D02*
Y16939500D01*
X27510000Y16820500D02*
Y16939500D01*
X27510500Y16820500D02*
Y16939500D01*
X27511000Y16820500D02*
Y16939500D01*
X27511500Y16820500D02*
Y16939500D01*
X27512000Y16820500D02*
Y16939500D01*
X27512500Y16820500D02*
Y16939500D01*
X27513000Y16820500D02*
Y16939500D01*
X27513500Y16820500D02*
Y16939500D01*
X27514000Y16820500D02*
Y16939500D01*
X27514500Y16820500D02*
Y16939500D01*
X27515000Y16820500D02*
Y16939500D01*
X27515500Y16820500D02*
Y16939500D01*
X27516000Y16820500D02*
Y16939500D01*
X27516500Y16820500D02*
Y16939500D01*
X27517000Y16820500D02*
Y16939500D01*
X27517500Y16820500D02*
Y16939500D01*
X27518000Y16820500D02*
Y16939500D01*
X27518500Y16820500D02*
Y16939500D01*
X27519000Y16820500D02*
Y16939500D01*
X27519500Y16820500D02*
Y16939500D01*
X27520000Y16820500D02*
Y16939500D01*
X27520500Y16820500D02*
Y16939500D01*
X27521000Y16820500D02*
Y16939500D01*
X27521500Y16820500D02*
Y16939500D01*
X27522000Y16820500D02*
Y16939500D01*
X27522500Y16820500D02*
Y16939500D01*
X27523000Y16820500D02*
Y16939500D01*
X27523500Y16820500D02*
Y16939500D01*
X27524000Y16820500D02*
Y16939500D01*
X27524500Y16820500D02*
Y16939500D01*
X27525000Y16820500D02*
Y16939500D01*
X27525500Y16820500D02*
Y16939500D01*
X27526000Y16820500D02*
Y16939500D01*
X27526500Y16820500D02*
Y16939500D01*
X27527000Y16820500D02*
Y16939500D01*
X27527500Y16820500D02*
Y16939500D01*
X27528000Y16820500D02*
Y16939500D01*
X27528500Y16820500D02*
Y16939500D01*
X27529000Y16820500D02*
Y16939500D01*
X27529500Y16820500D02*
Y16939500D01*
X27530000Y16820500D02*
Y16939500D01*
X27530500Y16820500D02*
Y16939500D01*
X27531000Y16820500D02*
Y16939500D01*
X27531500Y16820500D02*
Y16939500D01*
X27532000Y16820500D02*
Y16939500D01*
X27532500Y16820500D02*
Y16939500D01*
X27533000Y16820500D02*
Y16939500D01*
X27533500Y16820500D02*
Y16939500D01*
X27534000Y16820500D02*
Y16939500D01*
X27534500Y16820500D02*
Y16939500D01*
X27535000Y16820500D02*
Y16939500D01*
X27535500Y16820500D02*
Y16939500D01*
X27536000Y16820500D02*
Y16939500D01*
X27536500Y16820500D02*
Y16939500D01*
X27537000Y16820500D02*
Y16939500D01*
X27537500Y16820500D02*
Y16939500D01*
X27538000Y16820500D02*
Y16939500D01*
X27538500Y16820500D02*
Y16939500D01*
X27539000Y16820500D02*
Y16939500D01*
X27539500Y16820500D02*
Y16939500D01*
X27540000Y16820500D02*
Y16939500D01*
X27540500Y16820500D02*
Y16939500D01*
X27541000Y16820500D02*
Y16939500D01*
X27541500Y16820500D02*
Y16939500D01*
X27542000Y16820500D02*
Y16939500D01*
X27542500Y16820500D02*
Y16939500D01*
X27543000Y16820500D02*
Y16939500D01*
X27543500Y16820500D02*
Y16939500D01*
X27544000Y16820500D02*
Y16939500D01*
X27544500Y16820500D02*
Y16939500D01*
X27545000Y16820500D02*
Y16939500D01*
X27545500Y16820500D02*
Y16939500D01*
X27546000Y16820500D02*
Y16939500D01*
X27546500Y16820500D02*
Y16939500D01*
X27547000Y16820500D02*
Y16939500D01*
X27547500Y16820500D02*
Y16939500D01*
X27548000Y16820500D02*
Y16939500D01*
X27548500Y16820500D02*
Y16939500D01*
X27549000Y16820500D02*
Y16939500D01*
X27549500Y16820500D02*
Y16939500D01*
X27550000Y16820500D02*
Y16939500D01*
X27550500Y16820500D02*
Y16939500D01*
X27551000Y16820500D02*
Y16939500D01*
X27551500Y16820500D02*
Y16939500D01*
X27552000Y16820500D02*
Y16939500D01*
X27552500Y16820500D02*
Y16939500D01*
X27553000Y16820500D02*
Y16939500D01*
X27553500Y16820500D02*
Y16939500D01*
X27554000Y16820500D02*
Y16939500D01*
X27554500Y16820500D02*
Y16939500D01*
X27555000Y16820500D02*
Y16939500D01*
X27555500Y16820500D02*
Y16939500D01*
X27556000Y16820500D02*
Y16939500D01*
X27556500Y16820500D02*
Y16939500D01*
X27557000Y16820500D02*
Y16939500D01*
X27557500Y16820500D02*
Y16939500D01*
X27558000Y16820500D02*
Y16939500D01*
X27558500Y16820500D02*
Y16939500D01*
X27559000Y16820500D02*
Y16939500D01*
X27559500Y16820500D02*
Y16939500D01*
X27560000Y16820500D02*
Y16939500D01*
X27560500Y16820500D02*
Y16939500D01*
X27561000Y16820500D02*
Y16939500D01*
X27561500Y16820500D02*
Y16939500D01*
X27562000Y16820500D02*
Y16939500D01*
X27562500Y16820500D02*
Y16939500D01*
X27563000Y16820500D02*
Y16939500D01*
X27563500Y16820500D02*
Y16939500D01*
X27564000Y16820500D02*
Y16939500D01*
X27564500Y16820500D02*
Y16939500D01*
X27565000Y16820500D02*
Y16939500D01*
X27565500Y16820500D02*
Y16939500D01*
X27566000Y16820500D02*
Y16939500D01*
X27566500Y16820500D02*
Y16939500D01*
X27567000Y16820500D02*
Y16939500D01*
X27567500Y16820500D02*
Y16939500D01*
X27568000Y16820500D02*
Y16939500D01*
X27568500Y16820500D02*
Y16939500D01*
X27569000Y16820500D02*
Y16939500D01*
X27569500Y16820500D02*
Y16939500D01*
X27570000Y16820500D02*
Y16939500D01*
X27570500Y16820500D02*
Y16939500D01*
X27571000Y16820500D02*
Y16939500D01*
X27571500Y16820500D02*
Y16939500D01*
X27572000Y16820500D02*
Y16939500D01*
X27572500Y16820500D02*
Y16939500D01*
X27573000Y16820500D02*
Y16939500D01*
X27573500Y16820500D02*
Y16939500D01*
X27574000Y16820500D02*
Y16939500D01*
X27574500Y16820500D02*
Y16939500D01*
X27575000Y16820500D02*
Y16939500D01*
X27575500Y16820500D02*
Y16939500D01*
X27576000Y16820500D02*
Y16939500D01*
X27576500Y16820500D02*
Y16939500D01*
X27577000Y16820500D02*
Y16939500D01*
X27577500Y16820500D02*
Y16939500D01*
X27578000Y16820500D02*
Y16939500D01*
X27578500Y16820500D02*
Y16939500D01*
X27579000Y16820500D02*
Y16939500D01*
X27579500Y16820500D02*
Y16939500D01*
X27580000Y16820500D02*
Y16939500D01*
X27580500Y16820500D02*
Y16939500D01*
X27581000Y16820500D02*
Y16939500D01*
X27581500Y16820500D02*
Y16939500D01*
X27582000Y16820500D02*
Y16939500D01*
X27582500Y16820500D02*
Y16939500D01*
X27583000Y16820500D02*
Y16939500D01*
X27583500Y16820500D02*
Y16939500D01*
X27584000Y16820500D02*
Y16939500D01*
X27584500Y16820500D02*
Y16939500D01*
X27585000Y16820500D02*
Y16939500D01*
X27585500Y16820500D02*
Y16939500D01*
X27586000Y16820500D02*
Y16939500D01*
X27586500Y16820500D02*
Y16939500D01*
X27587000Y16820500D02*
Y16939500D01*
X27587500Y16820500D02*
Y16939500D01*
X27588000Y16820500D02*
Y16939500D01*
X27588500Y16820500D02*
Y16939500D01*
X27589000Y16820500D02*
Y16939500D01*
X27589500Y16820500D02*
Y16939500D01*
X27590000Y16820500D02*
Y16939500D01*
X27590500Y16820500D02*
Y16939500D01*
X27591000Y16820500D02*
Y16939500D01*
X27591500Y16820500D02*
Y16939500D01*
X27592000Y16820500D02*
Y16939500D01*
X27592500Y16820500D02*
Y16939500D01*
X27593000Y16820500D02*
Y16939500D01*
X27593500Y16820500D02*
Y16939500D01*
X27594000Y16820500D02*
Y16939500D01*
X27594500Y16820500D02*
Y16939500D01*
X27595000Y16820500D02*
Y16939500D01*
X27595500Y16820500D02*
Y16939500D01*
X27596000Y16820500D02*
Y16939500D01*
X27596500Y16820500D02*
Y16939500D01*
X27597000Y16820500D02*
Y16939500D01*
X27597500Y16820500D02*
Y16939500D01*
X27598000Y16820500D02*
Y16939500D01*
X27598500Y16820500D02*
Y16939500D01*
X27599000Y16820500D02*
Y16939500D01*
X27599500Y16820500D02*
Y16939500D01*
X27600000Y16820500D02*
Y16939500D01*
X27600500Y16820500D02*
Y16939500D01*
X27601000Y16820500D02*
Y16939500D01*
X27601500Y16820500D02*
Y16939500D01*
X27602000Y16820500D02*
Y16939500D01*
X27602500Y16820500D02*
Y16939500D01*
X27603000Y16820500D02*
Y16939500D01*
X27603500Y16820500D02*
Y16939500D01*
X27604000Y16820500D02*
Y16939500D01*
X27604500Y16820500D02*
Y16939500D01*
X27605000Y16820500D02*
Y16939500D01*
X27605500Y16820500D02*
Y16939500D01*
X27606000Y16820500D02*
Y16939500D01*
X27606500Y16820500D02*
Y16939500D01*
X27607000Y16820500D02*
Y16939500D01*
X27607500Y16820500D02*
Y16939500D01*
X27608000Y16820500D02*
Y16939500D01*
X27608500Y16820500D02*
Y16939500D01*
X27609000Y16820500D02*
Y16939500D01*
X27609500Y16820500D02*
Y16939500D01*
X27610000Y16820500D02*
Y16939500D01*
X27610500Y16820500D02*
Y16939500D01*
X27611000Y16820500D02*
Y16939500D01*
X27611500Y16820500D02*
Y16939500D01*
X27612000Y16820500D02*
Y16939500D01*
X27612500Y16820500D02*
Y16939500D01*
X27613000Y16820500D02*
Y16939500D01*
X27613500Y16820500D02*
Y16939500D01*
X27614000Y16820500D02*
Y16939500D01*
X27614500Y16820500D02*
Y16939500D01*
X27615000Y16820500D02*
Y16939500D01*
X27615500Y16820500D02*
Y16939500D01*
X27616000Y16820500D02*
Y16939500D01*
X27616500Y16820500D02*
Y16939500D01*
X27617000Y16820500D02*
Y16939500D01*
X27617500Y16820500D02*
Y16939500D01*
X27618000Y16820500D02*
Y16939500D01*
X27618500Y16820500D02*
Y16939500D01*
X27619000Y16820500D02*
Y16939500D01*
X27619500Y16660500D02*
Y16779500D01*
X27500500*
Y16660500*
X27619500*
X27500500D02*
Y16779500D01*
X27501000Y16660500D02*
Y16779500D01*
X27501500Y16660500D02*
Y16779500D01*
X27502000Y16660500D02*
Y16779500D01*
X27502500Y16660500D02*
Y16779500D01*
X27503000Y16660500D02*
Y16779500D01*
X27503500Y16660500D02*
Y16779500D01*
X27504000Y16660500D02*
Y16779500D01*
X27504500Y16660500D02*
Y16779500D01*
X27505000Y16660500D02*
Y16779500D01*
X27505500Y16660500D02*
Y16779500D01*
X27506000Y16660500D02*
Y16779500D01*
X27506500Y16660500D02*
Y16779500D01*
X27507000Y16660500D02*
Y16779500D01*
X27507500Y16660500D02*
Y16779500D01*
X27508000Y16660500D02*
Y16779500D01*
X27508500Y16660500D02*
Y16779500D01*
X27509000Y16660500D02*
Y16779500D01*
X27509500Y16660500D02*
Y16779500D01*
X27510000Y16660500D02*
Y16779500D01*
X27510500Y16660500D02*
Y16779500D01*
X27511000Y16660500D02*
Y16779500D01*
X27511500Y16660500D02*
Y16779500D01*
X27512000Y16660500D02*
Y16779500D01*
X27512500Y16660500D02*
Y16779500D01*
X27513000Y16660500D02*
Y16779500D01*
X27513500Y16660500D02*
Y16779500D01*
X27514000Y16660500D02*
Y16779500D01*
X27514500Y16660500D02*
Y16779500D01*
X27515000Y16660500D02*
Y16779500D01*
X27515500Y16660500D02*
Y16779500D01*
X27516000Y16660500D02*
Y16779500D01*
X27516500Y16660500D02*
Y16779500D01*
X27517000Y16660500D02*
Y16779500D01*
X27517500Y16660500D02*
Y16779500D01*
X27518000Y16660500D02*
Y16779500D01*
X27518500Y16660500D02*
Y16779500D01*
X27519000Y16660500D02*
Y16779500D01*
X27519500Y16660500D02*
Y16779500D01*
X27520000Y16660500D02*
Y16779500D01*
X27520500Y16660500D02*
Y16779500D01*
X27521000Y16660500D02*
Y16779500D01*
X27521500Y16660500D02*
Y16779500D01*
X27522000Y16660500D02*
Y16779500D01*
X27522500Y16660500D02*
Y16779500D01*
X27523000Y16660500D02*
Y16779500D01*
X27523500Y16660500D02*
Y16779500D01*
X27524000Y16660500D02*
Y16779500D01*
X27524500Y16660500D02*
Y16779500D01*
X27525000Y16660500D02*
Y16779500D01*
X27525500Y16660500D02*
Y16779500D01*
X27526000Y16660500D02*
Y16779500D01*
X27526500Y16660500D02*
Y16779500D01*
X27527000Y16660500D02*
Y16779500D01*
X27527500Y16660500D02*
Y16779500D01*
X27528000Y16660500D02*
Y16779500D01*
X27528500Y16660500D02*
Y16779500D01*
X27529000Y16660500D02*
Y16779500D01*
X27529500Y16660500D02*
Y16779500D01*
X27530000Y16660500D02*
Y16779500D01*
X27530500Y16660500D02*
Y16779500D01*
X27531000Y16660500D02*
Y16779500D01*
X27531500Y16660500D02*
Y16779500D01*
X27532000Y16660500D02*
Y16779500D01*
X27532500Y16660500D02*
Y16779500D01*
X27533000Y16660500D02*
Y16779500D01*
X27533500Y16660500D02*
Y16779500D01*
X27534000Y16660500D02*
Y16779500D01*
X27534500Y16660500D02*
Y16779500D01*
X27535000Y16660500D02*
Y16779500D01*
X27535500Y16660500D02*
Y16779500D01*
X27536000Y16660500D02*
Y16779500D01*
X27536500Y16660500D02*
Y16779500D01*
X27537000Y16660500D02*
Y16779500D01*
X27537500Y16660500D02*
Y16779500D01*
X27538000Y16660500D02*
Y16779500D01*
X27538500Y16660500D02*
Y16779500D01*
X27539000Y16660500D02*
Y16779500D01*
X27539500Y16660500D02*
Y16779500D01*
X27540000Y16660500D02*
Y16779500D01*
X27540500Y16660500D02*
Y16779500D01*
X27541000Y16660500D02*
Y16779500D01*
X27541500Y16660500D02*
Y16779500D01*
X27542000Y16660500D02*
Y16779500D01*
X27542500Y16660500D02*
Y16779500D01*
X27543000Y16660500D02*
Y16779500D01*
X27543500Y16660500D02*
Y16779500D01*
X27544000Y16660500D02*
Y16779500D01*
X27544500Y16660500D02*
Y16779500D01*
X27545000Y16660500D02*
Y16779500D01*
X27545500Y16660500D02*
Y16779500D01*
X27546000Y16660500D02*
Y16779500D01*
X27546500Y16660500D02*
Y16779500D01*
X27547000Y16660500D02*
Y16779500D01*
X27547500Y16660500D02*
Y16779500D01*
X27548000Y16660500D02*
Y16779500D01*
X27548500Y16660500D02*
Y16779500D01*
X27549000Y16660500D02*
Y16779500D01*
X27549500Y16660500D02*
Y16779500D01*
X27550000Y16660500D02*
Y16779500D01*
X27550500Y16660500D02*
Y16779500D01*
X27551000Y16660500D02*
Y16779500D01*
X27551500Y16660500D02*
Y16779500D01*
X27552000Y16660500D02*
Y16779500D01*
X27552500Y16660500D02*
Y16779500D01*
X27553000Y16660500D02*
Y16779500D01*
X27553500Y16660500D02*
Y16779500D01*
X27554000Y16660500D02*
Y16779500D01*
X27554500Y16660500D02*
Y16779500D01*
X27555000Y16660500D02*
Y16779500D01*
X27555500Y16660500D02*
Y16779500D01*
X27556000Y16660500D02*
Y16779500D01*
X27556500Y16660500D02*
Y16779500D01*
X27557000Y16660500D02*
Y16779500D01*
X27557500Y16660500D02*
Y16779500D01*
X27558000Y16660500D02*
Y16779500D01*
X27558500Y16660500D02*
Y16779500D01*
X27559000Y16660500D02*
Y16779500D01*
X27559500Y16660500D02*
Y16779500D01*
X27560000Y16660500D02*
Y16779500D01*
X27560500Y16660500D02*
Y16779500D01*
X27561000Y16660500D02*
Y16779500D01*
X27561500Y16660500D02*
Y16779500D01*
X27562000Y16660500D02*
Y16779500D01*
X27562500Y16660500D02*
Y16779500D01*
X27563000Y16660500D02*
Y16779500D01*
X27563500Y16660500D02*
Y16779500D01*
X27564000Y16660500D02*
Y16779500D01*
X27564500Y16660500D02*
Y16779500D01*
X27565000Y16660500D02*
Y16779500D01*
X27565500Y16660500D02*
Y16779500D01*
X27566000Y16660500D02*
Y16779500D01*
X27566500Y16660500D02*
Y16779500D01*
X27567000Y16660500D02*
Y16779500D01*
X27567500Y16660500D02*
Y16779500D01*
X27568000Y16660500D02*
Y16779500D01*
X27568500Y16660500D02*
Y16779500D01*
X27569000Y16660500D02*
Y16779500D01*
X27569500Y16660500D02*
Y16779500D01*
X27570000Y16660500D02*
Y16779500D01*
X27570500Y16660500D02*
Y16779500D01*
X27571000Y16660500D02*
Y16779500D01*
X27571500Y16660500D02*
Y16779500D01*
X27572000Y16660500D02*
Y16779500D01*
X27572500Y16660500D02*
Y16779500D01*
X27573000Y16660500D02*
Y16779500D01*
X27573500Y16660500D02*
Y16779500D01*
X27574000Y16660500D02*
Y16779500D01*
X27574500Y16660500D02*
Y16779500D01*
X27575000Y16660500D02*
Y16779500D01*
X27575500Y16660500D02*
Y16779500D01*
X27576000Y16660500D02*
Y16779500D01*
X27576500Y16660500D02*
Y16779500D01*
X27577000Y16660500D02*
Y16779500D01*
X27577500Y16660500D02*
Y16779500D01*
X27578000Y16660500D02*
Y16779500D01*
X27578500Y16660500D02*
Y16779500D01*
X27579000Y16660500D02*
Y16779500D01*
X27579500Y16660500D02*
Y16779500D01*
X27580000Y16660500D02*
Y16779500D01*
X27580500Y16660500D02*
Y16779500D01*
X27581000Y16660500D02*
Y16779500D01*
X27581500Y16660500D02*
Y16779500D01*
X27582000Y16660500D02*
Y16779500D01*
X27582500Y16660500D02*
Y16779500D01*
X27583000Y16660500D02*
Y16779500D01*
X27583500Y16660500D02*
Y16779500D01*
X27584000Y16660500D02*
Y16779500D01*
X27584500Y16660500D02*
Y16779500D01*
X27585000Y16660500D02*
Y16779500D01*
X27585500Y16660500D02*
Y16779500D01*
X27586000Y16660500D02*
Y16779500D01*
X27586500Y16660500D02*
Y16779500D01*
X27587000Y16660500D02*
Y16779500D01*
X27587500Y16660500D02*
Y16779500D01*
X27588000Y16660500D02*
Y16779500D01*
X27588500Y16660500D02*
Y16779500D01*
X27589000Y16660500D02*
Y16779500D01*
X27589500Y16660500D02*
Y16779500D01*
X27590000Y16660500D02*
Y16779500D01*
X27590500Y16660500D02*
Y16779500D01*
X27591000Y16660500D02*
Y16779500D01*
X27591500Y16660500D02*
Y16779500D01*
X27592000Y16660500D02*
Y16779500D01*
X27592500Y16660500D02*
Y16779500D01*
X27593000Y16660500D02*
Y16779500D01*
X27593500Y16660500D02*
Y16779500D01*
X27594000Y16660500D02*
Y16779500D01*
X27594500Y16660500D02*
Y16779500D01*
X27595000Y16660500D02*
Y16779500D01*
X27595500Y16660500D02*
Y16779500D01*
X27596000Y16660500D02*
Y16779500D01*
X27596500Y16660500D02*
Y16779500D01*
X27597000Y16660500D02*
Y16779500D01*
X27597500Y16660500D02*
Y16779500D01*
X27598000Y16660500D02*
Y16779500D01*
X27598500Y16660500D02*
Y16779500D01*
X27599000Y16660500D02*
Y16779500D01*
X27599500Y16660500D02*
Y16779500D01*
X27600000Y16660500D02*
Y16779500D01*
X27600500Y16660500D02*
Y16779500D01*
X27601000Y16660500D02*
Y16779500D01*
X27601500Y16660500D02*
Y16779500D01*
X27602000Y16660500D02*
Y16779500D01*
X27602500Y16660500D02*
Y16779500D01*
X27603000Y16660500D02*
Y16779500D01*
X27603500Y16660500D02*
Y16779500D01*
X27604000Y16660500D02*
Y16779500D01*
X27604500Y16660500D02*
Y16779500D01*
X27605000Y16660500D02*
Y16779500D01*
X27605500Y16660500D02*
Y16779500D01*
X27606000Y16660500D02*
Y16779500D01*
X27606500Y16660500D02*
Y16779500D01*
X27607000Y16660500D02*
Y16779500D01*
X27607500Y16660500D02*
Y16779500D01*
X27608000Y16660500D02*
Y16779500D01*
X27608500Y16660500D02*
Y16779500D01*
X27609000Y16660500D02*
Y16779500D01*
X27609500Y16660500D02*
Y16779500D01*
X27610000Y16660500D02*
Y16779500D01*
X27610500Y16660500D02*
Y16779500D01*
X27611000Y16660500D02*
Y16779500D01*
X27611500Y16660500D02*
Y16779500D01*
X27612000Y16660500D02*
Y16779500D01*
X27612500Y16660500D02*
Y16779500D01*
X27613000Y16660500D02*
Y16779500D01*
X27613500Y16660500D02*
Y16779500D01*
X27614000Y16660500D02*
Y16779500D01*
X27614500Y16660500D02*
Y16779500D01*
X27615000Y16660500D02*
Y16779500D01*
X27615500Y16660500D02*
Y16779500D01*
X27616000Y16660500D02*
Y16779500D01*
X27616500Y16660500D02*
Y16779500D01*
X27617000Y16660500D02*
Y16779500D01*
X27617500Y16660500D02*
Y16779500D01*
X27618000Y16660500D02*
Y16779500D01*
X27618500Y16660500D02*
Y16779500D01*
X27619000Y16660500D02*
Y16779500D01*
X27459500Y16660500D02*
Y16779500D01*
X27340500*
Y16660500*
X27459500*
X27340500D02*
Y16779500D01*
X27341000Y16660500D02*
Y16779500D01*
X27341500Y16660500D02*
Y16779500D01*
X27342000Y16660500D02*
Y16779500D01*
X27342500Y16660500D02*
Y16779500D01*
X27343000Y16660500D02*
Y16779500D01*
X27343500Y16660500D02*
Y16779500D01*
X27344000Y16660500D02*
Y16779500D01*
X27344500Y16660500D02*
Y16779500D01*
X27345000Y16660500D02*
Y16779500D01*
X27345500Y16660500D02*
Y16779500D01*
X27346000Y16660500D02*
Y16779500D01*
X27346500Y16660500D02*
Y16779500D01*
X27347000Y16660500D02*
Y16779500D01*
X27347500Y16660500D02*
Y16779500D01*
X27348000Y16660500D02*
Y16779500D01*
X27348500Y16660500D02*
Y16779500D01*
X27349000Y16660500D02*
Y16779500D01*
X27349500Y16660500D02*
Y16779500D01*
X27350000Y16660500D02*
Y16779500D01*
X27350500Y16660500D02*
Y16779500D01*
X27351000Y16660500D02*
Y16779500D01*
X27351500Y16660500D02*
Y16779500D01*
X27352000Y16660500D02*
Y16779500D01*
X27352500Y16660500D02*
Y16779500D01*
X27353000Y16660500D02*
Y16779500D01*
X27353500Y16660500D02*
Y16779500D01*
X27354000Y16660500D02*
Y16779500D01*
X27354500Y16660500D02*
Y16779500D01*
X27355000Y16660500D02*
Y16779500D01*
X27355500Y16660500D02*
Y16779500D01*
X27356000Y16660500D02*
Y16779500D01*
X27356500Y16660500D02*
Y16779500D01*
X27357000Y16660500D02*
Y16779500D01*
X27357500Y16660500D02*
Y16779500D01*
X27358000Y16660500D02*
Y16779500D01*
X27358500Y16660500D02*
Y16779500D01*
X27359000Y16660500D02*
Y16779500D01*
X27359500Y16660500D02*
Y16779500D01*
X27360000Y16660500D02*
Y16779500D01*
X27360500Y16660500D02*
Y16779500D01*
X27361000Y16660500D02*
Y16779500D01*
X27361500Y16660500D02*
Y16779500D01*
X27362000Y16660500D02*
Y16779500D01*
X27362500Y16660500D02*
Y16779500D01*
X27363000Y16660500D02*
Y16779500D01*
X27363500Y16660500D02*
Y16779500D01*
X27364000Y16660500D02*
Y16779500D01*
X27364500Y16660500D02*
Y16779500D01*
X27365000Y16660500D02*
Y16779500D01*
X27365500Y16660500D02*
Y16779500D01*
X27366000Y16660500D02*
Y16779500D01*
X27366500Y16660500D02*
Y16779500D01*
X27367000Y16660500D02*
Y16779500D01*
X27367500Y16660500D02*
Y16779500D01*
X27368000Y16660500D02*
Y16779500D01*
X27368500Y16660500D02*
Y16779500D01*
X27369000Y16660500D02*
Y16779500D01*
X27369500Y16660500D02*
Y16779500D01*
X27370000Y16660500D02*
Y16779500D01*
X27370500Y16660500D02*
Y16779500D01*
X27371000Y16660500D02*
Y16779500D01*
X27371500Y16660500D02*
Y16779500D01*
X27372000Y16660500D02*
Y16779500D01*
X27372500Y16660500D02*
Y16779500D01*
X27373000Y16660500D02*
Y16779500D01*
X27373500Y16660500D02*
Y16779500D01*
X27374000Y16660500D02*
Y16779500D01*
X27374500Y16660500D02*
Y16779500D01*
X27375000Y16660500D02*
Y16779500D01*
X27375500Y16660500D02*
Y16779500D01*
X27376000Y16660500D02*
Y16779500D01*
X27376500Y16660500D02*
Y16779500D01*
X27377000Y16660500D02*
Y16779500D01*
X27377500Y16660500D02*
Y16779500D01*
X27378000Y16660500D02*
Y16779500D01*
X27378500Y16660500D02*
Y16779500D01*
X27379000Y16660500D02*
Y16779500D01*
X27379500Y16660500D02*
Y16779500D01*
X27380000Y16660500D02*
Y16779500D01*
X27380500Y16660500D02*
Y16779500D01*
X27381000Y16660500D02*
Y16779500D01*
X27381500Y16660500D02*
Y16779500D01*
X27382000Y16660500D02*
Y16779500D01*
X27382500Y16660500D02*
Y16779500D01*
X27383000Y16660500D02*
Y16779500D01*
X27383500Y16660500D02*
Y16779500D01*
X27384000Y16660500D02*
Y16779500D01*
X27384500Y16660500D02*
Y16779500D01*
X27385000Y16660500D02*
Y16779500D01*
X27385500Y16660500D02*
Y16779500D01*
X27386000Y16660500D02*
Y16779500D01*
X27386500Y16660500D02*
Y16779500D01*
X27387000Y16660500D02*
Y16779500D01*
X27387500Y16660500D02*
Y16779500D01*
X27388000Y16660500D02*
Y16779500D01*
X27388500Y16660500D02*
Y16779500D01*
X27389000Y16660500D02*
Y16779500D01*
X27389500Y16660500D02*
Y16779500D01*
X27390000Y16660500D02*
Y16779500D01*
X27390500Y16660500D02*
Y16779500D01*
X27391000Y16660500D02*
Y16779500D01*
X27391500Y16660500D02*
Y16779500D01*
X27392000Y16660500D02*
Y16779500D01*
X27392500Y16660500D02*
Y16779500D01*
X27393000Y16660500D02*
Y16779500D01*
X27393500Y16660500D02*
Y16779500D01*
X27394000Y16660500D02*
Y16779500D01*
X27394500Y16660500D02*
Y16779500D01*
X27395000Y16660500D02*
Y16779500D01*
X27395500Y16660500D02*
Y16779500D01*
X27396000Y16660500D02*
Y16779500D01*
X27396500Y16660500D02*
Y16779500D01*
X27397000Y16660500D02*
Y16779500D01*
X27397500Y16660500D02*
Y16779500D01*
X27398000Y16660500D02*
Y16779500D01*
X27398500Y16660500D02*
Y16779500D01*
X27399000Y16660500D02*
Y16779500D01*
X27399500Y16660500D02*
Y16779500D01*
X27400000Y16660500D02*
Y16779500D01*
X27400500Y16660500D02*
Y16779500D01*
X27401000Y16660500D02*
Y16779500D01*
X27401500Y16660500D02*
Y16779500D01*
X27402000Y16660500D02*
Y16779500D01*
X27402500Y16660500D02*
Y16779500D01*
X27403000Y16660500D02*
Y16779500D01*
X27403500Y16660500D02*
Y16779500D01*
X27404000Y16660500D02*
Y16779500D01*
X27404500Y16660500D02*
Y16779500D01*
X27405000Y16660500D02*
Y16779500D01*
X27405500Y16660500D02*
Y16779500D01*
X27406000Y16660500D02*
Y16779500D01*
X27406500Y16660500D02*
Y16779500D01*
X27407000Y16660500D02*
Y16779500D01*
X27407500Y16660500D02*
Y16779500D01*
X27408000Y16660500D02*
Y16779500D01*
X27408500Y16660500D02*
Y16779500D01*
X27409000Y16660500D02*
Y16779500D01*
X27409500Y16660500D02*
Y16779500D01*
X27410000Y16660500D02*
Y16779500D01*
X27410500Y16660500D02*
Y16779500D01*
X27411000Y16660500D02*
Y16779500D01*
X27411500Y16660500D02*
Y16779500D01*
X27412000Y16660500D02*
Y16779500D01*
X27412500Y16660500D02*
Y16779500D01*
X27413000Y16660500D02*
Y16779500D01*
X27413500Y16660500D02*
Y16779500D01*
X27414000Y16660500D02*
Y16779500D01*
X27414500Y16660500D02*
Y16779500D01*
X27415000Y16660500D02*
Y16779500D01*
X27415500Y16660500D02*
Y16779500D01*
X27416000Y16660500D02*
Y16779500D01*
X27416500Y16660500D02*
Y16779500D01*
X27417000Y16660500D02*
Y16779500D01*
X27417500Y16660500D02*
Y16779500D01*
X27418000Y16660500D02*
Y16779500D01*
X27418500Y16660500D02*
Y16779500D01*
X27419000Y16660500D02*
Y16779500D01*
X27419500Y16660500D02*
Y16779500D01*
X27420000Y16660500D02*
Y16779500D01*
X27420500Y16660500D02*
Y16779500D01*
X27421000Y16660500D02*
Y16779500D01*
X27421500Y16660500D02*
Y16779500D01*
X27422000Y16660500D02*
Y16779500D01*
X27422500Y16660500D02*
Y16779500D01*
X27423000Y16660500D02*
Y16779500D01*
X27423500Y16660500D02*
Y16779500D01*
X27424000Y16660500D02*
Y16779500D01*
X27424500Y16660500D02*
Y16779500D01*
X27425000Y16660500D02*
Y16779500D01*
X27425500Y16660500D02*
Y16779500D01*
X27426000Y16660500D02*
Y16779500D01*
X27426500Y16660500D02*
Y16779500D01*
X27427000Y16660500D02*
Y16779500D01*
X27427500Y16660500D02*
Y16779500D01*
X27428000Y16660500D02*
Y16779500D01*
X27428500Y16660500D02*
Y16779500D01*
X27429000Y16660500D02*
Y16779500D01*
X27429500Y16660500D02*
Y16779500D01*
X27430000Y16660500D02*
Y16779500D01*
X27430500Y16660500D02*
Y16779500D01*
X27431000Y16660500D02*
Y16779500D01*
X27431500Y16660500D02*
Y16779500D01*
X27432000Y16660500D02*
Y16779500D01*
X27432500Y16660500D02*
Y16779500D01*
X27433000Y16660500D02*
Y16779500D01*
X27433500Y16660500D02*
Y16779500D01*
X27434000Y16660500D02*
Y16779500D01*
X27434500Y16660500D02*
Y16779500D01*
X27435000Y16660500D02*
Y16779500D01*
X27435500Y16660500D02*
Y16779500D01*
X27436000Y16660500D02*
Y16779500D01*
X27436500Y16660500D02*
Y16779500D01*
X27437000Y16660500D02*
Y16779500D01*
X27437500Y16660500D02*
Y16779500D01*
X27438000Y16660500D02*
Y16779500D01*
X27438500Y16660500D02*
Y16779500D01*
X27439000Y16660500D02*
Y16779500D01*
X27439500Y16660500D02*
Y16779500D01*
X27440000Y16660500D02*
Y16779500D01*
X27440500Y16660500D02*
Y16779500D01*
X27441000Y16660500D02*
Y16779500D01*
X27441500Y16660500D02*
Y16779500D01*
X27442000Y16660500D02*
Y16779500D01*
X27442500Y16660500D02*
Y16779500D01*
X27443000Y16660500D02*
Y16779500D01*
X27443500Y16660500D02*
Y16779500D01*
X27444000Y16660500D02*
Y16779500D01*
X27444500Y16660500D02*
Y16779500D01*
X27445000Y16660500D02*
Y16779500D01*
X27445500Y16660500D02*
Y16779500D01*
X27446000Y16660500D02*
Y16779500D01*
X27446500Y16660500D02*
Y16779500D01*
X27447000Y16660500D02*
Y16779500D01*
X27447500Y16660500D02*
Y16779500D01*
X27448000Y16660500D02*
Y16779500D01*
X27448500Y16660500D02*
Y16779500D01*
X27449000Y16660500D02*
Y16779500D01*
X27449500Y16660500D02*
Y16779500D01*
X27450000Y16660500D02*
Y16779500D01*
X27450500Y16660500D02*
Y16779500D01*
X27451000Y16660500D02*
Y16779500D01*
X27451500Y16660500D02*
Y16779500D01*
X27452000Y16660500D02*
Y16779500D01*
X27452500Y16660500D02*
Y16779500D01*
X27453000Y16660500D02*
Y16779500D01*
X27453500Y16660500D02*
Y16779500D01*
X27454000Y16660500D02*
Y16779500D01*
X27454500Y16660500D02*
Y16779500D01*
X27455000Y16660500D02*
Y16779500D01*
X27455500Y16660500D02*
Y16779500D01*
X27456000Y16660500D02*
Y16779500D01*
X27456500Y16660500D02*
Y16779500D01*
X27457000Y16660500D02*
Y16779500D01*
X27457500Y16660500D02*
Y16779500D01*
X27458000Y16660500D02*
Y16779500D01*
X27458500Y16660500D02*
Y16779500D01*
X27459000Y16660500D02*
Y16779500D01*
X27459500Y16820500D02*
Y16939500D01*
X27340500*
Y16820500*
X27459500*
X27340500D02*
Y16939500D01*
X27341000Y16820500D02*
Y16939500D01*
X27341500Y16820500D02*
Y16939500D01*
X27342000Y16820500D02*
Y16939500D01*
X27342500Y16820500D02*
Y16939500D01*
X27343000Y16820500D02*
Y16939500D01*
X27343500Y16820500D02*
Y16939500D01*
X27344000Y16820500D02*
Y16939500D01*
X27344500Y16820500D02*
Y16939500D01*
X27345000Y16820500D02*
Y16939500D01*
X27345500Y16820500D02*
Y16939500D01*
X27346000Y16820500D02*
Y16939500D01*
X27346500Y16820500D02*
Y16939500D01*
X27347000Y16820500D02*
Y16939500D01*
X27347500Y16820500D02*
Y16939500D01*
X27348000Y16820500D02*
Y16939500D01*
X27348500Y16820500D02*
Y16939500D01*
X27349000Y16820500D02*
Y16939500D01*
X27349500Y16820500D02*
Y16939500D01*
X27350000Y16820500D02*
Y16939500D01*
X27350500Y16820500D02*
Y16939500D01*
X27351000Y16820500D02*
Y16939500D01*
X27351500Y16820500D02*
Y16939500D01*
X27352000Y16820500D02*
Y16939500D01*
X27352500Y16820500D02*
Y16939500D01*
X27353000Y16820500D02*
Y16939500D01*
X27353500Y16820500D02*
Y16939500D01*
X27354000Y16820500D02*
Y16939500D01*
X27354500Y16820500D02*
Y16939500D01*
X27355000Y16820500D02*
Y16939500D01*
X27355500Y16820500D02*
Y16939500D01*
X27356000Y16820500D02*
Y16939500D01*
X27356500Y16820500D02*
Y16939500D01*
X27357000Y16820500D02*
Y16939500D01*
X27357500Y16820500D02*
Y16939500D01*
X27358000Y16820500D02*
Y16939500D01*
X27358500Y16820500D02*
Y16939500D01*
X27359000Y16820500D02*
Y16939500D01*
X27359500Y16820500D02*
Y16939500D01*
X27360000Y16820500D02*
Y16939500D01*
X27360500Y16820500D02*
Y16939500D01*
X27361000Y16820500D02*
Y16939500D01*
X27361500Y16820500D02*
Y16939500D01*
X27362000Y16820500D02*
Y16939500D01*
X27362500Y16820500D02*
Y16939500D01*
X27363000Y16820500D02*
Y16939500D01*
X27363500Y16820500D02*
Y16939500D01*
X27364000Y16820500D02*
Y16939500D01*
X27364500Y16820500D02*
Y16939500D01*
X27365000Y16820500D02*
Y16939500D01*
X27365500Y16820500D02*
Y16939500D01*
X27366000Y16820500D02*
Y16939500D01*
X27366500Y16820500D02*
Y16939500D01*
X27367000Y16820500D02*
Y16939500D01*
X27367500Y16820500D02*
Y16939500D01*
X27368000Y16820500D02*
Y16939500D01*
X27368500Y16820500D02*
Y16939500D01*
X27369000Y16820500D02*
Y16939500D01*
X27369500Y16820500D02*
Y16939500D01*
X27370000Y16820500D02*
Y16939500D01*
X27370500Y16820500D02*
Y16939500D01*
X27371000Y16820500D02*
Y16939500D01*
X27371500Y16820500D02*
Y16939500D01*
X27372000Y16820500D02*
Y16939500D01*
X27372500Y16820500D02*
Y16939500D01*
X27373000Y16820500D02*
Y16939500D01*
X27373500Y16820500D02*
Y16939500D01*
X27374000Y16820500D02*
Y16939500D01*
X27374500Y16820500D02*
Y16939500D01*
X27375000Y16820500D02*
Y16939500D01*
X27375500Y16820500D02*
Y16939500D01*
X27376000Y16820500D02*
Y16939500D01*
X27376500Y16820500D02*
Y16939500D01*
X27377000Y16820500D02*
Y16939500D01*
X27377500Y16820500D02*
Y16939500D01*
X27378000Y16820500D02*
Y16939500D01*
X27378500Y16820500D02*
Y16939500D01*
X27379000Y16820500D02*
Y16939500D01*
X27379500Y16820500D02*
Y16939500D01*
X27380000Y16820500D02*
Y16939500D01*
X27380500Y16820500D02*
Y16939500D01*
X27381000Y16820500D02*
Y16939500D01*
X27381500Y16820500D02*
Y16939500D01*
X27382000Y16820500D02*
Y16939500D01*
X27382500Y16820500D02*
Y16939500D01*
X27383000Y16820500D02*
Y16939500D01*
X27383500Y16820500D02*
Y16939500D01*
X27384000Y16820500D02*
Y16939500D01*
X27384500Y16820500D02*
Y16939500D01*
X27385000Y16820500D02*
Y16939500D01*
X27385500Y16820500D02*
Y16939500D01*
X27386000Y16820500D02*
Y16939500D01*
X27386500Y16820500D02*
Y16939500D01*
X27387000Y16820500D02*
Y16939500D01*
X27387500Y16820500D02*
Y16939500D01*
X27388000Y16820500D02*
Y16939500D01*
X27388500Y16820500D02*
Y16939500D01*
X27389000Y16820500D02*
Y16939500D01*
X27389500Y16820500D02*
Y16939500D01*
X27390000Y16820500D02*
Y16939500D01*
X27390500Y16820500D02*
Y16939500D01*
X27391000Y16820500D02*
Y16939500D01*
X27391500Y16820500D02*
Y16939500D01*
X27392000Y16820500D02*
Y16939500D01*
X27392500Y16820500D02*
Y16939500D01*
X27393000Y16820500D02*
Y16939500D01*
X27393500Y16820500D02*
Y16939500D01*
X27394000Y16820500D02*
Y16939500D01*
X27394500Y16820500D02*
Y16939500D01*
X27395000Y16820500D02*
Y16939500D01*
X27395500Y16820500D02*
Y16939500D01*
X27396000Y16820500D02*
Y16939500D01*
X27396500Y16820500D02*
Y16939500D01*
X27397000Y16820500D02*
Y16939500D01*
X27397500Y16820500D02*
Y16939500D01*
X27398000Y16820500D02*
Y16939500D01*
X27398500Y16820500D02*
Y16939500D01*
X27399000Y16820500D02*
Y16939500D01*
X27399500Y16820500D02*
Y16939500D01*
X27400000Y16820500D02*
Y16939500D01*
X27400500Y16820500D02*
Y16939500D01*
X27401000Y16820500D02*
Y16939500D01*
X27401500Y16820500D02*
Y16939500D01*
X27402000Y16820500D02*
Y16939500D01*
X27402500Y16820500D02*
Y16939500D01*
X27403000Y16820500D02*
Y16939500D01*
X27403500Y16820500D02*
Y16939500D01*
X27404000Y16820500D02*
Y16939500D01*
X27404500Y16820500D02*
Y16939500D01*
X27405000Y16820500D02*
Y16939500D01*
X27405500Y16820500D02*
Y16939500D01*
X27406000Y16820500D02*
Y16939500D01*
X27406500Y16820500D02*
Y16939500D01*
X27407000Y16820500D02*
Y16939500D01*
X27407500Y16820500D02*
Y16939500D01*
X27408000Y16820500D02*
Y16939500D01*
X27408500Y16820500D02*
Y16939500D01*
X27409000Y16820500D02*
Y16939500D01*
X27409500Y16820500D02*
Y16939500D01*
X27410000Y16820500D02*
Y16939500D01*
X27410500Y16820500D02*
Y16939500D01*
X27411000Y16820500D02*
Y16939500D01*
X27411500Y16820500D02*
Y16939500D01*
X27412000Y16820500D02*
Y16939500D01*
X27412500Y16820500D02*
Y16939500D01*
X27413000Y16820500D02*
Y16939500D01*
X27413500Y16820500D02*
Y16939500D01*
X27414000Y16820500D02*
Y16939500D01*
X27414500Y16820500D02*
Y16939500D01*
X27415000Y16820500D02*
Y16939500D01*
X27415500Y16820500D02*
Y16939500D01*
X27416000Y16820500D02*
Y16939500D01*
X27416500Y16820500D02*
Y16939500D01*
X27417000Y16820500D02*
Y16939500D01*
X27417500Y16820500D02*
Y16939500D01*
X27418000Y16820500D02*
Y16939500D01*
X27418500Y16820500D02*
Y16939500D01*
X27419000Y16820500D02*
Y16939500D01*
X27419500Y16820500D02*
Y16939500D01*
X27420000Y16820500D02*
Y16939500D01*
X27420500Y16820500D02*
Y16939500D01*
X27421000Y16820500D02*
Y16939500D01*
X27421500Y16820500D02*
Y16939500D01*
X27422000Y16820500D02*
Y16939500D01*
X27422500Y16820500D02*
Y16939500D01*
X27423000Y16820500D02*
Y16939500D01*
X27423500Y16820500D02*
Y16939500D01*
X27424000Y16820500D02*
Y16939500D01*
X27424500Y16820500D02*
Y16939500D01*
X27425000Y16820500D02*
Y16939500D01*
X27425500Y16820500D02*
Y16939500D01*
X27426000Y16820500D02*
Y16939500D01*
X27426500Y16820500D02*
Y16939500D01*
X27427000Y16820500D02*
Y16939500D01*
X27427500Y16820500D02*
Y16939500D01*
X27428000Y16820500D02*
Y16939500D01*
X27428500Y16820500D02*
Y16939500D01*
X27429000Y16820500D02*
Y16939500D01*
X27429500Y16820500D02*
Y16939500D01*
X27430000Y16820500D02*
Y16939500D01*
X27430500Y16820500D02*
Y16939500D01*
X27431000Y16820500D02*
Y16939500D01*
X27431500Y16820500D02*
Y16939500D01*
X27432000Y16820500D02*
Y16939500D01*
X27432500Y16820500D02*
Y16939500D01*
X27433000Y16820500D02*
Y16939500D01*
X27433500Y16820500D02*
Y16939500D01*
X27434000Y16820500D02*
Y16939500D01*
X27434500Y16820500D02*
Y16939500D01*
X27435000Y16820500D02*
Y16939500D01*
X27435500Y16820500D02*
Y16939500D01*
X27436000Y16820500D02*
Y16939500D01*
X27436500Y16820500D02*
Y16939500D01*
X27437000Y16820500D02*
Y16939500D01*
X27437500Y16820500D02*
Y16939500D01*
X27438000Y16820500D02*
Y16939500D01*
X27438500Y16820500D02*
Y16939500D01*
X27439000Y16820500D02*
Y16939500D01*
X27439500Y16820500D02*
Y16939500D01*
X27440000Y16820500D02*
Y16939500D01*
X27440500Y16820500D02*
Y16939500D01*
X27441000Y16820500D02*
Y16939500D01*
X27441500Y16820500D02*
Y16939500D01*
X27442000Y16820500D02*
Y16939500D01*
X27442500Y16820500D02*
Y16939500D01*
X27443000Y16820500D02*
Y16939500D01*
X27443500Y16820500D02*
Y16939500D01*
X27444000Y16820500D02*
Y16939500D01*
X27444500Y16820500D02*
Y16939500D01*
X27445000Y16820500D02*
Y16939500D01*
X27445500Y16820500D02*
Y16939500D01*
X27446000Y16820500D02*
Y16939500D01*
X27446500Y16820500D02*
Y16939500D01*
X27447000Y16820500D02*
Y16939500D01*
X27447500Y16820500D02*
Y16939500D01*
X27448000Y16820500D02*
Y16939500D01*
X27448500Y16820500D02*
Y16939500D01*
X27449000Y16820500D02*
Y16939500D01*
X27449500Y16820500D02*
Y16939500D01*
X27450000Y16820500D02*
Y16939500D01*
X27450500Y16820500D02*
Y16939500D01*
X27451000Y16820500D02*
Y16939500D01*
X27451500Y16820500D02*
Y16939500D01*
X27452000Y16820500D02*
Y16939500D01*
X27452500Y16820500D02*
Y16939500D01*
X27453000Y16820500D02*
Y16939500D01*
X27453500Y16820500D02*
Y16939500D01*
X27454000Y16820500D02*
Y16939500D01*
X27454500Y16820500D02*
Y16939500D01*
X27455000Y16820500D02*
Y16939500D01*
X27455500Y16820500D02*
Y16939500D01*
X27456000Y16820500D02*
Y16939500D01*
X27456500Y16820500D02*
Y16939500D01*
X27457000Y16820500D02*
Y16939500D01*
X27457500Y16820500D02*
Y16939500D01*
X27458000Y16820500D02*
Y16939500D01*
X27458500Y16820500D02*
Y16939500D01*
X27459000Y16820500D02*
Y16939500D01*
X27459500Y16980500D02*
Y17099500D01*
X27340500*
Y16980500*
X27459500*
X27340500D02*
Y17099500D01*
X27341000Y16980500D02*
Y17099500D01*
X27341500Y16980500D02*
Y17099500D01*
X27342000Y16980500D02*
Y17099500D01*
X27342500Y16980500D02*
Y17099500D01*
X27343000Y16980500D02*
Y17099500D01*
X27343500Y16980500D02*
Y17099500D01*
X27344000Y16980500D02*
Y17099500D01*
X27344500Y16980500D02*
Y17099500D01*
X27345000Y16980500D02*
Y17099500D01*
X27345500Y16980500D02*
Y17099500D01*
X27346000Y16980500D02*
Y17099500D01*
X27346500Y16980500D02*
Y17099500D01*
X27347000Y16980500D02*
Y17099500D01*
X27347500Y16980500D02*
Y17099500D01*
X27348000Y16980500D02*
Y17099500D01*
X27348500Y16980500D02*
Y17099500D01*
X27349000Y16980500D02*
Y17099500D01*
X27349500Y16980500D02*
Y17099500D01*
X27350000Y16980500D02*
Y17099500D01*
X27350500Y16980500D02*
Y17099500D01*
X27351000Y16980500D02*
Y17099500D01*
X27351500Y16980500D02*
Y17099500D01*
X27352000Y16980500D02*
Y17099500D01*
X27352500Y16980500D02*
Y17099500D01*
X27353000Y16980500D02*
Y17099500D01*
X27353500Y16980500D02*
Y17099500D01*
X27354000Y16980500D02*
Y17099500D01*
X27354500Y16980500D02*
Y17099500D01*
X27355000Y16980500D02*
Y17099500D01*
X27355500Y16980500D02*
Y17099500D01*
X27356000Y16980500D02*
Y17099500D01*
X27356500Y16980500D02*
Y17099500D01*
X27357000Y16980500D02*
Y17099500D01*
X27357500Y16980500D02*
Y17099500D01*
X27358000Y16980500D02*
Y17099500D01*
X27358500Y16980500D02*
Y17099500D01*
X27359000Y16980500D02*
Y17099500D01*
X27359500Y16980500D02*
Y17099500D01*
X27360000Y16980500D02*
Y17099500D01*
X27360500Y16980500D02*
Y17099500D01*
X27361000Y16980500D02*
Y17099500D01*
X27361500Y16980500D02*
Y17099500D01*
X27362000Y16980500D02*
Y17099500D01*
X27362500Y16980500D02*
Y17099500D01*
X27363000Y16980500D02*
Y17099500D01*
X27363500Y16980500D02*
Y17099500D01*
X27364000Y16980500D02*
Y17099500D01*
X27364500Y16980500D02*
Y17099500D01*
X27365000Y16980500D02*
Y17099500D01*
X27365500Y16980500D02*
Y17099500D01*
X27366000Y16980500D02*
Y17099500D01*
X27366500Y16980500D02*
Y17099500D01*
X27367000Y16980500D02*
Y17099500D01*
X27367500Y16980500D02*
Y17099500D01*
X27368000Y16980500D02*
Y17099500D01*
X27368500Y16980500D02*
Y17099500D01*
X27369000Y16980500D02*
Y17099500D01*
X27369500Y16980500D02*
Y17099500D01*
X27370000Y16980500D02*
Y17099500D01*
X27370500Y16980500D02*
Y17099500D01*
X27371000Y16980500D02*
Y17099500D01*
X27371500Y16980500D02*
Y17099500D01*
X27372000Y16980500D02*
Y17099500D01*
X27372500Y16980500D02*
Y17099500D01*
X27373000Y16980500D02*
Y17099500D01*
X27373500Y16980500D02*
Y17099500D01*
X27374000Y16980500D02*
Y17099500D01*
X27374500Y16980500D02*
Y17099500D01*
X27375000Y16980500D02*
Y17099500D01*
X27375500Y16980500D02*
Y17099500D01*
X27376000Y16980500D02*
Y17099500D01*
X27376500Y16980500D02*
Y17099500D01*
X27377000Y16980500D02*
Y17099500D01*
X27377500Y16980500D02*
Y17099500D01*
X27378000Y16980500D02*
Y17099500D01*
X27378500Y16980500D02*
Y17099500D01*
X27379000Y16980500D02*
Y17099500D01*
X27379500Y16980500D02*
Y17099500D01*
X27380000Y16980500D02*
Y17099500D01*
X27380500Y16980500D02*
Y17099500D01*
X27381000Y16980500D02*
Y17099500D01*
X27381500Y16980500D02*
Y17099500D01*
X27382000Y16980500D02*
Y17099500D01*
X27382500Y16980500D02*
Y17099500D01*
X27383000Y16980500D02*
Y17099500D01*
X27383500Y16980500D02*
Y17099500D01*
X27384000Y16980500D02*
Y17099500D01*
X27384500Y16980500D02*
Y17099500D01*
X27385000Y16980500D02*
Y17099500D01*
X27385500Y16980500D02*
Y17099500D01*
X27386000Y16980500D02*
Y17099500D01*
X27386500Y16980500D02*
Y17099500D01*
X27387000Y16980500D02*
Y17099500D01*
X27387500Y16980500D02*
Y17099500D01*
X27388000Y16980500D02*
Y17099500D01*
X27388500Y16980500D02*
Y17099500D01*
X27389000Y16980500D02*
Y17099500D01*
X27389500Y16980500D02*
Y17099500D01*
X27390000Y16980500D02*
Y17099500D01*
X27390500Y16980500D02*
Y17099500D01*
X27391000Y16980500D02*
Y17099500D01*
X27391500Y16980500D02*
Y17099500D01*
X27392000Y16980500D02*
Y17099500D01*
X27392500Y16980500D02*
Y17099500D01*
X27393000Y16980500D02*
Y17099500D01*
X27393500Y16980500D02*
Y17099500D01*
X27394000Y16980500D02*
Y17099500D01*
X27394500Y16980500D02*
Y17099500D01*
X27395000Y16980500D02*
Y17099500D01*
X27395500Y16980500D02*
Y17099500D01*
X27396000Y16980500D02*
Y17099500D01*
X27396500Y16980500D02*
Y17099500D01*
X27397000Y16980500D02*
Y17099500D01*
X27397500Y16980500D02*
Y17099500D01*
X27398000Y16980500D02*
Y17099500D01*
X27398500Y16980500D02*
Y17099500D01*
X27399000Y16980500D02*
Y17099500D01*
X27399500Y16980500D02*
Y17099500D01*
X27400000Y16980500D02*
Y17099500D01*
X27400500Y16980500D02*
Y17099500D01*
X27401000Y16980500D02*
Y17099500D01*
X27401500Y16980500D02*
Y17099500D01*
X27402000Y16980500D02*
Y17099500D01*
X27402500Y16980500D02*
Y17099500D01*
X27403000Y16980500D02*
Y17099500D01*
X27403500Y16980500D02*
Y17099500D01*
X27404000Y16980500D02*
Y17099500D01*
X27404500Y16980500D02*
Y17099500D01*
X27405000Y16980500D02*
Y17099500D01*
X27405500Y16980500D02*
Y17099500D01*
X27406000Y16980500D02*
Y17099500D01*
X27406500Y16980500D02*
Y17099500D01*
X27407000Y16980500D02*
Y17099500D01*
X27407500Y16980500D02*
Y17099500D01*
X27408000Y16980500D02*
Y17099500D01*
X27408500Y16980500D02*
Y17099500D01*
X27409000Y16980500D02*
Y17099500D01*
X27409500Y16980500D02*
Y17099500D01*
X27410000Y16980500D02*
Y17099500D01*
X27410500Y16980500D02*
Y17099500D01*
X27411000Y16980500D02*
Y17099500D01*
X27411500Y16980500D02*
Y17099500D01*
X27412000Y16980500D02*
Y17099500D01*
X27412500Y16980500D02*
Y17099500D01*
X27413000Y16980500D02*
Y17099500D01*
X27413500Y16980500D02*
Y17099500D01*
X27414000Y16980500D02*
Y17099500D01*
X27414500Y16980500D02*
Y17099500D01*
X27415000Y16980500D02*
Y17099500D01*
X27415500Y16980500D02*
Y17099500D01*
X27416000Y16980500D02*
Y17099500D01*
X27416500Y16980500D02*
Y17099500D01*
X27417000Y16980500D02*
Y17099500D01*
X27417500Y16980500D02*
Y17099500D01*
X27418000Y16980500D02*
Y17099500D01*
X27418500Y16980500D02*
Y17099500D01*
X27419000Y16980500D02*
Y17099500D01*
X27419500Y16980500D02*
Y17099500D01*
X27420000Y16980500D02*
Y17099500D01*
X27420500Y16980500D02*
Y17099500D01*
X27421000Y16980500D02*
Y17099500D01*
X27421500Y16980500D02*
Y17099500D01*
X27422000Y16980500D02*
Y17099500D01*
X27422500Y16980500D02*
Y17099500D01*
X27423000Y16980500D02*
Y17099500D01*
X27423500Y16980500D02*
Y17099500D01*
X27424000Y16980500D02*
Y17099500D01*
X27424500Y16980500D02*
Y17099500D01*
X27425000Y16980500D02*
Y17099500D01*
X27425500Y16980500D02*
Y17099500D01*
X27426000Y16980500D02*
Y17099500D01*
X27426500Y16980500D02*
Y17099500D01*
X27427000Y16980500D02*
Y17099500D01*
X27427500Y16980500D02*
Y17099500D01*
X27428000Y16980500D02*
Y17099500D01*
X27428500Y16980500D02*
Y17099500D01*
X27429000Y16980500D02*
Y17099500D01*
X27429500Y16980500D02*
Y17099500D01*
X27430000Y16980500D02*
Y17099500D01*
X27430500Y16980500D02*
Y17099500D01*
X27431000Y16980500D02*
Y17099500D01*
X27431500Y16980500D02*
Y17099500D01*
X27432000Y16980500D02*
Y17099500D01*
X27432500Y16980500D02*
Y17099500D01*
X27433000Y16980500D02*
Y17099500D01*
X27433500Y16980500D02*
Y17099500D01*
X27434000Y16980500D02*
Y17099500D01*
X27434500Y16980500D02*
Y17099500D01*
X27435000Y16980500D02*
Y17099500D01*
X27435500Y16980500D02*
Y17099500D01*
X27436000Y16980500D02*
Y17099500D01*
X27436500Y16980500D02*
Y17099500D01*
X27437000Y16980500D02*
Y17099500D01*
X27437500Y16980500D02*
Y17099500D01*
X27438000Y16980500D02*
Y17099500D01*
X27438500Y16980500D02*
Y17099500D01*
X27439000Y16980500D02*
Y17099500D01*
X27439500Y16980500D02*
Y17099500D01*
X27440000Y16980500D02*
Y17099500D01*
X27440500Y16980500D02*
Y17099500D01*
X27441000Y16980500D02*
Y17099500D01*
X27441500Y16980500D02*
Y17099500D01*
X27442000Y16980500D02*
Y17099500D01*
X27442500Y16980500D02*
Y17099500D01*
X27443000Y16980500D02*
Y17099500D01*
X27443500Y16980500D02*
Y17099500D01*
X27444000Y16980500D02*
Y17099500D01*
X27444500Y16980500D02*
Y17099500D01*
X27445000Y16980500D02*
Y17099500D01*
X27445500Y16980500D02*
Y17099500D01*
X27446000Y16980500D02*
Y17099500D01*
X27446500Y16980500D02*
Y17099500D01*
X27447000Y16980500D02*
Y17099500D01*
X27447500Y16980500D02*
Y17099500D01*
X27448000Y16980500D02*
Y17099500D01*
X27448500Y16980500D02*
Y17099500D01*
X27449000Y16980500D02*
Y17099500D01*
X27449500Y16980500D02*
Y17099500D01*
X27450000Y16980500D02*
Y17099500D01*
X27450500Y16980500D02*
Y17099500D01*
X27451000Y16980500D02*
Y17099500D01*
X27451500Y16980500D02*
Y17099500D01*
X27452000Y16980500D02*
Y17099500D01*
X27452500Y16980500D02*
Y17099500D01*
X27453000Y16980500D02*
Y17099500D01*
X27453500Y16980500D02*
Y17099500D01*
X27454000Y16980500D02*
Y17099500D01*
X27454500Y16980500D02*
Y17099500D01*
X27455000Y16980500D02*
Y17099500D01*
X27455500Y16980500D02*
Y17099500D01*
X27456000Y16980500D02*
Y17099500D01*
X27456500Y16980500D02*
Y17099500D01*
X27457000Y16980500D02*
Y17099500D01*
X27457500Y16980500D02*
Y17099500D01*
X27458000Y16980500D02*
Y17099500D01*
X27458500Y16980500D02*
Y17099500D01*
X27459000Y16980500D02*
Y17099500D01*
X27299500Y16980500D02*
Y17099500D01*
X27180500*
Y16980500*
X27299500*
X27180500D02*
Y17099500D01*
X27181000Y16980500D02*
Y17099500D01*
X27181500Y16980500D02*
Y17099500D01*
X27182000Y16980500D02*
Y17099500D01*
X27182500Y16980500D02*
Y17099500D01*
X27183000Y16980500D02*
Y17099500D01*
X27183500Y16980500D02*
Y17099500D01*
X27184000Y16980500D02*
Y17099500D01*
X27184500Y16980500D02*
Y17099500D01*
X27185000Y16980500D02*
Y17099500D01*
X27185500Y16980500D02*
Y17099500D01*
X27186000Y16980500D02*
Y17099500D01*
X27186500Y16980500D02*
Y17099500D01*
X27187000Y16980500D02*
Y17099500D01*
X27187500Y16980500D02*
Y17099500D01*
X27188000Y16980500D02*
Y17099500D01*
X27188500Y16980500D02*
Y17099500D01*
X27189000Y16980500D02*
Y17099500D01*
X27189500Y16980500D02*
Y17099500D01*
X27190000Y16980500D02*
Y17099500D01*
X27190500Y16980500D02*
Y17099500D01*
X27191000Y16980500D02*
Y17099500D01*
X27191500Y16980500D02*
Y17099500D01*
X27192000Y16980500D02*
Y17099500D01*
X27192500Y16980500D02*
Y17099500D01*
X27193000Y16980500D02*
Y17099500D01*
X27193500Y16980500D02*
Y17099500D01*
X27194000Y16980500D02*
Y17099500D01*
X27194500Y16980500D02*
Y17099500D01*
X27195000Y16980500D02*
Y17099500D01*
X27195500Y16980500D02*
Y17099500D01*
X27196000Y16980500D02*
Y17099500D01*
X27196500Y16980500D02*
Y17099500D01*
X27197000Y16980500D02*
Y17099500D01*
X27197500Y16980500D02*
Y17099500D01*
X27198000Y16980500D02*
Y17099500D01*
X27198500Y16980500D02*
Y17099500D01*
X27199000Y16980500D02*
Y17099500D01*
X27199500Y16980500D02*
Y17099500D01*
X27200000Y16980500D02*
Y17099500D01*
X27200500Y16980500D02*
Y17099500D01*
X27201000Y16980500D02*
Y17099500D01*
X27201500Y16980500D02*
Y17099500D01*
X27202000Y16980500D02*
Y17099500D01*
X27202500Y16980500D02*
Y17099500D01*
X27203000Y16980500D02*
Y17099500D01*
X27203500Y16980500D02*
Y17099500D01*
X27204000Y16980500D02*
Y17099500D01*
X27204500Y16980500D02*
Y17099500D01*
X27205000Y16980500D02*
Y17099500D01*
X27205500Y16980500D02*
Y17099500D01*
X27206000Y16980500D02*
Y17099500D01*
X27206500Y16980500D02*
Y17099500D01*
X27207000Y16980500D02*
Y17099500D01*
X27207500Y16980500D02*
Y17099500D01*
X27208000Y16980500D02*
Y17099500D01*
X27208500Y16980500D02*
Y17099500D01*
X27209000Y16980500D02*
Y17099500D01*
X27209500Y16980500D02*
Y17099500D01*
X27210000Y16980500D02*
Y17099500D01*
X27210500Y16980500D02*
Y17099500D01*
X27211000Y16980500D02*
Y17099500D01*
X27211500Y16980500D02*
Y17099500D01*
X27212000Y16980500D02*
Y17099500D01*
X27212500Y16980500D02*
Y17099500D01*
X27213000Y16980500D02*
Y17099500D01*
X27213500Y16980500D02*
Y17099500D01*
X27214000Y16980500D02*
Y17099500D01*
X27214500Y16980500D02*
Y17099500D01*
X27215000Y16980500D02*
Y17099500D01*
X27215500Y16980500D02*
Y17099500D01*
X27216000Y16980500D02*
Y17099500D01*
X27216500Y16980500D02*
Y17099500D01*
X27217000Y16980500D02*
Y17099500D01*
X27217500Y16980500D02*
Y17099500D01*
X27218000Y16980500D02*
Y17099500D01*
X27218500Y16980500D02*
Y17099500D01*
X27219000Y16980500D02*
Y17099500D01*
X27219500Y16980500D02*
Y17099500D01*
X27220000Y16980500D02*
Y17099500D01*
X27220500Y16980500D02*
Y17099500D01*
X27221000Y16980500D02*
Y17099500D01*
X27221500Y16980500D02*
Y17099500D01*
X27222000Y16980500D02*
Y17099500D01*
X27222500Y16980500D02*
Y17099500D01*
X27223000Y16980500D02*
Y17099500D01*
X27223500Y16980500D02*
Y17099500D01*
X27224000Y16980500D02*
Y17099500D01*
X27224500Y16980500D02*
Y17099500D01*
X27225000Y16980500D02*
Y17099500D01*
X27225500Y16980500D02*
Y17099500D01*
X27226000Y16980500D02*
Y17099500D01*
X27226500Y16980500D02*
Y17099500D01*
X27227000Y16980500D02*
Y17099500D01*
X27227500Y16980500D02*
Y17099500D01*
X27228000Y16980500D02*
Y17099500D01*
X27228500Y16980500D02*
Y17099500D01*
X27229000Y16980500D02*
Y17099500D01*
X27229500Y16980500D02*
Y17099500D01*
X27230000Y16980500D02*
Y17099500D01*
X27230500Y16980500D02*
Y17099500D01*
X27231000Y16980500D02*
Y17099500D01*
X27231500Y16980500D02*
Y17099500D01*
X27232000Y16980500D02*
Y17099500D01*
X27232500Y16980500D02*
Y17099500D01*
X27233000Y16980500D02*
Y17099500D01*
X27233500Y16980500D02*
Y17099500D01*
X27234000Y16980500D02*
Y17099500D01*
X27234500Y16980500D02*
Y17099500D01*
X27235000Y16980500D02*
Y17099500D01*
X27235500Y16980500D02*
Y17099500D01*
X27236000Y16980500D02*
Y17099500D01*
X27236500Y16980500D02*
Y17099500D01*
X27237000Y16980500D02*
Y17099500D01*
X27237500Y16980500D02*
Y17099500D01*
X27238000Y16980500D02*
Y17099500D01*
X27238500Y16980500D02*
Y17099500D01*
X27239000Y16980500D02*
Y17099500D01*
X27239500Y16980500D02*
Y17099500D01*
X27240000Y16980500D02*
Y17099500D01*
X27240500Y16980500D02*
Y17099500D01*
X27241000Y16980500D02*
Y17099500D01*
X27241500Y16980500D02*
Y17099500D01*
X27242000Y16980500D02*
Y17099500D01*
X27242500Y16980500D02*
Y17099500D01*
X27243000Y16980500D02*
Y17099500D01*
X27243500Y16980500D02*
Y17099500D01*
X27244000Y16980500D02*
Y17099500D01*
X27244500Y16980500D02*
Y17099500D01*
X27245000Y16980500D02*
Y17099500D01*
X27245500Y16980500D02*
Y17099500D01*
X27246000Y16980500D02*
Y17099500D01*
X27246500Y16980500D02*
Y17099500D01*
X27247000Y16980500D02*
Y17099500D01*
X27247500Y16980500D02*
Y17099500D01*
X27248000Y16980500D02*
Y17099500D01*
X27248500Y16980500D02*
Y17099500D01*
X27249000Y16980500D02*
Y17099500D01*
X27249500Y16980500D02*
Y17099500D01*
X27250000Y16980500D02*
Y17099500D01*
X27250500Y16980500D02*
Y17099500D01*
X27251000Y16980500D02*
Y17099500D01*
X27251500Y16980500D02*
Y17099500D01*
X27252000Y16980500D02*
Y17099500D01*
X27252500Y16980500D02*
Y17099500D01*
X27253000Y16980500D02*
Y17099500D01*
X27253500Y16980500D02*
Y17099500D01*
X27254000Y16980500D02*
Y17099500D01*
X27254500Y16980500D02*
Y17099500D01*
X27255000Y16980500D02*
Y17099500D01*
X27255500Y16980500D02*
Y17099500D01*
X27256000Y16980500D02*
Y17099500D01*
X27256500Y16980500D02*
Y17099500D01*
X27257000Y16980500D02*
Y17099500D01*
X27257500Y16980500D02*
Y17099500D01*
X27258000Y16980500D02*
Y17099500D01*
X27258500Y16980500D02*
Y17099500D01*
X27259000Y16980500D02*
Y17099500D01*
X27259500Y16980500D02*
Y17099500D01*
X27260000Y16980500D02*
Y17099500D01*
X27260500Y16980500D02*
Y17099500D01*
X27261000Y16980500D02*
Y17099500D01*
X27261500Y16980500D02*
Y17099500D01*
X27262000Y16980500D02*
Y17099500D01*
X27262500Y16980500D02*
Y17099500D01*
X27263000Y16980500D02*
Y17099500D01*
X27263500Y16980500D02*
Y17099500D01*
X27264000Y16980500D02*
Y17099500D01*
X27264500Y16980500D02*
Y17099500D01*
X27265000Y16980500D02*
Y17099500D01*
X27265500Y16980500D02*
Y17099500D01*
X27266000Y16980500D02*
Y17099500D01*
X27266500Y16980500D02*
Y17099500D01*
X27267000Y16980500D02*
Y17099500D01*
X27267500Y16980500D02*
Y17099500D01*
X27268000Y16980500D02*
Y17099500D01*
X27268500Y16980500D02*
Y17099500D01*
X27269000Y16980500D02*
Y17099500D01*
X27269500Y16980500D02*
Y17099500D01*
X27270000Y16980500D02*
Y17099500D01*
X27270500Y16980500D02*
Y17099500D01*
X27271000Y16980500D02*
Y17099500D01*
X27271500Y16980500D02*
Y17099500D01*
X27272000Y16980500D02*
Y17099500D01*
X27272500Y16980500D02*
Y17099500D01*
X27273000Y16980500D02*
Y17099500D01*
X27273500Y16980500D02*
Y17099500D01*
X27274000Y16980500D02*
Y17099500D01*
X27274500Y16980500D02*
Y17099500D01*
X27275000Y16980500D02*
Y17099500D01*
X27275500Y16980500D02*
Y17099500D01*
X27276000Y16980500D02*
Y17099500D01*
X27276500Y16980500D02*
Y17099500D01*
X27277000Y16980500D02*
Y17099500D01*
X27277500Y16980500D02*
Y17099500D01*
X27278000Y16980500D02*
Y17099500D01*
X27278500Y16980500D02*
Y17099500D01*
X27279000Y16980500D02*
Y17099500D01*
X27279500Y16980500D02*
Y17099500D01*
X27280000Y16980500D02*
Y17099500D01*
X27280500Y16980500D02*
Y17099500D01*
X27281000Y16980500D02*
Y17099500D01*
X27281500Y16980500D02*
Y17099500D01*
X27282000Y16980500D02*
Y17099500D01*
X27282500Y16980500D02*
Y17099500D01*
X27283000Y16980500D02*
Y17099500D01*
X27283500Y16980500D02*
Y17099500D01*
X27284000Y16980500D02*
Y17099500D01*
X27284500Y16980500D02*
Y17099500D01*
X27285000Y16980500D02*
Y17099500D01*
X27285500Y16980500D02*
Y17099500D01*
X27286000Y16980500D02*
Y17099500D01*
X27286500Y16980500D02*
Y17099500D01*
X27287000Y16980500D02*
Y17099500D01*
X27287500Y16980500D02*
Y17099500D01*
X27288000Y16980500D02*
Y17099500D01*
X27288500Y16980500D02*
Y17099500D01*
X27289000Y16980500D02*
Y17099500D01*
X27289500Y16980500D02*
Y17099500D01*
X27290000Y16980500D02*
Y17099500D01*
X27290500Y16980500D02*
Y17099500D01*
X27291000Y16980500D02*
Y17099500D01*
X27291500Y16980500D02*
Y17099500D01*
X27292000Y16980500D02*
Y17099500D01*
X27292500Y16980500D02*
Y17099500D01*
X27293000Y16980500D02*
Y17099500D01*
X27293500Y16980500D02*
Y17099500D01*
X27294000Y16980500D02*
Y17099500D01*
X27294500Y16980500D02*
Y17099500D01*
X27295000Y16980500D02*
Y17099500D01*
X27295500Y16980500D02*
Y17099500D01*
X27296000Y16980500D02*
Y17099500D01*
X27296500Y16980500D02*
Y17099500D01*
X27297000Y16980500D02*
Y17099500D01*
X27297500Y16980500D02*
Y17099500D01*
X27298000Y16980500D02*
Y17099500D01*
X27298500Y16980500D02*
Y17099500D01*
X27299000Y16980500D02*
Y17099500D01*
X27299500Y16820500D02*
Y16939500D01*
X27180500*
Y16820500*
X27299500*
X27180500D02*
Y16939500D01*
X27181000Y16820500D02*
Y16939500D01*
X27181500Y16820500D02*
Y16939500D01*
X27182000Y16820500D02*
Y16939500D01*
X27182500Y16820500D02*
Y16939500D01*
X27183000Y16820500D02*
Y16939500D01*
X27183500Y16820500D02*
Y16939500D01*
X27184000Y16820500D02*
Y16939500D01*
X27184500Y16820500D02*
Y16939500D01*
X27185000Y16820500D02*
Y16939500D01*
X27185500Y16820500D02*
Y16939500D01*
X27186000Y16820500D02*
Y16939500D01*
X27186500Y16820500D02*
Y16939500D01*
X27187000Y16820500D02*
Y16939500D01*
X27187500Y16820500D02*
Y16939500D01*
X27188000Y16820500D02*
Y16939500D01*
X27188500Y16820500D02*
Y16939500D01*
X27189000Y16820500D02*
Y16939500D01*
X27189500Y16820500D02*
Y16939500D01*
X27190000Y16820500D02*
Y16939500D01*
X27190500Y16820500D02*
Y16939500D01*
X27191000Y16820500D02*
Y16939500D01*
X27191500Y16820500D02*
Y16939500D01*
X27192000Y16820500D02*
Y16939500D01*
X27192500Y16820500D02*
Y16939500D01*
X27193000Y16820500D02*
Y16939500D01*
X27193500Y16820500D02*
Y16939500D01*
X27194000Y16820500D02*
Y16939500D01*
X27194500Y16820500D02*
Y16939500D01*
X27195000Y16820500D02*
Y16939500D01*
X27195500Y16820500D02*
Y16939500D01*
X27196000Y16820500D02*
Y16939500D01*
X27196500Y16820500D02*
Y16939500D01*
X27197000Y16820500D02*
Y16939500D01*
X27197500Y16820500D02*
Y16939500D01*
X27198000Y16820500D02*
Y16939500D01*
X27198500Y16820500D02*
Y16939500D01*
X27199000Y16820500D02*
Y16939500D01*
X27199500Y16820500D02*
Y16939500D01*
X27200000Y16820500D02*
Y16939500D01*
X27200500Y16820500D02*
Y16939500D01*
X27201000Y16820500D02*
Y16939500D01*
X27201500Y16820500D02*
Y16939500D01*
X27202000Y16820500D02*
Y16939500D01*
X27202500Y16820500D02*
Y16939500D01*
X27203000Y16820500D02*
Y16939500D01*
X27203500Y16820500D02*
Y16939500D01*
X27204000Y16820500D02*
Y16939500D01*
X27204500Y16820500D02*
Y16939500D01*
X27205000Y16820500D02*
Y16939500D01*
X27205500Y16820500D02*
Y16939500D01*
X27206000Y16820500D02*
Y16939500D01*
X27206500Y16820500D02*
Y16939500D01*
X27207000Y16820500D02*
Y16939500D01*
X27207500Y16820500D02*
Y16939500D01*
X27208000Y16820500D02*
Y16939500D01*
X27208500Y16820500D02*
Y16939500D01*
X27209000Y16820500D02*
Y16939500D01*
X27209500Y16820500D02*
Y16939500D01*
X27210000Y16820500D02*
Y16939500D01*
X27210500Y16820500D02*
Y16939500D01*
X27211000Y16820500D02*
Y16939500D01*
X27211500Y16820500D02*
Y16939500D01*
X27212000Y16820500D02*
Y16939500D01*
X27212500Y16820500D02*
Y16939500D01*
X27213000Y16820500D02*
Y16939500D01*
X27213500Y16820500D02*
Y16939500D01*
X27214000Y16820500D02*
Y16939500D01*
X27214500Y16820500D02*
Y16939500D01*
X27215000Y16820500D02*
Y16939500D01*
X27215500Y16820500D02*
Y16939500D01*
X27216000Y16820500D02*
Y16939500D01*
X27216500Y16820500D02*
Y16939500D01*
X27217000Y16820500D02*
Y16939500D01*
X27217500Y16820500D02*
Y16939500D01*
X27218000Y16820500D02*
Y16939500D01*
X27218500Y16820500D02*
Y16939500D01*
X27219000Y16820500D02*
Y16939500D01*
X27219500Y16820500D02*
Y16939500D01*
X27220000Y16820500D02*
Y16939500D01*
X27220500Y16820500D02*
Y16939500D01*
X27221000Y16820500D02*
Y16939500D01*
X27221500Y16820500D02*
Y16939500D01*
X27222000Y16820500D02*
Y16939500D01*
X27222500Y16820500D02*
Y16939500D01*
X27223000Y16820500D02*
Y16939500D01*
X27223500Y16820500D02*
Y16939500D01*
X27224000Y16820500D02*
Y16939500D01*
X27224500Y16820500D02*
Y16939500D01*
X27225000Y16820500D02*
Y16939500D01*
X27225500Y16820500D02*
Y16939500D01*
X27226000Y16820500D02*
Y16939500D01*
X27226500Y16820500D02*
Y16939500D01*
X27227000Y16820500D02*
Y16939500D01*
X27227500Y16820500D02*
Y16939500D01*
X27228000Y16820500D02*
Y16939500D01*
X27228500Y16820500D02*
Y16939500D01*
X27229000Y16820500D02*
Y16939500D01*
X27229500Y16820500D02*
Y16939500D01*
X27230000Y16820500D02*
Y16939500D01*
X27230500Y16820500D02*
Y16939500D01*
X27231000Y16820500D02*
Y16939500D01*
X27231500Y16820500D02*
Y16939500D01*
X27232000Y16820500D02*
Y16939500D01*
X27232500Y16820500D02*
Y16939500D01*
X27233000Y16820500D02*
Y16939500D01*
X27233500Y16820500D02*
Y16939500D01*
X27234000Y16820500D02*
Y16939500D01*
X27234500Y16820500D02*
Y16939500D01*
X27235000Y16820500D02*
Y16939500D01*
X27235500Y16820500D02*
Y16939500D01*
X27236000Y16820500D02*
Y16939500D01*
X27236500Y16820500D02*
Y16939500D01*
X27237000Y16820500D02*
Y16939500D01*
X27237500Y16820500D02*
Y16939500D01*
X27238000Y16820500D02*
Y16939500D01*
X27238500Y16820500D02*
Y16939500D01*
X27239000Y16820500D02*
Y16939500D01*
X27239500Y16820500D02*
Y16939500D01*
X27240000Y16820500D02*
Y16939500D01*
X27240500Y16820500D02*
Y16939500D01*
X27241000Y16820500D02*
Y16939500D01*
X27241500Y16820500D02*
Y16939500D01*
X27242000Y16820500D02*
Y16939500D01*
X27242500Y16820500D02*
Y16939500D01*
X27243000Y16820500D02*
Y16939500D01*
X27243500Y16820500D02*
Y16939500D01*
X27244000Y16820500D02*
Y16939500D01*
X27244500Y16820500D02*
Y16939500D01*
X27245000Y16820500D02*
Y16939500D01*
X27245500Y16820500D02*
Y16939500D01*
X27246000Y16820500D02*
Y16939500D01*
X27246500Y16820500D02*
Y16939500D01*
X27247000Y16820500D02*
Y16939500D01*
X27247500Y16820500D02*
Y16939500D01*
X27248000Y16820500D02*
Y16939500D01*
X27248500Y16820500D02*
Y16939500D01*
X27249000Y16820500D02*
Y16939500D01*
X27249500Y16820500D02*
Y16939500D01*
X27250000Y16820500D02*
Y16939500D01*
X27250500Y16820500D02*
Y16939500D01*
X27251000Y16820500D02*
Y16939500D01*
X27251500Y16820500D02*
Y16939500D01*
X27252000Y16820500D02*
Y16939500D01*
X27252500Y16820500D02*
Y16939500D01*
X27253000Y16820500D02*
Y16939500D01*
X27253500Y16820500D02*
Y16939500D01*
X27254000Y16820500D02*
Y16939500D01*
X27254500Y16820500D02*
Y16939500D01*
X27255000Y16820500D02*
Y16939500D01*
X27255500Y16820500D02*
Y16939500D01*
X27256000Y16820500D02*
Y16939500D01*
X27256500Y16820500D02*
Y16939500D01*
X27257000Y16820500D02*
Y16939500D01*
X27257500Y16820500D02*
Y16939500D01*
X27258000Y16820500D02*
Y16939500D01*
X27258500Y16820500D02*
Y16939500D01*
X27259000Y16820500D02*
Y16939500D01*
X27259500Y16820500D02*
Y16939500D01*
X27260000Y16820500D02*
Y16939500D01*
X27260500Y16820500D02*
Y16939500D01*
X27261000Y16820500D02*
Y16939500D01*
X27261500Y16820500D02*
Y16939500D01*
X27262000Y16820500D02*
Y16939500D01*
X27262500Y16820500D02*
Y16939500D01*
X27263000Y16820500D02*
Y16939500D01*
X27263500Y16820500D02*
Y16939500D01*
X27264000Y16820500D02*
Y16939500D01*
X27264500Y16820500D02*
Y16939500D01*
X27265000Y16820500D02*
Y16939500D01*
X27265500Y16820500D02*
Y16939500D01*
X27266000Y16820500D02*
Y16939500D01*
X27266500Y16820500D02*
Y16939500D01*
X27267000Y16820500D02*
Y16939500D01*
X27267500Y16820500D02*
Y16939500D01*
X27268000Y16820500D02*
Y16939500D01*
X27268500Y16820500D02*
Y16939500D01*
X27269000Y16820500D02*
Y16939500D01*
X27269500Y16820500D02*
Y16939500D01*
X27270000Y16820500D02*
Y16939500D01*
X27270500Y16820500D02*
Y16939500D01*
X27271000Y16820500D02*
Y16939500D01*
X27271500Y16820500D02*
Y16939500D01*
X27272000Y16820500D02*
Y16939500D01*
X27272500Y16820500D02*
Y16939500D01*
X27273000Y16820500D02*
Y16939500D01*
X27273500Y16820500D02*
Y16939500D01*
X27274000Y16820500D02*
Y16939500D01*
X27274500Y16820500D02*
Y16939500D01*
X27275000Y16820500D02*
Y16939500D01*
X27275500Y16820500D02*
Y16939500D01*
X27276000Y16820500D02*
Y16939500D01*
X27276500Y16820500D02*
Y16939500D01*
X27277000Y16820500D02*
Y16939500D01*
X27277500Y16820500D02*
Y16939500D01*
X27278000Y16820500D02*
Y16939500D01*
X27278500Y16820500D02*
Y16939500D01*
X27279000Y16820500D02*
Y16939500D01*
X27279500Y16820500D02*
Y16939500D01*
X27280000Y16820500D02*
Y16939500D01*
X27280500Y16820500D02*
Y16939500D01*
X27281000Y16820500D02*
Y16939500D01*
X27281500Y16820500D02*
Y16939500D01*
X27282000Y16820500D02*
Y16939500D01*
X27282500Y16820500D02*
Y16939500D01*
X27283000Y16820500D02*
Y16939500D01*
X27283500Y16820500D02*
Y16939500D01*
X27284000Y16820500D02*
Y16939500D01*
X27284500Y16820500D02*
Y16939500D01*
X27285000Y16820500D02*
Y16939500D01*
X27285500Y16820500D02*
Y16939500D01*
X27286000Y16820500D02*
Y16939500D01*
X27286500Y16820500D02*
Y16939500D01*
X27287000Y16820500D02*
Y16939500D01*
X27287500Y16820500D02*
Y16939500D01*
X27288000Y16820500D02*
Y16939500D01*
X27288500Y16820500D02*
Y16939500D01*
X27289000Y16820500D02*
Y16939500D01*
X27289500Y16820500D02*
Y16939500D01*
X27290000Y16820500D02*
Y16939500D01*
X27290500Y16820500D02*
Y16939500D01*
X27291000Y16820500D02*
Y16939500D01*
X27291500Y16820500D02*
Y16939500D01*
X27292000Y16820500D02*
Y16939500D01*
X27292500Y16820500D02*
Y16939500D01*
X27293000Y16820500D02*
Y16939500D01*
X27293500Y16820500D02*
Y16939500D01*
X27294000Y16820500D02*
Y16939500D01*
X27294500Y16820500D02*
Y16939500D01*
X27295000Y16820500D02*
Y16939500D01*
X27295500Y16820500D02*
Y16939500D01*
X27296000Y16820500D02*
Y16939500D01*
X27296500Y16820500D02*
Y16939500D01*
X27297000Y16820500D02*
Y16939500D01*
X27297500Y16820500D02*
Y16939500D01*
X27298000Y16820500D02*
Y16939500D01*
X27298500Y16820500D02*
Y16939500D01*
X27299000Y16820500D02*
Y16939500D01*
X27299500Y16660500D02*
Y16779500D01*
X27180500*
Y16660500*
X27299500*
X27180500D02*
Y16779500D01*
X27181000Y16660500D02*
Y16779500D01*
X27181500Y16660500D02*
Y16779500D01*
X27182000Y16660500D02*
Y16779500D01*
X27182500Y16660500D02*
Y16779500D01*
X27183000Y16660500D02*
Y16779500D01*
X27183500Y16660500D02*
Y16779500D01*
X27184000Y16660500D02*
Y16779500D01*
X27184500Y16660500D02*
Y16779500D01*
X27185000Y16660500D02*
Y16779500D01*
X27185500Y16660500D02*
Y16779500D01*
X27186000Y16660500D02*
Y16779500D01*
X27186500Y16660500D02*
Y16779500D01*
X27187000Y16660500D02*
Y16779500D01*
X27187500Y16660500D02*
Y16779500D01*
X27188000Y16660500D02*
Y16779500D01*
X27188500Y16660500D02*
Y16779500D01*
X27189000Y16660500D02*
Y16779500D01*
X27189500Y16660500D02*
Y16779500D01*
X27190000Y16660500D02*
Y16779500D01*
X27190500Y16660500D02*
Y16779500D01*
X27191000Y16660500D02*
Y16779500D01*
X27191500Y16660500D02*
Y16779500D01*
X27192000Y16660500D02*
Y16779500D01*
X27192500Y16660500D02*
Y16779500D01*
X27193000Y16660500D02*
Y16779500D01*
X27193500Y16660500D02*
Y16779500D01*
X27194000Y16660500D02*
Y16779500D01*
X27194500Y16660500D02*
Y16779500D01*
X27195000Y16660500D02*
Y16779500D01*
X27195500Y16660500D02*
Y16779500D01*
X27196000Y16660500D02*
Y16779500D01*
X27196500Y16660500D02*
Y16779500D01*
X27197000Y16660500D02*
Y16779500D01*
X27197500Y16660500D02*
Y16779500D01*
X27198000Y16660500D02*
Y16779500D01*
X27198500Y16660500D02*
Y16779500D01*
X27199000Y16660500D02*
Y16779500D01*
X27199500Y16660500D02*
Y16779500D01*
X27200000Y16660500D02*
Y16779500D01*
X27200500Y16660500D02*
Y16779500D01*
X27201000Y16660500D02*
Y16779500D01*
X27201500Y16660500D02*
Y16779500D01*
X27202000Y16660500D02*
Y16779500D01*
X27202500Y16660500D02*
Y16779500D01*
X27203000Y16660500D02*
Y16779500D01*
X27203500Y16660500D02*
Y16779500D01*
X27204000Y16660500D02*
Y16779500D01*
X27204500Y16660500D02*
Y16779500D01*
X27205000Y16660500D02*
Y16779500D01*
X27205500Y16660500D02*
Y16779500D01*
X27206000Y16660500D02*
Y16779500D01*
X27206500Y16660500D02*
Y16779500D01*
X27207000Y16660500D02*
Y16779500D01*
X27207500Y16660500D02*
Y16779500D01*
X27208000Y16660500D02*
Y16779500D01*
X27208500Y16660500D02*
Y16779500D01*
X27209000Y16660500D02*
Y16779500D01*
X27209500Y16660500D02*
Y16779500D01*
X27210000Y16660500D02*
Y16779500D01*
X27210500Y16660500D02*
Y16779500D01*
X27211000Y16660500D02*
Y16779500D01*
X27211500Y16660500D02*
Y16779500D01*
X27212000Y16660500D02*
Y16779500D01*
X27212500Y16660500D02*
Y16779500D01*
X27213000Y16660500D02*
Y16779500D01*
X27213500Y16660500D02*
Y16779500D01*
X27214000Y16660500D02*
Y16779500D01*
X27214500Y16660500D02*
Y16779500D01*
X27215000Y16660500D02*
Y16779500D01*
X27215500Y16660500D02*
Y16779500D01*
X27216000Y16660500D02*
Y16779500D01*
X27216500Y16660500D02*
Y16779500D01*
X27217000Y16660500D02*
Y16779500D01*
X27217500Y16660500D02*
Y16779500D01*
X27218000Y16660500D02*
Y16779500D01*
X27218500Y16660500D02*
Y16779500D01*
X27219000Y16660500D02*
Y16779500D01*
X27219500Y16660500D02*
Y16779500D01*
X27220000Y16660500D02*
Y16779500D01*
X27220500Y16660500D02*
Y16779500D01*
X27221000Y16660500D02*
Y16779500D01*
X27221500Y16660500D02*
Y16779500D01*
X27222000Y16660500D02*
Y16779500D01*
X27222500Y16660500D02*
Y16779500D01*
X27223000Y16660500D02*
Y16779500D01*
X27223500Y16660500D02*
Y16779500D01*
X27224000Y16660500D02*
Y16779500D01*
X27224500Y16660500D02*
Y16779500D01*
X27225000Y16660500D02*
Y16779500D01*
X27225500Y16660500D02*
Y16779500D01*
X27226000Y16660500D02*
Y16779500D01*
X27226500Y16660500D02*
Y16779500D01*
X27227000Y16660500D02*
Y16779500D01*
X27227500Y16660500D02*
Y16779500D01*
X27228000Y16660500D02*
Y16779500D01*
X27228500Y16660500D02*
Y16779500D01*
X27229000Y16660500D02*
Y16779500D01*
X27229500Y16660500D02*
Y16779500D01*
X27230000Y16660500D02*
Y16779500D01*
X27230500Y16660500D02*
Y16779500D01*
X27231000Y16660500D02*
Y16779500D01*
X27231500Y16660500D02*
Y16779500D01*
X27232000Y16660500D02*
Y16779500D01*
X27232500Y16660500D02*
Y16779500D01*
X27233000Y16660500D02*
Y16779500D01*
X27233500Y16660500D02*
Y16779500D01*
X27234000Y16660500D02*
Y16779500D01*
X27234500Y16660500D02*
Y16779500D01*
X27235000Y16660500D02*
Y16779500D01*
X27235500Y16660500D02*
Y16779500D01*
X27236000Y16660500D02*
Y16779500D01*
X27236500Y16660500D02*
Y16779500D01*
X27237000Y16660500D02*
Y16779500D01*
X27237500Y16660500D02*
Y16779500D01*
X27238000Y16660500D02*
Y16779500D01*
X27238500Y16660500D02*
Y16779500D01*
X27239000Y16660500D02*
Y16779500D01*
X27239500Y16660500D02*
Y16779500D01*
X27240000Y16660500D02*
Y16779500D01*
X27240500Y16660500D02*
Y16779500D01*
X27241000Y16660500D02*
Y16779500D01*
X27241500Y16660500D02*
Y16779500D01*
X27242000Y16660500D02*
Y16779500D01*
X27242500Y16660500D02*
Y16779500D01*
X27243000Y16660500D02*
Y16779500D01*
X27243500Y16660500D02*
Y16779500D01*
X27244000Y16660500D02*
Y16779500D01*
X27244500Y16660500D02*
Y16779500D01*
X27245000Y16660500D02*
Y16779500D01*
X27245500Y16660500D02*
Y16779500D01*
X27246000Y16660500D02*
Y16779500D01*
X27246500Y16660500D02*
Y16779500D01*
X27247000Y16660500D02*
Y16779500D01*
X27247500Y16660500D02*
Y16779500D01*
X27248000Y16660500D02*
Y16779500D01*
X27248500Y16660500D02*
Y16779500D01*
X27249000Y16660500D02*
Y16779500D01*
X27249500Y16660500D02*
Y16779500D01*
X27250000Y16660500D02*
Y16779500D01*
X27250500Y16660500D02*
Y16779500D01*
X27251000Y16660500D02*
Y16779500D01*
X27251500Y16660500D02*
Y16779500D01*
X27252000Y16660500D02*
Y16779500D01*
X27252500Y16660500D02*
Y16779500D01*
X27253000Y16660500D02*
Y16779500D01*
X27253500Y16660500D02*
Y16779500D01*
X27254000Y16660500D02*
Y16779500D01*
X27254500Y16660500D02*
Y16779500D01*
X27255000Y16660500D02*
Y16779500D01*
X27255500Y16660500D02*
Y16779500D01*
X27256000Y16660500D02*
Y16779500D01*
X27256500Y16660500D02*
Y16779500D01*
X27257000Y16660500D02*
Y16779500D01*
X27257500Y16660500D02*
Y16779500D01*
X27258000Y16660500D02*
Y16779500D01*
X27258500Y16660500D02*
Y16779500D01*
X27259000Y16660500D02*
Y16779500D01*
X27259500Y16660500D02*
Y16779500D01*
X27260000Y16660500D02*
Y16779500D01*
X27260500Y16660500D02*
Y16779500D01*
X27261000Y16660500D02*
Y16779500D01*
X27261500Y16660500D02*
Y16779500D01*
X27262000Y16660500D02*
Y16779500D01*
X27262500Y16660500D02*
Y16779500D01*
X27263000Y16660500D02*
Y16779500D01*
X27263500Y16660500D02*
Y16779500D01*
X27264000Y16660500D02*
Y16779500D01*
X27264500Y16660500D02*
Y16779500D01*
X27265000Y16660500D02*
Y16779500D01*
X27265500Y16660500D02*
Y16779500D01*
X27266000Y16660500D02*
Y16779500D01*
X27266500Y16660500D02*
Y16779500D01*
X27267000Y16660500D02*
Y16779500D01*
X27267500Y16660500D02*
Y16779500D01*
X27268000Y16660500D02*
Y16779500D01*
X27268500Y16660500D02*
Y16779500D01*
X27269000Y16660500D02*
Y16779500D01*
X27269500Y16660500D02*
Y16779500D01*
X27270000Y16660500D02*
Y16779500D01*
X27270500Y16660500D02*
Y16779500D01*
X27271000Y16660500D02*
Y16779500D01*
X27271500Y16660500D02*
Y16779500D01*
X27272000Y16660500D02*
Y16779500D01*
X27272500Y16660500D02*
Y16779500D01*
X27273000Y16660500D02*
Y16779500D01*
X27273500Y16660500D02*
Y16779500D01*
X27274000Y16660500D02*
Y16779500D01*
X27274500Y16660500D02*
Y16779500D01*
X27275000Y16660500D02*
Y16779500D01*
X27275500Y16660500D02*
Y16779500D01*
X27276000Y16660500D02*
Y16779500D01*
X27276500Y16660500D02*
Y16779500D01*
X27277000Y16660500D02*
Y16779500D01*
X27277500Y16660500D02*
Y16779500D01*
X27278000Y16660500D02*
Y16779500D01*
X27278500Y16660500D02*
Y16779500D01*
X27279000Y16660500D02*
Y16779500D01*
X27279500Y16660500D02*
Y16779500D01*
X27280000Y16660500D02*
Y16779500D01*
X27280500Y16660500D02*
Y16779500D01*
X27281000Y16660500D02*
Y16779500D01*
X27281500Y16660500D02*
Y16779500D01*
X27282000Y16660500D02*
Y16779500D01*
X27282500Y16660500D02*
Y16779500D01*
X27283000Y16660500D02*
Y16779500D01*
X27283500Y16660500D02*
Y16779500D01*
X27284000Y16660500D02*
Y16779500D01*
X27284500Y16660500D02*
Y16779500D01*
X27285000Y16660500D02*
Y16779500D01*
X27285500Y16660500D02*
Y16779500D01*
X27286000Y16660500D02*
Y16779500D01*
X27286500Y16660500D02*
Y16779500D01*
X27287000Y16660500D02*
Y16779500D01*
X27287500Y16660500D02*
Y16779500D01*
X27288000Y16660500D02*
Y16779500D01*
X27288500Y16660500D02*
Y16779500D01*
X27289000Y16660500D02*
Y16779500D01*
X27289500Y16660500D02*
Y16779500D01*
X27290000Y16660500D02*
Y16779500D01*
X27290500Y16660500D02*
Y16779500D01*
X27291000Y16660500D02*
Y16779500D01*
X27291500Y16660500D02*
Y16779500D01*
X27292000Y16660500D02*
Y16779500D01*
X27292500Y16660500D02*
Y16779500D01*
X27293000Y16660500D02*
Y16779500D01*
X27293500Y16660500D02*
Y16779500D01*
X27294000Y16660500D02*
Y16779500D01*
X27294500Y16660500D02*
Y16779500D01*
X27295000Y16660500D02*
Y16779500D01*
X27295500Y16660500D02*
Y16779500D01*
X27296000Y16660500D02*
Y16779500D01*
X27296500Y16660500D02*
Y16779500D01*
X27297000Y16660500D02*
Y16779500D01*
X27297500Y16660500D02*
Y16779500D01*
X27298000Y16660500D02*
Y16779500D01*
X27298500Y16660500D02*
Y16779500D01*
X27299000Y16660500D02*
Y16779500D01*
G54D12*
G54D16*
X21550274Y13369445D02*
X21744445Y13175274D01*
X21899726Y13330555*
X21705555Y13524726*
X21550274Y13369445*
X21737119Y13182600D02*
X21751771D01*
X21711719Y13208000D02*
X21777171D01*
X21686319Y13233400D02*
X21802571D01*
X21660919Y13258800D02*
X21827971D01*
X21635519Y13284200D02*
X21853371D01*
X21610119Y13309600D02*
X21878771D01*
X21584719Y13335000D02*
X21895281D01*
X21559319Y13360400D02*
X21869881D01*
X21566629Y13385800D02*
X21844481D01*
X21592029Y13411200D02*
X21819081D01*
X21617429Y13436600D02*
X21793681D01*
X21642829Y13462000D02*
X21768281D01*
X21668229Y13487400D02*
X21742881D01*
X21693629Y13512800D02*
X21717481D01*
X21564600Y13355119D02*
Y13383772D01*
X21590000Y13329719D02*
Y13409172D01*
X21615400Y13304319D02*
Y13434572D01*
X21640800Y13278919D02*
Y13459972D01*
X21666200Y13253519D02*
Y13485372D01*
X21691600Y13228119D02*
Y13510772D01*
X21717000Y13202719D02*
Y13513281D01*
X21742400Y13177319D02*
Y13487881D01*
X21767800Y13198629D02*
Y13462481D01*
X21793200Y13224029D02*
Y13437081D01*
X21818600Y13249429D02*
Y13411681D01*
X21844000Y13274829D02*
Y13386281D01*
X21869400Y13300229D02*
Y13360881D01*
X21894800Y13325629D02*
Y13335481D01*
X22270274Y14089445D02*
X22464445Y13895274D01*
X22619726Y14050555*
X22425555Y14244726*
X22270274Y14089445*
X22440519Y13919200D02*
X22488371D01*
X22415119Y13944600D02*
X22513771D01*
X22389719Y13970000D02*
X22539171D01*
X22364319Y13995400D02*
X22564571D01*
X22338919Y14020800D02*
X22589971D01*
X22313519Y14046200D02*
X22615371D01*
X22288119Y14071600D02*
X22598681D01*
X22277829Y14097000D02*
X22573281D01*
X22303229Y14122400D02*
X22547881D01*
X22328629Y14147800D02*
X22522481D01*
X22354029Y14173200D02*
X22497081D01*
X22379429Y14198600D02*
X22471681D01*
X22404829Y14224000D02*
X22446281D01*
X22275800Y14083919D02*
Y14094972D01*
X22301200Y14058519D02*
Y14120372D01*
X22326600Y14033119D02*
Y14145772D01*
X22352000Y14007719D02*
Y14171172D01*
X22377400Y13982319D02*
Y14196572D01*
X22402800Y13956919D02*
Y14221972D01*
X22428200Y13931519D02*
Y14242081D01*
X22453600Y13906119D02*
Y14216681D01*
X22479000Y13909829D02*
Y14191281D01*
X22504400Y13935229D02*
Y14165881D01*
X22529800Y13960629D02*
Y14140481D01*
X22555200Y13986029D02*
Y14115081D01*
X22580600Y14011429D02*
Y14089681D01*
X22606000Y14036829D02*
Y14064281D01*
G54D17*
X27125000Y12165000D02*
X27185000D01*
X27125000Y12115000D02*
X27185000D01*
X27125000Y12065000D02*
X27185000D01*
X27125000Y12015000D02*
X27185000D01*
X27125000Y11965000D02*
X27185000D01*
X27125000Y11915000D02*
X27185000D01*
X27125000Y11865000D02*
X27185000D01*
X27125000Y11815000D02*
X27185000D01*
X27225000Y11715000D02*
Y11775000D01*
X27275000Y11715000D02*
Y11775000D01*
X27325000Y11715000D02*
Y11775000D01*
X27375000Y11715000D02*
Y11775000D01*
X27425000Y11715000D02*
Y11775000D01*
X27475000Y11715000D02*
Y11775000D01*
X27525000Y11715000D02*
Y11775000D01*
X27575000Y11715000D02*
Y11775000D01*
X27615000Y11815000D02*
X27675000D01*
X27615000Y11865000D02*
X27675000D01*
X27615000Y11915000D02*
X27675000D01*
X27615000Y11965000D02*
X27675000D01*
X27615000Y12015000D02*
X27675000D01*
X27615000Y12065000D02*
X27675000D01*
X27615000Y12115000D02*
X27675000D01*
X27615000Y12165000D02*
X27675000D01*
X27575000Y12205000D02*
Y12265000D01*
X27525000Y12205000D02*
Y12265000D01*
X27475000Y12205000D02*
Y12265000D01*
X27425000Y12205000D02*
Y12265000D01*
X27375000Y12205000D02*
Y12265000D01*
X27325000Y12205000D02*
Y12265000D01*
X27275000Y12205000D02*
Y12265000D01*
X27225000Y12205000D02*
Y12265000D01*
X29815000Y20172500D02*
Y20117500D01*
X29765000Y20172500D02*
Y20117500D01*
X29715000Y20172500D02*
Y20117500D01*
X29665000Y20172500D02*
Y20117500D01*
X29615000Y20172500D02*
Y20117500D01*
X29565000Y20172500D02*
Y20117500D01*
X29515000Y20172500D02*
Y20117500D01*
X29465000Y20172500D02*
Y20117500D01*
X29367500Y20075000D02*
X29422500D01*
X29367500Y20025000D02*
X29422500D01*
X29367500Y19975000D02*
X29422500D01*
X29367500Y19925000D02*
X29422500D01*
X29367500Y19875000D02*
X29422500D01*
X29367500Y19825000D02*
X29422500D01*
X29367500Y19775000D02*
X29422500D01*
X29367500Y19725000D02*
X29422500D01*
X29465000Y19682500D02*
Y19627500D01*
X29515000Y19682500D02*
Y19627500D01*
X29565000Y19682500D02*
Y19627500D01*
X29615000Y19682500D02*
Y19627500D01*
X29665000Y19682500D02*
Y19627500D01*
X29715000Y19682500D02*
Y19627500D01*
X29765000Y19682500D02*
Y19627500D01*
X29815000Y19682500D02*
Y19627500D01*
X29857500Y19725000D02*
X29912500D01*
X29857500Y19775000D02*
X29912500D01*
X29857500Y19825000D02*
X29912500D01*
X29857500Y19875000D02*
X29912500D01*
X29857500Y19925000D02*
X29912500D01*
X29857500Y19975000D02*
X29912500D01*
X29857500Y20025000D02*
X29912500D01*
X29857500Y20075000D02*
X29912500D01*
G54D20*
X23425000Y22157500D02*
Y22112500D01*
X23330000Y22157500D02*
Y22112500D01*
X23235000Y22157500D02*
Y22112500D01*
Y21887500D02*
Y21842500D01*
X23425000Y21887500D02*
Y21842500D01*
X22382500Y18405000D02*
X22427500D01*
X22382500Y18310000D02*
X22427500D01*
X22382500Y18215000D02*
X22427500D01*
X22652500D02*
X22697500D01*
X22652500Y18405000D02*
X22697500D01*
X23922500Y17035000D02*
X23967500D01*
X23922500Y16940000D02*
X23967500D01*
X23922500Y16845000D02*
X23967500D01*
X24192500D02*
X24237500D01*
X24192500Y17035000D02*
X24237500D01*
X22779500Y12877500D02*
Y12972500D01*
X22906500Y12877500D02*
Y12972500D01*
X23033500Y12877500D02*
Y12972500D01*
X23160500Y12877500D02*
Y12972500D01*
Y13417500D02*
Y13512500D01*
X23033500Y13417500D02*
Y13512500D01*
X22906500Y13417500D02*
Y13512500D01*
X22779500Y13417500D02*
Y13512500D01*
X24242500Y11095000D02*
X24287500D01*
X24242500Y11000000D02*
X24287500D01*
X24242500Y10905000D02*
X24287500D01*
X24512500D02*
X24557500D01*
X24512500Y11095000D02*
X24557500D01*
X26642500D02*
X26687500D01*
X26642500Y11000000D02*
X26687500D01*
X26642500Y10905000D02*
X26687500D01*
X26912500D02*
X26957500D01*
X26912500Y11095000D02*
X26957500D01*
X25452500D02*
X25497500D01*
X25452500Y11000000D02*
X25497500D01*
X25452500Y10905000D02*
X25497500D01*
X25722500D02*
X25767500D01*
X25722500Y11095000D02*
X25767500D01*
X30242500D02*
X30287500D01*
X30242500Y11000000D02*
X30287500D01*
X30242500Y10905000D02*
X30287500D01*
X30512500D02*
X30557500D01*
X30512500Y11095000D02*
X30557500D01*
X27842500D02*
X27887500D01*
X27842500Y11000000D02*
X27887500D01*
X27842500Y10905000D02*
X27887500D01*
X28112500D02*
X28157500D01*
X28112500Y11095000D02*
X28157500D01*
X29042500D02*
X29087500D01*
X29042500Y11000000D02*
X29087500D01*
X29042500Y10905000D02*
X29087500D01*
X29312500D02*
X29357500D01*
X29312500Y11095000D02*
X29357500D01*
X25512500Y12615000D02*
X25557500D01*
X25512500Y12520000D02*
X25557500D01*
X25512500Y12425000D02*
X25557500D01*
X25782500D02*
X25827500D01*
X25782500Y12615000D02*
X25827500D01*
X31392500Y12785000D02*
X31437500D01*
X31392500Y12690000D02*
X31437500D01*
X31392500Y12595000D02*
X31437500D01*
X31662500D02*
X31707500D01*
X31662500Y12785000D02*
X31707500D01*
X23112500Y20355000D02*
X23157500D01*
X23112500Y20260000D02*
X23157500D01*
X23112500Y20165000D02*
X23157500D01*
X23382500D02*
X23427500D01*
X23382500Y20355000D02*
X23427500D01*
X29032500Y12595000D02*
X29077500D01*
X29032500Y12500000D02*
X29077500D01*
X29032500Y12405000D02*
X29077500D01*
X29302500D02*
X29347500D01*
X29302500Y12595000D02*
X29347500D01*
X29042500Y17514500D02*
X28947500D01*
X29042500Y17641500D02*
X28947500D01*
X29042500Y17768500D02*
X28947500D01*
X29042500Y17895500D02*
X28947500D01*
X28502500D02*
X28407500D01*
X28502500Y17768500D02*
X28407500D01*
X28502500Y17641500D02*
X28407500D01*
X28502500Y17514500D02*
X28407500D01*
X29217500Y18745500D02*
X29312500D01*
X29217500Y18618500D02*
X29312500D01*
X29217500Y18491500D02*
X29312500D01*
X29217500Y18364500D02*
X29312500D01*
X29757500D02*
X29852500D01*
X29757500Y18491500D02*
X29852500D01*
X29757500Y18618500D02*
X29852500D01*
X29757500Y18745500D02*
X29852500D01*
X24340500Y10117500D02*
Y10022500D01*
X24213500Y10117500D02*
Y10022500D01*
X24086500Y10117500D02*
Y10022500D01*
X23959500Y10117500D02*
Y10022500D01*
Y9577500D02*
Y9482500D01*
X24086500Y9577500D02*
Y9482500D01*
X24213500Y9577500D02*
Y9482500D01*
X24340500Y9577500D02*
Y9482500D01*
X25540500Y10117500D02*
Y10022500D01*
X25413500Y10117500D02*
Y10022500D01*
X25286500Y10117500D02*
Y10022500D01*
X25159500Y10117500D02*
Y10022500D01*
Y9577500D02*
Y9482500D01*
X25286500Y9577500D02*
Y9482500D01*
X25413500Y9577500D02*
Y9482500D01*
X25540500Y9577500D02*
Y9482500D01*
X26740500Y10117500D02*
Y10022500D01*
X26613500Y10117500D02*
Y10022500D01*
X26486500Y10117500D02*
Y10022500D01*
X26359500Y10117500D02*
Y10022500D01*
Y9577500D02*
Y9482500D01*
X26486500Y9577500D02*
Y9482500D01*
X26613500Y9577500D02*
Y9482500D01*
X26740500Y9577500D02*
Y9482500D01*
X27940500Y10117500D02*
Y10022500D01*
X27813500Y10117500D02*
Y10022500D01*
X27686500Y10117500D02*
Y10022500D01*
X27559500Y10117500D02*
Y10022500D01*
Y9577500D02*
Y9482500D01*
X27686500Y9577500D02*
Y9482500D01*
X27813500Y9577500D02*
Y9482500D01*
X27940500Y9577500D02*
Y9482500D01*
X29140500Y10117500D02*
Y10022500D01*
X29013500Y10117500D02*
Y10022500D01*
X28886500Y10117500D02*
Y10022500D01*
X28759500Y10117500D02*
Y10022500D01*
Y9577500D02*
Y9482500D01*
X28886500Y9577500D02*
Y9482500D01*
X29013500Y9577500D02*
Y9482500D01*
X29140500Y9577500D02*
Y9482500D01*
X30340500Y10117500D02*
Y10022500D01*
X30213500Y10117500D02*
Y10022500D01*
X30086500Y10117500D02*
Y10022500D01*
X29959500Y10117500D02*
Y10022500D01*
Y9577500D02*
Y9482500D01*
X30086500Y9577500D02*
Y9482500D01*
X30213500Y9577500D02*
Y9482500D01*
X30340500Y9577500D02*
Y9482500D01*
X29140500Y8467500D02*
Y8372500D01*
X29013500Y8467500D02*
Y8372500D01*
X28886500Y8467500D02*
Y8372500D01*
X28759500Y8467500D02*
Y8372500D01*
Y7927500D02*
Y7832500D01*
X28886500Y7927500D02*
Y7832500D01*
X29013500Y7927500D02*
Y7832500D01*
X29140500Y7927500D02*
Y7832500D01*
X30340500Y8467500D02*
Y8372500D01*
X30213500Y8467500D02*
Y8372500D01*
X30086500Y8467500D02*
Y8372500D01*
X29959500Y8467500D02*
Y8372500D01*
Y7927500D02*
Y7832500D01*
X30086500Y7927500D02*
Y7832500D01*
X30213500Y7927500D02*
Y7832500D01*
X30340500Y7927500D02*
Y7832500D01*
X24340500Y8467500D02*
Y8372500D01*
X24213500Y8467500D02*
Y8372500D01*
X24086500Y8467500D02*
Y8372500D01*
X23959500Y8467500D02*
Y8372500D01*
Y7927500D02*
Y7832500D01*
X24086500Y7927500D02*
Y7832500D01*
X24213500Y7927500D02*
Y7832500D01*
X24340500Y7927500D02*
Y7832500D01*
X25540500Y8467500D02*
Y8372500D01*
X25413500Y8467500D02*
Y8372500D01*
X25286500Y8467500D02*
Y8372500D01*
X25159500Y8467500D02*
Y8372500D01*
Y7927500D02*
Y7832500D01*
X25286500Y7927500D02*
Y7832500D01*
X25413500Y7927500D02*
Y7832500D01*
X25540500Y7927500D02*
Y7832500D01*
X26740500Y8467500D02*
Y8372500D01*
X26613500Y8467500D02*
Y8372500D01*
X26486500Y8467500D02*
Y8372500D01*
X26359500Y8467500D02*
Y8372500D01*
Y7927500D02*
Y7832500D01*
X26486500Y7927500D02*
Y7832500D01*
X26613500Y7927500D02*
Y7832500D01*
X26740500Y7927500D02*
Y7832500D01*
X27940500Y8467500D02*
Y8372500D01*
X27813500Y8467500D02*
Y8372500D01*
X27686500Y8467500D02*
Y8372500D01*
X27559500Y8467500D02*
Y8372500D01*
Y7927500D02*
Y7832500D01*
X27686500Y7927500D02*
Y7832500D01*
X27813500Y7927500D02*
Y7832500D01*
X27940500Y7927500D02*
Y7832500D01*
G54D21*
X26595000Y17200000D03*
X26505000D03*
X26595000Y16505000D03*
X26505000D03*
X27380000Y16075000D03*
Y15985000D03*
X28205000Y16730000D03*
X28295000D03*
X28205000Y17030000D03*
X28295000D03*
X28205000Y16630000D03*
X28295000D03*
X28205000Y17130000D03*
X28295000D03*
X26750000Y18495000D03*
Y18405000D03*
X28050000Y18495000D03*
Y18405000D03*
X27630000Y17655000D03*
Y17745000D03*
X28050000Y19305000D03*
Y19395000D03*
X26750000Y19305000D03*
Y19395000D03*
X27805000Y18250000D03*
X27895000D03*
X27840000Y19550000D03*
X27930000D03*
X26995000Y18250000D03*
X26905000D03*
X26995000Y19550000D03*
X26905000D03*
X27175000Y17655000D03*
Y17745000D03*
X26595000Y16705000D03*
X26505000D03*
X27220000Y16075000D03*
Y15985000D03*
X27520000Y17655000D03*
Y17745000D03*
X27540000Y16075000D03*
Y15985000D03*
X27645000Y19550000D03*
X27735000D03*
G54D22*
X22550000Y21665000D02*
Y21675000D01*
X22710000Y21665000D02*
Y21675000D01*
X24105000Y22200000D02*
X24115000D01*
X24105000Y22040000D02*
X24115000D01*
X24105000Y21200000D02*
X24115000D01*
X24105000Y21040000D02*
X24115000D01*
X30685000Y22200000D02*
X30695000D01*
X30685000Y22040000D02*
X30695000D01*
X30685000Y21200000D02*
X30695000D01*
X30685000Y21040000D02*
X30695000D01*
X27670000Y19710000D02*
Y19720000D01*
X27830000Y19710000D02*
Y19720000D01*
X29570000Y20380000D02*
X29560000D01*
X29570000Y20540000D02*
X29560000D01*
X26575000Y16915000D02*
Y16905000D01*
X26415000Y16915000D02*
Y16905000D01*
X22710000Y21855000D02*
Y21845000D01*
X22550000Y21855000D02*
Y21845000D01*
X23805000Y21980000D02*
X23795000D01*
X23805000Y22140000D02*
X23795000D01*
X29230000Y17515000D02*
X29220000D01*
X29230000Y17675000D02*
X29220000D01*
X24695000Y19845000D02*
X24705000D01*
X24695000Y19685000D02*
X24705000D01*
X24855000Y19845000D02*
X24865000D01*
X24855000Y19685000D02*
X24865000D01*
X26240000Y17255000D02*
X26230000D01*
X26240000Y17415000D02*
X26230000D01*
X22975000Y20180000D02*
X22965000D01*
X22975000Y20340000D02*
X22965000D01*
X30570000Y20015000D02*
Y20025000D01*
X30730000Y20015000D02*
Y20025000D01*
X30570000Y19795000D02*
Y19805000D01*
X30730000Y19795000D02*
Y19805000D01*
X30570000Y19575000D02*
Y19585000D01*
X30730000Y19575000D02*
Y19585000D01*
X30570000Y20225000D02*
Y20235000D01*
X30730000Y20225000D02*
Y20235000D01*
Y19395000D02*
Y19385000D01*
X30570000Y19395000D02*
Y19385000D01*
X30730000Y20475000D02*
Y20465000D01*
X30570000Y20475000D02*
Y20465000D01*
X30730000Y20635000D02*
Y20625000D01*
X30570000Y20635000D02*
Y20625000D01*
X29225000Y19730000D02*
X29235000D01*
X29225000Y19570000D02*
X29235000D01*
X23045000Y22030000D02*
X23055000D01*
X23045000Y21870000D02*
X23055000D01*
X26575000Y17075000D02*
Y17065000D01*
X26415000Y17075000D02*
Y17065000D01*
X24400000Y17235000D02*
Y17225000D01*
X24240000Y17235000D02*
Y17225000D01*
X23780000D02*
Y17235000D01*
X23940000Y17225000D02*
Y17235000D01*
X23225000Y21690000D02*
X23235000D01*
X23225000Y21530000D02*
X23235000D01*
X23075000Y20530000D02*
X23065000D01*
X23075000Y20690000D02*
X23065000D01*
X22460000Y18015000D02*
Y18025000D01*
X22620000Y18015000D02*
Y18025000D01*
X23245000Y20690000D02*
X23255000D01*
X23245000Y20530000D02*
X23255000D01*
X30100000Y20290000D02*
X30110000D01*
X30100000Y20130000D02*
X30110000D01*
X28205000Y16500000D02*
Y16510000D01*
X28365000Y16500000D02*
Y16510000D01*
X26630000Y16365000D02*
Y16355000D01*
X26470000Y16365000D02*
Y16355000D01*
X30305000Y19040000D02*
X30295000D01*
X30305000Y19200000D02*
X30295000D01*
X29825000Y19040000D02*
X29815000D01*
X29825000Y19200000D02*
X29815000D01*
X24655000Y18115000D02*
X24665000D01*
X24655000Y17955000D02*
X24665000D01*
X28180000Y18485000D02*
Y18495000D01*
X28340000Y18485000D02*
Y18495000D01*
X28415000Y18170000D02*
X28405000D01*
X28415000Y18330000D02*
X28405000D01*
X22315000Y21620000D02*
X22305000D01*
X22315000Y21780000D02*
X22305000D01*
X29075000Y18475000D02*
X29065000D01*
X29075000Y18635000D02*
X29065000D01*
X22155000Y21620000D02*
X22145000D01*
X22155000Y21780000D02*
X22145000D01*
X28230000Y17515000D02*
X28220000D01*
X28230000Y17675000D02*
X28220000D01*
X23455000Y18115000D02*
X23465000D01*
X23455000Y17955000D02*
X23465000D01*
X23615000Y18115000D02*
X23625000D01*
X23615000Y17955000D02*
X23625000D01*
X24095000Y18115000D02*
X24105000D01*
X24095000Y17955000D02*
X24105000D01*
X24495000Y18115000D02*
X24505000D01*
X24495000Y17955000D02*
X24505000D01*
X25535000Y18115000D02*
X25545000D01*
X25535000Y17955000D02*
X25545000D01*
X23865000Y19685000D02*
X23855000D01*
X23865000Y19845000D02*
X23855000D01*
X24345000Y19685000D02*
X24335000D01*
X24345000Y19845000D02*
X24335000D01*
X24560000Y17225000D02*
Y17235000D01*
X24720000Y17225000D02*
Y17235000D01*
X23620000D02*
Y17225000D01*
X23460000Y17235000D02*
Y17225000D01*
X23055000Y21530000D02*
X23045000D01*
X23055000Y21690000D02*
X23045000D01*
X30140000Y19045000D02*
Y19035000D01*
X29980000Y19045000D02*
Y19035000D01*
X22150000Y21455000D02*
Y21465000D01*
X22310000Y21455000D02*
Y21465000D01*
X25055000Y17490000D02*
X25045000D01*
X25055000Y17650000D02*
X25045000D01*
X25225000Y17490000D02*
X25215000D01*
X25225000Y17650000D02*
X25215000D01*
X25395000Y17490000D02*
X25385000D01*
X25395000Y17650000D02*
X25385000D01*
X29990000Y18745000D02*
Y18755000D01*
X30150000Y18745000D02*
Y18755000D01*
X23945000Y9340000D02*
X23955000D01*
X23945000Y9180000D02*
X23955000D01*
X24105000Y9340000D02*
X24115000D01*
X24105000Y9180000D02*
X24115000D01*
X25145000Y9340000D02*
X25155000D01*
X25145000Y9180000D02*
X25155000D01*
X25305000Y9340000D02*
X25315000D01*
X25305000Y9180000D02*
X25315000D01*
X26345000Y9340000D02*
X26355000D01*
X26345000Y9180000D02*
X26355000D01*
X26505000Y9340000D02*
X26515000D01*
X26505000Y9180000D02*
X26515000D01*
X27545000Y9340000D02*
X27555000D01*
X27545000Y9180000D02*
X27555000D01*
X27705000Y9340000D02*
X27715000D01*
X27705000Y9180000D02*
X27715000D01*
X28745000Y9340000D02*
X28755000D01*
X28745000Y9180000D02*
X28755000D01*
X28905000Y9340000D02*
X28915000D01*
X28905000Y9180000D02*
X28915000D01*
X29945000Y9340000D02*
X29955000D01*
X29945000Y9180000D02*
X29955000D01*
X30105000Y9340000D02*
X30115000D01*
X30105000Y9180000D02*
X30115000D01*
X25754250Y13159750D02*
X25744250D01*
X25754250Y13319750D02*
X25744250D01*
X26008250Y13159750D02*
X25998250D01*
X26008250Y13319750D02*
X25998250D01*
X27024250Y13159750D02*
X27014250D01*
X27024250Y13319750D02*
X27014250D01*
X27278250Y13159750D02*
X27268250D01*
X27278250Y13319750D02*
X27268250D01*
X28548250Y13159750D02*
X28538250D01*
X28548250Y13319750D02*
X28538250D01*
X28294250Y13159750D02*
X28284250D01*
X28294250Y13319750D02*
X28284250D01*
X27532250Y13159750D02*
X27522250D01*
X27532250Y13319750D02*
X27522250D01*
X27786250Y13159750D02*
X27776250D01*
X27786250Y13319750D02*
X27776250D01*
X28802250Y13159750D02*
X28792250D01*
X28802250Y13319750D02*
X28792250D01*
X29056250Y13159750D02*
X29046250D01*
X29056250Y13319750D02*
X29046250D01*
X26516250Y13159750D02*
X26506250D01*
X26516250Y13319750D02*
X26506250D01*
X26262250Y13159750D02*
X26252250D01*
X26262250Y13319750D02*
X26252250D01*
X22565000Y13070000D02*
X22575000D01*
X22565000Y12910000D02*
X22575000D01*
X23365000Y13470000D02*
X23375000D01*
X23365000Y13310000D02*
X23375000D01*
X22895000Y13660000D02*
X22885000D01*
X22895000Y13820000D02*
X22885000D01*
X22725000D02*
X22735000D01*
X22725000Y13660000D02*
X22735000D01*
X23240000Y12735000D02*
Y12725000D01*
X23080000Y12735000D02*
Y12725000D01*
X23205000Y13820000D02*
X23215000D01*
X23205000Y13660000D02*
X23215000D01*
X23365000Y13820000D02*
X23375000D01*
X23365000Y13660000D02*
X23375000D01*
X23055000D02*
X23045000D01*
X23055000Y13820000D02*
X23045000D01*
X23390000Y15865000D02*
Y15855000D01*
X23230000Y15865000D02*
Y15855000D01*
X23976250Y13160000D02*
X23966250D01*
X23976250Y13320000D02*
X23966250D01*
X26105000Y9620000D02*
X26115000D01*
X26105000Y9460000D02*
X26115000D01*
X31990000Y14075000D02*
Y14085000D01*
X32150000Y14075000D02*
Y14085000D01*
X23722250Y13160000D02*
X23712250D01*
X23722250Y13320000D02*
X23712250D01*
X23540000Y15855000D02*
Y15865000D01*
X23700000Y15855000D02*
Y15865000D01*
X28505000Y9620000D02*
X28515000D01*
X28505000Y9460000D02*
X28515000D01*
X29705000Y9620000D02*
X29715000D01*
X29705000Y9460000D02*
X29715000D01*
X30905000Y9620000D02*
X30915000D01*
X30905000Y9460000D02*
X30915000D01*
X24905000Y9620000D02*
X24915000D01*
X24905000Y9460000D02*
X24915000D01*
X27315000Y9620000D02*
X27325000D01*
X27315000Y9460000D02*
X27325000D01*
X32480000Y14305000D02*
X32470000D01*
X32480000Y14465000D02*
X32470000D01*
X31985000Y13920000D02*
X31995000D01*
X31985000Y13760000D02*
X31995000D01*
X27565000Y12420000D02*
X27555000D01*
X27565000Y12580000D02*
X27555000D01*
X26900000Y12235000D02*
Y12225000D01*
X26740000Y12235000D02*
Y12225000D01*
X31125000Y12980000D02*
X31115000D01*
X31125000Y13140000D02*
X31115000D01*
X32145000Y13920000D02*
X32155000D01*
X32145000Y13760000D02*
X32155000D01*
X24620000Y21035000D02*
Y21045000D01*
X24780000Y21035000D02*
Y21045000D01*
X30180000Y22045000D02*
Y22035000D01*
X30020000Y22045000D02*
Y22035000D01*
X30180000Y21045000D02*
Y21035000D01*
X30020000Y21045000D02*
Y21035000D01*
X24620000Y22035000D02*
Y22045000D01*
X24780000Y22035000D02*
Y22045000D01*
X25090000D02*
Y22035000D01*
X24930000Y22045000D02*
Y22035000D01*
X25090000Y21045000D02*
Y21035000D01*
X24930000Y21045000D02*
Y21035000D01*
X29870000Y22045000D02*
Y22035000D01*
X29710000Y22045000D02*
Y22035000D01*
X29870000Y21045000D02*
Y21035000D01*
X29710000Y21045000D02*
Y21035000D01*
X32160000Y14305000D02*
X32150000D01*
X32160000Y14465000D02*
X32150000D01*
X32310000D02*
X32320000D01*
X32310000Y14305000D02*
X32320000D01*
X24375000Y17030000D02*
Y17040000D01*
X24535000Y17030000D02*
Y17040000D01*
X24985000Y17280000D02*
X24995000D01*
X24985000Y17120000D02*
X24995000D01*
X22835000Y18390000D02*
X22845000D01*
X22835000Y18230000D02*
X22845000D01*
X31670000Y15675000D02*
Y15665000D01*
X31510000Y15675000D02*
Y15665000D01*
X30240000D02*
Y15675000D01*
X30400000Y15665000D02*
Y15675000D01*
X29130000D02*
Y15665000D01*
X28970000Y15675000D02*
Y15665000D01*
X27860000Y15675000D02*
Y15665000D01*
X27700000Y15675000D02*
Y15665000D01*
X26590000Y15675000D02*
Y15665000D01*
X26430000Y15675000D02*
Y15665000D01*
X25160000D02*
Y15675000D01*
X25320000Y15665000D02*
Y15675000D01*
X23890000Y15665000D02*
Y15675000D01*
X24050000Y15665000D02*
Y15675000D01*
X23890000Y14325000D02*
Y14335000D01*
X24050000Y14325000D02*
Y14335000D01*
X25160000Y14325000D02*
Y14335000D01*
X25320000Y14325000D02*
Y14335000D01*
X30240000Y14315000D02*
Y14325000D01*
X30400000Y14315000D02*
Y14325000D01*
X29130000Y14335000D02*
Y14325000D01*
X28970000Y14335000D02*
Y14325000D01*
X27860000Y14335000D02*
Y14325000D01*
X27700000Y14335000D02*
Y14325000D01*
X26590000Y14335000D02*
Y14325000D01*
X26430000Y14335000D02*
Y14325000D01*
X31670000Y14335000D02*
Y14325000D01*
X31510000Y14335000D02*
Y14325000D01*
X29820000Y20375000D02*
X29810000D01*
X29820000Y20535000D02*
X29810000D01*
X30095000Y19810000D02*
X30105000D01*
X30095000Y19650000D02*
X30105000D01*
X29145000Y19925000D02*
Y19915000D01*
X28985000Y19925000D02*
Y19915000D01*
X29325000Y9840000D02*
X29315000D01*
X29325000Y10000000D02*
X29315000D01*
X26925000Y9840000D02*
X26915000D01*
X26925000Y10000000D02*
X26915000D01*
X24580000Y7675000D02*
Y7685000D01*
X24740000Y7675000D02*
Y7685000D01*
X26010000Y10415000D02*
Y10405000D01*
X25850000Y10415000D02*
Y10405000D01*
X25210000D02*
Y10415000D01*
X25370000Y10405000D02*
Y10415000D01*
X28800000Y10405000D02*
Y10415000D01*
X28960000Y10405000D02*
Y10415000D01*
X28400000D02*
Y10405000D01*
X28240000Y10415000D02*
Y10405000D01*
X29380000Y7675000D02*
Y7685000D01*
X29540000Y7675000D02*
Y7685000D01*
X28080000Y10415000D02*
Y10405000D01*
X27920000Y10415000D02*
Y10405000D01*
X26880000Y10415000D02*
Y10405000D01*
X26720000Y10415000D02*
Y10405000D01*
X31095000Y6960000D02*
X31085000D01*
X31095000Y7120000D02*
X31085000D01*
X27250000Y20355000D02*
Y20365000D01*
X27410000Y20355000D02*
Y20365000D01*
X27100000D02*
Y20355000D01*
X26940000Y20365000D02*
Y20355000D01*
X26145000Y20370000D02*
X26155000D01*
X26145000Y20210000D02*
X26155000D01*
X26305000Y20370000D02*
X26315000D01*
X26305000Y20210000D02*
X26315000D01*
X26465000Y20370000D02*
X26475000D01*
X26465000Y20210000D02*
X26475000D01*
X26625000Y20370000D02*
X26635000D01*
X26625000Y20210000D02*
X26635000D01*
X26785000Y20370000D02*
X26795000D01*
X26785000Y20210000D02*
X26795000D01*
X27560000Y20355000D02*
Y20365000D01*
X27720000Y20355000D02*
Y20365000D01*
X31095000Y7270000D02*
X31085000D01*
X31095000Y7430000D02*
X31085000D01*
X30570000Y19225000D02*
Y19235000D01*
X30730000Y19225000D02*
Y19235000D01*
X30790000Y12445000D02*
Y12455000D01*
X30950000Y12445000D02*
Y12455000D01*
X31630000Y12975000D02*
Y12965000D01*
X31470000Y12975000D02*
Y12965000D01*
X25780000Y7675000D02*
Y7685000D01*
X25940000Y7675000D02*
Y7685000D01*
X28180000Y7675000D02*
Y7685000D01*
X28340000Y7675000D02*
Y7685000D01*
X30260000Y20465000D02*
Y20475000D01*
X30420000Y20465000D02*
Y20475000D01*
X28990000Y19075000D02*
Y19085000D01*
X29150000Y19075000D02*
Y19085000D01*
X28825000Y20120000D02*
X28815000D01*
X28825000Y20280000D02*
X28815000D01*
X28985000Y20120000D02*
X28975000D01*
X28985000Y20280000D02*
X28975000D01*
X24070000Y8625000D02*
Y8615000D01*
X23910000Y8625000D02*
Y8615000D01*
X25270000Y8625000D02*
Y8615000D01*
X25110000Y8625000D02*
Y8615000D01*
X26470000Y8625000D02*
Y8615000D01*
X26310000Y8625000D02*
Y8615000D01*
X27670000Y8625000D02*
Y8615000D01*
X27510000Y8625000D02*
Y8615000D01*
X28870000Y8625000D02*
Y8615000D01*
X28710000Y8625000D02*
Y8615000D01*
X30070000Y8625000D02*
Y8615000D01*
X29910000Y8625000D02*
Y8615000D01*
X25430000D02*
Y8625000D01*
X25590000Y8615000D02*
Y8625000D01*
X29030000Y8615000D02*
Y8625000D01*
X29190000Y8615000D02*
Y8625000D01*
X24000000Y10405000D02*
Y10415000D01*
X24160000Y10405000D02*
Y10415000D01*
X26400000Y10405000D02*
Y10415000D01*
X26560000Y10405000D02*
Y10415000D01*
X27600000Y10405000D02*
Y10415000D01*
X27760000Y10405000D02*
Y10415000D01*
X30800000D02*
Y10405000D01*
X30640000Y10415000D02*
Y10405000D01*
X24230000Y8615000D02*
Y8625000D01*
X24390000Y8615000D02*
Y8625000D01*
X27830000Y8615000D02*
Y8625000D01*
X27990000Y8615000D02*
Y8625000D01*
X30230000Y8615000D02*
Y8625000D01*
X30390000Y8615000D02*
Y8625000D01*
X26630000Y8615000D02*
Y8625000D01*
X26790000Y8615000D02*
Y8625000D01*
X30000000Y10405000D02*
Y10415000D01*
X30160000Y10405000D02*
Y10415000D01*
X26980000Y7675000D02*
Y7685000D01*
X27140000Y7675000D02*
Y7685000D01*
X27200000Y10415000D02*
Y10405000D01*
X27040000Y10415000D02*
Y10405000D01*
X30480000Y10415000D02*
Y10405000D01*
X30320000Y10415000D02*
Y10405000D01*
X29600000Y10415000D02*
Y10405000D01*
X29440000Y10415000D02*
Y10405000D01*
X27165000Y11330000D02*
X27155000D01*
X27165000Y11490000D02*
X27155000D01*
X28060000Y11595000D02*
Y11585000D01*
X27900000Y11595000D02*
Y11585000D01*
X26740000Y12065000D02*
Y12075000D01*
X26900000Y12065000D02*
Y12075000D01*
X24800000Y10415000D02*
Y10405000D01*
X24640000Y10415000D02*
Y10405000D01*
X28060000Y12075000D02*
Y12065000D01*
X27900000Y12075000D02*
Y12065000D01*
X27645000Y11330000D02*
X27635000D01*
X27645000Y11490000D02*
X27635000D01*
X26740000Y11585000D02*
Y11595000D01*
X26900000Y11585000D02*
Y11595000D01*
X30580000Y7675000D02*
Y7685000D01*
X30740000Y7675000D02*
Y7685000D01*
X28305000Y11080000D02*
X28315000D01*
X28305000Y10920000D02*
X28315000D01*
X24705000Y11080000D02*
X24715000D01*
X24705000Y10920000D02*
X24715000D01*
X28125000Y9840000D02*
X28115000D01*
X28125000Y10000000D02*
X28115000D01*
X29505000Y11080000D02*
X29515000D01*
X29505000Y10920000D02*
X29515000D01*
X24480000Y10415000D02*
Y10405000D01*
X24320000Y10415000D02*
Y10405000D01*
X24525000Y9840000D02*
X24515000D01*
X24525000Y10000000D02*
X24515000D01*
X30525000Y9840000D02*
X30515000D01*
X30525000Y10000000D02*
X30515000D01*
X25725000Y9840000D02*
X25715000D01*
X25725000Y10000000D02*
X25715000D01*
X30705000Y11080000D02*
X30715000D01*
X30705000Y10920000D02*
X30715000D01*
X25915000Y11080000D02*
X25925000D01*
X25915000Y10920000D02*
X25925000D01*
X27105000Y11080000D02*
X27115000D01*
X27105000Y10920000D02*
X27115000D01*
X29280000Y10415000D02*
Y10405000D01*
X29120000Y10415000D02*
Y10405000D01*
X25690000Y10415000D02*
Y10405000D01*
X25530000Y10415000D02*
Y10405000D01*
X26135000Y12470000D02*
X26145000D01*
X26135000Y12310000D02*
X26145000D01*
X25355000Y12620000D02*
X25365000D01*
X25355000Y12460000D02*
X25365000D01*
X25965000Y12620000D02*
X25975000D01*
X25965000Y12460000D02*
X25975000D01*
X26295000Y12470000D02*
X26305000D01*
X26295000Y12310000D02*
X26305000D01*
X26140000Y12615000D02*
Y12625000D01*
X26300000Y12615000D02*
Y12625000D01*
X23530000Y10195000D02*
Y10185000D01*
X23370000Y10195000D02*
Y10185000D01*
X23530000Y9655000D02*
Y9645000D01*
X23370000Y9655000D02*
Y9645000D01*
X30790000Y12785000D02*
Y12795000D01*
X30950000Y12785000D02*
Y12795000D01*
X22790000Y17165000D02*
Y17175000D01*
X22950000Y17165000D02*
Y17175000D01*
X22790000Y17465000D02*
Y17475000D01*
X22950000Y17465000D02*
Y17475000D01*
X27900000Y11905000D02*
Y11915000D01*
X28060000Y11905000D02*
Y11915000D01*
X26900000D02*
Y11905000D01*
X26740000Y11915000D02*
Y11905000D01*
X26900000Y11755000D02*
Y11745000D01*
X26740000Y11755000D02*
Y11745000D01*
X27315000Y11490000D02*
X27325000D01*
X27315000Y11330000D02*
X27325000D01*
X27475000Y11490000D02*
X27485000D01*
X27475000Y11330000D02*
X27485000D01*
X27900000Y11745000D02*
Y11755000D01*
X28060000Y11745000D02*
Y11755000D01*
X27725000Y12420000D02*
X27715000D01*
X27725000Y12580000D02*
X27715000D01*
X29554250Y13320000D02*
X29564250D01*
X29554250Y13160000D02*
X29564250D01*
X24982250Y13320000D02*
X24992250D01*
X24982250Y13160000D02*
X24992250D01*
X30062250Y13320000D02*
X30072250D01*
X30062250Y13160000D02*
X30072250D01*
X29808250Y13320000D02*
X29818250D01*
X29808250Y13160000D02*
X29818250D01*
X22390000Y18675000D02*
Y18685000D01*
X22550000Y18675000D02*
Y18685000D01*
X22390000Y16305000D02*
Y16315000D01*
X22550000Y16305000D02*
Y16315000D01*
X24474250Y13320000D02*
X24484250D01*
X24474250Y13160000D02*
X24484250D01*
X24728250Y13320000D02*
X24738250D01*
X24728250Y13160000D02*
X24738250D01*
X25830000Y20365000D02*
Y20355000D01*
X25670000Y20365000D02*
Y20355000D01*
X30790000Y12615000D02*
Y12625000D01*
X30950000Y12615000D02*
Y12625000D01*
X28125000Y9500000D02*
X28115000D01*
X28125000Y9660000D02*
X28115000D01*
X29325000Y9500000D02*
X29315000D01*
X29325000Y9660000D02*
X29315000D01*
X30525000Y9500000D02*
X30515000D01*
X30525000Y9660000D02*
X30515000D01*
X24525000Y9500000D02*
X24515000D01*
X24525000Y9660000D02*
X24515000D01*
X25725000Y9500000D02*
X25715000D01*
X25725000Y9660000D02*
X25715000D01*
X26925000Y9500000D02*
X26915000D01*
X26925000Y9660000D02*
X26915000D01*
X29485000Y12580000D02*
X29495000D01*
X29485000Y12420000D02*
X29495000D01*
X28965000Y10570000D02*
X28955000D01*
X28965000Y10730000D02*
X28955000D01*
X30165000Y10570000D02*
X30155000D01*
X30165000Y10730000D02*
X30155000D01*
X24165000Y10570000D02*
X24155000D01*
X24165000Y10730000D02*
X24155000D01*
X25375000Y10570000D02*
X25365000D01*
X25375000Y10730000D02*
X25365000D01*
X26565000Y10570000D02*
X26555000D01*
X26565000Y10730000D02*
X26555000D01*
X27765000Y10570000D02*
X27755000D01*
X27765000Y10730000D02*
X27755000D01*
X23925000Y11080000D02*
X23935000D01*
X23925000Y10920000D02*
X23935000D01*
X25135000Y11080000D02*
X25145000D01*
X25135000Y10920000D02*
X25145000D01*
X26325000Y11080000D02*
X26335000D01*
X26325000Y10920000D02*
X26335000D01*
X27525000Y11080000D02*
X27535000D01*
X27525000Y10920000D02*
X27535000D01*
X28725000Y11080000D02*
X28735000D01*
X28725000Y10920000D02*
X28735000D01*
X29925000Y11080000D02*
X29935000D01*
X29925000Y10920000D02*
X29935000D01*
X24085000Y11080000D02*
X24095000D01*
X24085000Y10920000D02*
X24095000D01*
X25295000Y11080000D02*
X25305000D01*
X25295000Y10920000D02*
X25305000D01*
X26485000Y11080000D02*
X26495000D01*
X26485000Y10920000D02*
X26495000D01*
X27685000Y11080000D02*
X27695000D01*
X27685000Y10920000D02*
X27695000D01*
X28885000Y11080000D02*
X28895000D01*
X28885000Y10920000D02*
X28895000D01*
X30085000Y11080000D02*
X30095000D01*
X30085000Y10920000D02*
X30095000D01*
X29435000Y10730000D02*
X29445000D01*
X29435000Y10570000D02*
X29445000D01*
X30635000Y10730000D02*
X30645000D01*
X30635000Y10570000D02*
X30645000D01*
X24635000Y10730000D02*
X24645000D01*
X24635000Y10570000D02*
X24645000D01*
X25845000Y10730000D02*
X25855000D01*
X25845000Y10570000D02*
X25855000D01*
X27035000Y10730000D02*
X27045000D01*
X27035000Y10570000D02*
X27045000D01*
X28235000Y10730000D02*
X28245000D01*
X28235000Y10570000D02*
X28245000D01*
X29285000D02*
X29275000D01*
X29285000Y10730000D02*
X29275000D01*
X30485000Y10570000D02*
X30475000D01*
X30485000Y10730000D02*
X30475000D01*
X24485000Y10570000D02*
X24475000D01*
X24485000Y10730000D02*
X24475000D01*
X25695000Y10570000D02*
X25685000D01*
X25695000Y10730000D02*
X25685000D01*
X26885000Y10570000D02*
X26875000D01*
X26885000Y10730000D02*
X26875000D01*
X28085000Y10570000D02*
X28075000D01*
X28085000Y10730000D02*
X28075000D01*
X29125000Y10570000D02*
X29115000D01*
X29125000Y10730000D02*
X29115000D01*
X30325000Y10570000D02*
X30315000D01*
X30325000Y10730000D02*
X30315000D01*
X24325000Y10570000D02*
X24315000D01*
X24325000Y10730000D02*
X24315000D01*
X25535000Y10570000D02*
X25525000D01*
X25535000Y10730000D02*
X25525000D01*
X26725000Y10570000D02*
X26715000D01*
X26725000Y10730000D02*
X26715000D01*
X27925000Y10570000D02*
X27915000D01*
X27925000Y10730000D02*
X27915000D01*
X28895000Y12420000D02*
X28885000D01*
X28895000Y12580000D02*
X28885000D01*
X28380000Y12425000D02*
Y12415000D01*
X28220000Y12425000D02*
Y12415000D01*
X28525000Y12580000D02*
X28535000D01*
X28525000Y12420000D02*
X28535000D01*
X26470000Y16195000D02*
Y16205000D01*
X26630000Y16195000D02*
Y16205000D01*
X28640000Y16305000D02*
Y16295000D01*
X28480000Y16305000D02*
Y16295000D01*
G54D28*
X23430000Y21610000D02*
Y21690000D01*
X23610000Y21610000D02*
Y21690000D01*
X24320000Y22700000D02*
X24500000D01*
X24900000D02*
X25080000D01*
X24320000Y22300000D02*
X24500000D01*
X24900000D02*
X25080000D01*
X24320000Y21700000D02*
X24500000D01*
X24900000D02*
X25080000D01*
X24320000Y21300000D02*
X24500000D01*
X24900000D02*
X25080000D01*
X29720000Y22700000D02*
X29900000D01*
X30300000D02*
X30480000D01*
X29720000Y22300000D02*
X29900000D01*
X30300000D02*
X30480000D01*
X29720000Y21700000D02*
X29900000D01*
X30300000D02*
X30480000D01*
X29720000Y21300000D02*
X29900000D01*
X30300000D02*
X30480000D01*
X23770000Y21630000D02*
Y21670000D01*
X23950000Y21630000D02*
Y21670000D01*
X22990000Y14250000D02*
Y14290000D01*
X23170000Y14250000D02*
Y14290000D01*
X23610000Y21440000D02*
Y21400000D01*
X23430000Y21440000D02*
Y21400000D01*
X23620000Y20350000D02*
Y20390000D01*
X23800000Y20350000D02*
Y20390000D01*
X23620000Y20560000D02*
Y20600000D01*
X23800000Y20560000D02*
Y20600000D01*
X22950000Y21260000D02*
Y21300000D01*
X23130000Y21260000D02*
Y21300000D01*
X27880000Y12535000D02*
Y12575000D01*
X28060000Y12535000D02*
Y12575000D01*
X27890000Y12230000D02*
Y12270000D01*
X28070000Y12230000D02*
Y12270000D01*
X23620000Y22150000D02*
X23660000D01*
X23620000Y21970000D02*
X23660000D01*
X31610000Y11800000D02*
X31430000D01*
X31030000D02*
X30850000D01*
X31610000Y12200000D02*
X31430000D01*
X31030000D02*
X30850000D01*
X22800000Y16930000D02*
X22980000D01*
X23380000D02*
X23560000D01*
X22800000Y16530000D02*
X22980000D01*
X23380000D02*
X23560000D01*
X29330000Y12190000D02*
Y12230000D01*
X29510000Y12190000D02*
Y12230000D01*
X28730000Y12410000D02*
X28690000D01*
X28730000Y12590000D02*
X28690000D01*
G54D29*
X23460000Y18295000D02*
Y18365000D01*
X23540000Y18295000D02*
Y18365000D01*
X23620000Y18295000D02*
Y18365000D01*
X23700000Y18295000D02*
Y18365000D01*
X23780000Y18295000D02*
Y18365000D01*
X23860000Y18295000D02*
Y18365000D01*
X23940000Y18295000D02*
Y18365000D01*
X24020000Y18295000D02*
Y18365000D01*
X24100000Y18295000D02*
Y18365000D01*
X24180000Y18295000D02*
Y18365000D01*
X24260000Y18295000D02*
Y18365000D01*
X24340000Y18295000D02*
Y18365000D01*
X24420000Y18295000D02*
Y18365000D01*
X24500000Y18295000D02*
Y18365000D01*
X24580000Y18295000D02*
Y18365000D01*
X24660000Y18295000D02*
Y18365000D01*
X24740000Y18295000D02*
Y18365000D01*
X24820000Y18295000D02*
Y18365000D01*
X24900000Y18295000D02*
Y18365000D01*
X24980000Y18295000D02*
Y18365000D01*
X25060000Y18295000D02*
Y18365000D01*
X25140000Y18295000D02*
Y18365000D01*
X25220000Y18295000D02*
Y18365000D01*
X25300000Y18295000D02*
Y18365000D01*
X25380000Y18295000D02*
Y18365000D01*
X25460000Y18295000D02*
Y18365000D01*
X25540000Y18295000D02*
Y18365000D01*
Y19435000D02*
Y19505000D01*
X25460000Y19435000D02*
Y19505000D01*
X25380000Y19435000D02*
Y19505000D01*
X25300000Y19435000D02*
Y19505000D01*
X25220000Y19435000D02*
Y19505000D01*
X25140000Y19435000D02*
Y19505000D01*
X25060000Y19435000D02*
Y19505000D01*
X24980000Y19435000D02*
Y19505000D01*
X24900000Y19435000D02*
Y19505000D01*
X24820000Y19435000D02*
Y19505000D01*
X24740000Y19435000D02*
Y19505000D01*
X24660000Y19435000D02*
Y19505000D01*
X24580000Y19435000D02*
Y19505000D01*
X24500000Y19435000D02*
Y19505000D01*
X24420000Y19435000D02*
Y19505000D01*
X24340000Y19435000D02*
Y19505000D01*
X24260000Y19435000D02*
Y19505000D01*
X24180000Y19435000D02*
Y19505000D01*
X24100000Y19435000D02*
Y19505000D01*
X24020000Y19435000D02*
Y19505000D01*
X23940000Y19435000D02*
Y19505000D01*
X23860000Y19435000D02*
Y19505000D01*
X23780000Y19435000D02*
Y19505000D01*
X23700000Y19435000D02*
Y19505000D01*
X23620000Y19435000D02*
Y19505000D01*
X23540000Y19435000D02*
Y19505000D01*
X23460000Y19435000D02*
Y19505000D01*
G54D30*
X29114750Y15535000D02*
Y15405000D01*
X28987750Y15535000D02*
Y15405000D01*
X28860750Y15535000D02*
Y15405000D01*
X28733750Y15535000D02*
Y15405000D01*
X28606750Y15535000D02*
Y15405000D01*
X28479750Y15535000D02*
Y15405000D01*
X28352750Y15535000D02*
Y15405000D01*
X28225750Y15535000D02*
Y15405000D01*
Y14595000D02*
Y14465000D01*
X28352750Y14595000D02*
Y14465000D01*
X28479750Y14595000D02*
Y14465000D01*
X28606750Y14595000D02*
Y14465000D01*
X28733750Y14595000D02*
Y14465000D01*
X28860750Y14595000D02*
Y14465000D01*
X28987750Y14595000D02*
Y14465000D01*
X29114750Y14595000D02*
Y14465000D01*
X24415750D02*
Y14595000D01*
X24542750Y14465000D02*
Y14595000D01*
X24669750Y14465000D02*
Y14595000D01*
X24796750Y14465000D02*
Y14595000D01*
X24923750Y14465000D02*
Y14595000D01*
X25050750Y14465000D02*
Y14595000D01*
X25177750Y14465000D02*
Y14595000D01*
X25304750Y14465000D02*
Y14595000D01*
Y15405000D02*
Y15535000D01*
X25177750Y15405000D02*
Y15535000D01*
X25050750Y15405000D02*
Y15535000D01*
X24923750Y15405000D02*
Y15535000D01*
X24796750Y15405000D02*
Y15535000D01*
X24669750Y15405000D02*
Y15535000D01*
X24542750Y15405000D02*
Y15535000D01*
X24415750Y15405000D02*
Y15535000D01*
X31654750D02*
Y15405000D01*
X31527750Y15535000D02*
Y15405000D01*
X31400750Y15535000D02*
Y15405000D01*
X31273750Y15535000D02*
Y15405000D01*
X31146750Y15535000D02*
Y15405000D01*
X31019750Y15535000D02*
Y15405000D01*
X30892750Y15535000D02*
Y15405000D01*
X30765750Y15535000D02*
Y15405000D01*
Y14595000D02*
Y14465000D01*
X30892750Y14595000D02*
Y14465000D01*
X31019750Y14595000D02*
Y14465000D01*
X31146750Y14595000D02*
Y14465000D01*
X31273750Y14595000D02*
Y14465000D01*
X31400750Y14595000D02*
Y14465000D01*
X31527750Y14595000D02*
Y14465000D01*
X31654750Y14595000D02*
Y14465000D01*
X29495750D02*
Y14595000D01*
X29622750Y14465000D02*
Y14595000D01*
X29749750Y14465000D02*
Y14595000D01*
X29876750Y14465000D02*
Y14595000D01*
X30003750Y14465000D02*
Y14595000D01*
X30130750Y14465000D02*
Y14595000D01*
X30257750Y14465000D02*
Y14595000D01*
X30384750Y14465000D02*
Y14595000D01*
Y15405000D02*
Y15535000D01*
X30257750Y15405000D02*
Y15535000D01*
X30130750Y15405000D02*
Y15535000D01*
X30003750Y15405000D02*
Y15535000D01*
X29876750Y15405000D02*
Y15535000D01*
X29749750Y15405000D02*
Y15535000D01*
X29622750Y15405000D02*
Y15535000D01*
X29495750Y15405000D02*
Y15535000D01*
X27844750D02*
Y15405000D01*
X27717750Y15535000D02*
Y15405000D01*
X27590750Y15535000D02*
Y15405000D01*
X27463750Y15535000D02*
Y15405000D01*
X27336750Y15535000D02*
Y15405000D01*
X27209750Y15535000D02*
Y15405000D01*
X27082750Y15535000D02*
Y15405000D01*
X26955750Y15535000D02*
Y15405000D01*
Y14595000D02*
Y14465000D01*
X27082750Y14595000D02*
Y14465000D01*
X27209750Y14595000D02*
Y14465000D01*
X27336750Y14595000D02*
Y14465000D01*
X27463750Y14595000D02*
Y14465000D01*
X27590750Y14595000D02*
Y14465000D01*
X27717750Y14595000D02*
Y14465000D01*
X27844750Y14595000D02*
Y14465000D01*
X26574750Y15535000D02*
Y15405000D01*
X26447750Y15535000D02*
Y15405000D01*
X26320750Y15535000D02*
Y15405000D01*
X26193750Y15535000D02*
Y15405000D01*
X26066750Y15535000D02*
Y15405000D01*
X25939750Y15535000D02*
Y15405000D01*
X25812750Y15535000D02*
Y15405000D01*
X25685750Y15535000D02*
Y15405000D01*
Y14595000D02*
Y14465000D01*
X25812750Y14595000D02*
Y14465000D01*
X25939750Y14595000D02*
Y14465000D01*
X26066750Y14595000D02*
Y14465000D01*
X26193750Y14595000D02*
Y14465000D01*
X26320750Y14595000D02*
Y14465000D01*
X26447750Y14595000D02*
Y14465000D01*
X26574750Y14595000D02*
Y14465000D01*
X24034750Y15535000D02*
Y15405000D01*
X23907750Y15535000D02*
Y15405000D01*
X23780750Y15535000D02*
Y15405000D01*
X23653750Y15535000D02*
Y15405000D01*
X23526750Y15535000D02*
Y15405000D01*
X23399750Y15535000D02*
Y15405000D01*
X23272750Y15535000D02*
Y15405000D01*
X23145750Y15535000D02*
Y15405000D01*
Y14595000D02*
Y14465000D01*
X23272750Y14595000D02*
Y14465000D01*
X23399750Y14595000D02*
Y14465000D01*
X23526750Y14595000D02*
Y14465000D01*
X23653750Y14595000D02*
Y14465000D01*
X23780750Y14595000D02*
Y14465000D01*
X23907750Y14595000D02*
Y14465000D01*
X24034750Y14595000D02*
Y14465000D01*
G54D31*
X23100000Y21030000D02*
Y20950000D01*
X23450000Y17590000D02*
X23790000D01*
X24390000D02*
X24730000D01*
X23190000Y22610000D02*
X23280000D01*
X23540000D02*
X23630000D01*
X32160000Y13250000D02*
Y13160000D01*
Y12900000D02*
Y12810000D01*
X26570000Y12620000D02*
X26660000D01*
X26920000D02*
X27010000D01*
G54D34*
X25145000Y16950000D02*
Y17000000D01*
X25195000Y16950000D02*
Y17000000D01*
X25245000Y16950000D02*
Y17000000D01*
X25295000Y16950000D02*
Y17000000D01*
Y17260000D02*
Y17310000D01*
X25245000Y17260000D02*
Y17310000D01*
X25195000Y17260000D02*
Y17310000D01*
X25145000Y17260000D02*
Y17310000D01*
X27775000Y17515000D02*
Y17385000D01*
X27725000Y17515000D02*
Y17385000D01*
X27675000Y17515000D02*
Y17385000D01*
X27625000Y17515000D02*
Y17385000D01*
X27575000Y17515000D02*
Y17385000D01*
X27525000Y17515000D02*
Y17385000D01*
X27475000Y17515000D02*
Y17385000D01*
X27425000Y17515000D02*
Y17385000D01*
X27375000Y17515000D02*
Y17385000D01*
X27325000Y17515000D02*
Y17385000D01*
X27275000Y17515000D02*
Y17385000D01*
X27225000Y17515000D02*
Y17385000D01*
X27175000Y17515000D02*
Y17385000D01*
X27125000Y17515000D02*
Y17385000D01*
X27075000Y17515000D02*
Y17385000D01*
X27025000Y17515000D02*
Y17385000D01*
X26765000Y17255000D02*
X26895000D01*
X26765000Y17205000D02*
X26895000D01*
X26765000Y17155000D02*
X26895000D01*
X26765000Y17105000D02*
X26895000D01*
X26765000Y17055000D02*
X26895000D01*
X26765000Y17005000D02*
X26895000D01*
X26765000Y16955000D02*
X26895000D01*
X26765000Y16905000D02*
X26895000D01*
X26765000Y16855000D02*
X26895000D01*
X26765000Y16805000D02*
X26895000D01*
X26765000Y16755000D02*
X26895000D01*
X26765000Y16705000D02*
X26895000D01*
X26765000Y16655000D02*
X26895000D01*
X26765000Y16605000D02*
X26895000D01*
X26765000Y16555000D02*
X26895000D01*
X26765000Y16505000D02*
X26895000D01*
X27025000Y16375000D02*
Y16245000D01*
X27075000Y16375000D02*
Y16245000D01*
X27125000Y16375000D02*
Y16245000D01*
X27175000Y16375000D02*
Y16245000D01*
X27225000Y16375000D02*
Y16245000D01*
X27275000Y16375000D02*
Y16245000D01*
X27325000Y16375000D02*
Y16245000D01*
X27375000Y16375000D02*
Y16245000D01*
X27425000Y16375000D02*
Y16245000D01*
X27475000Y16375000D02*
Y16245000D01*
X27525000Y16375000D02*
Y16245000D01*
X27575000Y16375000D02*
Y16245000D01*
X27625000Y16375000D02*
Y16245000D01*
X27675000Y16375000D02*
Y16245000D01*
X27725000Y16375000D02*
Y16245000D01*
X27775000Y16375000D02*
Y16245000D01*
X27905000Y16505000D02*
X28035000D01*
X27905000Y16555000D02*
X28035000D01*
X27905000Y16605000D02*
X28035000D01*
X27905000Y16655000D02*
X28035000D01*
X27905000Y16705000D02*
X28035000D01*
X27905000Y16755000D02*
X28035000D01*
X27905000Y16805000D02*
X28035000D01*
X27905000Y16855000D02*
X28035000D01*
X27905000Y16905000D02*
X28035000D01*
X27905000Y16955000D02*
X28035000D01*
X27905000Y17005000D02*
X28035000D01*
X27905000Y17055000D02*
X28035000D01*
X27905000Y17105000D02*
X28035000D01*
X27905000Y17155000D02*
X28035000D01*
X27905000Y17205000D02*
X28035000D01*
X27905000Y17255000D02*
X28035000D01*
X26925000Y18425000D03*
X27025000D03*
X27075000D03*
X27125000D03*
X27175000D03*
X27225000D03*
X27275000D03*
X27325000D03*
X27375000D03*
X27425000D03*
X27475000D03*
X27525000D03*
X27575000D03*
X27625000D03*
X27675000D03*
X27725000D03*
X27775000D03*
X27875000D03*
Y18525000D03*
Y18575000D03*
Y18625000D03*
Y18675000D03*
Y18725000D03*
Y18775000D03*
Y18825000D03*
Y18875000D03*
Y18925000D03*
Y18975000D03*
Y19025000D03*
Y19075000D03*
Y19125000D03*
Y19175000D03*
Y19225000D03*
Y19275000D03*
Y19375000D03*
X27775000D03*
X27725000D03*
X27675000D03*
X27625000D03*
X27575000D03*
X27525000D03*
X27475000D03*
X27425000D03*
X27375000D03*
X27325000D03*
X27275000D03*
X27225000D03*
X27175000D03*
X27125000D03*
X27075000D03*
X27025000D03*
X26925000D03*
Y19275000D03*
Y19225000D03*
Y19175000D03*
Y19125000D03*
Y19075000D03*
Y19025000D03*
Y18975000D03*
Y18925000D03*
Y18875000D03*
Y18825000D03*
Y18775000D03*
Y18725000D03*
Y18675000D03*
Y18625000D03*
Y18575000D03*
Y18525000D03*
X27075000Y18500000D03*
X27125000D03*
X27175000D03*
X27225000D03*
X27275000D03*
X27325000D03*
X27375000D03*
X27425000D03*
X27475000D03*
X27525000D03*
X27575000D03*
X27625000D03*
X27675000D03*
X27725000D03*
X27800000Y18575000D03*
Y18625000D03*
Y18675000D03*
Y18725000D03*
Y18775000D03*
Y18825000D03*
Y18875000D03*
Y18925000D03*
Y18975000D03*
Y19025000D03*
Y19075000D03*
Y19125000D03*
Y19175000D03*
Y19225000D03*
X27725000Y19300000D03*
X27675000D03*
X27625000D03*
X27575000D03*
X27525000D03*
X27475000D03*
X27425000D03*
X27375000D03*
X27325000D03*
X27275000D03*
X27225000D03*
X27175000D03*
X27125000D03*
X27075000D03*
X27000000Y19225000D03*
Y19175000D03*
Y19125000D03*
Y19075000D03*
Y19025000D03*
Y18975000D03*
Y18925000D03*
Y18875000D03*
Y18825000D03*
Y18775000D03*
Y18725000D03*
Y18675000D03*
Y18625000D03*
Y18575000D03*
G54D35*
X22415000Y17835000D02*
X22455000D01*
X22415000Y17770000D02*
X22455000D01*
X22415000Y17705000D02*
X22455000D01*
X22625000D02*
X22665000D01*
X22625000Y17770000D02*
X22665000D01*
X22625000Y17835000D02*
X22665000D01*
X32302750Y13480000D02*
Y13600000D01*
X32366250Y13480000D02*
Y13600000D01*
X32429750Y13480000D02*
Y13600000D01*
X32493250Y13480000D02*
Y13600000D01*
X32556750Y13480000D02*
Y13600000D01*
X32620250Y13480000D02*
Y13600000D01*
X32683750Y13480000D02*
Y13600000D01*
X32747250Y13480000D02*
Y13600000D01*
Y14020000D02*
Y14140000D01*
X32683750Y14020000D02*
Y14140000D01*
X32620250Y14020000D02*
Y14140000D01*
X32556750Y14020000D02*
Y14140000D01*
X32493250Y14020000D02*
Y14140000D01*
X32429750Y14020000D02*
Y14140000D01*
X32366250Y14020000D02*
Y14140000D01*
X32302750Y14020000D02*
Y14140000D01*
X30935000Y13185000D02*
Y13145000D01*
X30870000Y13185000D02*
Y13145000D01*
X30805000Y13185000D02*
Y13145000D01*
Y12975000D02*
Y12935000D01*
X30870000Y12975000D02*
Y12935000D01*
X30935000Y12975000D02*
Y12935000D01*
X22415000Y17535000D02*
X22455000D01*
X22415000Y17470000D02*
X22455000D01*
X22415000Y17405000D02*
X22455000D01*
X22625000D02*
X22665000D01*
X22625000Y17470000D02*
X22665000D01*
X22625000Y17535000D02*
X22665000D01*
X22415000Y17235000D02*
X22455000D01*
X22415000Y17170000D02*
X22455000D01*
X22415000Y17105000D02*
X22455000D01*
X22625000D02*
X22665000D01*
X22625000Y17170000D02*
X22665000D01*
X22625000Y17235000D02*
X22665000D01*
G54D36*
X23590000Y9825000D02*
X23550000D01*
X23590000Y10015000D02*
X23550000D01*
X23350000Y9920000D02*
X23310000D01*
G54D37*
X23265000Y20895000D02*
X23235000D01*
X23265000Y20990000D02*
X23235000D01*
X23265000Y21085000D02*
X23235000D01*
X22965000D02*
X22935000D01*
X22965000Y20990000D02*
X22935000D01*
X22965000Y20895000D02*
X22935000D01*
G54D48*
X22095000Y21215000D02*
X22205000D01*
X21645000D02*
X21755000D01*
G54D49*
X21690000Y20350000D02*
X21710000D01*
X22140000D02*
X22160000D01*
G54D51*
X22760000Y21480000D02*
Y21440000D01*
X22500000Y21480000D02*
Y21440000D01*
X22760000Y12710000D02*
Y12670000D01*
X22500000Y12710000D02*
Y12670000D01*
X30740000Y9820000D02*
X30700000D01*
X30740000Y10080000D02*
X30700000D01*
X28340000Y9820000D02*
X28300000D01*
X28340000Y10080000D02*
X28300000D01*
X25940000Y9820000D02*
X25900000D01*
X25940000Y10080000D02*
X25900000D01*
X29540000Y9820000D02*
X29500000D01*
X29540000Y10080000D02*
X29500000D01*
X27140000Y9820000D02*
X27100000D01*
X27140000Y10080000D02*
X27100000D01*
X24740000Y9820000D02*
X24700000D01*
X24740000Y10080000D02*
X24700000D01*
G54D53*
X31495000Y7420000D02*
X31645000D01*
X31495000Y7140000D02*
X31645000D01*
X23155000Y7420000D02*
X23305000D01*
X23155000Y7140000D02*
X23305000D01*
X31635000Y18825000D02*
Y18975000D01*
X31915000Y18825000D02*
Y18975000D01*
X27325000Y7420000D02*
X27475000D01*
X27325000Y7140000D02*
X27475000D01*
G54D56*
X22600000Y20777500D02*
Y20762500D01*
Y20337500D02*
Y20322500D01*
X21740000Y12937500D02*
Y12922500D01*
Y12497500D02*
Y12482500D01*
X21760000Y11727500D02*
Y11712500D01*
Y11287500D02*
Y11272500D01*
X29202500Y9150000D02*
X29217500D01*
X29642500D02*
X29657500D01*
X30402500D02*
X30417500D01*
X30842500D02*
X30857500D01*
X24402500D02*
X24417500D01*
X24842500D02*
X24857500D01*
X25602500D02*
X25617500D01*
X26042500D02*
X26057500D01*
X26802500D02*
X26817500D01*
X27242500D02*
X27257500D01*
X28002500D02*
X28017500D01*
X28442500D02*
X28457500D01*
G54D63*
X23547500Y21085000D02*
X23692500D01*
X23547500Y20795000D02*
X23692500D01*
G54D68*
X27400000Y18900000D03*
G54D71*
X30807500Y7845000D02*
X30592500D01*
X30807500Y8455000D02*
X30592500D01*
X29607500Y7845000D02*
X29392500D01*
X29607500Y8455000D02*
X29392500D01*
X24807500Y7845000D02*
X24592500D01*
X24807500Y8455000D02*
X24592500D01*
X26007500Y7845000D02*
X25792500D01*
X26007500Y8455000D02*
X25792500D01*
X27207500Y7845000D02*
X26992500D01*
X27207500Y8455000D02*
X26992500D01*
X28407500Y7845000D02*
X28192500D01*
X28407500Y8455000D02*
X28192500D01*
G54D72*
X23097000Y13195000D02*
X22843000D01*
G54D73*
X22420000Y13030000D02*
X22410000D01*
X22050000D02*
X22040000D01*
G54D74*
X31570000Y7670000D02*
Y7910000D01*
Y8570000D02*
Y8810000D01*
X23230000Y7670000D02*
Y7910000D01*
Y8570000D02*
Y8810000D01*
G54D82*
X27400000Y11990000D03*
G54D85*
X29640000Y19900000D03*
X0Y0D02*
M02*
