*
*
G04 PADS Layout (Build Number 2008.43.1) generated Gerber (RS-274-X) file*
G04 PC Version=2.1*
*
%IN "XPCB-018.pcb"*%
*
%MOMM*%
*
%FSLAX35Y35*%
*
*
*
*
G04 PC Standard Apertures*
*
*
G04 Thermal Relief Aperture macro.*
%AMTER*
1,1,$1,0,0*
1,0,$1-$2,0,0*
21,0,$3,$4,0,0,45*
21,0,$3,$4,0,0,135*
%
*
*
G04 Annular Aperture macro.*
%AMANN*
1,1,$1,0,0*
1,0,$2,0,0*
%
*
*
G04 Odd Aperture macro.*
%AMODD*
1,1,$1,0,0*
1,0,$1-0.005,0,0*
%
*
*
G04 PC Custom Aperture Macros*
*
*
*
*
*
*
G04 PC Aperture Table*
*
%ADD012C,0.0254*%
%ADD016C,0.254*%
%ADD017C,0.3*%
%ADD018R,1.8X1.8*%
%ADD019C,1.8*%
%ADD020R,0.6X0.6*%
%ADD021R,0.65X0.65*%
%ADD022R,0.9X0.9*%
%ADD028R,1X1*%
%ADD029R,0.55X0.55*%
%ADD030C,0.6*%
%ADD031R,1.6X1.6*%
%ADD033R,2.8X2.8*%
%ADD034R,0.3X0.3*%
%ADD035R,0.4X0.4*%
%ADD036R,0.7X0.7*%
%ADD037R,0.45X0.45*%
%ADD039C,2.8*%
%ADD041C,2*%
%ADD042C,4.8*%
%ADD043C,7*%
%ADD048R,1.7X1.7*%
%ADD049R,2.6X2.6*%
%ADD051R,1.3X1.3*%
%ADD053R,1.2X1.2*%
%ADD054C,1.6*%
%ADD056R,2.05X2.05*%
%ADD059C,3*%
%ADD063R,1.55X1.55*%
%ADD071R,1.25X1.25*%
%ADD072R,2.56X2.56*%
%ADD073R,0.8X0.8*%
%ADD074R,2.1X2.1*%
%ADD075R,5.2X5.2*%
%ADD077C,2.4*%
%ADD078C,1.2*%
%ADD083R,3.25X3.25*%
%ADD089R,3.4X3.4*%
*
*
*
*
G04 PC Circuitry*
G04 Layer Name XPCB-018.pcb - circuitry*
%LPD*%
*
*
G04 PC Custom Flashes*
G04 Layer Name XPCB-018.pcb - flashes*
%LPD*%
*
*
G04 PC Circuitry*
G04 Layer Name XPCB-018.pcb - circuitry*
%LPD*%
*
G54D12*
G54D16*
G01X21550274Y13369445D02*
X21744445Y13175274D01*
X21899726Y13330555*
X21705555Y13524726*
X21550274Y13369445*
X21737119Y13182600D02*
X21751771D01*
X21711719Y13208000D02*
X21777171D01*
X21686319Y13233400D02*
X21802571D01*
X21660919Y13258800D02*
X21827971D01*
X21635519Y13284200D02*
X21853371D01*
X21610119Y13309600D02*
X21878771D01*
X21584719Y13335000D02*
X21895281D01*
X21559319Y13360400D02*
X21869881D01*
X21566629Y13385800D02*
X21844481D01*
X21592029Y13411200D02*
X21819081D01*
X21617429Y13436600D02*
X21793681D01*
X21642829Y13462000D02*
X21768281D01*
X21668229Y13487400D02*
X21742881D01*
X21693629Y13512800D02*
X21717481D01*
X21564600Y13355119D02*
Y13383772D01*
X21590000Y13329719D02*
Y13409172D01*
X21615400Y13304319D02*
Y13434572D01*
X21640800Y13278919D02*
Y13459972D01*
X21666200Y13253519D02*
Y13485372D01*
X21691600Y13228119D02*
Y13510772D01*
X21717000Y13202719D02*
Y13513281D01*
X21742400Y13177319D02*
Y13487881D01*
X21767800Y13198629D02*
Y13462481D01*
X21793200Y13224029D02*
Y13437081D01*
X21818600Y13249429D02*
Y13411681D01*
X21844000Y13274829D02*
Y13386281D01*
X21869400Y13300229D02*
Y13360881D01*
X21894800Y13325629D02*
Y13335481D01*
X22270274Y14089445D02*
X22464445Y13895274D01*
X22619726Y14050555*
X22425555Y14244726*
X22270274Y14089445*
X22440519Y13919200D02*
X22488371D01*
X22415119Y13944600D02*
X22513771D01*
X22389719Y13970000D02*
X22539171D01*
X22364319Y13995400D02*
X22564571D01*
X22338919Y14020800D02*
X22589971D01*
X22313519Y14046200D02*
X22615371D01*
X22288119Y14071600D02*
X22598681D01*
X22277829Y14097000D02*
X22573281D01*
X22303229Y14122400D02*
X22547881D01*
X22328629Y14147800D02*
X22522481D01*
X22354029Y14173200D02*
X22497081D01*
X22379429Y14198600D02*
X22471681D01*
X22404829Y14224000D02*
X22446281D01*
X22275800Y14083919D02*
Y14094972D01*
X22301200Y14058519D02*
Y14120372D01*
X22326600Y14033119D02*
Y14145772D01*
X22352000Y14007719D02*
Y14171172D01*
X22377400Y13982319D02*
Y14196572D01*
X22402800Y13956919D02*
Y14221972D01*
X22428200Y13931519D02*
Y14242081D01*
X22453600Y13906119D02*
Y14216681D01*
X22479000Y13909829D02*
Y14191281D01*
X22504400Y13935229D02*
Y14165881D01*
X22529800Y13960629D02*
Y14140481D01*
X22555200Y13986029D02*
Y14115081D01*
X22580600Y14011429D02*
Y14089681D01*
X22606000Y14036829D02*
Y14064281D01*
G54D17*
X27125000Y12165000D02*
X27185000D01*
X27125000Y12115000D02*
X27185000D01*
X27125000Y12065000D02*
X27185000D01*
X27125000Y12015000D02*
X27185000D01*
X27125000Y11965000D02*
X27185000D01*
X27125000Y11915000D02*
X27185000D01*
X27125000Y11865000D02*
X27185000D01*
X27125000Y11815000D02*
X27185000D01*
X27225000Y11715000D02*
Y11775000D01*
X27275000Y11715000D02*
Y11775000D01*
X27325000Y11715000D02*
Y11775000D01*
X27375000Y11715000D02*
Y11775000D01*
X27425000Y11715000D02*
Y11775000D01*
X27475000Y11715000D02*
Y11775000D01*
X27525000Y11715000D02*
Y11775000D01*
X27575000Y11715000D02*
Y11775000D01*
X27615000Y11815000D02*
X27675000D01*
X27615000Y11865000D02*
X27675000D01*
X27615000Y11915000D02*
X27675000D01*
X27615000Y11965000D02*
X27675000D01*
X27615000Y12015000D02*
X27675000D01*
X27615000Y12065000D02*
X27675000D01*
X27615000Y12115000D02*
X27675000D01*
X27615000Y12165000D02*
X27675000D01*
X27575000Y12205000D02*
Y12265000D01*
X27525000Y12205000D02*
Y12265000D01*
X27475000Y12205000D02*
Y12265000D01*
X27425000Y12205000D02*
Y12265000D01*
X27375000Y12205000D02*
Y12265000D01*
X27325000Y12205000D02*
Y12265000D01*
X27275000Y12205000D02*
Y12265000D01*
X27225000Y12205000D02*
Y12265000D01*
X29815000Y20172500D02*
Y20117500D01*
X29765000Y20172500D02*
Y20117500D01*
X29715000Y20172500D02*
Y20117500D01*
X29665000Y20172500D02*
Y20117500D01*
X29615000Y20172500D02*
Y20117500D01*
X29565000Y20172500D02*
Y20117500D01*
X29515000Y20172500D02*
Y20117500D01*
X29465000Y20172500D02*
Y20117500D01*
X29367500Y20075000D02*
X29422500D01*
X29367500Y20025000D02*
X29422500D01*
X29367500Y19975000D02*
X29422500D01*
X29367500Y19925000D02*
X29422500D01*
X29367500Y19875000D02*
X29422500D01*
X29367500Y19825000D02*
X29422500D01*
X29367500Y19775000D02*
X29422500D01*
X29367500Y19725000D02*
X29422500D01*
X29465000Y19682500D02*
Y19627500D01*
X29515000Y19682500D02*
Y19627500D01*
X29565000Y19682500D02*
Y19627500D01*
X29615000Y19682500D02*
Y19627500D01*
X29665000Y19682500D02*
Y19627500D01*
X29715000Y19682500D02*
Y19627500D01*
X29765000Y19682500D02*
Y19627500D01*
X29815000Y19682500D02*
Y19627500D01*
X29857500Y19725000D02*
X29912500D01*
X29857500Y19775000D02*
X29912500D01*
X29857500Y19825000D02*
X29912500D01*
X29857500Y19875000D02*
X29912500D01*
X29857500Y19925000D02*
X29912500D01*
X29857500Y19975000D02*
X29912500D01*
X29857500Y20025000D02*
X29912500D01*
X29857500Y20075000D02*
X29912500D01*
G54D18*
X22127000Y16057000D03*
X30550000Y12747000D03*
X31477000Y21642000D03*
Y21388000D03*
X30829250Y14064000D03*
X29559250D03*
X29813250D03*
X30067250D03*
X30321250D03*
X29051250D03*
X28797250D03*
X28543250D03*
X28289250D03*
X27781250D03*
X23971250D03*
X27527250D03*
X27273250D03*
X27019250D03*
X26511250D03*
X26257250D03*
X26003250D03*
X25749250D03*
X24479250D03*
X24733250D03*
X24987250D03*
X25241250D03*
X23717250D03*
X31591250D03*
X31337250D03*
X31083250D03*
X22757000Y14430000D03*
Y15570000D03*
X22053000Y22150000D03*
X32493000D03*
G54D19*
X21873000Y16057000D03*
X22127000Y16311000D03*
X21873000D03*
X22127000Y16565000D03*
X21873000D03*
X22127000Y16819000D03*
X21873000D03*
X22127000Y17073000D03*
X21873000D03*
X22127000Y17327000D03*
X21873000D03*
X22127000Y17581000D03*
X21873000D03*
X22127000Y17835000D03*
X21873000D03*
X22127000Y18089000D03*
X21873000D03*
X22127000Y18343000D03*
X21873000D03*
X33268000Y19237000D03*
Y19491000D03*
Y20309000D03*
Y20563000D03*
X30550000Y12493000D03*
X29535000Y18130000D03*
X29281000D03*
X29789000D03*
X31731000Y21642000D03*
X31985000D03*
X32239000D03*
X32493000D03*
X32747000D03*
X31731000Y21388000D03*
X31985000D03*
X32239000D03*
X32493000D03*
X32747000D03*
X30829250Y13810000D03*
Y13556000D03*
X29559250Y13810000D03*
Y13556000D03*
X29813250Y13810000D03*
Y13556000D03*
X30067250Y13810000D03*
Y13556000D03*
X30321250Y13810000D03*
Y13556000D03*
X29051250Y13810000D03*
Y13556000D03*
X28797250Y13810000D03*
Y13556000D03*
X28543250Y13810000D03*
Y13556000D03*
X28289250Y13810000D03*
Y13556000D03*
X27781250Y13810000D03*
Y13556000D03*
X23971250Y13810000D03*
Y13556000D03*
X27527250Y13810000D03*
Y13556000D03*
X27273250Y13810000D03*
Y13556000D03*
X27019250Y13810000D03*
Y13556000D03*
X26511250Y13810000D03*
Y13556000D03*
X26257250Y13810000D03*
Y13556000D03*
X26003250Y13810000D03*
Y13556000D03*
X25749250Y13810000D03*
Y13556000D03*
X24479250Y13810000D03*
Y13556000D03*
X24733250Y13810000D03*
Y13556000D03*
X24987250Y13810000D03*
Y13556000D03*
X25241250Y13810000D03*
Y13556000D03*
X23717250Y13810000D03*
Y13556000D03*
X31591250Y13810000D03*
Y13556000D03*
X31337250Y13810000D03*
Y13556000D03*
X31083250Y13810000D03*
Y13556000D03*
X22503000Y14430000D03*
Y15570000D03*
X22307000Y22150000D03*
X32747000D03*
X24714000Y20710000D03*
X24460000Y20456000D03*
X33160000Y7840000D03*
X24714000Y20456000D03*
X24440000Y16820000D03*
X24694000D03*
X33160000Y8094000D03*
Y8348000D03*
Y8602000D03*
X24460000Y20710000D03*
X33160000Y8856000D03*
Y9110000D03*
G54D20*
X23425000Y22157500D02*
Y22112500D01*
X23330000Y22157500D02*
Y22112500D01*
X23235000Y22157500D02*
Y22112500D01*
Y21887500D02*
Y21842500D01*
X23425000Y21887500D02*
Y21842500D01*
X22382500Y18405000D02*
X22427500D01*
X22382500Y18310000D02*
X22427500D01*
X22382500Y18215000D02*
X22427500D01*
X22652500D02*
X22697500D01*
X22652500Y18405000D02*
X22697500D01*
X23922500Y17035000D02*
X23967500D01*
X23922500Y16940000D02*
X23967500D01*
X23922500Y16845000D02*
X23967500D01*
X24192500D02*
X24237500D01*
X24192500Y17035000D02*
X24237500D01*
X22779500Y12877500D02*
Y12972500D01*
X22906500Y12877500D02*
Y12972500D01*
X23033500Y12877500D02*
Y12972500D01*
X23160500Y12877500D02*
Y12972500D01*
Y13417500D02*
Y13512500D01*
X23033500Y13417500D02*
Y13512500D01*
X22906500Y13417500D02*
Y13512500D01*
X22779500Y13417500D02*
Y13512500D01*
X24242500Y11095000D02*
X24287500D01*
X24242500Y11000000D02*
X24287500D01*
X24242500Y10905000D02*
X24287500D01*
X24512500D02*
X24557500D01*
X24512500Y11095000D02*
X24557500D01*
X26642500D02*
X26687500D01*
X26642500Y11000000D02*
X26687500D01*
X26642500Y10905000D02*
X26687500D01*
X26912500D02*
X26957500D01*
X26912500Y11095000D02*
X26957500D01*
X25452500D02*
X25497500D01*
X25452500Y11000000D02*
X25497500D01*
X25452500Y10905000D02*
X25497500D01*
X25722500D02*
X25767500D01*
X25722500Y11095000D02*
X25767500D01*
X30242500D02*
X30287500D01*
X30242500Y11000000D02*
X30287500D01*
X30242500Y10905000D02*
X30287500D01*
X30512500D02*
X30557500D01*
X30512500Y11095000D02*
X30557500D01*
X27842500D02*
X27887500D01*
X27842500Y11000000D02*
X27887500D01*
X27842500Y10905000D02*
X27887500D01*
X28112500D02*
X28157500D01*
X28112500Y11095000D02*
X28157500D01*
X29042500D02*
X29087500D01*
X29042500Y11000000D02*
X29087500D01*
X29042500Y10905000D02*
X29087500D01*
X29312500D02*
X29357500D01*
X29312500Y11095000D02*
X29357500D01*
X25512500Y12615000D02*
X25557500D01*
X25512500Y12520000D02*
X25557500D01*
X25512500Y12425000D02*
X25557500D01*
X25782500D02*
X25827500D01*
X25782500Y12615000D02*
X25827500D01*
X31392500Y12785000D02*
X31437500D01*
X31392500Y12690000D02*
X31437500D01*
X31392500Y12595000D02*
X31437500D01*
X31662500D02*
X31707500D01*
X31662500Y12785000D02*
X31707500D01*
X23112500Y20355000D02*
X23157500D01*
X23112500Y20260000D02*
X23157500D01*
X23112500Y20165000D02*
X23157500D01*
X23382500D02*
X23427500D01*
X23382500Y20355000D02*
X23427500D01*
X29032500Y12595000D02*
X29077500D01*
X29032500Y12500000D02*
X29077500D01*
X29032500Y12405000D02*
X29077500D01*
X29302500D02*
X29347500D01*
X29302500Y12595000D02*
X29347500D01*
X29042500Y17514500D02*
X28947500D01*
X29042500Y17641500D02*
X28947500D01*
X29042500Y17768500D02*
X28947500D01*
X29042500Y17895500D02*
X28947500D01*
X28502500D02*
X28407500D01*
X28502500Y17768500D02*
X28407500D01*
X28502500Y17641500D02*
X28407500D01*
X28502500Y17514500D02*
X28407500D01*
X29217500Y18745500D02*
X29312500D01*
X29217500Y18618500D02*
X29312500D01*
X29217500Y18491500D02*
X29312500D01*
X29217500Y18364500D02*
X29312500D01*
X29757500D02*
X29852500D01*
X29757500Y18491500D02*
X29852500D01*
X29757500Y18618500D02*
X29852500D01*
X29757500Y18745500D02*
X29852500D01*
X24340500Y10117500D02*
Y10022500D01*
X24213500Y10117500D02*
Y10022500D01*
X24086500Y10117500D02*
Y10022500D01*
X23959500Y10117500D02*
Y10022500D01*
Y9577500D02*
Y9482500D01*
X24086500Y9577500D02*
Y9482500D01*
X24213500Y9577500D02*
Y9482500D01*
X24340500Y9577500D02*
Y9482500D01*
X25540500Y10117500D02*
Y10022500D01*
X25413500Y10117500D02*
Y10022500D01*
X25286500Y10117500D02*
Y10022500D01*
X25159500Y10117500D02*
Y10022500D01*
Y9577500D02*
Y9482500D01*
X25286500Y9577500D02*
Y9482500D01*
X25413500Y9577500D02*
Y9482500D01*
X25540500Y9577500D02*
Y9482500D01*
X26740500Y10117500D02*
Y10022500D01*
X26613500Y10117500D02*
Y10022500D01*
X26486500Y10117500D02*
Y10022500D01*
X26359500Y10117500D02*
Y10022500D01*
Y9577500D02*
Y9482500D01*
X26486500Y9577500D02*
Y9482500D01*
X26613500Y9577500D02*
Y9482500D01*
X26740500Y9577500D02*
Y9482500D01*
X27940500Y10117500D02*
Y10022500D01*
X27813500Y10117500D02*
Y10022500D01*
X27686500Y10117500D02*
Y10022500D01*
X27559500Y10117500D02*
Y10022500D01*
Y9577500D02*
Y9482500D01*
X27686500Y9577500D02*
Y9482500D01*
X27813500Y9577500D02*
Y9482500D01*
X27940500Y9577500D02*
Y9482500D01*
X29140500Y10117500D02*
Y10022500D01*
X29013500Y10117500D02*
Y10022500D01*
X28886500Y10117500D02*
Y10022500D01*
X28759500Y10117500D02*
Y10022500D01*
Y9577500D02*
Y9482500D01*
X28886500Y9577500D02*
Y9482500D01*
X29013500Y9577500D02*
Y9482500D01*
X29140500Y9577500D02*
Y9482500D01*
X30340500Y10117500D02*
Y10022500D01*
X30213500Y10117500D02*
Y10022500D01*
X30086500Y10117500D02*
Y10022500D01*
X29959500Y10117500D02*
Y10022500D01*
Y9577500D02*
Y9482500D01*
X30086500Y9577500D02*
Y9482500D01*
X30213500Y9577500D02*
Y9482500D01*
X30340500Y9577500D02*
Y9482500D01*
X29140500Y8467500D02*
Y8372500D01*
X29013500Y8467500D02*
Y8372500D01*
X28886500Y8467500D02*
Y8372500D01*
X28759500Y8467500D02*
Y8372500D01*
Y7927500D02*
Y7832500D01*
X28886500Y7927500D02*
Y7832500D01*
X29013500Y7927500D02*
Y7832500D01*
X29140500Y7927500D02*
Y7832500D01*
X30340500Y8467500D02*
Y8372500D01*
X30213500Y8467500D02*
Y8372500D01*
X30086500Y8467500D02*
Y8372500D01*
X29959500Y8467500D02*
Y8372500D01*
Y7927500D02*
Y7832500D01*
X30086500Y7927500D02*
Y7832500D01*
X30213500Y7927500D02*
Y7832500D01*
X30340500Y7927500D02*
Y7832500D01*
X24340500Y8467500D02*
Y8372500D01*
X24213500Y8467500D02*
Y8372500D01*
X24086500Y8467500D02*
Y8372500D01*
X23959500Y8467500D02*
Y8372500D01*
Y7927500D02*
Y7832500D01*
X24086500Y7927500D02*
Y7832500D01*
X24213500Y7927500D02*
Y7832500D01*
X24340500Y7927500D02*
Y7832500D01*
X25540500Y8467500D02*
Y8372500D01*
X25413500Y8467500D02*
Y8372500D01*
X25286500Y8467500D02*
Y8372500D01*
X25159500Y8467500D02*
Y8372500D01*
Y7927500D02*
Y7832500D01*
X25286500Y7927500D02*
Y7832500D01*
X25413500Y7927500D02*
Y7832500D01*
X25540500Y7927500D02*
Y7832500D01*
X26740500Y8467500D02*
Y8372500D01*
X26613500Y8467500D02*
Y8372500D01*
X26486500Y8467500D02*
Y8372500D01*
X26359500Y8467500D02*
Y8372500D01*
Y7927500D02*
Y7832500D01*
X26486500Y7927500D02*
Y7832500D01*
X26613500Y7927500D02*
Y7832500D01*
X26740500Y7927500D02*
Y7832500D01*
X27940500Y8467500D02*
Y8372500D01*
X27813500Y8467500D02*
Y8372500D01*
X27686500Y8467500D02*
Y8372500D01*
X27559500Y8467500D02*
Y8372500D01*
Y7927500D02*
Y7832500D01*
X27686500Y7927500D02*
Y7832500D01*
X27813500Y7927500D02*
Y7832500D01*
X27940500Y7927500D02*
Y7832500D01*
G54D21*
X26595000Y17200000D03*
X26505000D03*
X26595000Y16505000D03*
X26505000D03*
X27380000Y16075000D03*
Y15985000D03*
X28205000Y16730000D03*
X28295000D03*
X28205000Y17030000D03*
X28295000D03*
X28205000Y16630000D03*
X28295000D03*
X28205000Y17130000D03*
X28295000D03*
X26750000Y18495000D03*
Y18405000D03*
X28050000Y18495000D03*
Y18405000D03*
X27630000Y17655000D03*
Y17745000D03*
X28050000Y19305000D03*
Y19395000D03*
X26750000Y19305000D03*
Y19395000D03*
X27805000Y18250000D03*
X27895000D03*
X27840000Y19550000D03*
X27930000D03*
X26995000Y18250000D03*
X26905000D03*
X26995000Y19550000D03*
X26905000D03*
X27175000Y17655000D03*
Y17745000D03*
X26595000Y16705000D03*
X26505000D03*
X27220000Y16075000D03*
Y15985000D03*
X27520000Y17655000D03*
Y17745000D03*
X27540000Y16075000D03*
Y15985000D03*
X27645000Y19550000D03*
X27735000D03*
G54D22*
X27670000Y19710000D02*
Y19720000D01*
X27830000Y19710000D02*
Y19720000D01*
X29570000Y20380000D02*
X29560000D01*
X29570000Y20540000D02*
X29560000D01*
X26575000Y16915000D02*
Y16905000D01*
X26415000Y16915000D02*
Y16905000D01*
X22710000Y21855000D02*
Y21845000D01*
X22550000Y21855000D02*
Y21845000D01*
X23805000Y21980000D02*
X23795000D01*
X23805000Y22140000D02*
X23795000D01*
X29230000Y17515000D02*
X29220000D01*
X29230000Y17675000D02*
X29220000D01*
X24695000Y19845000D02*
X24705000D01*
X24695000Y19685000D02*
X24705000D01*
X24855000Y19845000D02*
X24865000D01*
X24855000Y19685000D02*
X24865000D01*
X26240000Y17255000D02*
X26230000D01*
X26240000Y17415000D02*
X26230000D01*
X22975000Y20180000D02*
X22965000D01*
X22975000Y20340000D02*
X22965000D01*
X30570000Y20015000D02*
Y20025000D01*
X30730000Y20015000D02*
Y20025000D01*
X30570000Y19795000D02*
Y19805000D01*
X30730000Y19795000D02*
Y19805000D01*
X30570000Y19575000D02*
Y19585000D01*
X30730000Y19575000D02*
Y19585000D01*
X30570000Y20225000D02*
Y20235000D01*
X30730000Y20225000D02*
Y20235000D01*
Y19395000D02*
Y19385000D01*
X30570000Y19395000D02*
Y19385000D01*
X30730000Y20475000D02*
Y20465000D01*
X30570000Y20475000D02*
Y20465000D01*
X30730000Y20635000D02*
Y20625000D01*
X30570000Y20635000D02*
Y20625000D01*
X29225000Y19730000D02*
X29235000D01*
X29225000Y19570000D02*
X29235000D01*
X23045000Y22030000D02*
X23055000D01*
X23045000Y21870000D02*
X23055000D01*
X26575000Y17075000D02*
Y17065000D01*
X26415000Y17075000D02*
Y17065000D01*
X24400000Y17235000D02*
Y17225000D01*
X24240000Y17235000D02*
Y17225000D01*
X23780000D02*
Y17235000D01*
X23940000Y17225000D02*
Y17235000D01*
X23225000Y21690000D02*
X23235000D01*
X23225000Y21530000D02*
X23235000D01*
X23075000Y20530000D02*
X23065000D01*
X23075000Y20690000D02*
X23065000D01*
X22460000Y18015000D02*
Y18025000D01*
X22620000Y18015000D02*
Y18025000D01*
X23245000Y20690000D02*
X23255000D01*
X23245000Y20530000D02*
X23255000D01*
X30100000Y20290000D02*
X30110000D01*
X30100000Y20130000D02*
X30110000D01*
X28205000Y16500000D02*
Y16510000D01*
X28365000Y16500000D02*
Y16510000D01*
X26630000Y16365000D02*
Y16355000D01*
X26470000Y16365000D02*
Y16355000D01*
X30305000Y19040000D02*
X30295000D01*
X30305000Y19200000D02*
X30295000D01*
X29825000Y19040000D02*
X29815000D01*
X29825000Y19200000D02*
X29815000D01*
X24655000Y18115000D02*
X24665000D01*
X24655000Y17955000D02*
X24665000D01*
X28180000Y18485000D02*
Y18495000D01*
X28340000Y18485000D02*
Y18495000D01*
X28415000Y18170000D02*
X28405000D01*
X28415000Y18330000D02*
X28405000D01*
X22315000Y21620000D02*
X22305000D01*
X22315000Y21780000D02*
X22305000D01*
X29075000Y18475000D02*
X29065000D01*
X29075000Y18635000D02*
X29065000D01*
X22155000Y21620000D02*
X22145000D01*
X22155000Y21780000D02*
X22145000D01*
X28230000Y17515000D02*
X28220000D01*
X28230000Y17675000D02*
X28220000D01*
X23455000Y18115000D02*
X23465000D01*
X23455000Y17955000D02*
X23465000D01*
X23615000Y18115000D02*
X23625000D01*
X23615000Y17955000D02*
X23625000D01*
X24095000Y18115000D02*
X24105000D01*
X24095000Y17955000D02*
X24105000D01*
X24495000Y18115000D02*
X24505000D01*
X24495000Y17955000D02*
X24505000D01*
X25535000Y18115000D02*
X25545000D01*
X25535000Y17955000D02*
X25545000D01*
X23865000Y19685000D02*
X23855000D01*
X23865000Y19845000D02*
X23855000D01*
X24345000Y19685000D02*
X24335000D01*
X24345000Y19845000D02*
X24335000D01*
X24560000Y17225000D02*
Y17235000D01*
X24720000Y17225000D02*
Y17235000D01*
X23620000D02*
Y17225000D01*
X23460000Y17235000D02*
Y17225000D01*
X23055000Y21530000D02*
X23045000D01*
X23055000Y21690000D02*
X23045000D01*
X30140000Y19045000D02*
Y19035000D01*
X29980000Y19045000D02*
Y19035000D01*
X22150000Y21455000D02*
Y21465000D01*
X22310000Y21455000D02*
Y21465000D01*
X22550000Y21665000D02*
Y21675000D01*
X22710000Y21665000D02*
Y21675000D01*
X25055000Y17490000D02*
X25045000D01*
X25055000Y17650000D02*
X25045000D01*
X25225000Y17490000D02*
X25215000D01*
X25225000Y17650000D02*
X25215000D01*
X25395000Y17490000D02*
X25385000D01*
X25395000Y17650000D02*
X25385000D01*
X29990000Y18745000D02*
Y18755000D01*
X30150000Y18745000D02*
Y18755000D01*
X23945000Y9340000D02*
X23955000D01*
X23945000Y9180000D02*
X23955000D01*
X24105000Y9340000D02*
X24115000D01*
X24105000Y9180000D02*
X24115000D01*
X25145000Y9340000D02*
X25155000D01*
X25145000Y9180000D02*
X25155000D01*
X25305000Y9340000D02*
X25315000D01*
X25305000Y9180000D02*
X25315000D01*
X26345000Y9340000D02*
X26355000D01*
X26345000Y9180000D02*
X26355000D01*
X26505000Y9340000D02*
X26515000D01*
X26505000Y9180000D02*
X26515000D01*
X27545000Y9340000D02*
X27555000D01*
X27545000Y9180000D02*
X27555000D01*
X27705000Y9340000D02*
X27715000D01*
X27705000Y9180000D02*
X27715000D01*
X28745000Y9340000D02*
X28755000D01*
X28745000Y9180000D02*
X28755000D01*
X28905000Y9340000D02*
X28915000D01*
X28905000Y9180000D02*
X28915000D01*
X29945000Y9340000D02*
X29955000D01*
X29945000Y9180000D02*
X29955000D01*
X30105000Y9340000D02*
X30115000D01*
X30105000Y9180000D02*
X30115000D01*
X25754250Y13159750D02*
X25744250D01*
X25754250Y13319750D02*
X25744250D01*
X26008250Y13159750D02*
X25998250D01*
X26008250Y13319750D02*
X25998250D01*
X27024250Y13159750D02*
X27014250D01*
X27024250Y13319750D02*
X27014250D01*
X27278250Y13159750D02*
X27268250D01*
X27278250Y13319750D02*
X27268250D01*
X28548250Y13159750D02*
X28538250D01*
X28548250Y13319750D02*
X28538250D01*
X28294250Y13159750D02*
X28284250D01*
X28294250Y13319750D02*
X28284250D01*
X27532250Y13159750D02*
X27522250D01*
X27532250Y13319750D02*
X27522250D01*
X27786250Y13159750D02*
X27776250D01*
X27786250Y13319750D02*
X27776250D01*
X28802250Y13159750D02*
X28792250D01*
X28802250Y13319750D02*
X28792250D01*
X29056250Y13159750D02*
X29046250D01*
X29056250Y13319750D02*
X29046250D01*
X26516250Y13159750D02*
X26506250D01*
X26516250Y13319750D02*
X26506250D01*
X26262250Y13159750D02*
X26252250D01*
X26262250Y13319750D02*
X26252250D01*
X22565000Y13070000D02*
X22575000D01*
X22565000Y12910000D02*
X22575000D01*
X23365000Y13470000D02*
X23375000D01*
X23365000Y13310000D02*
X23375000D01*
X22895000Y13660000D02*
X22885000D01*
X22895000Y13820000D02*
X22885000D01*
X22725000D02*
X22735000D01*
X22725000Y13660000D02*
X22735000D01*
X23240000Y12735000D02*
Y12725000D01*
X23080000Y12735000D02*
Y12725000D01*
X23205000Y13820000D02*
X23215000D01*
X23205000Y13660000D02*
X23215000D01*
X23365000Y13820000D02*
X23375000D01*
X23365000Y13660000D02*
X23375000D01*
X23055000D02*
X23045000D01*
X23055000Y13820000D02*
X23045000D01*
X23390000Y15865000D02*
Y15855000D01*
X23230000Y15865000D02*
Y15855000D01*
X23976250Y13160000D02*
X23966250D01*
X23976250Y13320000D02*
X23966250D01*
X26105000Y9620000D02*
X26115000D01*
X26105000Y9460000D02*
X26115000D01*
X31990000Y14075000D02*
Y14085000D01*
X32150000Y14075000D02*
Y14085000D01*
X23722250Y13160000D02*
X23712250D01*
X23722250Y13320000D02*
X23712250D01*
X23540000Y15855000D02*
Y15865000D01*
X23700000Y15855000D02*
Y15865000D01*
X28505000Y9620000D02*
X28515000D01*
X28505000Y9460000D02*
X28515000D01*
X29705000Y9620000D02*
X29715000D01*
X29705000Y9460000D02*
X29715000D01*
X30905000Y9620000D02*
X30915000D01*
X30905000Y9460000D02*
X30915000D01*
X24905000Y9620000D02*
X24915000D01*
X24905000Y9460000D02*
X24915000D01*
X27315000Y9620000D02*
X27325000D01*
X27315000Y9460000D02*
X27325000D01*
X32480000Y14305000D02*
X32470000D01*
X32480000Y14465000D02*
X32470000D01*
X31985000Y13920000D02*
X31995000D01*
X31985000Y13760000D02*
X31995000D01*
X27565000Y12420000D02*
X27555000D01*
X27565000Y12580000D02*
X27555000D01*
X26900000Y12235000D02*
Y12225000D01*
X26740000Y12235000D02*
Y12225000D01*
X31125000Y12980000D02*
X31115000D01*
X31125000Y13140000D02*
X31115000D01*
X32145000Y13920000D02*
X32155000D01*
X32145000Y13760000D02*
X32155000D01*
X24620000Y21035000D02*
Y21045000D01*
X24780000Y21035000D02*
Y21045000D01*
X30180000Y22045000D02*
Y22035000D01*
X30020000Y22045000D02*
Y22035000D01*
X30180000Y21045000D02*
Y21035000D01*
X30020000Y21045000D02*
Y21035000D01*
X24620000Y22035000D02*
Y22045000D01*
X24780000Y22035000D02*
Y22045000D01*
X25090000D02*
Y22035000D01*
X24930000Y22045000D02*
Y22035000D01*
X25090000Y21045000D02*
Y21035000D01*
X24930000Y21045000D02*
Y21035000D01*
X29870000Y22045000D02*
Y22035000D01*
X29710000Y22045000D02*
Y22035000D01*
X29870000Y21045000D02*
Y21035000D01*
X29710000Y21045000D02*
Y21035000D01*
X32160000Y14305000D02*
X32150000D01*
X32160000Y14465000D02*
X32150000D01*
X24105000Y22200000D02*
X24115000D01*
X24105000Y22040000D02*
X24115000D01*
X24105000Y21200000D02*
X24115000D01*
X24105000Y21040000D02*
X24115000D01*
X30685000Y22200000D02*
X30695000D01*
X30685000Y22040000D02*
X30695000D01*
X30685000Y21200000D02*
X30695000D01*
X30685000Y21040000D02*
X30695000D01*
X32310000Y14465000D02*
X32320000D01*
X32310000Y14305000D02*
X32320000D01*
X24375000Y17030000D02*
Y17040000D01*
X24535000Y17030000D02*
Y17040000D01*
X24985000Y17280000D02*
X24995000D01*
X24985000Y17120000D02*
X24995000D01*
X22835000Y18390000D02*
X22845000D01*
X22835000Y18230000D02*
X22845000D01*
X31670000Y15675000D02*
Y15665000D01*
X31510000Y15675000D02*
Y15665000D01*
X30240000D02*
Y15675000D01*
X30400000Y15665000D02*
Y15675000D01*
X29130000D02*
Y15665000D01*
X28970000Y15675000D02*
Y15665000D01*
X27860000Y15675000D02*
Y15665000D01*
X27700000Y15675000D02*
Y15665000D01*
X26590000Y15675000D02*
Y15665000D01*
X26430000Y15675000D02*
Y15665000D01*
X25160000D02*
Y15675000D01*
X25320000Y15665000D02*
Y15675000D01*
X23890000Y15665000D02*
Y15675000D01*
X24050000Y15665000D02*
Y15675000D01*
X23890000Y14325000D02*
Y14335000D01*
X24050000Y14325000D02*
Y14335000D01*
X25160000Y14325000D02*
Y14335000D01*
X25320000Y14325000D02*
Y14335000D01*
X30240000Y14315000D02*
Y14325000D01*
X30400000Y14315000D02*
Y14325000D01*
X29130000Y14335000D02*
Y14325000D01*
X28970000Y14335000D02*
Y14325000D01*
X27860000Y14335000D02*
Y14325000D01*
X27700000Y14335000D02*
Y14325000D01*
X26590000Y14335000D02*
Y14325000D01*
X26430000Y14335000D02*
Y14325000D01*
X31670000Y14335000D02*
Y14325000D01*
X31510000Y14335000D02*
Y14325000D01*
X29820000Y20375000D02*
X29810000D01*
X29820000Y20535000D02*
X29810000D01*
X30095000Y19810000D02*
X30105000D01*
X30095000Y19650000D02*
X30105000D01*
X29145000Y19925000D02*
Y19915000D01*
X28985000Y19925000D02*
Y19915000D01*
X29325000Y9840000D02*
X29315000D01*
X29325000Y10000000D02*
X29315000D01*
X26925000Y9840000D02*
X26915000D01*
X26925000Y10000000D02*
X26915000D01*
X24580000Y7675000D02*
Y7685000D01*
X24740000Y7675000D02*
Y7685000D01*
X26010000Y10415000D02*
Y10405000D01*
X25850000Y10415000D02*
Y10405000D01*
X25210000D02*
Y10415000D01*
X25370000Y10405000D02*
Y10415000D01*
X28800000Y10405000D02*
Y10415000D01*
X28960000Y10405000D02*
Y10415000D01*
X28400000D02*
Y10405000D01*
X28240000Y10415000D02*
Y10405000D01*
X29380000Y7675000D02*
Y7685000D01*
X29540000Y7675000D02*
Y7685000D01*
X28080000Y10415000D02*
Y10405000D01*
X27920000Y10415000D02*
Y10405000D01*
X26880000Y10415000D02*
Y10405000D01*
X26720000Y10415000D02*
Y10405000D01*
X31095000Y6960000D02*
X31085000D01*
X31095000Y7120000D02*
X31085000D01*
X27250000Y20355000D02*
Y20365000D01*
X27410000Y20355000D02*
Y20365000D01*
X27100000D02*
Y20355000D01*
X26940000Y20365000D02*
Y20355000D01*
X26145000Y20370000D02*
X26155000D01*
X26145000Y20210000D02*
X26155000D01*
X26305000Y20370000D02*
X26315000D01*
X26305000Y20210000D02*
X26315000D01*
X26465000Y20370000D02*
X26475000D01*
X26465000Y20210000D02*
X26475000D01*
X26625000Y20370000D02*
X26635000D01*
X26625000Y20210000D02*
X26635000D01*
X26785000Y20370000D02*
X26795000D01*
X26785000Y20210000D02*
X26795000D01*
X27560000Y20355000D02*
Y20365000D01*
X27720000Y20355000D02*
Y20365000D01*
X31095000Y7270000D02*
X31085000D01*
X31095000Y7430000D02*
X31085000D01*
X30570000Y19225000D02*
Y19235000D01*
X30730000Y19225000D02*
Y19235000D01*
X30790000Y12445000D02*
Y12455000D01*
X30950000Y12445000D02*
Y12455000D01*
X31630000Y12975000D02*
Y12965000D01*
X31470000Y12975000D02*
Y12965000D01*
X25780000Y7675000D02*
Y7685000D01*
X25940000Y7675000D02*
Y7685000D01*
X28180000Y7675000D02*
Y7685000D01*
X28340000Y7675000D02*
Y7685000D01*
X30260000Y20465000D02*
Y20475000D01*
X30420000Y20465000D02*
Y20475000D01*
X28990000Y19075000D02*
Y19085000D01*
X29150000Y19075000D02*
Y19085000D01*
X28825000Y20120000D02*
X28815000D01*
X28825000Y20280000D02*
X28815000D01*
X28985000Y20120000D02*
X28975000D01*
X28985000Y20280000D02*
X28975000D01*
X24070000Y8625000D02*
Y8615000D01*
X23910000Y8625000D02*
Y8615000D01*
X25270000Y8625000D02*
Y8615000D01*
X25110000Y8625000D02*
Y8615000D01*
X26470000Y8625000D02*
Y8615000D01*
X26310000Y8625000D02*
Y8615000D01*
X27670000Y8625000D02*
Y8615000D01*
X27510000Y8625000D02*
Y8615000D01*
X28870000Y8625000D02*
Y8615000D01*
X28710000Y8625000D02*
Y8615000D01*
X30070000Y8625000D02*
Y8615000D01*
X29910000Y8625000D02*
Y8615000D01*
X25430000D02*
Y8625000D01*
X25590000Y8615000D02*
Y8625000D01*
X29030000Y8615000D02*
Y8625000D01*
X29190000Y8615000D02*
Y8625000D01*
X24000000Y10405000D02*
Y10415000D01*
X24160000Y10405000D02*
Y10415000D01*
X26400000Y10405000D02*
Y10415000D01*
X26560000Y10405000D02*
Y10415000D01*
X27600000Y10405000D02*
Y10415000D01*
X27760000Y10405000D02*
Y10415000D01*
X30800000D02*
Y10405000D01*
X30640000Y10415000D02*
Y10405000D01*
X24230000Y8615000D02*
Y8625000D01*
X24390000Y8615000D02*
Y8625000D01*
X27830000Y8615000D02*
Y8625000D01*
X27990000Y8615000D02*
Y8625000D01*
X30230000Y8615000D02*
Y8625000D01*
X30390000Y8615000D02*
Y8625000D01*
X26630000Y8615000D02*
Y8625000D01*
X26790000Y8615000D02*
Y8625000D01*
X30000000Y10405000D02*
Y10415000D01*
X30160000Y10405000D02*
Y10415000D01*
X26980000Y7675000D02*
Y7685000D01*
X27140000Y7675000D02*
Y7685000D01*
X27200000Y10415000D02*
Y10405000D01*
X27040000Y10415000D02*
Y10405000D01*
X30480000Y10415000D02*
Y10405000D01*
X30320000Y10415000D02*
Y10405000D01*
X29600000Y10415000D02*
Y10405000D01*
X29440000Y10415000D02*
Y10405000D01*
X27165000Y11330000D02*
X27155000D01*
X27165000Y11490000D02*
X27155000D01*
X28060000Y11595000D02*
Y11585000D01*
X27900000Y11595000D02*
Y11585000D01*
X26740000Y12065000D02*
Y12075000D01*
X26900000Y12065000D02*
Y12075000D01*
X24800000Y10415000D02*
Y10405000D01*
X24640000Y10415000D02*
Y10405000D01*
X28060000Y12075000D02*
Y12065000D01*
X27900000Y12075000D02*
Y12065000D01*
X27645000Y11330000D02*
X27635000D01*
X27645000Y11490000D02*
X27635000D01*
X26740000Y11585000D02*
Y11595000D01*
X26900000Y11585000D02*
Y11595000D01*
X30580000Y7675000D02*
Y7685000D01*
X30740000Y7675000D02*
Y7685000D01*
X28305000Y11080000D02*
X28315000D01*
X28305000Y10920000D02*
X28315000D01*
X24705000Y11080000D02*
X24715000D01*
X24705000Y10920000D02*
X24715000D01*
X28125000Y9840000D02*
X28115000D01*
X28125000Y10000000D02*
X28115000D01*
X29505000Y11080000D02*
X29515000D01*
X29505000Y10920000D02*
X29515000D01*
X24480000Y10415000D02*
Y10405000D01*
X24320000Y10415000D02*
Y10405000D01*
X24525000Y9840000D02*
X24515000D01*
X24525000Y10000000D02*
X24515000D01*
X30525000Y9840000D02*
X30515000D01*
X30525000Y10000000D02*
X30515000D01*
X25725000Y9840000D02*
X25715000D01*
X25725000Y10000000D02*
X25715000D01*
X30705000Y11080000D02*
X30715000D01*
X30705000Y10920000D02*
X30715000D01*
X25915000Y11080000D02*
X25925000D01*
X25915000Y10920000D02*
X25925000D01*
X27105000Y11080000D02*
X27115000D01*
X27105000Y10920000D02*
X27115000D01*
X29280000Y10415000D02*
Y10405000D01*
X29120000Y10415000D02*
Y10405000D01*
X25690000Y10415000D02*
Y10405000D01*
X25530000Y10415000D02*
Y10405000D01*
X26135000Y12470000D02*
X26145000D01*
X26135000Y12310000D02*
X26145000D01*
X25355000Y12620000D02*
X25365000D01*
X25355000Y12460000D02*
X25365000D01*
X25965000Y12620000D02*
X25975000D01*
X25965000Y12460000D02*
X25975000D01*
X26295000Y12470000D02*
X26305000D01*
X26295000Y12310000D02*
X26305000D01*
X26140000Y12615000D02*
Y12625000D01*
X26300000Y12615000D02*
Y12625000D01*
X23530000Y10195000D02*
Y10185000D01*
X23370000Y10195000D02*
Y10185000D01*
X23530000Y9655000D02*
Y9645000D01*
X23370000Y9655000D02*
Y9645000D01*
X30790000Y12785000D02*
Y12795000D01*
X30950000Y12785000D02*
Y12795000D01*
X22790000Y17165000D02*
Y17175000D01*
X22950000Y17165000D02*
Y17175000D01*
X22790000Y17465000D02*
Y17475000D01*
X22950000Y17465000D02*
Y17475000D01*
X27900000Y11905000D02*
Y11915000D01*
X28060000Y11905000D02*
Y11915000D01*
X26900000D02*
Y11905000D01*
X26740000Y11915000D02*
Y11905000D01*
X26900000Y11755000D02*
Y11745000D01*
X26740000Y11755000D02*
Y11745000D01*
X27315000Y11490000D02*
X27325000D01*
X27315000Y11330000D02*
X27325000D01*
X27475000Y11490000D02*
X27485000D01*
X27475000Y11330000D02*
X27485000D01*
X27900000Y11745000D02*
Y11755000D01*
X28060000Y11745000D02*
Y11755000D01*
X27725000Y12420000D02*
X27715000D01*
X27725000Y12580000D02*
X27715000D01*
X29554250Y13320000D02*
X29564250D01*
X29554250Y13160000D02*
X29564250D01*
X24982250Y13320000D02*
X24992250D01*
X24982250Y13160000D02*
X24992250D01*
X30062250Y13320000D02*
X30072250D01*
X30062250Y13160000D02*
X30072250D01*
X29808250Y13320000D02*
X29818250D01*
X29808250Y13160000D02*
X29818250D01*
X22390000Y18675000D02*
Y18685000D01*
X22550000Y18675000D02*
Y18685000D01*
X22390000Y16305000D02*
Y16315000D01*
X22550000Y16305000D02*
Y16315000D01*
X24474250Y13320000D02*
X24484250D01*
X24474250Y13160000D02*
X24484250D01*
X24728250Y13320000D02*
X24738250D01*
X24728250Y13160000D02*
X24738250D01*
X25830000Y20365000D02*
Y20355000D01*
X25670000Y20365000D02*
Y20355000D01*
X30790000Y12615000D02*
Y12625000D01*
X30950000Y12615000D02*
Y12625000D01*
X28125000Y9500000D02*
X28115000D01*
X28125000Y9660000D02*
X28115000D01*
X29325000Y9500000D02*
X29315000D01*
X29325000Y9660000D02*
X29315000D01*
X30525000Y9500000D02*
X30515000D01*
X30525000Y9660000D02*
X30515000D01*
X24525000Y9500000D02*
X24515000D01*
X24525000Y9660000D02*
X24515000D01*
X25725000Y9500000D02*
X25715000D01*
X25725000Y9660000D02*
X25715000D01*
X26925000Y9500000D02*
X26915000D01*
X26925000Y9660000D02*
X26915000D01*
X29485000Y12580000D02*
X29495000D01*
X29485000Y12420000D02*
X29495000D01*
X28965000Y10570000D02*
X28955000D01*
X28965000Y10730000D02*
X28955000D01*
X30165000Y10570000D02*
X30155000D01*
X30165000Y10730000D02*
X30155000D01*
X24165000Y10570000D02*
X24155000D01*
X24165000Y10730000D02*
X24155000D01*
X25375000Y10570000D02*
X25365000D01*
X25375000Y10730000D02*
X25365000D01*
X26565000Y10570000D02*
X26555000D01*
X26565000Y10730000D02*
X26555000D01*
X27765000Y10570000D02*
X27755000D01*
X27765000Y10730000D02*
X27755000D01*
X23925000Y11080000D02*
X23935000D01*
X23925000Y10920000D02*
X23935000D01*
X25135000Y11080000D02*
X25145000D01*
X25135000Y10920000D02*
X25145000D01*
X26325000Y11080000D02*
X26335000D01*
X26325000Y10920000D02*
X26335000D01*
X27525000Y11080000D02*
X27535000D01*
X27525000Y10920000D02*
X27535000D01*
X28725000Y11080000D02*
X28735000D01*
X28725000Y10920000D02*
X28735000D01*
X29925000Y11080000D02*
X29935000D01*
X29925000Y10920000D02*
X29935000D01*
X24085000Y11080000D02*
X24095000D01*
X24085000Y10920000D02*
X24095000D01*
X25295000Y11080000D02*
X25305000D01*
X25295000Y10920000D02*
X25305000D01*
X26485000Y11080000D02*
X26495000D01*
X26485000Y10920000D02*
X26495000D01*
X27685000Y11080000D02*
X27695000D01*
X27685000Y10920000D02*
X27695000D01*
X28885000Y11080000D02*
X28895000D01*
X28885000Y10920000D02*
X28895000D01*
X30085000Y11080000D02*
X30095000D01*
X30085000Y10920000D02*
X30095000D01*
X29435000Y10730000D02*
X29445000D01*
X29435000Y10570000D02*
X29445000D01*
X30635000Y10730000D02*
X30645000D01*
X30635000Y10570000D02*
X30645000D01*
X24635000Y10730000D02*
X24645000D01*
X24635000Y10570000D02*
X24645000D01*
X25845000Y10730000D02*
X25855000D01*
X25845000Y10570000D02*
X25855000D01*
X27035000Y10730000D02*
X27045000D01*
X27035000Y10570000D02*
X27045000D01*
X28235000Y10730000D02*
X28245000D01*
X28235000Y10570000D02*
X28245000D01*
X29285000D02*
X29275000D01*
X29285000Y10730000D02*
X29275000D01*
X30485000Y10570000D02*
X30475000D01*
X30485000Y10730000D02*
X30475000D01*
X24485000Y10570000D02*
X24475000D01*
X24485000Y10730000D02*
X24475000D01*
X25695000Y10570000D02*
X25685000D01*
X25695000Y10730000D02*
X25685000D01*
X26885000Y10570000D02*
X26875000D01*
X26885000Y10730000D02*
X26875000D01*
X28085000Y10570000D02*
X28075000D01*
X28085000Y10730000D02*
X28075000D01*
X29125000Y10570000D02*
X29115000D01*
X29125000Y10730000D02*
X29115000D01*
X30325000Y10570000D02*
X30315000D01*
X30325000Y10730000D02*
X30315000D01*
X24325000Y10570000D02*
X24315000D01*
X24325000Y10730000D02*
X24315000D01*
X25535000Y10570000D02*
X25525000D01*
X25535000Y10730000D02*
X25525000D01*
X26725000Y10570000D02*
X26715000D01*
X26725000Y10730000D02*
X26715000D01*
X27925000Y10570000D02*
X27915000D01*
X27925000Y10730000D02*
X27915000D01*
X28895000Y12420000D02*
X28885000D01*
X28895000Y12580000D02*
X28885000D01*
X28380000Y12425000D02*
Y12415000D01*
X28220000Y12425000D02*
Y12415000D01*
X28525000Y12580000D02*
X28535000D01*
X28525000Y12420000D02*
X28535000D01*
X26470000Y16195000D02*
Y16205000D01*
X26630000Y16195000D02*
Y16205000D01*
X28640000Y16305000D02*
Y16295000D01*
X28480000Y16305000D02*
Y16295000D01*
G54D28*
X23430000Y21610000D02*
Y21690000D01*
X23610000Y21610000D02*
Y21690000D01*
X24320000Y22700000D02*
X24500000D01*
X24900000D02*
X25080000D01*
X24320000Y22300000D02*
X24500000D01*
X24900000D02*
X25080000D01*
X24320000Y21700000D02*
X24500000D01*
X24900000D02*
X25080000D01*
X24320000Y21300000D02*
X24500000D01*
X24900000D02*
X25080000D01*
X29720000Y22700000D02*
X29900000D01*
X30300000D02*
X30480000D01*
X29720000Y22300000D02*
X29900000D01*
X30300000D02*
X30480000D01*
X29720000Y21700000D02*
X29900000D01*
X30300000D02*
X30480000D01*
X29720000Y21300000D02*
X29900000D01*
X30300000D02*
X30480000D01*
X23770000Y21630000D02*
Y21670000D01*
X23950000Y21630000D02*
Y21670000D01*
X22990000Y14250000D02*
Y14290000D01*
X23170000Y14250000D02*
Y14290000D01*
X23610000Y21440000D02*
Y21400000D01*
X23430000Y21440000D02*
Y21400000D01*
X23620000Y20350000D02*
Y20390000D01*
X23800000Y20350000D02*
Y20390000D01*
X23620000Y20560000D02*
Y20600000D01*
X23800000Y20560000D02*
Y20600000D01*
X22950000Y21260000D02*
Y21300000D01*
X23130000Y21260000D02*
Y21300000D01*
X27880000Y12535000D02*
Y12575000D01*
X28060000Y12535000D02*
Y12575000D01*
X27890000Y12230000D02*
Y12270000D01*
X28070000Y12230000D02*
Y12270000D01*
X23620000Y22150000D02*
X23660000D01*
X23620000Y21970000D02*
X23660000D01*
X31610000Y11800000D02*
X31430000D01*
X31030000D02*
X30850000D01*
X31610000Y12200000D02*
X31430000D01*
X31030000D02*
X30850000D01*
X22800000Y16930000D02*
X22980000D01*
X23380000D02*
X23560000D01*
X22800000Y16530000D02*
X22980000D01*
X23380000D02*
X23560000D01*
X29330000Y12190000D02*
Y12230000D01*
X29510000Y12190000D02*
Y12230000D01*
X28730000Y12410000D02*
X28690000D01*
X28730000Y12590000D02*
X28690000D01*
G54D29*
X23460000Y18295000D02*
Y18365000D01*
X23540000Y18295000D02*
Y18365000D01*
X23620000Y18295000D02*
Y18365000D01*
X23700000Y18295000D02*
Y18365000D01*
X23780000Y18295000D02*
Y18365000D01*
X23860000Y18295000D02*
Y18365000D01*
X23940000Y18295000D02*
Y18365000D01*
X24020000Y18295000D02*
Y18365000D01*
X24100000Y18295000D02*
Y18365000D01*
X24180000Y18295000D02*
Y18365000D01*
X24260000Y18295000D02*
Y18365000D01*
X24340000Y18295000D02*
Y18365000D01*
X24420000Y18295000D02*
Y18365000D01*
X24500000Y18295000D02*
Y18365000D01*
X24580000Y18295000D02*
Y18365000D01*
X24660000Y18295000D02*
Y18365000D01*
X24740000Y18295000D02*
Y18365000D01*
X24820000Y18295000D02*
Y18365000D01*
X24900000Y18295000D02*
Y18365000D01*
X24980000Y18295000D02*
Y18365000D01*
X25060000Y18295000D02*
Y18365000D01*
X25140000Y18295000D02*
Y18365000D01*
X25220000Y18295000D02*
Y18365000D01*
X25300000Y18295000D02*
Y18365000D01*
X25380000Y18295000D02*
Y18365000D01*
X25460000Y18295000D02*
Y18365000D01*
X25540000Y18295000D02*
Y18365000D01*
Y19435000D02*
Y19505000D01*
X25460000Y19435000D02*
Y19505000D01*
X25380000Y19435000D02*
Y19505000D01*
X25300000Y19435000D02*
Y19505000D01*
X25220000Y19435000D02*
Y19505000D01*
X25140000Y19435000D02*
Y19505000D01*
X25060000Y19435000D02*
Y19505000D01*
X24980000Y19435000D02*
Y19505000D01*
X24900000Y19435000D02*
Y19505000D01*
X24820000Y19435000D02*
Y19505000D01*
X24740000Y19435000D02*
Y19505000D01*
X24660000Y19435000D02*
Y19505000D01*
X24580000Y19435000D02*
Y19505000D01*
X24500000Y19435000D02*
Y19505000D01*
X24420000Y19435000D02*
Y19505000D01*
X24340000Y19435000D02*
Y19505000D01*
X24260000Y19435000D02*
Y19505000D01*
X24180000Y19435000D02*
Y19505000D01*
X24100000Y19435000D02*
Y19505000D01*
X24020000Y19435000D02*
Y19505000D01*
X23940000Y19435000D02*
Y19505000D01*
X23860000Y19435000D02*
Y19505000D01*
X23780000Y19435000D02*
Y19505000D01*
X23700000Y19435000D02*
Y19505000D01*
X23620000Y19435000D02*
Y19505000D01*
X23540000Y19435000D02*
Y19505000D01*
X23460000Y19435000D02*
Y19505000D01*
G54D30*
X29114750Y15535000D02*
Y15405000D01*
X28987750Y15535000D02*
Y15405000D01*
X28860750Y15535000D02*
Y15405000D01*
X28733750Y15535000D02*
Y15405000D01*
X28606750Y15535000D02*
Y15405000D01*
X28479750Y15535000D02*
Y15405000D01*
X28352750Y15535000D02*
Y15405000D01*
X28225750Y15535000D02*
Y15405000D01*
Y14595000D02*
Y14465000D01*
X28352750Y14595000D02*
Y14465000D01*
X28479750Y14595000D02*
Y14465000D01*
X28606750Y14595000D02*
Y14465000D01*
X28733750Y14595000D02*
Y14465000D01*
X28860750Y14595000D02*
Y14465000D01*
X28987750Y14595000D02*
Y14465000D01*
X29114750Y14595000D02*
Y14465000D01*
X24415750D02*
Y14595000D01*
X24542750Y14465000D02*
Y14595000D01*
X24669750Y14465000D02*
Y14595000D01*
X24796750Y14465000D02*
Y14595000D01*
X24923750Y14465000D02*
Y14595000D01*
X25050750Y14465000D02*
Y14595000D01*
X25177750Y14465000D02*
Y14595000D01*
X25304750Y14465000D02*
Y14595000D01*
Y15405000D02*
Y15535000D01*
X25177750Y15405000D02*
Y15535000D01*
X25050750Y15405000D02*
Y15535000D01*
X24923750Y15405000D02*
Y15535000D01*
X24796750Y15405000D02*
Y15535000D01*
X24669750Y15405000D02*
Y15535000D01*
X24542750Y15405000D02*
Y15535000D01*
X24415750Y15405000D02*
Y15535000D01*
X31654750D02*
Y15405000D01*
X31527750Y15535000D02*
Y15405000D01*
X31400750Y15535000D02*
Y15405000D01*
X31273750Y15535000D02*
Y15405000D01*
X31146750Y15535000D02*
Y15405000D01*
X31019750Y15535000D02*
Y15405000D01*
X30892750Y15535000D02*
Y15405000D01*
X30765750Y15535000D02*
Y15405000D01*
Y14595000D02*
Y14465000D01*
X30892750Y14595000D02*
Y14465000D01*
X31019750Y14595000D02*
Y14465000D01*
X31146750Y14595000D02*
Y14465000D01*
X31273750Y14595000D02*
Y14465000D01*
X31400750Y14595000D02*
Y14465000D01*
X31527750Y14595000D02*
Y14465000D01*
X31654750Y14595000D02*
Y14465000D01*
X29495750D02*
Y14595000D01*
X29622750Y14465000D02*
Y14595000D01*
X29749750Y14465000D02*
Y14595000D01*
X29876750Y14465000D02*
Y14595000D01*
X30003750Y14465000D02*
Y14595000D01*
X30130750Y14465000D02*
Y14595000D01*
X30257750Y14465000D02*
Y14595000D01*
X30384750Y14465000D02*
Y14595000D01*
Y15405000D02*
Y15535000D01*
X30257750Y15405000D02*
Y15535000D01*
X30130750Y15405000D02*
Y15535000D01*
X30003750Y15405000D02*
Y15535000D01*
X29876750Y15405000D02*
Y15535000D01*
X29749750Y15405000D02*
Y15535000D01*
X29622750Y15405000D02*
Y15535000D01*
X29495750Y15405000D02*
Y15535000D01*
X27844750D02*
Y15405000D01*
X27717750Y15535000D02*
Y15405000D01*
X27590750Y15535000D02*
Y15405000D01*
X27463750Y15535000D02*
Y15405000D01*
X27336750Y15535000D02*
Y15405000D01*
X27209750Y15535000D02*
Y15405000D01*
X27082750Y15535000D02*
Y15405000D01*
X26955750Y15535000D02*
Y15405000D01*
Y14595000D02*
Y14465000D01*
X27082750Y14595000D02*
Y14465000D01*
X27209750Y14595000D02*
Y14465000D01*
X27336750Y14595000D02*
Y14465000D01*
X27463750Y14595000D02*
Y14465000D01*
X27590750Y14595000D02*
Y14465000D01*
X27717750Y14595000D02*
Y14465000D01*
X27844750Y14595000D02*
Y14465000D01*
X26574750Y15535000D02*
Y15405000D01*
X26447750Y15535000D02*
Y15405000D01*
X26320750Y15535000D02*
Y15405000D01*
X26193750Y15535000D02*
Y15405000D01*
X26066750Y15535000D02*
Y15405000D01*
X25939750Y15535000D02*
Y15405000D01*
X25812750Y15535000D02*
Y15405000D01*
X25685750Y15535000D02*
Y15405000D01*
Y14595000D02*
Y14465000D01*
X25812750Y14595000D02*
Y14465000D01*
X25939750Y14595000D02*
Y14465000D01*
X26066750Y14595000D02*
Y14465000D01*
X26193750Y14595000D02*
Y14465000D01*
X26320750Y14595000D02*
Y14465000D01*
X26447750Y14595000D02*
Y14465000D01*
X26574750Y14595000D02*
Y14465000D01*
X24034750Y15535000D02*
Y15405000D01*
X23907750Y15535000D02*
Y15405000D01*
X23780750Y15535000D02*
Y15405000D01*
X23653750Y15535000D02*
Y15405000D01*
X23526750Y15535000D02*
Y15405000D01*
X23399750Y15535000D02*
Y15405000D01*
X23272750Y15535000D02*
Y15405000D01*
X23145750Y15535000D02*
Y15405000D01*
Y14595000D02*
Y14465000D01*
X23272750Y14595000D02*
Y14465000D01*
X23399750Y14595000D02*
Y14465000D01*
X23526750Y14595000D02*
Y14465000D01*
X23653750Y14595000D02*
Y14465000D01*
X23780750Y14595000D02*
Y14465000D01*
X23907750Y14595000D02*
Y14465000D01*
X24034750Y14595000D02*
Y14465000D01*
G54D31*
X23100000Y21030000D02*
Y20950000D01*
X23450000Y17590000D02*
X23790000D01*
X24390000D02*
X24730000D01*
X23190000Y22610000D02*
X23280000D01*
X23540000D02*
X23630000D01*
X32160000Y13250000D02*
Y13160000D01*
Y12900000D02*
Y12810000D01*
X26570000Y12620000D02*
X26660000D01*
X26920000D02*
X27010000D01*
G54D33*
X27400000Y18900000D03*
G54D34*
X25145000Y16950000D02*
Y17000000D01*
X25195000Y16950000D02*
Y17000000D01*
X25245000Y16950000D02*
Y17000000D01*
X25295000Y16950000D02*
Y17000000D01*
Y17260000D02*
Y17310000D01*
X25245000Y17260000D02*
Y17310000D01*
X25195000Y17260000D02*
Y17310000D01*
X25145000Y17260000D02*
Y17310000D01*
X27775000Y17515000D02*
Y17385000D01*
X27725000Y17515000D02*
Y17385000D01*
X27675000Y17515000D02*
Y17385000D01*
X27625000Y17515000D02*
Y17385000D01*
X27575000Y17515000D02*
Y17385000D01*
X27525000Y17515000D02*
Y17385000D01*
X27475000Y17515000D02*
Y17385000D01*
X27425000Y17515000D02*
Y17385000D01*
X27375000Y17515000D02*
Y17385000D01*
X27325000Y17515000D02*
Y17385000D01*
X27275000Y17515000D02*
Y17385000D01*
X27225000Y17515000D02*
Y17385000D01*
X27175000Y17515000D02*
Y17385000D01*
X27125000Y17515000D02*
Y17385000D01*
X27075000Y17515000D02*
Y17385000D01*
X27025000Y17515000D02*
Y17385000D01*
X26765000Y17255000D02*
X26895000D01*
X26765000Y17205000D02*
X26895000D01*
X26765000Y17155000D02*
X26895000D01*
X26765000Y17105000D02*
X26895000D01*
X26765000Y17055000D02*
X26895000D01*
X26765000Y17005000D02*
X26895000D01*
X26765000Y16955000D02*
X26895000D01*
X26765000Y16905000D02*
X26895000D01*
X26765000Y16855000D02*
X26895000D01*
X26765000Y16805000D02*
X26895000D01*
X26765000Y16755000D02*
X26895000D01*
X26765000Y16705000D02*
X26895000D01*
X26765000Y16655000D02*
X26895000D01*
X26765000Y16605000D02*
X26895000D01*
X26765000Y16555000D02*
X26895000D01*
X26765000Y16505000D02*
X26895000D01*
X27025000Y16375000D02*
Y16245000D01*
X27075000Y16375000D02*
Y16245000D01*
X27125000Y16375000D02*
Y16245000D01*
X27175000Y16375000D02*
Y16245000D01*
X27225000Y16375000D02*
Y16245000D01*
X27275000Y16375000D02*
Y16245000D01*
X27325000Y16375000D02*
Y16245000D01*
X27375000Y16375000D02*
Y16245000D01*
X27425000Y16375000D02*
Y16245000D01*
X27475000Y16375000D02*
Y16245000D01*
X27525000Y16375000D02*
Y16245000D01*
X27575000Y16375000D02*
Y16245000D01*
X27625000Y16375000D02*
Y16245000D01*
X27675000Y16375000D02*
Y16245000D01*
X27725000Y16375000D02*
Y16245000D01*
X27775000Y16375000D02*
Y16245000D01*
X27905000Y16505000D02*
X28035000D01*
X27905000Y16555000D02*
X28035000D01*
X27905000Y16605000D02*
X28035000D01*
X27905000Y16655000D02*
X28035000D01*
X27905000Y16705000D02*
X28035000D01*
X27905000Y16755000D02*
X28035000D01*
X27905000Y16805000D02*
X28035000D01*
X27905000Y16855000D02*
X28035000D01*
X27905000Y16905000D02*
X28035000D01*
X27905000Y16955000D02*
X28035000D01*
X27905000Y17005000D02*
X28035000D01*
X27905000Y17055000D02*
X28035000D01*
X27905000Y17105000D02*
X28035000D01*
X27905000Y17155000D02*
X28035000D01*
X27905000Y17205000D02*
X28035000D01*
X27905000Y17255000D02*
X28035000D01*
X26925000Y18425000D03*
X27025000D03*
X27075000D03*
X27125000D03*
X27175000D03*
X27225000D03*
X27275000D03*
X27325000D03*
X27375000D03*
X27425000D03*
X27475000D03*
X27525000D03*
X27575000D03*
X27625000D03*
X27675000D03*
X27725000D03*
X27775000D03*
X27875000D03*
Y18525000D03*
Y18575000D03*
Y18625000D03*
Y18675000D03*
Y18725000D03*
Y18775000D03*
Y18825000D03*
Y18875000D03*
Y18925000D03*
Y18975000D03*
Y19025000D03*
Y19075000D03*
Y19125000D03*
Y19175000D03*
Y19225000D03*
Y19275000D03*
Y19375000D03*
X27775000D03*
X27725000D03*
X27675000D03*
X27625000D03*
X27575000D03*
X27525000D03*
X27475000D03*
X27425000D03*
X27375000D03*
X27325000D03*
X27275000D03*
X27225000D03*
X27175000D03*
X27125000D03*
X27075000D03*
X27025000D03*
X26925000D03*
Y19275000D03*
Y19225000D03*
Y19175000D03*
Y19125000D03*
Y19075000D03*
Y19025000D03*
Y18975000D03*
Y18925000D03*
Y18875000D03*
Y18825000D03*
Y18775000D03*
Y18725000D03*
Y18675000D03*
Y18625000D03*
Y18575000D03*
Y18525000D03*
X27075000Y18500000D03*
X27125000D03*
X27175000D03*
X27225000D03*
X27275000D03*
X27325000D03*
X27375000D03*
X27425000D03*
X27475000D03*
X27525000D03*
X27575000D03*
X27625000D03*
X27675000D03*
X27725000D03*
X27800000Y18575000D03*
Y18625000D03*
Y18675000D03*
Y18725000D03*
Y18775000D03*
Y18825000D03*
Y18875000D03*
Y18925000D03*
Y18975000D03*
Y19025000D03*
Y19075000D03*
Y19125000D03*
Y19175000D03*
Y19225000D03*
X27725000Y19300000D03*
X27675000D03*
X27625000D03*
X27575000D03*
X27525000D03*
X27475000D03*
X27425000D03*
X27375000D03*
X27325000D03*
X27275000D03*
X27225000D03*
X27175000D03*
X27125000D03*
X27075000D03*
X27000000Y19225000D03*
Y19175000D03*
Y19125000D03*
Y19075000D03*
Y19025000D03*
Y18975000D03*
Y18925000D03*
Y18875000D03*
Y18825000D03*
Y18775000D03*
Y18725000D03*
Y18675000D03*
Y18625000D03*
Y18575000D03*
G54D35*
X22415000Y17835000D02*
X22455000D01*
X22415000Y17770000D02*
X22455000D01*
X22415000Y17705000D02*
X22455000D01*
X22625000D02*
X22665000D01*
X22625000Y17770000D02*
X22665000D01*
X22625000Y17835000D02*
X22665000D01*
X32302750Y13480000D02*
Y13600000D01*
X32366250Y13480000D02*
Y13600000D01*
X32429750Y13480000D02*
Y13600000D01*
X32493250Y13480000D02*
Y13600000D01*
X32556750Y13480000D02*
Y13600000D01*
X32620250Y13480000D02*
Y13600000D01*
X32683750Y13480000D02*
Y13600000D01*
X32747250Y13480000D02*
Y13600000D01*
Y14020000D02*
Y14140000D01*
X32683750Y14020000D02*
Y14140000D01*
X32620250Y14020000D02*
Y14140000D01*
X32556750Y14020000D02*
Y14140000D01*
X32493250Y14020000D02*
Y14140000D01*
X32429750Y14020000D02*
Y14140000D01*
X32366250Y14020000D02*
Y14140000D01*
X32302750Y14020000D02*
Y14140000D01*
X30935000Y13185000D02*
Y13145000D01*
X30870000Y13185000D02*
Y13145000D01*
X30805000Y13185000D02*
Y13145000D01*
Y12975000D02*
Y12935000D01*
X30870000Y12975000D02*
Y12935000D01*
X30935000Y12975000D02*
Y12935000D01*
X22415000Y17535000D02*
X22455000D01*
X22415000Y17470000D02*
X22455000D01*
X22415000Y17405000D02*
X22455000D01*
X22625000D02*
X22665000D01*
X22625000Y17470000D02*
X22665000D01*
X22625000Y17535000D02*
X22665000D01*
X22415000Y17235000D02*
X22455000D01*
X22415000Y17170000D02*
X22455000D01*
X22415000Y17105000D02*
X22455000D01*
X22625000D02*
X22665000D01*
X22625000Y17170000D02*
X22665000D01*
X22625000Y17235000D02*
X22665000D01*
G54D36*
X23590000Y9825000D02*
X23550000D01*
X23590000Y10015000D02*
X23550000D01*
X23350000Y9920000D02*
X23310000D01*
G54D37*
X23265000Y20895000D02*
X23235000D01*
X23265000Y20990000D02*
X23235000D01*
X23265000Y21085000D02*
X23235000D01*
X22965000D02*
X22935000D01*
X22965000Y20990000D02*
X22935000D01*
X22965000Y20895000D02*
X22935000D01*
G54D39*
X32557000Y19125000D03*
Y20675000D03*
G54D41*
X22540000Y9475000D03*
Y11725000D03*
X22450000Y8475000D02*
Y8225000D01*
X21850000Y8450000D02*
Y8250000D01*
X22050000Y7880000D02*
X22250000D01*
X32156000Y17638000D03*
Y17364000D03*
Y17090000D03*
Y16816000D03*
Y16542000D03*
X32410000Y17501000D03*
Y17227000D03*
Y16953000D03*
Y16679000D03*
G54D42*
X32298000Y15840000D03*
Y18340000D03*
G54D43*
X22560000Y22840000D03*
Y7160000D03*
X32240000D03*
Y22840000D03*
G54D48*
X22095000Y21215000D02*
X22205000D01*
X21645000D02*
X21755000D01*
X25640000Y20720000D02*
X25700000D01*
X29100000D02*
X29160000D01*
G54D49*
X21690000Y20350000D02*
X21710000D01*
X22140000D02*
X22160000D01*
G54D51*
X22760000Y21480000D02*
Y21440000D01*
X22500000Y21480000D02*
Y21440000D01*
X22760000Y12710000D02*
Y12670000D01*
X22500000Y12710000D02*
Y12670000D01*
X30740000Y9820000D02*
X30700000D01*
X30740000Y10080000D02*
X30700000D01*
X28340000Y9820000D02*
X28300000D01*
X28340000Y10080000D02*
X28300000D01*
X25940000Y9820000D02*
X25900000D01*
X25940000Y10080000D02*
X25900000D01*
X29540000Y9820000D02*
X29500000D01*
X29540000Y10080000D02*
X29500000D01*
X27140000Y9820000D02*
X27100000D01*
X27140000Y10080000D02*
X27100000D01*
X24740000Y9820000D02*
X24700000D01*
X24740000Y10080000D02*
X24700000D01*
G54D53*
X26200000Y20525000D03*
X31495000Y7420000D02*
X31645000D01*
X31495000Y7140000D02*
X31645000D01*
X23155000Y7420000D02*
X23305000D01*
X23155000Y7140000D02*
X23305000D01*
X31635000Y18825000D02*
Y18975000D01*
X31915000Y18825000D02*
Y18975000D01*
X27325000Y7420000D02*
X27475000D01*
X27325000Y7140000D02*
X27475000D01*
G54D54*
X32227000Y19455500D03*
X31973000Y19582500D03*
X32227000Y19709500D03*
X31973000Y19836500D03*
X32227000Y19963500D03*
X31973000Y20090500D03*
X32227000Y20217500D03*
X31973000Y20344500D03*
G54D56*
X22600000Y20777500D02*
Y20762500D01*
Y20330000D03*
X21740000Y12937500D02*
Y12922500D01*
Y12490000D03*
X21760000Y11727500D02*
Y11712500D01*
Y11280000D03*
X29202500Y9150000D02*
X29217500D01*
X29642500D02*
X29657500D01*
X30402500D02*
X30417500D01*
X30842500D02*
X30857500D01*
X24402500D02*
X24417500D01*
X24842500D02*
X24857500D01*
X25602500D02*
X25617500D01*
X26042500D02*
X26057500D01*
X26802500D02*
X26817500D01*
X27242500D02*
X27257500D01*
X28002500D02*
X28017500D01*
X28442500D02*
X28457500D01*
G54D59*
X26670000Y19630000D03*
X28130000Y18170000D03*
X26820000Y17460000D03*
X27980000Y16300000D03*
X29240000Y20280000D03*
X31250000Y9500000D03*
X30120000Y19410000D03*
X23410000Y12250000D03*
G54D63*
X23547500Y21085000D02*
X23692500D01*
X23547500Y20795000D02*
X23692500D01*
G54D71*
X30807500Y7845000D02*
X30592500D01*
X30807500Y8455000D02*
X30592500D01*
X29607500Y7845000D02*
X29392500D01*
X29607500Y8455000D02*
X29392500D01*
X24807500Y7845000D02*
X24592500D01*
X24807500Y8455000D02*
X24592500D01*
X26007500Y7845000D02*
X25792500D01*
X26007500Y8455000D02*
X25792500D01*
X27207500Y7845000D02*
X26992500D01*
X27207500Y8455000D02*
X26992500D01*
X28407500Y7845000D02*
X28192500D01*
X28407500Y8455000D02*
X28192500D01*
G54D72*
X23097000Y13195000D02*
X22843000D01*
G54D73*
X22420000Y13030000D02*
X22410000D01*
X22050000D02*
X22040000D01*
G54D74*
X31570000Y7670000D02*
Y7910000D01*
Y8570000D02*
Y8810000D01*
X23230000Y7670000D02*
Y7910000D01*
Y8570000D02*
Y8810000D01*
G54D75*
X27400000Y16880000D03*
G54D77*
X33100000Y14205500D03*
Y13824500D03*
Y13443500D03*
Y13062500D03*
Y12681500D03*
Y12300500D03*
Y11919500D03*
Y11538500D03*
Y11157500D03*
Y10776500D03*
Y10395500D03*
Y10014500D03*
X30733500Y6280000D03*
X30352500D03*
X29971500D03*
X29590500D03*
X29209500D03*
X28828500D03*
X28447500D03*
X28066500D03*
X26733500D03*
X26352500D03*
X25971500D03*
X25590500D03*
X25209500D03*
X24828500D03*
X24447500D03*
X24066500D03*
X21750000Y9710000D03*
Y10210000D03*
G54D78*
X26350000Y20525000D03*
X26500000D03*
X26650000D03*
X26800000D03*
X26950000D03*
X27100000D03*
X27250000D03*
X27400000D03*
X27550000D03*
X27700000D03*
X27850000D03*
X28000000D03*
X28150000D03*
X28300000D03*
X28450000D03*
X28600000D03*
G54D83*
X27400000Y11990000D03*
G54D89*
X29640000Y19900000D03*
X0Y0D02*
M02*
