*
*
G04 PADS Layout (Build Number 2008.43.1) generated Gerber (RS-274-X) file*
G04 PC Version=2.1*
*
%IN "XPCB-010.pcb"*%
*
%MOMM*%
*
%FSLAX35Y35*%
*
*
*
*
G04 PC Standard Apertures*
*
*
G04 Thermal Relief Aperture macro.*
%AMTER*
1,1,$1,0,0*
1,0,$1-$2,0,0*
21,0,$3,$4,0,0,45*
21,0,$3,$4,0,0,135*
%
*
*
G04 Annular Aperture macro.*
%AMANN*
1,1,$1,0,0*
1,0,$2,0,0*
%
*
*
G04 Odd Aperture macro.*
%AMODD*
1,1,$1,0,0*
1,0,$1-0.005,0,0*
%
*
*
G04 PC Custom Aperture Macros*
*
*
*
*
*
*
G04 PC Aperture Table*
*
%ADD012C,0.0254*%
%ADD015C,0.15*%
%ADD018R,1.8X1.8*%
%ADD019C,1.8*%
%ADD031C,1.4*%
%ADD034C,1.3*%
%ADD039C,1.6*%
%ADD040C,3.8*%
%ADD041C,6*%
*
*
*
*
G04 PC Circuitry*
G04 Layer Name XPCB-010.pcb - circuitry*
%LPD*%
*
*
G04 PC Custom Flashes*
G04 Layer Name XPCB-010.pcb - flashes*
%LPD*%
*
*
G04 PC Circuitry*
G04 Layer Name XPCB-010.pcb - circuitry*
%LPD*%
*
G54D12*
G54D15*
G01X13971136Y8011563D02*
X13962045Y8023125D01*
X13962045D02*
X13948409Y8028906D01*
X13930227*
X13916591Y8023125*
X13907500Y8011563*
X13907500D02*
Y8000000D01*
X13912045Y7988438*
X13912045D02*
X13916591Y7982656D01*
X13925682Y7976875*
X13952955Y7965313*
X13952955D02*
X13962045Y7959531D01*
X13962045D02*
X13966591Y7953750D01*
X13971136Y7942188*
X13971136D02*
Y7924844D01*
X13962045Y7913281*
X13962045D02*
X13948409Y7907500D01*
X13930227*
X13916591Y7913281*
X13907500Y7924844*
X14039318Y8028906D02*
X14030227Y8023125D01*
X14021136Y8011563*
X14021136D02*
X14016591Y8000000D01*
X14012045Y7982656*
X14012045D02*
Y7953750D01*
X14012045D02*
X14016591Y7936406D01*
X14021136Y7924844*
X14030227Y7913281*
X14039318Y7907500*
X14057500*
X14066591Y7913281*
X14075682Y7924844*
X14080227Y7936406*
X14084773Y7953750*
Y7982656*
X14080227Y8000000*
X14075682Y8011563*
X14075682D02*
X14066591Y8023125D01*
X14057500Y8028906*
X14039318*
X14125682D02*
Y7907500D01*
X14180227*
X14221136Y8028906D02*
Y7907500D01*
Y8028906D02*
X14252955D01*
X14252955D02*
X14266591Y8023125D01*
X14275682Y8011563*
X14275682D02*
X14280227Y8000000D01*
X14284773Y7982656*
Y7953750*
X14280227Y7936406*
X14275682Y7924844*
X14266591Y7913281*
X14252955Y7907500*
X14252955D02*
X14221136D01*
X14325682Y8028906D02*
Y7907500D01*
Y8028906D02*
X14384773D01*
X14325682Y7971094D02*
X14362045D01*
X14325682Y7907500D02*
X14384773D01*
X14425682Y8028906D02*
Y7907500D01*
Y8028906D02*
X14466591D01*
X14480227Y8023125*
X14484773Y8017344*
X14489318Y8005781*
Y7994219*
X14484773Y7982656*
X14480227Y7976875*
X14466591Y7971094*
X14425682*
X14457500D02*
X14489318Y7907500D01*
X14634773Y8028906D02*
Y7907500D01*
Y8028906D02*
X14671136Y7907500D01*
X14707500Y8028906D02*
X14671136Y7907500D01*
X14707500Y8028906D02*
Y7907500D01*
X14784773Y8028906D02*
X14748409Y7907500D01*
X14784773Y8028906D02*
X14821136Y7907500D01*
X14762045Y7947969D02*
X14807500D01*
X14925682Y8011563D02*
X14916591Y8023125D01*
X14902955Y8028906*
X14902955D02*
X14884773D01*
X14871136Y8023125*
X14862045Y8011563*
X14862045D02*
Y8000000D01*
X14862045D02*
X14866591Y7988438D01*
X14866591D02*
X14871136Y7982656D01*
X14880227Y7976875*
X14907500Y7965313*
X14907500D02*
X14916591Y7959531D01*
X14921136Y7953750*
X14925682Y7942188*
X14925682D02*
Y7924844D01*
X14916591Y7913281*
X14902955Y7907500*
X14902955D02*
X14884773D01*
X14871136Y7913281*
X14862045Y7924844*
X14966591Y8028906D02*
Y7907500D01*
X15030227Y8028906D02*
X14966591Y7947969D01*
X14989318Y7976875D02*
X15030227Y7907500D01*
X15175682Y8028906D02*
Y7907500D01*
Y8028906D02*
X15216591D01*
X15230227Y8023125*
X15234773Y8017344*
X15239318Y8005781*
Y7994219*
X15234773Y7982656*
X15230227Y7976875*
X15216591Y7971094*
X15175682D02*
X15216591D01*
X15230227Y7965313*
X15230227D02*
X15234773Y7959531D01*
X15239318Y7947969*
Y7930625*
X15234773Y7919063*
X15234773D02*
X15230227Y7913281D01*
X15216591Y7907500*
X15175682*
X15307500Y8028906D02*
X15298409Y8023125D01*
X15289318Y8011563*
X15289318D02*
X15284773Y8000000D01*
X15280227Y7982656*
Y7953750*
X15284773Y7936406*
X15289318Y7924844*
X15298409Y7913281*
X15307500Y7907500*
X15325682*
X15334773Y7913281*
X15343864Y7924844*
X15348409Y7936406*
X15352955Y7953750*
X15352955D02*
Y7982656D01*
X15352955D02*
X15348409Y8000000D01*
X15343864Y8011563*
X15343864D02*
X15334773Y8023125D01*
X15325682Y8028906*
X15307500*
X15425682D02*
Y7907500D01*
X15393864Y8028906D02*
X15457500D01*
X15530227D02*
Y7907500D01*
X15498409Y8028906D02*
X15562045D01*
X15630227D02*
X15621136Y8023125D01*
X15612045Y8011563*
X15612045D02*
X15607500Y8000000D01*
X15602955Y7982656*
X15602955D02*
Y7953750D01*
X15602955D02*
X15607500Y7936406D01*
X15612045Y7924844*
X15612045D02*
X15621136Y7913281D01*
X15630227Y7907500*
X15648409*
X15657500Y7913281*
X15666591Y7924844*
X15671136Y7936406*
X15675682Y7953750*
Y7982656*
X15671136Y8000000*
X15666591Y8011563*
X15666591D02*
X15657500Y8023125D01*
X15648409Y8028906*
X15630227*
X15716591D02*
Y7907500D01*
Y8028906D02*
X15752955Y7907500D01*
X15789318Y8028906D02*
X15752955Y7907500D01*
X15789318Y8028906D02*
Y7907500D01*
X13007500Y8028906D02*
Y7907500D01*
X13062045*
X13139318Y8028906D02*
X13102955Y7907500D01*
X13139318Y8028906D02*
X13175682Y7907500D01*
X13116591Y7947969D02*
X13162045D01*
X13216591Y8028906D02*
X13252955Y7971094D01*
X13252955D02*
Y7907500D01*
X13289318Y8028906D02*
X13252955Y7971094D01*
X13330227Y8028906D02*
Y7907500D01*
Y8028906D02*
X13389318D01*
X13330227Y7971094D02*
X13366591D01*
X13330227Y7907500D02*
X13389318D01*
X13430227Y8028906D02*
Y7907500D01*
Y8028906D02*
X13471136D01*
X13484773Y8023125*
X13489318Y8017344*
X13493864Y8005781*
Y7994219*
X13489318Y7982656*
X13484773Y7976875*
X13471136Y7971094*
X13430227*
X13462045D02*
X13493864Y7907500D01*
X13639318Y7959531D02*
X13721136D01*
X13007500Y8228906D02*
X13071136Y8107500D01*
Y8228906D02*
X13007500Y8107500D01*
X13112045Y8228906D02*
Y8107500D01*
Y8228906D02*
X13148409Y8107500D01*
X13184773Y8228906D02*
X13148409Y8107500D01*
X13184773Y8228906D02*
Y8107500D01*
X13252955Y8228906D02*
X13243864Y8223125D01*
X13234773Y8211563*
X13234773D02*
X13230227Y8200000D01*
X13225682Y8182656*
Y8153750*
X13230227Y8136406*
X13234773Y8124844*
X13243864Y8113281*
X13252955Y8107500*
X13252955D02*
X13271136D01*
X13280227Y8113281*
X13289318Y8124844*
X13293864Y8136406*
X13298409Y8153750*
Y8182656*
X13293864Y8200000*
X13289318Y8211563*
X13289318D02*
X13280227Y8223125D01*
X13271136Y8228906*
X13252955*
X13402955Y8211563D02*
X13393864Y8223125D01*
X13380227Y8228906*
X13362045*
X13362045D02*
X13348409Y8223125D01*
X13339318Y8211563*
X13339318D02*
Y8200000D01*
X13343864Y8188438*
X13343864D02*
X13348409Y8182656D01*
X13357500Y8176875*
X13384773Y8165313*
X13384773D02*
X13393864Y8159531D01*
X13398409Y8153750*
X13402955Y8142188*
X13402955D02*
Y8124844D01*
X13402955D02*
X13393864Y8113281D01*
X13380227Y8107500*
X13362045*
X13362045D02*
X13348409Y8113281D01*
X13339318Y8124844*
X13548409Y8228906D02*
X13612045Y8107500D01*
Y8228906D02*
X13548409Y8107500D01*
X13652955Y8228906D02*
Y8107500D01*
Y8228906D02*
X13693864D01*
X13707500Y8223125*
X13712045Y8217344*
X13712045D02*
X13716591Y8205781D01*
Y8188438*
X13716591D02*
X13712045Y8176875D01*
X13712045D02*
X13707500Y8171094D01*
X13693864Y8165313*
X13693864D02*
X13652955D01*
X13825682Y8200000D02*
X13821136Y8211563D01*
X13821136D02*
X13812045Y8223125D01*
X13812045D02*
X13802955Y8228906D01*
X13802955D02*
X13784773D01*
X13775682Y8223125*
X13766591Y8211563*
X13766591D02*
X13762045Y8200000D01*
X13762045D02*
X13757500Y8182656D01*
Y8153750*
X13762045Y8136406*
X13762045D02*
X13766591Y8124844D01*
X13775682Y8113281*
X13784773Y8107500*
X13802955*
X13802955D02*
X13812045Y8113281D01*
X13812045D02*
X13821136Y8124844D01*
X13825682Y8136406*
X13866591Y8228906D02*
Y8107500D01*
Y8228906D02*
X13907500D01*
X13921136Y8223125*
X13925682Y8217344*
X13930227Y8205781*
Y8194219*
X13925682Y8182656*
X13921136Y8176875*
X13907500Y8171094*
X13866591D02*
X13907500D01*
X13921136Y8165313*
X13921136D02*
X13925682Y8159531D01*
X13930227Y8147969*
Y8130625*
X13925682Y8119063*
X13925682D02*
X13921136Y8113281D01*
X13907500Y8107500*
X13866591*
X13971136Y8159531D02*
X14052955D01*
X14121136Y8228906D02*
X14107500Y8223125D01*
X14098409Y8205781*
X14093864Y8176875*
Y8159531*
X14098409Y8130625*
X14107500Y8113281*
X14121136Y8107500*
X14130227*
X14143864Y8113281*
X14152955Y8130625*
X14152955D02*
X14157500Y8159531D01*
Y8176875*
X14152955Y8205781*
X14152955D02*
X14143864Y8223125D01*
X14130227Y8228906*
X14121136*
X14198409Y8205781D02*
X14207500Y8211563D01*
X14207500D02*
X14221136Y8228906D01*
Y8107500*
X14289318Y8228906D02*
X14275682Y8223125D01*
X14266591Y8205781*
X14262045Y8176875*
X14262045D02*
Y8159531D01*
X14262045D02*
X14266591Y8130625D01*
X14275682Y8113281*
X14289318Y8107500*
X14298409*
X14312045Y8113281*
X14312045D02*
X14321136Y8130625D01*
X14325682Y8159531*
Y8176875*
X14321136Y8205781*
X14312045Y8223125*
X14312045D02*
X14298409Y8228906D01*
X14289318*
X14471136Y8205781D02*
X14480227Y8211563D01*
X14480227D02*
X14493864Y8228906D01*
Y8107500*
X14598409Y8228906D02*
X14552955Y8107500D01*
X14534773Y8228906D02*
X14598409D01*
X14721136Y8252031D02*
X14639318Y8067031D01*
X14789318Y8228906D02*
X14775682Y8223125D01*
X14766591Y8205781*
X14762045Y8176875*
X14762045D02*
Y8159531D01*
X14762045D02*
X14766591Y8130625D01*
X14775682Y8113281*
X14789318Y8107500*
X14798409*
X14812045Y8113281*
X14812045D02*
X14821136Y8130625D01*
X14825682Y8159531*
Y8176875*
X14821136Y8205781*
X14812045Y8223125*
X14812045D02*
X14798409Y8228906D01*
X14789318*
X14875682D02*
X14925682D01*
X14898409Y8182656*
X14912045*
X14912045D02*
X14921136Y8176875D01*
X14925682Y8171094*
X14930227Y8153750*
Y8142188*
X14930227D02*
X14925682Y8124844D01*
X14916591Y8113281*
X14902955Y8107500*
X14902955D02*
X14889318D01*
X14875682Y8113281*
X14871136Y8119063*
X14871136D02*
X14866591Y8130625D01*
X15052955Y8252031D02*
X14971136Y8067031D01*
X15121136Y8228906D02*
X15107500Y8223125D01*
X15098409Y8205781*
X15093864Y8176875*
Y8159531*
X15098409Y8130625*
X15107500Y8113281*
X15121136Y8107500*
X15130227*
X15143864Y8113281*
X15152955Y8130625*
X15152955D02*
X15157500Y8159531D01*
Y8176875*
X15152955Y8205781*
X15152955D02*
X15143864Y8223125D01*
X15130227Y8228906*
X15121136*
X15257500Y8188438D02*
X15252955Y8171094D01*
X15252955D02*
X15243864Y8159531D01*
X15230227Y8153750*
X15225682*
X15212045Y8159531*
X15212045D02*
X15202955Y8171094D01*
X15202955D02*
X15198409Y8188438D01*
X15198409D02*
Y8194219D01*
X15202955Y8211563*
X15202955D02*
X15212045Y8223125D01*
X15212045D02*
X15225682Y8228906D01*
X15230227*
X15243864Y8223125*
X15252955Y8211563*
X15252955D02*
X15257500Y8188438D01*
X15257500D02*
Y8159531D01*
X15252955Y8130625*
X15252955D02*
X15243864Y8113281D01*
X15230227Y8107500*
X15221136*
X15207500Y8113281*
X15202955Y8124844*
G54D18*
X16157000Y13773000D03*
G54D19*
X21062500Y12846000D03*
Y13354000D03*
X16157000Y14027000D03*
X16411000Y13773000D03*
Y14027000D03*
X16665000Y13773000D03*
Y14027000D03*
X16919000Y13773000D03*
Y14027000D03*
X17173000Y13773000D03*
Y14027000D03*
X17427000Y13773000D03*
Y14027000D03*
X17681000Y13773000D03*
Y14027000D03*
X17935000Y13773000D03*
Y14027000D03*
X18189000Y13773000D03*
Y14027000D03*
X18443000Y13773000D03*
Y14027000D03*
X17208500Y9461500D03*
X20350000Y12800000D03*
X17208500Y10477500D03*
Y9715500D03*
Y10223500D03*
Y9969500D03*
X16954500Y9207500D03*
X17208500D03*
X19177000Y11303000D03*
X17208500Y10731500D03*
X19177000Y11557000D03*
Y11811000D03*
Y12065000D03*
Y12319000D03*
X16256000Y11239500D03*
X15367000Y14160500D03*
Y13906500D03*
X18669000Y10858500D03*
G54D31*
X20800000Y13354000D03*
Y13100000D03*
Y12846000D03*
G54D34*
X15056000Y9350000D03*
X15544000D03*
X15056000Y10550000D03*
X15544000D03*
G54D39*
X14100000Y11575000D03*
Y11825000D03*
X13900000D03*
Y11575000D03*
G54D40*
X13629000Y12300000D03*
Y11100000D03*
G54D41*
X13320000Y14080000D03*
Y9320000D03*
X21280000D03*
Y14080000D03*
X0Y0D02*
M02*
