*
*
G04 PADS Layout (Build Number 2008.43.1) generated Gerber (RS-274-X) file*
G04 PC Version=2.1*
*
%IN "XPCB-010.pcb"*%
*
%MOMM*%
*
%FSLAX35Y35*%
*
*
*
*
G04 PC Standard Apertures*
*
*
G04 Thermal Relief Aperture macro.*
%AMTER*
1,1,$1,0,0*
1,0,$1-$2,0,0*
21,0,$3,$4,0,0,45*
21,0,$3,$4,0,0,135*
%
*
*
G04 Annular Aperture macro.*
%AMANN*
1,1,$1,0,0*
1,0,$2,0,0*
%
*
*
G04 Odd Aperture macro.*
%AMODD*
1,1,$1,0,0*
1,0,$1-0.005,0,0*
%
*
*
G04 PC Custom Aperture Macros*
*
*
*
*
*
*
G04 PC Aperture Table*
*
%ADD012C,0.0254*%
%ADD015C,0.15*%
*
*
*
*
G04 PC Circuitry*
G04 Layer Name XPCB-010.pcb - circuitry*
%LPD*%
*
*
G04 PC Custom Flashes*
G04 Layer Name XPCB-010.pcb - flashes*
%LPD*%
*
*
G04 PC Circuitry*
G04 Layer Name XPCB-010.pcb - circuitry*
%LPD*%
*
G54D12*
G54D15*
G01X13971136Y8011563D02*
X13962045Y8023125D01*
X13962045D02*
X13948409Y8028906D01*
X13930227*
X13916591Y8023125*
X13907500Y8011563*
X13907500D02*
Y8000000D01*
X13912045Y7988438*
X13912045D02*
X13916591Y7982656D01*
X13925682Y7976875*
X13952955Y7965313*
X13952955D02*
X13962045Y7959531D01*
X13962045D02*
X13966591Y7953750D01*
X13971136Y7942188*
X13971136D02*
Y7924844D01*
X13962045Y7913281*
X13962045D02*
X13948409Y7907500D01*
X13930227*
X13916591Y7913281*
X13907500Y7924844*
X14012045Y8028906D02*
Y7907500D01*
X14052955Y8028906D02*
Y7907500D01*
X14052955D02*
X14107500D01*
X14148409Y8028906D02*
Y7907500D01*
X14212045Y8028906D02*
X14148409Y7947969D01*
X14171136Y7976875D02*
X14212045Y7907500D01*
X14316591Y8011563D02*
X14307500Y8023125D01*
X14293864Y8028906*
X14275682*
X14262045Y8023125*
X14262045D02*
X14252955Y8011563D01*
X14252955D02*
Y8000000D01*
X14252955D02*
X14257500Y7988438D01*
X14257500D02*
X14262045Y7982656D01*
X14262045D02*
X14271136Y7976875D01*
X14298409Y7965313*
X14298409D02*
X14307500Y7959531D01*
X14312045Y7953750*
X14312045D02*
X14316591Y7942188D01*
X14316591D02*
Y7924844D01*
X14307500Y7913281*
X14293864Y7907500*
X14275682*
X14262045Y7913281*
X14262045D02*
X14252955Y7924844D01*
X14425682Y8000000D02*
X14421136Y8011563D01*
X14421136D02*
X14412045Y8023125D01*
X14412045D02*
X14402955Y8028906D01*
X14402955D02*
X14384773D01*
X14375682Y8023125*
X14366591Y8011563*
X14366591D02*
X14362045Y8000000D01*
X14362045D02*
X14357500Y7982656D01*
Y7953750*
X14362045Y7936406*
X14362045D02*
X14366591Y7924844D01*
X14375682Y7913281*
X14384773Y7907500*
X14402955*
X14402955D02*
X14412045Y7913281D01*
X14412045D02*
X14421136Y7924844D01*
X14425682Y7936406*
X14466591Y8028906D02*
Y7907500D01*
Y8028906D02*
X14507500D01*
X14521136Y8023125*
X14525682Y8017344*
X14530227Y8005781*
Y7994219*
X14525682Y7982656*
X14521136Y7976875*
X14507500Y7971094*
X14466591*
X14498409D02*
X14530227Y7907500D01*
X14571136Y8028906D02*
Y7907500D01*
Y8028906D02*
X14630227D01*
X14571136Y7971094D02*
X14607500D01*
X14571136Y7907500D02*
X14630227D01*
X14671136Y8028906D02*
Y7907500D01*
Y8028906D02*
X14730227D01*
X14671136Y7971094D02*
X14707500D01*
X14671136Y7907500D02*
X14730227D01*
X14771136Y8028906D02*
Y7907500D01*
Y8028906D02*
X14830227D01*
X14771136Y7971094D02*
X14807500D01*
X14771136Y7907500D02*
X14830227D01*
X14871136Y8028906D02*
Y7907500D01*
Y8028906D02*
X14934773Y7907500D01*
Y8028906D02*
Y7907500D01*
X15080227Y8028906D02*
Y7907500D01*
Y8028906D02*
X15121136D01*
X15134773Y8023125*
X15139318Y8017344*
X15143864Y8005781*
Y7994219*
X15139318Y7982656*
X15134773Y7976875*
X15121136Y7971094*
X15080227D02*
X15121136D01*
X15134773Y7965313*
X15134773D02*
X15139318Y7959531D01*
X15143864Y7947969*
Y7930625*
X15139318Y7919063*
X15139318D02*
X15134773Y7913281D01*
X15121136Y7907500*
X15080227*
X15212045Y8028906D02*
X15202955Y8023125D01*
X15202955D02*
X15193864Y8011563D01*
X15193864D02*
X15189318Y8000000D01*
X15184773Y7982656*
Y7953750*
X15189318Y7936406*
X15193864Y7924844*
X15202955Y7913281*
X15202955D02*
X15212045Y7907500D01*
X15212045D02*
X15230227D01*
X15239318Y7913281*
X15248409Y7924844*
X15252955Y7936406*
X15252955D02*
X15257500Y7953750D01*
Y7982656*
X15252955Y8000000*
X15252955D02*
X15248409Y8011563D01*
X15248409D02*
X15239318Y8023125D01*
X15230227Y8028906*
X15212045*
X15330227D02*
Y7907500D01*
X15298409Y8028906D02*
X15362045D01*
X15434773D02*
Y7907500D01*
X15402955Y8028906D02*
X15466591D01*
X15534773D02*
X15525682Y8023125D01*
X15516591Y8011563*
X15516591D02*
X15512045Y8000000D01*
X15512045D02*
X15507500Y7982656D01*
Y7953750*
X15512045Y7936406*
X15512045D02*
X15516591Y7924844D01*
X15525682Y7913281*
X15534773Y7907500*
X15552955*
X15552955D02*
X15562045Y7913281D01*
X15562045D02*
X15571136Y7924844D01*
X15575682Y7936406*
X15580227Y7953750*
Y7982656*
X15575682Y8000000*
X15571136Y8011563*
X15571136D02*
X15562045Y8023125D01*
X15562045D02*
X15552955Y8028906D01*
X15552955D02*
X15534773D01*
X15621136D02*
Y7907500D01*
Y8028906D02*
X15657500Y7907500D01*
X15693864Y8028906D02*
X15657500Y7907500D01*
X15693864Y8028906D02*
Y7907500D01*
X13007500Y8028906D02*
Y7907500D01*
X13062045*
X13139318Y8028906D02*
X13102955Y7907500D01*
X13139318Y8028906D02*
X13175682Y7907500D01*
X13116591Y7947969D02*
X13162045D01*
X13216591Y8028906D02*
X13252955Y7971094D01*
X13252955D02*
Y7907500D01*
X13289318Y8028906D02*
X13252955Y7971094D01*
X13330227Y8028906D02*
Y7907500D01*
Y8028906D02*
X13389318D01*
X13330227Y7971094D02*
X13366591D01*
X13330227Y7907500D02*
X13389318D01*
X13430227Y8028906D02*
Y7907500D01*
Y8028906D02*
X13471136D01*
X13484773Y8023125*
X13489318Y8017344*
X13493864Y8005781*
Y7994219*
X13489318Y7982656*
X13484773Y7976875*
X13471136Y7971094*
X13430227*
X13462045D02*
X13493864Y7907500D01*
X13639318Y7959531D02*
X13721136D01*
X13007500Y8228906D02*
X13071136Y8107500D01*
Y8228906D02*
X13007500Y8107500D01*
X13112045Y8228906D02*
Y8107500D01*
Y8228906D02*
X13148409Y8107500D01*
X13184773Y8228906D02*
X13148409Y8107500D01*
X13184773Y8228906D02*
Y8107500D01*
X13252955Y8228906D02*
X13243864Y8223125D01*
X13234773Y8211563*
X13234773D02*
X13230227Y8200000D01*
X13225682Y8182656*
Y8153750*
X13230227Y8136406*
X13234773Y8124844*
X13243864Y8113281*
X13252955Y8107500*
X13252955D02*
X13271136D01*
X13280227Y8113281*
X13289318Y8124844*
X13293864Y8136406*
X13298409Y8153750*
Y8182656*
X13293864Y8200000*
X13289318Y8211563*
X13289318D02*
X13280227Y8223125D01*
X13271136Y8228906*
X13252955*
X13402955Y8211563D02*
X13393864Y8223125D01*
X13380227Y8228906*
X13362045*
X13362045D02*
X13348409Y8223125D01*
X13339318Y8211563*
X13339318D02*
Y8200000D01*
X13343864Y8188438*
X13343864D02*
X13348409Y8182656D01*
X13357500Y8176875*
X13384773Y8165313*
X13384773D02*
X13393864Y8159531D01*
X13398409Y8153750*
X13402955Y8142188*
X13402955D02*
Y8124844D01*
X13402955D02*
X13393864Y8113281D01*
X13380227Y8107500*
X13362045*
X13362045D02*
X13348409Y8113281D01*
X13339318Y8124844*
X13548409Y8228906D02*
X13612045Y8107500D01*
Y8228906D02*
X13548409Y8107500D01*
X13652955Y8228906D02*
Y8107500D01*
Y8228906D02*
X13693864D01*
X13707500Y8223125*
X13712045Y8217344*
X13712045D02*
X13716591Y8205781D01*
Y8188438*
X13716591D02*
X13712045Y8176875D01*
X13712045D02*
X13707500Y8171094D01*
X13693864Y8165313*
X13693864D02*
X13652955D01*
X13825682Y8200000D02*
X13821136Y8211563D01*
X13821136D02*
X13812045Y8223125D01*
X13812045D02*
X13802955Y8228906D01*
X13802955D02*
X13784773D01*
X13775682Y8223125*
X13766591Y8211563*
X13766591D02*
X13762045Y8200000D01*
X13762045D02*
X13757500Y8182656D01*
Y8153750*
X13762045Y8136406*
X13762045D02*
X13766591Y8124844D01*
X13775682Y8113281*
X13784773Y8107500*
X13802955*
X13802955D02*
X13812045Y8113281D01*
X13812045D02*
X13821136Y8124844D01*
X13825682Y8136406*
X13866591Y8228906D02*
Y8107500D01*
Y8228906D02*
X13907500D01*
X13921136Y8223125*
X13925682Y8217344*
X13930227Y8205781*
Y8194219*
X13925682Y8182656*
X13921136Y8176875*
X13907500Y8171094*
X13866591D02*
X13907500D01*
X13921136Y8165313*
X13921136D02*
X13925682Y8159531D01*
X13930227Y8147969*
Y8130625*
X13925682Y8119063*
X13925682D02*
X13921136Y8113281D01*
X13907500Y8107500*
X13866591*
X13971136Y8159531D02*
X14052955D01*
X14121136Y8228906D02*
X14107500Y8223125D01*
X14098409Y8205781*
X14093864Y8176875*
Y8159531*
X14098409Y8130625*
X14107500Y8113281*
X14121136Y8107500*
X14130227*
X14143864Y8113281*
X14152955Y8130625*
X14152955D02*
X14157500Y8159531D01*
Y8176875*
X14152955Y8205781*
X14152955D02*
X14143864Y8223125D01*
X14130227Y8228906*
X14121136*
X14198409Y8205781D02*
X14207500Y8211563D01*
X14207500D02*
X14221136Y8228906D01*
Y8107500*
X14289318Y8228906D02*
X14275682Y8223125D01*
X14266591Y8205781*
X14262045Y8176875*
X14262045D02*
Y8159531D01*
X14262045D02*
X14266591Y8130625D01*
X14275682Y8113281*
X14289318Y8107500*
X14298409*
X14312045Y8113281*
X14312045D02*
X14321136Y8130625D01*
X14325682Y8159531*
Y8176875*
X14321136Y8205781*
X14312045Y8223125*
X14312045D02*
X14298409Y8228906D01*
X14289318*
X14471136Y8205781D02*
X14480227Y8211563D01*
X14480227D02*
X14493864Y8228906D01*
Y8107500*
X14598409Y8228906D02*
X14552955Y8107500D01*
X14534773Y8228906D02*
X14598409D01*
X14721136Y8252031D02*
X14639318Y8067031D01*
X14789318Y8228906D02*
X14775682Y8223125D01*
X14766591Y8205781*
X14762045Y8176875*
X14762045D02*
Y8159531D01*
X14762045D02*
X14766591Y8130625D01*
X14775682Y8113281*
X14789318Y8107500*
X14798409*
X14812045Y8113281*
X14812045D02*
X14821136Y8130625D01*
X14825682Y8159531*
Y8176875*
X14821136Y8205781*
X14812045Y8223125*
X14812045D02*
X14798409Y8228906D01*
X14789318*
X14875682D02*
X14925682D01*
X14898409Y8182656*
X14912045*
X14912045D02*
X14921136Y8176875D01*
X14925682Y8171094*
X14930227Y8153750*
Y8142188*
X14930227D02*
X14925682Y8124844D01*
X14916591Y8113281*
X14902955Y8107500*
X14902955D02*
X14889318D01*
X14875682Y8113281*
X14871136Y8119063*
X14871136D02*
X14866591Y8130625D01*
X15052955Y8252031D02*
X14971136Y8067031D01*
X15121136Y8228906D02*
X15107500Y8223125D01*
X15098409Y8205781*
X15093864Y8176875*
Y8159531*
X15098409Y8130625*
X15107500Y8113281*
X15121136Y8107500*
X15130227*
X15143864Y8113281*
X15152955Y8130625*
X15152955D02*
X15157500Y8159531D01*
Y8176875*
X15152955Y8205781*
X15152955D02*
X15143864Y8223125D01*
X15130227Y8228906*
X15121136*
X15257500Y8188438D02*
X15252955Y8171094D01*
X15252955D02*
X15243864Y8159531D01*
X15230227Y8153750*
X15225682*
X15212045Y8159531*
X15212045D02*
X15202955Y8171094D01*
X15202955D02*
X15198409Y8188438D01*
X15198409D02*
Y8194219D01*
X15202955Y8211563*
X15202955D02*
X15212045Y8223125D01*
X15212045D02*
X15225682Y8228906D01*
X15230227*
X15243864Y8223125*
X15252955Y8211563*
X15252955D02*
X15257500Y8188438D01*
X15257500D02*
Y8159531D01*
X15252955Y8130625*
X15252955D02*
X15243864Y8113281D01*
X15230227Y8107500*
X15221136*
X15207500Y8113281*
X15202955Y8124844*
X0Y0D02*
M02*
