*
*
G04 PADS Layout (Build Number 2008.43.1) generated Gerber (RS-274-X) file*
G04 PC Version=2.1*
*
%IN "XPCB-010.pcb"*%
*
%MOMM*%
*
%FSLAX35Y35*%
*
*
*
*
G04 PC Standard Apertures*
*
*
G04 Thermal Relief Aperture macro.*
%AMTER*
1,1,$1,0,0*
1,0,$1-$2,0,0*
21,0,$3,$4,0,0,45*
21,0,$3,$4,0,0,135*
%
*
*
G04 Annular Aperture macro.*
%AMANN*
1,1,$1,0,0*
1,0,$2,0,0*
%
*
*
G04 Odd Aperture macro.*
%AMODD*
1,1,$1,0,0*
1,0,$1-0.005,0,0*
%
*
*
G04 PC Custom Aperture Macros*
*
*
*
*
*
*
G04 PC Aperture Table*
*
%ADD011C,0.01*%
%ADD012C,0.0254*%
%ADD015C,0.15*%
%ADD017C,0.3*%
%ADD020R,0.6X0.6*%
%ADD022R,0.9X0.9*%
%ADD025C,0.05*%
%ADD028R,1.6X1.6*%
%ADD029R,1X1*%
%ADD032R,2.2X2.2*%
%ADD033R,2.8X2.8*%
%ADD035R,0.7X0.7*%
%ADD036R,0.4X0.4*%
%ADD037R,0.45X0.45*%
%ADD044R,0.2X0.2*%
*
*
*
*
G04 PC Circuitry*
G04 Layer Name XPCB-010.pcb - circuitry*
%LPD*%
*
*
G04 PC Custom Flashes*
G04 Layer Name XPCB-010.pcb - flashes*
%LPD*%
*
*
G04 PC Circuitry*
G04 Layer Name XPCB-010.pcb - circuitry*
%LPD*%
*
G54D11*
G01X17090500Y12309500D02*
Y12190500D01*
X17209500*
Y12309500*
X17090500*
Y12190500D02*
Y12309500D01*
X17091000Y12190500D02*
Y12309500D01*
X17091500Y12190500D02*
Y12309500D01*
X17092000Y12190500D02*
Y12309500D01*
X17092500Y12190500D02*
Y12309500D01*
X17093000Y12190500D02*
Y12309500D01*
X17093500Y12190500D02*
Y12309500D01*
X17094000Y12190500D02*
Y12309500D01*
X17094500Y12190500D02*
Y12309500D01*
X17095000Y12190500D02*
Y12309500D01*
X17095500Y12190500D02*
Y12309500D01*
X17096000Y12190500D02*
Y12309500D01*
X17096500Y12190500D02*
Y12309500D01*
X17097000Y12190500D02*
Y12309500D01*
X17097500Y12190500D02*
Y12309500D01*
X17098000Y12190500D02*
Y12309500D01*
X17098500Y12190500D02*
Y12309500D01*
X17099000Y12190500D02*
Y12309500D01*
X17099500Y12190500D02*
Y12309500D01*
X17100000Y12190500D02*
Y12309500D01*
X17100500Y12190500D02*
Y12309500D01*
X17101000Y12190500D02*
Y12309500D01*
X17101500Y12190500D02*
Y12309500D01*
X17102000Y12190500D02*
Y12309500D01*
X17102500Y12190500D02*
Y12309500D01*
X17103000Y12190500D02*
Y12309500D01*
X17103500Y12190500D02*
Y12309500D01*
X17104000Y12190500D02*
Y12309500D01*
X17104500Y12190500D02*
Y12309500D01*
X17105000Y12190500D02*
Y12309500D01*
X17105500Y12190500D02*
Y12309500D01*
X17106000Y12190500D02*
Y12309500D01*
X17106500Y12190500D02*
Y12309500D01*
X17107000Y12190500D02*
Y12309500D01*
X17107500Y12190500D02*
Y12309500D01*
X17108000Y12190500D02*
Y12309500D01*
X17108500Y12190500D02*
Y12309500D01*
X17109000Y12190500D02*
Y12309500D01*
X17109500Y12190500D02*
Y12309500D01*
X17110000Y12190500D02*
Y12309500D01*
X17110500Y12190500D02*
Y12309500D01*
X17111000Y12190500D02*
Y12309500D01*
X17111500Y12190500D02*
Y12309500D01*
X17112000Y12190500D02*
Y12309500D01*
X17112500Y12190500D02*
Y12309500D01*
X17113000Y12190500D02*
Y12309500D01*
X17113500Y12190500D02*
Y12309500D01*
X17114000Y12190500D02*
Y12309500D01*
X17114500Y12190500D02*
Y12309500D01*
X17115000Y12190500D02*
Y12309500D01*
X17115500Y12190500D02*
Y12309500D01*
X17116000Y12190500D02*
Y12309500D01*
X17116500Y12190500D02*
Y12309500D01*
X17117000Y12190500D02*
Y12309500D01*
X17117500Y12190500D02*
Y12309500D01*
X17118000Y12190500D02*
Y12309500D01*
X17118500Y12190500D02*
Y12309500D01*
X17119000Y12190500D02*
Y12309500D01*
X17119500Y12190500D02*
Y12309500D01*
X17120000Y12190500D02*
Y12309500D01*
X17120500Y12190500D02*
Y12309500D01*
X17121000Y12190500D02*
Y12309500D01*
X17121500Y12190500D02*
Y12309500D01*
X17122000Y12190500D02*
Y12309500D01*
X17122500Y12190500D02*
Y12309500D01*
X17123000Y12190500D02*
Y12309500D01*
X17123500Y12190500D02*
Y12309500D01*
X17124000Y12190500D02*
Y12309500D01*
X17124500Y12190500D02*
Y12309500D01*
X17125000Y12190500D02*
Y12309500D01*
X17125500Y12190500D02*
Y12309500D01*
X17126000Y12190500D02*
Y12309500D01*
X17126500Y12190500D02*
Y12309500D01*
X17127000Y12190500D02*
Y12309500D01*
X17127500Y12190500D02*
Y12309500D01*
X17128000Y12190500D02*
Y12309500D01*
X17128500Y12190500D02*
Y12309500D01*
X17129000Y12190500D02*
Y12309500D01*
X17129500Y12190500D02*
Y12309500D01*
X17130000Y12190500D02*
Y12309500D01*
X17130500Y12190500D02*
Y12309500D01*
X17131000Y12190500D02*
Y12309500D01*
X17131500Y12190500D02*
Y12309500D01*
X17132000Y12190500D02*
Y12309500D01*
X17132500Y12190500D02*
Y12309500D01*
X17133000Y12190500D02*
Y12309500D01*
X17133500Y12190500D02*
Y12309500D01*
X17134000Y12190500D02*
Y12309500D01*
X17134500Y12190500D02*
Y12309500D01*
X17135000Y12190500D02*
Y12309500D01*
X17135500Y12190500D02*
Y12309500D01*
X17136000Y12190500D02*
Y12309500D01*
X17136500Y12190500D02*
Y12309500D01*
X17137000Y12190500D02*
Y12309500D01*
X17137500Y12190500D02*
Y12309500D01*
X17138000Y12190500D02*
Y12309500D01*
X17138500Y12190500D02*
Y12309500D01*
X17139000Y12190500D02*
Y12309500D01*
X17139500Y12190500D02*
Y12309500D01*
X17140000Y12190500D02*
Y12309500D01*
X17140500Y12190500D02*
Y12309500D01*
X17141000Y12190500D02*
Y12309500D01*
X17141500Y12190500D02*
Y12309500D01*
X17142000Y12190500D02*
Y12309500D01*
X17142500Y12190500D02*
Y12309500D01*
X17143000Y12190500D02*
Y12309500D01*
X17143500Y12190500D02*
Y12309500D01*
X17144000Y12190500D02*
Y12309500D01*
X17144500Y12190500D02*
Y12309500D01*
X17145000Y12190500D02*
Y12309500D01*
X17145500Y12190500D02*
Y12309500D01*
X17146000Y12190500D02*
Y12309500D01*
X17146500Y12190500D02*
Y12309500D01*
X17147000Y12190500D02*
Y12309500D01*
X17147500Y12190500D02*
Y12309500D01*
X17148000Y12190500D02*
Y12309500D01*
X17148500Y12190500D02*
Y12309500D01*
X17149000Y12190500D02*
Y12309500D01*
X17149500Y12190500D02*
Y12309500D01*
X17150000Y12190500D02*
Y12309500D01*
X17150500Y12190500D02*
Y12309500D01*
X17151000Y12190500D02*
Y12309500D01*
X17151500Y12190500D02*
Y12309500D01*
X17152000Y12190500D02*
Y12309500D01*
X17152500Y12190500D02*
Y12309500D01*
X17153000Y12190500D02*
Y12309500D01*
X17153500Y12190500D02*
Y12309500D01*
X17154000Y12190500D02*
Y12309500D01*
X17154500Y12190500D02*
Y12309500D01*
X17155000Y12190500D02*
Y12309500D01*
X17155500Y12190500D02*
Y12309500D01*
X17156000Y12190500D02*
Y12309500D01*
X17156500Y12190500D02*
Y12309500D01*
X17157000Y12190500D02*
Y12309500D01*
X17157500Y12190500D02*
Y12309500D01*
X17158000Y12190500D02*
Y12309500D01*
X17158500Y12190500D02*
Y12309500D01*
X17159000Y12190500D02*
Y12309500D01*
X17159500Y12190500D02*
Y12309500D01*
X17160000Y12190500D02*
Y12309500D01*
X17160500Y12190500D02*
Y12309500D01*
X17161000Y12190500D02*
Y12309500D01*
X17161500Y12190500D02*
Y12309500D01*
X17162000Y12190500D02*
Y12309500D01*
X17162500Y12190500D02*
Y12309500D01*
X17163000Y12190500D02*
Y12309500D01*
X17163500Y12190500D02*
Y12309500D01*
X17164000Y12190500D02*
Y12309500D01*
X17164500Y12190500D02*
Y12309500D01*
X17165000Y12190500D02*
Y12309500D01*
X17165500Y12190500D02*
Y12309500D01*
X17166000Y12190500D02*
Y12309500D01*
X17166500Y12190500D02*
Y12309500D01*
X17167000Y12190500D02*
Y12309500D01*
X17167500Y12190500D02*
Y12309500D01*
X17168000Y12190500D02*
Y12309500D01*
X17168500Y12190500D02*
Y12309500D01*
X17169000Y12190500D02*
Y12309500D01*
X17169500Y12190500D02*
Y12309500D01*
X17170000Y12190500D02*
Y12309500D01*
X17170500Y12190500D02*
Y12309500D01*
X17171000Y12190500D02*
Y12309500D01*
X17171500Y12190500D02*
Y12309500D01*
X17172000Y12190500D02*
Y12309500D01*
X17172500Y12190500D02*
Y12309500D01*
X17173000Y12190500D02*
Y12309500D01*
X17173500Y12190500D02*
Y12309500D01*
X17174000Y12190500D02*
Y12309500D01*
X17174500Y12190500D02*
Y12309500D01*
X17175000Y12190500D02*
Y12309500D01*
X17175500Y12190500D02*
Y12309500D01*
X17176000Y12190500D02*
Y12309500D01*
X17176500Y12190500D02*
Y12309500D01*
X17177000Y12190500D02*
Y12309500D01*
X17177500Y12190500D02*
Y12309500D01*
X17178000Y12190500D02*
Y12309500D01*
X17178500Y12190500D02*
Y12309500D01*
X17179000Y12190500D02*
Y12309500D01*
X17179500Y12190500D02*
Y12309500D01*
X17180000Y12190500D02*
Y12309500D01*
X17180500Y12190500D02*
Y12309500D01*
X17181000Y12190500D02*
Y12309500D01*
X17181500Y12190500D02*
Y12309500D01*
X17182000Y12190500D02*
Y12309500D01*
X17182500Y12190500D02*
Y12309500D01*
X17183000Y12190500D02*
Y12309500D01*
X17183500Y12190500D02*
Y12309500D01*
X17184000Y12190500D02*
Y12309500D01*
X17184500Y12190500D02*
Y12309500D01*
X17185000Y12190500D02*
Y12309500D01*
X17185500Y12190500D02*
Y12309500D01*
X17186000Y12190500D02*
Y12309500D01*
X17186500Y12190500D02*
Y12309500D01*
X17187000Y12190500D02*
Y12309500D01*
X17187500Y12190500D02*
Y12309500D01*
X17188000Y12190500D02*
Y12309500D01*
X17188500Y12190500D02*
Y12309500D01*
X17189000Y12190500D02*
Y12309500D01*
X17189500Y12190500D02*
Y12309500D01*
X17190000Y12190500D02*
Y12309500D01*
X17190500Y12190500D02*
Y12309500D01*
X17191000Y12190500D02*
Y12309500D01*
X17191500Y12190500D02*
Y12309500D01*
X17192000Y12190500D02*
Y12309500D01*
X17192500Y12190500D02*
Y12309500D01*
X17193000Y12190500D02*
Y12309500D01*
X17193500Y12190500D02*
Y12309500D01*
X17194000Y12190500D02*
Y12309500D01*
X17194500Y12190500D02*
Y12309500D01*
X17195000Y12190500D02*
Y12309500D01*
X17195500Y12190500D02*
Y12309500D01*
X17196000Y12190500D02*
Y12309500D01*
X17196500Y12190500D02*
Y12309500D01*
X17197000Y12190500D02*
Y12309500D01*
X17197500Y12190500D02*
Y12309500D01*
X17198000Y12190500D02*
Y12309500D01*
X17198500Y12190500D02*
Y12309500D01*
X17199000Y12190500D02*
Y12309500D01*
X17199500Y12190500D02*
Y12309500D01*
X17200000Y12190500D02*
Y12309500D01*
X17200500Y12190500D02*
Y12309500D01*
X17201000Y12190500D02*
Y12309500D01*
X17201500Y12190500D02*
Y12309500D01*
X17202000Y12190500D02*
Y12309500D01*
X17202500Y12190500D02*
Y12309500D01*
X17203000Y12190500D02*
Y12309500D01*
X17203500Y12190500D02*
Y12309500D01*
X17204000Y12190500D02*
Y12309500D01*
X17204500Y12190500D02*
Y12309500D01*
X17205000Y12190500D02*
Y12309500D01*
X17205500Y12190500D02*
Y12309500D01*
X17206000Y12190500D02*
Y12309500D01*
X17206500Y12190500D02*
Y12309500D01*
X17207000Y12190500D02*
Y12309500D01*
X17207500Y12190500D02*
Y12309500D01*
X17208000Y12190500D02*
Y12309500D01*
X17208500Y12190500D02*
Y12309500D01*
X17209000Y12190500D02*
Y12309500D01*
X17090500Y12459500D02*
Y12340500D01*
X17209500*
Y12459500*
X17090500*
Y12340500D02*
Y12459500D01*
X17091000Y12340500D02*
Y12459500D01*
X17091500Y12340500D02*
Y12459500D01*
X17092000Y12340500D02*
Y12459500D01*
X17092500Y12340500D02*
Y12459500D01*
X17093000Y12340500D02*
Y12459500D01*
X17093500Y12340500D02*
Y12459500D01*
X17094000Y12340500D02*
Y12459500D01*
X17094500Y12340500D02*
Y12459500D01*
X17095000Y12340500D02*
Y12459500D01*
X17095500Y12340500D02*
Y12459500D01*
X17096000Y12340500D02*
Y12459500D01*
X17096500Y12340500D02*
Y12459500D01*
X17097000Y12340500D02*
Y12459500D01*
X17097500Y12340500D02*
Y12459500D01*
X17098000Y12340500D02*
Y12459500D01*
X17098500Y12340500D02*
Y12459500D01*
X17099000Y12340500D02*
Y12459500D01*
X17099500Y12340500D02*
Y12459500D01*
X17100000Y12340500D02*
Y12459500D01*
X17100500Y12340500D02*
Y12459500D01*
X17101000Y12340500D02*
Y12459500D01*
X17101500Y12340500D02*
Y12459500D01*
X17102000Y12340500D02*
Y12459500D01*
X17102500Y12340500D02*
Y12459500D01*
X17103000Y12340500D02*
Y12459500D01*
X17103500Y12340500D02*
Y12459500D01*
X17104000Y12340500D02*
Y12459500D01*
X17104500Y12340500D02*
Y12459500D01*
X17105000Y12340500D02*
Y12459500D01*
X17105500Y12340500D02*
Y12459500D01*
X17106000Y12340500D02*
Y12459500D01*
X17106500Y12340500D02*
Y12459500D01*
X17107000Y12340500D02*
Y12459500D01*
X17107500Y12340500D02*
Y12459500D01*
X17108000Y12340500D02*
Y12459500D01*
X17108500Y12340500D02*
Y12459500D01*
X17109000Y12340500D02*
Y12459500D01*
X17109500Y12340500D02*
Y12459500D01*
X17110000Y12340500D02*
Y12459500D01*
X17110500Y12340500D02*
Y12459500D01*
X17111000Y12340500D02*
Y12459500D01*
X17111500Y12340500D02*
Y12459500D01*
X17112000Y12340500D02*
Y12459500D01*
X17112500Y12340500D02*
Y12459500D01*
X17113000Y12340500D02*
Y12459500D01*
X17113500Y12340500D02*
Y12459500D01*
X17114000Y12340500D02*
Y12459500D01*
X17114500Y12340500D02*
Y12459500D01*
X17115000Y12340500D02*
Y12459500D01*
X17115500Y12340500D02*
Y12459500D01*
X17116000Y12340500D02*
Y12459500D01*
X17116500Y12340500D02*
Y12459500D01*
X17117000Y12340500D02*
Y12459500D01*
X17117500Y12340500D02*
Y12459500D01*
X17118000Y12340500D02*
Y12459500D01*
X17118500Y12340500D02*
Y12459500D01*
X17119000Y12340500D02*
Y12459500D01*
X17119500Y12340500D02*
Y12459500D01*
X17120000Y12340500D02*
Y12459500D01*
X17120500Y12340500D02*
Y12459500D01*
X17121000Y12340500D02*
Y12459500D01*
X17121500Y12340500D02*
Y12459500D01*
X17122000Y12340500D02*
Y12459500D01*
X17122500Y12340500D02*
Y12459500D01*
X17123000Y12340500D02*
Y12459500D01*
X17123500Y12340500D02*
Y12459500D01*
X17124000Y12340500D02*
Y12459500D01*
X17124500Y12340500D02*
Y12459500D01*
X17125000Y12340500D02*
Y12459500D01*
X17125500Y12340500D02*
Y12459500D01*
X17126000Y12340500D02*
Y12459500D01*
X17126500Y12340500D02*
Y12459500D01*
X17127000Y12340500D02*
Y12459500D01*
X17127500Y12340500D02*
Y12459500D01*
X17128000Y12340500D02*
Y12459500D01*
X17128500Y12340500D02*
Y12459500D01*
X17129000Y12340500D02*
Y12459500D01*
X17129500Y12340500D02*
Y12459500D01*
X17130000Y12340500D02*
Y12459500D01*
X17130500Y12340500D02*
Y12459500D01*
X17131000Y12340500D02*
Y12459500D01*
X17131500Y12340500D02*
Y12459500D01*
X17132000Y12340500D02*
Y12459500D01*
X17132500Y12340500D02*
Y12459500D01*
X17133000Y12340500D02*
Y12459500D01*
X17133500Y12340500D02*
Y12459500D01*
X17134000Y12340500D02*
Y12459500D01*
X17134500Y12340500D02*
Y12459500D01*
X17135000Y12340500D02*
Y12459500D01*
X17135500Y12340500D02*
Y12459500D01*
X17136000Y12340500D02*
Y12459500D01*
X17136500Y12340500D02*
Y12459500D01*
X17137000Y12340500D02*
Y12459500D01*
X17137500Y12340500D02*
Y12459500D01*
X17138000Y12340500D02*
Y12459500D01*
X17138500Y12340500D02*
Y12459500D01*
X17139000Y12340500D02*
Y12459500D01*
X17139500Y12340500D02*
Y12459500D01*
X17140000Y12340500D02*
Y12459500D01*
X17140500Y12340500D02*
Y12459500D01*
X17141000Y12340500D02*
Y12459500D01*
X17141500Y12340500D02*
Y12459500D01*
X17142000Y12340500D02*
Y12459500D01*
X17142500Y12340500D02*
Y12459500D01*
X17143000Y12340500D02*
Y12459500D01*
X17143500Y12340500D02*
Y12459500D01*
X17144000Y12340500D02*
Y12459500D01*
X17144500Y12340500D02*
Y12459500D01*
X17145000Y12340500D02*
Y12459500D01*
X17145500Y12340500D02*
Y12459500D01*
X17146000Y12340500D02*
Y12459500D01*
X17146500Y12340500D02*
Y12459500D01*
X17147000Y12340500D02*
Y12459500D01*
X17147500Y12340500D02*
Y12459500D01*
X17148000Y12340500D02*
Y12459500D01*
X17148500Y12340500D02*
Y12459500D01*
X17149000Y12340500D02*
Y12459500D01*
X17149500Y12340500D02*
Y12459500D01*
X17150000Y12340500D02*
Y12459500D01*
X17150500Y12340500D02*
Y12459500D01*
X17151000Y12340500D02*
Y12459500D01*
X17151500Y12340500D02*
Y12459500D01*
X17152000Y12340500D02*
Y12459500D01*
X17152500Y12340500D02*
Y12459500D01*
X17153000Y12340500D02*
Y12459500D01*
X17153500Y12340500D02*
Y12459500D01*
X17154000Y12340500D02*
Y12459500D01*
X17154500Y12340500D02*
Y12459500D01*
X17155000Y12340500D02*
Y12459500D01*
X17155500Y12340500D02*
Y12459500D01*
X17156000Y12340500D02*
Y12459500D01*
X17156500Y12340500D02*
Y12459500D01*
X17157000Y12340500D02*
Y12459500D01*
X17157500Y12340500D02*
Y12459500D01*
X17158000Y12340500D02*
Y12459500D01*
X17158500Y12340500D02*
Y12459500D01*
X17159000Y12340500D02*
Y12459500D01*
X17159500Y12340500D02*
Y12459500D01*
X17160000Y12340500D02*
Y12459500D01*
X17160500Y12340500D02*
Y12459500D01*
X17161000Y12340500D02*
Y12459500D01*
X17161500Y12340500D02*
Y12459500D01*
X17162000Y12340500D02*
Y12459500D01*
X17162500Y12340500D02*
Y12459500D01*
X17163000Y12340500D02*
Y12459500D01*
X17163500Y12340500D02*
Y12459500D01*
X17164000Y12340500D02*
Y12459500D01*
X17164500Y12340500D02*
Y12459500D01*
X17165000Y12340500D02*
Y12459500D01*
X17165500Y12340500D02*
Y12459500D01*
X17166000Y12340500D02*
Y12459500D01*
X17166500Y12340500D02*
Y12459500D01*
X17167000Y12340500D02*
Y12459500D01*
X17167500Y12340500D02*
Y12459500D01*
X17168000Y12340500D02*
Y12459500D01*
X17168500Y12340500D02*
Y12459500D01*
X17169000Y12340500D02*
Y12459500D01*
X17169500Y12340500D02*
Y12459500D01*
X17170000Y12340500D02*
Y12459500D01*
X17170500Y12340500D02*
Y12459500D01*
X17171000Y12340500D02*
Y12459500D01*
X17171500Y12340500D02*
Y12459500D01*
X17172000Y12340500D02*
Y12459500D01*
X17172500Y12340500D02*
Y12459500D01*
X17173000Y12340500D02*
Y12459500D01*
X17173500Y12340500D02*
Y12459500D01*
X17174000Y12340500D02*
Y12459500D01*
X17174500Y12340500D02*
Y12459500D01*
X17175000Y12340500D02*
Y12459500D01*
X17175500Y12340500D02*
Y12459500D01*
X17176000Y12340500D02*
Y12459500D01*
X17176500Y12340500D02*
Y12459500D01*
X17177000Y12340500D02*
Y12459500D01*
X17177500Y12340500D02*
Y12459500D01*
X17178000Y12340500D02*
Y12459500D01*
X17178500Y12340500D02*
Y12459500D01*
X17179000Y12340500D02*
Y12459500D01*
X17179500Y12340500D02*
Y12459500D01*
X17180000Y12340500D02*
Y12459500D01*
X17180500Y12340500D02*
Y12459500D01*
X17181000Y12340500D02*
Y12459500D01*
X17181500Y12340500D02*
Y12459500D01*
X17182000Y12340500D02*
Y12459500D01*
X17182500Y12340500D02*
Y12459500D01*
X17183000Y12340500D02*
Y12459500D01*
X17183500Y12340500D02*
Y12459500D01*
X17184000Y12340500D02*
Y12459500D01*
X17184500Y12340500D02*
Y12459500D01*
X17185000Y12340500D02*
Y12459500D01*
X17185500Y12340500D02*
Y12459500D01*
X17186000Y12340500D02*
Y12459500D01*
X17186500Y12340500D02*
Y12459500D01*
X17187000Y12340500D02*
Y12459500D01*
X17187500Y12340500D02*
Y12459500D01*
X17188000Y12340500D02*
Y12459500D01*
X17188500Y12340500D02*
Y12459500D01*
X17189000Y12340500D02*
Y12459500D01*
X17189500Y12340500D02*
Y12459500D01*
X17190000Y12340500D02*
Y12459500D01*
X17190500Y12340500D02*
Y12459500D01*
X17191000Y12340500D02*
Y12459500D01*
X17191500Y12340500D02*
Y12459500D01*
X17192000Y12340500D02*
Y12459500D01*
X17192500Y12340500D02*
Y12459500D01*
X17193000Y12340500D02*
Y12459500D01*
X17193500Y12340500D02*
Y12459500D01*
X17194000Y12340500D02*
Y12459500D01*
X17194500Y12340500D02*
Y12459500D01*
X17195000Y12340500D02*
Y12459500D01*
X17195500Y12340500D02*
Y12459500D01*
X17196000Y12340500D02*
Y12459500D01*
X17196500Y12340500D02*
Y12459500D01*
X17197000Y12340500D02*
Y12459500D01*
X17197500Y12340500D02*
Y12459500D01*
X17198000Y12340500D02*
Y12459500D01*
X17198500Y12340500D02*
Y12459500D01*
X17199000Y12340500D02*
Y12459500D01*
X17199500Y12340500D02*
Y12459500D01*
X17200000Y12340500D02*
Y12459500D01*
X17200500Y12340500D02*
Y12459500D01*
X17201000Y12340500D02*
Y12459500D01*
X17201500Y12340500D02*
Y12459500D01*
X17202000Y12340500D02*
Y12459500D01*
X17202500Y12340500D02*
Y12459500D01*
X17203000Y12340500D02*
Y12459500D01*
X17203500Y12340500D02*
Y12459500D01*
X17204000Y12340500D02*
Y12459500D01*
X17204500Y12340500D02*
Y12459500D01*
X17205000Y12340500D02*
Y12459500D01*
X17205500Y12340500D02*
Y12459500D01*
X17206000Y12340500D02*
Y12459500D01*
X17206500Y12340500D02*
Y12459500D01*
X17207000Y12340500D02*
Y12459500D01*
X17207500Y12340500D02*
Y12459500D01*
X17208000Y12340500D02*
Y12459500D01*
X17208500Y12340500D02*
Y12459500D01*
X17209000Y12340500D02*
Y12459500D01*
X17090500Y12609500D02*
Y12490500D01*
X17209500*
Y12609500*
X17090500*
Y12490500D02*
Y12609500D01*
X17091000Y12490500D02*
Y12609500D01*
X17091500Y12490500D02*
Y12609500D01*
X17092000Y12490500D02*
Y12609500D01*
X17092500Y12490500D02*
Y12609500D01*
X17093000Y12490500D02*
Y12609500D01*
X17093500Y12490500D02*
Y12609500D01*
X17094000Y12490500D02*
Y12609500D01*
X17094500Y12490500D02*
Y12609500D01*
X17095000Y12490500D02*
Y12609500D01*
X17095500Y12490500D02*
Y12609500D01*
X17096000Y12490500D02*
Y12609500D01*
X17096500Y12490500D02*
Y12609500D01*
X17097000Y12490500D02*
Y12609500D01*
X17097500Y12490500D02*
Y12609500D01*
X17098000Y12490500D02*
Y12609500D01*
X17098500Y12490500D02*
Y12609500D01*
X17099000Y12490500D02*
Y12609500D01*
X17099500Y12490500D02*
Y12609500D01*
X17100000Y12490500D02*
Y12609500D01*
X17100500Y12490500D02*
Y12609500D01*
X17101000Y12490500D02*
Y12609500D01*
X17101500Y12490500D02*
Y12609500D01*
X17102000Y12490500D02*
Y12609500D01*
X17102500Y12490500D02*
Y12609500D01*
X17103000Y12490500D02*
Y12609500D01*
X17103500Y12490500D02*
Y12609500D01*
X17104000Y12490500D02*
Y12609500D01*
X17104500Y12490500D02*
Y12609500D01*
X17105000Y12490500D02*
Y12609500D01*
X17105500Y12490500D02*
Y12609500D01*
X17106000Y12490500D02*
Y12609500D01*
X17106500Y12490500D02*
Y12609500D01*
X17107000Y12490500D02*
Y12609500D01*
X17107500Y12490500D02*
Y12609500D01*
X17108000Y12490500D02*
Y12609500D01*
X17108500Y12490500D02*
Y12609500D01*
X17109000Y12490500D02*
Y12609500D01*
X17109500Y12490500D02*
Y12609500D01*
X17110000Y12490500D02*
Y12609500D01*
X17110500Y12490500D02*
Y12609500D01*
X17111000Y12490500D02*
Y12609500D01*
X17111500Y12490500D02*
Y12609500D01*
X17112000Y12490500D02*
Y12609500D01*
X17112500Y12490500D02*
Y12609500D01*
X17113000Y12490500D02*
Y12609500D01*
X17113500Y12490500D02*
Y12609500D01*
X17114000Y12490500D02*
Y12609500D01*
X17114500Y12490500D02*
Y12609500D01*
X17115000Y12490500D02*
Y12609500D01*
X17115500Y12490500D02*
Y12609500D01*
X17116000Y12490500D02*
Y12609500D01*
X17116500Y12490500D02*
Y12609500D01*
X17117000Y12490500D02*
Y12609500D01*
X17117500Y12490500D02*
Y12609500D01*
X17118000Y12490500D02*
Y12609500D01*
X17118500Y12490500D02*
Y12609500D01*
X17119000Y12490500D02*
Y12609500D01*
X17119500Y12490500D02*
Y12609500D01*
X17120000Y12490500D02*
Y12609500D01*
X17120500Y12490500D02*
Y12609500D01*
X17121000Y12490500D02*
Y12609500D01*
X17121500Y12490500D02*
Y12609500D01*
X17122000Y12490500D02*
Y12609500D01*
X17122500Y12490500D02*
Y12609500D01*
X17123000Y12490500D02*
Y12609500D01*
X17123500Y12490500D02*
Y12609500D01*
X17124000Y12490500D02*
Y12609500D01*
X17124500Y12490500D02*
Y12609500D01*
X17125000Y12490500D02*
Y12609500D01*
X17125500Y12490500D02*
Y12609500D01*
X17126000Y12490500D02*
Y12609500D01*
X17126500Y12490500D02*
Y12609500D01*
X17127000Y12490500D02*
Y12609500D01*
X17127500Y12490500D02*
Y12609500D01*
X17128000Y12490500D02*
Y12609500D01*
X17128500Y12490500D02*
Y12609500D01*
X17129000Y12490500D02*
Y12609500D01*
X17129500Y12490500D02*
Y12609500D01*
X17130000Y12490500D02*
Y12609500D01*
X17130500Y12490500D02*
Y12609500D01*
X17131000Y12490500D02*
Y12609500D01*
X17131500Y12490500D02*
Y12609500D01*
X17132000Y12490500D02*
Y12609500D01*
X17132500Y12490500D02*
Y12609500D01*
X17133000Y12490500D02*
Y12609500D01*
X17133500Y12490500D02*
Y12609500D01*
X17134000Y12490500D02*
Y12609500D01*
X17134500Y12490500D02*
Y12609500D01*
X17135000Y12490500D02*
Y12609500D01*
X17135500Y12490500D02*
Y12609500D01*
X17136000Y12490500D02*
Y12609500D01*
X17136500Y12490500D02*
Y12609500D01*
X17137000Y12490500D02*
Y12609500D01*
X17137500Y12490500D02*
Y12609500D01*
X17138000Y12490500D02*
Y12609500D01*
X17138500Y12490500D02*
Y12609500D01*
X17139000Y12490500D02*
Y12609500D01*
X17139500Y12490500D02*
Y12609500D01*
X17140000Y12490500D02*
Y12609500D01*
X17140500Y12490500D02*
Y12609500D01*
X17141000Y12490500D02*
Y12609500D01*
X17141500Y12490500D02*
Y12609500D01*
X17142000Y12490500D02*
Y12609500D01*
X17142500Y12490500D02*
Y12609500D01*
X17143000Y12490500D02*
Y12609500D01*
X17143500Y12490500D02*
Y12609500D01*
X17144000Y12490500D02*
Y12609500D01*
X17144500Y12490500D02*
Y12609500D01*
X17145000Y12490500D02*
Y12609500D01*
X17145500Y12490500D02*
Y12609500D01*
X17146000Y12490500D02*
Y12609500D01*
X17146500Y12490500D02*
Y12609500D01*
X17147000Y12490500D02*
Y12609500D01*
X17147500Y12490500D02*
Y12609500D01*
X17148000Y12490500D02*
Y12609500D01*
X17148500Y12490500D02*
Y12609500D01*
X17149000Y12490500D02*
Y12609500D01*
X17149500Y12490500D02*
Y12609500D01*
X17150000Y12490500D02*
Y12609500D01*
X17150500Y12490500D02*
Y12609500D01*
X17151000Y12490500D02*
Y12609500D01*
X17151500Y12490500D02*
Y12609500D01*
X17152000Y12490500D02*
Y12609500D01*
X17152500Y12490500D02*
Y12609500D01*
X17153000Y12490500D02*
Y12609500D01*
X17153500Y12490500D02*
Y12609500D01*
X17154000Y12490500D02*
Y12609500D01*
X17154500Y12490500D02*
Y12609500D01*
X17155000Y12490500D02*
Y12609500D01*
X17155500Y12490500D02*
Y12609500D01*
X17156000Y12490500D02*
Y12609500D01*
X17156500Y12490500D02*
Y12609500D01*
X17157000Y12490500D02*
Y12609500D01*
X17157500Y12490500D02*
Y12609500D01*
X17158000Y12490500D02*
Y12609500D01*
X17158500Y12490500D02*
Y12609500D01*
X17159000Y12490500D02*
Y12609500D01*
X17159500Y12490500D02*
Y12609500D01*
X17160000Y12490500D02*
Y12609500D01*
X17160500Y12490500D02*
Y12609500D01*
X17161000Y12490500D02*
Y12609500D01*
X17161500Y12490500D02*
Y12609500D01*
X17162000Y12490500D02*
Y12609500D01*
X17162500Y12490500D02*
Y12609500D01*
X17163000Y12490500D02*
Y12609500D01*
X17163500Y12490500D02*
Y12609500D01*
X17164000Y12490500D02*
Y12609500D01*
X17164500Y12490500D02*
Y12609500D01*
X17165000Y12490500D02*
Y12609500D01*
X17165500Y12490500D02*
Y12609500D01*
X17166000Y12490500D02*
Y12609500D01*
X17166500Y12490500D02*
Y12609500D01*
X17167000Y12490500D02*
Y12609500D01*
X17167500Y12490500D02*
Y12609500D01*
X17168000Y12490500D02*
Y12609500D01*
X17168500Y12490500D02*
Y12609500D01*
X17169000Y12490500D02*
Y12609500D01*
X17169500Y12490500D02*
Y12609500D01*
X17170000Y12490500D02*
Y12609500D01*
X17170500Y12490500D02*
Y12609500D01*
X17171000Y12490500D02*
Y12609500D01*
X17171500Y12490500D02*
Y12609500D01*
X17172000Y12490500D02*
Y12609500D01*
X17172500Y12490500D02*
Y12609500D01*
X17173000Y12490500D02*
Y12609500D01*
X17173500Y12490500D02*
Y12609500D01*
X17174000Y12490500D02*
Y12609500D01*
X17174500Y12490500D02*
Y12609500D01*
X17175000Y12490500D02*
Y12609500D01*
X17175500Y12490500D02*
Y12609500D01*
X17176000Y12490500D02*
Y12609500D01*
X17176500Y12490500D02*
Y12609500D01*
X17177000Y12490500D02*
Y12609500D01*
X17177500Y12490500D02*
Y12609500D01*
X17178000Y12490500D02*
Y12609500D01*
X17178500Y12490500D02*
Y12609500D01*
X17179000Y12490500D02*
Y12609500D01*
X17179500Y12490500D02*
Y12609500D01*
X17180000Y12490500D02*
Y12609500D01*
X17180500Y12490500D02*
Y12609500D01*
X17181000Y12490500D02*
Y12609500D01*
X17181500Y12490500D02*
Y12609500D01*
X17182000Y12490500D02*
Y12609500D01*
X17182500Y12490500D02*
Y12609500D01*
X17183000Y12490500D02*
Y12609500D01*
X17183500Y12490500D02*
Y12609500D01*
X17184000Y12490500D02*
Y12609500D01*
X17184500Y12490500D02*
Y12609500D01*
X17185000Y12490500D02*
Y12609500D01*
X17185500Y12490500D02*
Y12609500D01*
X17186000Y12490500D02*
Y12609500D01*
X17186500Y12490500D02*
Y12609500D01*
X17187000Y12490500D02*
Y12609500D01*
X17187500Y12490500D02*
Y12609500D01*
X17188000Y12490500D02*
Y12609500D01*
X17188500Y12490500D02*
Y12609500D01*
X17189000Y12490500D02*
Y12609500D01*
X17189500Y12490500D02*
Y12609500D01*
X17190000Y12490500D02*
Y12609500D01*
X17190500Y12490500D02*
Y12609500D01*
X17191000Y12490500D02*
Y12609500D01*
X17191500Y12490500D02*
Y12609500D01*
X17192000Y12490500D02*
Y12609500D01*
X17192500Y12490500D02*
Y12609500D01*
X17193000Y12490500D02*
Y12609500D01*
X17193500Y12490500D02*
Y12609500D01*
X17194000Y12490500D02*
Y12609500D01*
X17194500Y12490500D02*
Y12609500D01*
X17195000Y12490500D02*
Y12609500D01*
X17195500Y12490500D02*
Y12609500D01*
X17196000Y12490500D02*
Y12609500D01*
X17196500Y12490500D02*
Y12609500D01*
X17197000Y12490500D02*
Y12609500D01*
X17197500Y12490500D02*
Y12609500D01*
X17198000Y12490500D02*
Y12609500D01*
X17198500Y12490500D02*
Y12609500D01*
X17199000Y12490500D02*
Y12609500D01*
X17199500Y12490500D02*
Y12609500D01*
X17200000Y12490500D02*
Y12609500D01*
X17200500Y12490500D02*
Y12609500D01*
X17201000Y12490500D02*
Y12609500D01*
X17201500Y12490500D02*
Y12609500D01*
X17202000Y12490500D02*
Y12609500D01*
X17202500Y12490500D02*
Y12609500D01*
X17203000Y12490500D02*
Y12609500D01*
X17203500Y12490500D02*
Y12609500D01*
X17204000Y12490500D02*
Y12609500D01*
X17204500Y12490500D02*
Y12609500D01*
X17205000Y12490500D02*
Y12609500D01*
X17205500Y12490500D02*
Y12609500D01*
X17206000Y12490500D02*
Y12609500D01*
X17206500Y12490500D02*
Y12609500D01*
X17207000Y12490500D02*
Y12609500D01*
X17207500Y12490500D02*
Y12609500D01*
X17208000Y12490500D02*
Y12609500D01*
X17208500Y12490500D02*
Y12609500D01*
X17209000Y12490500D02*
Y12609500D01*
X17240500D02*
Y12490500D01*
X17359500*
Y12609500*
X17240500*
Y12490500D02*
Y12609500D01*
X17241000Y12490500D02*
Y12609500D01*
X17241500Y12490500D02*
Y12609500D01*
X17242000Y12490500D02*
Y12609500D01*
X17242500Y12490500D02*
Y12609500D01*
X17243000Y12490500D02*
Y12609500D01*
X17243500Y12490500D02*
Y12609500D01*
X17244000Y12490500D02*
Y12609500D01*
X17244500Y12490500D02*
Y12609500D01*
X17245000Y12490500D02*
Y12609500D01*
X17245500Y12490500D02*
Y12609500D01*
X17246000Y12490500D02*
Y12609500D01*
X17246500Y12490500D02*
Y12609500D01*
X17247000Y12490500D02*
Y12609500D01*
X17247500Y12490500D02*
Y12609500D01*
X17248000Y12490500D02*
Y12609500D01*
X17248500Y12490500D02*
Y12609500D01*
X17249000Y12490500D02*
Y12609500D01*
X17249500Y12490500D02*
Y12609500D01*
X17250000Y12490500D02*
Y12609500D01*
X17250500Y12490500D02*
Y12609500D01*
X17251000Y12490500D02*
Y12609500D01*
X17251500Y12490500D02*
Y12609500D01*
X17252000Y12490500D02*
Y12609500D01*
X17252500Y12490500D02*
Y12609500D01*
X17253000Y12490500D02*
Y12609500D01*
X17253500Y12490500D02*
Y12609500D01*
X17254000Y12490500D02*
Y12609500D01*
X17254500Y12490500D02*
Y12609500D01*
X17255000Y12490500D02*
Y12609500D01*
X17255500Y12490500D02*
Y12609500D01*
X17256000Y12490500D02*
Y12609500D01*
X17256500Y12490500D02*
Y12609500D01*
X17257000Y12490500D02*
Y12609500D01*
X17257500Y12490500D02*
Y12609500D01*
X17258000Y12490500D02*
Y12609500D01*
X17258500Y12490500D02*
Y12609500D01*
X17259000Y12490500D02*
Y12609500D01*
X17259500Y12490500D02*
Y12609500D01*
X17260000Y12490500D02*
Y12609500D01*
X17260500Y12490500D02*
Y12609500D01*
X17261000Y12490500D02*
Y12609500D01*
X17261500Y12490500D02*
Y12609500D01*
X17262000Y12490500D02*
Y12609500D01*
X17262500Y12490500D02*
Y12609500D01*
X17263000Y12490500D02*
Y12609500D01*
X17263500Y12490500D02*
Y12609500D01*
X17264000Y12490500D02*
Y12609500D01*
X17264500Y12490500D02*
Y12609500D01*
X17265000Y12490500D02*
Y12609500D01*
X17265500Y12490500D02*
Y12609500D01*
X17266000Y12490500D02*
Y12609500D01*
X17266500Y12490500D02*
Y12609500D01*
X17267000Y12490500D02*
Y12609500D01*
X17267500Y12490500D02*
Y12609500D01*
X17268000Y12490500D02*
Y12609500D01*
X17268500Y12490500D02*
Y12609500D01*
X17269000Y12490500D02*
Y12609500D01*
X17269500Y12490500D02*
Y12609500D01*
X17270000Y12490500D02*
Y12609500D01*
X17270500Y12490500D02*
Y12609500D01*
X17271000Y12490500D02*
Y12609500D01*
X17271500Y12490500D02*
Y12609500D01*
X17272000Y12490500D02*
Y12609500D01*
X17272500Y12490500D02*
Y12609500D01*
X17273000Y12490500D02*
Y12609500D01*
X17273500Y12490500D02*
Y12609500D01*
X17274000Y12490500D02*
Y12609500D01*
X17274500Y12490500D02*
Y12609500D01*
X17275000Y12490500D02*
Y12609500D01*
X17275500Y12490500D02*
Y12609500D01*
X17276000Y12490500D02*
Y12609500D01*
X17276500Y12490500D02*
Y12609500D01*
X17277000Y12490500D02*
Y12609500D01*
X17277500Y12490500D02*
Y12609500D01*
X17278000Y12490500D02*
Y12609500D01*
X17278500Y12490500D02*
Y12609500D01*
X17279000Y12490500D02*
Y12609500D01*
X17279500Y12490500D02*
Y12609500D01*
X17280000Y12490500D02*
Y12609500D01*
X17280500Y12490500D02*
Y12609500D01*
X17281000Y12490500D02*
Y12609500D01*
X17281500Y12490500D02*
Y12609500D01*
X17282000Y12490500D02*
Y12609500D01*
X17282500Y12490500D02*
Y12609500D01*
X17283000Y12490500D02*
Y12609500D01*
X17283500Y12490500D02*
Y12609500D01*
X17284000Y12490500D02*
Y12609500D01*
X17284500Y12490500D02*
Y12609500D01*
X17285000Y12490500D02*
Y12609500D01*
X17285500Y12490500D02*
Y12609500D01*
X17286000Y12490500D02*
Y12609500D01*
X17286500Y12490500D02*
Y12609500D01*
X17287000Y12490500D02*
Y12609500D01*
X17287500Y12490500D02*
Y12609500D01*
X17288000Y12490500D02*
Y12609500D01*
X17288500Y12490500D02*
Y12609500D01*
X17289000Y12490500D02*
Y12609500D01*
X17289500Y12490500D02*
Y12609500D01*
X17290000Y12490500D02*
Y12609500D01*
X17290500Y12490500D02*
Y12609500D01*
X17291000Y12490500D02*
Y12609500D01*
X17291500Y12490500D02*
Y12609500D01*
X17292000Y12490500D02*
Y12609500D01*
X17292500Y12490500D02*
Y12609500D01*
X17293000Y12490500D02*
Y12609500D01*
X17293500Y12490500D02*
Y12609500D01*
X17294000Y12490500D02*
Y12609500D01*
X17294500Y12490500D02*
Y12609500D01*
X17295000Y12490500D02*
Y12609500D01*
X17295500Y12490500D02*
Y12609500D01*
X17296000Y12490500D02*
Y12609500D01*
X17296500Y12490500D02*
Y12609500D01*
X17297000Y12490500D02*
Y12609500D01*
X17297500Y12490500D02*
Y12609500D01*
X17298000Y12490500D02*
Y12609500D01*
X17298500Y12490500D02*
Y12609500D01*
X17299000Y12490500D02*
Y12609500D01*
X17299500Y12490500D02*
Y12609500D01*
X17300000Y12490500D02*
Y12609500D01*
X17300500Y12490500D02*
Y12609500D01*
X17301000Y12490500D02*
Y12609500D01*
X17301500Y12490500D02*
Y12609500D01*
X17302000Y12490500D02*
Y12609500D01*
X17302500Y12490500D02*
Y12609500D01*
X17303000Y12490500D02*
Y12609500D01*
X17303500Y12490500D02*
Y12609500D01*
X17304000Y12490500D02*
Y12609500D01*
X17304500Y12490500D02*
Y12609500D01*
X17305000Y12490500D02*
Y12609500D01*
X17305500Y12490500D02*
Y12609500D01*
X17306000Y12490500D02*
Y12609500D01*
X17306500Y12490500D02*
Y12609500D01*
X17307000Y12490500D02*
Y12609500D01*
X17307500Y12490500D02*
Y12609500D01*
X17308000Y12490500D02*
Y12609500D01*
X17308500Y12490500D02*
Y12609500D01*
X17309000Y12490500D02*
Y12609500D01*
X17309500Y12490500D02*
Y12609500D01*
X17310000Y12490500D02*
Y12609500D01*
X17310500Y12490500D02*
Y12609500D01*
X17311000Y12490500D02*
Y12609500D01*
X17311500Y12490500D02*
Y12609500D01*
X17312000Y12490500D02*
Y12609500D01*
X17312500Y12490500D02*
Y12609500D01*
X17313000Y12490500D02*
Y12609500D01*
X17313500Y12490500D02*
Y12609500D01*
X17314000Y12490500D02*
Y12609500D01*
X17314500Y12490500D02*
Y12609500D01*
X17315000Y12490500D02*
Y12609500D01*
X17315500Y12490500D02*
Y12609500D01*
X17316000Y12490500D02*
Y12609500D01*
X17316500Y12490500D02*
Y12609500D01*
X17317000Y12490500D02*
Y12609500D01*
X17317500Y12490500D02*
Y12609500D01*
X17318000Y12490500D02*
Y12609500D01*
X17318500Y12490500D02*
Y12609500D01*
X17319000Y12490500D02*
Y12609500D01*
X17319500Y12490500D02*
Y12609500D01*
X17320000Y12490500D02*
Y12609500D01*
X17320500Y12490500D02*
Y12609500D01*
X17321000Y12490500D02*
Y12609500D01*
X17321500Y12490500D02*
Y12609500D01*
X17322000Y12490500D02*
Y12609500D01*
X17322500Y12490500D02*
Y12609500D01*
X17323000Y12490500D02*
Y12609500D01*
X17323500Y12490500D02*
Y12609500D01*
X17324000Y12490500D02*
Y12609500D01*
X17324500Y12490500D02*
Y12609500D01*
X17325000Y12490500D02*
Y12609500D01*
X17325500Y12490500D02*
Y12609500D01*
X17326000Y12490500D02*
Y12609500D01*
X17326500Y12490500D02*
Y12609500D01*
X17327000Y12490500D02*
Y12609500D01*
X17327500Y12490500D02*
Y12609500D01*
X17328000Y12490500D02*
Y12609500D01*
X17328500Y12490500D02*
Y12609500D01*
X17329000Y12490500D02*
Y12609500D01*
X17329500Y12490500D02*
Y12609500D01*
X17330000Y12490500D02*
Y12609500D01*
X17330500Y12490500D02*
Y12609500D01*
X17331000Y12490500D02*
Y12609500D01*
X17331500Y12490500D02*
Y12609500D01*
X17332000Y12490500D02*
Y12609500D01*
X17332500Y12490500D02*
Y12609500D01*
X17333000Y12490500D02*
Y12609500D01*
X17333500Y12490500D02*
Y12609500D01*
X17334000Y12490500D02*
Y12609500D01*
X17334500Y12490500D02*
Y12609500D01*
X17335000Y12490500D02*
Y12609500D01*
X17335500Y12490500D02*
Y12609500D01*
X17336000Y12490500D02*
Y12609500D01*
X17336500Y12490500D02*
Y12609500D01*
X17337000Y12490500D02*
Y12609500D01*
X17337500Y12490500D02*
Y12609500D01*
X17338000Y12490500D02*
Y12609500D01*
X17338500Y12490500D02*
Y12609500D01*
X17339000Y12490500D02*
Y12609500D01*
X17339500Y12490500D02*
Y12609500D01*
X17340000Y12490500D02*
Y12609500D01*
X17340500Y12490500D02*
Y12609500D01*
X17341000Y12490500D02*
Y12609500D01*
X17341500Y12490500D02*
Y12609500D01*
X17342000Y12490500D02*
Y12609500D01*
X17342500Y12490500D02*
Y12609500D01*
X17343000Y12490500D02*
Y12609500D01*
X17343500Y12490500D02*
Y12609500D01*
X17344000Y12490500D02*
Y12609500D01*
X17344500Y12490500D02*
Y12609500D01*
X17345000Y12490500D02*
Y12609500D01*
X17345500Y12490500D02*
Y12609500D01*
X17346000Y12490500D02*
Y12609500D01*
X17346500Y12490500D02*
Y12609500D01*
X17347000Y12490500D02*
Y12609500D01*
X17347500Y12490500D02*
Y12609500D01*
X17348000Y12490500D02*
Y12609500D01*
X17348500Y12490500D02*
Y12609500D01*
X17349000Y12490500D02*
Y12609500D01*
X17349500Y12490500D02*
Y12609500D01*
X17350000Y12490500D02*
Y12609500D01*
X17350500Y12490500D02*
Y12609500D01*
X17351000Y12490500D02*
Y12609500D01*
X17351500Y12490500D02*
Y12609500D01*
X17352000Y12490500D02*
Y12609500D01*
X17352500Y12490500D02*
Y12609500D01*
X17353000Y12490500D02*
Y12609500D01*
X17353500Y12490500D02*
Y12609500D01*
X17354000Y12490500D02*
Y12609500D01*
X17354500Y12490500D02*
Y12609500D01*
X17355000Y12490500D02*
Y12609500D01*
X17355500Y12490500D02*
Y12609500D01*
X17356000Y12490500D02*
Y12609500D01*
X17356500Y12490500D02*
Y12609500D01*
X17357000Y12490500D02*
Y12609500D01*
X17357500Y12490500D02*
Y12609500D01*
X17358000Y12490500D02*
Y12609500D01*
X17358500Y12490500D02*
Y12609500D01*
X17359000Y12490500D02*
Y12609500D01*
X17390500D02*
Y12490500D01*
X17509500*
Y12609500*
X17390500*
Y12490500D02*
Y12609500D01*
X17391000Y12490500D02*
Y12609500D01*
X17391500Y12490500D02*
Y12609500D01*
X17392000Y12490500D02*
Y12609500D01*
X17392500Y12490500D02*
Y12609500D01*
X17393000Y12490500D02*
Y12609500D01*
X17393500Y12490500D02*
Y12609500D01*
X17394000Y12490500D02*
Y12609500D01*
X17394500Y12490500D02*
Y12609500D01*
X17395000Y12490500D02*
Y12609500D01*
X17395500Y12490500D02*
Y12609500D01*
X17396000Y12490500D02*
Y12609500D01*
X17396500Y12490500D02*
Y12609500D01*
X17397000Y12490500D02*
Y12609500D01*
X17397500Y12490500D02*
Y12609500D01*
X17398000Y12490500D02*
Y12609500D01*
X17398500Y12490500D02*
Y12609500D01*
X17399000Y12490500D02*
Y12609500D01*
X17399500Y12490500D02*
Y12609500D01*
X17400000Y12490500D02*
Y12609500D01*
X17400500Y12490500D02*
Y12609500D01*
X17401000Y12490500D02*
Y12609500D01*
X17401500Y12490500D02*
Y12609500D01*
X17402000Y12490500D02*
Y12609500D01*
X17402500Y12490500D02*
Y12609500D01*
X17403000Y12490500D02*
Y12609500D01*
X17403500Y12490500D02*
Y12609500D01*
X17404000Y12490500D02*
Y12609500D01*
X17404500Y12490500D02*
Y12609500D01*
X17405000Y12490500D02*
Y12609500D01*
X17405500Y12490500D02*
Y12609500D01*
X17406000Y12490500D02*
Y12609500D01*
X17406500Y12490500D02*
Y12609500D01*
X17407000Y12490500D02*
Y12609500D01*
X17407500Y12490500D02*
Y12609500D01*
X17408000Y12490500D02*
Y12609500D01*
X17408500Y12490500D02*
Y12609500D01*
X17409000Y12490500D02*
Y12609500D01*
X17409500Y12490500D02*
Y12609500D01*
X17410000Y12490500D02*
Y12609500D01*
X17410500Y12490500D02*
Y12609500D01*
X17411000Y12490500D02*
Y12609500D01*
X17411500Y12490500D02*
Y12609500D01*
X17412000Y12490500D02*
Y12609500D01*
X17412500Y12490500D02*
Y12609500D01*
X17413000Y12490500D02*
Y12609500D01*
X17413500Y12490500D02*
Y12609500D01*
X17414000Y12490500D02*
Y12609500D01*
X17414500Y12490500D02*
Y12609500D01*
X17415000Y12490500D02*
Y12609500D01*
X17415500Y12490500D02*
Y12609500D01*
X17416000Y12490500D02*
Y12609500D01*
X17416500Y12490500D02*
Y12609500D01*
X17417000Y12490500D02*
Y12609500D01*
X17417500Y12490500D02*
Y12609500D01*
X17418000Y12490500D02*
Y12609500D01*
X17418500Y12490500D02*
Y12609500D01*
X17419000Y12490500D02*
Y12609500D01*
X17419500Y12490500D02*
Y12609500D01*
X17420000Y12490500D02*
Y12609500D01*
X17420500Y12490500D02*
Y12609500D01*
X17421000Y12490500D02*
Y12609500D01*
X17421500Y12490500D02*
Y12609500D01*
X17422000Y12490500D02*
Y12609500D01*
X17422500Y12490500D02*
Y12609500D01*
X17423000Y12490500D02*
Y12609500D01*
X17423500Y12490500D02*
Y12609500D01*
X17424000Y12490500D02*
Y12609500D01*
X17424500Y12490500D02*
Y12609500D01*
X17425000Y12490500D02*
Y12609500D01*
X17425500Y12490500D02*
Y12609500D01*
X17426000Y12490500D02*
Y12609500D01*
X17426500Y12490500D02*
Y12609500D01*
X17427000Y12490500D02*
Y12609500D01*
X17427500Y12490500D02*
Y12609500D01*
X17428000Y12490500D02*
Y12609500D01*
X17428500Y12490500D02*
Y12609500D01*
X17429000Y12490500D02*
Y12609500D01*
X17429500Y12490500D02*
Y12609500D01*
X17430000Y12490500D02*
Y12609500D01*
X17430500Y12490500D02*
Y12609500D01*
X17431000Y12490500D02*
Y12609500D01*
X17431500Y12490500D02*
Y12609500D01*
X17432000Y12490500D02*
Y12609500D01*
X17432500Y12490500D02*
Y12609500D01*
X17433000Y12490500D02*
Y12609500D01*
X17433500Y12490500D02*
Y12609500D01*
X17434000Y12490500D02*
Y12609500D01*
X17434500Y12490500D02*
Y12609500D01*
X17435000Y12490500D02*
Y12609500D01*
X17435500Y12490500D02*
Y12609500D01*
X17436000Y12490500D02*
Y12609500D01*
X17436500Y12490500D02*
Y12609500D01*
X17437000Y12490500D02*
Y12609500D01*
X17437500Y12490500D02*
Y12609500D01*
X17438000Y12490500D02*
Y12609500D01*
X17438500Y12490500D02*
Y12609500D01*
X17439000Y12490500D02*
Y12609500D01*
X17439500Y12490500D02*
Y12609500D01*
X17440000Y12490500D02*
Y12609500D01*
X17440500Y12490500D02*
Y12609500D01*
X17441000Y12490500D02*
Y12609500D01*
X17441500Y12490500D02*
Y12609500D01*
X17442000Y12490500D02*
Y12609500D01*
X17442500Y12490500D02*
Y12609500D01*
X17443000Y12490500D02*
Y12609500D01*
X17443500Y12490500D02*
Y12609500D01*
X17444000Y12490500D02*
Y12609500D01*
X17444500Y12490500D02*
Y12609500D01*
X17445000Y12490500D02*
Y12609500D01*
X17445500Y12490500D02*
Y12609500D01*
X17446000Y12490500D02*
Y12609500D01*
X17446500Y12490500D02*
Y12609500D01*
X17447000Y12490500D02*
Y12609500D01*
X17447500Y12490500D02*
Y12609500D01*
X17448000Y12490500D02*
Y12609500D01*
X17448500Y12490500D02*
Y12609500D01*
X17449000Y12490500D02*
Y12609500D01*
X17449500Y12490500D02*
Y12609500D01*
X17450000Y12490500D02*
Y12609500D01*
X17450500Y12490500D02*
Y12609500D01*
X17451000Y12490500D02*
Y12609500D01*
X17451500Y12490500D02*
Y12609500D01*
X17452000Y12490500D02*
Y12609500D01*
X17452500Y12490500D02*
Y12609500D01*
X17453000Y12490500D02*
Y12609500D01*
X17453500Y12490500D02*
Y12609500D01*
X17454000Y12490500D02*
Y12609500D01*
X17454500Y12490500D02*
Y12609500D01*
X17455000Y12490500D02*
Y12609500D01*
X17455500Y12490500D02*
Y12609500D01*
X17456000Y12490500D02*
Y12609500D01*
X17456500Y12490500D02*
Y12609500D01*
X17457000Y12490500D02*
Y12609500D01*
X17457500Y12490500D02*
Y12609500D01*
X17458000Y12490500D02*
Y12609500D01*
X17458500Y12490500D02*
Y12609500D01*
X17459000Y12490500D02*
Y12609500D01*
X17459500Y12490500D02*
Y12609500D01*
X17460000Y12490500D02*
Y12609500D01*
X17460500Y12490500D02*
Y12609500D01*
X17461000Y12490500D02*
Y12609500D01*
X17461500Y12490500D02*
Y12609500D01*
X17462000Y12490500D02*
Y12609500D01*
X17462500Y12490500D02*
Y12609500D01*
X17463000Y12490500D02*
Y12609500D01*
X17463500Y12490500D02*
Y12609500D01*
X17464000Y12490500D02*
Y12609500D01*
X17464500Y12490500D02*
Y12609500D01*
X17465000Y12490500D02*
Y12609500D01*
X17465500Y12490500D02*
Y12609500D01*
X17466000Y12490500D02*
Y12609500D01*
X17466500Y12490500D02*
Y12609500D01*
X17467000Y12490500D02*
Y12609500D01*
X17467500Y12490500D02*
Y12609500D01*
X17468000Y12490500D02*
Y12609500D01*
X17468500Y12490500D02*
Y12609500D01*
X17469000Y12490500D02*
Y12609500D01*
X17469500Y12490500D02*
Y12609500D01*
X17470000Y12490500D02*
Y12609500D01*
X17470500Y12490500D02*
Y12609500D01*
X17471000Y12490500D02*
Y12609500D01*
X17471500Y12490500D02*
Y12609500D01*
X17472000Y12490500D02*
Y12609500D01*
X17472500Y12490500D02*
Y12609500D01*
X17473000Y12490500D02*
Y12609500D01*
X17473500Y12490500D02*
Y12609500D01*
X17474000Y12490500D02*
Y12609500D01*
X17474500Y12490500D02*
Y12609500D01*
X17475000Y12490500D02*
Y12609500D01*
X17475500Y12490500D02*
Y12609500D01*
X17476000Y12490500D02*
Y12609500D01*
X17476500Y12490500D02*
Y12609500D01*
X17477000Y12490500D02*
Y12609500D01*
X17477500Y12490500D02*
Y12609500D01*
X17478000Y12490500D02*
Y12609500D01*
X17478500Y12490500D02*
Y12609500D01*
X17479000Y12490500D02*
Y12609500D01*
X17479500Y12490500D02*
Y12609500D01*
X17480000Y12490500D02*
Y12609500D01*
X17480500Y12490500D02*
Y12609500D01*
X17481000Y12490500D02*
Y12609500D01*
X17481500Y12490500D02*
Y12609500D01*
X17482000Y12490500D02*
Y12609500D01*
X17482500Y12490500D02*
Y12609500D01*
X17483000Y12490500D02*
Y12609500D01*
X17483500Y12490500D02*
Y12609500D01*
X17484000Y12490500D02*
Y12609500D01*
X17484500Y12490500D02*
Y12609500D01*
X17485000Y12490500D02*
Y12609500D01*
X17485500Y12490500D02*
Y12609500D01*
X17486000Y12490500D02*
Y12609500D01*
X17486500Y12490500D02*
Y12609500D01*
X17487000Y12490500D02*
Y12609500D01*
X17487500Y12490500D02*
Y12609500D01*
X17488000Y12490500D02*
Y12609500D01*
X17488500Y12490500D02*
Y12609500D01*
X17489000Y12490500D02*
Y12609500D01*
X17489500Y12490500D02*
Y12609500D01*
X17490000Y12490500D02*
Y12609500D01*
X17490500Y12490500D02*
Y12609500D01*
X17491000Y12490500D02*
Y12609500D01*
X17491500Y12490500D02*
Y12609500D01*
X17492000Y12490500D02*
Y12609500D01*
X17492500Y12490500D02*
Y12609500D01*
X17493000Y12490500D02*
Y12609500D01*
X17493500Y12490500D02*
Y12609500D01*
X17494000Y12490500D02*
Y12609500D01*
X17494500Y12490500D02*
Y12609500D01*
X17495000Y12490500D02*
Y12609500D01*
X17495500Y12490500D02*
Y12609500D01*
X17496000Y12490500D02*
Y12609500D01*
X17496500Y12490500D02*
Y12609500D01*
X17497000Y12490500D02*
Y12609500D01*
X17497500Y12490500D02*
Y12609500D01*
X17498000Y12490500D02*
Y12609500D01*
X17498500Y12490500D02*
Y12609500D01*
X17499000Y12490500D02*
Y12609500D01*
X17499500Y12490500D02*
Y12609500D01*
X17500000Y12490500D02*
Y12609500D01*
X17500500Y12490500D02*
Y12609500D01*
X17501000Y12490500D02*
Y12609500D01*
X17501500Y12490500D02*
Y12609500D01*
X17502000Y12490500D02*
Y12609500D01*
X17502500Y12490500D02*
Y12609500D01*
X17503000Y12490500D02*
Y12609500D01*
X17503500Y12490500D02*
Y12609500D01*
X17504000Y12490500D02*
Y12609500D01*
X17504500Y12490500D02*
Y12609500D01*
X17505000Y12490500D02*
Y12609500D01*
X17505500Y12490500D02*
Y12609500D01*
X17506000Y12490500D02*
Y12609500D01*
X17506500Y12490500D02*
Y12609500D01*
X17507000Y12490500D02*
Y12609500D01*
X17507500Y12490500D02*
Y12609500D01*
X17508000Y12490500D02*
Y12609500D01*
X17508500Y12490500D02*
Y12609500D01*
X17509000Y12490500D02*
Y12609500D01*
X17390500Y12459500D02*
Y12340500D01*
X17509500*
Y12459500*
X17390500*
Y12340500D02*
Y12459500D01*
X17391000Y12340500D02*
Y12459500D01*
X17391500Y12340500D02*
Y12459500D01*
X17392000Y12340500D02*
Y12459500D01*
X17392500Y12340500D02*
Y12459500D01*
X17393000Y12340500D02*
Y12459500D01*
X17393500Y12340500D02*
Y12459500D01*
X17394000Y12340500D02*
Y12459500D01*
X17394500Y12340500D02*
Y12459500D01*
X17395000Y12340500D02*
Y12459500D01*
X17395500Y12340500D02*
Y12459500D01*
X17396000Y12340500D02*
Y12459500D01*
X17396500Y12340500D02*
Y12459500D01*
X17397000Y12340500D02*
Y12459500D01*
X17397500Y12340500D02*
Y12459500D01*
X17398000Y12340500D02*
Y12459500D01*
X17398500Y12340500D02*
Y12459500D01*
X17399000Y12340500D02*
Y12459500D01*
X17399500Y12340500D02*
Y12459500D01*
X17400000Y12340500D02*
Y12459500D01*
X17400500Y12340500D02*
Y12459500D01*
X17401000Y12340500D02*
Y12459500D01*
X17401500Y12340500D02*
Y12459500D01*
X17402000Y12340500D02*
Y12459500D01*
X17402500Y12340500D02*
Y12459500D01*
X17403000Y12340500D02*
Y12459500D01*
X17403500Y12340500D02*
Y12459500D01*
X17404000Y12340500D02*
Y12459500D01*
X17404500Y12340500D02*
Y12459500D01*
X17405000Y12340500D02*
Y12459500D01*
X17405500Y12340500D02*
Y12459500D01*
X17406000Y12340500D02*
Y12459500D01*
X17406500Y12340500D02*
Y12459500D01*
X17407000Y12340500D02*
Y12459500D01*
X17407500Y12340500D02*
Y12459500D01*
X17408000Y12340500D02*
Y12459500D01*
X17408500Y12340500D02*
Y12459500D01*
X17409000Y12340500D02*
Y12459500D01*
X17409500Y12340500D02*
Y12459500D01*
X17410000Y12340500D02*
Y12459500D01*
X17410500Y12340500D02*
Y12459500D01*
X17411000Y12340500D02*
Y12459500D01*
X17411500Y12340500D02*
Y12459500D01*
X17412000Y12340500D02*
Y12459500D01*
X17412500Y12340500D02*
Y12459500D01*
X17413000Y12340500D02*
Y12459500D01*
X17413500Y12340500D02*
Y12459500D01*
X17414000Y12340500D02*
Y12459500D01*
X17414500Y12340500D02*
Y12459500D01*
X17415000Y12340500D02*
Y12459500D01*
X17415500Y12340500D02*
Y12459500D01*
X17416000Y12340500D02*
Y12459500D01*
X17416500Y12340500D02*
Y12459500D01*
X17417000Y12340500D02*
Y12459500D01*
X17417500Y12340500D02*
Y12459500D01*
X17418000Y12340500D02*
Y12459500D01*
X17418500Y12340500D02*
Y12459500D01*
X17419000Y12340500D02*
Y12459500D01*
X17419500Y12340500D02*
Y12459500D01*
X17420000Y12340500D02*
Y12459500D01*
X17420500Y12340500D02*
Y12459500D01*
X17421000Y12340500D02*
Y12459500D01*
X17421500Y12340500D02*
Y12459500D01*
X17422000Y12340500D02*
Y12459500D01*
X17422500Y12340500D02*
Y12459500D01*
X17423000Y12340500D02*
Y12459500D01*
X17423500Y12340500D02*
Y12459500D01*
X17424000Y12340500D02*
Y12459500D01*
X17424500Y12340500D02*
Y12459500D01*
X17425000Y12340500D02*
Y12459500D01*
X17425500Y12340500D02*
Y12459500D01*
X17426000Y12340500D02*
Y12459500D01*
X17426500Y12340500D02*
Y12459500D01*
X17427000Y12340500D02*
Y12459500D01*
X17427500Y12340500D02*
Y12459500D01*
X17428000Y12340500D02*
Y12459500D01*
X17428500Y12340500D02*
Y12459500D01*
X17429000Y12340500D02*
Y12459500D01*
X17429500Y12340500D02*
Y12459500D01*
X17430000Y12340500D02*
Y12459500D01*
X17430500Y12340500D02*
Y12459500D01*
X17431000Y12340500D02*
Y12459500D01*
X17431500Y12340500D02*
Y12459500D01*
X17432000Y12340500D02*
Y12459500D01*
X17432500Y12340500D02*
Y12459500D01*
X17433000Y12340500D02*
Y12459500D01*
X17433500Y12340500D02*
Y12459500D01*
X17434000Y12340500D02*
Y12459500D01*
X17434500Y12340500D02*
Y12459500D01*
X17435000Y12340500D02*
Y12459500D01*
X17435500Y12340500D02*
Y12459500D01*
X17436000Y12340500D02*
Y12459500D01*
X17436500Y12340500D02*
Y12459500D01*
X17437000Y12340500D02*
Y12459500D01*
X17437500Y12340500D02*
Y12459500D01*
X17438000Y12340500D02*
Y12459500D01*
X17438500Y12340500D02*
Y12459500D01*
X17439000Y12340500D02*
Y12459500D01*
X17439500Y12340500D02*
Y12459500D01*
X17440000Y12340500D02*
Y12459500D01*
X17440500Y12340500D02*
Y12459500D01*
X17441000Y12340500D02*
Y12459500D01*
X17441500Y12340500D02*
Y12459500D01*
X17442000Y12340500D02*
Y12459500D01*
X17442500Y12340500D02*
Y12459500D01*
X17443000Y12340500D02*
Y12459500D01*
X17443500Y12340500D02*
Y12459500D01*
X17444000Y12340500D02*
Y12459500D01*
X17444500Y12340500D02*
Y12459500D01*
X17445000Y12340500D02*
Y12459500D01*
X17445500Y12340500D02*
Y12459500D01*
X17446000Y12340500D02*
Y12459500D01*
X17446500Y12340500D02*
Y12459500D01*
X17447000Y12340500D02*
Y12459500D01*
X17447500Y12340500D02*
Y12459500D01*
X17448000Y12340500D02*
Y12459500D01*
X17448500Y12340500D02*
Y12459500D01*
X17449000Y12340500D02*
Y12459500D01*
X17449500Y12340500D02*
Y12459500D01*
X17450000Y12340500D02*
Y12459500D01*
X17450500Y12340500D02*
Y12459500D01*
X17451000Y12340500D02*
Y12459500D01*
X17451500Y12340500D02*
Y12459500D01*
X17452000Y12340500D02*
Y12459500D01*
X17452500Y12340500D02*
Y12459500D01*
X17453000Y12340500D02*
Y12459500D01*
X17453500Y12340500D02*
Y12459500D01*
X17454000Y12340500D02*
Y12459500D01*
X17454500Y12340500D02*
Y12459500D01*
X17455000Y12340500D02*
Y12459500D01*
X17455500Y12340500D02*
Y12459500D01*
X17456000Y12340500D02*
Y12459500D01*
X17456500Y12340500D02*
Y12459500D01*
X17457000Y12340500D02*
Y12459500D01*
X17457500Y12340500D02*
Y12459500D01*
X17458000Y12340500D02*
Y12459500D01*
X17458500Y12340500D02*
Y12459500D01*
X17459000Y12340500D02*
Y12459500D01*
X17459500Y12340500D02*
Y12459500D01*
X17460000Y12340500D02*
Y12459500D01*
X17460500Y12340500D02*
Y12459500D01*
X17461000Y12340500D02*
Y12459500D01*
X17461500Y12340500D02*
Y12459500D01*
X17462000Y12340500D02*
Y12459500D01*
X17462500Y12340500D02*
Y12459500D01*
X17463000Y12340500D02*
Y12459500D01*
X17463500Y12340500D02*
Y12459500D01*
X17464000Y12340500D02*
Y12459500D01*
X17464500Y12340500D02*
Y12459500D01*
X17465000Y12340500D02*
Y12459500D01*
X17465500Y12340500D02*
Y12459500D01*
X17466000Y12340500D02*
Y12459500D01*
X17466500Y12340500D02*
Y12459500D01*
X17467000Y12340500D02*
Y12459500D01*
X17467500Y12340500D02*
Y12459500D01*
X17468000Y12340500D02*
Y12459500D01*
X17468500Y12340500D02*
Y12459500D01*
X17469000Y12340500D02*
Y12459500D01*
X17469500Y12340500D02*
Y12459500D01*
X17470000Y12340500D02*
Y12459500D01*
X17470500Y12340500D02*
Y12459500D01*
X17471000Y12340500D02*
Y12459500D01*
X17471500Y12340500D02*
Y12459500D01*
X17472000Y12340500D02*
Y12459500D01*
X17472500Y12340500D02*
Y12459500D01*
X17473000Y12340500D02*
Y12459500D01*
X17473500Y12340500D02*
Y12459500D01*
X17474000Y12340500D02*
Y12459500D01*
X17474500Y12340500D02*
Y12459500D01*
X17475000Y12340500D02*
Y12459500D01*
X17475500Y12340500D02*
Y12459500D01*
X17476000Y12340500D02*
Y12459500D01*
X17476500Y12340500D02*
Y12459500D01*
X17477000Y12340500D02*
Y12459500D01*
X17477500Y12340500D02*
Y12459500D01*
X17478000Y12340500D02*
Y12459500D01*
X17478500Y12340500D02*
Y12459500D01*
X17479000Y12340500D02*
Y12459500D01*
X17479500Y12340500D02*
Y12459500D01*
X17480000Y12340500D02*
Y12459500D01*
X17480500Y12340500D02*
Y12459500D01*
X17481000Y12340500D02*
Y12459500D01*
X17481500Y12340500D02*
Y12459500D01*
X17482000Y12340500D02*
Y12459500D01*
X17482500Y12340500D02*
Y12459500D01*
X17483000Y12340500D02*
Y12459500D01*
X17483500Y12340500D02*
Y12459500D01*
X17484000Y12340500D02*
Y12459500D01*
X17484500Y12340500D02*
Y12459500D01*
X17485000Y12340500D02*
Y12459500D01*
X17485500Y12340500D02*
Y12459500D01*
X17486000Y12340500D02*
Y12459500D01*
X17486500Y12340500D02*
Y12459500D01*
X17487000Y12340500D02*
Y12459500D01*
X17487500Y12340500D02*
Y12459500D01*
X17488000Y12340500D02*
Y12459500D01*
X17488500Y12340500D02*
Y12459500D01*
X17489000Y12340500D02*
Y12459500D01*
X17489500Y12340500D02*
Y12459500D01*
X17490000Y12340500D02*
Y12459500D01*
X17490500Y12340500D02*
Y12459500D01*
X17491000Y12340500D02*
Y12459500D01*
X17491500Y12340500D02*
Y12459500D01*
X17492000Y12340500D02*
Y12459500D01*
X17492500Y12340500D02*
Y12459500D01*
X17493000Y12340500D02*
Y12459500D01*
X17493500Y12340500D02*
Y12459500D01*
X17494000Y12340500D02*
Y12459500D01*
X17494500Y12340500D02*
Y12459500D01*
X17495000Y12340500D02*
Y12459500D01*
X17495500Y12340500D02*
Y12459500D01*
X17496000Y12340500D02*
Y12459500D01*
X17496500Y12340500D02*
Y12459500D01*
X17497000Y12340500D02*
Y12459500D01*
X17497500Y12340500D02*
Y12459500D01*
X17498000Y12340500D02*
Y12459500D01*
X17498500Y12340500D02*
Y12459500D01*
X17499000Y12340500D02*
Y12459500D01*
X17499500Y12340500D02*
Y12459500D01*
X17500000Y12340500D02*
Y12459500D01*
X17500500Y12340500D02*
Y12459500D01*
X17501000Y12340500D02*
Y12459500D01*
X17501500Y12340500D02*
Y12459500D01*
X17502000Y12340500D02*
Y12459500D01*
X17502500Y12340500D02*
Y12459500D01*
X17503000Y12340500D02*
Y12459500D01*
X17503500Y12340500D02*
Y12459500D01*
X17504000Y12340500D02*
Y12459500D01*
X17504500Y12340500D02*
Y12459500D01*
X17505000Y12340500D02*
Y12459500D01*
X17505500Y12340500D02*
Y12459500D01*
X17506000Y12340500D02*
Y12459500D01*
X17506500Y12340500D02*
Y12459500D01*
X17507000Y12340500D02*
Y12459500D01*
X17507500Y12340500D02*
Y12459500D01*
X17508000Y12340500D02*
Y12459500D01*
X17508500Y12340500D02*
Y12459500D01*
X17509000Y12340500D02*
Y12459500D01*
X17240500D02*
Y12340500D01*
X17359500*
Y12459500*
X17240500*
Y12340500D02*
Y12459500D01*
X17241000Y12340500D02*
Y12459500D01*
X17241500Y12340500D02*
Y12459500D01*
X17242000Y12340500D02*
Y12459500D01*
X17242500Y12340500D02*
Y12459500D01*
X17243000Y12340500D02*
Y12459500D01*
X17243500Y12340500D02*
Y12459500D01*
X17244000Y12340500D02*
Y12459500D01*
X17244500Y12340500D02*
Y12459500D01*
X17245000Y12340500D02*
Y12459500D01*
X17245500Y12340500D02*
Y12459500D01*
X17246000Y12340500D02*
Y12459500D01*
X17246500Y12340500D02*
Y12459500D01*
X17247000Y12340500D02*
Y12459500D01*
X17247500Y12340500D02*
Y12459500D01*
X17248000Y12340500D02*
Y12459500D01*
X17248500Y12340500D02*
Y12459500D01*
X17249000Y12340500D02*
Y12459500D01*
X17249500Y12340500D02*
Y12459500D01*
X17250000Y12340500D02*
Y12459500D01*
X17250500Y12340500D02*
Y12459500D01*
X17251000Y12340500D02*
Y12459500D01*
X17251500Y12340500D02*
Y12459500D01*
X17252000Y12340500D02*
Y12459500D01*
X17252500Y12340500D02*
Y12459500D01*
X17253000Y12340500D02*
Y12459500D01*
X17253500Y12340500D02*
Y12459500D01*
X17254000Y12340500D02*
Y12459500D01*
X17254500Y12340500D02*
Y12459500D01*
X17255000Y12340500D02*
Y12459500D01*
X17255500Y12340500D02*
Y12459500D01*
X17256000Y12340500D02*
Y12459500D01*
X17256500Y12340500D02*
Y12459500D01*
X17257000Y12340500D02*
Y12459500D01*
X17257500Y12340500D02*
Y12459500D01*
X17258000Y12340500D02*
Y12459500D01*
X17258500Y12340500D02*
Y12459500D01*
X17259000Y12340500D02*
Y12459500D01*
X17259500Y12340500D02*
Y12459500D01*
X17260000Y12340500D02*
Y12459500D01*
X17260500Y12340500D02*
Y12459500D01*
X17261000Y12340500D02*
Y12459500D01*
X17261500Y12340500D02*
Y12459500D01*
X17262000Y12340500D02*
Y12459500D01*
X17262500Y12340500D02*
Y12459500D01*
X17263000Y12340500D02*
Y12459500D01*
X17263500Y12340500D02*
Y12459500D01*
X17264000Y12340500D02*
Y12459500D01*
X17264500Y12340500D02*
Y12459500D01*
X17265000Y12340500D02*
Y12459500D01*
X17265500Y12340500D02*
Y12459500D01*
X17266000Y12340500D02*
Y12459500D01*
X17266500Y12340500D02*
Y12459500D01*
X17267000Y12340500D02*
Y12459500D01*
X17267500Y12340500D02*
Y12459500D01*
X17268000Y12340500D02*
Y12459500D01*
X17268500Y12340500D02*
Y12459500D01*
X17269000Y12340500D02*
Y12459500D01*
X17269500Y12340500D02*
Y12459500D01*
X17270000Y12340500D02*
Y12459500D01*
X17270500Y12340500D02*
Y12459500D01*
X17271000Y12340500D02*
Y12459500D01*
X17271500Y12340500D02*
Y12459500D01*
X17272000Y12340500D02*
Y12459500D01*
X17272500Y12340500D02*
Y12459500D01*
X17273000Y12340500D02*
Y12459500D01*
X17273500Y12340500D02*
Y12459500D01*
X17274000Y12340500D02*
Y12459500D01*
X17274500Y12340500D02*
Y12459500D01*
X17275000Y12340500D02*
Y12459500D01*
X17275500Y12340500D02*
Y12459500D01*
X17276000Y12340500D02*
Y12459500D01*
X17276500Y12340500D02*
Y12459500D01*
X17277000Y12340500D02*
Y12459500D01*
X17277500Y12340500D02*
Y12459500D01*
X17278000Y12340500D02*
Y12459500D01*
X17278500Y12340500D02*
Y12459500D01*
X17279000Y12340500D02*
Y12459500D01*
X17279500Y12340500D02*
Y12459500D01*
X17280000Y12340500D02*
Y12459500D01*
X17280500Y12340500D02*
Y12459500D01*
X17281000Y12340500D02*
Y12459500D01*
X17281500Y12340500D02*
Y12459500D01*
X17282000Y12340500D02*
Y12459500D01*
X17282500Y12340500D02*
Y12459500D01*
X17283000Y12340500D02*
Y12459500D01*
X17283500Y12340500D02*
Y12459500D01*
X17284000Y12340500D02*
Y12459500D01*
X17284500Y12340500D02*
Y12459500D01*
X17285000Y12340500D02*
Y12459500D01*
X17285500Y12340500D02*
Y12459500D01*
X17286000Y12340500D02*
Y12459500D01*
X17286500Y12340500D02*
Y12459500D01*
X17287000Y12340500D02*
Y12459500D01*
X17287500Y12340500D02*
Y12459500D01*
X17288000Y12340500D02*
Y12459500D01*
X17288500Y12340500D02*
Y12459500D01*
X17289000Y12340500D02*
Y12459500D01*
X17289500Y12340500D02*
Y12459500D01*
X17290000Y12340500D02*
Y12459500D01*
X17290500Y12340500D02*
Y12459500D01*
X17291000Y12340500D02*
Y12459500D01*
X17291500Y12340500D02*
Y12459500D01*
X17292000Y12340500D02*
Y12459500D01*
X17292500Y12340500D02*
Y12459500D01*
X17293000Y12340500D02*
Y12459500D01*
X17293500Y12340500D02*
Y12459500D01*
X17294000Y12340500D02*
Y12459500D01*
X17294500Y12340500D02*
Y12459500D01*
X17295000Y12340500D02*
Y12459500D01*
X17295500Y12340500D02*
Y12459500D01*
X17296000Y12340500D02*
Y12459500D01*
X17296500Y12340500D02*
Y12459500D01*
X17297000Y12340500D02*
Y12459500D01*
X17297500Y12340500D02*
Y12459500D01*
X17298000Y12340500D02*
Y12459500D01*
X17298500Y12340500D02*
Y12459500D01*
X17299000Y12340500D02*
Y12459500D01*
X17299500Y12340500D02*
Y12459500D01*
X17300000Y12340500D02*
Y12459500D01*
X17300500Y12340500D02*
Y12459500D01*
X17301000Y12340500D02*
Y12459500D01*
X17301500Y12340500D02*
Y12459500D01*
X17302000Y12340500D02*
Y12459500D01*
X17302500Y12340500D02*
Y12459500D01*
X17303000Y12340500D02*
Y12459500D01*
X17303500Y12340500D02*
Y12459500D01*
X17304000Y12340500D02*
Y12459500D01*
X17304500Y12340500D02*
Y12459500D01*
X17305000Y12340500D02*
Y12459500D01*
X17305500Y12340500D02*
Y12459500D01*
X17306000Y12340500D02*
Y12459500D01*
X17306500Y12340500D02*
Y12459500D01*
X17307000Y12340500D02*
Y12459500D01*
X17307500Y12340500D02*
Y12459500D01*
X17308000Y12340500D02*
Y12459500D01*
X17308500Y12340500D02*
Y12459500D01*
X17309000Y12340500D02*
Y12459500D01*
X17309500Y12340500D02*
Y12459500D01*
X17310000Y12340500D02*
Y12459500D01*
X17310500Y12340500D02*
Y12459500D01*
X17311000Y12340500D02*
Y12459500D01*
X17311500Y12340500D02*
Y12459500D01*
X17312000Y12340500D02*
Y12459500D01*
X17312500Y12340500D02*
Y12459500D01*
X17313000Y12340500D02*
Y12459500D01*
X17313500Y12340500D02*
Y12459500D01*
X17314000Y12340500D02*
Y12459500D01*
X17314500Y12340500D02*
Y12459500D01*
X17315000Y12340500D02*
Y12459500D01*
X17315500Y12340500D02*
Y12459500D01*
X17316000Y12340500D02*
Y12459500D01*
X17316500Y12340500D02*
Y12459500D01*
X17317000Y12340500D02*
Y12459500D01*
X17317500Y12340500D02*
Y12459500D01*
X17318000Y12340500D02*
Y12459500D01*
X17318500Y12340500D02*
Y12459500D01*
X17319000Y12340500D02*
Y12459500D01*
X17319500Y12340500D02*
Y12459500D01*
X17320000Y12340500D02*
Y12459500D01*
X17320500Y12340500D02*
Y12459500D01*
X17321000Y12340500D02*
Y12459500D01*
X17321500Y12340500D02*
Y12459500D01*
X17322000Y12340500D02*
Y12459500D01*
X17322500Y12340500D02*
Y12459500D01*
X17323000Y12340500D02*
Y12459500D01*
X17323500Y12340500D02*
Y12459500D01*
X17324000Y12340500D02*
Y12459500D01*
X17324500Y12340500D02*
Y12459500D01*
X17325000Y12340500D02*
Y12459500D01*
X17325500Y12340500D02*
Y12459500D01*
X17326000Y12340500D02*
Y12459500D01*
X17326500Y12340500D02*
Y12459500D01*
X17327000Y12340500D02*
Y12459500D01*
X17327500Y12340500D02*
Y12459500D01*
X17328000Y12340500D02*
Y12459500D01*
X17328500Y12340500D02*
Y12459500D01*
X17329000Y12340500D02*
Y12459500D01*
X17329500Y12340500D02*
Y12459500D01*
X17330000Y12340500D02*
Y12459500D01*
X17330500Y12340500D02*
Y12459500D01*
X17331000Y12340500D02*
Y12459500D01*
X17331500Y12340500D02*
Y12459500D01*
X17332000Y12340500D02*
Y12459500D01*
X17332500Y12340500D02*
Y12459500D01*
X17333000Y12340500D02*
Y12459500D01*
X17333500Y12340500D02*
Y12459500D01*
X17334000Y12340500D02*
Y12459500D01*
X17334500Y12340500D02*
Y12459500D01*
X17335000Y12340500D02*
Y12459500D01*
X17335500Y12340500D02*
Y12459500D01*
X17336000Y12340500D02*
Y12459500D01*
X17336500Y12340500D02*
Y12459500D01*
X17337000Y12340500D02*
Y12459500D01*
X17337500Y12340500D02*
Y12459500D01*
X17338000Y12340500D02*
Y12459500D01*
X17338500Y12340500D02*
Y12459500D01*
X17339000Y12340500D02*
Y12459500D01*
X17339500Y12340500D02*
Y12459500D01*
X17340000Y12340500D02*
Y12459500D01*
X17340500Y12340500D02*
Y12459500D01*
X17341000Y12340500D02*
Y12459500D01*
X17341500Y12340500D02*
Y12459500D01*
X17342000Y12340500D02*
Y12459500D01*
X17342500Y12340500D02*
Y12459500D01*
X17343000Y12340500D02*
Y12459500D01*
X17343500Y12340500D02*
Y12459500D01*
X17344000Y12340500D02*
Y12459500D01*
X17344500Y12340500D02*
Y12459500D01*
X17345000Y12340500D02*
Y12459500D01*
X17345500Y12340500D02*
Y12459500D01*
X17346000Y12340500D02*
Y12459500D01*
X17346500Y12340500D02*
Y12459500D01*
X17347000Y12340500D02*
Y12459500D01*
X17347500Y12340500D02*
Y12459500D01*
X17348000Y12340500D02*
Y12459500D01*
X17348500Y12340500D02*
Y12459500D01*
X17349000Y12340500D02*
Y12459500D01*
X17349500Y12340500D02*
Y12459500D01*
X17350000Y12340500D02*
Y12459500D01*
X17350500Y12340500D02*
Y12459500D01*
X17351000Y12340500D02*
Y12459500D01*
X17351500Y12340500D02*
Y12459500D01*
X17352000Y12340500D02*
Y12459500D01*
X17352500Y12340500D02*
Y12459500D01*
X17353000Y12340500D02*
Y12459500D01*
X17353500Y12340500D02*
Y12459500D01*
X17354000Y12340500D02*
Y12459500D01*
X17354500Y12340500D02*
Y12459500D01*
X17355000Y12340500D02*
Y12459500D01*
X17355500Y12340500D02*
Y12459500D01*
X17356000Y12340500D02*
Y12459500D01*
X17356500Y12340500D02*
Y12459500D01*
X17357000Y12340500D02*
Y12459500D01*
X17357500Y12340500D02*
Y12459500D01*
X17358000Y12340500D02*
Y12459500D01*
X17358500Y12340500D02*
Y12459500D01*
X17359000Y12340500D02*
Y12459500D01*
X17240500Y12309500D02*
Y12190500D01*
X17359500*
Y12309500*
X17240500*
Y12190500D02*
Y12309500D01*
X17241000Y12190500D02*
Y12309500D01*
X17241500Y12190500D02*
Y12309500D01*
X17242000Y12190500D02*
Y12309500D01*
X17242500Y12190500D02*
Y12309500D01*
X17243000Y12190500D02*
Y12309500D01*
X17243500Y12190500D02*
Y12309500D01*
X17244000Y12190500D02*
Y12309500D01*
X17244500Y12190500D02*
Y12309500D01*
X17245000Y12190500D02*
Y12309500D01*
X17245500Y12190500D02*
Y12309500D01*
X17246000Y12190500D02*
Y12309500D01*
X17246500Y12190500D02*
Y12309500D01*
X17247000Y12190500D02*
Y12309500D01*
X17247500Y12190500D02*
Y12309500D01*
X17248000Y12190500D02*
Y12309500D01*
X17248500Y12190500D02*
Y12309500D01*
X17249000Y12190500D02*
Y12309500D01*
X17249500Y12190500D02*
Y12309500D01*
X17250000Y12190500D02*
Y12309500D01*
X17250500Y12190500D02*
Y12309500D01*
X17251000Y12190500D02*
Y12309500D01*
X17251500Y12190500D02*
Y12309500D01*
X17252000Y12190500D02*
Y12309500D01*
X17252500Y12190500D02*
Y12309500D01*
X17253000Y12190500D02*
Y12309500D01*
X17253500Y12190500D02*
Y12309500D01*
X17254000Y12190500D02*
Y12309500D01*
X17254500Y12190500D02*
Y12309500D01*
X17255000Y12190500D02*
Y12309500D01*
X17255500Y12190500D02*
Y12309500D01*
X17256000Y12190500D02*
Y12309500D01*
X17256500Y12190500D02*
Y12309500D01*
X17257000Y12190500D02*
Y12309500D01*
X17257500Y12190500D02*
Y12309500D01*
X17258000Y12190500D02*
Y12309500D01*
X17258500Y12190500D02*
Y12309500D01*
X17259000Y12190500D02*
Y12309500D01*
X17259500Y12190500D02*
Y12309500D01*
X17260000Y12190500D02*
Y12309500D01*
X17260500Y12190500D02*
Y12309500D01*
X17261000Y12190500D02*
Y12309500D01*
X17261500Y12190500D02*
Y12309500D01*
X17262000Y12190500D02*
Y12309500D01*
X17262500Y12190500D02*
Y12309500D01*
X17263000Y12190500D02*
Y12309500D01*
X17263500Y12190500D02*
Y12309500D01*
X17264000Y12190500D02*
Y12309500D01*
X17264500Y12190500D02*
Y12309500D01*
X17265000Y12190500D02*
Y12309500D01*
X17265500Y12190500D02*
Y12309500D01*
X17266000Y12190500D02*
Y12309500D01*
X17266500Y12190500D02*
Y12309500D01*
X17267000Y12190500D02*
Y12309500D01*
X17267500Y12190500D02*
Y12309500D01*
X17268000Y12190500D02*
Y12309500D01*
X17268500Y12190500D02*
Y12309500D01*
X17269000Y12190500D02*
Y12309500D01*
X17269500Y12190500D02*
Y12309500D01*
X17270000Y12190500D02*
Y12309500D01*
X17270500Y12190500D02*
Y12309500D01*
X17271000Y12190500D02*
Y12309500D01*
X17271500Y12190500D02*
Y12309500D01*
X17272000Y12190500D02*
Y12309500D01*
X17272500Y12190500D02*
Y12309500D01*
X17273000Y12190500D02*
Y12309500D01*
X17273500Y12190500D02*
Y12309500D01*
X17274000Y12190500D02*
Y12309500D01*
X17274500Y12190500D02*
Y12309500D01*
X17275000Y12190500D02*
Y12309500D01*
X17275500Y12190500D02*
Y12309500D01*
X17276000Y12190500D02*
Y12309500D01*
X17276500Y12190500D02*
Y12309500D01*
X17277000Y12190500D02*
Y12309500D01*
X17277500Y12190500D02*
Y12309500D01*
X17278000Y12190500D02*
Y12309500D01*
X17278500Y12190500D02*
Y12309500D01*
X17279000Y12190500D02*
Y12309500D01*
X17279500Y12190500D02*
Y12309500D01*
X17280000Y12190500D02*
Y12309500D01*
X17280500Y12190500D02*
Y12309500D01*
X17281000Y12190500D02*
Y12309500D01*
X17281500Y12190500D02*
Y12309500D01*
X17282000Y12190500D02*
Y12309500D01*
X17282500Y12190500D02*
Y12309500D01*
X17283000Y12190500D02*
Y12309500D01*
X17283500Y12190500D02*
Y12309500D01*
X17284000Y12190500D02*
Y12309500D01*
X17284500Y12190500D02*
Y12309500D01*
X17285000Y12190500D02*
Y12309500D01*
X17285500Y12190500D02*
Y12309500D01*
X17286000Y12190500D02*
Y12309500D01*
X17286500Y12190500D02*
Y12309500D01*
X17287000Y12190500D02*
Y12309500D01*
X17287500Y12190500D02*
Y12309500D01*
X17288000Y12190500D02*
Y12309500D01*
X17288500Y12190500D02*
Y12309500D01*
X17289000Y12190500D02*
Y12309500D01*
X17289500Y12190500D02*
Y12309500D01*
X17290000Y12190500D02*
Y12309500D01*
X17290500Y12190500D02*
Y12309500D01*
X17291000Y12190500D02*
Y12309500D01*
X17291500Y12190500D02*
Y12309500D01*
X17292000Y12190500D02*
Y12309500D01*
X17292500Y12190500D02*
Y12309500D01*
X17293000Y12190500D02*
Y12309500D01*
X17293500Y12190500D02*
Y12309500D01*
X17294000Y12190500D02*
Y12309500D01*
X17294500Y12190500D02*
Y12309500D01*
X17295000Y12190500D02*
Y12309500D01*
X17295500Y12190500D02*
Y12309500D01*
X17296000Y12190500D02*
Y12309500D01*
X17296500Y12190500D02*
Y12309500D01*
X17297000Y12190500D02*
Y12309500D01*
X17297500Y12190500D02*
Y12309500D01*
X17298000Y12190500D02*
Y12309500D01*
X17298500Y12190500D02*
Y12309500D01*
X17299000Y12190500D02*
Y12309500D01*
X17299500Y12190500D02*
Y12309500D01*
X17300000Y12190500D02*
Y12309500D01*
X17300500Y12190500D02*
Y12309500D01*
X17301000Y12190500D02*
Y12309500D01*
X17301500Y12190500D02*
Y12309500D01*
X17302000Y12190500D02*
Y12309500D01*
X17302500Y12190500D02*
Y12309500D01*
X17303000Y12190500D02*
Y12309500D01*
X17303500Y12190500D02*
Y12309500D01*
X17304000Y12190500D02*
Y12309500D01*
X17304500Y12190500D02*
Y12309500D01*
X17305000Y12190500D02*
Y12309500D01*
X17305500Y12190500D02*
Y12309500D01*
X17306000Y12190500D02*
Y12309500D01*
X17306500Y12190500D02*
Y12309500D01*
X17307000Y12190500D02*
Y12309500D01*
X17307500Y12190500D02*
Y12309500D01*
X17308000Y12190500D02*
Y12309500D01*
X17308500Y12190500D02*
Y12309500D01*
X17309000Y12190500D02*
Y12309500D01*
X17309500Y12190500D02*
Y12309500D01*
X17310000Y12190500D02*
Y12309500D01*
X17310500Y12190500D02*
Y12309500D01*
X17311000Y12190500D02*
Y12309500D01*
X17311500Y12190500D02*
Y12309500D01*
X17312000Y12190500D02*
Y12309500D01*
X17312500Y12190500D02*
Y12309500D01*
X17313000Y12190500D02*
Y12309500D01*
X17313500Y12190500D02*
Y12309500D01*
X17314000Y12190500D02*
Y12309500D01*
X17314500Y12190500D02*
Y12309500D01*
X17315000Y12190500D02*
Y12309500D01*
X17315500Y12190500D02*
Y12309500D01*
X17316000Y12190500D02*
Y12309500D01*
X17316500Y12190500D02*
Y12309500D01*
X17317000Y12190500D02*
Y12309500D01*
X17317500Y12190500D02*
Y12309500D01*
X17318000Y12190500D02*
Y12309500D01*
X17318500Y12190500D02*
Y12309500D01*
X17319000Y12190500D02*
Y12309500D01*
X17319500Y12190500D02*
Y12309500D01*
X17320000Y12190500D02*
Y12309500D01*
X17320500Y12190500D02*
Y12309500D01*
X17321000Y12190500D02*
Y12309500D01*
X17321500Y12190500D02*
Y12309500D01*
X17322000Y12190500D02*
Y12309500D01*
X17322500Y12190500D02*
Y12309500D01*
X17323000Y12190500D02*
Y12309500D01*
X17323500Y12190500D02*
Y12309500D01*
X17324000Y12190500D02*
Y12309500D01*
X17324500Y12190500D02*
Y12309500D01*
X17325000Y12190500D02*
Y12309500D01*
X17325500Y12190500D02*
Y12309500D01*
X17326000Y12190500D02*
Y12309500D01*
X17326500Y12190500D02*
Y12309500D01*
X17327000Y12190500D02*
Y12309500D01*
X17327500Y12190500D02*
Y12309500D01*
X17328000Y12190500D02*
Y12309500D01*
X17328500Y12190500D02*
Y12309500D01*
X17329000Y12190500D02*
Y12309500D01*
X17329500Y12190500D02*
Y12309500D01*
X17330000Y12190500D02*
Y12309500D01*
X17330500Y12190500D02*
Y12309500D01*
X17331000Y12190500D02*
Y12309500D01*
X17331500Y12190500D02*
Y12309500D01*
X17332000Y12190500D02*
Y12309500D01*
X17332500Y12190500D02*
Y12309500D01*
X17333000Y12190500D02*
Y12309500D01*
X17333500Y12190500D02*
Y12309500D01*
X17334000Y12190500D02*
Y12309500D01*
X17334500Y12190500D02*
Y12309500D01*
X17335000Y12190500D02*
Y12309500D01*
X17335500Y12190500D02*
Y12309500D01*
X17336000Y12190500D02*
Y12309500D01*
X17336500Y12190500D02*
Y12309500D01*
X17337000Y12190500D02*
Y12309500D01*
X17337500Y12190500D02*
Y12309500D01*
X17338000Y12190500D02*
Y12309500D01*
X17338500Y12190500D02*
Y12309500D01*
X17339000Y12190500D02*
Y12309500D01*
X17339500Y12190500D02*
Y12309500D01*
X17340000Y12190500D02*
Y12309500D01*
X17340500Y12190500D02*
Y12309500D01*
X17341000Y12190500D02*
Y12309500D01*
X17341500Y12190500D02*
Y12309500D01*
X17342000Y12190500D02*
Y12309500D01*
X17342500Y12190500D02*
Y12309500D01*
X17343000Y12190500D02*
Y12309500D01*
X17343500Y12190500D02*
Y12309500D01*
X17344000Y12190500D02*
Y12309500D01*
X17344500Y12190500D02*
Y12309500D01*
X17345000Y12190500D02*
Y12309500D01*
X17345500Y12190500D02*
Y12309500D01*
X17346000Y12190500D02*
Y12309500D01*
X17346500Y12190500D02*
Y12309500D01*
X17347000Y12190500D02*
Y12309500D01*
X17347500Y12190500D02*
Y12309500D01*
X17348000Y12190500D02*
Y12309500D01*
X17348500Y12190500D02*
Y12309500D01*
X17349000Y12190500D02*
Y12309500D01*
X17349500Y12190500D02*
Y12309500D01*
X17350000Y12190500D02*
Y12309500D01*
X17350500Y12190500D02*
Y12309500D01*
X17351000Y12190500D02*
Y12309500D01*
X17351500Y12190500D02*
Y12309500D01*
X17352000Y12190500D02*
Y12309500D01*
X17352500Y12190500D02*
Y12309500D01*
X17353000Y12190500D02*
Y12309500D01*
X17353500Y12190500D02*
Y12309500D01*
X17354000Y12190500D02*
Y12309500D01*
X17354500Y12190500D02*
Y12309500D01*
X17355000Y12190500D02*
Y12309500D01*
X17355500Y12190500D02*
Y12309500D01*
X17356000Y12190500D02*
Y12309500D01*
X17356500Y12190500D02*
Y12309500D01*
X17357000Y12190500D02*
Y12309500D01*
X17357500Y12190500D02*
Y12309500D01*
X17358000Y12190500D02*
Y12309500D01*
X17358500Y12190500D02*
Y12309500D01*
X17359000Y12190500D02*
Y12309500D01*
X17390500D02*
Y12190500D01*
X17509500*
Y12309500*
X17390500*
Y12190500D02*
Y12309500D01*
X17391000Y12190500D02*
Y12309500D01*
X17391500Y12190500D02*
Y12309500D01*
X17392000Y12190500D02*
Y12309500D01*
X17392500Y12190500D02*
Y12309500D01*
X17393000Y12190500D02*
Y12309500D01*
X17393500Y12190500D02*
Y12309500D01*
X17394000Y12190500D02*
Y12309500D01*
X17394500Y12190500D02*
Y12309500D01*
X17395000Y12190500D02*
Y12309500D01*
X17395500Y12190500D02*
Y12309500D01*
X17396000Y12190500D02*
Y12309500D01*
X17396500Y12190500D02*
Y12309500D01*
X17397000Y12190500D02*
Y12309500D01*
X17397500Y12190500D02*
Y12309500D01*
X17398000Y12190500D02*
Y12309500D01*
X17398500Y12190500D02*
Y12309500D01*
X17399000Y12190500D02*
Y12309500D01*
X17399500Y12190500D02*
Y12309500D01*
X17400000Y12190500D02*
Y12309500D01*
X17400500Y12190500D02*
Y12309500D01*
X17401000Y12190500D02*
Y12309500D01*
X17401500Y12190500D02*
Y12309500D01*
X17402000Y12190500D02*
Y12309500D01*
X17402500Y12190500D02*
Y12309500D01*
X17403000Y12190500D02*
Y12309500D01*
X17403500Y12190500D02*
Y12309500D01*
X17404000Y12190500D02*
Y12309500D01*
X17404500Y12190500D02*
Y12309500D01*
X17405000Y12190500D02*
Y12309500D01*
X17405500Y12190500D02*
Y12309500D01*
X17406000Y12190500D02*
Y12309500D01*
X17406500Y12190500D02*
Y12309500D01*
X17407000Y12190500D02*
Y12309500D01*
X17407500Y12190500D02*
Y12309500D01*
X17408000Y12190500D02*
Y12309500D01*
X17408500Y12190500D02*
Y12309500D01*
X17409000Y12190500D02*
Y12309500D01*
X17409500Y12190500D02*
Y12309500D01*
X17410000Y12190500D02*
Y12309500D01*
X17410500Y12190500D02*
Y12309500D01*
X17411000Y12190500D02*
Y12309500D01*
X17411500Y12190500D02*
Y12309500D01*
X17412000Y12190500D02*
Y12309500D01*
X17412500Y12190500D02*
Y12309500D01*
X17413000Y12190500D02*
Y12309500D01*
X17413500Y12190500D02*
Y12309500D01*
X17414000Y12190500D02*
Y12309500D01*
X17414500Y12190500D02*
Y12309500D01*
X17415000Y12190500D02*
Y12309500D01*
X17415500Y12190500D02*
Y12309500D01*
X17416000Y12190500D02*
Y12309500D01*
X17416500Y12190500D02*
Y12309500D01*
X17417000Y12190500D02*
Y12309500D01*
X17417500Y12190500D02*
Y12309500D01*
X17418000Y12190500D02*
Y12309500D01*
X17418500Y12190500D02*
Y12309500D01*
X17419000Y12190500D02*
Y12309500D01*
X17419500Y12190500D02*
Y12309500D01*
X17420000Y12190500D02*
Y12309500D01*
X17420500Y12190500D02*
Y12309500D01*
X17421000Y12190500D02*
Y12309500D01*
X17421500Y12190500D02*
Y12309500D01*
X17422000Y12190500D02*
Y12309500D01*
X17422500Y12190500D02*
Y12309500D01*
X17423000Y12190500D02*
Y12309500D01*
X17423500Y12190500D02*
Y12309500D01*
X17424000Y12190500D02*
Y12309500D01*
X17424500Y12190500D02*
Y12309500D01*
X17425000Y12190500D02*
Y12309500D01*
X17425500Y12190500D02*
Y12309500D01*
X17426000Y12190500D02*
Y12309500D01*
X17426500Y12190500D02*
Y12309500D01*
X17427000Y12190500D02*
Y12309500D01*
X17427500Y12190500D02*
Y12309500D01*
X17428000Y12190500D02*
Y12309500D01*
X17428500Y12190500D02*
Y12309500D01*
X17429000Y12190500D02*
Y12309500D01*
X17429500Y12190500D02*
Y12309500D01*
X17430000Y12190500D02*
Y12309500D01*
X17430500Y12190500D02*
Y12309500D01*
X17431000Y12190500D02*
Y12309500D01*
X17431500Y12190500D02*
Y12309500D01*
X17432000Y12190500D02*
Y12309500D01*
X17432500Y12190500D02*
Y12309500D01*
X17433000Y12190500D02*
Y12309500D01*
X17433500Y12190500D02*
Y12309500D01*
X17434000Y12190500D02*
Y12309500D01*
X17434500Y12190500D02*
Y12309500D01*
X17435000Y12190500D02*
Y12309500D01*
X17435500Y12190500D02*
Y12309500D01*
X17436000Y12190500D02*
Y12309500D01*
X17436500Y12190500D02*
Y12309500D01*
X17437000Y12190500D02*
Y12309500D01*
X17437500Y12190500D02*
Y12309500D01*
X17438000Y12190500D02*
Y12309500D01*
X17438500Y12190500D02*
Y12309500D01*
X17439000Y12190500D02*
Y12309500D01*
X17439500Y12190500D02*
Y12309500D01*
X17440000Y12190500D02*
Y12309500D01*
X17440500Y12190500D02*
Y12309500D01*
X17441000Y12190500D02*
Y12309500D01*
X17441500Y12190500D02*
Y12309500D01*
X17442000Y12190500D02*
Y12309500D01*
X17442500Y12190500D02*
Y12309500D01*
X17443000Y12190500D02*
Y12309500D01*
X17443500Y12190500D02*
Y12309500D01*
X17444000Y12190500D02*
Y12309500D01*
X17444500Y12190500D02*
Y12309500D01*
X17445000Y12190500D02*
Y12309500D01*
X17445500Y12190500D02*
Y12309500D01*
X17446000Y12190500D02*
Y12309500D01*
X17446500Y12190500D02*
Y12309500D01*
X17447000Y12190500D02*
Y12309500D01*
X17447500Y12190500D02*
Y12309500D01*
X17448000Y12190500D02*
Y12309500D01*
X17448500Y12190500D02*
Y12309500D01*
X17449000Y12190500D02*
Y12309500D01*
X17449500Y12190500D02*
Y12309500D01*
X17450000Y12190500D02*
Y12309500D01*
X17450500Y12190500D02*
Y12309500D01*
X17451000Y12190500D02*
Y12309500D01*
X17451500Y12190500D02*
Y12309500D01*
X17452000Y12190500D02*
Y12309500D01*
X17452500Y12190500D02*
Y12309500D01*
X17453000Y12190500D02*
Y12309500D01*
X17453500Y12190500D02*
Y12309500D01*
X17454000Y12190500D02*
Y12309500D01*
X17454500Y12190500D02*
Y12309500D01*
X17455000Y12190500D02*
Y12309500D01*
X17455500Y12190500D02*
Y12309500D01*
X17456000Y12190500D02*
Y12309500D01*
X17456500Y12190500D02*
Y12309500D01*
X17457000Y12190500D02*
Y12309500D01*
X17457500Y12190500D02*
Y12309500D01*
X17458000Y12190500D02*
Y12309500D01*
X17458500Y12190500D02*
Y12309500D01*
X17459000Y12190500D02*
Y12309500D01*
X17459500Y12190500D02*
Y12309500D01*
X17460000Y12190500D02*
Y12309500D01*
X17460500Y12190500D02*
Y12309500D01*
X17461000Y12190500D02*
Y12309500D01*
X17461500Y12190500D02*
Y12309500D01*
X17462000Y12190500D02*
Y12309500D01*
X17462500Y12190500D02*
Y12309500D01*
X17463000Y12190500D02*
Y12309500D01*
X17463500Y12190500D02*
Y12309500D01*
X17464000Y12190500D02*
Y12309500D01*
X17464500Y12190500D02*
Y12309500D01*
X17465000Y12190500D02*
Y12309500D01*
X17465500Y12190500D02*
Y12309500D01*
X17466000Y12190500D02*
Y12309500D01*
X17466500Y12190500D02*
Y12309500D01*
X17467000Y12190500D02*
Y12309500D01*
X17467500Y12190500D02*
Y12309500D01*
X17468000Y12190500D02*
Y12309500D01*
X17468500Y12190500D02*
Y12309500D01*
X17469000Y12190500D02*
Y12309500D01*
X17469500Y12190500D02*
Y12309500D01*
X17470000Y12190500D02*
Y12309500D01*
X17470500Y12190500D02*
Y12309500D01*
X17471000Y12190500D02*
Y12309500D01*
X17471500Y12190500D02*
Y12309500D01*
X17472000Y12190500D02*
Y12309500D01*
X17472500Y12190500D02*
Y12309500D01*
X17473000Y12190500D02*
Y12309500D01*
X17473500Y12190500D02*
Y12309500D01*
X17474000Y12190500D02*
Y12309500D01*
X17474500Y12190500D02*
Y12309500D01*
X17475000Y12190500D02*
Y12309500D01*
X17475500Y12190500D02*
Y12309500D01*
X17476000Y12190500D02*
Y12309500D01*
X17476500Y12190500D02*
Y12309500D01*
X17477000Y12190500D02*
Y12309500D01*
X17477500Y12190500D02*
Y12309500D01*
X17478000Y12190500D02*
Y12309500D01*
X17478500Y12190500D02*
Y12309500D01*
X17479000Y12190500D02*
Y12309500D01*
X17479500Y12190500D02*
Y12309500D01*
X17480000Y12190500D02*
Y12309500D01*
X17480500Y12190500D02*
Y12309500D01*
X17481000Y12190500D02*
Y12309500D01*
X17481500Y12190500D02*
Y12309500D01*
X17482000Y12190500D02*
Y12309500D01*
X17482500Y12190500D02*
Y12309500D01*
X17483000Y12190500D02*
Y12309500D01*
X17483500Y12190500D02*
Y12309500D01*
X17484000Y12190500D02*
Y12309500D01*
X17484500Y12190500D02*
Y12309500D01*
X17485000Y12190500D02*
Y12309500D01*
X17485500Y12190500D02*
Y12309500D01*
X17486000Y12190500D02*
Y12309500D01*
X17486500Y12190500D02*
Y12309500D01*
X17487000Y12190500D02*
Y12309500D01*
X17487500Y12190500D02*
Y12309500D01*
X17488000Y12190500D02*
Y12309500D01*
X17488500Y12190500D02*
Y12309500D01*
X17489000Y12190500D02*
Y12309500D01*
X17489500Y12190500D02*
Y12309500D01*
X17490000Y12190500D02*
Y12309500D01*
X17490500Y12190500D02*
Y12309500D01*
X17491000Y12190500D02*
Y12309500D01*
X17491500Y12190500D02*
Y12309500D01*
X17492000Y12190500D02*
Y12309500D01*
X17492500Y12190500D02*
Y12309500D01*
X17493000Y12190500D02*
Y12309500D01*
X17493500Y12190500D02*
Y12309500D01*
X17494000Y12190500D02*
Y12309500D01*
X17494500Y12190500D02*
Y12309500D01*
X17495000Y12190500D02*
Y12309500D01*
X17495500Y12190500D02*
Y12309500D01*
X17496000Y12190500D02*
Y12309500D01*
X17496500Y12190500D02*
Y12309500D01*
X17497000Y12190500D02*
Y12309500D01*
X17497500Y12190500D02*
Y12309500D01*
X17498000Y12190500D02*
Y12309500D01*
X17498500Y12190500D02*
Y12309500D01*
X17499000Y12190500D02*
Y12309500D01*
X17499500Y12190500D02*
Y12309500D01*
X17500000Y12190500D02*
Y12309500D01*
X17500500Y12190500D02*
Y12309500D01*
X17501000Y12190500D02*
Y12309500D01*
X17501500Y12190500D02*
Y12309500D01*
X17502000Y12190500D02*
Y12309500D01*
X17502500Y12190500D02*
Y12309500D01*
X17503000Y12190500D02*
Y12309500D01*
X17503500Y12190500D02*
Y12309500D01*
X17504000Y12190500D02*
Y12309500D01*
X17504500Y12190500D02*
Y12309500D01*
X17505000Y12190500D02*
Y12309500D01*
X17505500Y12190500D02*
Y12309500D01*
X17506000Y12190500D02*
Y12309500D01*
X17506500Y12190500D02*
Y12309500D01*
X17507000Y12190500D02*
Y12309500D01*
X17507500Y12190500D02*
Y12309500D01*
X17508000Y12190500D02*
Y12309500D01*
X17508500Y12190500D02*
Y12309500D01*
X17509000Y12190500D02*
Y12309500D01*
G54D12*
G54D15*
X13907500Y8028906D02*
Y7907500D01*
Y8028906D02*
X13948409D01*
X13962045Y8023125*
X13962045D02*
X13966591Y8017344D01*
X13971136Y8005781*
Y7988438*
X13971136D02*
X13966591Y7976875D01*
X13962045Y7971094*
X13962045D02*
X13948409Y7965313D01*
X13948409D02*
X13907500D01*
X14048409Y8028906D02*
X14012045Y7907500D01*
X14048409Y8028906D02*
X14084773Y7907500D01*
X14025682Y7947969D02*
X14071136D01*
X14189318Y8011563D02*
X14180227Y8023125D01*
X14166591Y8028906*
X14148409*
X14134773Y8023125*
X14125682Y8011563*
X14125682D02*
Y8000000D01*
X14130227Y7988438*
X14130227D02*
X14134773Y7982656D01*
X14143864Y7976875*
X14171136Y7965313*
X14171136D02*
X14180227Y7959531D01*
X14184773Y7953750*
X14189318Y7942188*
X14189318D02*
Y7924844D01*
X14180227Y7913281*
X14166591Y7907500*
X14148409*
X14134773Y7913281*
X14125682Y7924844*
X14262045Y8028906D02*
Y7907500D01*
X14230227Y8028906D02*
X14293864D01*
X14334773D02*
Y7907500D01*
Y8028906D02*
X14393864D01*
X14334773Y7971094D02*
X14371136D01*
X14334773Y7907500D02*
X14393864D01*
X14539318Y8028906D02*
Y7907500D01*
Y8028906D02*
X14575682Y7907500D01*
X14612045Y8028906D02*
X14575682Y7907500D01*
X14612045Y8028906D02*
Y7907500D01*
X14689318Y8028906D02*
X14652955Y7907500D01*
X14689318Y8028906D02*
X14725682Y7907500D01*
X14666591Y7947969D02*
X14712045D01*
X14830227Y8011563D02*
X14821136Y8023125D01*
X14807500Y8028906*
X14789318*
X14775682Y8023125*
X14766591Y8011563*
X14766591D02*
Y8000000D01*
X14771136Y7988438*
X14771136D02*
X14775682Y7982656D01*
X14784773Y7976875*
X14812045Y7965313*
X14812045D02*
X14821136Y7959531D01*
X14825682Y7953750*
X14830227Y7942188*
X14830227D02*
Y7924844D01*
X14821136Y7913281*
X14807500Y7907500*
X14789318*
X14775682Y7913281*
X14766591Y7924844*
X14871136Y8028906D02*
Y7907500D01*
X14934773Y8028906D02*
X14871136Y7947969D01*
X14893864Y7976875D02*
X14934773Y7907500D01*
X15112045Y8028906D02*
Y7907500D01*
X15080227Y8028906D02*
X15143864D01*
X15212045D02*
X15202955Y8023125D01*
X15202955D02*
X15193864Y8011563D01*
X15193864D02*
X15189318Y8000000D01*
X15184773Y7982656*
Y7953750*
X15189318Y7936406*
X15193864Y7924844*
X15202955Y7913281*
X15202955D02*
X15212045Y7907500D01*
X15212045D02*
X15230227D01*
X15239318Y7913281*
X15248409Y7924844*
X15252955Y7936406*
X15252955D02*
X15257500Y7953750D01*
Y7982656*
X15252955Y8000000*
X15252955D02*
X15248409Y8011563D01*
X15248409D02*
X15239318Y8023125D01*
X15230227Y8028906*
X15212045*
X15298409D02*
Y7907500D01*
Y8028906D02*
X15339318D01*
X15352955Y8023125*
X15352955D02*
X15357500Y8017344D01*
X15362045Y8005781*
X15362045D02*
Y7988438D01*
X15362045D02*
X15357500Y7976875D01*
X15352955Y7971094*
X15352955D02*
X15339318Y7965313D01*
X15339318D02*
X15298409D01*
X13007500Y8028906D02*
Y7907500D01*
X13062045*
X13139318Y8028906D02*
X13102955Y7907500D01*
X13139318Y8028906D02*
X13175682Y7907500D01*
X13116591Y7947969D02*
X13162045D01*
X13216591Y8028906D02*
X13252955Y7971094D01*
X13252955D02*
Y7907500D01*
X13289318Y8028906D02*
X13252955Y7971094D01*
X13330227Y8028906D02*
Y7907500D01*
Y8028906D02*
X13389318D01*
X13330227Y7971094D02*
X13366591D01*
X13330227Y7907500D02*
X13389318D01*
X13430227Y8028906D02*
Y7907500D01*
Y8028906D02*
X13471136D01*
X13484773Y8023125*
X13489318Y8017344*
X13493864Y8005781*
Y7994219*
X13489318Y7982656*
X13484773Y7976875*
X13471136Y7971094*
X13430227*
X13462045D02*
X13493864Y7907500D01*
X13639318Y7959531D02*
X13721136D01*
X13007500Y8228906D02*
X13071136Y8107500D01*
Y8228906D02*
X13007500Y8107500D01*
X13112045Y8228906D02*
Y8107500D01*
Y8228906D02*
X13148409Y8107500D01*
X13184773Y8228906D02*
X13148409Y8107500D01*
X13184773Y8228906D02*
Y8107500D01*
X13252955Y8228906D02*
X13243864Y8223125D01*
X13234773Y8211563*
X13234773D02*
X13230227Y8200000D01*
X13225682Y8182656*
Y8153750*
X13230227Y8136406*
X13234773Y8124844*
X13243864Y8113281*
X13252955Y8107500*
X13252955D02*
X13271136D01*
X13280227Y8113281*
X13289318Y8124844*
X13293864Y8136406*
X13298409Y8153750*
Y8182656*
X13293864Y8200000*
X13289318Y8211563*
X13289318D02*
X13280227Y8223125D01*
X13271136Y8228906*
X13252955*
X13402955Y8211563D02*
X13393864Y8223125D01*
X13380227Y8228906*
X13362045*
X13362045D02*
X13348409Y8223125D01*
X13339318Y8211563*
X13339318D02*
Y8200000D01*
X13343864Y8188438*
X13343864D02*
X13348409Y8182656D01*
X13357500Y8176875*
X13384773Y8165313*
X13384773D02*
X13393864Y8159531D01*
X13398409Y8153750*
X13402955Y8142188*
X13402955D02*
Y8124844D01*
X13402955D02*
X13393864Y8113281D01*
X13380227Y8107500*
X13362045*
X13362045D02*
X13348409Y8113281D01*
X13339318Y8124844*
X13548409Y8228906D02*
X13612045Y8107500D01*
Y8228906D02*
X13548409Y8107500D01*
X13652955Y8228906D02*
Y8107500D01*
Y8228906D02*
X13693864D01*
X13707500Y8223125*
X13712045Y8217344*
X13712045D02*
X13716591Y8205781D01*
Y8188438*
X13716591D02*
X13712045Y8176875D01*
X13712045D02*
X13707500Y8171094D01*
X13693864Y8165313*
X13693864D02*
X13652955D01*
X13825682Y8200000D02*
X13821136Y8211563D01*
X13821136D02*
X13812045Y8223125D01*
X13812045D02*
X13802955Y8228906D01*
X13802955D02*
X13784773D01*
X13775682Y8223125*
X13766591Y8211563*
X13766591D02*
X13762045Y8200000D01*
X13762045D02*
X13757500Y8182656D01*
Y8153750*
X13762045Y8136406*
X13762045D02*
X13766591Y8124844D01*
X13775682Y8113281*
X13784773Y8107500*
X13802955*
X13802955D02*
X13812045Y8113281D01*
X13812045D02*
X13821136Y8124844D01*
X13825682Y8136406*
X13866591Y8228906D02*
Y8107500D01*
Y8228906D02*
X13907500D01*
X13921136Y8223125*
X13925682Y8217344*
X13930227Y8205781*
Y8194219*
X13925682Y8182656*
X13921136Y8176875*
X13907500Y8171094*
X13866591D02*
X13907500D01*
X13921136Y8165313*
X13921136D02*
X13925682Y8159531D01*
X13930227Y8147969*
Y8130625*
X13925682Y8119063*
X13925682D02*
X13921136Y8113281D01*
X13907500Y8107500*
X13866591*
X13971136Y8159531D02*
X14052955D01*
X14121136Y8228906D02*
X14107500Y8223125D01*
X14098409Y8205781*
X14093864Y8176875*
Y8159531*
X14098409Y8130625*
X14107500Y8113281*
X14121136Y8107500*
X14130227*
X14143864Y8113281*
X14152955Y8130625*
X14152955D02*
X14157500Y8159531D01*
Y8176875*
X14152955Y8205781*
X14152955D02*
X14143864Y8223125D01*
X14130227Y8228906*
X14121136*
X14198409Y8205781D02*
X14207500Y8211563D01*
X14207500D02*
X14221136Y8228906D01*
Y8107500*
X14289318Y8228906D02*
X14275682Y8223125D01*
X14266591Y8205781*
X14262045Y8176875*
X14262045D02*
Y8159531D01*
X14262045D02*
X14266591Y8130625D01*
X14275682Y8113281*
X14289318Y8107500*
X14298409*
X14312045Y8113281*
X14312045D02*
X14321136Y8130625D01*
X14325682Y8159531*
Y8176875*
X14321136Y8205781*
X14312045Y8223125*
X14312045D02*
X14298409Y8228906D01*
X14289318*
X14471136Y8205781D02*
X14480227Y8211563D01*
X14480227D02*
X14493864Y8228906D01*
Y8107500*
X14598409Y8228906D02*
X14552955Y8107500D01*
X14534773Y8228906D02*
X14598409D01*
X14721136Y8252031D02*
X14639318Y8067031D01*
X14789318Y8228906D02*
X14775682Y8223125D01*
X14766591Y8205781*
X14762045Y8176875*
X14762045D02*
Y8159531D01*
X14762045D02*
X14766591Y8130625D01*
X14775682Y8113281*
X14789318Y8107500*
X14798409*
X14812045Y8113281*
X14812045D02*
X14821136Y8130625D01*
X14825682Y8159531*
Y8176875*
X14821136Y8205781*
X14812045Y8223125*
X14812045D02*
X14798409Y8228906D01*
X14789318*
X14875682D02*
X14925682D01*
X14898409Y8182656*
X14912045*
X14912045D02*
X14921136Y8176875D01*
X14925682Y8171094*
X14930227Y8153750*
Y8142188*
X14930227D02*
X14925682Y8124844D01*
X14916591Y8113281*
X14902955Y8107500*
X14902955D02*
X14889318D01*
X14875682Y8113281*
X14871136Y8119063*
X14871136D02*
X14866591Y8130625D01*
X15052955Y8252031D02*
X14971136Y8067031D01*
X15121136Y8228906D02*
X15107500Y8223125D01*
X15098409Y8205781*
X15093864Y8176875*
Y8159531*
X15098409Y8130625*
X15107500Y8113281*
X15121136Y8107500*
X15130227*
X15143864Y8113281*
X15152955Y8130625*
X15152955D02*
X15157500Y8159531D01*
Y8176875*
X15152955Y8205781*
X15152955D02*
X15143864Y8223125D01*
X15130227Y8228906*
X15121136*
X15257500Y8188438D02*
X15252955Y8171094D01*
X15252955D02*
X15243864Y8159531D01*
X15230227Y8153750*
X15225682*
X15212045Y8159531*
X15212045D02*
X15202955Y8171094D01*
X15202955D02*
X15198409Y8188438D01*
X15198409D02*
Y8194219D01*
X15202955Y8211563*
X15202955D02*
X15212045Y8223125D01*
X15212045D02*
X15225682Y8228906D01*
X15230227*
X15243864Y8223125*
X15252955Y8211563*
X15252955D02*
X15257500Y8188438D01*
X15257500D02*
Y8159531D01*
X15252955Y8130625*
X15252955D02*
X15243864Y8113281D01*
X15230227Y8107500*
X15221136*
X15207500Y8113281*
X15202955Y8124844*
G54D17*
X14770000Y12225000D02*
X14830000D01*
X14770000Y12175000D02*
X14830000D01*
X14770000Y12125000D02*
X14830000D01*
X14770000Y12075000D02*
X14830000D01*
X14770000Y12025000D02*
X14830000D01*
X14770000Y11975000D02*
X14830000D01*
X14875000Y11870000D02*
Y11930000D01*
X14925000Y11870000D02*
Y11930000D01*
X14975000Y11870000D02*
Y11930000D01*
X15025000Y11870000D02*
Y11930000D01*
X15075000Y11870000D02*
Y11930000D01*
X15125000Y11870000D02*
Y11930000D01*
X15170000Y11975000D02*
X15230000D01*
X15170000Y12025000D02*
X15230000D01*
X15170000Y12075000D02*
X15230000D01*
X15170000Y12125000D02*
X15230000D01*
X15170000Y12175000D02*
X15230000D01*
X15170000Y12225000D02*
X15230000D01*
X15125000Y12270000D02*
Y12330000D01*
X15075000Y12270000D02*
Y12330000D01*
X15025000Y12270000D02*
Y12330000D01*
X14975000Y12270000D02*
Y12330000D01*
X14925000Y12270000D02*
Y12330000D01*
X14875000Y12270000D02*
Y12330000D01*
G54D20*
X14995000Y13007500D02*
Y12962500D01*
X14900000Y13007500D02*
Y12962500D01*
X14805000Y13007500D02*
Y12962500D01*
Y12737500D02*
Y12692500D01*
X14995000Y12737500D02*
Y12692500D01*
X17642500Y10345000D02*
X17687500D01*
X17642500Y10250000D02*
X17687500D01*
X17642500Y10155000D02*
X17687500D01*
X17912500D02*
X17957500D01*
X17912500Y10250000D02*
X17957500D01*
X17912500Y10345000D02*
X17957500D01*
X13455000Y13142500D02*
Y13187500D01*
X13550000Y13142500D02*
Y13187500D01*
X13645000Y13142500D02*
Y13187500D01*
Y13412500D02*
Y13457500D01*
X13455000Y13412500D02*
Y13457500D01*
X13549500Y9732500D02*
Y9827500D01*
X13676500Y9732500D02*
Y9827500D01*
X13803500Y9732500D02*
Y9827500D01*
X13930500Y9732500D02*
Y9827500D01*
Y10272500D02*
Y10367500D01*
X13803500Y10272500D02*
Y10367500D01*
X13676500Y10272500D02*
Y10367500D01*
X13549500Y10272500D02*
Y10367500D01*
X18952500Y13345000D02*
X18997500D01*
X18952500Y13250000D02*
X18997500D01*
X18952500Y13155000D02*
X18997500D01*
X19222500D02*
X19267500D01*
X19222500Y13345000D02*
X19267500D01*
X14580000Y11260000D02*
X14625000D01*
X14580000Y11165000D02*
X14625000D01*
X14580000Y11070000D02*
X14625000D01*
X14850000D02*
X14895000D01*
X14850000Y11260000D02*
X14895000D01*
X15342500Y13195000D02*
X15387500D01*
X15342500Y13100000D02*
X15387500D01*
X15342500Y13005000D02*
X15387500D01*
X15612500D02*
X15657500D01*
X15612500Y13195000D02*
X15657500D01*
G54D22*
X15530000Y9705000D02*
Y9695000D01*
X15370000Y9705000D02*
Y9695000D01*
X17630000Y9305000D02*
Y9295000D01*
X17470000Y9305000D02*
Y9295000D01*
X13345000Y9820000D02*
X13335000D01*
X13345000Y9980000D02*
X13335000D01*
X15410000Y12785000D02*
Y12775000D01*
X15250000Y12785000D02*
Y12775000D01*
X13970000Y9565000D02*
Y9555000D01*
X13810000Y9565000D02*
Y9555000D01*
X14770000Y10045000D02*
Y10055000D01*
X14930000Y10045000D02*
Y10055000D01*
X14770000Y9845000D02*
Y9855000D01*
X14930000Y9845000D02*
Y9855000D01*
X16470000Y9395000D02*
Y9405000D01*
X16630000Y9395000D02*
Y9405000D01*
X16470000Y9695000D02*
Y9705000D01*
X16630000Y9695000D02*
Y9705000D01*
X16455000Y10320000D02*
X16445000D01*
X16455000Y10480000D02*
X16445000D01*
X13780000Y12605000D02*
Y12595000D01*
X13620000Y12605000D02*
Y12595000D01*
X18280000Y10305000D02*
Y10295000D01*
X18120000Y10305000D02*
Y10295000D01*
X20830000Y9605000D02*
Y9595000D01*
X20670000Y9605000D02*
Y9595000D01*
X20830000Y9805000D02*
Y9795000D01*
X20670000Y9805000D02*
Y9795000D01*
X13845000Y13680000D02*
X13855000D01*
X13845000Y13520000D02*
X13855000D01*
X15530000Y10205000D02*
Y10195000D01*
X15370000Y10205000D02*
Y10195000D01*
X14420000Y12395000D02*
Y12405000D01*
X14580000Y12395000D02*
Y12405000D01*
X13855000Y13220000D02*
X13845000D01*
X13855000Y13380000D02*
X13845000D01*
X15070000Y10195000D02*
Y10205000D01*
X15230000Y10195000D02*
Y10205000D01*
X15070000Y9695000D02*
Y9705000D01*
X15230000Y9695000D02*
Y9705000D01*
X18280000Y10755000D02*
Y10745000D01*
X18120000Y10755000D02*
Y10745000D01*
X20320000Y9795000D02*
Y9805000D01*
X20480000Y9795000D02*
Y9805000D01*
X20320000Y9595000D02*
Y9605000D01*
X20480000Y9595000D02*
Y9605000D01*
X17470000Y9545000D02*
Y9555000D01*
X17630000Y9545000D02*
Y9555000D01*
X20770000Y12195000D02*
Y12205000D01*
X20930000Y12195000D02*
Y12205000D01*
X16280000Y10575000D02*
Y10565000D01*
X16120000Y10575000D02*
Y10565000D01*
X15395000Y12200000D02*
X15385000D01*
X15395000Y12360000D02*
X15385000D01*
X14980000Y13155000D02*
Y13145000D01*
X14820000Y13155000D02*
Y13145000D01*
X18770000Y9685000D02*
Y9695000D01*
X18930000Y9685000D02*
Y9695000D01*
X16300000Y12585000D02*
Y12575000D01*
X16140000Y12585000D02*
Y12575000D01*
X20405000Y13120000D02*
X20395000D01*
X20405000Y13280000D02*
X20395000D01*
X18770000Y9515000D02*
Y9525000D01*
X18930000Y9515000D02*
Y9525000D01*
X18770000Y9855000D02*
Y9865000D01*
X18930000Y9855000D02*
Y9865000D01*
X18120000Y10145000D02*
Y10155000D01*
X18280000Y10145000D02*
Y10155000D01*
X13345000Y10170000D02*
X13335000D01*
X13345000Y10330000D02*
X13335000D01*
X16610000Y11405000D02*
Y11395000D01*
X16450000Y11405000D02*
Y11395000D01*
X16300000Y12785000D02*
Y12775000D01*
X16140000Y12785000D02*
Y12775000D01*
X15670000Y10195000D02*
Y10205000D01*
X15830000Y10195000D02*
Y10205000D01*
X14930000Y9705000D02*
Y9695000D01*
X14770000Y9705000D02*
Y9695000D01*
X15670000D02*
Y9705000D01*
X15830000Y9695000D02*
Y9705000D01*
X13855000Y13820000D02*
X13845000D01*
X13855000Y13980000D02*
X13845000D01*
Y13080000D02*
X13855000D01*
X13845000Y12920000D02*
X13855000D01*
X14930000Y10205000D02*
Y10195000D01*
X14770000Y10205000D02*
Y10195000D01*
X14980000Y12555000D02*
Y12545000D01*
X14820000Y12555000D02*
Y12545000D01*
X18120000Y10445000D02*
Y10455000D01*
X18280000Y10445000D02*
Y10455000D01*
X15580000Y13375000D02*
Y13365000D01*
X15420000Y13375000D02*
Y13365000D01*
X15670000Y10025000D02*
Y10035000D01*
X15830000Y10025000D02*
Y10035000D01*
X13620000Y10795000D02*
Y10805000D01*
X13780000Y10795000D02*
Y10805000D01*
X19410000Y13245000D02*
Y13255000D01*
X19570000Y13245000D02*
Y13255000D01*
X18770000Y9175000D02*
Y9185000D01*
X18930000Y9175000D02*
Y9185000D01*
X18770000Y9345000D02*
Y9355000D01*
X18930000Y9345000D02*
Y9355000D01*
X18120000Y10595000D02*
Y10605000D01*
X18280000Y10595000D02*
Y10605000D01*
X18460000Y12085000D02*
Y12075000D01*
X18300000Y12085000D02*
Y12075000D01*
X14420000Y12245000D02*
Y12255000D01*
X14580000Y12245000D02*
Y12255000D01*
X20670000Y10995000D02*
Y11005000D01*
X20830000Y10995000D02*
Y11005000D01*
X20670000Y11195000D02*
Y11205000D01*
X20830000Y11195000D02*
Y11205000D01*
X14780000Y11455000D02*
Y11445000D01*
X14620000Y11455000D02*
Y11445000D01*
X20320000Y11195000D02*
Y11205000D01*
X20480000Y11195000D02*
Y11205000D01*
X20320000Y10995000D02*
Y11005000D01*
X20480000Y10995000D02*
Y11005000D01*
X18300000Y12375000D02*
Y12385000D01*
X18460000Y12375000D02*
Y12385000D01*
X14750000Y14145000D02*
Y14155000D01*
X14910000Y14145000D02*
Y14155000D01*
X14750000Y13725000D02*
Y13735000D01*
X14910000Y13725000D02*
Y13735000D01*
X15712500Y11205000D02*
X15722500D01*
X15712500Y11045000D02*
X15722500D01*
X20020000Y13245000D02*
Y13255000D01*
X20180000Y13245000D02*
Y13255000D01*
X20295000Y13830000D02*
X20305000D01*
X20295000Y13670000D02*
X20305000D01*
X18460000Y12535000D02*
Y12525000D01*
X18300000Y12535000D02*
Y12525000D01*
X17720000Y10745000D02*
Y10755000D01*
X17880000Y10745000D02*
Y10755000D01*
X15402500Y11045000D02*
X15392500D01*
X15402500Y11205000D02*
X15392500D01*
X19030000Y13515000D02*
Y13525000D01*
X19190000Y13515000D02*
Y13525000D01*
X21020000Y10995000D02*
Y11005000D01*
X21180000Y10995000D02*
Y11005000D01*
X17095000Y11400000D02*
X17105000D01*
X17095000Y11240000D02*
X17105000D01*
X17395000Y11400000D02*
X17405000D01*
X17395000Y11240000D02*
X17405000D01*
X17590000Y13385000D02*
Y13395000D01*
X17750000Y13385000D02*
Y13395000D01*
X18300000Y12815000D02*
Y12825000D01*
X18460000Y12815000D02*
Y12825000D01*
X17290000Y13385000D02*
Y13395000D01*
X17450000Y13385000D02*
Y13395000D01*
X18300000Y12225000D02*
Y12235000D01*
X18460000Y12225000D02*
Y12235000D01*
X16310000Y11985000D02*
Y11975000D01*
X16150000Y11985000D02*
Y11975000D01*
X17880000Y11405000D02*
Y11395000D01*
X17720000Y11405000D02*
Y11395000D01*
X15195000Y13180000D02*
X15205000D01*
X15195000Y13020000D02*
X15205000D01*
X14580000Y12105000D02*
Y12095000D01*
X14420000Y12105000D02*
Y12095000D01*
X16470000Y9945000D02*
Y9955000D01*
X16630000Y9945000D02*
Y9955000D01*
X16470000Y9545000D02*
Y9555000D01*
X16630000Y9545000D02*
Y9555000D01*
X13470000Y13595000D02*
Y13605000D01*
X13630000Y13595000D02*
Y13605000D01*
X17630000Y9705000D02*
Y9695000D01*
X17470000Y9705000D02*
Y9695000D01*
X17245000Y11400000D02*
X17255000D01*
X17245000Y11240000D02*
X17255000D01*
X15552500Y11205000D02*
X15562500D01*
X15552500Y11045000D02*
X15562500D01*
X14405000Y11420000D02*
X14395000D01*
X14405000Y11580000D02*
X14395000D01*
X15670000Y9865000D02*
Y9875000D01*
X15830000Y9865000D02*
Y9875000D01*
X14820000Y13295000D02*
Y13305000D01*
X14980000Y13295000D02*
Y13305000D01*
G54D25*
X15097500Y12197500D02*
X14902500D01*
Y12002500*
X15097500*
Y12197500*
X14902500Y12002500D02*
Y12197500D01*
X14905000Y12002500D02*
Y12197500D01*
X14907500Y12002500D02*
Y12197500D01*
X14910000Y12002500D02*
Y12197500D01*
X14912500Y12002500D02*
Y12197500D01*
X14915000Y12002500D02*
Y12197500D01*
X14917500Y12002500D02*
Y12197500D01*
X14920000Y12002500D02*
Y12197500D01*
X14922500Y12002500D02*
Y12197500D01*
X14925000Y12002500D02*
Y12197500D01*
X14927500Y12002500D02*
Y12197500D01*
X14930000Y12002500D02*
Y12197500D01*
X14932500Y12002500D02*
Y12197500D01*
X14935000Y12002500D02*
Y12197500D01*
X14937500Y12002500D02*
Y12197500D01*
X14940000Y12002500D02*
Y12197500D01*
X14942500Y12002500D02*
Y12197500D01*
X14945000Y12002500D02*
Y12197500D01*
X14947500Y12002500D02*
Y12197500D01*
X14950000Y12002500D02*
Y12197500D01*
X14952500Y12002500D02*
Y12197500D01*
X14955000Y12002500D02*
Y12197500D01*
X14957500Y12002500D02*
Y12197500D01*
X14960000Y12002500D02*
Y12197500D01*
X14962500Y12002500D02*
Y12197500D01*
X14965000Y12002500D02*
Y12197500D01*
X14967500Y12002500D02*
Y12197500D01*
X14970000Y12002500D02*
Y12197500D01*
X14972500Y12002500D02*
Y12197500D01*
X14975000Y12002500D02*
Y12197500D01*
X14977500Y12002500D02*
Y12197500D01*
X14980000Y12002500D02*
Y12197500D01*
X14982500Y12002500D02*
Y12197500D01*
X14985000Y12002500D02*
Y12197500D01*
X14987500Y12002500D02*
Y12197500D01*
X14990000Y12002500D02*
Y12197500D01*
X14992500Y12002500D02*
Y12197500D01*
X14995000Y12002500D02*
Y12197500D01*
X14997500Y12002500D02*
Y12197500D01*
X15000000Y12002500D02*
Y12197500D01*
X15002500Y12002500D02*
Y12197500D01*
X15005000Y12002500D02*
Y12197500D01*
X15007500Y12002500D02*
Y12197500D01*
X15010000Y12002500D02*
Y12197500D01*
X15012500Y12002500D02*
Y12197500D01*
X15015000Y12002500D02*
Y12197500D01*
X15017500Y12002500D02*
Y12197500D01*
X15020000Y12002500D02*
Y12197500D01*
X15022500Y12002500D02*
Y12197500D01*
X15025000Y12002500D02*
Y12197500D01*
X15027500Y12002500D02*
Y12197500D01*
X15030000Y12002500D02*
Y12197500D01*
X15032500Y12002500D02*
Y12197500D01*
X15035000Y12002500D02*
Y12197500D01*
X15037500Y12002500D02*
Y12197500D01*
X15040000Y12002500D02*
Y12197500D01*
X15042500Y12002500D02*
Y12197500D01*
X15045000Y12002500D02*
Y12197500D01*
X15047500Y12002500D02*
Y12197500D01*
X15050000Y12002500D02*
Y12197500D01*
X15052500Y12002500D02*
Y12197500D01*
X15055000Y12002500D02*
Y12197500D01*
X15057500Y12002500D02*
Y12197500D01*
X15060000Y12002500D02*
Y12197500D01*
X15062500Y12002500D02*
Y12197500D01*
X15065000Y12002500D02*
Y12197500D01*
X15067500Y12002500D02*
Y12197500D01*
X15070000Y12002500D02*
Y12197500D01*
X15072500Y12002500D02*
Y12197500D01*
X15075000Y12002500D02*
Y12197500D01*
X15077500Y12002500D02*
Y12197500D01*
X15080000Y12002500D02*
Y12197500D01*
X15082500Y12002500D02*
Y12197500D01*
X15085000Y12002500D02*
Y12197500D01*
X15087500Y12002500D02*
Y12197500D01*
X15090000Y12002500D02*
Y12197500D01*
X15092500Y12002500D02*
Y12197500D01*
X15095000Y12002500D02*
Y12197500D01*
G54D28*
X19850000Y10030000D02*
Y10120000D01*
Y10380000D02*
Y10470000D01*
X19300000Y9330000D02*
Y9420000D01*
Y9680000D02*
Y9770000D01*
X18650000Y10180000D02*
Y10270000D01*
Y10530000D02*
Y10620000D01*
X19850000Y9330000D02*
Y9420000D01*
Y9680000D02*
Y9770000D01*
X14200000Y12860000D02*
Y13200000D01*
Y13800000D02*
Y14140000D01*
X19850000Y11430000D02*
Y11520000D01*
Y11780000D02*
Y11870000D01*
Y10730000D02*
Y10820000D01*
Y11080000D02*
Y11170000D01*
X19250000Y10055000D02*
Y10195000D01*
Y10505000D02*
Y10645000D01*
G54D29*
X14380000Y11240000D02*
X14420000D01*
X14380000Y11060000D02*
X14420000D01*
X17890000Y10570000D02*
Y10530000D01*
X17710000Y10570000D02*
Y10530000D01*
X15227500Y11335000D02*
Y11295000D01*
X15047500Y11335000D02*
Y11295000D01*
Y11055000D02*
Y11135000D01*
X15227500Y11055000D02*
Y11135000D01*
X19370000Y13950000D02*
X19550000D01*
X19950000D02*
X20130000D01*
X19370000Y13550000D02*
X19550000D01*
X19950000D02*
X20130000D01*
X19370000Y12950000D02*
X19550000D01*
X19950000D02*
X20130000D01*
X19370000Y12550000D02*
X19550000D01*
X19950000D02*
X20130000D01*
G54D32*
X21410000Y10640000D02*
Y10700000D01*
X21210000Y9900000D02*
Y9960000D01*
X21410000Y12040000D02*
Y12100000D01*
X21210000Y11300000D02*
Y11360000D01*
G54D33*
X20470000Y10670000D03*
Y12070000D03*
G54D35*
X14310000Y9595000D02*
X14350000D01*
X14310000Y9405000D02*
X14350000D01*
X14550000Y9500000D02*
X14590000D01*
X14310000Y10395000D02*
X14350000D01*
X14310000Y10205000D02*
X14350000D01*
X14550000Y10300000D02*
X14590000D01*
X14310000Y9995000D02*
X14350000D01*
X14310000Y9805000D02*
X14350000D01*
X14550000Y9900000D02*
X14590000D01*
G54D36*
X16075000Y10415000D02*
X16115000D01*
X16075000Y10350000D02*
X16115000D01*
X16075000Y10285000D02*
X16115000D01*
X16285000D02*
X16325000D01*
X16285000Y10350000D02*
X16325000D01*
X16285000Y10415000D02*
X16325000D01*
X16075000Y10015000D02*
X16115000D01*
X16075000Y9950000D02*
X16115000D01*
X16075000Y9885000D02*
X16115000D01*
X16285000D02*
X16325000D01*
X16285000Y9950000D02*
X16325000D01*
X16285000Y10015000D02*
X16325000D01*
X16075000Y9615000D02*
X16115000D01*
X16075000Y9550000D02*
X16115000D01*
X16075000Y9485000D02*
X16115000D01*
X16285000D02*
X16325000D01*
X16285000Y9550000D02*
X16325000D01*
X16285000Y9615000D02*
X16325000D01*
X15175000Y10015000D02*
X15215000D01*
X15175000Y9950000D02*
X15215000D01*
X15175000Y9885000D02*
X15215000D01*
X15385000D02*
X15425000D01*
X15385000Y9950000D02*
X15425000D01*
X15385000Y10015000D02*
X15425000D01*
X19235000Y12855000D02*
X19195000D01*
X19235000Y12920000D02*
X19195000D01*
X19235000Y12985000D02*
X19195000D01*
X19025000D02*
X18985000D01*
X19025000Y12920000D02*
X18985000D01*
X19025000Y12855000D02*
X18985000D01*
G54D37*
X17805000Y9957500D02*
X17905000D01*
X17805000Y9892500D02*
X17905000D01*
X17805000Y9827500D02*
X17905000D01*
X17805000Y9762500D02*
X17905000D01*
X17805000Y9697500D02*
X17905000D01*
X17805000Y9632500D02*
X17905000D01*
X17805000Y9567500D02*
X17905000D01*
X17805000Y9502500D02*
X17905000D01*
X17805000Y9437500D02*
X17905000D01*
X17805000Y9372500D02*
X17905000D01*
X17805000Y9307500D02*
X17905000D01*
X17805000Y9242500D02*
X17905000D01*
X18395000D02*
X18495000D01*
X18395000Y9307500D02*
X18495000D01*
X18395000Y9372500D02*
X18495000D01*
X18395000Y9437500D02*
X18495000D01*
X18395000Y9502500D02*
X18495000D01*
X18395000Y9567500D02*
X18495000D01*
X18395000Y9632500D02*
X18495000D01*
X18395000Y9697500D02*
X18495000D01*
X18395000Y9762500D02*
X18495000D01*
X18395000Y9827500D02*
X18495000D01*
X18395000Y9892500D02*
X18495000D01*
X18395000Y9957500D02*
X18495000D01*
G54D44*
X16680000Y11567500D02*
Y11692500D01*
X16720000Y11567500D02*
Y11692500D01*
X16760000Y11567500D02*
Y11692500D01*
X16800000Y11567500D02*
Y11692500D01*
X16840000Y11567500D02*
Y11692500D01*
X16880000Y11567500D02*
Y11692500D01*
X16920000Y11567500D02*
Y11692500D01*
X16960000Y11567500D02*
Y11692500D01*
X17000000Y11567500D02*
Y11692500D01*
X17040000Y11567500D02*
Y11692500D01*
X17080000Y11567500D02*
Y11692500D01*
X17120000Y11567500D02*
Y11692500D01*
X17160000Y11567500D02*
Y11692500D01*
X17200000Y11567500D02*
Y11692500D01*
X17240000Y11567500D02*
Y11692500D01*
X17280000Y11567500D02*
Y11692500D01*
X17320000Y11567500D02*
Y11692500D01*
X17360000Y11567500D02*
Y11692500D01*
X17400000Y11567500D02*
Y11692500D01*
X17440000Y11567500D02*
Y11692500D01*
X17480000Y11567500D02*
Y11692500D01*
X17520000Y11567500D02*
Y11692500D01*
X17560000Y11567500D02*
Y11692500D01*
X17600000Y11567500D02*
Y11692500D01*
X17640000Y11567500D02*
Y11692500D01*
X17680000Y11567500D02*
Y11692500D01*
X17720000Y11567500D02*
Y11692500D01*
X17760000Y11567500D02*
Y11692500D01*
X17800000Y11567500D02*
Y11692500D01*
X17840000Y11567500D02*
Y11692500D01*
X17880000Y11567500D02*
Y11692500D01*
X17920000Y11567500D02*
Y11692500D01*
X18132500Y11780000D02*
X18007500D01*
X18132500Y11820000D02*
X18007500D01*
X18132500Y11860000D02*
X18007500D01*
X18132500Y11900000D02*
X18007500D01*
X18132500Y11940000D02*
X18007500D01*
X18132500Y11980000D02*
X18007500D01*
X18132500Y12020000D02*
X18007500D01*
X18132500Y12060000D02*
X18007500D01*
X18132500Y12100000D02*
X18007500D01*
X18132500Y12140000D02*
X18007500D01*
X18132500Y12180000D02*
X18007500D01*
X18132500Y12220000D02*
X18007500D01*
X18132500Y12260000D02*
X18007500D01*
X18132500Y12300000D02*
X18007500D01*
X18132500Y12340000D02*
X18007500D01*
X18132500Y12380000D02*
X18007500D01*
X18132500Y12420000D02*
X18007500D01*
X18132500Y12460000D02*
X18007500D01*
X18132500Y12500000D02*
X18007500D01*
X18132500Y12540000D02*
X18007500D01*
X18132500Y12580000D02*
X18007500D01*
X18132500Y12620000D02*
X18007500D01*
X18132500Y12660000D02*
X18007500D01*
X18132500Y12700000D02*
X18007500D01*
X18132500Y12740000D02*
X18007500D01*
X18132500Y12780000D02*
X18007500D01*
X18132500Y12820000D02*
X18007500D01*
X18132500Y12860000D02*
X18007500D01*
X18132500Y12900000D02*
X18007500D01*
X18132500Y12940000D02*
X18007500D01*
X18132500Y12980000D02*
X18007500D01*
X18132500Y13020000D02*
X18007500D01*
X17920000Y13107500D02*
Y13232500D01*
X17880000Y13107500D02*
Y13232500D01*
X17840000Y13107500D02*
Y13232500D01*
X17800000Y13107500D02*
Y13232500D01*
X17760000Y13107500D02*
Y13232500D01*
X17720000Y13107500D02*
Y13232500D01*
X17680000Y13107500D02*
Y13232500D01*
X17640000Y13107500D02*
Y13232500D01*
X17600000Y13107500D02*
Y13232500D01*
X17560000Y13107500D02*
Y13232500D01*
X17520000Y13107500D02*
Y13232500D01*
X17480000Y13107500D02*
Y13232500D01*
X17440000Y13107500D02*
Y13232500D01*
X17400000Y13107500D02*
Y13232500D01*
X17360000Y13107500D02*
Y13232500D01*
X17320000Y13107500D02*
Y13232500D01*
X17280000Y13107500D02*
Y13232500D01*
X17240000Y13107500D02*
Y13232500D01*
X17200000Y13107500D02*
Y13232500D01*
X17160000Y13107500D02*
Y13232500D01*
X17120000Y13107500D02*
Y13232500D01*
X17080000Y13107500D02*
Y13232500D01*
X17040000Y13107500D02*
Y13232500D01*
X17000000Y13107500D02*
Y13232500D01*
X16960000Y13107500D02*
Y13232500D01*
X16920000Y13107500D02*
Y13232500D01*
X16880000Y13107500D02*
Y13232500D01*
X16840000Y13107500D02*
Y13232500D01*
X16800000Y13107500D02*
Y13232500D01*
X16760000Y13107500D02*
Y13232500D01*
X16720000Y13107500D02*
Y13232500D01*
X16680000Y13107500D02*
Y13232500D01*
X16592500Y13020000D02*
X16467500D01*
X16592500Y12980000D02*
X16467500D01*
X16592500Y12940000D02*
X16467500D01*
X16592500Y12900000D02*
X16467500D01*
X16592500Y12860000D02*
X16467500D01*
X16592500Y12820000D02*
X16467500D01*
X16592500Y12780000D02*
X16467500D01*
X16592500Y12740000D02*
X16467500D01*
X16592500Y12700000D02*
X16467500D01*
X16592500Y12660000D02*
X16467500D01*
X16592500Y12620000D02*
X16467500D01*
X16592500Y12580000D02*
X16467500D01*
X16592500Y12540000D02*
X16467500D01*
X16592500Y12500000D02*
X16467500D01*
X16592500Y12460000D02*
X16467500D01*
X16592500Y12420000D02*
X16467500D01*
X16592500Y12380000D02*
X16467500D01*
X16592500Y12340000D02*
X16467500D01*
X16592500Y12300000D02*
X16467500D01*
X16592500Y12260000D02*
X16467500D01*
X16592500Y12220000D02*
X16467500D01*
X16592500Y12180000D02*
X16467500D01*
X16592500Y12140000D02*
X16467500D01*
X16592500Y12100000D02*
X16467500D01*
X16592500Y12060000D02*
X16467500D01*
X16592500Y12020000D02*
X16467500D01*
X16592500Y11980000D02*
X16467500D01*
X16592500Y11940000D02*
X16467500D01*
X16592500Y11900000D02*
X16467500D01*
X16592500Y11860000D02*
X16467500D01*
X16592500Y11820000D02*
X16467500D01*
X16592500Y11780000D02*
X16467500D01*
X0Y0D02*
M02*
