*
*
G04 PADS Layout (Build Number 2008.43.1) generated Gerber (RS-274-X) file*
G04 PC Version=2.1*
*
%IN "XPCB-010.pcb"*%
*
%MOMM*%
*
%FSLAX35Y35*%
*
*
*
*
G04 PC Standard Apertures*
*
*
G04 Thermal Relief Aperture macro.*
%AMTER*
1,1,$1,0,0*
1,0,$1-$2,0,0*
21,0,$3,$4,0,0,45*
21,0,$3,$4,0,0,135*
%
*
*
G04 Annular Aperture macro.*
%AMANN*
1,1,$1,0,0*
1,0,$2,0,0*
%
*
*
G04 Odd Aperture macro.*
%AMODD*
1,1,$1,0,0*
1,0,$1-0.005,0,0*
%
*
*
G04 PC Custom Aperture Macros*
*
*
*
*
*
*
G04 PC Aperture Table*
*
%ADD012C,0.0254*%
%ADD015C,0.15*%
%ADD027C,0.1*%
*
*
*
*
G04 PC Circuitry*
G04 Layer Name XPCB-010.pcb - circuitry*
%LPD*%
*
*
G04 PC Custom Flashes*
G04 Layer Name XPCB-010.pcb - flashes*
%LPD*%
*
*
G04 PC Circuitry*
G04 Layer Name XPCB-010.pcb - circuitry*
%LPD*%
*
G54D12*
G54D15*
G01X13907500Y8028906D02*
Y7907500D01*
Y8028906D02*
X13939318D01*
X13952955Y8023125*
X13952955D02*
X13962045Y8011563D01*
X13962045D02*
X13966591Y8000000D01*
X13971136Y7982656*
Y7953750*
X13966591Y7936406*
X13962045Y7924844*
X13962045D02*
X13952955Y7913281D01*
X13952955D02*
X13939318Y7907500D01*
X13907500*
X14012045Y8028906D02*
Y7907500D01*
Y8028906D02*
X14052955D01*
X14052955D02*
X14066591Y8023125D01*
X14071136Y8017344*
X14075682Y8005781*
Y7994219*
X14071136Y7982656*
X14066591Y7976875*
X14052955Y7971094*
X14052955D02*
X14012045D01*
X14043864D02*
X14075682Y7907500D01*
X14116591Y8028906D02*
Y7907500D01*
X14157500Y8028906D02*
Y7907500D01*
X14212045*
X14252955Y8028906D02*
Y7907500D01*
X14252955D02*
X14307500D01*
X14452955Y8028906D02*
Y7907500D01*
Y8028906D02*
X14484773D01*
X14498409Y8023125*
X14507500Y8011563*
X14507500D02*
X14512045Y8000000D01*
X14512045D02*
X14516591Y7982656D01*
Y7953750*
X14512045Y7936406*
X14512045D02*
X14507500Y7924844D01*
X14498409Y7913281*
X14484773Y7907500*
X14452955*
X14557500Y8028906D02*
Y7907500D01*
Y8028906D02*
X14598409D01*
X14612045Y8023125*
X14612045D02*
X14616591Y8017344D01*
X14621136Y8005781*
Y7994219*
X14616591Y7982656*
X14612045Y7976875*
X14612045D02*
X14598409Y7971094D01*
X14557500*
X14589318D02*
X14621136Y7907500D01*
X14698409Y8028906D02*
X14662045Y7907500D01*
X14698409Y8028906D02*
X14734773Y7907500D01*
X14675682Y7947969D02*
X14721136D01*
X14775682Y8028906D02*
X14798409Y7907500D01*
X14821136Y8028906D02*
X14798409Y7907500D01*
X14821136Y8028906D02*
X14843864Y7907500D01*
X14866591Y8028906D02*
X14843864Y7907500D01*
X14907500Y8028906D02*
Y7907500D01*
X14948409Y8028906D02*
Y7907500D01*
Y8028906D02*
X15012045Y7907500D01*
Y8028906D02*
Y7907500D01*
X15121136Y8000000D02*
X15116591Y8011563D01*
X15116591D02*
X15107500Y8023125D01*
X15098409Y8028906*
X15080227*
X15071136Y8023125*
X15062045Y8011563*
X15062045D02*
X15057500Y8000000D01*
X15052955Y7982656*
X15052955D02*
Y7953750D01*
X15052955D02*
X15057500Y7936406D01*
X15062045Y7924844*
X15062045D02*
X15071136Y7913281D01*
X15080227Y7907500*
X15098409*
X15107500Y7913281*
X15116591Y7924844*
X15121136Y7936406*
Y7953750*
X15098409D02*
X15121136D01*
X13007500Y8028906D02*
Y7907500D01*
X13062045*
X13139318Y8028906D02*
X13102955Y7907500D01*
X13139318Y8028906D02*
X13175682Y7907500D01*
X13116591Y7947969D02*
X13162045D01*
X13216591Y8028906D02*
X13252955Y7971094D01*
X13252955D02*
Y7907500D01*
X13289318Y8028906D02*
X13252955Y7971094D01*
X13330227Y8028906D02*
Y7907500D01*
Y8028906D02*
X13389318D01*
X13330227Y7971094D02*
X13366591D01*
X13330227Y7907500D02*
X13389318D01*
X13430227Y8028906D02*
Y7907500D01*
Y8028906D02*
X13471136D01*
X13484773Y8023125*
X13489318Y8017344*
X13493864Y8005781*
Y7994219*
X13489318Y7982656*
X13484773Y7976875*
X13471136Y7971094*
X13430227*
X13462045D02*
X13493864Y7907500D01*
X13639318Y7959531D02*
X13721136D01*
X13007500Y8228906D02*
X13071136Y8107500D01*
Y8228906D02*
X13007500Y8107500D01*
X13112045Y8228906D02*
Y8107500D01*
Y8228906D02*
X13148409Y8107500D01*
X13184773Y8228906D02*
X13148409Y8107500D01*
X13184773Y8228906D02*
Y8107500D01*
X13252955Y8228906D02*
X13243864Y8223125D01*
X13234773Y8211563*
X13234773D02*
X13230227Y8200000D01*
X13225682Y8182656*
Y8153750*
X13230227Y8136406*
X13234773Y8124844*
X13243864Y8113281*
X13252955Y8107500*
X13252955D02*
X13271136D01*
X13280227Y8113281*
X13289318Y8124844*
X13293864Y8136406*
X13298409Y8153750*
Y8182656*
X13293864Y8200000*
X13289318Y8211563*
X13289318D02*
X13280227Y8223125D01*
X13271136Y8228906*
X13252955*
X13402955Y8211563D02*
X13393864Y8223125D01*
X13380227Y8228906*
X13362045*
X13362045D02*
X13348409Y8223125D01*
X13339318Y8211563*
X13339318D02*
Y8200000D01*
X13343864Y8188438*
X13343864D02*
X13348409Y8182656D01*
X13357500Y8176875*
X13384773Y8165313*
X13384773D02*
X13393864Y8159531D01*
X13398409Y8153750*
X13402955Y8142188*
X13402955D02*
Y8124844D01*
X13402955D02*
X13393864Y8113281D01*
X13380227Y8107500*
X13362045*
X13362045D02*
X13348409Y8113281D01*
X13339318Y8124844*
X13548409Y8228906D02*
X13612045Y8107500D01*
Y8228906D02*
X13548409Y8107500D01*
X13652955Y8228906D02*
Y8107500D01*
Y8228906D02*
X13693864D01*
X13707500Y8223125*
X13712045Y8217344*
X13712045D02*
X13716591Y8205781D01*
Y8188438*
X13716591D02*
X13712045Y8176875D01*
X13712045D02*
X13707500Y8171094D01*
X13693864Y8165313*
X13693864D02*
X13652955D01*
X13825682Y8200000D02*
X13821136Y8211563D01*
X13821136D02*
X13812045Y8223125D01*
X13812045D02*
X13802955Y8228906D01*
X13802955D02*
X13784773D01*
X13775682Y8223125*
X13766591Y8211563*
X13766591D02*
X13762045Y8200000D01*
X13762045D02*
X13757500Y8182656D01*
Y8153750*
X13762045Y8136406*
X13762045D02*
X13766591Y8124844D01*
X13775682Y8113281*
X13784773Y8107500*
X13802955*
X13802955D02*
X13812045Y8113281D01*
X13812045D02*
X13821136Y8124844D01*
X13825682Y8136406*
X13866591Y8228906D02*
Y8107500D01*
Y8228906D02*
X13907500D01*
X13921136Y8223125*
X13925682Y8217344*
X13930227Y8205781*
Y8194219*
X13925682Y8182656*
X13921136Y8176875*
X13907500Y8171094*
X13866591D02*
X13907500D01*
X13921136Y8165313*
X13921136D02*
X13925682Y8159531D01*
X13930227Y8147969*
Y8130625*
X13925682Y8119063*
X13925682D02*
X13921136Y8113281D01*
X13907500Y8107500*
X13866591*
X13971136Y8159531D02*
X14052955D01*
X14121136Y8228906D02*
X14107500Y8223125D01*
X14098409Y8205781*
X14093864Y8176875*
Y8159531*
X14098409Y8130625*
X14107500Y8113281*
X14121136Y8107500*
X14130227*
X14143864Y8113281*
X14152955Y8130625*
X14152955D02*
X14157500Y8159531D01*
Y8176875*
X14152955Y8205781*
X14152955D02*
X14143864Y8223125D01*
X14130227Y8228906*
X14121136*
X14198409Y8205781D02*
X14207500Y8211563D01*
X14207500D02*
X14221136Y8228906D01*
Y8107500*
X14289318Y8228906D02*
X14275682Y8223125D01*
X14266591Y8205781*
X14262045Y8176875*
X14262045D02*
Y8159531D01*
X14262045D02*
X14266591Y8130625D01*
X14275682Y8113281*
X14289318Y8107500*
X14298409*
X14312045Y8113281*
X14312045D02*
X14321136Y8130625D01*
X14325682Y8159531*
Y8176875*
X14321136Y8205781*
X14312045Y8223125*
X14312045D02*
X14298409Y8228906D01*
X14289318*
X14471136Y8205781D02*
X14480227Y8211563D01*
X14480227D02*
X14493864Y8228906D01*
Y8107500*
X14598409Y8228906D02*
X14552955Y8107500D01*
X14534773Y8228906D02*
X14598409D01*
X14721136Y8252031D02*
X14639318Y8067031D01*
X14789318Y8228906D02*
X14775682Y8223125D01*
X14766591Y8205781*
X14762045Y8176875*
X14762045D02*
Y8159531D01*
X14762045D02*
X14766591Y8130625D01*
X14775682Y8113281*
X14789318Y8107500*
X14798409*
X14812045Y8113281*
X14812045D02*
X14821136Y8130625D01*
X14825682Y8159531*
Y8176875*
X14821136Y8205781*
X14812045Y8223125*
X14812045D02*
X14798409Y8228906D01*
X14789318*
X14875682D02*
X14925682D01*
X14898409Y8182656*
X14912045*
X14912045D02*
X14921136Y8176875D01*
X14925682Y8171094*
X14930227Y8153750*
Y8142188*
X14930227D02*
X14925682Y8124844D01*
X14916591Y8113281*
X14902955Y8107500*
X14902955D02*
X14889318D01*
X14875682Y8113281*
X14871136Y8119063*
X14871136D02*
X14866591Y8130625D01*
X15052955Y8252031D02*
X14971136Y8067031D01*
X15121136Y8228906D02*
X15107500Y8223125D01*
X15098409Y8205781*
X15093864Y8176875*
Y8159531*
X15098409Y8130625*
X15107500Y8113281*
X15121136Y8107500*
X15130227*
X15143864Y8113281*
X15152955Y8130625*
X15152955D02*
X15157500Y8159531D01*
Y8176875*
X15152955Y8205781*
X15152955D02*
X15143864Y8223125D01*
X15130227Y8228906*
X15121136*
X15257500Y8188438D02*
X15252955Y8171094D01*
X15252955D02*
X15243864Y8159531D01*
X15230227Y8153750*
X15225682*
X15212045Y8159531*
X15212045D02*
X15202955Y8171094D01*
X15202955D02*
X15198409Y8188438D01*
X15198409D02*
Y8194219D01*
X15202955Y8211563*
X15202955D02*
X15212045Y8223125D01*
X15212045D02*
X15225682Y8228906D01*
X15230227*
X15243864Y8223125*
X15252955Y8211563*
X15252955D02*
X15257500Y8188438D01*
X15257500D02*
Y8159531D01*
X15252955Y8130625*
X15252955D02*
X15243864Y8113281D01*
X15230227Y8107500*
X15221136*
X15207500Y8113281*
X15202955Y8124844*
X15000000Y7000000D02*
X19400000D01*
X15000000Y6600000D02*
X19400000D01*
X15000000Y6200000D02*
X19400000D01*
X15000000Y5800000D02*
X19400000D01*
X15000000Y5400000D02*
X19400000D01*
X15000000Y5000000D02*
X19400000D01*
X15000000Y4600000D02*
X19400000D01*
X15000000Y4200000D02*
X19400000D01*
X15000000Y3800000D02*
X19400000D01*
X15000000Y3400000D02*
X19400000D01*
X15000000Y3000000D02*
X19400000D01*
X15000000Y7000000D02*
Y3000000D01*
X16400000Y7000000D02*
Y3000000D01*
X17000000Y7000000D02*
Y3000000D01*
X17600000Y7000000D02*
Y3000000D01*
X18500000Y7000000D02*
Y3000000D01*
X19400000Y7000000D02*
Y3000000D01*
G54D27*
X20770000Y13354000D02*
X20830000D01*
X20800000Y13324000D02*
Y13384000D01*
X20835455Y13399000D02*
X20834091Y13402750D01*
X20831364Y13406500*
X20828636Y13408375*
X20823182*
X20820455Y13406500*
X20820455D02*
X20817727Y13402750D01*
X20816364Y13399000*
X20815000Y13393375*
Y13384000*
X20816364Y13378375*
X20817727Y13374625*
X20820455Y13370875*
X20820455D02*
X20823182Y13369000D01*
X20828636*
X20831364Y13370875*
X20834091Y13374625*
X20835455Y13378375*
X20770000Y13100000D02*
X20830000D01*
X20800000Y13070000D02*
Y13130000D01*
X20835455Y13145000D02*
X20834091Y13148750D01*
X20831364Y13152500*
X20828636Y13154375*
X20823182*
X20820455Y13152500*
X20820455D02*
X20817727Y13148750D01*
X20816364Y13145000*
X20815000Y13139375*
Y13130000*
X20816364Y13124375*
X20817727Y13120625*
X20820455Y13116875*
X20820455D02*
X20823182Y13115000D01*
X20828636*
X20831364Y13116875*
X20834091Y13120625*
X20835455Y13124375*
X20770000Y12846000D02*
X20830000D01*
X20800000Y12816000D02*
Y12876000D01*
X20835455Y12891000D02*
X20834091Y12894750D01*
X20831364Y12898500*
X20828636Y12900375*
X20823182*
X20820455Y12898500*
X20820455D02*
X20817727Y12894750D01*
X20816364Y12891000*
X20815000Y12885375*
Y12876000*
X20816364Y12870375*
X20817727Y12866625*
X20820455Y12862875*
X20820455D02*
X20823182Y12861000D01*
X20828636*
X20831364Y12862875*
X20834091Y12866625*
X20835455Y12870375*
X21032500Y12846000D02*
X21092500D01*
X21062500Y12816000D02*
Y12876000D01*
X21077500Y12900375D02*
Y12861000D01*
Y12900375D02*
X21089773D01*
X21093864Y12898500*
X21095227Y12896625*
X21096591Y12892875*
Y12889125*
X21095227Y12885375*
X21093864Y12883500*
X21089773Y12881625*
X21077500D02*
X21089773D01*
X21093864Y12879750*
X21095227Y12877875*
X21096591Y12874125*
Y12868500*
X21095227Y12864750*
X21093864Y12862875*
X21089773Y12861000*
X21077500*
X21032500Y13354000D02*
X21092500D01*
X21062500Y13324000D02*
Y13384000D01*
X21077500Y13408375D02*
Y13369000D01*
Y13408375D02*
X21089773D01*
X21093864Y13406500*
X21095227Y13404625*
X21096591Y13400875*
Y13397125*
X21095227Y13393375*
X21093864Y13391500*
X21089773Y13389625*
X21077500D02*
X21089773D01*
X21093864Y13387750*
X21095227Y13385875*
X21096591Y13382125*
Y13376500*
X21095227Y13372750*
X21093864Y13370875*
X21089773Y13369000*
X21077500*
X21294000Y12790000D02*
X21354000Y12850000D01*
Y12790000*
X21294000Y12850000*
Y12790000*
Y13350000D02*
X21354000Y13410000D01*
Y13350000*
X21294000Y13410000*
Y13350000*
X14070000Y11575000D02*
X14130000D01*
X14100000Y11545000D02*
Y11605000D01*
X14125909Y11629375D02*
X14115000Y11590000D01*
X14125909Y11629375D02*
X14136818Y11590000D01*
X14119091Y11603125D02*
X14132727D01*
X14070000Y11825000D02*
X14130000D01*
X14100000Y11795000D02*
Y11855000D01*
X14125909Y11879375D02*
X14115000Y11840000D01*
X14125909Y11879375D02*
X14136818Y11840000D01*
X14119091Y11853125D02*
X14132727D01*
X13870000Y11825000D02*
X13930000D01*
X13900000Y11795000D02*
Y11855000D01*
X13925909Y11879375D02*
X13915000Y11840000D01*
X13925909Y11879375D02*
X13936818Y11840000D01*
X13919091Y11853125D02*
X13932727D01*
X13870000Y11575000D02*
X13930000D01*
X13900000Y11545000D02*
Y11605000D01*
X13925909Y11629375D02*
X13915000Y11590000D01*
X13925909Y11629375D02*
X13936818Y11590000D01*
X13919091Y11603125D02*
X13932727D01*
X13629000Y12270000D02*
X13659000Y12300000D01*
X13629000Y12330000*
X13599000Y12300000*
X13629000Y12270000*
Y12300000D02*
Y12330000D01*
Y11070000D02*
X13659000Y11100000D01*
X13629000Y11130000*
X13599000Y11100000*
X13629000Y11070000*
Y11100000D02*
Y11130000D01*
X13290000Y14050000D02*
X13350000D01*
Y14110000*
X13290000*
Y14050000*
X13320000Y14080000D02*
Y14110000D01*
X13290000Y9290000D02*
X13350000D01*
Y9350000*
X13290000*
Y9290000*
X13320000Y9320000D02*
Y9350000D01*
X21250000Y9290000D02*
X21310000D01*
Y9350000*
X21250000*
Y9290000*
X21280000Y9320000D02*
Y9350000D01*
X21250000Y14050000D02*
X21310000D01*
Y14110000*
X21250000*
Y14050000*
X21280000Y14080000D02*
Y14110000D01*
X21270000Y10270000D02*
X21330000Y10330000D01*
Y10270000*
X21270000Y10330000*
Y10270000*
X20570000D02*
X20630000Y10330000D01*
Y10270000*
X20570000Y10330000*
Y10270000*
X21270000Y11670000D02*
X21330000Y11730000D01*
Y11670000*
X21270000Y11730000*
Y11670000*
X20570000D02*
X20630000Y11730000D01*
Y11670000*
X20570000Y11730000*
Y11670000*
X15026000Y9320000D02*
X15086000Y9380000D01*
X15026000D02*
X15086000Y9320000D01*
X15514000D02*
X15574000Y9380000D01*
X15514000D02*
X15574000Y9320000D01*
X15026000Y10520000D02*
X15086000Y10580000D01*
X15026000D02*
X15086000Y10520000D01*
X15514000D02*
X15574000Y10580000D01*
X15514000D02*
X15574000Y10520000D01*
X16127000Y13743000D02*
X16187000D01*
X16127000Y13803000*
X16187000*
X16127000Y13743000*
Y13997000D02*
X16187000D01*
X16127000Y14057000*
X16187000*
X16127000Y13997000*
X16381000Y13743000D02*
X16441000D01*
X16381000Y13803000*
X16441000*
X16381000Y13743000*
Y13997000D02*
X16441000D01*
X16381000Y14057000*
X16441000*
X16381000Y13997000*
X16635000Y13743000D02*
X16695000D01*
X16635000Y13803000*
X16695000*
X16635000Y13743000*
Y13997000D02*
X16695000D01*
X16635000Y14057000*
X16695000*
X16635000Y13997000*
X16889000Y13743000D02*
X16949000D01*
X16889000Y13803000*
X16949000*
X16889000Y13743000*
Y13997000D02*
X16949000D01*
X16889000Y14057000*
X16949000*
X16889000Y13997000*
X17143000Y13743000D02*
X17203000D01*
X17143000Y13803000*
X17203000*
X17143000Y13743000*
Y13997000D02*
X17203000D01*
X17143000Y14057000*
X17203000*
X17143000Y13997000*
X17397000Y13743000D02*
X17457000D01*
X17397000Y13803000*
X17457000*
X17397000Y13743000*
Y13997000D02*
X17457000D01*
X17397000Y14057000*
X17457000*
X17397000Y13997000*
X17651000Y13743000D02*
X17711000D01*
X17651000Y13803000*
X17711000*
X17651000Y13743000*
Y13997000D02*
X17711000D01*
X17651000Y14057000*
X17711000*
X17651000Y13997000*
X17905000Y13743000D02*
X17965000D01*
X17905000Y13803000*
X17965000*
X17905000Y13743000*
Y13997000D02*
X17965000D01*
X17905000Y14057000*
X17965000*
X17905000Y13997000*
X18159000Y13743000D02*
X18219000D01*
X18159000Y13803000*
X18219000*
X18159000Y13743000*
Y13997000D02*
X18219000D01*
X18159000Y14057000*
X18219000*
X18159000Y13997000*
X18413000Y13743000D02*
X18473000D01*
X18413000Y13803000*
X18473000*
X18413000Y13743000*
Y13997000D02*
X18473000D01*
X18413000Y14057000*
X18473000*
X18413000Y13997000*
X17178500Y9431500D02*
X17238500D01*
X17178500Y9491500*
X17238500*
X17178500Y9431500*
X20320000Y12770000D02*
X20380000D01*
X20320000Y12830000*
X20380000*
X20320000Y12770000*
X17178500Y10447500D02*
X17238500D01*
X17178500Y10507500*
X17238500*
X17178500Y10447500*
Y9685500D02*
X17238500D01*
X17178500Y9745500*
X17238500*
X17178500Y9685500*
Y10193500D02*
X17238500D01*
X17178500Y10253500*
X17238500*
X17178500Y10193500*
Y9939500D02*
X17238500D01*
X17178500Y9999500*
X17238500*
X17178500Y9939500*
X16924500Y9177500D02*
X16984500D01*
X16924500Y9237500*
X16984500*
X16924500Y9177500*
X17178500D02*
X17238500D01*
X17178500Y9237500*
X17238500*
X17178500Y9177500*
X19147000Y11273000D02*
X19207000D01*
X19147000Y11333000*
X19207000*
X19147000Y11273000*
X17178500Y10701500D02*
X17238500D01*
X17178500Y10761500*
X17238500*
X17178500Y10701500*
X19147000Y11527000D02*
X19207000D01*
X19147000Y11587000*
X19207000*
X19147000Y11527000*
Y11781000D02*
X19207000D01*
X19147000Y11841000*
X19207000*
X19147000Y11781000*
Y12035000D02*
X19207000D01*
X19147000Y12095000*
X19207000*
X19147000Y12035000*
Y12289000D02*
X19207000D01*
X19147000Y12349000*
X19207000*
X19147000Y12289000*
X16226000Y11209500D02*
X16286000D01*
X16226000Y11269500*
X16286000*
X16226000Y11209500*
X15337000Y14130500D02*
X15397000D01*
X15337000Y14190500*
X15397000*
X15337000Y14130500*
Y13876500D02*
X15397000D01*
X15337000Y13936500*
X15397000*
X15337000Y13876500*
X18639000Y10828500D02*
X18699000D01*
X18639000Y10888500*
X18699000*
X18639000Y10828500*
X14570000Y9120000D02*
X14630000D01*
X14600000Y9090000D02*
Y9150000D01*
X16180000Y9120000D02*
X16240000D01*
X16210000Y9090000D02*
Y9150000D01*
X18240000Y9140000D02*
X18300000D01*
X18270000Y9110000D02*
Y9170000D01*
X13150000Y11010000D02*
X13210000D01*
X13180000Y10980000D02*
Y11040000D01*
X14050000Y10910000D02*
X14110000D01*
X14080000Y10880000D02*
Y10940000D01*
X14150000Y11010000D02*
X14210000D01*
X14180000Y10980000D02*
Y11040000D01*
X13820000Y9250000D02*
X13880000D01*
X13850000Y9220000D02*
Y9280000D01*
X13900000Y9910000D02*
X13960000D01*
X13930000Y9880000D02*
Y9940000D01*
X13410000Y10330000D02*
X13470000D01*
X13440000Y10300000D02*
Y10360000D01*
X14370000Y10960000D02*
X14430000D01*
X14400000Y10930000D02*
Y10990000D01*
X13840000Y10800000D02*
X13900000D01*
X13870000Y10770000D02*
Y10830000D01*
X15080000Y9950000D02*
X15140000D01*
X15110000Y9920000D02*
Y9980000D01*
X14300000Y9320000D02*
X14360000D01*
X14330000Y9290000D02*
Y9350000D01*
X14300000Y10120000D02*
X14360000D01*
X14330000Y10090000D02*
Y10150000D01*
X14300000Y9720000D02*
X14360000D01*
X14330000Y9690000D02*
Y9750000D01*
X14740000Y9600000D02*
X14800000D01*
X14770000Y9570000D02*
Y9630000D01*
X14740000Y10300000D02*
X14800000D01*
X14770000Y10270000D02*
Y10330000D01*
X13650000Y9650000D02*
X13710000D01*
X13680000Y9620000D02*
Y9680000D01*
X13910000Y9430000D02*
X13970000D01*
X13940000Y9400000D02*
Y9460000D01*
X13520000Y10470000D02*
X13580000D01*
X13550000Y10440000D02*
Y10500000D01*
X16960000Y10830000D02*
X17020000D01*
X16990000Y10800000D02*
Y10860000D01*
X16840000Y10710000D02*
X16900000D01*
X16870000Y10680000D02*
Y10740000D01*
X16700000Y9700000D02*
X16760000D01*
X16730000Y9670000D02*
Y9730000D01*
X16550000Y10970000D02*
X16610000D01*
X16580000Y10940000D02*
Y11000000D01*
X16990000Y11030000D02*
X17050000D01*
X17020000Y11000000D02*
Y11060000D01*
X16430000Y11090000D02*
X16490000D01*
X16460000Y11060000D02*
Y11120000D01*
X16630000Y10760000D02*
X16690000D01*
X16660000Y10730000D02*
Y10790000D01*
X16860000Y10970000D02*
X16920000D01*
X16890000Y10940000D02*
Y11000000D01*
X16820000Y9450000D02*
X16880000D01*
X16850000Y9420000D02*
Y9480000D01*
X16620000Y10190000D02*
X16680000D01*
X16650000Y10160000D02*
Y10220000D01*
X16770000Y10190000D02*
X16830000D01*
X16800000Y10160000D02*
Y10220000D01*
X16770000Y9880000D02*
X16830000D01*
X16800000Y9850000D02*
Y9910000D01*
X16770000Y10550000D02*
X16830000D01*
X16800000Y10520000D02*
Y10580000D01*
X17220000Y11150000D02*
X17280000D01*
X17250000Y11120000D02*
Y11180000D01*
X16000000Y10570000D02*
X16060000D01*
X16030000Y10540000D02*
Y10600000D01*
X15890000Y10030000D02*
X15950000D01*
X15920000Y10000000D02*
Y10060000D01*
X16600000Y9850000D02*
X16660000D01*
X16630000Y9820000D02*
Y9880000D01*
X16690000Y9550000D02*
X16750000D01*
X16720000Y9520000D02*
Y9580000D01*
X15980000Y9950000D02*
X16040000D01*
X16010000Y9920000D02*
Y9980000D01*
X15980000Y10350000D02*
X16040000D01*
X16010000Y10320000D02*
Y10380000D01*
X15980000Y9550000D02*
X16040000D01*
X16010000Y9520000D02*
Y9580000D01*
X15800000Y9600000D02*
X15860000D01*
X15830000Y9570000D02*
Y9630000D01*
X15800000Y10300000D02*
X15860000D01*
X15830000Y10270000D02*
Y10330000D01*
X16560000Y11090000D02*
X16620000D01*
X16590000Y11060000D02*
Y11120000D01*
X16930000Y11090000D02*
X16990000D01*
X16960000Y11060000D02*
Y11120000D01*
X17010000Y10560000D02*
X17070000D01*
X17040000Y10530000D02*
Y10590000D01*
X16730000Y11160000D02*
X16790000D01*
X16760000Y11130000D02*
Y11190000D01*
X16620000Y11160000D02*
X16680000D01*
X16650000Y11130000D02*
Y11190000D01*
X17060000Y10970000D02*
X17120000D01*
X17090000Y10940000D02*
Y11000000D01*
X16560000Y10700000D02*
X16620000D01*
X16590000Y10670000D02*
Y10730000D01*
X16290000Y9760000D02*
X16350000D01*
X16320000Y9730000D02*
Y9790000D01*
X15890000Y9870000D02*
X15950000D01*
X15920000Y9840000D02*
Y9900000D01*
X16500000Y10640000D02*
X16560000D01*
X16530000Y10610000D02*
Y10670000D01*
X17030000Y10770000D02*
X17090000D01*
X17060000Y10740000D02*
Y10800000D01*
X16910000Y10650000D02*
X16970000D01*
X16940000Y10620000D02*
Y10680000D01*
X16770000Y10760000D02*
X16830000D01*
X16800000Y10730000D02*
Y10790000D01*
X16990000Y10910000D02*
X17050000D01*
X17020000Y10880000D02*
Y10940000D01*
X17460000Y10700000D02*
X17520000D01*
X17490000Y10670000D02*
Y10730000D01*
X19260000Y9170000D02*
X19320000D01*
X19290000Y9140000D02*
Y9200000D01*
X18770000Y9980000D02*
X18830000D01*
X18800000Y9950000D02*
Y10010000D01*
X18540000Y9820000D02*
X18600000D01*
X18570000Y9790000D02*
Y9850000D01*
X18840000Y10060000D02*
X18900000D01*
X18870000Y10030000D02*
Y10090000D01*
X18540000Y9900000D02*
X18600000D01*
X18570000Y9870000D02*
Y9930000D01*
X17730000Y11100000D02*
X17790000D01*
X17760000Y11070000D02*
Y11130000D01*
X18030000Y11160000D02*
X18090000D01*
X18060000Y11130000D02*
Y11190000D01*
X17610000Y9160000D02*
X17670000D01*
X17640000Y9130000D02*
Y9190000D01*
X17350000Y9550000D02*
X17410000D01*
X17380000Y9520000D02*
Y9580000D01*
X17350000Y9700000D02*
X17410000D01*
X17380000Y9670000D02*
Y9730000D01*
X18340000Y10450000D02*
X18400000D01*
X18370000Y10420000D02*
Y10480000D01*
X17580000Y10550000D02*
X17640000D01*
X17610000Y10520000D02*
Y10580000D01*
X17740000Y10250000D02*
X17800000D01*
X17770000Y10220000D02*
Y10280000D01*
X18340000Y10150000D02*
X18400000D01*
X18370000Y10120000D02*
Y10180000D01*
X18340000Y10300000D02*
X18400000D01*
X18370000Y10270000D02*
Y10330000D01*
X17940000Y9630000D02*
X18000000D01*
X17970000Y9600000D02*
Y9660000D01*
X18300000Y9700000D02*
X18360000D01*
X18330000Y9670000D02*
Y9730000D01*
X18990000Y9860000D02*
X19050000D01*
X19020000Y9830000D02*
Y9890000D01*
X18990000Y9690000D02*
X19050000D01*
X19020000Y9660000D02*
Y9720000D01*
X18990000Y9520000D02*
X19050000D01*
X19020000Y9490000D02*
Y9550000D01*
X18990000Y9350000D02*
X19050000D01*
X19020000Y9320000D02*
Y9380000D01*
X18990000Y9180000D02*
X19050000D01*
X19020000Y9150000D02*
Y9210000D01*
X18750000Y10570000D02*
X18810000D01*
X18780000Y10540000D02*
Y10600000D01*
X17330000Y10700000D02*
X17390000D01*
X17360000Y10670000D02*
Y10730000D01*
Y10400000D02*
X17420000D01*
X17390000Y10370000D02*
Y10430000D01*
X17440000Y9190000D02*
X17500000D01*
X17470000Y9160000D02*
Y9220000D01*
X19480000Y9170000D02*
X19540000D01*
X19510000Y9140000D02*
Y9200000D01*
X19470000Y10100000D02*
X19530000D01*
X19500000Y10070000D02*
Y10130000D01*
X19470000Y10900000D02*
X19530000D01*
X19500000Y10870000D02*
Y10930000D01*
X20970000Y10300000D02*
X21030000D01*
X21000000Y10270000D02*
Y10330000D01*
X20270000Y10300000D02*
X20330000D01*
X20300000Y10270000D02*
Y10330000D01*
X19400000Y9720000D02*
X19460000D01*
X19430000Y9690000D02*
Y9750000D01*
X19350000Y10570000D02*
X19410000D01*
X19380000Y10540000D02*
Y10600000D01*
X21220000Y10670000D02*
X21280000D01*
X21250000Y10640000D02*
Y10700000D01*
X20200000Y9800000D02*
X20260000D01*
X20230000Y9770000D02*
Y9830000D01*
X20200000Y9600000D02*
X20260000D01*
X20230000Y9570000D02*
Y9630000D01*
X21240000Y11000000D02*
X21300000D01*
X21270000Y10970000D02*
Y11030000D01*
X20200000Y11000000D02*
X20260000D01*
X20230000Y10970000D02*
Y11030000D01*
X13150000Y12410000D02*
X13210000D01*
X13180000Y12380000D02*
Y12440000D01*
X14420000Y13120000D02*
X14480000D01*
X14450000Y13090000D02*
Y13150000D01*
X14670000Y12640000D02*
X14730000D01*
X14700000Y12610000D02*
Y12670000D01*
X14550000Y12520000D02*
X14610000D01*
X14580000Y12490000D02*
Y12550000D01*
X14700000Y13150000D02*
X14760000D01*
X14730000Y13120000D02*
Y13180000D01*
X14750000Y11700000D02*
X14810000D01*
X14780000Y11670000D02*
Y11730000D01*
X14910000Y12040000D02*
X14970000D01*
X14940000Y12010000D02*
Y12070000D01*
X15030000Y12040000D02*
X15090000D01*
X15060000Y12010000D02*
Y12070000D01*
X15030000Y12160000D02*
X15090000D01*
X15060000Y12130000D02*
Y12190000D01*
X14910000Y12160000D02*
X14970000D01*
X14940000Y12130000D02*
Y12190000D01*
X13920000Y12920000D02*
X13980000D01*
X13950000Y12890000D02*
Y12950000D01*
X14920000Y11350000D02*
X14980000D01*
X14950000Y11320000D02*
Y11380000D01*
X13840000Y12600000D02*
X13900000D01*
X13870000Y12570000D02*
Y12630000D01*
X14700000Y12560000D02*
X14760000D01*
X14730000Y12530000D02*
Y12590000D01*
X15170000Y12930000D02*
X15230000D01*
X15200000Y12900000D02*
Y12960000D01*
X14390000Y12500000D02*
X14450000D01*
X14420000Y12470000D02*
Y12530000D01*
X14390000Y12000000D02*
X14450000D01*
X14420000Y11970000D02*
Y12030000D01*
X13620000Y13070000D02*
X13680000D01*
X13650000Y13040000D02*
Y13100000D01*
X14650000Y12100000D02*
X14710000D01*
X14680000Y12070000D02*
Y12130000D01*
X13900000Y12000000D02*
X13960000D01*
X13930000Y11970000D02*
Y12030000D01*
X16730000Y11300000D02*
X16790000D01*
X16760000Y11270000D02*
Y11330000D01*
X15530000Y11300000D02*
X15590000D01*
X15560000Y11270000D02*
Y11330000D01*
X15860000Y13050000D02*
X15920000D01*
X15890000Y13020000D02*
Y13080000D01*
X15990000Y12800000D02*
X16050000D01*
X16020000Y12770000D02*
Y12830000D01*
X15970000Y12510000D02*
X16030000D01*
X16000000Y12480000D02*
Y12540000D01*
X15990000Y11640000D02*
X16050000D01*
X16020000Y11610000D02*
Y11670000D01*
X16340000Y11690000D02*
X16400000D01*
X16370000Y11660000D02*
Y11720000D01*
X16850000Y11830000D02*
X16910000D01*
X16880000Y11800000D02*
Y11860000D01*
X15800000Y12990000D02*
X15860000D01*
X15830000Y12960000D02*
Y13020000D01*
X15930000Y12740000D02*
X15990000D01*
X15960000Y12710000D02*
Y12770000D01*
X15930000Y12440000D02*
X15990000D01*
X15960000Y12410000D02*
Y12470000D01*
X15930000Y11700000D02*
X15990000D01*
X15960000Y11670000D02*
Y11730000D01*
X16420000Y11660000D02*
X16480000D01*
X16450000Y11630000D02*
Y11690000D01*
X16850000Y11750000D02*
X16910000D01*
X16880000Y11720000D02*
Y11780000D01*
X15450000Y12000000D02*
X15510000D01*
X15480000Y11970000D02*
Y12030000D01*
X15450000Y11700000D02*
X15510000D01*
X15480000Y11670000D02*
Y11730000D01*
X15390000Y12060000D02*
X15450000D01*
X15420000Y12030000D02*
Y12090000D01*
X15390000Y11760000D02*
X15450000D01*
X15420000Y11730000D02*
Y11790000D01*
X15450000Y12480000D02*
X15510000D01*
X15480000Y12450000D02*
Y12510000D01*
X15750000Y12480000D02*
X15810000D01*
X15780000Y12450000D02*
Y12510000D01*
X15870000Y12300000D02*
X15930000D01*
X15900000Y12270000D02*
Y12330000D01*
X15810000Y11700000D02*
X15870000D01*
X15840000Y11670000D02*
Y11730000D01*
X15810000Y12360000D02*
X15870000D01*
X15840000Y12330000D02*
Y12390000D01*
X15750000Y11640000D02*
X15810000D01*
X15780000Y11610000D02*
Y11670000D01*
X15570000Y12000000D02*
X15630000D01*
X15600000Y11970000D02*
Y12030000D01*
X15510000Y11640000D02*
X15570000D01*
X15540000Y11610000D02*
Y11670000D01*
X15270000Y11880000D02*
X15330000D01*
X15300000Y11850000D02*
Y11910000D01*
X15270000Y12060000D02*
X15330000D01*
X15300000Y12030000D02*
Y12090000D01*
X15330000Y12000000D02*
X15390000D01*
X15360000Y11970000D02*
Y12030000D01*
X15330000Y11820000D02*
X15390000D01*
X15360000Y11790000D02*
Y11850000D01*
X15220000Y12670000D02*
X15280000D01*
X15250000Y12640000D02*
Y12700000D01*
X15870000Y12670000D02*
X15930000D01*
X15900000Y12640000D02*
Y12700000D01*
X15930000Y12360000D02*
X15990000D01*
X15960000Y12330000D02*
Y12390000D01*
X15870000Y11640000D02*
X15930000D01*
X15900000Y11610000D02*
Y11670000D01*
X16480000Y11720000D02*
X16540000D01*
X16510000Y11690000D02*
Y11750000D01*
X16770000D02*
X16830000D01*
X16800000Y11720000D02*
Y11780000D01*
X15690000Y11700000D02*
X15750000D01*
X15720000Y11670000D02*
Y11730000D01*
X15750000Y12180000D02*
X15810000D01*
X15780000Y12150000D02*
Y12210000D01*
X15690000Y12120000D02*
X15750000D01*
X15720000Y12090000D02*
Y12150000D01*
X15630000Y11640000D02*
X15690000D01*
X15660000Y11610000D02*
Y11670000D01*
X15630000Y12060000D02*
X15690000D01*
X15660000Y12030000D02*
Y12090000D01*
X15570000Y11700000D02*
X15630000D01*
X15600000Y11670000D02*
Y11730000D01*
X15920000Y11450000D02*
X15980000D01*
X15950000Y11420000D02*
Y11480000D01*
X16420000Y11300000D02*
X16480000D01*
X16450000Y11270000D02*
Y11330000D01*
X15380000Y12880000D02*
X15440000D01*
X15410000Y12850000D02*
Y12910000D01*
X16970000Y11240000D02*
X17030000D01*
X17000000Y11210000D02*
Y11270000D01*
X16120000Y12080000D02*
X16180000D01*
X16150000Y12050000D02*
Y12110000D01*
X16110000Y12480000D02*
X16170000D01*
X16140000Y12450000D02*
Y12510000D01*
X16110000Y12880000D02*
X16170000D01*
X16140000Y12850000D02*
Y12910000D01*
X17120000Y12250000D02*
X17180000D01*
X17150000Y12220000D02*
Y12280000D01*
X17120000Y12550000D02*
X17180000D01*
X17150000Y12520000D02*
Y12580000D01*
X17120000Y12400000D02*
X17180000D01*
X17150000Y12370000D02*
Y12430000D01*
X15780000Y11200000D02*
X15840000D01*
X15810000Y11170000D02*
Y11230000D01*
X15260000Y12360000D02*
X15320000D01*
X15290000Y12330000D02*
Y12390000D01*
X16850000Y13050000D02*
X16910000D01*
X16880000Y13020000D02*
Y13080000D01*
X16970000Y13050000D02*
X17030000D01*
X17000000Y13020000D02*
Y13080000D01*
X16620000Y12260000D02*
X16680000D01*
X16650000Y12230000D02*
Y12290000D01*
X16620000Y12940000D02*
X16680000D01*
X16650000Y12910000D02*
Y12970000D01*
X16270000Y13000000D02*
X16330000D01*
X16300000Y12970000D02*
Y13030000D01*
X15570000Y12360000D02*
X15630000D01*
X15600000Y12330000D02*
Y12390000D01*
X16770000Y12100000D02*
X16830000D01*
X16800000Y12070000D02*
Y12130000D01*
X16620000Y12100000D02*
X16680000D01*
X16650000Y12070000D02*
Y12130000D01*
X16770000Y12460000D02*
X16830000D01*
X16800000Y12430000D02*
Y12490000D01*
X16620000Y12460000D02*
X16680000D01*
X16650000Y12430000D02*
Y12490000D01*
X16770000Y12900000D02*
X16830000D01*
X16800000Y12870000D02*
Y12930000D01*
X16770000Y13050000D02*
X16830000D01*
X16800000Y13020000D02*
Y13080000D01*
X16770000Y12780000D02*
X16830000D01*
X16800000Y12750000D02*
Y12810000D01*
X16620000Y12780000D02*
X16680000D01*
X16650000Y12750000D02*
Y12810000D01*
X17210000Y11900000D02*
X17270000D01*
X17240000Y11870000D02*
Y11930000D01*
X17210000Y11750000D02*
X17270000D01*
X17240000Y11720000D02*
Y11780000D01*
X15460000Y12200000D02*
X15520000D01*
X15490000Y12170000D02*
Y12230000D01*
X18760000Y12860000D02*
X18820000D01*
X18790000Y12830000D02*
Y12890000D01*
X18890000Y12860000D02*
X18950000D01*
X18920000Y12830000D02*
Y12890000D01*
X18760000Y11690000D02*
X18820000D01*
X18790000Y11660000D02*
Y11720000D01*
X17960000Y11540000D02*
X18020000D01*
X17990000Y11510000D02*
Y11570000D01*
X17590000Y11370000D02*
X17650000D01*
X17620000Y11340000D02*
Y11400000D01*
X17470000Y11370000D02*
X17530000D01*
X17500000Y11340000D02*
Y11400000D01*
X18890000Y12010000D02*
X18950000D01*
X18920000Y11980000D02*
Y12040000D01*
X18170000Y11750000D02*
X18230000D01*
X18200000Y11720000D02*
Y11780000D01*
X18100000Y11680000D02*
X18160000D01*
X18130000Y11650000D02*
Y11710000D01*
X18950000Y11750000D02*
X19010000D01*
X18980000Y11720000D02*
Y11780000D01*
X18030000Y11610000D02*
X18090000D01*
X18060000Y11580000D02*
Y11640000D01*
X18270000Y12920000D02*
X18330000D01*
X18300000Y12890000D02*
Y12950000D01*
X18150000Y13170000D02*
X18210000D01*
X18180000Y13140000D02*
Y13200000D01*
X18420000Y13170000D02*
X18480000D01*
X18450000Y13140000D02*
Y13200000D01*
X19100000Y12920000D02*
X19160000D01*
X19130000Y12890000D02*
Y12950000D01*
X18260000Y11390000D02*
X18320000D01*
X18290000Y11360000D02*
Y11420000D01*
X18490000Y11620000D02*
X18550000D01*
X18520000Y11590000D02*
Y11650000D01*
X18660000Y12660000D02*
X18720000D01*
X18690000Y12630000D02*
Y12690000D01*
X18660000Y12110000D02*
X18720000D01*
X18690000Y12080000D02*
Y12140000D01*
X18360000Y11300000D02*
X18420000D01*
X18390000Y11270000D02*
Y11330000D01*
X18610000Y11550000D02*
X18670000D01*
X18640000Y11520000D02*
Y11580000D01*
X18570000Y11200000D02*
X18630000D01*
X18600000Y11170000D02*
Y11230000D01*
X18970000Y12700000D02*
X19030000D01*
X19000000Y12670000D02*
Y12730000D01*
X19040000Y13150000D02*
X19100000D01*
X19070000Y13120000D02*
Y13180000D01*
X17920000Y12880000D02*
X17980000D01*
X17950000Y12850000D02*
Y12910000D01*
X17920000Y12620000D02*
X17980000D01*
X17950000Y12590000D02*
Y12650000D01*
X17470000Y11240000D02*
X17530000D01*
X17500000Y11210000D02*
Y11270000D01*
X17420000Y12250000D02*
X17480000D01*
X17450000Y12220000D02*
Y12280000D01*
X17270000Y12250000D02*
X17330000D01*
X17300000Y12220000D02*
Y12280000D01*
X17270000Y12550000D02*
X17330000D01*
X17300000Y12520000D02*
Y12580000D01*
X17420000Y12550000D02*
X17480000D01*
X17450000Y12520000D02*
Y12580000D01*
X17420000Y12400000D02*
X17480000D01*
X17450000Y12370000D02*
Y12430000D01*
X17270000Y12400000D02*
X17330000D01*
X17300000Y12370000D02*
Y12430000D01*
X17950000Y13170000D02*
X18010000D01*
X17980000Y13140000D02*
Y13200000D01*
X18430000Y12720000D02*
X18490000D01*
X18460000Y12690000D02*
Y12750000D01*
X18520000Y12380000D02*
X18580000D01*
X18550000Y12350000D02*
Y12410000D01*
X18520000Y12230000D02*
X18580000D01*
X18550000Y12200000D02*
Y12260000D01*
X17920000Y12180000D02*
X17980000D01*
X17950000Y12150000D02*
Y12210000D01*
X17920000Y12060000D02*
X17980000D01*
X17950000Y12030000D02*
Y12090000D01*
X17690000Y11500000D02*
X17750000D01*
X17720000Y11470000D02*
Y11530000D01*
X17650000Y13050000D02*
X17710000D01*
X17680000Y13020000D02*
Y13080000D01*
X17920000Y12740000D02*
X17980000D01*
X17950000Y12710000D02*
Y12770000D01*
X17920000Y12540000D02*
X17980000D01*
X17950000Y12510000D02*
Y12570000D01*
X17920000Y12340000D02*
X17980000D01*
X17950000Y12310000D02*
Y12370000D01*
X17290000Y11750000D02*
X17350000D01*
X17320000Y11720000D02*
Y11780000D01*
X18890000Y11930000D02*
X18950000D01*
X18920000Y11900000D02*
Y11960000D01*
X18540000Y11930000D02*
X18600000D01*
X18570000Y11900000D02*
Y11960000D01*
X18950000Y11870000D02*
X19010000D01*
X18980000Y11840000D02*
Y11900000D01*
X18480000Y11870000D02*
X18540000D01*
X18510000Y11840000D02*
Y11900000D01*
X17770000Y12900000D02*
X17830000D01*
X17800000Y12870000D02*
Y12930000D01*
X17920000Y13010000D02*
X17980000D01*
X17950000Y12980000D02*
Y13040000D01*
X17770000Y11900000D02*
X17830000D01*
X17800000Y11870000D02*
Y11930000D01*
X17890000Y11750000D02*
X17950000D01*
X17920000Y11720000D02*
Y11780000D01*
X17650000Y11900000D02*
X17710000D01*
X17680000Y11870000D02*
Y11930000D01*
X17650000Y11750000D02*
X17710000D01*
X17680000Y11720000D02*
Y11780000D01*
X17770000Y12260000D02*
X17830000D01*
X17800000Y12230000D02*
Y12290000D01*
X17920000Y12260000D02*
X17980000D01*
X17950000Y12230000D02*
Y12290000D01*
X17770000Y12460000D02*
X17830000D01*
X17800000Y12430000D02*
Y12490000D01*
X17920000Y12460000D02*
X17980000D01*
X17950000Y12430000D02*
Y12490000D01*
X17570000Y12900000D02*
X17630000D01*
X17600000Y12870000D02*
Y12930000D01*
X17570000Y13050000D02*
X17630000D01*
X17600000Y13020000D02*
Y13080000D01*
X17490000Y11900000D02*
X17550000D01*
X17520000Y11870000D02*
Y11930000D01*
X17490000Y11750000D02*
X17550000D01*
X17520000Y11720000D02*
Y11780000D01*
X17330000Y12900000D02*
X17390000D01*
X17360000Y12870000D02*
Y12930000D01*
X17330000Y13050000D02*
X17390000D01*
X17360000Y13020000D02*
Y13080000D01*
X18030000Y13170000D02*
X18090000D01*
X18060000Y13140000D02*
Y13200000D01*
X18890000Y12090000D02*
X18950000D01*
X18920000Y12060000D02*
Y12120000D01*
X18290000Y11950000D02*
X18350000D01*
X18320000Y11920000D02*
Y11980000D01*
X18890000Y12980000D02*
X18950000D01*
X18920000Y12950000D02*
Y13010000D01*
X18090000Y13110000D02*
X18150000D01*
X18120000Y13080000D02*
Y13140000D01*
X18360000Y13110000D02*
X18420000D01*
X18390000Y13080000D02*
Y13140000D01*
X19540000Y13150000D02*
X19600000D01*
X19570000Y13120000D02*
Y13180000D01*
X20270000Y11700000D02*
X20330000D01*
X20300000Y11670000D02*
Y11730000D01*
X20970000Y11700000D02*
X21030000D01*
X21000000Y11670000D02*
Y11730000D01*
X20010000Y12650000D02*
X20070000D01*
X20040000Y12620000D02*
Y12680000D01*
X21220000Y12070000D02*
X21280000D01*
X21250000Y12040000D02*
Y12100000D01*
X20990000Y12200000D02*
X21050000D01*
X21020000Y12170000D02*
Y12230000D01*
X20200000Y11200000D02*
X20260000D01*
X20230000Y11170000D02*
Y11230000D01*
X14720000Y13480000D02*
X14780000D01*
X14750000Y13450000D02*
Y13510000D01*
X14520000Y13220000D02*
X14580000D01*
X14550000Y13190000D02*
Y13250000D01*
X15170000Y13470000D02*
X15230000D01*
X15200000Y13440000D02*
Y13500000D01*
X14370000D02*
X14430000D01*
X14400000Y13470000D02*
Y13530000D01*
X14720000Y13900000D02*
X14780000D01*
X14750000Y13870000D02*
Y13930000D01*
X13920000Y13980000D02*
X13980000D01*
X13950000Y13950000D02*
Y14010000D01*
X13600000Y13700000D02*
X13660000D01*
X13630000Y13670000D02*
Y13730000D01*
X13320000Y13430000D02*
X13380000D01*
X13350000Y13400000D02*
Y13460000D01*
X15390000Y13550000D02*
X15450000D01*
X15420000Y13520000D02*
Y13580000D01*
X15640000Y13630000D02*
X15700000D01*
X15670000Y13600000D02*
Y13660000D01*
X15390000Y13630000D02*
X15450000D01*
X15420000Y13600000D02*
Y13660000D01*
X15640000Y13550000D02*
X15700000D01*
X15670000Y13520000D02*
Y13580000D01*
X15770000Y14100000D02*
X15830000D01*
X15800000Y14070000D02*
Y14130000D01*
X16170000Y13600000D02*
X16230000D01*
X16200000Y13570000D02*
Y13630000D01*
X15300000Y13370000D02*
X15360000D01*
X15330000Y13340000D02*
Y13400000D01*
X15960000Y13310000D02*
X16020000D01*
X15990000Y13280000D02*
Y13340000D01*
X18830000Y13540000D02*
X18890000D01*
X18860000Y13510000D02*
Y13570000D01*
X18850000Y13250000D02*
X18910000D01*
X18880000Y13220000D02*
Y13280000D01*
X18400000Y13520000D02*
X18460000D01*
X18430000Y13490000D02*
Y13550000D01*
X18620000Y13320000D02*
X18680000D01*
X18650000Y13290000D02*
Y13350000D01*
X17270000Y13290000D02*
X17330000D01*
X17300000Y13260000D02*
Y13320000D01*
X17810000Y13390000D02*
X17870000D01*
X17840000Y13360000D02*
Y13420000D01*
X17420000Y13290000D02*
X17480000D01*
X17450000Y13260000D02*
Y13320000D01*
X18820000Y13340000D02*
X18880000D01*
X18850000Y13310000D02*
Y13370000D01*
X18870000Y14100000D02*
X18930000D01*
X18900000Y14070000D02*
Y14130000D01*
X19250000Y13770000D02*
X19310000D01*
X19280000Y13740000D02*
Y13800000D01*
X18860000Y13850000D02*
X18920000D01*
X18890000Y13820000D02*
Y13880000D01*
X18510000Y13370000D02*
X18570000D01*
X18540000Y13340000D02*
Y13400000D01*
X17970000Y13300000D02*
X18030000D01*
X18000000Y13270000D02*
Y13330000D01*
X18420000Y13370000D02*
X18480000D01*
X18450000Y13340000D02*
Y13400000D01*
X17910000Y13370000D02*
X17970000D01*
X17940000Y13340000D02*
Y13400000D01*
X20010000Y13650000D02*
X20070000D01*
X20040000Y13620000D02*
Y13680000D01*
X20370000Y13370000D02*
X20430000D01*
X20400000Y13340000D02*
Y13400000D01*
X20010000Y14100000D02*
X20070000D01*
X20040000Y14070000D02*
Y14130000D01*
X19830000Y13340000D02*
X19890000D01*
X19860000Y13310000D02*
Y13370000D01*
X19710000Y13540000D02*
X19770000D01*
X19740000Y13510000D02*
Y13570000D01*
X15595000Y6812500D02*
X15585909Y6825000D01*
X15572273Y6831250*
X15554091*
X15540455Y6825000*
X15531364Y6812500*
Y6800000*
X15535909Y6787500*
X15540455Y6781250*
X15549545Y6775000*
X15549545D02*
X15576818Y6762500D01*
X15585909Y6756250*
X15590455Y6750000*
X15595000Y6737500*
Y6718750*
X15585909Y6706250*
X15572273Y6700000*
X15554091*
X15540455Y6706250*
X15531364Y6718750*
X15635909Y6831250D02*
Y6700000D01*
X15740455Y6831250D02*
X15676818Y6700000D01*
Y6831250D02*
X15740455D01*
X15676818Y6700000D02*
X15740455D01*
X15781364Y6831250D02*
Y6700000D01*
Y6831250D02*
X15840455D01*
X15781364Y6768750D02*
X15817727D01*
X15781364Y6700000D02*
X15840455D01*
X16567727Y6831250D02*
X16558636Y6825000D01*
X16549545Y6812500*
X16549545D02*
X16545000Y6800000D01*
X16540455Y6781250*
X16540455D02*
Y6750000D01*
X16540455D02*
X16545000Y6731250D01*
X16549545Y6718750*
X16549545D02*
X16558636Y6706250D01*
X16567727Y6700000*
X16585909*
X16595000Y6706250*
X16604091Y6718750*
X16608636Y6731250*
X16613182Y6750000*
Y6781250*
X16608636Y6800000*
X16604091Y6812500*
X16595000Y6825000*
X16585909Y6831250*
X16567727*
X16581364Y6725000D02*
X16608636Y6687500D01*
X16685909Y6831250D02*
Y6700000D01*
X16654091Y6831250D02*
X16717727D01*
X16758636D02*
X16795000Y6768750D01*
Y6700000*
X16831364Y6831250D02*
X16795000Y6768750D01*
X17204091Y6812500D02*
X17195000Y6825000D01*
X17181364Y6831250*
X17163182*
X17149545Y6825000*
X17149545D02*
X17140455Y6812500D01*
X17140455D02*
Y6800000D01*
X17140455D02*
X17145000Y6787500D01*
X17149545Y6781250*
X17149545D02*
X17158636Y6775000D01*
X17185909Y6762500*
X17195000Y6756250*
X17199545Y6750000*
X17199545D02*
X17204091Y6737500D01*
Y6718750*
X17195000Y6706250*
X17181364Y6700000*
X17163182*
X17149545Y6706250*
X17149545D02*
X17140455Y6718750D01*
X17245000Y6831250D02*
X17281364Y6768750D01*
Y6700000*
X17317727Y6831250D02*
X17281364Y6768750D01*
X17358636Y6831250D02*
Y6700000D01*
Y6831250D02*
X17395000Y6700000D01*
X17431364Y6831250D02*
X17395000Y6700000D01*
X17431364Y6831250D02*
Y6700000D01*
X17795000Y6831250D02*
Y6700000D01*
Y6831250D02*
X17835909D01*
X17849545Y6825000*
X17849545D02*
X17854091Y6818750D01*
X17858636Y6806250*
Y6787500*
X17854091Y6775000*
X17849545Y6768750*
X17849545D02*
X17835909Y6762500D01*
X17795000*
X17899545Y6831250D02*
Y6700000D01*
X17899545D02*
X17954091D01*
X18031364Y6831250D02*
X17995000Y6700000D01*
X18031364Y6831250D02*
X18067727Y6700000D01*
X18008636Y6743750D02*
X18054091D01*
X18140455Y6831250D02*
Y6700000D01*
X18108636Y6831250D02*
X18172273D01*
X18213182D02*
Y6700000D01*
Y6831250D02*
X18272273D01*
X18213182Y6768750D02*
X18249545D01*
X18213182Y6700000D02*
X18272273D01*
X18313182Y6831250D02*
Y6700000D01*
Y6831250D02*
X18345000D01*
X18358636Y6825000*
X18367727Y6812500*
X18372273Y6800000*
X18376818Y6781250*
Y6750000*
X18372273Y6731250*
X18367727Y6718750*
X18358636Y6706250*
X18345000Y6700000*
X18313182*
X18831364Y6831250D02*
Y6700000D01*
X18799545Y6831250D02*
X18863182D01*
X18931364D02*
X18922273Y6825000D01*
X18913182Y6812500*
X18908636Y6800000*
X18904091Y6781250*
Y6750000*
X18908636Y6731250*
X18913182Y6718750*
X18922273Y6706250*
X18931364Y6700000*
X18949545*
X18949545D02*
X18958636Y6706250D01*
X18967727Y6718750*
X18972273Y6731250*
X18976818Y6750000*
Y6781250*
X18972273Y6800000*
X18967727Y6812500*
X18958636Y6825000*
X18949545Y6831250*
X18949545D02*
X18931364D01*
X19017727D02*
Y6700000D01*
X19072273*
X15127273Y6431250D02*
X15113636Y6425000D01*
X15104545Y6406250*
X15104545D02*
X15100000Y6375000D01*
Y6356250*
X15104545Y6325000*
X15104545D02*
X15113636Y6306250D01*
X15127273Y6300000*
X15136364*
X15150000Y6306250*
X15159091Y6325000*
X15163636Y6356250*
Y6375000*
X15159091Y6406250*
X15150000Y6425000*
X15136364Y6431250*
X15127273*
X15209091Y6312500D02*
X15204545Y6306250D01*
X15204545D02*
X15209091Y6300000D01*
X15213636Y6306250*
X15209091Y6312500*
X15263636Y6431250D02*
X15313636D01*
X15286364Y6381250*
X15300000*
X15309091Y6375000*
X15313636Y6368750*
X15318182Y6350000*
Y6337500*
X15313636Y6318750*
X15304545Y6306250*
X15304545D02*
X15290909Y6300000D01*
X15277273*
X15263636Y6306250*
X15259091Y6312500*
X15254545Y6325000*
X16579091Y6431250D02*
X16629091D01*
X16601818Y6381250*
X16615455*
X16615455D02*
X16624545Y6375000D01*
X16624545D02*
X16629091Y6368750D01*
X16633636Y6350000*
Y6337500*
X16629091Y6318750*
X16620000Y6306250*
X16606364Y6300000*
X16592727*
X16579091Y6306250*
X16574545Y6312500*
X16574545D02*
X16570000Y6325000D01*
X16701818Y6431250D02*
X16688182Y6425000D01*
X16679091Y6406250*
X16674545Y6375000*
X16674545D02*
Y6356250D01*
X16674545D02*
X16679091Y6325000D01*
X16688182Y6306250*
X16701818Y6300000*
X16710909*
X16724545Y6306250*
X16724545D02*
X16733636Y6325000D01*
X16738182Y6356250*
Y6375000*
X16733636Y6406250*
X16724545Y6425000*
X16724545D02*
X16710909Y6431250D01*
X16701818*
X16779091Y6406250D02*
X16788182Y6412500D01*
X16801818Y6431250*
Y6300000*
X17200000Y6400000D02*
X17400000D01*
X17300000Y6300000D02*
Y6500000D01*
X17747273Y6431250D02*
X17783636Y6368750D01*
Y6300000*
X17820000Y6431250D02*
X17783636Y6368750D01*
X17860909Y6431250D02*
Y6300000D01*
Y6431250D02*
X17920000D01*
X17860909Y6368750D02*
X17897273D01*
X17860909Y6300000D02*
X17920000D01*
X18024545Y6412500D02*
X18015455Y6425000D01*
X18015455D02*
X18001818Y6431250D01*
X17983636*
X17970000Y6425000*
X17960909Y6412500*
Y6400000*
X17965455Y6387500*
X17965455D02*
X17970000Y6381250D01*
X17979091Y6375000*
X18006364Y6362500*
X18015455Y6356250*
X18015455D02*
X18020000Y6350000D01*
X18024545Y6337500*
X18024545D02*
Y6318750D01*
X18024545D02*
X18015455Y6306250D01*
X18015455D02*
X18001818Y6300000D01*
X17983636*
X17970000Y6306250*
X17960909Y6318750*
X18651818Y6412500D02*
Y6300000D01*
X18610909Y6356250D02*
X18692727D01*
X18815455Y6456250D02*
X18733636Y6256250D01*
X18856364Y6356250D02*
X18938182D01*
X19110909Y6431250D02*
X19097273Y6425000D01*
X19088182Y6406250*
X19083636Y6375000*
Y6356250*
X19088182Y6325000*
X19097273Y6306250*
X19110909Y6300000*
X19120000*
X19133636Y6306250*
X19142727Y6325000*
X19147273Y6356250*
Y6375000*
X19142727Y6406250*
X19133636Y6425000*
X19120000Y6431250*
X19110909*
X19192727Y6312500D02*
X19188182Y6306250D01*
X19192727Y6300000*
X19197273Y6306250*
X19192727Y6312500*
X19238182Y6406250D02*
X19247273Y6412500D01*
X19260909Y6431250*
Y6300000*
X15127273Y6031250D02*
X15113636Y6025000D01*
X15104545Y6006250*
X15104545D02*
X15100000Y5975000D01*
Y5956250*
X15104545Y5925000*
X15104545D02*
X15113636Y5906250D01*
X15127273Y5900000*
X15136364*
X15150000Y5906250*
X15159091Y5925000*
X15163636Y5956250*
Y5975000*
X15159091Y6006250*
X15150000Y6025000*
X15136364Y6031250*
X15127273*
X15209091Y5912500D02*
X15204545Y5906250D01*
X15204545D02*
X15209091Y5900000D01*
X15213636Y5906250*
X15209091Y5912500*
X15318182Y6031250D02*
X15272727Y5900000D01*
X15254545Y6031250D02*
X15318182D01*
X15418182D02*
X15372727D01*
X15368182Y5975000*
X15372727Y5981250*
X15386364Y5987500*
X15400000*
X15413636Y5981250*
X15422727Y5968750*
X15427273Y5950000*
X15422727Y5937500*
X15418182Y5918750*
X15409091Y5906250*
X15395455Y5900000*
X15395455D02*
X15381818D01*
X15368182Y5906250*
X15363636Y5912500*
X15359091Y5925000*
X16697273Y6031250D02*
X16651818Y5943750D01*
X16720000*
X16697273Y6031250D02*
Y5900000D01*
X17200000D02*
X17400000Y6100000D01*
X17200000D02*
X17400000Y5900000D01*
X17747273Y6031250D02*
X17783636Y5968750D01*
Y5900000*
X17820000Y6031250D02*
X17783636Y5968750D01*
X17860909Y6031250D02*
Y5900000D01*
Y6031250D02*
X17920000D01*
X17860909Y5968750D02*
X17897273D01*
X17860909Y5900000D02*
X17920000D01*
X18024545Y6012500D02*
X18015455Y6025000D01*
X18015455D02*
X18001818Y6031250D01*
X17983636*
X17970000Y6025000*
X17960909Y6012500*
Y6000000*
X17965455Y5987500*
X17965455D02*
X17970000Y5981250D01*
X17979091Y5975000*
X18006364Y5962500*
X18015455Y5956250*
X18015455D02*
X18020000Y5950000D01*
X18024545Y5937500*
X18024545D02*
Y5918750D01*
X18024545D02*
X18015455Y5906250D01*
X18015455D02*
X18001818Y5900000D01*
X17983636*
X17970000Y5906250*
X17960909Y5918750*
X18651818Y6012500D02*
Y5900000D01*
X18610909Y5956250D02*
X18692727D01*
X18815455Y6056250D02*
X18733636Y5856250D01*
X18856364Y5956250D02*
X18938182D01*
X19110909Y6031250D02*
X19097273Y6025000D01*
X19088182Y6006250*
X19083636Y5975000*
Y5956250*
X19088182Y5925000*
X19097273Y5906250*
X19110909Y5900000*
X19120000*
X19133636Y5906250*
X19142727Y5925000*
X19147273Y5956250*
Y5975000*
X19142727Y6006250*
X19133636Y6025000*
X19120000Y6031250*
X19110909*
X19192727Y5912500D02*
X19188182Y5906250D01*
X19192727Y5900000*
X19197273Y5906250*
X19192727Y5912500*
X19238182Y6006250D02*
X19247273Y6012500D01*
X19260909Y6031250*
Y5900000*
X15109091Y5631250D02*
X15159091D01*
X15131818Y5581250*
X15145455*
X15145455D02*
X15154545Y5575000D01*
X15154545D02*
X15159091Y5568750D01*
X15163636Y5550000*
Y5537500*
X15159091Y5518750*
X15150000Y5506250*
X15136364Y5500000*
X15122727*
X15109091Y5506250*
X15104545Y5512500*
X15104545D02*
X15100000Y5525000D01*
X15209091Y5512500D02*
X15204545Y5506250D01*
X15204545D02*
X15209091Y5500000D01*
X15213636Y5506250*
X15209091Y5512500*
X15259091Y5600000D02*
Y5606250D01*
X15263636Y5618750*
X15268182Y5625000*
X15277273Y5631250*
X15295455*
X15295455D02*
X15304545Y5625000D01*
X15304545D02*
X15309091Y5618750D01*
X15313636Y5606250*
Y5593750*
X15309091Y5581250*
X15300000Y5562500*
X15254545Y5500000*
X15254545D02*
X15318182D01*
X16697273Y5631250D02*
X16651818Y5543750D01*
X16720000*
X16697273Y5631250D02*
Y5500000D01*
X17200000D02*
X17400000D01*
Y5700000*
X17200000*
Y5500000*
X17300000Y5600000D02*
Y5700000D01*
X17747273Y5631250D02*
X17783636Y5568750D01*
Y5500000*
X17820000Y5631250D02*
X17783636Y5568750D01*
X17860909Y5631250D02*
Y5500000D01*
Y5631250D02*
X17920000D01*
X17860909Y5568750D02*
X17897273D01*
X17860909Y5500000D02*
X17920000D01*
X18024545Y5612500D02*
X18015455Y5625000D01*
X18015455D02*
X18001818Y5631250D01*
X17983636*
X17970000Y5625000*
X17960909Y5612500*
Y5600000*
X17965455Y5587500*
X17965455D02*
X17970000Y5581250D01*
X17979091Y5575000*
X18006364Y5562500*
X18015455Y5556250*
X18015455D02*
X18020000Y5550000D01*
X18024545Y5537500*
X18024545D02*
Y5518750D01*
X18024545D02*
X18015455Y5506250D01*
X18015455D02*
X18001818Y5500000D01*
X17983636*
X17970000Y5506250*
X17960909Y5518750*
X18651818Y5612500D02*
Y5500000D01*
X18610909Y5556250D02*
X18692727D01*
X18815455Y5656250D02*
X18733636Y5456250D01*
X18856364Y5556250D02*
X18938182D01*
X19110909Y5631250D02*
X19097273Y5625000D01*
X19088182Y5606250*
X19083636Y5575000*
Y5556250*
X19088182Y5525000*
X19097273Y5506250*
X19110909Y5500000*
X19120000*
X19133636Y5506250*
X19142727Y5525000*
X19147273Y5556250*
Y5575000*
X19142727Y5606250*
X19133636Y5625000*
X19120000Y5631250*
X19110909*
X19192727Y5512500D02*
X19188182Y5506250D01*
X19192727Y5500000*
X19197273Y5506250*
X19192727Y5512500*
X19238182Y5606250D02*
X19247273Y5612500D01*
X19260909Y5631250*
Y5500000*
X15104545Y5200000D02*
Y5206250D01*
X15104545D02*
X15109091Y5218750D01*
X15113636Y5225000*
X15122727Y5231250*
X15140909*
X15150000Y5225000*
X15154545Y5218750*
X15154545D02*
X15159091Y5206250D01*
Y5193750*
X15154545Y5181250*
X15154545D02*
X15145455Y5162500D01*
X15145455D02*
X15100000Y5100000D01*
X15163636*
X15209091Y5112500D02*
X15204545Y5106250D01*
X15204545D02*
X15209091Y5100000D01*
X15213636Y5106250*
X15209091Y5112500*
X15263636Y5231250D02*
X15313636D01*
X15286364Y5181250*
X15300000*
X15309091Y5175000*
X15313636Y5168750*
X15318182Y5150000*
Y5137500*
X15313636Y5118750*
X15304545Y5106250*
X15304545D02*
X15290909Y5100000D01*
X15277273*
X15263636Y5106250*
X15259091Y5112500*
X15254545Y5125000*
X16658636Y5200000D02*
Y5206250D01*
X16663182Y5218750*
X16667727Y5225000*
X16676818Y5231250*
X16695000*
X16704091Y5225000*
X16708636Y5218750*
X16713182Y5206250*
Y5193750*
X16708636Y5181250*
X16699545Y5162500*
X16699545D02*
X16654091Y5100000D01*
X16717727*
X17300000D02*
X17400000Y5200000D01*
X17300000Y5300000*
X17200000Y5200000*
X17300000Y5100000*
Y5200000D02*
Y5300000D01*
X17747273Y5231250D02*
X17783636Y5168750D01*
Y5100000*
X17820000Y5231250D02*
X17783636Y5168750D01*
X17860909Y5231250D02*
Y5100000D01*
Y5231250D02*
X17920000D01*
X17860909Y5168750D02*
X17897273D01*
X17860909Y5100000D02*
X17920000D01*
X18024545Y5212500D02*
X18015455Y5225000D01*
X18015455D02*
X18001818Y5231250D01*
X17983636*
X17970000Y5225000*
X17960909Y5212500*
Y5200000*
X17965455Y5187500*
X17965455D02*
X17970000Y5181250D01*
X17979091Y5175000*
X18006364Y5162500*
X18015455Y5156250*
X18015455D02*
X18020000Y5150000D01*
X18024545Y5137500*
X18024545D02*
Y5118750D01*
X18024545D02*
X18015455Y5106250D01*
X18015455D02*
X18001818Y5100000D01*
X17983636*
X17970000Y5106250*
X17960909Y5118750*
X18651818Y5212500D02*
Y5100000D01*
X18610909Y5156250D02*
X18692727D01*
X18815455Y5256250D02*
X18733636Y5056250D01*
X18856364Y5156250D02*
X18938182D01*
X19110909Y5231250D02*
X19097273Y5225000D01*
X19088182Y5206250*
X19083636Y5175000*
Y5156250*
X19088182Y5125000*
X19097273Y5106250*
X19110909Y5100000*
X19120000*
X19133636Y5106250*
X19142727Y5125000*
X19147273Y5156250*
Y5175000*
X19142727Y5206250*
X19133636Y5225000*
X19120000Y5231250*
X19110909*
X19192727Y5112500D02*
X19188182Y5106250D01*
X19192727Y5100000*
X19197273Y5106250*
X19192727Y5112500*
X19238182Y5206250D02*
X19247273Y5212500D01*
X19260909Y5231250*
Y5100000*
X15100000Y4806250D02*
X15109091Y4812500D01*
X15122727Y4831250*
Y4700000*
X16610909Y4831250D02*
X16660909D01*
X16633636Y4781250*
X16647273*
X16656364Y4775000*
X16660909Y4768750*
X16665455Y4750000*
X16665455D02*
Y4737500D01*
X16665455D02*
X16660909Y4718750D01*
X16651818Y4706250*
X16638182Y4700000*
X16624545*
X16624545D02*
X16610909Y4706250D01*
X16606364Y4712500*
X16601818Y4725000*
X16729091Y4831250D02*
X16715455Y4825000D01*
X16715455D02*
X16710909Y4812500D01*
Y4800000*
X16715455Y4787500*
X16715455D02*
X16724545Y4781250D01*
X16724545D02*
X16742727Y4775000D01*
X16756364Y4768750*
X16765455Y4756250*
X16765455D02*
X16770000Y4743750D01*
Y4725000*
X16765455Y4712500*
X16765455D02*
X16760909Y4706250D01*
X16747273Y4700000*
X16729091*
X16715455Y4706250*
X16715455D02*
X16710909Y4712500D01*
X16706364Y4725000*
Y4743750*
X16710909Y4756250*
X16720000Y4768750*
X16733636Y4775000*
X16751818Y4781250*
X16760909Y4787500*
X16765455Y4800000*
X16765455D02*
Y4812500D01*
X16765455D02*
X16760909Y4825000D01*
X16747273Y4831250*
X16729091*
X17200000Y4700000D02*
X17400000D01*
X17200000Y4900000*
X17400000*
X17200000Y4700000*
X17747273Y4831250D02*
X17783636Y4768750D01*
Y4700000*
X17820000Y4831250D02*
X17783636Y4768750D01*
X17860909Y4831250D02*
Y4700000D01*
Y4831250D02*
X17920000D01*
X17860909Y4768750D02*
X17897273D01*
X17860909Y4700000D02*
X17920000D01*
X18024545Y4812500D02*
X18015455Y4825000D01*
X18015455D02*
X18001818Y4831250D01*
X17983636*
X17970000Y4825000*
X17960909Y4812500*
Y4800000*
X17965455Y4787500*
X17965455D02*
X17970000Y4781250D01*
X17979091Y4775000*
X18006364Y4762500*
X18015455Y4756250*
X18015455D02*
X18020000Y4750000D01*
X18024545Y4737500*
X18024545D02*
Y4718750D01*
X18024545D02*
X18015455Y4706250D01*
X18015455D02*
X18001818Y4700000D01*
X17983636*
X17970000Y4706250*
X17960909Y4718750*
X18651818Y4812500D02*
Y4700000D01*
X18610909Y4756250D02*
X18692727D01*
X18815455Y4856250D02*
X18733636Y4656250D01*
X18856364Y4756250D02*
X18938182D01*
X19110909Y4831250D02*
X19097273Y4825000D01*
X19088182Y4806250*
X19083636Y4775000*
Y4756250*
X19088182Y4725000*
X19097273Y4706250*
X19110909Y4700000*
X19120000*
X19133636Y4706250*
X19142727Y4725000*
X19147273Y4756250*
Y4775000*
X19142727Y4806250*
X19133636Y4825000*
X19120000Y4831250*
X19110909*
X19192727Y4712500D02*
X19188182Y4706250D01*
X19192727Y4700000*
X19197273Y4706250*
X19192727Y4712500*
X19238182Y4806250D02*
X19247273Y4812500D01*
X19260909Y4831250*
Y4700000*
X15100000Y4406250D02*
X15109091Y4412500D01*
X15122727Y4431250*
Y4300000*
X15168182Y4312500D02*
X15163636Y4306250D01*
X15168182Y4300000*
X15172727Y4306250*
X15168182Y4312500*
X15277273Y4431250D02*
X15231818Y4300000D01*
X15213636Y4431250D02*
X15277273D01*
X16710909Y4412500D02*
X16706364Y4425000D01*
X16692727Y4431250*
X16683636*
X16670000Y4425000*
X16660909Y4406250*
X16656364Y4375000*
Y4343750*
X16660909Y4318750*
X16670000Y4306250*
X16683636Y4300000*
X16688182*
X16701818Y4306250*
X16710909Y4318750*
X16715455Y4337500*
Y4343750*
X16710909Y4362500*
X16701818Y4375000*
X16688182Y4381250*
X16683636*
X16670000Y4375000*
X16660909Y4362500*
X16656364Y4343750*
X17200000Y4300000D02*
X17400000Y4500000D01*
Y4300000*
X17200000Y4500000*
Y4300000*
X17797273Y4431250D02*
Y4300000D01*
Y4431250D02*
X17860909Y4300000D01*
Y4431250D02*
Y4300000D01*
X17929091Y4431250D02*
X17920000Y4425000D01*
X17910909Y4412500*
X17906364Y4400000*
X17901818Y4381250*
Y4350000*
X17906364Y4331250*
X17910909Y4318750*
X17920000Y4306250*
X17929091Y4300000*
X17947273*
X17956364Y4306250*
X17965455Y4318750*
X17965455D02*
X17970000Y4331250D01*
X17974545Y4350000*
X17974545D02*
Y4381250D01*
X17974545D02*
X17970000Y4400000D01*
X17965455Y4412500*
X17965455D02*
X17956364Y4425000D01*
X17947273Y4431250*
X17929091*
X18651818Y4412500D02*
Y4300000D01*
X18610909Y4356250D02*
X18692727D01*
X18815455Y4456250D02*
X18733636Y4256250D01*
X18856364Y4356250D02*
X18938182D01*
X19110909Y4431250D02*
X19097273Y4425000D01*
X19088182Y4406250*
X19083636Y4375000*
Y4356250*
X19088182Y4325000*
X19097273Y4306250*
X19110909Y4300000*
X19120000*
X19133636Y4306250*
X19142727Y4325000*
X19147273Y4356250*
Y4375000*
X19142727Y4406250*
X19133636Y4425000*
X19120000Y4431250*
X19110909*
X19192727Y4312500D02*
X19188182Y4306250D01*
X19192727Y4300000*
X19197273Y4306250*
X19192727Y4312500*
X19238182Y4406250D02*
X19247273Y4412500D01*
X19260909Y4431250*
Y4300000*
X15127273Y4031250D02*
X15113636Y4025000D01*
X15104545Y4006250*
X15104545D02*
X15100000Y3975000D01*
Y3956250*
X15104545Y3925000*
X15104545D02*
X15113636Y3906250D01*
X15127273Y3900000*
X15136364*
X15150000Y3906250*
X15159091Y3925000*
X15163636Y3956250*
Y3975000*
X15159091Y4006250*
X15150000Y4025000*
X15136364Y4031250*
X15127273*
X15209091Y3912500D02*
X15204545Y3906250D01*
X15204545D02*
X15209091Y3900000D01*
X15213636Y3906250*
X15209091Y3912500*
X15313636Y3987500D02*
X15309091Y3968750D01*
X15300000Y3956250*
X15286364Y3950000*
X15281818*
X15268182Y3956250*
X15259091Y3968750*
X15254545Y3987500*
X15254545D02*
Y3993750D01*
X15254545D02*
X15259091Y4012500D01*
X15268182Y4025000*
X15281818Y4031250*
X15286364*
X15300000Y4025000*
X15309091Y4012500*
X15313636Y3987500*
Y3956250*
X15309091Y3925000*
X15300000Y3906250*
X15286364Y3900000*
X15277273*
X15263636Y3906250*
X15259091Y3918750*
X15413636Y4031250D02*
X15368182D01*
X15363636Y3975000*
X15368182Y3981250*
X15381818Y3987500*
X15395455*
X15395455D02*
X15409091Y3981250D01*
X15418182Y3968750*
X15422727Y3950000*
X15418182Y3937500*
X15413636Y3918750*
X15404545Y3906250*
X15404545D02*
X15390909Y3900000D01*
X15377273*
X15363636Y3906250*
X15359091Y3912500*
X15354545Y3925000*
X16697273Y4031250D02*
X16651818Y3943750D01*
X16720000*
X16697273Y4031250D02*
Y3900000D01*
X17200000Y4000000D02*
X17400000D01*
X17300000Y3900000D02*
Y4100000D01*
X17379091Y4155000D02*
X17350000Y4050000D01*
X17379091Y4155000D02*
X17408182Y4050000D01*
X17360909Y4085000D02*
X17397273D01*
X17747273Y4031250D02*
X17783636Y3968750D01*
Y3900000*
X17820000Y4031250D02*
X17783636Y3968750D01*
X17860909Y4031250D02*
Y3900000D01*
Y4031250D02*
X17920000D01*
X17860909Y3968750D02*
X17897273D01*
X17860909Y3900000D02*
X17920000D01*
X18024545Y4012500D02*
X18015455Y4025000D01*
X18015455D02*
X18001818Y4031250D01*
X17983636*
X17970000Y4025000*
X17960909Y4012500*
Y4000000*
X17965455Y3987500*
X17965455D02*
X17970000Y3981250D01*
X17979091Y3975000*
X18006364Y3962500*
X18015455Y3956250*
X18015455D02*
X18020000Y3950000D01*
X18024545Y3937500*
X18024545D02*
Y3918750D01*
X18024545D02*
X18015455Y3906250D01*
X18015455D02*
X18001818Y3900000D01*
X17983636*
X17970000Y3906250*
X17960909Y3918750*
X18651818Y4012500D02*
Y3900000D01*
X18610909Y3956250D02*
X18692727D01*
X18815455Y4056250D02*
X18733636Y3856250D01*
X18856364Y3956250D02*
X18938182D01*
X19110909Y4031250D02*
X19097273Y4025000D01*
X19088182Y4006250*
X19083636Y3975000*
Y3956250*
X19088182Y3925000*
X19097273Y3906250*
X19110909Y3900000*
X19120000*
X19133636Y3906250*
X19142727Y3925000*
X19147273Y3956250*
Y3975000*
X19142727Y4006250*
X19133636Y4025000*
X19120000Y4031250*
X19110909*
X19192727Y3912500D02*
X19188182Y3906250D01*
X19192727Y3900000*
X19197273Y3906250*
X19192727Y3912500*
X19238182Y4006250D02*
X19247273Y4012500D01*
X19260909Y4031250*
Y3900000*
X15100000Y3606250D02*
X15109091Y3612500D01*
X15122727Y3631250*
Y3500000*
X15168182Y3512500D02*
X15163636Y3506250D01*
X15168182Y3500000*
X15172727Y3506250*
X15168182Y3512500*
X15213636Y3606250D02*
X15222727Y3612500D01*
X15236364Y3631250*
Y3500000*
X16658636Y3600000D02*
Y3606250D01*
X16663182Y3618750*
X16667727Y3625000*
X16676818Y3631250*
X16695000*
X16704091Y3625000*
X16708636Y3618750*
X16713182Y3606250*
Y3593750*
X16708636Y3581250*
X16699545Y3562500*
X16699545D02*
X16654091Y3500000D01*
X16717727*
X17200000Y3600000D02*
X17400000D01*
X17300000Y3500000D02*
Y3700000D01*
X17350000Y3755000D02*
Y3650000D01*
Y3755000D02*
X17382727D01*
X17393636Y3750000*
X17397273Y3745000*
X17400909Y3735000*
Y3725000*
X17397273Y3715000*
X17393636Y3710000*
X17382727Y3705000*
X17350000D02*
X17382727D01*
X17393636Y3700000*
X17397273Y3695000*
X17400909Y3685000*
Y3670000*
X17397273Y3660000*
X17393636Y3655000*
X17382727Y3650000*
X17350000*
X17747273Y3631250D02*
X17783636Y3568750D01*
Y3500000*
X17820000Y3631250D02*
X17783636Y3568750D01*
X17860909Y3631250D02*
Y3500000D01*
Y3631250D02*
X17920000D01*
X17860909Y3568750D02*
X17897273D01*
X17860909Y3500000D02*
X17920000D01*
X18024545Y3612500D02*
X18015455Y3625000D01*
X18015455D02*
X18001818Y3631250D01*
X17983636*
X17970000Y3625000*
X17960909Y3612500*
Y3600000*
X17965455Y3587500*
X17965455D02*
X17970000Y3581250D01*
X17979091Y3575000*
X18006364Y3562500*
X18015455Y3556250*
X18015455D02*
X18020000Y3550000D01*
X18024545Y3537500*
X18024545D02*
Y3518750D01*
X18024545D02*
X18015455Y3506250D01*
X18015455D02*
X18001818Y3500000D01*
X17983636*
X17970000Y3506250*
X17960909Y3518750*
X18651818Y3612500D02*
Y3500000D01*
X18610909Y3556250D02*
X18692727D01*
X18815455Y3656250D02*
X18733636Y3456250D01*
X18856364Y3556250D02*
X18938182D01*
X19110909Y3631250D02*
X19097273Y3625000D01*
X19088182Y3606250*
X19083636Y3575000*
Y3556250*
X19088182Y3525000*
X19097273Y3506250*
X19110909Y3500000*
X19120000*
X19133636Y3506250*
X19142727Y3525000*
X19147273Y3556250*
Y3575000*
X19142727Y3606250*
X19133636Y3625000*
X19120000Y3631250*
X19110909*
X19192727Y3512500D02*
X19188182Y3506250D01*
X19192727Y3500000*
X19197273Y3506250*
X19192727Y3512500*
X19238182Y3606250D02*
X19247273Y3612500D01*
X19260909Y3631250*
Y3500000*
X15127273Y3231250D02*
X15113636Y3225000D01*
X15104545Y3206250*
X15104545D02*
X15100000Y3175000D01*
Y3156250*
X15104545Y3125000*
X15104545D02*
X15113636Y3106250D01*
X15127273Y3100000*
X15136364*
X15150000Y3106250*
X15159091Y3125000*
X15163636Y3156250*
Y3175000*
X15159091Y3206250*
X15150000Y3225000*
X15136364Y3231250*
X15127273*
X15209091Y3112500D02*
X15204545Y3106250D01*
X15204545D02*
X15209091Y3100000D01*
X15213636Y3106250*
X15209091Y3112500*
X15277273Y3231250D02*
X15263636Y3225000D01*
X15259091Y3212500*
Y3200000*
X15263636Y3187500*
X15272727Y3181250*
X15290909Y3175000*
X15304545Y3168750*
X15304545D02*
X15313636Y3156250D01*
X15318182Y3143750*
Y3125000*
X15313636Y3112500*
X15309091Y3106250*
X15295455Y3100000*
X15295455D02*
X15277273D01*
X15263636Y3106250*
X15259091Y3112500*
X15254545Y3125000*
X15254545D02*
Y3143750D01*
X15254545D02*
X15259091Y3156250D01*
X15268182Y3168750*
X15281818Y3175000*
X15300000Y3181250*
X15309091Y3187500*
X15313636Y3200000*
Y3212500*
X15309091Y3225000*
X15295455Y3231250*
X15295455D02*
X15277273D01*
X16663182D02*
X16713182D01*
X16685909Y3181250*
X16699545*
X16699545D02*
X16708636Y3175000D01*
X16713182Y3168750*
X16717727Y3150000*
Y3137500*
X16713182Y3118750*
X16704091Y3106250*
X16690455Y3100000*
X16676818*
X16663182Y3106250*
X16658636Y3112500*
X16654091Y3125000*
X17200000Y3200000D02*
X17400000D01*
X17300000Y3100000D02*
Y3300000D01*
X17404545Y3330000D02*
X17400909Y3340000D01*
X17393636Y3350000*
X17386364Y3355000*
X17371818*
X17364545Y3350000*
X17364545D02*
X17357273Y3340000D01*
X17353636Y3330000*
X17350000Y3315000*
Y3290000*
X17353636Y3275000*
X17357273Y3265000*
X17364545Y3255000*
X17364545D02*
X17371818Y3250000D01*
X17386364*
X17393636Y3255000*
X17400909Y3265000*
X17404545Y3275000*
X17747273Y3231250D02*
X17783636Y3168750D01*
Y3100000*
X17820000Y3231250D02*
X17783636Y3168750D01*
X17860909Y3231250D02*
Y3100000D01*
Y3231250D02*
X17920000D01*
X17860909Y3168750D02*
X17897273D01*
X17860909Y3100000D02*
X17920000D01*
X18024545Y3212500D02*
X18015455Y3225000D01*
X18015455D02*
X18001818Y3231250D01*
X17983636*
X17970000Y3225000*
X17960909Y3212500*
Y3200000*
X17965455Y3187500*
X17965455D02*
X17970000Y3181250D01*
X17979091Y3175000*
X18006364Y3162500*
X18015455Y3156250*
X18015455D02*
X18020000Y3150000D01*
X18024545Y3137500*
X18024545D02*
Y3118750D01*
X18024545D02*
X18015455Y3106250D01*
X18015455D02*
X18001818Y3100000D01*
X17983636*
X17970000Y3106250*
X17960909Y3118750*
X18651818Y3212500D02*
Y3100000D01*
X18610909Y3156250D02*
X18692727D01*
X18815455Y3256250D02*
X18733636Y3056250D01*
X18856364Y3156250D02*
X18938182D01*
X19110909Y3231250D02*
X19097273Y3225000D01*
X19088182Y3206250*
X19083636Y3175000*
Y3156250*
X19088182Y3125000*
X19097273Y3106250*
X19110909Y3100000*
X19120000*
X19133636Y3106250*
X19142727Y3125000*
X19147273Y3156250*
Y3175000*
X19142727Y3206250*
X19133636Y3225000*
X19120000Y3231250*
X19110909*
X19192727Y3112500D02*
X19188182Y3106250D01*
X19192727Y3100000*
X19197273Y3106250*
X19192727Y3112500*
X19238182Y3206250D02*
X19247273Y3212500D01*
X19260909Y3231250*
Y3100000*
X0Y0D02*
M02*
