G04 Pcgerber II V5.0 Date:  Tue Dec  7 08:40:09 2010 *
G04 Database: (Untitled) *
G04 Layer 9: xk-1a-reva-sst. *
%FSLAX33Y33*%
%MOMM*%
%SFA1.000B1.000*%

%MIA0B0*%
%IPPOS*%
%ADD97C,0.20000*%
%ADD98C,0.17992*%
%ADD100C,0.30000*%
%ADD101C,0.30480*%
%ADD102C,0.19981*%
%ADD116C,0.15240*%
%ADD117C,0.20320*%
%ADD118C,0.18000*%
%ADD119C,0.60000*%
%ADD120C,0.17992*%
%ADD121C,0.19981*%
%LNxk-1a-reva-sst.*%
%SRX1Y1I0J0*%
G54D97*
%LPD*%
G54D116*
X90937Y54250D03*
X79246Y69685D03*
X90250Y77062D03*
Y70812D03*
X88687Y54250D03*
X90894Y92535D03*
X90250Y88812D03*
X65437Y60000D03*
X57897Y95535D03*
X90894D03*
X93187Y58500D03*
X90250Y72812D03*
Y74812D03*
G54D97*
X68350Y88000D02*
G01X81450D01*
Y74900*
X68350*
Y88000*
X92700Y99453D02*
G01Y98600D01*
X92995Y99168D02*
G01X92700Y98762D01*
X92818Y98925D02*
G01X93025Y98600D01*
X89750Y99403D02*
G01Y98550D01*
X90045Y99118D02*
G01X89750Y98712D01*
X89868Y98875D02*
G01X90075Y98550D01*
X60350Y99303D02*
G01Y98450D01*
X60645Y99018D02*
G01X60350Y98612D01*
X60468Y98775D02*
G01X60675Y98450D01*
X57400Y99453D02*
G01Y98600D01*
X57695Y99168D02*
G01X57400Y98762D01*
X57518Y98925D02*
G01X57725Y98600D01*
G54D98*
X70277Y66967D02*
G01Y67010D01*
Y67010D02*
G01X70245Y67053D01*
Y67053D02*
G01X70214D01*
Y67053D02*
G01X70183Y67010D01*
Y67010D02*
G01X70151Y66924D01*
Y66924D02*
G01X70089Y66708D01*
Y66708D02*
G01X70026Y66579D01*
X69963Y66493*
Y66493D02*
G01X69900Y66450D01*
Y66450D02*
G01X69775D01*
X69712Y66493*
Y66493D02*
G01X69681Y66536D01*
X69650Y66622*
Y66622D02*
G01Y66708D01*
Y66708D02*
G01X69681Y66795D01*
X69712Y66838*
Y66838D02*
G01X69932Y67010D01*
Y67010D02*
G01X69963Y67053D01*
Y67053D02*
G01X69995Y67140D01*
Y67226*
X69963Y67312*
Y67312D02*
G01X69900Y67355D01*
Y67355D02*
G01X69838Y67312D01*
Y67312D02*
G01X69806Y67226D01*
Y67226D02*
G01Y67140D01*
Y67140D02*
G01X69838Y67010D01*
Y67010D02*
G01X69900Y66881D01*
Y66881D02*
G01X70057Y66579D01*
Y66579D02*
G01X70120Y66493D01*
X70183Y66450*
X70245*
Y66450D02*
G01X70277Y66493D01*
Y66536*
X71343Y67355D02*
G01X71688D01*
Y67355D02*
G01X71500Y67010D01*
Y67010D02*
G01X71594D01*
Y67010D02*
G01X71657Y66967D01*
Y66967D02*
G01X71688Y66924D01*
Y66924D02*
G01X71720Y66795D01*
Y66708*
Y66708D02*
G01X71688Y66579D01*
Y66579D02*
G01X71626Y66493D01*
X71531Y66450*
Y66450D02*
G01X71437D01*
Y66450D02*
G01X71343Y66493D01*
Y66493D02*
G01X71312Y66536D01*
X71280Y66622*
X72002Y67355D02*
G01X72253Y66450D01*
X72504Y67355D02*
G01X72253Y66450D01*
X72849Y67355D02*
G01X73194D01*
Y67355D02*
G01X73006Y67010D01*
Y67010D02*
G01X73100D01*
Y67010D02*
G01X73162Y66967D01*
Y66967D02*
G01X73194Y66924D01*
X73225Y66795*
Y66795D02*
G01Y66708D01*
Y66708D02*
G01X73194Y66579D01*
X73131Y66493*
Y66493D02*
G01X73037Y66450D01*
X72943*
X72849Y66493*
X72817Y66536*
Y66536D02*
G01X72786Y66622D01*
X73157Y60555D02*
G01X72844D01*
Y60555D02*
G01X72812Y60167D01*
Y60167D02*
G01X72844Y60210D01*
Y60210D02*
G01X72938Y60253D01*
Y60253D02*
G01X73032D01*
Y60253D02*
G01X73126Y60210D01*
Y60210D02*
G01X73189Y60124D01*
X73220Y59995*
X73189Y59908*
Y59908D02*
G01X73157Y59779D01*
Y59779D02*
G01X73095Y59693D01*
X73000Y59650*
Y59650D02*
G01X72906D01*
Y59650D02*
G01X72812Y59693D01*
Y59693D02*
G01X72781Y59736D01*
X72750Y59822*
X73502Y60555D02*
G01X73753Y59650D01*
X74004Y60555D02*
G01X73753Y59650D01*
X74286Y60555D02*
G01X74318Y60512D01*
Y60512D02*
G01X74349Y60555D01*
Y60555D02*
G01X74318Y60598D01*
Y60598D02*
G01X74286Y60555D01*
X74318Y60253D02*
G01Y59650D01*
X74631Y60253D02*
G01Y59650D01*
Y60081D02*
G01X74726Y60210D01*
Y60210D02*
G01X74788Y60253D01*
Y60253D02*
G01X74882D01*
Y60253D02*
G01X74945Y60210D01*
Y60210D02*
G01X74976Y60081D01*
Y60081D02*
G01Y59650D01*
X52063Y88655D02*
G01Y87965D01*
Y87965D02*
G01X52032Y87836D01*
X52000Y87793*
Y87793D02*
G01X51938Y87750D01*
X51875*
X51812Y87793*
Y87793D02*
G01X51781Y87836D01*
X51750Y87965*
Y87965D02*
G01Y88051D01*
X52565Y88655D02*
G01Y87750D01*
X52345Y88655D02*
G01X52785D01*
X53318D02*
G01X53067Y87750D01*
X53318Y88655D02*
G01X53569Y87750D01*
X53161Y88051D02*
G01X53475D01*
X54321Y88440D02*
G01X54290Y88526D01*
Y88526D02*
G01X54227Y88612D01*
Y88612D02*
G01X54165Y88655D01*
Y88655D02*
G01X54039D01*
Y88655D02*
G01X53976Y88612D01*
Y88612D02*
G01X53914Y88526D01*
X53882Y88440*
Y88440D02*
G01X53851Y88310D01*
Y88310D02*
G01Y88095D01*
X53882Y87965*
Y87965D02*
G01X53914Y87879D01*
X53976Y87793*
Y87793D02*
G01X54039Y87750D01*
Y87750D02*
G01X54165D01*
X54227Y87793*
Y87793D02*
G01X54290Y87879D01*
Y87879D02*
G01X54321Y87965D01*
Y87965D02*
G01Y88095D01*
X54165D02*
G01X54321D01*
X55325Y88655D02*
G01Y87750D01*
X55607Y88655D02*
G01Y87750D01*
Y88655D02*
G01X56047Y87750D01*
Y88655D02*
G01Y87750D01*
X62631Y83240D02*
G01Y83283D01*
X62662Y83369*
Y83369D02*
G01X62694Y83412D01*
Y83412D02*
G01X62756Y83455D01*
Y83455D02*
G01X62882D01*
Y83455D02*
G01X62945Y83412D01*
Y83412D02*
G01X62976Y83369D01*
X63007Y83283*
Y83283D02*
G01Y83196D01*
Y83196D02*
G01X62976Y83110D01*
Y83110D02*
G01X62913Y82981D01*
Y82981D02*
G01X62600Y82550D01*
X63039*
X63509Y83455D02*
G01X63415Y83412D01*
Y83412D02*
G01X63352Y83283D01*
Y83283D02*
G01X63321Y83067D01*
Y83067D02*
G01Y82938D01*
X63352Y82722*
Y82722D02*
G01X63415Y82593D01*
X63509Y82550*
Y82550D02*
G01X63572D01*
X63666Y82593*
X63729Y82722*
Y82722D02*
G01X63760Y82938D01*
Y82938D02*
G01Y83067D01*
Y83067D02*
G01X63729Y83283D01*
X63666Y83412*
Y83412D02*
G01X63572Y83455D01*
Y83455D02*
G01X63509D01*
X64042D02*
G01Y82550D01*
Y83455D02*
G01X64293Y82550D01*
X64544Y83455D02*
G01X64293Y82550D01*
X64544Y83455D02*
G01Y82550D01*
X64826Y83455D02*
G01Y82550D01*
X65266Y83455D02*
G01Y82550D01*
X64826Y83024D02*
G01X65266D01*
X65893Y83153D02*
G01X65548Y82550D01*
Y83153D02*
G01X65893D01*
X65548Y82550D02*
G01X65893D01*
X63470Y81890D02*
G01X63439Y81976D01*
X63376Y82062*
Y82062D02*
G01X63313Y82105D01*
Y82105D02*
G01X63188D01*
Y82105D02*
G01X63125Y82062D01*
Y82062D02*
G01X63062Y81976D01*
Y81976D02*
G01X63031Y81890D01*
X63000Y81760*
Y81760D02*
G01Y81545D01*
X63031Y81415*
Y81415D02*
G01X63062Y81329D01*
Y81329D02*
G01X63125Y81243D01*
X63188Y81200*
X63313*
Y81200D02*
G01X63376Y81243D01*
X63439Y81329*
X63470Y81415*
X63752Y82105D02*
G01Y81200D01*
Y81200D02*
G01X64129D01*
X64411Y82105D02*
G01Y81200D01*
X64850Y82105D02*
G01X64411Y81501D01*
X64568Y81717D02*
G01X64850Y81200D01*
X79250Y69455D02*
G01Y68550D01*
Y69455D02*
G01X79532D01*
Y69455D02*
G01X79626Y69412D01*
Y69412D02*
G01X79657Y69369D01*
Y69369D02*
G01X79689Y69283D01*
Y69196*
Y69196D02*
G01X79657Y69110D01*
Y69110D02*
G01X79626Y69067D01*
Y69067D02*
G01X79532Y69024D01*
X79250D02*
G01X79532D01*
X79626Y68981*
X79657Y68938*
Y68938D02*
G01X79689Y68851D01*
Y68851D02*
G01Y68722D01*
Y68722D02*
G01X79657Y68636D01*
Y68636D02*
G01X79626Y68593D01*
X79532Y68550*
X79250*
X79971Y69455D02*
G01Y68808D01*
Y68808D02*
G01X80002Y68679D01*
Y68679D02*
G01X80065Y68593D01*
X80159Y68550*
Y68550D02*
G01X80222D01*
X80316Y68593*
X80379Y68679*
X80410Y68808*
Y68808D02*
G01Y69455D01*
X80912D02*
G01Y68550D01*
X80692Y69455D02*
G01X81131D01*
X81414Y69283D02*
G01X81476Y69326D01*
Y69326D02*
G01X81571Y69455D01*
Y69455D02*
G01Y68550D01*
X87400Y69205D02*
G01Y68300D01*
Y69205D02*
G01X87682D01*
Y69205D02*
G01X87776Y69162D01*
Y69162D02*
G01X87807Y69119D01*
Y69119D02*
G01X87839Y69033D01*
Y68946*
Y68946D02*
G01X87807Y68860D01*
Y68860D02*
G01X87776Y68817D01*
Y68817D02*
G01X87682Y68774D01*
X87400D02*
G01X87682D01*
X87776Y68731*
X87807Y68688*
Y68688D02*
G01X87839Y68601D01*
Y68601D02*
G01Y68472D01*
Y68472D02*
G01X87807Y68386D01*
Y68386D02*
G01X87776Y68343D01*
X87682Y68300*
X87400*
X88121Y69205D02*
G01Y68558D01*
Y68558D02*
G01X88152Y68429D01*
Y68429D02*
G01X88215Y68343D01*
X88309Y68300*
Y68300D02*
G01X88372D01*
X88466Y68343*
X88529Y68429*
X88560Y68558*
Y68558D02*
G01Y69205D01*
X89062D02*
G01Y68300D01*
X88842Y69205D02*
G01X89281D01*
X89595Y68990D02*
G01Y69033D01*
Y69033D02*
G01X89626Y69119D01*
Y69119D02*
G01X89658Y69162D01*
Y69162D02*
G01X89721Y69205D01*
Y69205D02*
G01X89846D01*
Y69205D02*
G01X89909Y69162D01*
Y69162D02*
G01X89940Y69119D01*
Y69119D02*
G01X89971Y69033D01*
Y69033D02*
G01Y68946D01*
Y68946D02*
G01X89940Y68860D01*
Y68860D02*
G01X89877Y68731D01*
Y68731D02*
G01X89564Y68300D01*
X90003*
X93594Y71963D02*
G01X94284D01*
Y71963D02*
G01X94413Y71932D01*
Y71932D02*
G01X94456Y71900D01*
Y71900D02*
G01X94500Y71838D01*
Y71775*
X94456Y71712*
Y71712D02*
G01X94413Y71681D01*
Y71681D02*
G01X94284Y71650D01*
X94198*
X93594Y72465D02*
G01X94500D01*
X93594Y72245D02*
G01Y72685D01*
Y73218D02*
G01X94500Y72967D01*
X93594Y73218D02*
G01X94500Y73469D01*
X94198Y73061D02*
G01Y73375D01*
X93809Y74221D02*
G01X93723Y74190D01*
Y74190D02*
G01X93637Y74127D01*
Y74127D02*
G01X93594Y74065D01*
Y73939*
Y73939D02*
G01X93637Y73876D01*
Y73876D02*
G01X93723Y73814D01*
Y73814D02*
G01X93809Y73782D01*
Y73782D02*
G01X93939Y73751D01*
X94154*
Y73751D02*
G01X94284Y73782D01*
Y73782D02*
G01X94370Y73814D01*
Y73814D02*
G01X94456Y73876D01*
Y73876D02*
G01X94500Y73939D01*
Y73939D02*
G01Y74065D01*
X94456Y74127*
Y74127D02*
G01X94370Y74190D01*
Y74190D02*
G01X94284Y74221D01*
Y74221D02*
G01X94154D01*
Y74065D02*
G01Y74221D01*
X93594Y75413D02*
G01X93637Y75351D01*
X93723Y75288*
Y75288D02*
G01X93809Y75257D01*
Y75257D02*
G01X93939Y75225D01*
Y75225D02*
G01X94154D01*
Y75225D02*
G01X94284Y75257D01*
X94370Y75288*
Y75288D02*
G01X94456Y75351D01*
Y75351D02*
G01X94500Y75413D01*
Y75413D02*
G01Y75539D01*
X94456Y75602*
Y75602D02*
G01X94370Y75664D01*
Y75664D02*
G01X94284Y75696D01*
X94154Y75727*
Y75727D02*
G01X93939D01*
X93809Y75696*
Y75696D02*
G01X93723Y75664D01*
Y75664D02*
G01X93637Y75602D01*
X93594Y75539*
Y75413*
Y76009D02*
G01X94241D01*
Y76009D02*
G01X94370Y76041D01*
Y76041D02*
G01X94456Y76103D01*
Y76103D02*
G01X94500Y76197D01*
Y76197D02*
G01Y76260D01*
Y76260D02*
G01X94456Y76354D01*
Y76354D02*
G01X94370Y76417D01*
Y76417D02*
G01X94241Y76448D01*
Y76448D02*
G01X93594D01*
Y76950D02*
G01X94500D01*
X93594Y76731D02*
G01Y77170D01*
X49750Y40405D02*
G01Y39500D01*
Y40405D02*
G01X49969D01*
Y40405D02*
G01X50063Y40362D01*
Y40362D02*
G01X50126Y40276D01*
X50157Y40190*
Y40190D02*
G01X50189Y40060D01*
Y40060D02*
G01Y39845D01*
X50157Y39715*
Y39715D02*
G01X50126Y39629D01*
X50063Y39543*
Y39543D02*
G01X49969Y39500D01*
Y39500D02*
G01X49750D01*
X50471Y40405D02*
G01Y39500D01*
Y40405D02*
G01X50879D01*
X50471Y39974D02*
G01X50722D01*
X50471Y39500D02*
G01X50879D01*
X51600Y40276D02*
G01X51537Y40362D01*
Y40362D02*
G01X51443Y40405D01*
Y40405D02*
G01X51318D01*
Y40405D02*
G01X51224Y40362D01*
Y40362D02*
G01X51161Y40276D01*
Y40190*
X51192Y40103*
Y40103D02*
G01X51224Y40060D01*
Y40060D02*
G01X51286Y40017D01*
Y40017D02*
G01X51475Y39931D01*
X51537Y39888*
Y39888D02*
G01X51569Y39845D01*
X51600Y39758*
Y39758D02*
G01Y39629D01*
Y39629D02*
G01X51537Y39543D01*
Y39543D02*
G01X51443Y39500D01*
Y39500D02*
G01X51318D01*
X51224Y39543*
X51161Y39629*
X51882Y40405D02*
G01Y39500D01*
X52635Y40190D02*
G01X52604Y40276D01*
X52541Y40362*
Y40362D02*
G01X52478Y40405D01*
Y40405D02*
G01X52353D01*
Y40405D02*
G01X52290Y40362D01*
Y40362D02*
G01X52227Y40276D01*
Y40276D02*
G01X52196Y40190D01*
X52165Y40060*
Y40060D02*
G01Y39845D01*
X52196Y39715*
Y39715D02*
G01X52227Y39629D01*
Y39629D02*
G01X52290Y39543D01*
Y39543D02*
G01X52353Y39500D01*
X52478*
Y39500D02*
G01X52541Y39543D01*
Y39543D02*
G01X52604Y39629D01*
X52635Y39715*
Y39715D02*
G01Y39845D01*
X52478D02*
G01X52635D01*
X52917Y40405D02*
G01Y39500D01*
Y40405D02*
G01X53357Y39500D01*
Y40405D02*
G01Y39500D01*
X53639Y40405D02*
G01Y39500D01*
Y40405D02*
G01X54047D01*
X53639Y39974D02*
G01X53890D01*
X53639Y39500D02*
G01X54047D01*
X54329Y40405D02*
G01Y39500D01*
Y40405D02*
G01X54548D01*
Y40405D02*
G01X54642Y40362D01*
Y40362D02*
G01X54705Y40276D01*
Y40276D02*
G01X54737Y40190D01*
X54768Y40060*
Y40060D02*
G01Y39845D01*
X54737Y39715*
Y39715D02*
G01X54705Y39629D01*
Y39629D02*
G01X54642Y39543D01*
Y39543D02*
G01X54548Y39500D01*
Y39500D02*
G01X54329D01*
X55772Y40405D02*
G01Y39500D01*
Y40405D02*
G01X56054D01*
Y40405D02*
G01X56148Y40362D01*
Y40362D02*
G01X56179Y40319D01*
Y40319D02*
G01X56211Y40233D01*
Y40146*
Y40146D02*
G01X56179Y40060D01*
Y40060D02*
G01X56148Y40017D01*
Y40017D02*
G01X56054Y39974D01*
X55772D02*
G01X56054D01*
X56148Y39931*
Y39931D02*
G01X56179Y39888D01*
Y39888D02*
G01X56211Y39801D01*
Y39801D02*
G01Y39672D01*
Y39672D02*
G01X56179Y39586D01*
Y39586D02*
G01X56148Y39543D01*
Y39543D02*
G01X56054Y39500D01*
X55772*
X56493Y40405D02*
G01X56744Y39974D01*
Y39500*
X56995Y40405D02*
G01X56744Y39974D01*
X57309Y40103D02*
G01X57277Y40060D01*
Y40060D02*
G01X57309Y40017D01*
Y40017D02*
G01X57340Y40060D01*
Y40060D02*
G01X57309Y40103D01*
Y39586D02*
G01X57277Y39543D01*
Y39543D02*
G01X57309Y39500D01*
X57340Y39543*
X57309Y39586*
X57622Y39888D02*
G01X58187D01*
X59190Y40405D02*
G01Y39500D01*
Y40405D02*
G01X59410D01*
Y40405D02*
G01X59504Y40362D01*
Y40362D02*
G01X59567Y40276D01*
X59598Y40190*
Y40190D02*
G01X59630Y40060D01*
Y40060D02*
G01Y39845D01*
X59598Y39715*
Y39715D02*
G01X59567Y39629D01*
X59504Y39543*
Y39543D02*
G01X59410Y39500D01*
X59190*
X60163Y40405D02*
G01X59912Y39500D01*
X60163Y40405D02*
G01X60414Y39500D01*
X60006Y39801D02*
G01X60320D01*
X60696Y40405D02*
G01X60947Y39974D01*
Y39500*
X61198Y40405D02*
G01X60947Y39974D01*
X61480Y40405D02*
G01Y39500D01*
Y40405D02*
G01X61888D01*
X61480Y39974D02*
G01X61731D01*
X62358Y40405D02*
G01X62296Y40362D01*
Y40362D02*
G01X62233Y40276D01*
X62201Y40190*
Y40190D02*
G01X62170Y40060D01*
Y40060D02*
G01Y39845D01*
Y39845D02*
G01X62201Y39715D01*
Y39715D02*
G01X62233Y39629D01*
X62296Y39543*
X62358Y39500*
Y39500D02*
G01X62484D01*
X62547Y39543*
X62609Y39629*
Y39629D02*
G01X62641Y39715D01*
Y39715D02*
G01X62672Y39845D01*
Y40060*
Y40060D02*
G01X62641Y40190D01*
X62609Y40276*
Y40276D02*
G01X62547Y40362D01*
Y40362D02*
G01X62484Y40405D01*
Y40405D02*
G01X62358D01*
X62954D02*
G01Y39500D01*
Y40405D02*
G01X63237D01*
Y40405D02*
G01X63331Y40362D01*
Y40362D02*
G01X63362Y40319D01*
Y40319D02*
G01X63393Y40233D01*
Y40233D02*
G01Y40146D01*
Y40146D02*
G01X63362Y40060D01*
Y40060D02*
G01X63331Y40017D01*
Y40017D02*
G01X63237Y39974D01*
X62954*
X63174D02*
G01X63393Y39500D01*
X63676Y40405D02*
G01Y39500D01*
Y40405D02*
G01X63895D01*
Y40405D02*
G01X63989Y40362D01*
Y40362D02*
G01X64052Y40276D01*
Y40276D02*
G01X64083Y40190D01*
Y40190D02*
G01X64115Y40060D01*
Y40060D02*
G01Y39845D01*
X64083Y39715*
Y39715D02*
G01X64052Y39629D01*
Y39629D02*
G01X63989Y39543D01*
Y39543D02*
G01X63895Y39500D01*
Y39500D02*
G01X63676D01*
X65118Y40405D02*
G01Y39500D01*
Y40405D02*
G01X65338D01*
Y40405D02*
G01X65432Y40362D01*
Y40362D02*
G01X65495Y40276D01*
X65526Y40190*
Y40190D02*
G01X65558Y40060D01*
Y40060D02*
G01Y39845D01*
X65526Y39715*
Y39715D02*
G01X65495Y39629D01*
X65432Y39543*
Y39543D02*
G01X65338Y39500D01*
Y39500D02*
G01X65118D01*
X65840Y40405D02*
G01Y39500D01*
Y40405D02*
G01X66248D01*
X65840Y39974D02*
G01X66091D01*
X65840Y39500D02*
G01X66248D01*
X66969Y40276D02*
G01X66906Y40362D01*
Y40362D02*
G01X66812Y40405D01*
Y40405D02*
G01X66687D01*
Y40405D02*
G01X66593Y40362D01*
Y40362D02*
G01X66530Y40276D01*
Y40190*
X66561Y40103*
Y40103D02*
G01X66593Y40060D01*
Y40060D02*
G01X66655Y40017D01*
Y40017D02*
G01X66844Y39931D01*
X66906Y39888*
Y39888D02*
G01X66938Y39845D01*
X66969Y39758*
Y39758D02*
G01Y39629D01*
Y39629D02*
G01X66906Y39543D01*
Y39543D02*
G01X66812Y39500D01*
Y39500D02*
G01X66687D01*
X66593Y39543*
X66530Y39629*
X67251Y40405D02*
G01Y39500D01*
X68004Y40190D02*
G01X67973Y40276D01*
X67910Y40362*
Y40362D02*
G01X67847Y40405D01*
Y40405D02*
G01X67722D01*
Y40405D02*
G01X67659Y40362D01*
Y40362D02*
G01X67596Y40276D01*
Y40276D02*
G01X67565Y40190D01*
X67534Y40060*
Y40060D02*
G01Y39845D01*
X67565Y39715*
Y39715D02*
G01X67596Y39629D01*
Y39629D02*
G01X67659Y39543D01*
Y39543D02*
G01X67722Y39500D01*
X67847*
Y39500D02*
G01X67910Y39543D01*
X67973Y39629*
X68004Y39715*
Y39715D02*
G01Y39845D01*
X67847D02*
G01X68004D01*
X68286Y40405D02*
G01Y39500D01*
Y40405D02*
G01X68725Y39500D01*
Y40405D02*
G01Y39500D01*
X69447Y40276D02*
G01X69384Y40362D01*
Y40362D02*
G01X69290Y40405D01*
Y40405D02*
G01X69165D01*
Y40405D02*
G01X69070Y40362D01*
Y40362D02*
G01X69008Y40276D01*
Y40190*
X69039Y40103*
Y40103D02*
G01X69070Y40060D01*
Y40060D02*
G01X69133Y40017D01*
Y40017D02*
G01X69321Y39931D01*
Y39931D02*
G01X69384Y39888D01*
Y39888D02*
G01X69415Y39845D01*
Y39845D02*
G01X69447Y39758D01*
Y39758D02*
G01Y39629D01*
X69384Y39543*
Y39543D02*
G01X69290Y39500D01*
Y39500D02*
G01X69165D01*
X69070Y39543*
Y39543D02*
G01X69008Y39629D01*
X70451Y40405D02*
G01Y39500D01*
X70827*
X71329Y40405D02*
G01Y39500D01*
X71109Y40405D02*
G01X71548D01*
X71831D02*
G01Y39500D01*
Y40405D02*
G01X72050D01*
Y40405D02*
G01X72144Y40362D01*
Y40362D02*
G01X72207Y40276D01*
X72238Y40190*
Y40190D02*
G01X72270Y40060D01*
Y40060D02*
G01Y39845D01*
X72238Y39715*
Y39715D02*
G01X72207Y39629D01*
X72144Y39543*
Y39543D02*
G01X72050Y39500D01*
Y39500D02*
G01X71831D01*
X73493Y40578D02*
G01X73430Y40491D01*
Y40491D02*
G01X73368Y40362D01*
Y40362D02*
G01X73305Y40190D01*
X73273Y39974*
Y39974D02*
G01Y39801D01*
Y39801D02*
G01X73305Y39586D01*
X73368Y39413*
Y39413D02*
G01X73430Y39284D01*
Y39284D02*
G01X73493Y39198D01*
X73775Y40405D02*
G01Y39500D01*
Y40405D02*
G01X74058D01*
Y40405D02*
G01X74152Y40362D01*
Y40362D02*
G01X74183Y40319D01*
Y40319D02*
G01X74214Y40233D01*
Y40233D02*
G01Y40146D01*
Y40146D02*
G01X74183Y40060D01*
Y40060D02*
G01X74152Y40017D01*
Y40017D02*
G01X74058Y39974D01*
X73775*
X73995D02*
G01X74214Y39500D01*
X74497Y40405D02*
G01Y39500D01*
Y40405D02*
G01X74904D01*
X74497Y39974D02*
G01X74748D01*
X74497Y39500D02*
G01X74904D01*
X75187Y40405D02*
G01Y39500D01*
Y40405D02*
G01X75594D01*
X75187Y39974D02*
G01X75438D01*
X76598Y40405D02*
G01Y39500D01*
Y40405D02*
G01X76880D01*
Y40405D02*
G01X76975Y40362D01*
Y40362D02*
G01X77006Y40319D01*
X77037Y40233*
Y40233D02*
G01Y40146D01*
Y40146D02*
G01X77006Y40060D01*
Y40060D02*
G01X76975Y40017D01*
Y40017D02*
G01X76880Y39974D01*
X76598D02*
G01X76880D01*
Y39974D02*
G01X76975Y39931D01*
X77006Y39888*
X77037Y39801*
Y39801D02*
G01Y39672D01*
Y39672D02*
G01X77006Y39586D01*
X76975Y39543*
X76880Y39500*
Y39500D02*
G01X76598D01*
X77508Y40405D02*
G01X77414Y40362D01*
Y40362D02*
G01X77351Y40233D01*
X77320Y40017*
Y40017D02*
G01Y39888D01*
X77351Y39672*
Y39672D02*
G01X77414Y39543D01*
X77508Y39500*
X77570*
Y39500D02*
G01X77665Y39543D01*
X77727Y39672*
Y39672D02*
G01X77759Y39888D01*
Y40017*
Y40017D02*
G01X77727Y40233D01*
Y40233D02*
G01X77665Y40362D01*
Y40362D02*
G01X77570Y40405D01*
Y40405D02*
G01X77508D01*
X78041Y40233D02*
G01X78104Y40276D01*
X78198Y40405*
Y40405D02*
G01Y39500D01*
X78511Y40190D02*
G01Y40233D01*
Y40233D02*
G01X78543Y40319D01*
X78574Y40362*
Y40362D02*
G01X78637Y40405D01*
Y40405D02*
G01X78762D01*
Y40405D02*
G01X78825Y40362D01*
Y40362D02*
G01X78856Y40319D01*
Y40319D02*
G01X78888Y40233D01*
Y40146*
Y40146D02*
G01X78856Y40060D01*
Y40060D02*
G01X78794Y39931D01*
X78480Y39500*
Y39500D02*
G01X78919D01*
X79390Y40405D02*
G01X79296Y40362D01*
Y40362D02*
G01X79233Y40233D01*
X79201Y40017*
Y40017D02*
G01Y39888D01*
Y39888D02*
G01X79233Y39672D01*
Y39672D02*
G01X79296Y39543D01*
X79390Y39500*
X79452*
Y39500D02*
G01X79546Y39543D01*
Y39543D02*
G01X79609Y39672D01*
Y39672D02*
G01X79641Y39888D01*
Y40017*
Y40017D02*
G01X79609Y40233D01*
Y40233D02*
G01X79546Y40362D01*
Y40362D02*
G01X79452Y40405D01*
Y40405D02*
G01X79390D01*
X80236D02*
G01X79923Y39801D01*
Y39801D02*
G01X80393D01*
X80236Y40405D02*
G01Y39500D01*
X80676Y40578D02*
G01X80738Y40491D01*
Y40491D02*
G01X80801Y40362D01*
Y40362D02*
G01X80864Y40190D01*
X80895Y39974*
Y39974D02*
G01Y39801D01*
Y39801D02*
G01X80864Y39586D01*
X80801Y39413*
Y39413D02*
G01X80738Y39284D01*
Y39284D02*
G01X80676Y39198D01*
X50189Y37276D02*
G01X50126Y37362D01*
Y37362D02*
G01X50032Y37405D01*
Y37405D02*
G01X49906D01*
Y37405D02*
G01X49812Y37362D01*
Y37362D02*
G01X49750Y37276D01*
Y37190*
X49781Y37103*
Y37103D02*
G01X49812Y37060D01*
Y37060D02*
G01X49875Y37017D01*
Y37017D02*
G01X50063Y36931D01*
Y36931D02*
G01X50126Y36888D01*
X50157Y36845*
Y36845D02*
G01X50189Y36758D01*
Y36758D02*
G01Y36629D01*
X50126Y36543*
X50032Y36500*
X49906*
Y36500D02*
G01X49812Y36543D01*
Y36543D02*
G01X49750Y36629D01*
X50471Y37405D02*
G01Y36500D01*
X50753Y37405D02*
G01Y36500D01*
Y36500D02*
G01X51130D01*
X51412Y37405D02*
G01Y36500D01*
X51851Y37405D02*
G01X51412Y36801D01*
X51569Y37017D02*
G01X51851Y36500D01*
X52572Y37276D02*
G01X52510Y37362D01*
Y37362D02*
G01X52416Y37405D01*
Y37405D02*
G01X52290D01*
Y37405D02*
G01X52196Y37362D01*
Y37362D02*
G01X52133Y37276D01*
Y37276D02*
G01Y37190D01*
Y37190D02*
G01X52165Y37103D01*
Y37103D02*
G01X52196Y37060D01*
Y37060D02*
G01X52259Y37017D01*
Y37017D02*
G01X52447Y36931D01*
X52510Y36888*
X52541Y36845*
Y36845D02*
G01X52572Y36758D01*
Y36758D02*
G01Y36629D01*
Y36629D02*
G01X52510Y36543D01*
X52416Y36500*
X52290*
Y36500D02*
G01X52196Y36543D01*
X52133Y36629*
X53325Y37190D02*
G01X53294Y37276D01*
X53231Y37362*
Y37362D02*
G01X53168Y37405D01*
Y37405D02*
G01X53043D01*
Y37405D02*
G01X52980Y37362D01*
Y37362D02*
G01X52917Y37276D01*
Y37276D02*
G01X52886Y37190D01*
Y37190D02*
G01X52855Y37060D01*
Y37060D02*
G01Y36845D01*
X52886Y36715*
Y36715D02*
G01X52917Y36629D01*
Y36629D02*
G01X52980Y36543D01*
Y36543D02*
G01X53043Y36500D01*
X53168*
Y36500D02*
G01X53231Y36543D01*
Y36543D02*
G01X53294Y36629D01*
X53325Y36715*
X53607Y37405D02*
G01Y36500D01*
Y37405D02*
G01X53890D01*
Y37405D02*
G01X53984Y37362D01*
Y37362D02*
G01X54015Y37319D01*
Y37319D02*
G01X54047Y37233D01*
Y37146*
Y37146D02*
G01X54015Y37060D01*
Y37060D02*
G01X53984Y37017D01*
Y37017D02*
G01X53890Y36974D01*
X53607*
X53827D02*
G01X54047Y36500D01*
X54329Y37405D02*
G01Y36500D01*
Y37405D02*
G01X54737D01*
X54329Y36974D02*
G01X54580D01*
X54329Y36500D02*
G01X54737D01*
X55019Y37405D02*
G01Y36500D01*
Y37405D02*
G01X55427D01*
X55019Y36974D02*
G01X55270D01*
X55019Y36500D02*
G01X55427D01*
X55709Y37405D02*
G01Y36500D01*
Y37405D02*
G01X56148Y36500D01*
Y37405D02*
G01Y36500D01*
X57371Y37405D02*
G01Y36500D01*
X57152Y37405D02*
G01X57591D01*
X58061D02*
G01X57999Y37362D01*
Y37362D02*
G01X57936Y37276D01*
X57904Y37190*
Y37190D02*
G01X57873Y37060D01*
Y37060D02*
G01Y36845D01*
Y36845D02*
G01X57904Y36715D01*
Y36715D02*
G01X57936Y36629D01*
X57999Y36543*
X58061Y36500*
Y36500D02*
G01X58187D01*
X58249Y36543*
Y36543D02*
G01X58312Y36629D01*
Y36629D02*
G01X58344Y36715D01*
Y36715D02*
G01X58375Y36845D01*
Y37060*
Y37060D02*
G01X58344Y37190D01*
X58312Y37276*
Y37276D02*
G01X58249Y37362D01*
Y37362D02*
G01X58187Y37405D01*
Y37405D02*
G01X58061D01*
X58657D02*
G01Y36500D01*
Y37405D02*
G01X58940D01*
Y37405D02*
G01X59034Y37362D01*
Y37362D02*
G01X59065Y37319D01*
X59096Y37233*
Y37233D02*
G01Y37103D01*
Y37103D02*
G01X59065Y37017D01*
Y37017D02*
G01X59034Y36974D01*
X58940Y36931*
X58657*
X49750Y41905D02*
G01X50189Y41000D01*
Y41905D02*
G01X49750Y41000D01*
X50471Y41905D02*
G01Y41000D01*
Y41905D02*
G01X50722Y41000D01*
X50973Y41905D02*
G01X50722Y41000D01*
X50973Y41905D02*
G01Y41000D01*
X51443Y41905D02*
G01X51380Y41862D01*
Y41862D02*
G01X51318Y41776D01*
X51286Y41690*
Y41690D02*
G01X51255Y41560D01*
Y41560D02*
G01Y41345D01*
Y41345D02*
G01X51286Y41215D01*
Y41215D02*
G01X51318Y41129D01*
X51380Y41043*
Y41043D02*
G01X51443Y41000D01*
Y41000D02*
G01X51569D01*
X51631Y41043*
Y41043D02*
G01X51694Y41129D01*
Y41129D02*
G01X51726Y41215D01*
Y41215D02*
G01X51757Y41345D01*
Y41560*
Y41560D02*
G01X51726Y41690D01*
X51694Y41776*
Y41776D02*
G01X51631Y41862D01*
Y41862D02*
G01X51569Y41905D01*
Y41905D02*
G01X51443D01*
X52478Y41776D02*
G01X52416Y41862D01*
Y41862D02*
G01X52321Y41905D01*
Y41905D02*
G01X52196D01*
Y41905D02*
G01X52102Y41862D01*
Y41862D02*
G01X52039Y41776D01*
Y41776D02*
G01Y41690D01*
Y41690D02*
G01X52071Y41603D01*
Y41603D02*
G01X52102Y41560D01*
Y41560D02*
G01X52165Y41517D01*
Y41517D02*
G01X52353Y41431D01*
X52416Y41388*
X52447Y41345*
X52478Y41258*
Y41258D02*
G01Y41129D01*
Y41129D02*
G01X52416Y41043D01*
X52321Y41000*
Y41000D02*
G01X52196D01*
X52102Y41043*
X52039Y41129*
X53482Y41905D02*
G01X53921Y41000D01*
Y41905D02*
G01X53482Y41000D01*
X54203Y41905D02*
G01Y41000D01*
X54642Y41905D02*
G01X54203Y41301D01*
X54360Y41517D02*
G01X54642Y41000D01*
X54925Y41388D02*
G01X55489D01*
X55772Y41733D02*
G01X55834Y41776D01*
Y41776D02*
G01X55928Y41905D01*
Y41905D02*
G01Y41000D01*
X56462Y41905D02*
G01X56211Y41000D01*
X56462Y41905D02*
G01X56713Y41000D01*
X56305Y41301D02*
G01X56618D01*
X57716Y41905D02*
G01Y41000D01*
Y41905D02*
G01X57999D01*
Y41905D02*
G01X58093Y41862D01*
Y41862D02*
G01X58124Y41819D01*
Y41819D02*
G01X58155Y41733D01*
Y41733D02*
G01Y41646D01*
Y41646D02*
G01X58124Y41560D01*
Y41560D02*
G01X58093Y41517D01*
Y41517D02*
G01X57999Y41474D01*
X57716*
X57936D02*
G01X58155Y41000D01*
X58438Y41905D02*
G01Y41000D01*
Y41905D02*
G01X58845D01*
X58438Y41474D02*
G01X58689D01*
X58438Y41000D02*
G01X58845D01*
X59128Y41905D02*
G01X59379Y41000D01*
X59630Y41905D02*
G01X59379Y41000D01*
X59943Y41086D02*
G01X59912Y41043D01*
X59943Y41000*
Y41000D02*
G01X59975Y41043D01*
X59943Y41086*
X60508Y41905D02*
G01X60257Y41000D01*
X60508Y41905D02*
G01X60759Y41000D01*
X60351Y41301D02*
G01X60665D01*
X62923Y41905D02*
G01X62609Y41000D01*
X62484Y41905D02*
G01X62923D01*
X63770Y42078D02*
G01X63205Y40698D01*
X64052Y41733D02*
G01X64115Y41776D01*
X64209Y41905*
Y41905D02*
G01Y41000D01*
X64523Y41690D02*
G01Y41733D01*
X64554Y41819*
X64585Y41862*
Y41862D02*
G01X64648Y41905D01*
Y41905D02*
G01X64773D01*
Y41905D02*
G01X64836Y41862D01*
Y41862D02*
G01X64868Y41819D01*
X64899Y41733*
Y41646*
Y41646D02*
G01X64868Y41560D01*
Y41560D02*
G01X64805Y41431D01*
X64491Y41000*
Y41000D02*
G01X64930D01*
X65777Y42078D02*
G01X65213Y40698D01*
X66059Y41733D02*
G01X66122Y41776D01*
Y41776D02*
G01X66216Y41905D01*
Y41905D02*
G01Y41000D01*
X66687Y41905D02*
G01X66593Y41862D01*
Y41862D02*
G01X66530Y41733D01*
X66499Y41517*
Y41517D02*
G01Y41388D01*
X66530Y41172*
Y41172D02*
G01X66593Y41043D01*
X66687Y41000*
X66749*
Y41000D02*
G01X66844Y41043D01*
X66906Y41172*
Y41172D02*
G01X66938Y41388D01*
Y41517*
Y41517D02*
G01X66906Y41733D01*
Y41733D02*
G01X66844Y41862D01*
Y41862D02*
G01X66749Y41905D01*
Y41905D02*
G01X66687D01*
X49969Y38905D02*
G01Y38000D01*
X49750Y38905D02*
G01X50189D01*
X50471D02*
G01Y38000D01*
Y38905D02*
G01X50879D01*
X50471Y38474D02*
G01X50722D01*
X50471Y38000D02*
G01X50879D01*
X51161Y38905D02*
G01X51600Y38000D01*
Y38905D02*
G01X51161Y38000D01*
X52102Y38905D02*
G01Y38000D01*
X51882Y38905D02*
G01X52321D01*
X53325D02*
G01Y38000D01*
Y38905D02*
G01X53607D01*
Y38905D02*
G01X53702Y38862D01*
Y38862D02*
G01X53733Y38819D01*
X53764Y38733*
Y38733D02*
G01Y38646D01*
Y38646D02*
G01X53733Y38560D01*
Y38560D02*
G01X53702Y38517D01*
Y38517D02*
G01X53607Y38474D01*
Y38474D02*
G01X53325D01*
X53545D02*
G01X53764Y38000D01*
X54047Y38905D02*
G01Y38000D01*
X54799Y38690D02*
G01X54768Y38776D01*
X54705Y38862*
Y38862D02*
G01X54642Y38905D01*
Y38905D02*
G01X54517D01*
Y38905D02*
G01X54454Y38862D01*
Y38862D02*
G01X54392Y38776D01*
X54360Y38690*
Y38690D02*
G01X54329Y38560D01*
Y38560D02*
G01Y38345D01*
X54360Y38215*
Y38215D02*
G01X54392Y38129D01*
X54454Y38043*
Y38043D02*
G01X54517Y38000D01*
Y38000D02*
G01X54642D01*
Y38000D02*
G01X54705Y38043D01*
Y38043D02*
G01X54768Y38129D01*
X54799Y38215*
Y38215D02*
G01Y38345D01*
X54642D02*
G01X54799D01*
X55082Y38905D02*
G01Y38000D01*
X55521Y38905D02*
G01Y38000D01*
X55082Y38474D02*
G01X55521D01*
X56023Y38905D02*
G01Y38000D01*
X55803Y38905D02*
G01X56242D01*
X57246D02*
G01Y38000D01*
Y38905D02*
G01X57528D01*
Y38905D02*
G01X57622Y38862D01*
Y38862D02*
G01X57654Y38819D01*
X57685Y38733*
Y38646*
Y38646D02*
G01X57654Y38560D01*
Y38560D02*
G01X57622Y38517D01*
Y38517D02*
G01X57528Y38474D01*
Y38474D02*
G01X57246D01*
X57465D02*
G01X57685Y38000D01*
X57967Y38905D02*
G01Y38000D01*
Y38905D02*
G01X58375D01*
X57967Y38474D02*
G01X58218D01*
X57967Y38000D02*
G01X58375D01*
X58908Y38905D02*
G01X58657Y38000D01*
X58908Y38905D02*
G01X59159Y38000D01*
X58751Y38301D02*
G01X59065D01*
X59441Y38905D02*
G01Y38000D01*
Y38905D02*
G01X59661D01*
Y38905D02*
G01X59755Y38862D01*
Y38862D02*
G01X59818Y38776D01*
X59849Y38690*
Y38690D02*
G01X59880Y38560D01*
Y38560D02*
G01Y38345D01*
Y38345D02*
G01X59849Y38215D01*
Y38215D02*
G01X59818Y38129D01*
X59755Y38043*
Y38043D02*
G01X59661Y38000D01*
X59441*
X60163Y38905D02*
G01Y38000D01*
X60445Y38905D02*
G01Y38000D01*
Y38905D02*
G01X60884Y38000D01*
Y38905D02*
G01Y38000D01*
X61637Y38690D02*
G01X61606Y38776D01*
X61543Y38862*
Y38862D02*
G01X61480Y38905D01*
Y38905D02*
G01X61355D01*
Y38905D02*
G01X61292Y38862D01*
Y38862D02*
G01X61229Y38776D01*
Y38776D02*
G01X61198Y38690D01*
X61166Y38560*
Y38560D02*
G01Y38345D01*
Y38345D02*
G01X61198Y38215D01*
Y38215D02*
G01X61229Y38129D01*
Y38129D02*
G01X61292Y38043D01*
X61355Y38000*
X61480*
Y38000D02*
G01X61543Y38043D01*
X61606Y38129*
X61637Y38215*
Y38215D02*
G01Y38345D01*
X61480D02*
G01X61637D01*
X62641Y38905D02*
G01Y38000D01*
Y38905D02*
G01X63048D01*
X62641Y38474D02*
G01X62892D01*
X63331Y38905D02*
G01Y38000D01*
Y38905D02*
G01X63613D01*
Y38905D02*
G01X63707Y38862D01*
Y38862D02*
G01X63738Y38819D01*
Y38819D02*
G01X63770Y38733D01*
Y38646*
Y38646D02*
G01X63738Y38560D01*
Y38560D02*
G01X63707Y38517D01*
Y38517D02*
G01X63613Y38474D01*
X63331*
X63550D02*
G01X63770Y38000D01*
X64240Y38905D02*
G01X64178Y38862D01*
Y38862D02*
G01X64115Y38776D01*
X64083Y38690*
Y38690D02*
G01X64052Y38560D01*
Y38560D02*
G01Y38345D01*
Y38345D02*
G01X64083Y38215D01*
Y38215D02*
G01X64115Y38129D01*
X64178Y38043*
X64240Y38000*
Y38000D02*
G01X64366D01*
X64428Y38043*
Y38043D02*
G01X64491Y38129D01*
Y38129D02*
G01X64523Y38215D01*
Y38215D02*
G01X64554Y38345D01*
Y38560*
Y38560D02*
G01X64523Y38690D01*
X64491Y38776*
Y38776D02*
G01X64428Y38862D01*
Y38862D02*
G01X64366Y38905D01*
Y38905D02*
G01X64240D01*
X64836D02*
G01Y38000D01*
Y38905D02*
G01X65087Y38000D01*
X65338Y38905D02*
G01X65087Y38000D01*
X65338Y38905D02*
G01Y38000D01*
X66561Y38905D02*
G01Y38000D01*
X66342Y38905D02*
G01X66781D01*
X67251D02*
G01X67189Y38862D01*
Y38862D02*
G01X67126Y38776D01*
X67094Y38690*
Y38690D02*
G01X67063Y38560D01*
Y38560D02*
G01Y38345D01*
Y38345D02*
G01X67094Y38215D01*
Y38215D02*
G01X67126Y38129D01*
X67189Y38043*
X67251Y38000*
Y38000D02*
G01X67377D01*
X67439Y38043*
Y38043D02*
G01X67502Y38129D01*
Y38129D02*
G01X67534Y38215D01*
Y38215D02*
G01X67565Y38345D01*
Y38560*
Y38560D02*
G01X67534Y38690D01*
X67502Y38776*
Y38776D02*
G01X67439Y38862D01*
Y38862D02*
G01X67377Y38905D01*
Y38905D02*
G01X67251D01*
X67847D02*
G01Y38000D01*
Y38905D02*
G01X68130D01*
Y38905D02*
G01X68224Y38862D01*
Y38862D02*
G01X68255Y38819D01*
X68286Y38733*
Y38733D02*
G01Y38603D01*
Y38603D02*
G01X68255Y38517D01*
Y38517D02*
G01X68224Y38474D01*
X68130Y38431*
X67847*
X69729Y38776D02*
G01X69666Y38862D01*
Y38862D02*
G01X69572Y38905D01*
Y38905D02*
G01X69447D01*
Y38905D02*
G01X69353Y38862D01*
Y38862D02*
G01X69290Y38776D01*
Y38776D02*
G01Y38690D01*
Y38690D02*
G01X69321Y38603D01*
Y38603D02*
G01X69353Y38560D01*
Y38560D02*
G01X69415Y38517D01*
Y38517D02*
G01X69604Y38431D01*
X69666Y38388*
Y38388D02*
G01X69698Y38345D01*
X69729Y38258*
Y38258D02*
G01Y38129D01*
Y38129D02*
G01X69666Y38043D01*
Y38043D02*
G01X69572Y38000D01*
Y38000D02*
G01X69447D01*
X69353Y38043*
X69290Y38129*
X70011Y38905D02*
G01Y38000D01*
X70294Y38905D02*
G01Y38000D01*
Y38905D02*
G01X70513D01*
Y38905D02*
G01X70607Y38862D01*
Y38862D02*
G01X70670Y38776D01*
Y38776D02*
G01X70701Y38690D01*
Y38690D02*
G01X70733Y38560D01*
Y38560D02*
G01Y38345D01*
X70701Y38215*
Y38215D02*
G01X70670Y38129D01*
Y38129D02*
G01X70607Y38043D01*
Y38043D02*
G01X70513Y38000D01*
Y38000D02*
G01X70294D01*
X71015Y38905D02*
G01Y38000D01*
Y38905D02*
G01X71423D01*
X71015Y38474D02*
G01X71266D01*
X71015Y38000D02*
G01X71423D01*
X72646Y39078D02*
G01X72583Y38991D01*
Y38991D02*
G01X72521Y38862D01*
Y38862D02*
G01X72458Y38690D01*
X72427Y38474*
Y38301*
Y38301D02*
G01X72458Y38086D01*
X72521Y37913*
Y37913D02*
G01X72583Y37784D01*
Y37784D02*
G01X72646Y37698D01*
X72928Y38905D02*
G01Y38000D01*
Y38000D02*
G01X73305D01*
X73838Y38905D02*
G01X73587Y38000D01*
X73838Y38905D02*
G01X74089Y38000D01*
X73681Y38301D02*
G01X73995D01*
X74371Y38905D02*
G01X74622Y38474D01*
Y38474D02*
G01Y38000D01*
X74873Y38905D02*
G01X74622Y38474D01*
X75155Y38905D02*
G01Y38000D01*
Y38905D02*
G01X75563D01*
X75155Y38474D02*
G01X75406D01*
X75155Y38000D02*
G01X75563D01*
X75845Y38905D02*
G01Y38000D01*
Y38905D02*
G01X76128D01*
Y38905D02*
G01X76222Y38862D01*
Y38862D02*
G01X76253Y38819D01*
Y38819D02*
G01X76284Y38733D01*
Y38733D02*
G01Y38646D01*
Y38646D02*
G01X76253Y38560D01*
Y38560D02*
G01X76222Y38517D01*
Y38517D02*
G01X76128Y38474D01*
X75845*
X76065D02*
G01X76284Y38000D01*
X76567Y38733D02*
G01X76629Y38776D01*
Y38776D02*
G01X76724Y38905D01*
Y38905D02*
G01Y38000D01*
X77006Y39078D02*
G01X77069Y38991D01*
Y38991D02*
G01X77131Y38862D01*
Y38862D02*
G01X77194Y38690D01*
Y38690D02*
G01X77225Y38474D01*
Y38474D02*
G01Y38301D01*
Y38301D02*
G01X77194Y38086D01*
Y38086D02*
G01X77131Y37913D01*
Y37913D02*
G01X77069Y37784D01*
X77006Y37698*
X59000Y90905D02*
G01Y90000D01*
Y90905D02*
G01X59282D01*
Y90905D02*
G01X59376Y90862D01*
Y90862D02*
G01X59407Y90819D01*
Y90819D02*
G01X59439Y90733D01*
Y90646*
Y90646D02*
G01X59407Y90560D01*
Y90560D02*
G01X59376Y90517D01*
Y90517D02*
G01X59282Y90474D01*
X59000*
X59219D02*
G01X59439Y90000D01*
X59721Y90905D02*
G01Y90000D01*
Y90905D02*
G01X60129D01*
X59721Y90474D02*
G01X59972D01*
X59721Y90000D02*
G01X60129D01*
X60411Y90905D02*
G01X60662Y90000D01*
X60913Y90905D02*
G01X60662Y90000D01*
X61226Y90086D02*
G01X61195Y90043D01*
Y90043D02*
G01X61226Y90000D01*
Y90000D02*
G01X61258Y90043D01*
X61226Y90086*
X61791Y90905D02*
G01X61540Y90000D01*
X61791Y90905D02*
G01X62042Y90000D01*
X61634Y90301D02*
G01X61948D01*
G54D100*
X57600Y89518D02*
G01X58554Y87550D01*
Y89518D02*
G01X57600Y87550D01*
X59168Y89518D02*
G01Y87550D01*
Y89518D02*
G01X59713Y87550D01*
X60259Y89518D02*
G01X59713Y87550D01*
X60259Y89518D02*
G01Y87550D01*
X61281Y89518D02*
G01X61145Y89425D01*
X61009Y89237*
Y89237D02*
G01X60940Y89050D01*
Y89050D02*
G01X60872Y88768D01*
Y88768D02*
G01Y88300D01*
Y88300D02*
G01X60940Y88018D01*
Y88018D02*
G01X61009Y87831D01*
X61145Y87643*
Y87643D02*
G01X61281Y87550D01*
Y87550D02*
G01X61554D01*
Y87550D02*
G01X61690Y87643D01*
Y87643D02*
G01X61827Y87831D01*
X61895Y88018*
Y88018D02*
G01X61963Y88300D01*
Y88300D02*
G01Y88768D01*
Y88768D02*
G01X61895Y89050D01*
X61827Y89237*
Y89237D02*
G01X61690Y89425D01*
Y89425D02*
G01X61554Y89518D01*
Y89518D02*
G01X61281D01*
X63531Y89237D02*
G01X63395Y89425D01*
X63190Y89518*
Y89518D02*
G01X62918D01*
Y89518D02*
G01X62713Y89425D01*
Y89425D02*
G01X62577Y89237D01*
Y89237D02*
G01Y89050D01*
X62645Y88862*
Y88862D02*
G01X62713Y88768D01*
Y88768D02*
G01X62850Y88675D01*
X63259Y88487*
Y88487D02*
G01X63395Y88393D01*
Y88393D02*
G01X63463Y88300D01*
Y88300D02*
G01X63531Y88112D01*
Y88112D02*
G01Y87831D01*
Y87831D02*
G01X63395Y87643D01*
Y87643D02*
G01X63190Y87550D01*
Y87550D02*
G01X62918D01*
X62713Y87643*
Y87643D02*
G01X62577Y87831D01*
X57850Y79340D02*
G01Y77700D01*
X58531*
X59043Y79028D02*
G01X59156Y79106D01*
Y79106D02*
G01X59327Y79340D01*
Y79340D02*
G01Y77700D01*
X59838Y78403D02*
G01X60861D01*
X61372Y79028D02*
G01X61486Y79106D01*
X61656Y79340*
Y79340D02*
G01Y77700D01*
X62225Y78950D02*
G01Y79028D01*
X62281Y79184*
Y79184D02*
G01X62338Y79262D01*
Y79262D02*
G01X62452Y79340D01*
Y79340D02*
G01X62679D01*
Y79340D02*
G01X62793Y79262D01*
Y79262D02*
G01X62850Y79184D01*
X62906Y79028*
Y79028D02*
G01Y78871D01*
Y78871D02*
G01X62850Y78715D01*
Y78715D02*
G01X62736Y78481D01*
X62168Y77700*
X62963*
X63759Y79340D02*
G01X63588Y79262D01*
Y79262D02*
G01X63531Y79106D01*
Y79106D02*
G01Y78950D01*
Y78950D02*
G01X63588Y78793D01*
Y78793D02*
G01X63702Y78715D01*
Y78715D02*
G01X63929Y78637D01*
Y78637D02*
G01X64100Y78559D01*
X64213Y78403*
Y78403D02*
G01X64270Y78246D01*
Y78246D02*
G01Y78012D01*
Y78012D02*
G01X64213Y77856D01*
Y77856D02*
G01X64156Y77778D01*
Y77778D02*
G01X63986Y77700D01*
X63759*
X63588Y77778*
Y77778D02*
G01X63531Y77856D01*
Y77856D02*
G01X63475Y78012D01*
Y78012D02*
G01Y78246D01*
Y78246D02*
G01X63531Y78403D01*
Y78403D02*
G01X63645Y78559D01*
X63815Y78637*
Y78637D02*
G01X64043Y78715D01*
Y78715D02*
G01X64156Y78793D01*
Y78793D02*
G01X64213Y78950D01*
Y78950D02*
G01Y79106D01*
Y79106D02*
G01X64156Y79262D01*
Y79262D02*
G01X63986Y79340D01*
Y79340D02*
G01X63759D01*
X58550Y76940D02*
G01X59345Y75300D01*
Y76940D02*
G01X58550Y75300D01*
X59856Y76940D02*
G01Y75300D01*
X60652Y76940D02*
G01X59856Y75846D01*
X60140Y76237D02*
G01X60652Y75300D01*
X61163Y76003D02*
G01X62186D01*
X62697Y76628D02*
G01X62811Y76706D01*
X62981Y76940*
Y76940D02*
G01Y75300D01*
X63947Y76940D02*
G01X63493Y75300D01*
X63947Y76940D02*
G01X64402Y75300D01*
X63663Y75846D02*
G01X64231D01*
G54D101*
X97700Y60700D02*
G01Y59300D01*
X95300Y60700D02*
G01Y59300D01*
X87950Y70050D02*
G01X86550D01*
X87950Y72450D02*
G01X86550D01*
X87950Y73550D02*
G01X86550D01*
X87950Y75950D02*
G01X86550D01*
G54D102*
X54531Y56513D02*
G01Y56195D01*
X54925Y56163*
Y56163D02*
G01X54881Y56195D01*
X54837Y56290*
Y56290D02*
G01Y56386D01*
Y56386D02*
G01X54881Y56481D01*
Y56481D02*
G01X54968Y56545D01*
Y56545D02*
G01X55100Y56577D01*
X55187Y56545*
Y56545D02*
G01X55318Y56513D01*
Y56513D02*
G01X55406Y56449D01*
Y56449D02*
G01X55450Y56354D01*
Y56354D02*
G01Y56259D01*
X55406Y56163*
Y56163D02*
G01X55362Y56131D01*
Y56131D02*
G01X55275Y56100D01*
X54531Y56863D02*
G01X55450Y57118D01*
X54531Y57372D02*
G01X55450Y57118D01*
X54531Y57659D02*
G01X55450D01*
X54531Y57945D02*
G01X55450D01*
X54531D02*
G01X55450Y58390D01*
X54531D02*
G01X55450D01*
X74550Y93865D02*
G01Y92750D01*
X75129Y93865D02*
G01X75052Y93812D01*
X74974Y93706*
Y93706D02*
G01X74936Y93599D01*
Y93599D02*
G01X74897Y93440D01*
Y93440D02*
G01Y93174D01*
Y93174D02*
G01X74936Y93015D01*
Y93015D02*
G01X74974Y92909D01*
Y92909D02*
G01X75052Y92803D01*
X75129Y92750*
X75283*
Y92750D02*
G01X75361Y92803D01*
X75438Y92909*
X75477Y93015*
Y93015D02*
G01X75515Y93174D01*
Y93174D02*
G01Y93440D01*
Y93440D02*
G01X75477Y93599D01*
Y93599D02*
G01X75438Y93706D01*
X75361Y93812*
X75283Y93865*
Y93865D02*
G01X75129D01*
X75863D02*
G01Y92750D01*
Y93865D02*
G01X76211D01*
X76326Y93812*
Y93812D02*
G01X76365Y93759D01*
Y93759D02*
G01X76404Y93652D01*
Y93652D02*
G01Y93546D01*
Y93546D02*
G01X76365Y93440D01*
Y93440D02*
G01X76326Y93387D01*
Y93387D02*
G01X76211Y93334D01*
X75863D02*
G01X76211D01*
X76326Y93281*
Y93281D02*
G01X76365Y93228D01*
Y93228D02*
G01X76404Y93121D01*
Y93121D02*
G01Y92962D01*
X76365Y92856*
Y92856D02*
G01X76326Y92803D01*
Y92803D02*
G01X76211Y92750D01*
X75863*
X66356Y93600D02*
G01X66312Y93663D01*
Y93663D02*
G01X66181Y93759D01*
X67100*
X56050Y63443D02*
G01X56113Y63487D01*
Y63487D02*
G01X56209Y63618D01*
Y63618D02*
G01Y62700D01*
X87106Y55950D02*
G01X87062Y56013D01*
Y56013D02*
G01X86931Y56109D01*
X87850*
X95206Y62200D02*
G01X95162Y62263D01*
Y62263D02*
G01X95031Y62359D01*
X95950*
G54D116*
X73295Y70883D02*
G01X75607D01*
Y72107*
X73295*
Y72107D02*
G01Y70883D01*
X61635Y62701D02*
G01Y60390D01*
X62859*
Y60390D02*
G01Y62701D01*
Y62701D02*
G01X61635D01*
X57098Y63385D02*
G01X59409D01*
Y63385D02*
G01Y64609D01*
Y64609D02*
G01X57098D01*
Y64609D02*
G01Y63385D01*
X60885Y67701D02*
G01Y65390D01*
X62109*
Y65390D02*
G01Y67701D01*
Y67701D02*
G01X60885D01*
X62385D02*
G01Y65390D01*
X63609*
Y65390D02*
G01Y67701D01*
Y67701D02*
G01X62385D01*
X61831Y84952D02*
G01X59520D01*
Y83727*
Y83727D02*
G01X61831D01*
Y83727D02*
G01Y84952D01*
X90201Y85114D02*
G01X87890D01*
Y85114D02*
G01Y83890D01*
X90201*
Y83890D02*
G01Y85114D01*
X60251Y73714D02*
G01X57940D01*
Y73714D02*
G01Y72490D01*
X60251*
Y72490D02*
G01Y73714D01*
X62084Y68349D02*
G01X56306D01*
X56369*
Y68349D02*
G01Y71651D01*
Y71651D02*
G01X62084D01*
Y71651D02*
G01Y68349D01*
X70840Y57984D02*
G01X70713D01*
Y57984D02*
G01Y57222D01*
Y57222D02*
G01X70053D01*
X68326D02*
G01X67665D01*
Y57222D02*
G01Y57984D01*
X92575Y54250D02*
G01X90937D01*
Y54250D02*
G01Y57171D01*
Y57171D02*
G01X92575D01*
Y57171D02*
G01Y54250D01*
X79246Y71323D02*
G01Y69685D01*
Y69685D02*
G01X76325D01*
Y69685D02*
G01Y71323D01*
Y71323D02*
G01X79246D01*
X66999Y67825D02*
G01Y66187D01*
X64078*
Y67825*
Y67825D02*
G01X66999D01*
X67749Y65825D02*
G01Y64187D01*
X64828*
Y65825*
Y65825D02*
G01X67749D01*
X90250Y75424D02*
G01Y77062D01*
Y77062D02*
G01X93171D01*
Y77062D02*
G01Y75424D01*
Y75424D02*
G01X90250D01*
Y69174D02*
G01Y70812D01*
Y70812D02*
G01X93171D01*
Y70812D02*
G01Y69174D01*
Y69174D02*
G01X90250D01*
X90325Y54250D02*
G01X88687D01*
Y54250D02*
G01Y57171D01*
Y57171D02*
G01X90325D01*
Y57171D02*
G01Y54250D01*
X57884Y95456D02*
G01X59523D01*
Y92535*
X57884*
Y92535D02*
G01Y95456D01*
X62535Y92535D02*
G01X60897D01*
Y95456*
X62535*
Y95456D02*
G01Y92535D01*
X89533D02*
G01X87895D01*
Y95456*
X89533*
Y92535*
X92533D02*
G01X90894D01*
Y92535D02*
G01Y95456D01*
Y95456D02*
G01X92533D01*
Y92535*
X90250Y87174D02*
G01Y88812D01*
Y88812D02*
G01X93171D01*
Y88812D02*
G01Y87174D01*
Y87174D02*
G01X90250D01*
X97999Y58075D02*
G01Y56437D01*
X95078*
Y58075*
Y58075D02*
G01X97999D01*
X70499Y62125D02*
G01Y60487D01*
X67578*
Y62125*
Y62125D02*
G01X70499D01*
X67075Y60000D02*
G01X65437D01*
Y60000D02*
G01Y62921D01*
Y62921D02*
G01X67075D01*
Y62921D02*
G01Y60000D01*
X59535Y95535D02*
G01X57897D01*
Y95535D02*
G01Y98456D01*
Y98456D02*
G01X59535D01*
Y98456D02*
G01Y95535D01*
X62535D02*
G01X60897D01*
Y98456*
X62535*
Y98456D02*
G01Y95535D01*
X89533D02*
G01X87895D01*
Y98456*
X89533*
Y95535*
X92533D02*
G01X90894D01*
Y95535D02*
G01Y98456D01*
Y98456D02*
G01X92533D01*
Y95535*
X94825Y58500D02*
G01X93187D01*
Y58500D02*
G01Y61421D01*
Y61421D02*
G01X94825D01*
Y61421D02*
G01Y58500D01*
X90250Y71174D02*
G01Y72812D01*
Y72812D02*
G01X93171D01*
Y72812D02*
G01Y71174D01*
Y71174D02*
G01X90250D01*
Y73174D02*
G01Y74812D01*
Y74812D02*
G01X93171D01*
Y74812D02*
G01Y73174D01*
Y73174D02*
G01X90250D01*
X93066Y61811D02*
G01X94000D01*
X93066D02*
G01Y62101D01*
Y62101D02*
G01X93111Y62198D01*
Y62198D02*
G01X93155Y62231D01*
X93244Y62263*
Y62263D02*
G01X93333D01*
Y62263D02*
G01X93422Y62231D01*
X93466Y62198*
Y62198D02*
G01X93511Y62101D01*
Y62101D02*
G01Y61811D01*
Y62037D02*
G01X94000Y62263D01*
X93244Y62554D02*
G01X93199Y62619D01*
Y62619D02*
G01X93066Y62716D01*
Y62716D02*
G01X94000D01*
X93288Y63039D02*
G01X93244D01*
X93155Y63071*
Y63071D02*
G01X93111Y63104D01*
X93066Y63168*
Y63168D02*
G01Y63298D01*
Y63298D02*
G01X93111Y63362D01*
Y63362D02*
G01X93155Y63395D01*
X93244Y63427*
X93333*
X93422Y63395*
X93555Y63330*
Y63330D02*
G01X94000Y63007D01*
Y63459*
X88977Y71299D02*
G01X89911D01*
X88977D02*
G01Y71590D01*
Y71590D02*
G01X89022Y71687D01*
Y71687D02*
G01X89066Y71720D01*
X89155Y71752*
Y71752D02*
G01X89244D01*
Y71752D02*
G01X89333Y71720D01*
X89377Y71687*
Y71687D02*
G01X89422Y71590D01*
Y71590D02*
G01Y71299D01*
Y71526D02*
G01X89911Y71752D01*
X89155Y72043D02*
G01X89110Y72108D01*
Y72108D02*
G01X88977Y72205D01*
Y72205D02*
G01X89911D01*
X88977Y72948D02*
G01X89911Y72625D01*
X88977Y72496D02*
G01Y72948D01*
X88927Y73199D02*
G01X89861D01*
X88927D02*
G01Y73490D01*
Y73490D02*
G01X88972Y73587D01*
Y73587D02*
G01X89016Y73620D01*
X89105Y73652*
Y73652D02*
G01X89194D01*
Y73652D02*
G01X89283Y73620D01*
X89327Y73587*
Y73587D02*
G01X89372Y73490D01*
Y73490D02*
G01Y73199D01*
Y73426D02*
G01X89861Y73652D01*
X89105Y73943D02*
G01X89060Y74008D01*
Y74008D02*
G01X88927Y74105D01*
Y74105D02*
G01X89861D01*
X88927Y74557D02*
G01X88972Y74460D01*
Y74460D02*
G01X89060Y74428D01*
Y74428D02*
G01X89149D01*
Y74428D02*
G01X89238Y74460D01*
Y74460D02*
G01X89283Y74525D01*
X89327Y74654*
Y74654D02*
G01X89372Y74751D01*
Y74751D02*
G01X89460Y74816D01*
Y74816D02*
G01X89549Y74848D01*
Y74848D02*
G01X89683D01*
Y74848D02*
G01X89772Y74816D01*
X89816Y74783*
Y74783D02*
G01X89861Y74687D01*
Y74557*
Y74557D02*
G01X89816Y74460D01*
Y74460D02*
G01X89772Y74428D01*
X89683Y74396*
X89549*
Y74396D02*
G01X89460Y74428D01*
Y74428D02*
G01X89372Y74493D01*
X89327Y74590*
Y74590D02*
G01X89283Y74719D01*
X89238Y74783*
Y74783D02*
G01X89149Y74816D01*
Y74816D02*
G01X89060D01*
Y74816D02*
G01X88972Y74783D01*
Y74783D02*
G01X88927Y74687D01*
Y74687D02*
G01Y74557D01*
G54D117*
X88533Y83314D02*
G01X90438D01*
Y78869*
X88533*
Y83314*
X90438Y82679D02*
G01X88533D01*
G54D118*
X58560Y83286D02*
G75*
G03X58560Y83286I-179D01*
X57151Y59348D02*
G01Y50057D01*
X65143*
Y50057D02*
G01Y59348D01*
Y59348D02*
G01X57151D01*
X60000Y61850D02*
G01Y61250D01*
Y63100D02*
G01X57750D01*
X60050Y60000D02*
G01X57700D01*
X57550Y63250D02*
G03X57550Y63250I-150D01*
X60000Y66850D02*
G01Y66250D01*
Y68100D02*
G01X57750D01*
X60050Y65000D02*
G01X57700D01*
X57550Y68250D02*
G03X57550Y68250I-150D01*
X98223Y61100D02*
G03X98223Y61100I-223D01*
X88573Y69750D02*
G03X88573Y69750I-223D01*
Y73250D02*
G03X88573Y73250I-223D01*
X65230Y94230D02*
G01Y99310D01*
X85550*
Y94230*
X65230*
X88020Y55570D02*
G01Y50490D01*
X67700*
Y55570*
X88020*
X108100Y62230D02*
G01X99600D01*
Y87630*
X108000*
X108100Y62230*
X99600*
Y87630*
X108000*
X108100Y62230*
X108000Y73480D02*
G01X100500D01*
Y76020*
X108000*
Y73480*
X50790Y58400D02*
G01X42500D01*
Y91450*
X50790*
Y58400*
X43070Y64135D02*
G01Y62865D01*
X44340Y63500*
X43070Y64135*
X63070Y71575D02*
G01X63138Y71621D01*
Y71621D02*
G01X63240Y71762D01*
Y71762D02*
G01Y70778D01*
X63547Y71762D02*
G01X63820Y70778D01*
X64093Y71762D02*
G01X63820Y70778D01*
X61313Y63875D02*
G01X61663D01*
Y63875D02*
G01X61472Y63525D01*
Y63525D02*
G01X61568D01*
X61631Y63481*
Y63481D02*
G01X61663Y63437D01*
Y63437D02*
G01X61695Y63306D01*
Y63218*
Y63218D02*
G01X61663Y63087D01*
Y63087D02*
G01X61600Y63000D01*
X61504Y62956*
Y62956D02*
G01X61409D01*
X61313Y63000*
Y63000D02*
G01X61281Y63043D01*
Y63043D02*
G01X61250Y63131D01*
X61981Y63875D02*
G01X62236Y62956D01*
X62490Y63875D02*
G01X62236Y62956D01*
X62840Y63875D02*
G01X63190D01*
Y63875D02*
G01X63000Y63525D01*
X63095*
X63159Y63481*
X63190Y63437*
Y63437D02*
G01X63222Y63306D01*
Y63306D02*
G01Y63218D01*
Y63218D02*
G01X63190Y63087D01*
Y63087D02*
G01X63127Y63000D01*
X63031Y62956*
Y62956D02*
G01X62936D01*
X62840Y63000*
Y63000D02*
G01X62809Y63043D01*
Y63043D02*
G01X62777Y63131D01*
X80143Y59800D02*
G01X81128D01*
X80143D02*
G01Y60106D01*
Y60106D02*
G01X80190Y60209D01*
Y60209D02*
G01X80237Y60243D01*
Y60243D02*
G01X80331Y60277D01*
X80425*
X80518Y60243*
Y60243D02*
G01X80565Y60209D01*
Y60209D02*
G01X80612Y60106D01*
Y59800D02*
G01Y60106D01*
Y60106D02*
G01X80659Y60209D01*
X80706Y60243*
X80800Y60277*
X80940*
Y60277D02*
G01X81034Y60243D01*
X81081Y60209*
X81128Y60106*
Y60106D02*
G01Y59800D01*
X80143Y60584D02*
G01X80846D01*
Y60584D02*
G01X80987Y60618D01*
Y60618D02*
G01X81081Y60686D01*
X81128Y60788*
Y60788D02*
G01Y60856D01*
Y60856D02*
G01X81081Y60959D01*
X80987Y61027*
Y61027D02*
G01X80846Y61061D01*
Y61061D02*
G01X80143D01*
Y61606D02*
G01X81128D01*
X80143Y61368D02*
G01Y61845D01*
Y62390D02*
G01X81128D01*
X80143Y62152D02*
G01Y62629D01*
Y63140D02*
G01X80190Y63072D01*
Y63072D02*
G01X80284Y63004D01*
Y63004D02*
G01X80378Y62970D01*
X80518Y62936*
Y62936D02*
G01X80753D01*
X80893Y62970*
Y62970D02*
G01X80987Y63004D01*
Y63004D02*
G01X81081Y63072D01*
Y63072D02*
G01X81128Y63140D01*
Y63140D02*
G01Y63277D01*
X81081Y63345*
X80987Y63413*
Y63413D02*
G01X80893Y63447D01*
Y63447D02*
G01X80753Y63481D01*
Y63481D02*
G01X80518D01*
Y63481D02*
G01X80378Y63447D01*
Y63447D02*
G01X80284Y63413D01*
Y63413D02*
G01X80190Y63345D01*
Y63345D02*
G01X80143Y63277D01*
Y63277D02*
G01Y63140D01*
Y63788D02*
G01X81128D01*
X80143D02*
G01X81128Y64265D01*
X80143D02*
G01X81128D01*
X81315Y64572D02*
G01Y65288D01*
X80331Y65493D02*
G01X80284Y65561D01*
X80143Y65663*
Y65663D02*
G01X81128D01*
X88193Y59903D02*
G01X89178D01*
X88193D02*
G01Y60210D01*
Y60210D02*
G01X88240Y60312D01*
Y60312D02*
G01X88287Y60346D01*
Y60346D02*
G01X88381Y60380D01*
Y60380D02*
G01X88475D01*
Y60380D02*
G01X88568Y60346D01*
Y60346D02*
G01X88615Y60312D01*
Y60312D02*
G01X88662Y60210D01*
Y59903D02*
G01Y60210D01*
Y60210D02*
G01X88709Y60312D01*
Y60312D02*
G01X88756Y60346D01*
Y60346D02*
G01X88850Y60380D01*
Y60380D02*
G01X88990D01*
Y60380D02*
G01X89084Y60346D01*
Y60346D02*
G01X89131Y60312D01*
Y60312D02*
G01X89178Y60210D01*
Y59903*
X88193Y60687D02*
G01X88896D01*
Y60687D02*
G01X89037Y60721D01*
Y60721D02*
G01X89131Y60789D01*
Y60789D02*
G01X89178Y60892D01*
Y60960*
X89131Y61062*
Y61062D02*
G01X89037Y61130D01*
Y61130D02*
G01X88896Y61164D01*
Y61164D02*
G01X88193D01*
Y61710D02*
G01X89178D01*
X88193Y61471D02*
G01Y61948D01*
Y62494D02*
G01X89178D01*
X88193Y62255D02*
G01Y62732D01*
Y63244D02*
G01X88240Y63176D01*
Y63176D02*
G01X88334Y63107D01*
Y63107D02*
G01X88428Y63073D01*
Y63073D02*
G01X88568Y63039D01*
Y63039D02*
G01X88803D01*
Y63039D02*
G01X88943Y63073D01*
Y63073D02*
G01X89037Y63107D01*
Y63107D02*
G01X89131Y63176D01*
X89178Y63244*
Y63380*
Y63380D02*
G01X89131Y63448D01*
Y63448D02*
G01X89037Y63517D01*
Y63517D02*
G01X88943Y63551D01*
Y63551D02*
G01X88803Y63585D01*
X88568*
Y63585D02*
G01X88428Y63551D01*
X88334Y63517*
X88240Y63448*
Y63448D02*
G01X88193Y63380D01*
Y63380D02*
G01Y63244D01*
Y63892D02*
G01X89178D01*
X88193D02*
G01X89178Y64369D01*
X88193D02*
G01X89178D01*
X89365Y64676D02*
G01Y65392D01*
X88428Y65630D02*
G01X88381D01*
Y65630D02*
G01X88287Y65664D01*
Y65664D02*
G01X88240Y65698D01*
Y65698D02*
G01X88193Y65767D01*
Y65767D02*
G01Y65903D01*
Y65903D02*
G01X88240Y65971D01*
Y65971D02*
G01X88287Y66005D01*
Y66005D02*
G01X88381Y66039D01*
Y66039D02*
G01X88475D01*
Y66039D02*
G01X88568Y66005D01*
Y66005D02*
G01X88709Y65937D01*
Y65937D02*
G01X89178Y65596D01*
Y65596D02*
G01Y66073D01*
X74398Y70328D02*
G01X74364Y70421D01*
Y70421D02*
G01X74296Y70515D01*
Y70515D02*
G01X74228Y70562D01*
Y70562D02*
G01X74092D01*
Y70562D02*
G01X74023Y70515D01*
Y70515D02*
G01X73955Y70421D01*
Y70421D02*
G01X73921Y70328D01*
Y70328D02*
G01X73887Y70187D01*
Y70187D02*
G01Y69953D01*
Y69953D02*
G01X73921Y69812D01*
Y69812D02*
G01X73955Y69718D01*
Y69718D02*
G01X74023Y69625D01*
Y69625D02*
G01X74092Y69578D01*
X74228*
X74296Y69625*
Y69625D02*
G01X74364Y69718D01*
Y69718D02*
G01X74398Y69812D01*
X74705Y70375D02*
G01X74773Y70421D01*
Y70421D02*
G01X74876Y70562D01*
Y70562D02*
G01Y69578D01*
X63215Y60822D02*
G01X63134Y60793D01*
X63053Y60734*
X63012Y60675*
Y60556*
Y60556D02*
G01X63053Y60497D01*
Y60497D02*
G01X63134Y60438D01*
Y60438D02*
G01X63215Y60409D01*
Y60409D02*
G01X63337Y60379D01*
Y60379D02*
G01X63540D01*
Y60379D02*
G01X63662Y60409D01*
X63743Y60438*
Y60438D02*
G01X63825Y60497D01*
Y60497D02*
G01X63865Y60556D01*
Y60556D02*
G01Y60675D01*
Y60675D02*
G01X63825Y60734D01*
X63743Y60793*
Y60793D02*
G01X63662Y60822D01*
X63012Y61147D02*
G01Y61472D01*
Y61472D02*
G01X63337Y61295D01*
Y61384*
X63378Y61443*
X63418Y61472*
Y61472D02*
G01X63540Y61502D01*
Y61502D02*
G01X63621D01*
Y61502D02*
G01X63743Y61472D01*
Y61472D02*
G01X63825Y61413D01*
Y61413D02*
G01X63865Y61325D01*
Y61325D02*
G01Y61236D01*
Y61236D02*
G01X63825Y61147D01*
Y61147D02*
G01X63784Y61118D01*
X63703Y61088*
X59951Y63989D02*
G01X59857Y63955D01*
X59763Y63887*
Y63887D02*
G01X59716Y63819D01*
Y63819D02*
G01Y63682D01*
Y63682D02*
G01X59763Y63614D01*
Y63614D02*
G01X59857Y63546D01*
X59951Y63512*
X60091Y63478*
Y63478D02*
G01X60326D01*
X60466Y63512*
Y63512D02*
G01X60560Y63546D01*
Y63546D02*
G01X60654Y63614D01*
X60701Y63682*
Y63682D02*
G01Y63819D01*
X60654Y63887*
X60560Y63955*
Y63955D02*
G01X60466Y63989D01*
X60044Y64739D02*
G01X60185Y64705D01*
Y64705D02*
G01X60279Y64637D01*
X60326Y64534*
Y64534D02*
G01Y64500D01*
Y64500D02*
G01X60279Y64398D01*
Y64398D02*
G01X60185Y64330D01*
Y64330D02*
G01X60044Y64296D01*
Y64296D02*
G01X59998D01*
X59857Y64330*
X59763Y64398*
Y64398D02*
G01X59716Y64500D01*
Y64500D02*
G01Y64534D01*
Y64534D02*
G01X59763Y64637D01*
Y64637D02*
G01X59857Y64705D01*
X60044Y64739*
Y64739D02*
G01X60279D01*
X60513Y64705*
Y64705D02*
G01X60654Y64637D01*
X60701Y64534*
Y64534D02*
G01Y64466D01*
Y64466D02*
G01X60654Y64364D01*
X60560Y64330*
X61383Y64845D02*
G01X61349Y64939D01*
X61280Y65032*
Y65032D02*
G01X61212Y65079D01*
Y65079D02*
G01X61076D01*
Y65079D02*
G01X61008Y65032D01*
Y65032D02*
G01X60940Y64939D01*
X60905Y64845*
Y64845D02*
G01X60871Y64704D01*
Y64704D02*
G01Y64470D01*
Y64470D02*
G01X60905Y64329D01*
Y64329D02*
G01X60940Y64236D01*
X61008Y64142*
X61076Y64095*
X61212*
Y64095D02*
G01X61280Y64142D01*
Y64142D02*
G01X61349Y64236D01*
X61383Y64329*
X61690Y64892D02*
G01X61758Y64939D01*
X61860Y65079*
Y65079D02*
G01Y64095D01*
X62371Y65079D02*
G01X62269Y65032D01*
Y65032D02*
G01X62201Y64892D01*
X62167Y64657*
Y64657D02*
G01Y64517D01*
X62201Y64282*
Y64282D02*
G01X62269Y64142D01*
Y64142D02*
G01X62371Y64095D01*
Y64095D02*
G01X62440D01*
X62542Y64142*
X62610Y64282*
Y64282D02*
G01X62644Y64517D01*
Y64517D02*
G01Y64657D01*
Y64657D02*
G01X62610Y64892D01*
Y64892D02*
G01X62542Y65032D01*
Y65032D02*
G01X62440Y65079D01*
Y65079D02*
G01X62371D01*
X63845Y64171D02*
G01X63764Y64141D01*
Y64141D02*
G01X63682Y64082D01*
Y64082D02*
G01X63642Y64023D01*
Y64023D02*
G01Y63905D01*
X63682Y63846*
Y63846D02*
G01X63764Y63787D01*
X63845Y63757*
Y63757D02*
G01X63967Y63728D01*
X64170*
X64292Y63757*
Y63757D02*
G01X64373Y63787D01*
Y63787D02*
G01X64454Y63846D01*
Y63846D02*
G01X64495Y63905D01*
Y64023*
Y64023D02*
G01X64454Y64082D01*
Y64082D02*
G01X64373Y64141D01*
Y64141D02*
G01X64292Y64171D01*
X63804Y64437D02*
G01X63764Y64496D01*
X63642Y64584*
Y64584D02*
G01X64495D01*
X63642Y64998D02*
G01X63682Y64909D01*
Y64909D02*
G01X63764Y64880D01*
X63845*
X63926Y64909*
Y64909D02*
G01X63967Y64969D01*
X64007Y65087*
Y65087D02*
G01X64048Y65175D01*
Y65175D02*
G01X64129Y65234D01*
Y65234D02*
G01X64211Y65264D01*
X64332*
Y65264D02*
G01X64414Y65234D01*
Y65234D02*
G01X64454Y65205D01*
Y65205D02*
G01X64495Y65116D01*
Y65116D02*
G01Y64998D01*
Y64998D02*
G01X64454Y64909D01*
Y64909D02*
G01X64414Y64880D01*
X64332Y64850*
Y64850D02*
G01X64211D01*
Y64850D02*
G01X64129Y64880D01*
Y64880D02*
G01X64048Y64939D01*
Y64939D02*
G01X64007Y65028D01*
Y65028D02*
G01X63967Y65146D01*
X63926Y65205*
Y65205D02*
G01X63845Y65234D01*
Y65234D02*
G01X63764D01*
Y65234D02*
G01X63682Y65205D01*
Y65205D02*
G01X63642Y65116D01*
Y65116D02*
G01Y64998D01*
X60273Y85978D02*
G01X60239Y86071D01*
Y86071D02*
G01X60171Y86165D01*
Y86165D02*
G01X60103Y86212D01*
Y86212D02*
G01X59967D01*
Y86212D02*
G01X59898Y86165D01*
Y86165D02*
G01X59830Y86071D01*
Y86071D02*
G01X59796Y85978D01*
Y85978D02*
G01X59762Y85837D01*
Y85837D02*
G01Y85603D01*
Y85603D02*
G01X59796Y85462D01*
Y85462D02*
G01X59830Y85368D01*
Y85368D02*
G01X59898Y85275D01*
Y85275D02*
G01X59967Y85228D01*
X60103*
X60171Y85275*
Y85275D02*
G01X60239Y85368D01*
Y85368D02*
G01X60273Y85462D01*
X60580Y86025D02*
G01X60648Y86071D01*
Y86071D02*
G01X60751Y86212D01*
Y86212D02*
G01Y85228D01*
X61501Y85884D02*
G01X61467Y85743D01*
Y85743D02*
G01X61398Y85650D01*
Y85650D02*
G01X61296Y85603D01*
Y85603D02*
G01X61262D01*
Y85603D02*
G01X61160Y85650D01*
X61092Y85743*
Y85743D02*
G01X61057Y85884D01*
Y85884D02*
G01Y85931D01*
Y85931D02*
G01X61092Y86071D01*
Y86071D02*
G01X61160Y86165D01*
Y86165D02*
G01X61262Y86212D01*
Y86212D02*
G01X61296D01*
Y86212D02*
G01X61398Y86165D01*
Y86165D02*
G01X61467Y86071D01*
Y86071D02*
G01X61501Y85884D01*
Y85650*
X61467Y85415*
Y85415D02*
G01X61398Y85275D01*
Y85275D02*
G01X61296Y85228D01*
Y85228D02*
G01X61228D01*
X61126Y85275*
X61092Y85368*
X91103Y84828D02*
G01X91069Y84921D01*
Y84921D02*
G01X91001Y85015D01*
Y85015D02*
G01X90932Y85062D01*
Y85062D02*
G01X90796D01*
Y85062D02*
G01X90728Y85015D01*
Y85015D02*
G01X90660Y84921D01*
Y84921D02*
G01X90626Y84828D01*
X90592Y84687*
Y84687D02*
G01Y84453D01*
X90626Y84312*
Y84312D02*
G01X90660Y84218D01*
Y84218D02*
G01X90728Y84125D01*
X90796Y84078*
Y84078D02*
G01X90932D01*
Y84078D02*
G01X91001Y84125D01*
X91069Y84218*
Y84218D02*
G01X91103Y84312D01*
X91444Y84828D02*
G01Y84875D01*
X91478Y84968*
Y84968D02*
G01X91512Y85015D01*
Y85015D02*
G01X91580Y85062D01*
Y85062D02*
G01X91717D01*
Y85062D02*
G01X91785Y85015D01*
Y85015D02*
G01X91819Y84968D01*
Y84968D02*
G01X91853Y84875D01*
Y84781*
X91819Y84687*
Y84687D02*
G01X91751Y84546D01*
Y84546D02*
G01X91410Y84078D01*
X91887*
X92398Y85062D02*
G01X92296Y85015D01*
Y85015D02*
G01X92228Y84875D01*
X92194Y84640*
Y84640D02*
G01Y84500D01*
X92228Y84265*
Y84265D02*
G01X92296Y84125D01*
Y84125D02*
G01X92398Y84078D01*
Y84078D02*
G01X92467D01*
X92569Y84125*
X92637Y84265*
Y84265D02*
G01X92671Y84500D01*
Y84500D02*
G01Y84640D01*
Y84640D02*
G01X92637Y84875D01*
Y84875D02*
G01X92569Y85015D01*
Y85015D02*
G01X92467Y85062D01*
Y85062D02*
G01X92398D01*
X61056Y73428D02*
G01X61022Y73521D01*
Y73521D02*
G01X60954Y73615D01*
Y73615D02*
G01X60886Y73662D01*
Y73662D02*
G01X60750D01*
Y73662D02*
G01X60681Y73615D01*
Y73615D02*
G01X60613Y73521D01*
Y73521D02*
G01X60579Y73428D01*
Y73428D02*
G01X60545Y73287D01*
Y73287D02*
G01Y73053D01*
X60579Y72912*
Y72912D02*
G01X60613Y72818D01*
Y72818D02*
G01X60681Y72725D01*
Y72725D02*
G01X60750Y72678D01*
X60886*
X60954Y72725*
Y72725D02*
G01X61022Y72818D01*
Y72818D02*
G01X61056Y72912D01*
X61397Y73428D02*
G01Y73475D01*
Y73475D02*
G01X61431Y73568D01*
Y73568D02*
G01X61465Y73615D01*
Y73615D02*
G01X61534Y73662D01*
Y73662D02*
G01X61670D01*
Y73662D02*
G01X61738Y73615D01*
Y73615D02*
G01X61772Y73568D01*
Y73568D02*
G01X61806Y73475D01*
Y73475D02*
G01Y73381D01*
Y73381D02*
G01X61772Y73287D01*
Y73287D02*
G01X61704Y73146D01*
Y73146D02*
G01X61363Y72678D01*
Y72678D02*
G01X61840D01*
X62147Y73475D02*
G01X62215Y73521D01*
Y73521D02*
G01X62318Y73662D01*
Y73662D02*
G01Y72678D01*
X56438Y72962D02*
G01Y71978D01*
Y71978D02*
G01X56847D01*
X57154Y72775D02*
G01X57222Y72821D01*
Y72821D02*
G01X57325Y72962D01*
Y72962D02*
G01Y71978D01*
X71105Y57584D02*
G01X71959D01*
X71105Y57378D02*
G01Y57791D01*
Y58057D02*
G01X71959D01*
X71105D02*
G01Y58323D01*
Y58323D02*
G01X71146Y58412D01*
Y58412D02*
G01X71187Y58441D01*
Y58441D02*
G01X71268Y58471D01*
X71349*
Y58471D02*
G01X71430Y58441D01*
Y58441D02*
G01X71471Y58412D01*
Y58412D02*
G01X71512Y58323D01*
Y58323D02*
G01Y58057D01*
Y58264D02*
G01X71959Y58471D01*
X71309Y58766D02*
G01X71268D01*
Y58766D02*
G01X71187Y58796D01*
X71146Y58825*
Y58825D02*
G01X71105Y58884D01*
Y58884D02*
G01Y59003D01*
Y59003D02*
G01X71146Y59062D01*
Y59062D02*
G01X71187Y59091D01*
Y59091D02*
G01X71268Y59121D01*
X71349*
Y59121D02*
G01X71430Y59091D01*
Y59091D02*
G01X71552Y59032D01*
Y59032D02*
G01X71959Y58737D01*
Y59150*
X87351Y78362D02*
G01Y77659D01*
X87385Y77518*
Y77518D02*
G01X87453Y77425D01*
X87555Y77378*
Y77378D02*
G01X87623D01*
Y77378D02*
G01X87726Y77425D01*
X87794Y77518*
Y77518D02*
G01X87828Y77659D01*
Y78362*
X88169Y78128D02*
G01Y78175D01*
X88203Y78268*
Y78268D02*
G01X88237Y78315D01*
Y78315D02*
G01X88305Y78362D01*
Y78362D02*
G01X88442D01*
Y78362D02*
G01X88510Y78315D01*
Y78315D02*
G01X88544Y78268D01*
Y78268D02*
G01X88578Y78175D01*
Y78081*
X88544Y77987*
Y77987D02*
G01X88476Y77846D01*
Y77846D02*
G01X88135Y77378D01*
X88612*
X56984Y82512D02*
G01Y81809D01*
X57018Y81668*
Y81668D02*
G01X57086Y81575D01*
X57188Y81528*
Y81528D02*
G01X57256D01*
Y81528D02*
G01X57359Y81575D01*
X57427Y81668*
Y81668D02*
G01X57461Y81809D01*
Y82512*
X58211D02*
G01X57870D01*
Y82512D02*
G01X57836Y82090D01*
Y82090D02*
G01X57870Y82137D01*
Y82137D02*
G01X57972Y82184D01*
Y82184D02*
G01X58075D01*
X58177Y82137*
Y82137D02*
G01X58245Y82043D01*
Y82043D02*
G01X58279Y81903D01*
Y81903D02*
G01X58245Y81809D01*
X58211Y81668*
Y81668D02*
G01X58143Y81575D01*
X58040Y81528*
Y81528D02*
G01X57938D01*
Y81528D02*
G01X57836Y81575D01*
X57802Y81621*
Y81621D02*
G01X57768Y81715D01*
X91412Y52709D02*
G01X92265D01*
X91412D02*
G01Y52975D01*
X91453Y53063*
Y53063D02*
G01X91493Y53093D01*
Y53093D02*
G01X91575Y53122D01*
Y53122D02*
G01X91656D01*
Y53122D02*
G01X91737Y53093D01*
X91778Y53063*
Y53063D02*
G01X91818Y52975D01*
Y52975D02*
G01Y52709D01*
Y52915D02*
G01X92265Y53122D01*
X91534Y53743D02*
G01X91453Y53713D01*
Y53713D02*
G01X91412Y53625D01*
Y53565*
Y53565D02*
G01X91453Y53477D01*
X91575Y53418*
X91778Y53388*
Y53388D02*
G01X91981D01*
Y53388D02*
G01X92143Y53418D01*
Y53418D02*
G01X92225Y53477D01*
X92265Y53565*
Y53565D02*
G01Y53595D01*
Y53595D02*
G01X92225Y53684D01*
X92143Y53743*
Y53743D02*
G01X92021Y53772D01*
Y53772D02*
G01X91981D01*
Y53772D02*
G01X91859Y53743D01*
X91778Y53684*
X91737Y53595*
Y53565*
Y53565D02*
G01X91778Y53477D01*
X91859Y53418*
X91981Y53388*
X79654Y70912D02*
G01Y69928D01*
Y70912D02*
G01X79961D01*
Y70912D02*
G01X80063Y70865D01*
Y70865D02*
G01X80097Y70818D01*
Y70818D02*
G01X80131Y70725D01*
Y70725D02*
G01Y70631D01*
Y70631D02*
G01X80097Y70537D01*
Y70537D02*
G01X80063Y70490D01*
Y70490D02*
G01X79961Y70443D01*
Y70443D02*
G01X79654D01*
X79893D02*
G01X80131Y69928D01*
X80438Y70725D02*
G01X80506Y70771D01*
Y70771D02*
G01X80609Y70912D01*
Y70912D02*
G01Y69928D01*
X64921Y69135D02*
G01Y68151D01*
Y69135D02*
G01X65228D01*
Y69135D02*
G01X65330Y69088D01*
Y69088D02*
G01X65365Y69041D01*
Y69041D02*
G01X65399Y68948D01*
Y68854*
X65365Y68760*
Y68760D02*
G01X65330Y68713D01*
Y68713D02*
G01X65228Y68666D01*
Y68666D02*
G01X64921D01*
X65160D02*
G01X65399Y68151D01*
X65740Y68901D02*
G01Y68948D01*
X65774Y69041*
Y69041D02*
G01X65808Y69088D01*
Y69088D02*
G01X65876Y69135D01*
Y69135D02*
G01X66012D01*
Y69135D02*
G01X66080Y69088D01*
Y69088D02*
G01X66115Y69041D01*
Y69041D02*
G01X66149Y68948D01*
Y68854*
X66115Y68760*
Y68760D02*
G01X66046Y68619D01*
Y68619D02*
G01X65705Y68151D01*
Y68151D02*
G01X66183D01*
X67251Y66912D02*
G01Y65928D01*
Y66912D02*
G01X67557D01*
Y66912D02*
G01X67660Y66865D01*
Y66865D02*
G01X67694Y66818D01*
Y66818D02*
G01X67728Y66725D01*
Y66631*
X67694Y66537*
Y66537D02*
G01X67660Y66490D01*
Y66490D02*
G01X67557Y66443D01*
Y66443D02*
G01X67251D01*
X67489D02*
G01X67728Y65928D01*
X68103Y66912D02*
G01X68478D01*
Y66912D02*
G01X68273Y66537D01*
Y66537D02*
G01X68376D01*
Y66537D02*
G01X68444Y66490D01*
Y66490D02*
G01X68478Y66443D01*
Y66443D02*
G01X68512Y66303D01*
Y66209*
X68478Y66068*
Y66068D02*
G01X68410Y65975D01*
X68307Y65928*
Y65928D02*
G01X68205D01*
Y65928D02*
G01X68103Y65975D01*
X68069Y66021*
Y66021D02*
G01X68035Y66115D01*
X91084Y78312D02*
G01Y77328D01*
Y78312D02*
G01X91390D01*
Y78312D02*
G01X91493Y78265D01*
Y78265D02*
G01X91527Y78218D01*
Y78218D02*
G01X91561Y78125D01*
Y78031*
X91527Y77937*
Y77937D02*
G01X91493Y77890D01*
Y77890D02*
G01X91390Y77843D01*
Y77843D02*
G01X91084D01*
X91322D02*
G01X91561Y77328D01*
X92209Y78312D02*
G01X91868Y77656D01*
X92379*
X92209Y78312D02*
G01Y77328D01*
X92971Y68918D02*
G01Y67934D01*
Y68918D02*
G01X93278D01*
Y68918D02*
G01X93380Y68871D01*
Y68871D02*
G01X93415Y68824D01*
Y68824D02*
G01X93449Y68730D01*
Y68730D02*
G01Y68637D01*
X93415Y68543*
X93380Y68496*
Y68496D02*
G01X93278Y68449D01*
Y68449D02*
G01X92971D01*
X93210D02*
G01X93449Y67934D01*
X94199Y68918D02*
G01X93858D01*
X93824Y68496*
Y68496D02*
G01X93858Y68543D01*
X93960Y68590*
Y68590D02*
G01X94062D01*
Y68590D02*
G01X94165Y68543D01*
X94233Y68449*
Y68449D02*
G01X94267Y68309D01*
X94233Y68215*
X94199Y68074*
Y68074D02*
G01X94130Y67980D01*
Y67980D02*
G01X94028Y67934D01*
Y67934D02*
G01X93926D01*
X93824Y67980*
Y67980D02*
G01X93790Y68027D01*
Y68027D02*
G01X93755Y68121D01*
X89162Y52744D02*
G01X90015D01*
X89162D02*
G01Y53010D01*
X89203Y53098*
Y53098D02*
G01X89243Y53128D01*
Y53128D02*
G01X89325Y53157D01*
Y53157D02*
G01X89406D01*
Y53157D02*
G01X89487Y53128D01*
X89528Y53098*
Y53098D02*
G01X89568Y53010D01*
Y53010D02*
G01Y52744D01*
Y52951D02*
G01X90015Y53157D01*
X89162Y53837D02*
G01X90015Y53542D01*
X89162Y53423D02*
G01Y53837D01*
X56493Y93448D02*
G01X57478D01*
X56493D02*
G01Y93755D01*
Y93755D02*
G01X56540Y93857D01*
Y93857D02*
G01X56587Y93892D01*
Y93892D02*
G01X56681Y93926D01*
X56775*
X56868Y93892*
Y93892D02*
G01X56915Y93857D01*
Y93857D02*
G01X56962Y93755D01*
Y93755D02*
G01Y93448D01*
Y93687D02*
G01X57478Y93926D01*
X56493Y94403D02*
G01X56540Y94301D01*
Y94301D02*
G01X56634Y94267D01*
X56728*
X56821Y94301*
Y94301D02*
G01X56868Y94369D01*
Y94369D02*
G01X56915Y94505D01*
Y94505D02*
G01X56962Y94607D01*
Y94607D02*
G01X57056Y94676D01*
X57150Y94710*
X57290*
Y94710D02*
G01X57384Y94676D01*
X57431Y94642*
X57478Y94539*
Y94539D02*
G01Y94403D01*
X57431Y94301*
X57384Y94267*
X57290Y94232*
Y94232D02*
G01X57150D01*
Y94232D02*
G01X57056Y94267D01*
X56962Y94335*
Y94335D02*
G01X56915Y94437D01*
Y94437D02*
G01X56868Y94573D01*
Y94573D02*
G01X56821Y94642D01*
Y94642D02*
G01X56728Y94676D01*
X56634*
X56540Y94642*
Y94642D02*
G01X56493Y94539D01*
Y94539D02*
G01Y94403D01*
X62787Y93568D02*
G01X63771D01*
X62787D02*
G01Y93875D01*
X62834Y93977*
X62881Y94011*
X62975Y94045*
X63068*
Y94045D02*
G01X63162Y94011D01*
X63209Y93977*
X63256Y93875*
Y93568*
Y93806D02*
G01X63771Y94045D01*
X63115Y94795D02*
G01X63256Y94761D01*
X63350Y94693*
X63396Y94590*
Y94590D02*
G01Y94556D01*
Y94556D02*
G01X63350Y94454D01*
Y94454D02*
G01X63256Y94386D01*
X63115Y94352*
Y94352D02*
G01X63068D01*
Y94352D02*
G01X62928Y94386D01*
X62834Y94454*
Y94454D02*
G01X62787Y94556D01*
Y94556D02*
G01Y94590D01*
Y94590D02*
G01X62834Y94693D01*
X62928Y94761*
X63115Y94795*
Y94795D02*
G01X63350D01*
X63584Y94761*
X63725Y94693*
X63771Y94590*
Y94590D02*
G01Y94522D01*
Y94522D02*
G01X63725Y94420D01*
X63631Y94386*
X86387Y92862D02*
G01X87371D01*
X86387D02*
G01Y93169D01*
X86434Y93271*
Y93271D02*
G01X86481Y93305D01*
Y93305D02*
G01X86575Y93339D01*
Y93339D02*
G01X86668D01*
Y93339D02*
G01X86762Y93305D01*
Y93305D02*
G01X86809Y93271D01*
Y93271D02*
G01X86856Y93169D01*
Y92862*
Y93101D02*
G01X87371Y93339D01*
X86575Y93646D02*
G01X86528Y93714D01*
Y93714D02*
G01X86387Y93817D01*
X87371*
X86387Y94328D02*
G01X86434Y94226D01*
X86575Y94157*
Y94157D02*
G01X86809Y94123D01*
Y94123D02*
G01X86950D01*
Y94123D02*
G01X87184Y94157D01*
Y94157D02*
G01X87325Y94226D01*
X87371Y94328*
Y94328D02*
G01Y94396D01*
Y94396D02*
G01X87325Y94498D01*
Y94498D02*
G01X87184Y94567D01*
X86950Y94601*
X86809*
X86575Y94567*
X86434Y94498*
Y94498D02*
G01X86387Y94396D01*
Y94396D02*
G01Y94328D01*
X92937Y93115D02*
G01X93921D01*
X92937D02*
G01Y93422D01*
Y93422D02*
G01X92984Y93525D01*
X93031Y93559*
X93125Y93593*
X93218*
Y93593D02*
G01X93312Y93559D01*
X93359Y93525*
X93406Y93422*
Y93422D02*
G01Y93115D01*
Y93354D02*
G01X93921Y93593D01*
X93125Y93900D02*
G01X93078Y93968D01*
X92937Y94070*
X93921*
X93125Y94377D02*
G01X93078Y94445D01*
X92937Y94547*
Y94547D02*
G01X93921D01*
X88079Y88562D02*
G01Y87578D01*
Y88562D02*
G01X88386D01*
Y88562D02*
G01X88488Y88515D01*
Y88515D02*
G01X88522Y88468D01*
Y88468D02*
G01X88556Y88375D01*
Y88375D02*
G01Y88281D01*
Y88281D02*
G01X88522Y88187D01*
Y88187D02*
G01X88488Y88140D01*
Y88140D02*
G01X88386Y88093D01*
Y88093D02*
G01X88079D01*
X88318D02*
G01X88556Y87578D01*
X88863Y88375D02*
G01X88931Y88421D01*
Y88421D02*
G01X89034Y88562D01*
Y88562D02*
G01Y87578D01*
X89784Y88234D02*
G01X89750Y88093D01*
Y88093D02*
G01X89681Y88000D01*
Y88000D02*
G01X89579Y87953D01*
Y87953D02*
G01X89545D01*
X89443Y88000*
X89375Y88093*
Y88093D02*
G01X89340Y88234D01*
Y88234D02*
G01Y88281D01*
Y88281D02*
G01X89375Y88421D01*
Y88421D02*
G01X89443Y88515D01*
Y88515D02*
G01X89545Y88562D01*
Y88562D02*
G01X89579D01*
Y88562D02*
G01X89681Y88515D01*
Y88515D02*
G01X89750Y88421D01*
Y88421D02*
G01X89784Y88234D01*
Y88000*
X89750Y87765*
Y87765D02*
G01X89681Y87625D01*
Y87625D02*
G01X89579Y87578D01*
Y87578D02*
G01X89511D01*
X89409Y87625*
X89375Y87718*
X98412Y56537D02*
G01X99265D01*
X98412D02*
G01Y56803D01*
X98453Y56892*
X98493Y56921*
Y56921D02*
G01X98575Y56951D01*
X98656*
X98737Y56921*
Y56921D02*
G01X98778Y56892D01*
X98818Y56803*
Y56803D02*
G01Y56537D01*
Y56744D02*
G01X99265Y56951D01*
X98575Y57217D02*
G01X98534Y57276D01*
X98412Y57364*
Y57364D02*
G01X99265D01*
X98412Y57689D02*
G01Y58014D01*
Y58014D02*
G01X98737Y57837D01*
Y57837D02*
G01Y57926D01*
X98778Y57985*
X98818Y58014*
Y58014D02*
G01X98940Y58044D01*
Y58044D02*
G01X99021D01*
Y58044D02*
G01X99143Y58014D01*
Y58014D02*
G01X99225Y57955D01*
Y57955D02*
G01X99265Y57867D01*
Y57867D02*
G01Y57778D01*
Y57778D02*
G01X99225Y57689D01*
Y57689D02*
G01X99184Y57660D01*
X99103Y57630*
X70804Y61575D02*
G01Y60721D01*
Y61575D02*
G01X71070D01*
X71159Y61534*
X71188Y61493*
Y61493D02*
G01X71218Y61412D01*
Y61412D02*
G01Y61331D01*
X71188Y61250*
Y61250D02*
G01X71159Y61209D01*
X71070Y61168*
Y61168D02*
G01X70804D01*
X71011D02*
G01X71218Y60721D01*
X71484Y61412D02*
G01X71543Y61453D01*
X71631Y61575*
Y61575D02*
G01Y60721D01*
X72193Y61575D02*
G01X71897Y61006D01*
Y61006D02*
G01X72340D01*
X72193Y61575D02*
G01Y60721D01*
X64187Y59745D02*
G01X65171D01*
X64187D02*
G01Y60052D01*
X64234Y60154*
Y60154D02*
G01X64281Y60188D01*
Y60188D02*
G01X64375Y60222D01*
Y60222D02*
G01X64468D01*
Y60222D02*
G01X64562Y60188D01*
Y60188D02*
G01X64609Y60154D01*
Y60154D02*
G01X64656Y60052D01*
Y59745*
Y59984D02*
G01X65171Y60222D01*
X64375Y60529D02*
G01X64328Y60597D01*
Y60597D02*
G01X64187Y60700D01*
X65171*
X64187Y61450D02*
G01Y61109D01*
X64609Y61075*
X64562Y61109*
X64515Y61211*
Y61211D02*
G01Y61313D01*
Y61313D02*
G01X64562Y61415D01*
Y61415D02*
G01X64656Y61484D01*
X64796Y61518*
Y61518D02*
G01X64890Y61484D01*
Y61484D02*
G01X65031Y61450D01*
X65125Y61381*
Y61381D02*
G01X65171Y61279D01*
Y61279D02*
G01Y61177D01*
Y61177D02*
G01X65125Y61075D01*
X65078Y61040*
Y61040D02*
G01X64984Y61006D01*
X56437Y95768D02*
G01X57421D01*
Y95768D02*
G01Y96177D01*
X56437Y96484D02*
G01X57421D01*
X56437D02*
G01Y96927D01*
X56906Y96484D02*
G01Y96756D01*
X57421Y96484D02*
G01Y96927D01*
X56437Y97234D02*
G01X57421D01*
X56437D02*
G01Y97472D01*
Y97472D02*
G01X56484Y97575D01*
X56578Y97643*
X56671Y97677*
Y97677D02*
G01X56812Y97711D01*
X57046*
Y97711D02*
G01X57187Y97677D01*
X57281Y97643*
X57375Y97575*
X57421Y97472*
Y97472D02*
G01Y97234D01*
X56437Y98222D02*
G01X56484Y98120D01*
X56625Y98052*
X56859Y98018*
X57000*
X57234Y98052*
X57375Y98120*
X57421Y98222*
Y98222D02*
G01Y98290D01*
Y98290D02*
G01X57375Y98393D01*
X57234Y98461*
X57000Y98495*
X56859*
X56625Y98461*
X56484Y98393*
X56437Y98290*
Y98290D02*
G01Y98222D01*
X62937Y95921D02*
G01X63921D01*
Y95921D02*
G01Y96330D01*
X62937Y96637D02*
G01X63921D01*
X62937D02*
G01Y97080D01*
X63406Y96637D02*
G01Y96910D01*
X63921Y96637D02*
G01Y97080D01*
X62937Y97387D02*
G01X63921D01*
X62937D02*
G01Y97626D01*
X62984Y97728*
X63078Y97796*
Y97796D02*
G01X63171Y97830D01*
Y97830D02*
G01X63312Y97864D01*
Y97864D02*
G01X63546D01*
Y97864D02*
G01X63687Y97830D01*
Y97830D02*
G01X63781Y97796D01*
Y97796D02*
G01X63875Y97728D01*
X63921Y97626*
Y97626D02*
G01Y97387D01*
X63125Y98171D02*
G01X63078Y98239D01*
Y98239D02*
G01X62937Y98342D01*
X63921*
X86437Y95518D02*
G01X87421D01*
Y95518D02*
G01Y95927D01*
X86437Y96234D02*
G01X87421D01*
X86437D02*
G01Y96677D01*
X86906Y96234D02*
G01Y96506D01*
X87421Y96234D02*
G01Y96677D01*
X86437Y96984D02*
G01X87421D01*
X86437D02*
G01Y97222D01*
Y97222D02*
G01X86484Y97325D01*
X86578Y97393*
X86671Y97427*
Y97427D02*
G01X86812Y97461D01*
X87046*
Y97461D02*
G01X87187Y97427D01*
X87281Y97393*
X87375Y97325*
X87421Y97222*
Y97222D02*
G01Y96984D01*
X86671Y97802D02*
G01X86625D01*
X86531Y97836*
X86484Y97870*
X86437Y97938*
Y97938D02*
G01Y98075D01*
X86484Y98143*
X86531Y98177*
X86625Y98211*
X86718*
Y98211D02*
G01X86812Y98177D01*
X86953Y98109*
X87421Y97768*
Y97768D02*
G01Y98245D01*
X92937Y95568D02*
G01X93921D01*
Y95568D02*
G01Y95977D01*
X92937Y96284D02*
G01X93921D01*
X92937D02*
G01Y96727D01*
X93406Y96284D02*
G01Y96556D01*
X93921Y96284D02*
G01Y96727D01*
X92937Y97034D02*
G01X93921D01*
X92937D02*
G01Y97272D01*
Y97272D02*
G01X92984Y97375D01*
X93078Y97443*
X93171Y97477*
Y97477D02*
G01X93312Y97511D01*
X93546*
Y97511D02*
G01X93687Y97477D01*
X93781Y97443*
X93875Y97375*
X93921Y97272*
Y97272D02*
G01Y97034D01*
X92937Y97886D02*
G01Y98261D01*
X93312Y98056*
Y98056D02*
G01Y98159D01*
X93359Y98227*
X93406Y98261*
X93546Y98295*
Y98295D02*
G01X93640D01*
Y98295D02*
G01X93781Y98261D01*
X93875Y98193*
X93921Y98090*
Y98090D02*
G01Y97988D01*
Y97988D02*
G01X93875Y97886D01*
X93828Y97852*
X93734Y97818*
X55351Y61212D02*
G01Y60509D01*
X55385Y60368*
Y60368D02*
G01X55453Y60275D01*
X55555Y60228*
Y60228D02*
G01X55623D01*
Y60228D02*
G01X55726Y60275D01*
X55794Y60368*
Y60368D02*
G01X55828Y60509D01*
Y61212*
X56203D02*
G01X56578D01*
Y61212D02*
G01X56373Y60837D01*
Y60837D02*
G01X56476D01*
Y60837D02*
G01X56544Y60790D01*
Y60790D02*
G01X56578Y60743D01*
Y60743D02*
G01X56612Y60603D01*
Y60603D02*
G01Y60509D01*
Y60509D02*
G01X56578Y60368D01*
Y60368D02*
G01X56510Y60275D01*
X56407Y60228*
Y60228D02*
G01X56305D01*
Y60228D02*
G01X56203Y60275D01*
X56169Y60321*
Y60321D02*
G01X56135Y60415D01*
X55912Y66729D02*
G01X56521D01*
Y66729D02*
G01X56643Y66759D01*
Y66759D02*
G01X56725Y66818D01*
X56765Y66906*
Y66906D02*
G01Y66965D01*
Y66965D02*
G01X56725Y67054D01*
Y67054D02*
G01X56643Y67113D01*
Y67113D02*
G01X56521Y67143D01*
Y67143D02*
G01X55912D01*
Y67704D02*
G01X56481Y67409D01*
Y67852*
X55912Y67704D02*
G01X56765D01*
X98197Y59421D02*
G01X98900D01*
Y59421D02*
G01X99041Y59455D01*
Y59455D02*
G01X99134Y59524D01*
Y59524D02*
G01X99181Y59626D01*
Y59626D02*
G01Y59694D01*
Y59694D02*
G01X99134Y59796D01*
Y59796D02*
G01X99041Y59865D01*
X98900Y59899*
Y59899D02*
G01X98197D01*
X98338Y60615D02*
G01X98244Y60580D01*
Y60580D02*
G01X98197Y60478D01*
Y60478D02*
G01Y60410D01*
Y60410D02*
G01X98244Y60308D01*
X98384Y60240*
Y60240D02*
G01X98619Y60205D01*
Y60205D02*
G01X98853D01*
Y60205D02*
G01X99041Y60240D01*
X99134Y60308*
Y60308D02*
G01X99181Y60410D01*
Y60410D02*
G01Y60444D01*
Y60444D02*
G01X99134Y60546D01*
Y60546D02*
G01X99041Y60615D01*
X98900Y60649*
Y60649D02*
G01X98853D01*
Y60649D02*
G01X98713Y60615D01*
X98619Y60546*
Y60546D02*
G01X98572Y60444D01*
Y60444D02*
G01Y60410D01*
Y60410D02*
G01X98619Y60308D01*
X98713Y60240*
X98853Y60205*
X84787Y70601D02*
G01X85490D01*
Y70601D02*
G01X85631Y70635D01*
X85725Y70703*
X85771Y70805*
Y70805D02*
G01Y70873D01*
Y70873D02*
G01X85725Y70976D01*
X85631Y71044*
X85490Y71078*
Y71078D02*
G01X84787D01*
Y71862D02*
G01X85771Y71521D01*
X84787Y71385D02*
G01Y71862D01*
X84687Y74051D02*
G01X85390D01*
Y74051D02*
G01X85531Y74085D01*
X85625Y74153*
X85671Y74255*
Y74255D02*
G01Y74323D01*
Y74323D02*
G01X85625Y74426D01*
X85531Y74494*
X85390Y74528*
Y74528D02*
G01X84687D01*
Y75005D02*
G01X84734Y74903D01*
X84828Y74869*
X84921*
Y74869D02*
G01X85015Y74903D01*
Y74903D02*
G01X85062Y74971D01*
Y74971D02*
G01X85109Y75107D01*
Y75107D02*
G01X85156Y75210D01*
X85250Y75278*
X85343Y75312*
Y75312D02*
G01X85484D01*
Y75312D02*
G01X85578Y75278D01*
X85625Y75244*
X85671Y75142*
Y75142D02*
G01Y75005D01*
Y75005D02*
G01X85625Y74903D01*
X85578Y74869*
X85484Y74835*
X85343*
Y74835D02*
G01X85250Y74869D01*
X85156Y74937*
Y74937D02*
G01X85109Y75039D01*
Y75039D02*
G01X85062Y75176D01*
X85015Y75244*
Y75244D02*
G01X84921Y75278D01*
Y75278D02*
G01X84828D01*
X84734Y75244*
X84687Y75142*
Y75005*
X65405Y90665D02*
G01Y89962D01*
Y89962D02*
G01X65439Y89821D01*
Y89821D02*
G01X65507Y89728D01*
Y89728D02*
G01X65610Y89681D01*
X65678*
X65780Y89728*
Y89728D02*
G01X65848Y89821D01*
Y89821D02*
G01X65882Y89962D01*
Y89962D02*
G01Y90665D01*
X66189Y90478D02*
G01X66257Y90524D01*
Y90524D02*
G01X66360Y90665D01*
Y90665D02*
G01Y89681D01*
X63050Y71546D02*
G01X63118Y71593D01*
Y71593D02*
G01X63220Y71734D01*
Y70750*
X63527Y71734D02*
G01X63800Y70750D01*
X64072Y71734D02*
G01X63800Y70750D01*
X71000Y57053D02*
G01Y56200D01*
Y57053D02*
G01X71384D01*
X71000Y56646D02*
G01X71236D01*
X71650Y57053D02*
G01Y56200D01*
Y57053D02*
G01X72034D01*
X71650Y56646D02*
G01X71886D01*
X71650Y56200D02*
G01X72034D01*
X72506Y57053D02*
G01Y56200D01*
X72300Y57053D02*
G01X72713D01*
X55800Y74850D02*
G01X63150D01*
Y72100*
X64600*
Y69700*
X64975Y69325*
X73450*
X73912Y68862*
Y68862D02*
G01Y63250D01*
Y63250D02*
G01X73181Y62518D01*
Y62518D02*
G01X68350D01*
Y62518D02*
G01X67409Y63459D01*
X65500*
X53150Y62250D02*
G01Y59950D01*
X53300Y59800*
X63550*
Y60100*
X73300Y62400D02*
G01X74050Y61650D01*
X75400*
X76200Y60850*
Y57750*
X74425Y55975*
X65650*
X63600Y59850D02*
G01Y59450D01*
X67557Y89059D02*
G03X67557Y89059I-382D01*
G54D119*
X69650Y87000D02*
G03X69650Y87000I-300D01*
G54D120*
X52220Y56190D02*
G01X52189Y56276D01*
X52126Y56362*
Y56362D02*
G01X52063Y56405D01*
Y56405D02*
G01X51938D01*
Y56405D02*
G01X51875Y56362D01*
Y56362D02*
G01X51812Y56276D01*
Y56276D02*
G01X51781Y56190D01*
X51750Y56060*
Y56060D02*
G01Y55845D01*
X51781Y55715*
Y55715D02*
G01X51812Y55629D01*
Y55629D02*
G01X51875Y55543D01*
X51938Y55500*
X52063*
Y55500D02*
G01X52126Y55543D01*
X52189Y55629*
X52220Y55715*
Y55715D02*
G01Y55845D01*
X52063D02*
G01X52220D01*
X52502Y56405D02*
G01Y55500D01*
Y56405D02*
G01X52941Y55500D01*
Y56405D02*
G01Y55500D01*
X53224Y56405D02*
G01Y55500D01*
Y56405D02*
G01X53443D01*
Y56405D02*
G01X53537Y56362D01*
Y56362D02*
G01X53600Y56276D01*
Y56276D02*
G01X53631Y56190D01*
Y56190D02*
G01X53663Y56060D01*
Y56060D02*
G01Y55845D01*
X53631Y55715*
Y55715D02*
G01X53600Y55629D01*
Y55629D02*
G01X53537Y55543D01*
Y55543D02*
G01X53443Y55500D01*
Y55500D02*
G01X53224D01*
X67739Y68576D02*
G01X67676Y68662D01*
Y68662D02*
G01X67582Y68705D01*
Y68705D02*
G01X67456D01*
Y68705D02*
G01X67362Y68662D01*
Y68662D02*
G01X67300Y68576D01*
Y68490*
X67331Y68403*
Y68403D02*
G01X67362Y68360D01*
Y68360D02*
G01X67425Y68317D01*
Y68317D02*
G01X67613Y68231D01*
Y68231D02*
G01X67676Y68188D01*
X67707Y68145*
Y68145D02*
G01X67739Y68058D01*
Y68058D02*
G01Y67929D01*
X67676Y67843*
X67582Y67800*
X67456*
Y67800D02*
G01X67362Y67843D01*
Y67843D02*
G01X67300Y67929D01*
X68021Y68403D02*
G01X68146Y67800D01*
X68272Y68403D02*
G01X68146Y67800D01*
X68272Y68403D02*
G01X68397Y67800D01*
X68523Y68403D02*
G01X68397Y67800D01*
X68805Y68705D02*
G01X68836Y68662D01*
Y68662D02*
G01X68868Y68705D01*
Y68705D02*
G01X68836Y68748D01*
Y68748D02*
G01X68805Y68705D01*
X68836Y68403D02*
G01Y67800D01*
X69244Y68705D02*
G01Y67972D01*
Y67972D02*
G01X69276Y67843D01*
X69338Y67800*
Y67800D02*
G01X69401D01*
X69150Y68403D02*
G01X69370D01*
X70060Y68274D02*
G01X69997Y68360D01*
Y68360D02*
G01X69934Y68403D01*
Y68403D02*
G01X69840D01*
Y68403D02*
G01X69777Y68360D01*
Y68360D02*
G01X69715Y68274D01*
X69683Y68145*
Y68145D02*
G01Y68058D01*
Y68058D02*
G01X69715Y67929D01*
X69777Y67843*
Y67843D02*
G01X69840Y67800D01*
Y67800D02*
G01X69934D01*
Y67800D02*
G01X69997Y67843D01*
X70060Y67929*
X70342Y68705D02*
G01Y67800D01*
Y68231D02*
G01X70436Y68360D01*
Y68360D02*
G01X70499Y68403D01*
Y68403D02*
G01X70593D01*
Y68403D02*
G01X70656Y68360D01*
Y68360D02*
G01X70687Y68231D01*
Y67800*
X70969Y68705D02*
G01Y67800D01*
Y68705D02*
G01X71220Y67800D01*
X71471Y68705D02*
G01X71220Y67800D01*
X71471Y68705D02*
G01Y67800D01*
X71910Y68403D02*
G01X71847Y68360D01*
Y68360D02*
G01X71785Y68274D01*
X71753Y68145*
Y68145D02*
G01Y68058D01*
Y68058D02*
G01X71785Y67929D01*
X71847Y67843*
Y67843D02*
G01X71910Y67800D01*
Y67800D02*
G01X72004D01*
Y67800D02*
G01X72067Y67843D01*
Y67843D02*
G01X72130Y67929D01*
X72161Y68058*
Y68058D02*
G01Y68145D01*
Y68145D02*
G01X72130Y68274D01*
X72067Y68360*
Y68360D02*
G01X72004Y68403D01*
Y68403D02*
G01X71910D01*
X72820Y68705D02*
G01Y67800D01*
Y68274D02*
G01X72757Y68360D01*
Y68360D02*
G01X72694Y68403D01*
Y68403D02*
G01X72600D01*
Y68403D02*
G01X72537Y68360D01*
Y68360D02*
G01X72475Y68274D01*
X72443Y68145*
Y68145D02*
G01Y68058D01*
Y68058D02*
G01X72475Y67929D01*
X72537Y67843*
Y67843D02*
G01X72600Y67800D01*
Y67800D02*
G01X72694D01*
Y67800D02*
G01X72757Y67843D01*
Y67843D02*
G01X72820Y67929D01*
X73102Y68145D02*
G01X73478D01*
Y68145D02*
G01Y68231D01*
Y68231D02*
G01X73447Y68317D01*
Y68317D02*
G01X73416Y68360D01*
Y68360D02*
G01X73353Y68403D01*
Y68403D02*
G01X73259D01*
Y68403D02*
G01X73196Y68360D01*
Y68360D02*
G01X73133Y68274D01*
Y68274D02*
G01X73102Y68145D01*
Y68145D02*
G01Y68058D01*
Y68058D02*
G01X73133Y67929D01*
Y67929D02*
G01X73196Y67843D01*
Y67843D02*
G01X73259Y67800D01*
X73353*
X73416Y67843*
X73478Y67929*
X72839Y59076D02*
G01X72776Y59162D01*
Y59162D02*
G01X72682Y59205D01*
Y59205D02*
G01X72556D01*
Y59205D02*
G01X72462Y59162D01*
Y59162D02*
G01X72400Y59076D01*
Y58990*
X72431Y58903*
Y58903D02*
G01X72462Y58860D01*
Y58860D02*
G01X72525Y58817D01*
Y58817D02*
G01X72713Y58731D01*
Y58731D02*
G01X72776Y58688D01*
X72807Y58645*
Y58645D02*
G01X72839Y58558D01*
Y58558D02*
G01Y58429D01*
X72776Y58343*
X72682Y58300*
X72556*
Y58300D02*
G01X72462Y58343D01*
Y58343D02*
G01X72400Y58429D01*
X73121Y58903D02*
G01X73246Y58300D01*
X73372Y58903D02*
G01X73246Y58300D01*
X73372Y58903D02*
G01X73497Y58300D01*
X73623Y58903D02*
G01X73497Y58300D01*
X73905Y59205D02*
G01X73936Y59162D01*
Y59162D02*
G01X73968Y59205D01*
Y59205D02*
G01X73936Y59248D01*
Y59248D02*
G01X73905Y59205D01*
X73936Y58903D02*
G01Y58300D01*
X74344Y59205D02*
G01Y58472D01*
Y58472D02*
G01X74376Y58343D01*
X74438Y58300*
Y58300D02*
G01X74501D01*
X74250Y58903D02*
G01X74470D01*
X75160Y58774D02*
G01X75097Y58860D01*
Y58860D02*
G01X75034Y58903D01*
Y58903D02*
G01X74940D01*
Y58903D02*
G01X74877Y58860D01*
Y58860D02*
G01X74815Y58774D01*
X74783Y58645*
Y58645D02*
G01Y58558D01*
Y58558D02*
G01X74815Y58429D01*
X74877Y58343*
Y58343D02*
G01X74940Y58300D01*
Y58300D02*
G01X75034D01*
Y58300D02*
G01X75097Y58343D01*
X75160Y58429*
X75442Y59205D02*
G01Y58300D01*
Y58731D02*
G01X75536Y58860D01*
Y58860D02*
G01X75599Y58903D01*
Y58903D02*
G01X75693D01*
Y58903D02*
G01X75756Y58860D01*
Y58860D02*
G01X75787Y58731D01*
Y58300*
X69550Y66055D02*
G01Y65150D01*
X69926*
X70208Y66055D02*
G01X70240Y66012D01*
Y66012D02*
G01X70271Y66055D01*
Y66055D02*
G01X70240Y66098D01*
Y66098D02*
G01X70208Y66055D01*
X70240Y65753D02*
G01Y65150D01*
X70553Y65753D02*
G01Y65150D01*
Y65581D02*
G01X70647Y65710D01*
Y65710D02*
G01X70710Y65753D01*
Y65753D02*
G01X70804D01*
Y65753D02*
G01X70867Y65710D01*
Y65710D02*
G01X70898Y65581D01*
Y65581D02*
G01Y65150D01*
X71180Y66055D02*
G01Y65150D01*
Y66055D02*
G01X71463D01*
Y66055D02*
G01X71557Y66012D01*
Y66012D02*
G01X71588Y65969D01*
Y65969D02*
G01X71620Y65883D01*
Y65796*
Y65796D02*
G01X71588Y65710D01*
Y65710D02*
G01X71557Y65667D01*
Y65667D02*
G01X71463Y65624D01*
X71180*
X71400D02*
G01X71620Y65150D01*
X71902Y65495D02*
G01X72278D01*
Y65495D02*
G01Y65581D01*
Y65581D02*
G01X72247Y65667D01*
Y65667D02*
G01X72216Y65710D01*
Y65710D02*
G01X72153Y65753D01*
Y65753D02*
G01X72059D01*
Y65753D02*
G01X71996Y65710D01*
Y65710D02*
G01X71933Y65624D01*
Y65624D02*
G01X71902Y65495D01*
Y65408*
Y65408D02*
G01X71933Y65279D01*
Y65279D02*
G01X71996Y65193D01*
X72059Y65150*
X72153*
X72216Y65193*
X72278Y65279*
X72937Y65753D02*
G01Y65063D01*
Y65063D02*
G01X72906Y64934D01*
X72874Y64891*
Y64891D02*
G01X72811Y64848D01*
Y64848D02*
G01X72717D01*
Y64848D02*
G01X72655Y64891D01*
X72937Y65624D02*
G01X72874Y65710D01*
Y65710D02*
G01X72811Y65753D01*
Y65753D02*
G01X72717D01*
Y65753D02*
G01X72655Y65710D01*
Y65710D02*
G01X72592Y65624D01*
X72561Y65495*
Y65408*
Y65408D02*
G01X72592Y65279D01*
X72655Y65193*
X72717Y65150*
Y65150D02*
G01X72811D01*
Y65150D02*
G01X72874Y65193D01*
Y65193D02*
G01X72937Y65279D01*
X71170Y63890D02*
G01X71139Y63976D01*
X71076Y64062*
Y64062D02*
G01X71013Y64105D01*
Y64105D02*
G01X70888D01*
Y64105D02*
G01X70825Y64062D01*
Y64062D02*
G01X70762Y63976D01*
Y63976D02*
G01X70731Y63890D01*
X70700Y63760*
Y63760D02*
G01Y63545D01*
X70731Y63415*
Y63415D02*
G01X70762Y63329D01*
Y63329D02*
G01X70825Y63243D01*
X70888Y63200*
X71013*
Y63200D02*
G01X71076Y63243D01*
X71139Y63329*
X71170Y63415*
Y63415D02*
G01Y63545D01*
X71013D02*
G01X71170D01*
X71452Y64105D02*
G01Y63200D01*
Y64105D02*
G01X71891Y63200D01*
Y64105D02*
G01Y63200D01*
X72174Y64105D02*
G01Y63200D01*
Y64105D02*
G01X72393D01*
Y64105D02*
G01X72487Y64062D01*
Y64062D02*
G01X72550Y63976D01*
Y63976D02*
G01X72581Y63890D01*
Y63890D02*
G01X72613Y63760D01*
Y63760D02*
G01Y63545D01*
X72581Y63415*
Y63415D02*
G01X72550Y63329D01*
Y63329D02*
G01X72487Y63243D01*
Y63243D02*
G01X72393Y63200D01*
Y63200D02*
G01X72174D01*
G54D121*
X76700Y57065D02*
G01Y55950D01*
X77279Y57065D02*
G01X77202Y57012D01*
X77124Y56906*
Y56906D02*
G01X77086Y56799D01*
Y56799D02*
G01X77047Y56640D01*
Y56640D02*
G01Y56374D01*
Y56374D02*
G01X77086Y56215D01*
Y56215D02*
G01X77124Y56109D01*
Y56109D02*
G01X77202Y56003D01*
X77279Y55950*
X77433*
Y55950D02*
G01X77511Y56003D01*
X77588Y56109*
X77627Y56215*
Y56215D02*
G01X77665Y56374D01*
Y56374D02*
G01Y56640D01*
Y56640D02*
G01X77627Y56799D01*
Y56799D02*
G01X77588Y56906D01*
X77511Y57012*
X77433Y57065*
Y57065D02*
G01X77279D01*
X78322D02*
G01X78013Y55950D01*
X78322Y57065D02*
G01X78631Y55950D01*
X78129Y56321D02*
G01X78515D01*
M02*
