G04 Pcgerber II V5.0 Date:  Tue Dec  7 08:40:09 2010 *
G04 Database: (Untitled) *
G04 Layer 2: xk-1a-reva-l1.g *
%FSLAX33Y33*%
%MOMM*%
%SFA1.000B1.000*%

%MIA0B0*%
%IPPOS*%
%ADD11R,1.45000X0.20000*%
%ADD12R,0.55880X0.55880*%
%ADD13R,0.20000X1.45000*%
%ADD14C,3.99965*%
%ADD15R,2.38800X0.63500*%
%ADD17R,0.60000X0.40000*%
%ADD18R,1.19973X1.19973*%
%ADD19R,2.79993X2.79993*%
%ADD70R,0.40000X0.60000*%
%ADD20C,1.39954*%
%ADD21R,0.81280X0.96580*%
%ADD22R,0.96580X0.81280*%
%ADD23O,2.38800X0.63500*%
%ADD25R,0.96480X0.81280*%
%ADD27R,1.62560X2.54060*%
%ADD31R,1.01639X0.64939*%
%ADD33C,0.80000*%
%ADD34R,1.01539X0.64939*%
%ADD36R,0.86360X1.26960*%
%ADD38R,0.86360X1.01660*%
%ADD40R,1.82880X4.21680*%
%ADD42R,1.82880X4.21580*%
%ADD58R,1.60000X1.60000*%
%ADD59C,1.60000*%
%ADD62R,1.49945X1.49945*%
%ADD93R,4.80000X4.80000*%
%ADD94C,1.00000*%
%ADD95C,0.25000*%
%ADD96C,0.25400*%
%ADD97C,0.20000*%
%ADD98C,0.17992*%
%ADD99C,0.50000*%
%ADD100C,0.30000*%
%ADD101C,0.30480*%
%ADD102C,0.19981*%
%ADD125R,1.49972X7.30045*%
%LNxk-1a-reva-l1.g*%
%SRX1Y1I0J0*%
G54D11*
%LPD*%
G54D12*
X74997Y71497D03*
X73930D03*
X62250Y61000D03*
Y62066D03*
X58800Y64000D03*
X57733D03*
X61500Y66000D03*
Y67066D03*
X63000Y66000D03*
Y67066D03*
X60129Y84337D03*
X61196D03*
X88500Y84500D03*
X89566D03*
X58550Y73100D03*
X59616D03*
G54D14*
X97000Y53000D03*
Y97000D03*
X53000D03*
Y53000D03*
G54D18*
X59379Y82961D03*
Y80709D03*
X61631D03*
Y82961D03*
G54D19*
X65143Y53354D03*
Y57949D03*
G54D20*
X60947Y51555D03*
Y56551D03*
G54D33*
X63050Y54300D03*
X86500Y56350D03*
X98850Y55600D03*
X55250Y61850D03*
X58900Y60950D03*
X62250Y60000D03*
X68250Y60100D03*
X79250Y62950D03*
X81050Y58200D03*
X79800Y58550D03*
X87800D03*
X96500Y61950D03*
X58800Y66550D03*
X59800Y64000D03*
X68250Y65000D03*
X76700Y66750D03*
X80700Y66700D03*
X87900Y66650D03*
X93000Y66600D03*
X59150Y71600D03*
X67500Y71150D03*
X74250Y69100D03*
X72950Y71500D03*
X71300Y71800D03*
X75150Y69900D03*
X78400Y71850D03*
X77250Y71900D03*
X84100Y69800D03*
X82600D03*
X80600Y68100D03*
X81700Y68550D03*
X84450Y72450D03*
X88400Y73050D03*
X89050Y71250D03*
X87300Y73050D03*
X90000Y72000D03*
X58100Y76150D03*
X57700Y77700D03*
X57400Y74000D03*
X59000Y77650D03*
X61000Y77850D03*
X65650Y76150D03*
X69250Y75650D03*
X65650Y75000D03*
X64350Y77600D03*
X70650Y75700D03*
X71000Y77400D03*
X77100Y75100D03*
X78400Y77000D03*
X79250Y75650D03*
X75000Y76450D03*
X74700Y75250D03*
X83850Y73400D03*
X80200Y75150D03*
X82400Y74350D03*
X84450Y76600D03*
X80400Y77450D03*
X84300Y74900D03*
X82650Y73250D03*
X89050Y74750D03*
X85500Y76900D03*
X85450Y75400D03*
X88900Y75950D03*
X90000Y74000D03*
X55400Y82600D03*
X59400Y79500D03*
X62250Y78750D03*
X63700Y80900D03*
X65300Y79300D03*
X68750Y79250D03*
X68650Y82050D03*
X65540Y80910D03*
X73200Y83050D03*
X73250Y81450D03*
X73218Y79997D03*
X75000Y81500D03*
X74950Y80000D03*
X76650Y80050D03*
X76550Y83050D03*
X76600Y81450D03*
X78201Y79010D03*
X74997Y83113D03*
X80150Y80000D03*
X81050Y81450D03*
X80450Y78600D03*
X84500Y78450D03*
X80589Y82996D03*
X84650Y80500D03*
X88750Y79200D03*
X58050Y88150D03*
X59150Y84350D03*
X58900Y85850D03*
X63650Y85050D03*
X64250Y83700D03*
X60000Y87450D03*
X68750Y85250D03*
X68810Y83306D03*
X70708Y85804D03*
X70710Y87800D03*
X74000Y86900D03*
X76704Y87800D03*
X78150Y86350D03*
X81300Y84450D03*
X79600Y87103D03*
X80800Y87500D03*
X81298Y85704D03*
X88150Y86450D03*
X87300Y87250D03*
X87500Y84500D03*
X58700Y92150D03*
X61450Y89750D03*
X60200Y89600D03*
X61700Y92100D03*
X59450Y88900D03*
X67500Y91300D03*
X68600D03*
X71150Y92850D03*
X72300Y92600D03*
X76300Y91400D03*
X78301Y91898D03*
X84350Y91850D03*
X79650Y92150D03*
X81350Y91400D03*
X86500Y88600D03*
X86400Y91650D03*
X86550Y89800D03*
X85250Y90900D03*
X86500Y95500D03*
X94150Y93800D03*
X58700Y98850D03*
X61700D03*
X88700Y98700D03*
X91700D03*
G54D58*
X66500Y95500D03*
X86750Y54300D03*
X95500Y63500D03*
X54500D03*
G54D59*
X66500Y98040D03*
X69040Y95500D03*
Y98040D03*
X71580Y95500D03*
Y98040D03*
X74120Y95500D03*
Y98040D03*
X76660Y95500D03*
Y98040D03*
X79200Y95500D03*
Y98040D03*
X81740Y95500D03*
Y98040D03*
X84280Y95500D03*
Y98040D03*
X86750Y51760D03*
X84210Y54300D03*
Y51760D03*
X81670Y54300D03*
Y51760D03*
X79130Y54300D03*
Y51760D03*
X76590Y54300D03*
Y51760D03*
X74050Y54300D03*
Y51760D03*
X71510Y54300D03*
Y51760D03*
X68970Y54300D03*
Y51760D03*
X98040Y63500D03*
X95500Y66040D03*
X98040D03*
X95500Y68580D03*
X98040D03*
X95500Y71120D03*
X98040D03*
X95500Y73660D03*
X98040D03*
X95500Y76200D03*
X98040D03*
X95500Y78740D03*
X98040D03*
X95500Y81280D03*
X98040D03*
X95500Y83820D03*
X98040D03*
X95500Y86360D03*
X98040D03*
X51960Y63500D03*
X54500Y66040D03*
X51960D03*
X54500Y68580D03*
X51960D03*
X54500Y71120D03*
X51960D03*
X54500Y73660D03*
X51960D03*
X54500Y76200D03*
X51960D03*
X54500Y78740D03*
X51960D03*
X54500Y81280D03*
X51960D03*
X54500Y83820D03*
X51960D03*
X54500Y86360D03*
X51960D03*
G54D62*
X63250Y69750D03*
X64250Y62750D03*
X52750Y57500D03*
X69550Y63700D03*
G54D93*
X74900Y81450D03*
G54D94*
X93000Y51750D03*
X52500Y93000D03*
X91500Y90250D03*
G54D100*
X56425Y60600D03*
G54D25*
X91707Y93284D03*
X58710D03*
X91707Y94707D03*
X58710D03*
X91707Y96284D03*
X58710D03*
X91707Y97706D03*
X58710D03*
G54D22*
X91750Y56422D03*
Y55000D03*
X89500Y56422D03*
Y55000D03*
G54D21*
X97250Y57250D03*
X95827D03*
G54D22*
X94000Y60672D03*
Y59250D03*
G54D21*
X69750Y61300D03*
X68327D03*
G54D22*
X66250Y62172D03*
Y60750D03*
G54D21*
X65577Y65000D03*
X67000D03*
X66250Y67000D03*
X64827D03*
X92422Y70000D03*
X91000D03*
X92422Y72000D03*
X91000D03*
X77075Y70498D03*
X78497D03*
X92422Y74000D03*
X91000D03*
X92422Y76250D03*
X91000D03*
X92422Y88000D03*
X91000D03*
G54D22*
X88708Y93284D03*
X61710D03*
X88708Y94707D03*
X61710D03*
X88708Y96284D03*
X61710D03*
X88708Y97706D03*
X61710D03*
G54D11*
X82600Y75250D03*
G54D13*
X81100Y73750D03*
X80700D03*
X80300D03*
X79900D03*
X79500D03*
X79100D03*
X78700D03*
X78300D03*
X77900D03*
X77500D03*
X77100D03*
X76700D03*
X76300D03*
X75900D03*
X75500D03*
X75100D03*
X74700D03*
X74300D03*
X73900D03*
X73500D03*
X73100D03*
X72700D03*
X72300D03*
X71900D03*
X71500D03*
X71100D03*
X70700D03*
X70300D03*
X69900D03*
X69500D03*
X69100D03*
X68700D03*
G54D11*
X67200Y75250D03*
X82600Y78450D03*
Y78050D03*
Y77650D03*
Y77250D03*
Y76850D03*
Y76450D03*
Y76050D03*
Y75650D03*
X67200D03*
Y76050D03*
Y76450D03*
Y76850D03*
Y77250D03*
Y77650D03*
Y78050D03*
Y78450D03*
X82600Y81250D03*
Y80850D03*
Y80450D03*
Y80050D03*
Y79650D03*
Y79250D03*
Y78850D03*
X67200D03*
Y79250D03*
Y79650D03*
Y80050D03*
Y80450D03*
Y80850D03*
Y81250D03*
X82600Y84050D03*
Y83650D03*
Y83250D03*
Y82850D03*
Y82450D03*
Y82050D03*
Y81650D03*
X67200D03*
Y82050D03*
Y82450D03*
Y82850D03*
Y83250D03*
Y83650D03*
Y84050D03*
X82600Y86850D03*
Y86450D03*
Y86050D03*
Y85650D03*
Y85250D03*
Y84850D03*
Y84450D03*
X67200D03*
Y84850D03*
Y85250D03*
Y85650D03*
Y86050D03*
Y86450D03*
Y86850D03*
X82600Y87650D03*
Y87250D03*
G54D13*
X79500Y89150D03*
X79900D03*
X80300D03*
X80700D03*
X81100D03*
X76700D03*
X77100D03*
X77500D03*
X77900D03*
X78300D03*
X78700D03*
X79100D03*
X73500D03*
X73900D03*
X74300D03*
X74700D03*
X75100D03*
X75500D03*
X75900D03*
X76300D03*
X70700D03*
X71100D03*
X71500D03*
X71900D03*
X72300D03*
X72700D03*
X73100D03*
X68700D03*
X69100D03*
X69500D03*
X69900D03*
X70300D03*
G54D11*
X67200Y87250D03*
Y87650D03*
G54D27*
X60929Y70000D03*
X57500D03*
G54D34*
X57530Y60600D03*
X57525Y61539D03*
Y62489D03*
X57530Y65600D03*
X57525Y66539D03*
Y67489D03*
G54D31*
X60111Y60595D03*
X60101Y62484D03*
X60111Y65595D03*
X60101Y67484D03*
G54D125*
X56551Y55652D03*
G54D42*
X86250Y66000D03*
X91249D03*
X78250D03*
X83249D03*
G54D40*
X86250Y60000D03*
X91249D03*
X78250D03*
X83249D03*
G54D38*
X70129Y59000D03*
X68250D03*
G54D36*
X69189Y56993D03*
G54D70*
X97150Y59050D03*
X96500D03*
X95850D03*
X97150Y60950D03*
X95850D03*
X96500D03*
G54D17*
X88200Y70600D03*
X86300D03*
X88200Y71900D03*
Y71250D03*
X86300D03*
Y71900D03*
X88200Y74100D03*
X86300D03*
X88200Y75400D03*
Y74750D03*
X86300D03*
Y75400D03*
G54D15*
X86997Y82996D03*
G54D23*
X91975Y79186D03*
X86997D03*
X91975Y82996D03*
Y81726D03*
Y80456D03*
X86997D03*
Y81726D03*
G54D95*
X94900Y92331D02*
G01Y91150D01*
X95390*
X95759Y92106D02*
G01X95840Y92162D01*
Y92162D02*
G01X95963Y92331D01*
Y92331D02*
G01Y91150D01*
X96331Y91656D02*
G01X97068D01*
X97436Y92106D02*
G01X97518Y92162D01*
Y92162D02*
G01X97640Y92331D01*
Y92331D02*
G01Y91150D01*
X98050Y92050D02*
G01Y92106D01*
X98090Y92218*
Y92218D02*
G01X98131Y92275D01*
Y92275D02*
G01X98213Y92331D01*
Y92331D02*
G01X98377D01*
X98459Y92275*
X98500Y92218*
Y92218D02*
G01X98540Y92106D01*
Y92106D02*
G01Y91993D01*
Y91993D02*
G01X98500Y91881D01*
X98418Y91712*
Y91712D02*
G01X98009Y91150D01*
X98581*
X99154Y92331D02*
G01X99031Y92275D01*
Y92275D02*
G01X98990Y92162D01*
Y92162D02*
G01Y92050D01*
Y92050D02*
G01X99031Y91937D01*
Y91937D02*
G01X99113Y91881D01*
Y91881D02*
G01X99277Y91825D01*
X99400Y91768*
Y91768D02*
G01X99481Y91656D01*
Y91656D02*
G01X99522Y91543D01*
Y91543D02*
G01Y91375D01*
Y91375D02*
G01X99481Y91262D01*
Y91262D02*
G01X99440Y91206D01*
Y91206D02*
G01X99318Y91150D01*
X99154*
Y91150D02*
G01X99031Y91206D01*
Y91206D02*
G01X98990Y91262D01*
Y91262D02*
G01X98950Y91375D01*
Y91543*
Y91543D02*
G01X98990Y91656D01*
Y91656D02*
G01X99072Y91768D01*
Y91768D02*
G01X99195Y91825D01*
X99359Y91881*
X99440Y91937*
Y91937D02*
G01X99481Y92050D01*
Y92050D02*
G01Y92162D01*
Y92162D02*
G01X99440Y92275D01*
Y92275D02*
G01X99318Y92331D01*
X99154*
X95350Y94131D02*
G01X95922Y92950D01*
Y94131D02*
G01X95350Y92950D01*
X96290Y94131D02*
G01Y92950D01*
Y94131D02*
G01X96618Y92950D01*
X96945Y94131D02*
G01X96618Y92950D01*
X96945Y94131D02*
G01Y92950D01*
X97559Y94131D02*
G01X97477Y94075D01*
X97395Y93962*
Y93962D02*
G01X97354Y93850D01*
Y93850D02*
G01X97313Y93681D01*
Y93681D02*
G01Y93400D01*
Y93400D02*
G01X97354Y93231D01*
Y93231D02*
G01X97395Y93118D01*
Y93118D02*
G01X97477Y93006D01*
X97559Y92950*
X97722*
Y92950D02*
G01X97804Y93006D01*
Y93006D02*
G01X97886Y93118D01*
Y93118D02*
G01X97927Y93231D01*
X97968Y93400*
Y93681*
X97927Y93850*
X97886Y93962*
Y93962D02*
G01X97804Y94075D01*
Y94075D02*
G01X97722Y94131D01*
Y94131D02*
G01X97559D01*
X98909Y93962D02*
G01X98827Y94075D01*
X98704Y94131*
Y94131D02*
G01X98540D01*
Y94131D02*
G01X98418Y94075D01*
X98336Y93962*
Y93962D02*
G01Y93850D01*
X98377Y93737*
Y93737D02*
G01X98418Y93681D01*
X98500Y93625*
X98745Y93512*
Y93512D02*
G01X98827Y93456D01*
X98868Y93400*
X98909Y93287*
Y93287D02*
G01Y93118D01*
Y93118D02*
G01X98827Y93006D01*
X98704Y92950*
Y92950D02*
G01X98540D01*
Y92950D02*
G01X98418Y93006D01*
X98336Y93118*
X54640Y88934D02*
G01Y88184D01*
Y88184D02*
G01X54606Y88043D01*
Y88043D02*
G01X54572Y87996D01*
Y87996D02*
G01X54504Y87950D01*
Y87950D02*
G01X54436D01*
X54368Y87996*
Y87996D02*
G01X54334Y88043D01*
Y88043D02*
G01X54300Y88184D01*
Y88278*
X54947Y88934D02*
G01Y87950D01*
X55254Y88934D02*
G01Y87950D01*
Y88934D02*
G01X55731Y87950D01*
Y88934D02*
G01Y87950D01*
X75750Y68984D02*
G01Y68000D01*
Y68984D02*
G01X76056D01*
Y68984D02*
G01X76159Y68937D01*
Y68937D02*
G01X76193Y68890D01*
Y68890D02*
G01X76227Y68796D01*
Y68796D02*
G01Y68703D01*
X76193Y68609*
X76159Y68562*
Y68562D02*
G01X76056Y68515D01*
X75750D02*
G01X76056D01*
Y68515D02*
G01X76159Y68468D01*
Y68468D02*
G01X76193Y68421D01*
Y68421D02*
G01X76227Y68328D01*
Y68187*
Y68187D02*
G01X76193Y68093D01*
Y68093D02*
G01X76159Y68046D01*
Y68046D02*
G01X76056Y68000D01*
Y68000D02*
G01X75750D01*
X76534Y68796D02*
G01X76602Y68843D01*
Y68843D02*
G01X76704Y68984D01*
Y68984D02*
G01Y68000D01*
X96790Y90284D02*
G01Y89534D01*
Y89534D02*
G01X96756Y89393D01*
Y89393D02*
G01X96722Y89346D01*
Y89346D02*
G01X96654Y89300D01*
Y89300D02*
G01X96586D01*
X96518Y89346*
Y89346D02*
G01X96484Y89393D01*
Y89393D02*
G01X96450Y89534D01*
Y89628*
X97302Y90284D02*
G01X97234Y90237D01*
Y90237D02*
G01X97165Y90143D01*
Y90143D02*
G01X97131Y90050D01*
Y90050D02*
G01X97097Y89909D01*
Y89909D02*
G01Y89675D01*
Y89675D02*
G01X97131Y89534D01*
Y89534D02*
G01X97165Y89440D01*
Y89440D02*
G01X97234Y89346D01*
Y89346D02*
G01X97302Y89300D01*
X97438*
Y89300D02*
G01X97506Y89346D01*
Y89346D02*
G01X97575Y89440D01*
Y89440D02*
G01X97609Y89534D01*
X97643Y89675*
Y89909*
X97609Y90050*
X97575Y90143*
Y90143D02*
G01X97506Y90237D01*
Y90237D02*
G01X97438Y90284D01*
Y90284D02*
G01X97302D01*
X97950D02*
G01Y89581D01*
X97984Y89440*
Y89440D02*
G01X98052Y89346D01*
Y89346D02*
G01X98154Y89300D01*
Y89300D02*
G01X98222D01*
Y89300D02*
G01X98325Y89346D01*
Y89346D02*
G01X98393Y89440D01*
Y89440D02*
G01X98427Y89581D01*
Y90284*
X98972D02*
G01Y89300D01*
X98734Y90284D02*
G01X99211D01*
X85650Y70034D02*
G01Y69050D01*
Y70034D02*
G01X85956D01*
Y70034D02*
G01X86059Y69987D01*
Y69987D02*
G01X86093Y69940D01*
Y69940D02*
G01X86127Y69846D01*
Y69846D02*
G01Y69753D01*
X86093Y69659*
X86059Y69612*
Y69612D02*
G01X85956Y69565D01*
X85650D02*
G01X85956D01*
Y69565D02*
G01X86059Y69518D01*
Y69518D02*
G01X86093Y69471D01*
Y69471D02*
G01X86127Y69378D01*
Y69237*
Y69237D02*
G01X86093Y69143D01*
Y69143D02*
G01X86059Y69096D01*
Y69096D02*
G01X85956Y69050D01*
Y69050D02*
G01X85650D01*
X86468Y69800D02*
G01Y69846D01*
Y69846D02*
G01X86502Y69940D01*
Y69940D02*
G01X86536Y69987D01*
Y69987D02*
G01X86604Y70034D01*
Y70034D02*
G01X86740D01*
Y70034D02*
G01X86809Y69987D01*
Y69987D02*
G01X86843Y69940D01*
Y69940D02*
G01X86877Y69846D01*
Y69846D02*
G01Y69753D01*
X86843Y69659*
X86775Y69518*
Y69518D02*
G01X86434Y69050D01*
X86911*
X64150Y93884D02*
G01Y92900D01*
X64661Y93884D02*
G01X64593Y93837D01*
Y93837D02*
G01X64525Y93743D01*
Y93743D02*
G01X64490Y93650D01*
Y93650D02*
G01X64456Y93509D01*
Y93509D02*
G01Y93275D01*
Y93275D02*
G01X64490Y93134D01*
Y93134D02*
G01X64525Y93040D01*
Y93040D02*
G01X64593Y92946D01*
Y92946D02*
G01X64661Y92900D01*
X64797*
Y92900D02*
G01X64865Y92946D01*
Y92946D02*
G01X64934Y93040D01*
Y93040D02*
G01X64968Y93134D01*
X65002Y93275*
Y93509*
X64968Y93650*
X64934Y93743*
Y93743D02*
G01X64865Y93837D01*
Y93837D02*
G01X64797Y93884D01*
Y93884D02*
G01X64661D01*
X65309D02*
G01Y92900D01*
Y93884D02*
G01X65615D01*
Y93884D02*
G01X65718Y93837D01*
Y93837D02*
G01X65752Y93790D01*
Y93790D02*
G01X65786Y93696D01*
Y93696D02*
G01Y93603D01*
X65752Y93509*
X65718Y93462*
Y93462D02*
G01X65615Y93415D01*
X65309D02*
G01X65615D01*
Y93415D02*
G01X65718Y93368D01*
Y93368D02*
G01X65752Y93321D01*
Y93321D02*
G01X65786Y93228D01*
Y93087*
Y93087D02*
G01X65752Y92993D01*
Y92993D02*
G01X65718Y92946D01*
Y92946D02*
G01X65615Y92900D01*
Y92900D02*
G01X65309D01*
X68970Y54450D02*
G01X69800Y53620D01*
Y52750*
X70150Y52400*
Y50900*
X70500Y50550*
X88200*
X88438Y50788*
Y52846*
X89013Y53421*
X93465*
X93950Y53906*
Y54450*
X95100Y55600*
X98850*
X95827Y57250D02*
G01X96100D01*
Y58050*
X96500Y58450*
Y59050*
X86300Y71250D02*
G01X86800D01*
X86950Y71400*
Y72300*
X86450Y73250D02*
G01Y72800D01*
X86950Y72300*
X86450Y73250D02*
G01X87000Y73800D01*
Y74750*
X86300D02*
G01X87000D01*
X87026Y80426D02*
G01X88950D01*
Y80426D02*
G01X90250Y81726D01*
X91975Y82996D02*
G01X90250D01*
Y82996D02*
G01Y83550D01*
X90350Y83650*
Y84350*
X91975Y81726D02*
G01X90250D01*
Y81726D02*
G01Y82996D01*
X59150Y84350D02*
G01X60117D01*
X60129Y84337*
X86400Y87400D02*
G01Y86000D01*
X86900Y85500*
X90050*
X90350Y85200*
Y84350*
X86400Y87400D02*
G01X87100Y88100D01*
X89050*
X89150Y88000*
X91000*
G54D96*
X63657Y61472D02*
G01X63970D01*
Y61472D02*
G01X63799Y61159D01*
X63884*
Y61159D02*
G01X63941Y61120D01*
Y61120D02*
G01X63970Y61081D01*
X63998Y60963*
Y60963D02*
G01Y60885D01*
Y60885D02*
G01X63970Y60767D01*
Y60767D02*
G01X63913Y60689D01*
X63827Y60650*
Y60650D02*
G01X63742D01*
X63657Y60689*
X63628Y60728*
X63600Y60806*
X64255Y61472D02*
G01X64483Y60650D01*
X64711Y61472D02*
G01X64483Y60650D01*
G54D97*
X64400Y68587D02*
G01X64454Y68625D01*
Y68625D02*
G01X64536Y68737D01*
Y68737D02*
G01Y67950D01*
X64781Y68737D02*
G01X65000Y67950D01*
X65218Y68737D02*
G01X65000Y67950D01*
X71510Y54300D02*
G01Y55850D01*
X72000Y56340*
Y64000*
X70298Y55721D02*
G01Y52971D01*
Y52971D02*
G01X71510Y51760D01*
X70298Y55721D02*
G01X71538Y56961D01*
Y56961D02*
G01Y63861D01*
X83249Y60000D02*
G01Y57450D01*
Y57450D02*
G01X83542Y57157D01*
X88167*
X88410Y57400*
X89350*
X89500Y57250*
Y56422*
X83249Y60000D02*
G01Y66000D01*
X94000Y59250D02*
G01Y58550D01*
X94150Y58400*
X95350*
X95850Y58900*
Y59050*
X91289Y60000D02*
G01X91750D01*
Y56422*
X91249Y60000D02*
G01Y66000D01*
X97150Y59050D02*
G01Y58150D01*
X97250Y58050*
X97150Y60950D02*
G01Y61550D01*
X97325Y61725*
Y62425*
X97250Y57250D02*
G01Y58050D01*
X98150*
X99300Y59200*
Y64780*
X63002Y65247D02*
G01X63250Y65000D01*
X65577*
X60111Y65595D02*
G01X60900D01*
X61250Y65245*
X63000*
X63002Y65247*
X63000Y66000D02*
G01Y65250D01*
X63002Y65247*
X65579Y65006D02*
G01Y65879D01*
Y65879D02*
G01X65750Y66050D01*
X66150*
X66250Y66150*
Y67000*
X93000Y66600D02*
G01Y62400D01*
X94000Y61400*
Y60672*
X98040Y66040D02*
G01X99300Y64780D01*
X51960Y68580D02*
G01X53250Y69870D01*
Y71800*
X53850Y72400*
X54950*
X56500Y73950*
Y80050*
X56950Y80500*
Y84000*
X57450Y84500*
Y85450*
X58700Y86700*
X63650*
X65900Y84450*
X67200*
X68125Y72700D02*
G01Y74698D01*
Y74698D02*
G01X68376Y74950D01*
X68125Y72700D02*
G01X69100Y71725D01*
Y71250*
X75000Y65350*
Y57700*
X76450Y56250*
X77700*
X78050Y55900*
X81750*
X83000Y54650*
Y52970*
X84210Y51760*
X71707Y72100D02*
G01X71907Y72300D01*
X71300Y72100D02*
G01X71500D01*
X72150Y71207D02*
G01X74250Y69107D01*
Y69107D02*
G01Y69100D01*
X72150Y71207D02*
G01Y71892D01*
X72307Y72050*
X71300Y72100D02*
G01Y71800D01*
X71407*
Y71800D02*
G01X71707Y72100D01*
Y72100D02*
G01X71500D01*
Y73750*
X73930Y71497D02*
G01X73955Y71522D01*
Y71522D02*
G01Y72050D01*
Y72050D02*
G01X74305Y72400D01*
X77172Y71976D02*
G01X76698Y72450D01*
X76700Y73750*
X75150Y69900D02*
G01X75750D01*
X76100Y69550*
X79050*
X79700Y68900*
Y67700*
X80700Y66700*
X78400Y71850D02*
G01X78700Y72584D01*
Y73750*
X77172Y71976D02*
G01X77248Y71900D01*
X77250*
X77172Y71976D02*
G01X77495Y72300D01*
X77250Y71900D02*
G01X77650Y72300D01*
X77495*
Y72300D02*
G01X77500Y73750D01*
X77650Y72300D02*
G01X77753D01*
Y72300D02*
G01X77901Y72448D01*
Y72448D02*
G01Y73631D01*
X74997Y71497D02*
G01X75004Y71504D01*
Y72000*
X84100Y69800D02*
G01Y69249D01*
Y69249D02*
G01X84799Y68550D01*
Y68550D02*
G01X89400D01*
X89850Y68099*
Y68099D02*
G01X90249D01*
Y68099D02*
G01X91249Y67100D01*
X84450Y72450D02*
G01Y71350D01*
X85200Y70600*
X86300*
X87500Y71850D02*
G01Y70100D01*
X87850Y69750*
X89000*
X90150Y68600*
X92650*
X92950Y68300*
Y67650*
X94150Y66450*
Y62300*
X94650Y61800*
X95150*
X95850Y61100*
Y60950*
X87500Y71850D02*
G01Y72150D01*
X88400Y73050*
X88200Y71900D02*
G01X88350D01*
X89250Y72800*
X93150*
X93300Y72650*
Y72000*
X88200Y70600D02*
G01X88750D01*
X90350Y69000*
X93300*
X87300Y73050D02*
G01X87500Y73250D01*
Y75200*
X87700Y75400*
X88200*
X92422Y72000D02*
G01X93300D01*
X93500Y69200D02*
G01X93300Y69000D01*
X93500Y68800*
Y68040*
X95500Y66040*
X92422Y70000D02*
G01X93250D01*
X93500Y69750*
Y69200*
X93300Y72000D02*
G01X94180Y71120D01*
X95500*
Y68580D02*
G01X96700Y67380D01*
Y63050*
X97325Y62425*
X51960Y73660D02*
G01X53250Y74950D01*
X55550*
X56100Y75500*
Y80250*
X56550Y80700*
Y84350*
X57050Y84850*
Y88600*
X58050Y89600*
X60200*
X58100Y76150D02*
G01X59567Y74682D01*
Y74682D02*
G01X60240D01*
Y74682D02*
G01X64850Y70073D01*
Y70073D02*
G01Y70052D01*
X66402Y68500*
X66900*
X71538Y63861*
X57700Y77700D02*
G01X60327Y75072D01*
Y75072D02*
G01X60402D01*
Y75072D02*
G01X65240Y70235D01*
Y70213*
Y70213D02*
G01X66563Y68890D01*
Y68890D02*
G01X67110D01*
X72000Y64000*
X59000Y77650D02*
G01X60017Y76632D01*
Y76632D02*
G01Y76093D01*
X65630Y70480*
Y70375*
X66725Y69280*
X67271*
Y69280D02*
G01X72640Y63911D01*
Y63911D02*
G01Y53170D01*
X74050Y51760*
X64000Y74400D02*
G01Y77250D01*
X64350Y77600*
X64000Y74400D02*
G01X65075Y73325D01*
X65725*
X67225Y71825*
Y71425*
X67500Y71150*
X61000Y77850D02*
G01Y75661D01*
Y75661D02*
G01X66020Y70641D01*
Y70641D02*
G01Y70536D01*
Y70536D02*
G01X66886Y69670D01*
Y69670D02*
G01X67433D01*
X73030Y64073*
Y56319*
Y56319D02*
G01X74050Y55299D01*
Y55299D02*
G01Y54300D01*
X65650Y76150D02*
G01X66150Y75650D01*
X67200*
X69100Y73750D02*
G01Y72407D01*
X69500Y72007*
Y71407*
X75453Y65453*
Y65453D02*
G01Y57846D01*
Y57846D02*
G01X76650Y56650D01*
X78000*
X78250Y56400*
X82110*
X84210Y54300*
X67200Y76050D02*
G01X68176D01*
X68376Y75850*
Y74950*
X67200Y76450D02*
G01X68525D01*
X67228Y77652D02*
G01X68481D01*
X68800Y77971*
X64400Y74600D02*
G01Y76550D01*
X65100Y77250*
X67200*
X64400Y74600D02*
G01X65250Y73750D01*
X65900*
X68300Y71350*
Y70800*
X74200Y64900*
Y57300*
X76050Y55450*
X77100*
X77850Y54700*
Y53600*
X78450Y53000*
X80430*
X81670Y51760*
X64850Y76350D02*
G01Y74750D01*
X65400Y74200*
X66050*
X68700Y71550*
Y71050*
X74600Y65150*
Y57500*
X76250Y55850*
X77350*
X77750Y55450*
X80520*
X81670Y54300*
X64850Y76350D02*
G01X65350Y76850D01*
X67200*
X65650Y75000D02*
G01X65900Y75250D01*
X67200*
X74300Y73750D02*
G01X74305Y73744D01*
Y73744D02*
G01Y72400D01*
X73500Y73750D02*
G01X73508Y74914D01*
X73100Y73750D02*
G01X73107Y74909D01*
X72700Y73750D02*
G01X72707Y73742D01*
Y73742D02*
G01Y71750D01*
X72300Y73750D02*
G01X72307Y73742D01*
Y73742D02*
G01Y72050D01*
X71900Y73750D02*
G01X71907Y72300D01*
X71100Y73750D02*
G01X71107Y73742D01*
Y73742D02*
G01Y72100D01*
Y72100D02*
G01X71300D01*
X70300Y73750D02*
G01Y72287D01*
X70315Y72271*
Y72271D02*
G01Y71791D01*
Y71791D02*
G01X76325Y65775D01*
Y58174*
Y58174D02*
G01X77050Y57450D01*
X78500*
X78650Y57300*
X82750*
X84100Y55950*
X85100*
X86750Y54300*
X69900Y73750D02*
G01Y71607D01*
Y71607D02*
G01X75900Y65607D01*
Y65607D02*
G01Y58000D01*
X76850Y57050*
X78300*
X78500Y56850*
X82450*
X83800Y55500*
X84800*
X85450Y54850*
Y53060*
X86750Y51760*
X73107Y74909D02*
G01X73106Y74911D01*
X73109Y74914*
Y74914D02*
G01X73300D01*
Y74914D02*
G01X73508D01*
X79100Y73750D02*
G01X79102Y73747D01*
Y73747D02*
G01Y72438D01*
X77900Y73750D02*
G01X77901Y73631D01*
X75900Y73750D02*
G01Y75400D01*
X75500Y73750D02*
G01X75501Y75400D01*
Y75400D02*
G01X75900D01*
X75100Y73750D02*
G01X75103Y74846D01*
X74700Y73750D02*
G01X74704Y73745D01*
Y73745D02*
G01Y72300D01*
X75004Y72000*
X75900Y75400D02*
G01Y75450D01*
Y75450D02*
G01X76100D01*
X79250Y75650D02*
G01X79450Y75450D01*
X79489*
Y75450D02*
G01X79500Y73750D01*
X76100Y75450D02*
G01X76299D01*
X76300Y73750*
X74700Y75250D02*
G01X75103Y74846D01*
X82600Y77650D02*
G01X84750D01*
X84760Y77639*
X82600Y76850D02*
G01X83989D01*
X84000Y76839*
X84389Y76600*
X84450*
X82600Y75650D02*
G01X84139D01*
X84300Y75489*
Y75039*
X82600Y75250D02*
G01X83301D01*
X83510Y75041*
X83648*
X83650Y75039*
X84300*
X80700Y73750D02*
G01Y70536D01*
X81700Y69550*
Y68550*
X80300Y73750D02*
G01Y70287D01*
Y70287D02*
G01X80600Y70000D01*
Y68100*
X79888Y74850D02*
G01X80188Y75150D01*
Y75150D02*
G01X80200D01*
X79888Y74850D02*
G01X79900Y73750D01*
X83850Y73400D02*
G01X84750D01*
X85350Y72800*
Y72250*
X85700Y71900*
X86300*
X82400Y74350D02*
G01X83400D01*
X83650Y74100*
X86300*
X80400Y77450D02*
G01Y76684D01*
Y76684D02*
G01X80942Y76142D01*
Y75042*
X81084Y74900*
Y74900D02*
G01X81100Y73750D01*
X84300Y74900D02*
G01Y75039D01*
X81500Y74900D02*
G01Y75939D01*
X81600Y76039*
X82600Y76050*
X81500Y74900D02*
G01X81600Y74800D01*
Y70800*
X82600Y69800*
X82650Y73250D02*
G01Y71249D01*
Y71249D02*
G01X83349Y70550D01*
Y70550D02*
G01Y67100D01*
X88200Y75400D02*
G01X88350D01*
X88900Y75950*
X88200Y74100D02*
G01X88700D01*
X89150Y73650*
Y73420*
X89350Y73220*
X93300*
X93740Y73660*
X85450Y75400D02*
G01X86300D01*
X92422Y74000D02*
G01X93400D01*
X93740Y73660*
X95500*
X92422Y76250D02*
G01X93650D01*
X93700Y76200*
X95500*
X98040Y73660D02*
G01X99230Y74850D01*
Y87400*
X51960Y78740D02*
G01X53270Y80050D01*
X55150*
X56150Y81050*
Y84850*
X56650Y85350*
Y89050*
X57950Y90350*
X60850*
X61450Y89750*
X57350Y80125D02*
G01Y83650D01*
X58750Y85050*
X61810*
X64410Y82450*
X67200*
X57350Y80125D02*
G01X58800Y78675D01*
X61164*
Y78675D02*
G01X61780Y78059D01*
Y78059D02*
G01Y75433D01*
X66410Y70803*
Y70698*
Y70698D02*
G01X67048Y70060D01*
Y70060D02*
G01X67594D01*
Y70060D02*
G01X73420Y64234D01*
Y64234D02*
G01Y56702D01*
X75320Y54802*
Y53030*
X76590Y51760*
X63950Y82057D02*
G01X67215D01*
Y82057D02*
G01X67223Y82050D01*
X62250Y78750D02*
G01Y75514D01*
Y75514D02*
G01X66800Y70964D01*
Y70964D02*
G01Y70860D01*
X67210Y70450*
X67756*
X73810Y64396*
Y57080*
X76590Y54300*
X63700Y80900D02*
G01X64450Y81650D01*
X67200*
X61631Y80709D02*
G01X63872Y78468D01*
Y78468D02*
G01X64989D01*
Y78468D02*
G01X65644D01*
Y78468D02*
G01Y78450D01*
X67200Y79250D02*
G01X68733Y79266D01*
Y79266D02*
G01X68750Y79250D01*
X67200Y80450D02*
G01X68550Y80462D01*
X67200Y83250D02*
G01X68810Y83254D01*
X67200Y78450D02*
G01X65644D01*
Y78163*
X65757Y78050*
X67200*
X65300Y79300D02*
G01Y79315D01*
X65628Y79644*
Y79644D02*
G01X67223D01*
Y82050D02*
G01X68642Y82057D01*
Y82057D02*
G01X68650Y82050D01*
X65540Y80910D02*
G01Y80268D01*
X65753Y80055*
X67195*
X67200Y80050*
X68750Y79250D02*
G01X68800Y79200D01*
Y77971*
X82600Y82050D02*
G01X85142D01*
Y82050D02*
G01X85466Y81726D01*
Y81726D02*
G01X86996D01*
X82600Y81650D02*
G01X84640D01*
X84917Y81372*
Y81372D02*
G01X84922D01*
Y81372D02*
G01X85200Y81100D01*
X88300*
X88625Y81425*
X88675*
X88950Y81700*
Y82750*
X82600Y80850D02*
G01X84289D01*
Y80850D02*
G01X84650Y80489D01*
X82600Y79650D02*
G01X85089D01*
Y79650D02*
G01X85100Y79639D01*
Y79639D02*
G01X85300Y79839D01*
Y79839D02*
G01X88400D01*
Y79839D02*
G01X88533Y79973D01*
Y79973D02*
G01X89616D01*
X90100Y80456*
Y80456D02*
G01X91975D01*
X82600Y79250D02*
G01X83989D01*
Y79250D02*
G01X84000Y79239D01*
Y79239D02*
G01X84850D01*
Y79239D02*
G01X85639Y78450D01*
Y78450D02*
G01X89413D01*
X90150Y79186*
Y79186D02*
G01X91975D01*
X82600Y78450D02*
G01X84479D01*
X84489Y78439*
Y78439D02*
G01X84500Y78450D01*
X84650Y80489D02*
G01X86963D01*
X84650D02*
G01Y80500D01*
X87043Y82950D02*
G01X88750D01*
X88950Y82750*
X95500Y81280D02*
G01X96670Y82450D01*
X51960Y83820D02*
G01X53180Y82600D01*
X55400*
X58050Y88150D02*
G01X63850D01*
X65950Y86050*
X67200*
X58900Y85850D02*
G01X59350Y86300D01*
X63450*
X65698Y84051*
Y84051D02*
G01X67218D01*
Y84051D02*
G01X67219Y84052D01*
X63650Y85050D02*
G01X64100Y84600D01*
X64550*
X65500Y83650*
X67200*
X64250Y83700D02*
G01X65100Y82850D01*
X67200*
X60000Y87450D02*
G01X62550D01*
X63750*
X65950Y85250*
X67200*
X61196Y84337D02*
G01X61600Y83934D01*
Y82992*
X61631Y82961*
X68900Y87642D02*
G01X67108D01*
Y87642D02*
G01X67200Y87650D01*
X71200Y86842D02*
G01X71907Y87550D01*
X75500Y87250D02*
G01X75508Y87258D01*
X78150Y86350D02*
G01X78158Y86358D01*
Y86358D02*
G01Y87200D01*
Y87200D02*
G01X78708Y87750D01*
X82600Y87650D02*
G01X83251D01*
X83498Y87897*
X82600Y86850D02*
G01X82608Y86858D01*
Y86858D02*
G01X83914D01*
Y86858D02*
G01X84096Y87040D01*
X82600Y86050D02*
G01X83950D01*
X83959Y86040*
X82600Y85650D02*
G01X83981D01*
X83990Y85640*
X82600Y85250D02*
G01X84309D01*
Y85250D02*
G01X84547Y85488D01*
Y85488D02*
G01Y89200D01*
X82600Y84850D02*
G01X84559D01*
Y84850D02*
G01X84948Y85239D01*
Y85239D02*
G01Y89450D01*
X82600Y84050D02*
G01X84379D01*
Y84050D02*
G01X85400Y85070D01*
Y89900*
X82600Y83650D02*
G01X84759D01*
Y83650D02*
G01X85800Y84690D01*
Y90244*
Y90244D02*
G01X86400Y90850D01*
Y91650*
X81040Y86600D02*
G01X81200Y86440D01*
Y86440D02*
G01X82600Y86450D01*
X81300Y84450D02*
G01X82600D01*
X88150Y86450D02*
G01X91550D01*
X93650Y84350*
Y78050*
X94250Y77450*
X96300*
X96800Y76950*
Y69820*
X98040Y68580*
X87300Y87250D02*
G01X89500D01*
X89800Y86950*
X92000*
X94350Y84600*
Y80550*
X94850Y80050*
X96730*
X98040Y78740*
X87500Y84500D02*
G01X88500D01*
X89566D02*
G01X90200D01*
X90350Y84350*
X92422Y88000D02*
G01X93500D01*
X93950Y87550*
Y85820*
X94700Y85070*
X95980*
X96670Y84380*
Y82450*
X58700Y92150D02*
G01Y93274D01*
X58710Y93284*
X61700Y92100D02*
G01Y93274D01*
X61710Y93284*
X59450Y88900D02*
G01X64200D01*
X65850Y87250*
X67200*
X68707Y89150D02*
G01Y90000D01*
X67500Y91300D02*
G01X68400Y92200D01*
X69500*
X71100Y90600*
Y89150*
X68707Y89124D02*
G01Y89150D01*
X66200Y92050D02*
G01Y90607D01*
X66700Y90107*
X68600*
X68707Y90000*
X66200Y92050D02*
G01X66500Y92350D01*
Y95500*
X66650Y91750D02*
G01Y90800D01*
X66900Y90550*
X69350*
X69496Y90404*
X69500Y90400*
Y89150*
X66650Y91750D02*
G01X67711Y92800D01*
Y97040*
X68600Y91300D02*
G01X69500D01*
X70300Y90500*
Y89150*
X71900D02*
G01X71907Y87550D01*
X72300Y89150D02*
G01Y92600D01*
X72700Y89150D02*
G01Y91398D01*
X73400Y92098*
Y92590*
X73900Y89150D02*
G01Y92741D01*
Y92741D02*
G01X73908Y92750D01*
X71150Y92850D02*
G01Y91500D01*
X71500Y91150*
Y89150*
X74700D02*
G01Y90441D01*
Y90441D02*
G01X74708Y90450D01*
X75508Y87258D02*
G01X75500Y89150D01*
Y90341*
Y90341D02*
G01X75508Y90350D01*
X75900Y89150D02*
G01Y90535D01*
Y90535D02*
G01X75908Y90544D01*
X77500Y89150D02*
G01Y92800D01*
X77850Y93150*
Y96850*
X77900Y89150D02*
G01Y91490D01*
X78301Y91891*
Y91891D02*
G01Y91898D01*
X78300Y89150D02*
G01Y90591D01*
X79154Y91445*
Y91445D02*
G01Y91654D01*
X79650Y92150*
X78700Y89150D02*
G01X78708Y87750D01*
X79100Y89150D02*
G01Y90391D01*
X80108Y91400*
Y91400D02*
G01X81350D01*
X75050Y90808D02*
G01X75508Y90350D01*
X76300Y91400D02*
G01Y89150D01*
X84350Y91850D02*
G01X84850Y92350D01*
X88507*
Y92350D02*
G01X88707Y92550D01*
Y92550D02*
G01Y93284D01*
X83500Y93100D02*
G01Y90900D01*
X84948Y89450*
X83500Y93100D02*
G01X85550Y95150D01*
X85600*
Y96200*
X86500Y88600D02*
G01X87950D01*
X88300Y88950*
X94900*
X96830Y87020*
Y85030*
X98040Y83820*
X86550Y89800D02*
G01X88400Y91650D01*
X91157*
Y91650D02*
G01X91707Y92200D01*
Y92200D02*
G01Y93284D01*
X85250Y90900D02*
G01Y90050D01*
X85400Y89900*
X58710Y94707D02*
G01Y96284D01*
X61710Y94707D02*
G01Y96284D01*
X69040Y98040D02*
G01X70350Y96730D01*
Y95100*
X71300Y94150*
X72508*
X73908Y92750*
X69040Y95500D02*
G01X70800Y93740D01*
X72250*
X73400Y92590*
X66500Y98040D02*
G01Y98251D01*
X67711Y97040*
X71580Y98040D02*
G01X72820Y96800D01*
X74750*
X75420Y96130*
Y94650*
X75600Y94470*
Y90852*
X75908Y90544*
X71580Y95500D02*
G01X71588Y95750D01*
X74398Y92940*
Y90760*
X74708Y90450*
X79200Y98040D02*
G01X80470Y96800D01*
X82150*
X83000Y95950*
Y90750*
X84547Y89200*
X79200Y95500D02*
G01X82100Y92850D01*
Y90350*
X83498Y88952*
Y87897*
X76660Y98040D02*
G01X77850Y96850D01*
X76660Y95500D02*
G01Y93358D01*
X77100Y92918*
Y89150*
X81740Y98040D02*
G01X83050Y96730D01*
X85070*
X85600Y96200*
X81740Y95500D02*
G01Y94203D01*
X82553Y93390*
Y90550*
X84096Y89000*
Y87040*
X94150Y93800D02*
G01Y93000D01*
X94250Y92900*
Y90280*
X96550Y87980*
X98650*
X99230Y87400*
G54D98*
X50000Y43405D02*
G01Y42500D01*
Y43405D02*
G01X50282D01*
Y43405D02*
G01X50376Y43362D01*
Y43362D02*
G01X50407Y43319D01*
Y43319D02*
G01X50439Y43233D01*
Y43103*
Y43103D02*
G01X50407Y43017D01*
Y43017D02*
G01X50376Y42974D01*
X50282Y42931*
X50000*
X51191Y43190D02*
G01X51160Y43276D01*
Y43276D02*
G01X51097Y43362D01*
Y43362D02*
G01X51035Y43405D01*
Y43405D02*
G01X50909D01*
Y43405D02*
G01X50846Y43362D01*
Y43362D02*
G01X50784Y43276D01*
X50752Y43190*
Y43190D02*
G01X50721Y43060D01*
Y43060D02*
G01Y42845D01*
X50752Y42715*
Y42715D02*
G01X50784Y42629D01*
X50846Y42543*
Y42543D02*
G01X50909Y42500D01*
Y42500D02*
G01X51035D01*
X51097Y42543*
Y42543D02*
G01X51160Y42629D01*
Y42629D02*
G01X51191Y42715D01*
X51474Y43405D02*
G01Y42500D01*
Y43405D02*
G01X51756D01*
Y43405D02*
G01X51850Y43362D01*
Y43362D02*
G01X51881Y43319D01*
Y43319D02*
G01X51913Y43233D01*
Y43146*
Y43146D02*
G01X51881Y43060D01*
Y43060D02*
G01X51850Y43017D01*
Y43017D02*
G01X51756Y42974D01*
X51474D02*
G01X51756D01*
X51850Y42931*
Y42931D02*
G01X51881Y42888D01*
Y42888D02*
G01X51913Y42801D01*
Y42801D02*
G01Y42672D01*
Y42672D02*
G01X51881Y42586D01*
Y42586D02*
G01X51850Y42543D01*
Y42543D02*
G01X51756Y42500D01*
X51474*
X53387Y43190D02*
G01X53356Y43276D01*
X53293Y43362*
Y43362D02*
G01X53230Y43405D01*
Y43405D02*
G01X53105D01*
Y43405D02*
G01X53042Y43362D01*
Y43362D02*
G01X52979Y43276D01*
Y43276D02*
G01X52948Y43190D01*
X52916Y43060*
Y43060D02*
G01Y42845D01*
Y42845D02*
G01X52948Y42715D01*
Y42715D02*
G01X52979Y42629D01*
Y42629D02*
G01X53042Y42543D01*
X53105Y42500*
X53230*
Y42500D02*
G01X53293Y42543D01*
X53356Y42629*
X53387Y42715*
X53857Y43405D02*
G01X53795Y43362D01*
Y43362D02*
G01X53732Y43276D01*
X53701Y43190*
X53669Y43060*
Y43060D02*
G01Y42845D01*
Y42845D02*
G01X53701Y42715D01*
Y42715D02*
G01X53732Y42629D01*
X53795Y42543*
X53857Y42500*
Y42500D02*
G01X53983D01*
X54046Y42543*
X54108Y42629*
Y42629D02*
G01X54140Y42715D01*
Y42715D02*
G01X54171Y42845D01*
Y42845D02*
G01Y43060D01*
Y43060D02*
G01X54140Y43190D01*
X54108Y43276*
Y43276D02*
G01X54046Y43362D01*
Y43362D02*
G01X53983Y43405D01*
Y43405D02*
G01X53857D01*
X54453D02*
G01Y42500D01*
Y43405D02*
G01X54736D01*
Y43405D02*
G01X54830Y43362D01*
Y43362D02*
G01X54861Y43319D01*
Y43319D02*
G01X54892Y43233D01*
Y43233D02*
G01Y43103D01*
Y43103D02*
G01X54861Y43017D01*
Y43017D02*
G01X54830Y42974D01*
X54736Y42931*
X54453*
X55175Y43405D02*
G01Y42500D01*
Y43405D02*
G01X55457D01*
Y43405D02*
G01X55551Y43362D01*
Y43362D02*
G01X55583Y43319D01*
X55614Y43233*
Y43103*
Y43103D02*
G01X55583Y43017D01*
Y43017D02*
G01X55551Y42974D01*
Y42974D02*
G01X55457Y42931D01*
Y42931D02*
G01X55175D01*
X55896Y43405D02*
G01Y42500D01*
Y43405D02*
G01X56304D01*
X55896Y42974D02*
G01X56147D01*
X55896Y42500D02*
G01X56304D01*
X56586Y43405D02*
G01Y42500D01*
Y43405D02*
G01X56868D01*
Y43405D02*
G01X56963Y43362D01*
Y43362D02*
G01X56994Y43319D01*
X57025Y43233*
Y43233D02*
G01Y43146D01*
Y43146D02*
G01X56994Y43060D01*
Y43060D02*
G01X56963Y43017D01*
Y43017D02*
G01X56868Y42974D01*
Y42974D02*
G01X56586D01*
X56806D02*
G01X57025Y42500D01*
X58029Y43405D02*
G01Y42500D01*
X58405*
X58939Y43405D02*
G01X58688Y42500D01*
X58939Y43405D02*
G01X59190Y42500D01*
X58782Y42801D02*
G01X59095D01*
X59472Y43405D02*
G01X59723Y42974D01*
Y42500*
X59974Y43405D02*
G01X59723Y42974D01*
X60256Y43405D02*
G01Y42500D01*
Y43405D02*
G01X60664D01*
X60256Y42974D02*
G01X60507D01*
X60256Y42500D02*
G01X60664D01*
X60946Y43405D02*
G01Y42500D01*
Y43405D02*
G01X61228D01*
Y43405D02*
G01X61322Y43362D01*
Y43362D02*
G01X61354Y43319D01*
X61385Y43233*
Y43233D02*
G01Y43146D01*
Y43146D02*
G01X61354Y43060D01*
Y43060D02*
G01X61322Y43017D01*
Y43017D02*
G01X61228Y42974D01*
Y42974D02*
G01X60946D01*
X61166D02*
G01X61385Y42500D01*
X62389Y43233D02*
G01X62451Y43276D01*
Y43276D02*
G01X62546Y43405D01*
Y43405D02*
G01Y42500D01*
X49750Y40405D02*
G01Y39500D01*
Y40405D02*
G01X49969D01*
Y40405D02*
G01X50063Y40362D01*
Y40362D02*
G01X50126Y40276D01*
X50157Y40190*
Y40190D02*
G01X50189Y40060D01*
Y40060D02*
G01Y39845D01*
X50157Y39715*
Y39715D02*
G01X50126Y39629D01*
X50063Y39543*
Y39543D02*
G01X49969Y39500D01*
Y39500D02*
G01X49750D01*
X50471Y40405D02*
G01Y39500D01*
Y40405D02*
G01X50879D01*
X50471Y39974D02*
G01X50722D01*
X50471Y39500D02*
G01X50879D01*
X51600Y40276D02*
G01X51537Y40362D01*
Y40362D02*
G01X51443Y40405D01*
Y40405D02*
G01X51318D01*
Y40405D02*
G01X51224Y40362D01*
Y40362D02*
G01X51161Y40276D01*
Y40190*
X51192Y40103*
Y40103D02*
G01X51224Y40060D01*
Y40060D02*
G01X51286Y40017D01*
Y40017D02*
G01X51475Y39931D01*
X51537Y39888*
Y39888D02*
G01X51569Y39845D01*
X51600Y39758*
Y39758D02*
G01Y39629D01*
Y39629D02*
G01X51537Y39543D01*
Y39543D02*
G01X51443Y39500D01*
Y39500D02*
G01X51318D01*
X51224Y39543*
X51161Y39629*
X51882Y40405D02*
G01Y39500D01*
X52635Y40190D02*
G01X52604Y40276D01*
X52541Y40362*
Y40362D02*
G01X52478Y40405D01*
Y40405D02*
G01X52353D01*
Y40405D02*
G01X52290Y40362D01*
Y40362D02*
G01X52227Y40276D01*
Y40276D02*
G01X52196Y40190D01*
X52165Y40060*
Y40060D02*
G01Y39845D01*
X52196Y39715*
Y39715D02*
G01X52227Y39629D01*
Y39629D02*
G01X52290Y39543D01*
Y39543D02*
G01X52353Y39500D01*
X52478*
Y39500D02*
G01X52541Y39543D01*
Y39543D02*
G01X52604Y39629D01*
X52635Y39715*
Y39715D02*
G01Y39845D01*
X52478D02*
G01X52635D01*
X52917Y40405D02*
G01Y39500D01*
Y40405D02*
G01X53357Y39500D01*
Y40405D02*
G01Y39500D01*
X53639Y40405D02*
G01Y39500D01*
Y40405D02*
G01X54047D01*
X53639Y39974D02*
G01X53890D01*
X53639Y39500D02*
G01X54047D01*
X54329Y40405D02*
G01Y39500D01*
Y40405D02*
G01X54548D01*
Y40405D02*
G01X54642Y40362D01*
Y40362D02*
G01X54705Y40276D01*
Y40276D02*
G01X54737Y40190D01*
X54768Y40060*
Y40060D02*
G01Y39845D01*
X54737Y39715*
Y39715D02*
G01X54705Y39629D01*
Y39629D02*
G01X54642Y39543D01*
Y39543D02*
G01X54548Y39500D01*
Y39500D02*
G01X54329D01*
X55772Y40405D02*
G01Y39500D01*
Y40405D02*
G01X56054D01*
Y40405D02*
G01X56148Y40362D01*
Y40362D02*
G01X56179Y40319D01*
Y40319D02*
G01X56211Y40233D01*
Y40146*
Y40146D02*
G01X56179Y40060D01*
Y40060D02*
G01X56148Y40017D01*
Y40017D02*
G01X56054Y39974D01*
X55772D02*
G01X56054D01*
X56148Y39931*
Y39931D02*
G01X56179Y39888D01*
Y39888D02*
G01X56211Y39801D01*
Y39801D02*
G01Y39672D01*
Y39672D02*
G01X56179Y39586D01*
Y39586D02*
G01X56148Y39543D01*
Y39543D02*
G01X56054Y39500D01*
X55772*
X56493Y40405D02*
G01X56744Y39974D01*
Y39500*
X56995Y40405D02*
G01X56744Y39974D01*
X57309Y40103D02*
G01X57277Y40060D01*
Y40060D02*
G01X57309Y40017D01*
Y40017D02*
G01X57340Y40060D01*
Y40060D02*
G01X57309Y40103D01*
Y39586D02*
G01X57277Y39543D01*
Y39543D02*
G01X57309Y39500D01*
X57340Y39543*
X57309Y39586*
X57622Y39888D02*
G01X58187D01*
X59190Y40405D02*
G01Y39500D01*
Y40405D02*
G01X59410D01*
Y40405D02*
G01X59504Y40362D01*
Y40362D02*
G01X59567Y40276D01*
X59598Y40190*
Y40190D02*
G01X59630Y40060D01*
Y40060D02*
G01Y39845D01*
X59598Y39715*
Y39715D02*
G01X59567Y39629D01*
X59504Y39543*
Y39543D02*
G01X59410Y39500D01*
X59190*
X60163Y40405D02*
G01X59912Y39500D01*
X60163Y40405D02*
G01X60414Y39500D01*
X60006Y39801D02*
G01X60320D01*
X60696Y40405D02*
G01X60947Y39974D01*
Y39500*
X61198Y40405D02*
G01X60947Y39974D01*
X61480Y40405D02*
G01Y39500D01*
Y40405D02*
G01X61888D01*
X61480Y39974D02*
G01X61731D01*
X62358Y40405D02*
G01X62296Y40362D01*
Y40362D02*
G01X62233Y40276D01*
X62201Y40190*
Y40190D02*
G01X62170Y40060D01*
Y40060D02*
G01Y39845D01*
Y39845D02*
G01X62201Y39715D01*
Y39715D02*
G01X62233Y39629D01*
X62296Y39543*
X62358Y39500*
Y39500D02*
G01X62484D01*
X62547Y39543*
X62609Y39629*
Y39629D02*
G01X62641Y39715D01*
Y39715D02*
G01X62672Y39845D01*
Y40060*
Y40060D02*
G01X62641Y40190D01*
X62609Y40276*
Y40276D02*
G01X62547Y40362D01*
Y40362D02*
G01X62484Y40405D01*
Y40405D02*
G01X62358D01*
X62954D02*
G01Y39500D01*
Y40405D02*
G01X63237D01*
Y40405D02*
G01X63331Y40362D01*
Y40362D02*
G01X63362Y40319D01*
Y40319D02*
G01X63393Y40233D01*
Y40233D02*
G01Y40146D01*
Y40146D02*
G01X63362Y40060D01*
Y40060D02*
G01X63331Y40017D01*
Y40017D02*
G01X63237Y39974D01*
X62954*
X63174D02*
G01X63393Y39500D01*
X63676Y40405D02*
G01Y39500D01*
Y40405D02*
G01X63895D01*
Y40405D02*
G01X63989Y40362D01*
Y40362D02*
G01X64052Y40276D01*
Y40276D02*
G01X64083Y40190D01*
Y40190D02*
G01X64115Y40060D01*
Y40060D02*
G01Y39845D01*
X64083Y39715*
Y39715D02*
G01X64052Y39629D01*
Y39629D02*
G01X63989Y39543D01*
Y39543D02*
G01X63895Y39500D01*
Y39500D02*
G01X63676D01*
X65118Y40405D02*
G01Y39500D01*
Y40405D02*
G01X65338D01*
Y40405D02*
G01X65432Y40362D01*
Y40362D02*
G01X65495Y40276D01*
X65526Y40190*
Y40190D02*
G01X65558Y40060D01*
Y40060D02*
G01Y39845D01*
X65526Y39715*
Y39715D02*
G01X65495Y39629D01*
X65432Y39543*
Y39543D02*
G01X65338Y39500D01*
Y39500D02*
G01X65118D01*
X65840Y40405D02*
G01Y39500D01*
Y40405D02*
G01X66248D01*
X65840Y39974D02*
G01X66091D01*
X65840Y39500D02*
G01X66248D01*
X66969Y40276D02*
G01X66906Y40362D01*
Y40362D02*
G01X66812Y40405D01*
Y40405D02*
G01X66687D01*
Y40405D02*
G01X66593Y40362D01*
Y40362D02*
G01X66530Y40276D01*
Y40190*
X66561Y40103*
Y40103D02*
G01X66593Y40060D01*
Y40060D02*
G01X66655Y40017D01*
Y40017D02*
G01X66844Y39931D01*
X66906Y39888*
Y39888D02*
G01X66938Y39845D01*
X66969Y39758*
Y39758D02*
G01Y39629D01*
Y39629D02*
G01X66906Y39543D01*
Y39543D02*
G01X66812Y39500D01*
Y39500D02*
G01X66687D01*
X66593Y39543*
X66530Y39629*
X67251Y40405D02*
G01Y39500D01*
X68004Y40190D02*
G01X67973Y40276D01*
X67910Y40362*
Y40362D02*
G01X67847Y40405D01*
Y40405D02*
G01X67722D01*
Y40405D02*
G01X67659Y40362D01*
Y40362D02*
G01X67596Y40276D01*
Y40276D02*
G01X67565Y40190D01*
X67534Y40060*
Y40060D02*
G01Y39845D01*
X67565Y39715*
Y39715D02*
G01X67596Y39629D01*
Y39629D02*
G01X67659Y39543D01*
Y39543D02*
G01X67722Y39500D01*
X67847*
Y39500D02*
G01X67910Y39543D01*
X67973Y39629*
X68004Y39715*
Y39715D02*
G01Y39845D01*
X67847D02*
G01X68004D01*
X68286Y40405D02*
G01Y39500D01*
Y40405D02*
G01X68725Y39500D01*
Y40405D02*
G01Y39500D01*
X69447Y40276D02*
G01X69384Y40362D01*
Y40362D02*
G01X69290Y40405D01*
Y40405D02*
G01X69165D01*
Y40405D02*
G01X69070Y40362D01*
Y40362D02*
G01X69008Y40276D01*
Y40190*
X69039Y40103*
Y40103D02*
G01X69070Y40060D01*
Y40060D02*
G01X69133Y40017D01*
Y40017D02*
G01X69321Y39931D01*
Y39931D02*
G01X69384Y39888D01*
Y39888D02*
G01X69415Y39845D01*
Y39845D02*
G01X69447Y39758D01*
Y39758D02*
G01Y39629D01*
X69384Y39543*
Y39543D02*
G01X69290Y39500D01*
Y39500D02*
G01X69165D01*
X69070Y39543*
Y39543D02*
G01X69008Y39629D01*
X70451Y40405D02*
G01Y39500D01*
X70827*
X71329Y40405D02*
G01Y39500D01*
X71109Y40405D02*
G01X71548D01*
X71831D02*
G01Y39500D01*
Y40405D02*
G01X72050D01*
Y40405D02*
G01X72144Y40362D01*
Y40362D02*
G01X72207Y40276D01*
X72238Y40190*
Y40190D02*
G01X72270Y40060D01*
Y40060D02*
G01Y39845D01*
X72238Y39715*
Y39715D02*
G01X72207Y39629D01*
X72144Y39543*
Y39543D02*
G01X72050Y39500D01*
Y39500D02*
G01X71831D01*
X73493Y40578D02*
G01X73430Y40491D01*
Y40491D02*
G01X73368Y40362D01*
Y40362D02*
G01X73305Y40190D01*
X73273Y39974*
Y39974D02*
G01Y39801D01*
Y39801D02*
G01X73305Y39586D01*
X73368Y39413*
Y39413D02*
G01X73430Y39284D01*
Y39284D02*
G01X73493Y39198D01*
X73775Y40405D02*
G01Y39500D01*
Y40405D02*
G01X74058D01*
Y40405D02*
G01X74152Y40362D01*
Y40362D02*
G01X74183Y40319D01*
Y40319D02*
G01X74214Y40233D01*
Y40233D02*
G01Y40146D01*
Y40146D02*
G01X74183Y40060D01*
Y40060D02*
G01X74152Y40017D01*
Y40017D02*
G01X74058Y39974D01*
X73775*
X73995D02*
G01X74214Y39500D01*
X74497Y40405D02*
G01Y39500D01*
Y40405D02*
G01X74904D01*
X74497Y39974D02*
G01X74748D01*
X74497Y39500D02*
G01X74904D01*
X75187Y40405D02*
G01Y39500D01*
Y40405D02*
G01X75594D01*
X75187Y39974D02*
G01X75438D01*
X76598Y40405D02*
G01Y39500D01*
Y40405D02*
G01X76880D01*
Y40405D02*
G01X76975Y40362D01*
Y40362D02*
G01X77006Y40319D01*
X77037Y40233*
Y40233D02*
G01Y40146D01*
Y40146D02*
G01X77006Y40060D01*
Y40060D02*
G01X76975Y40017D01*
Y40017D02*
G01X76880Y39974D01*
X76598D02*
G01X76880D01*
Y39974D02*
G01X76975Y39931D01*
X77006Y39888*
X77037Y39801*
Y39801D02*
G01Y39672D01*
Y39672D02*
G01X77006Y39586D01*
X76975Y39543*
X76880Y39500*
Y39500D02*
G01X76598D01*
X77508Y40405D02*
G01X77414Y40362D01*
Y40362D02*
G01X77351Y40233D01*
X77320Y40017*
Y40017D02*
G01Y39888D01*
X77351Y39672*
Y39672D02*
G01X77414Y39543D01*
X77508Y39500*
X77570*
Y39500D02*
G01X77665Y39543D01*
X77727Y39672*
Y39672D02*
G01X77759Y39888D01*
Y40017*
Y40017D02*
G01X77727Y40233D01*
Y40233D02*
G01X77665Y40362D01*
Y40362D02*
G01X77570Y40405D01*
Y40405D02*
G01X77508D01*
X78041Y40233D02*
G01X78104Y40276D01*
X78198Y40405*
Y40405D02*
G01Y39500D01*
X78511Y40190D02*
G01Y40233D01*
Y40233D02*
G01X78543Y40319D01*
X78574Y40362*
Y40362D02*
G01X78637Y40405D01*
Y40405D02*
G01X78762D01*
Y40405D02*
G01X78825Y40362D01*
Y40362D02*
G01X78856Y40319D01*
Y40319D02*
G01X78888Y40233D01*
Y40146*
Y40146D02*
G01X78856Y40060D01*
Y40060D02*
G01X78794Y39931D01*
X78480Y39500*
Y39500D02*
G01X78919D01*
X79390Y40405D02*
G01X79296Y40362D01*
Y40362D02*
G01X79233Y40233D01*
X79201Y40017*
Y40017D02*
G01Y39888D01*
Y39888D02*
G01X79233Y39672D01*
Y39672D02*
G01X79296Y39543D01*
X79390Y39500*
X79452*
Y39500D02*
G01X79546Y39543D01*
Y39543D02*
G01X79609Y39672D01*
Y39672D02*
G01X79641Y39888D01*
Y40017*
Y40017D02*
G01X79609Y40233D01*
Y40233D02*
G01X79546Y40362D01*
Y40362D02*
G01X79452Y40405D01*
Y40405D02*
G01X79390D01*
X80236D02*
G01X79923Y39801D01*
Y39801D02*
G01X80393D01*
X80236Y40405D02*
G01Y39500D01*
X80676Y40578D02*
G01X80738Y40491D01*
Y40491D02*
G01X80801Y40362D01*
Y40362D02*
G01X80864Y40190D01*
X80895Y39974*
Y39974D02*
G01Y39801D01*
Y39801D02*
G01X80864Y39586D01*
X80801Y39413*
Y39413D02*
G01X80738Y39284D01*
Y39284D02*
G01X80676Y39198D01*
X49750Y41905D02*
G01X50189Y41000D01*
Y41905D02*
G01X49750Y41000D01*
X50471Y41905D02*
G01Y41000D01*
Y41905D02*
G01X50722Y41000D01*
X50973Y41905D02*
G01X50722Y41000D01*
X50973Y41905D02*
G01Y41000D01*
X51443Y41905D02*
G01X51380Y41862D01*
Y41862D02*
G01X51318Y41776D01*
X51286Y41690*
Y41690D02*
G01X51255Y41560D01*
Y41560D02*
G01Y41345D01*
Y41345D02*
G01X51286Y41215D01*
Y41215D02*
G01X51318Y41129D01*
X51380Y41043*
Y41043D02*
G01X51443Y41000D01*
Y41000D02*
G01X51569D01*
X51631Y41043*
Y41043D02*
G01X51694Y41129D01*
Y41129D02*
G01X51726Y41215D01*
Y41215D02*
G01X51757Y41345D01*
Y41560*
Y41560D02*
G01X51726Y41690D01*
X51694Y41776*
Y41776D02*
G01X51631Y41862D01*
Y41862D02*
G01X51569Y41905D01*
Y41905D02*
G01X51443D01*
X52478Y41776D02*
G01X52416Y41862D01*
Y41862D02*
G01X52321Y41905D01*
Y41905D02*
G01X52196D01*
Y41905D02*
G01X52102Y41862D01*
Y41862D02*
G01X52039Y41776D01*
Y41776D02*
G01Y41690D01*
Y41690D02*
G01X52071Y41603D01*
Y41603D02*
G01X52102Y41560D01*
Y41560D02*
G01X52165Y41517D01*
Y41517D02*
G01X52353Y41431D01*
X52416Y41388*
X52447Y41345*
X52478Y41258*
Y41258D02*
G01Y41129D01*
Y41129D02*
G01X52416Y41043D01*
X52321Y41000*
Y41000D02*
G01X52196D01*
X52102Y41043*
X52039Y41129*
X53482Y41905D02*
G01X53921Y41000D01*
Y41905D02*
G01X53482Y41000D01*
X54203Y41905D02*
G01Y41000D01*
X54642Y41905D02*
G01X54203Y41301D01*
X54360Y41517D02*
G01X54642Y41000D01*
X54925Y41388D02*
G01X55489D01*
X55772Y41733D02*
G01X55834Y41776D01*
Y41776D02*
G01X55928Y41905D01*
Y41905D02*
G01Y41000D01*
X56462Y41905D02*
G01X56211Y41000D01*
X56462Y41905D02*
G01X56713Y41000D01*
X56305Y41301D02*
G01X56618D01*
X57716Y41905D02*
G01Y41000D01*
Y41905D02*
G01X57999D01*
Y41905D02*
G01X58093Y41862D01*
Y41862D02*
G01X58124Y41819D01*
Y41819D02*
G01X58155Y41733D01*
Y41733D02*
G01Y41646D01*
Y41646D02*
G01X58124Y41560D01*
Y41560D02*
G01X58093Y41517D01*
Y41517D02*
G01X57999Y41474D01*
X57716*
X57936D02*
G01X58155Y41000D01*
X58438Y41905D02*
G01Y41000D01*
Y41905D02*
G01X58845D01*
X58438Y41474D02*
G01X58689D01*
X58438Y41000D02*
G01X58845D01*
X59128Y41905D02*
G01X59379Y41000D01*
X59630Y41905D02*
G01X59379Y41000D01*
X59943Y41086D02*
G01X59912Y41043D01*
X59943Y41000*
Y41000D02*
G01X59975Y41043D01*
X59943Y41086*
X60508Y41905D02*
G01X60257Y41000D01*
X60508Y41905D02*
G01X60759Y41000D01*
X60351Y41301D02*
G01X60665D01*
X62923Y41905D02*
G01X62609Y41000D01*
X62484Y41905D02*
G01X62923D01*
X63770Y42078D02*
G01X63205Y40698D01*
X64052Y41733D02*
G01X64115Y41776D01*
X64209Y41905*
Y41905D02*
G01Y41000D01*
X64523Y41690D02*
G01Y41733D01*
X64554Y41819*
X64585Y41862*
Y41862D02*
G01X64648Y41905D01*
Y41905D02*
G01X64773D01*
Y41905D02*
G01X64836Y41862D01*
Y41862D02*
G01X64868Y41819D01*
X64899Y41733*
Y41646*
Y41646D02*
G01X64868Y41560D01*
Y41560D02*
G01X64805Y41431D01*
X64491Y41000*
Y41000D02*
G01X64930D01*
X65777Y42078D02*
G01X65213Y40698D01*
X66059Y41733D02*
G01X66122Y41776D01*
Y41776D02*
G01X66216Y41905D01*
Y41905D02*
G01Y41000D01*
X66687Y41905D02*
G01X66593Y41862D01*
Y41862D02*
G01X66530Y41733D01*
X66499Y41517*
Y41517D02*
G01Y41388D01*
X66530Y41172*
Y41172D02*
G01X66593Y41043D01*
X66687Y41000*
X66749*
Y41000D02*
G01X66844Y41043D01*
X66906Y41172*
Y41172D02*
G01X66938Y41388D01*
Y41517*
Y41517D02*
G01X66906Y41733D01*
Y41733D02*
G01X66844Y41862D01*
Y41862D02*
G01X66749Y41905D01*
Y41905D02*
G01X66687D01*
X49969Y38905D02*
G01Y38000D01*
X49750Y38905D02*
G01X50189D01*
X50471D02*
G01Y38000D01*
Y38905D02*
G01X50879D01*
X50471Y38474D02*
G01X50722D01*
X50471Y38000D02*
G01X50879D01*
X51161Y38905D02*
G01X51600Y38000D01*
Y38905D02*
G01X51161Y38000D01*
X52102Y38905D02*
G01Y38000D01*
X51882Y38905D02*
G01X52321D01*
X53325D02*
G01Y38000D01*
Y38905D02*
G01X53607D01*
Y38905D02*
G01X53702Y38862D01*
Y38862D02*
G01X53733Y38819D01*
X53764Y38733*
Y38733D02*
G01Y38646D01*
Y38646D02*
G01X53733Y38560D01*
Y38560D02*
G01X53702Y38517D01*
Y38517D02*
G01X53607Y38474D01*
Y38474D02*
G01X53325D01*
X53545D02*
G01X53764Y38000D01*
X54047Y38905D02*
G01Y38000D01*
X54799Y38690D02*
G01X54768Y38776D01*
X54705Y38862*
Y38862D02*
G01X54642Y38905D01*
Y38905D02*
G01X54517D01*
Y38905D02*
G01X54454Y38862D01*
Y38862D02*
G01X54392Y38776D01*
X54360Y38690*
Y38690D02*
G01X54329Y38560D01*
Y38560D02*
G01Y38345D01*
X54360Y38215*
Y38215D02*
G01X54392Y38129D01*
X54454Y38043*
Y38043D02*
G01X54517Y38000D01*
Y38000D02*
G01X54642D01*
Y38000D02*
G01X54705Y38043D01*
Y38043D02*
G01X54768Y38129D01*
X54799Y38215*
Y38215D02*
G01Y38345D01*
X54642D02*
G01X54799D01*
X55082Y38905D02*
G01Y38000D01*
X55521Y38905D02*
G01Y38000D01*
X55082Y38474D02*
G01X55521D01*
X56023Y38905D02*
G01Y38000D01*
X55803Y38905D02*
G01X56242D01*
X57246D02*
G01Y38000D01*
Y38905D02*
G01X57528D01*
Y38905D02*
G01X57622Y38862D01*
Y38862D02*
G01X57654Y38819D01*
X57685Y38733*
Y38646*
Y38646D02*
G01X57654Y38560D01*
Y38560D02*
G01X57622Y38517D01*
Y38517D02*
G01X57528Y38474D01*
Y38474D02*
G01X57246D01*
X57465D02*
G01X57685Y38000D01*
X57967Y38905D02*
G01Y38000D01*
Y38905D02*
G01X58375D01*
X57967Y38474D02*
G01X58218D01*
X57967Y38000D02*
G01X58375D01*
X58908Y38905D02*
G01X58657Y38000D01*
X58908Y38905D02*
G01X59159Y38000D01*
X58751Y38301D02*
G01X59065D01*
X59441Y38905D02*
G01Y38000D01*
Y38905D02*
G01X59661D01*
Y38905D02*
G01X59755Y38862D01*
Y38862D02*
G01X59818Y38776D01*
X59849Y38690*
Y38690D02*
G01X59880Y38560D01*
Y38560D02*
G01Y38345D01*
Y38345D02*
G01X59849Y38215D01*
Y38215D02*
G01X59818Y38129D01*
X59755Y38043*
Y38043D02*
G01X59661Y38000D01*
X59441*
X60163Y38905D02*
G01Y38000D01*
X60445Y38905D02*
G01Y38000D01*
Y38905D02*
G01X60884Y38000D01*
Y38905D02*
G01Y38000D01*
X61637Y38690D02*
G01X61606Y38776D01*
X61543Y38862*
Y38862D02*
G01X61480Y38905D01*
Y38905D02*
G01X61355D01*
Y38905D02*
G01X61292Y38862D01*
Y38862D02*
G01X61229Y38776D01*
Y38776D02*
G01X61198Y38690D01*
X61166Y38560*
Y38560D02*
G01Y38345D01*
Y38345D02*
G01X61198Y38215D01*
Y38215D02*
G01X61229Y38129D01*
Y38129D02*
G01X61292Y38043D01*
X61355Y38000*
X61480*
Y38000D02*
G01X61543Y38043D01*
X61606Y38129*
X61637Y38215*
Y38215D02*
G01Y38345D01*
X61480D02*
G01X61637D01*
X62641Y38905D02*
G01Y38000D01*
Y38905D02*
G01X63048D01*
X62641Y38474D02*
G01X62892D01*
X63331Y38905D02*
G01Y38000D01*
Y38905D02*
G01X63613D01*
Y38905D02*
G01X63707Y38862D01*
Y38862D02*
G01X63738Y38819D01*
Y38819D02*
G01X63770Y38733D01*
Y38646*
Y38646D02*
G01X63738Y38560D01*
Y38560D02*
G01X63707Y38517D01*
Y38517D02*
G01X63613Y38474D01*
X63331*
X63550D02*
G01X63770Y38000D01*
X64240Y38905D02*
G01X64178Y38862D01*
Y38862D02*
G01X64115Y38776D01*
X64083Y38690*
Y38690D02*
G01X64052Y38560D01*
Y38560D02*
G01Y38345D01*
Y38345D02*
G01X64083Y38215D01*
Y38215D02*
G01X64115Y38129D01*
X64178Y38043*
X64240Y38000*
Y38000D02*
G01X64366D01*
X64428Y38043*
Y38043D02*
G01X64491Y38129D01*
Y38129D02*
G01X64523Y38215D01*
Y38215D02*
G01X64554Y38345D01*
Y38560*
Y38560D02*
G01X64523Y38690D01*
X64491Y38776*
Y38776D02*
G01X64428Y38862D01*
Y38862D02*
G01X64366Y38905D01*
Y38905D02*
G01X64240D01*
X64836D02*
G01Y38000D01*
Y38905D02*
G01X65087Y38000D01*
X65338Y38905D02*
G01X65087Y38000D01*
X65338Y38905D02*
G01Y38000D01*
X66561Y38905D02*
G01Y38000D01*
X66342Y38905D02*
G01X66781D01*
X67251D02*
G01X67189Y38862D01*
Y38862D02*
G01X67126Y38776D01*
X67094Y38690*
Y38690D02*
G01X67063Y38560D01*
Y38560D02*
G01Y38345D01*
Y38345D02*
G01X67094Y38215D01*
Y38215D02*
G01X67126Y38129D01*
X67189Y38043*
X67251Y38000*
Y38000D02*
G01X67377D01*
X67439Y38043*
Y38043D02*
G01X67502Y38129D01*
Y38129D02*
G01X67534Y38215D01*
Y38215D02*
G01X67565Y38345D01*
Y38560*
Y38560D02*
G01X67534Y38690D01*
X67502Y38776*
Y38776D02*
G01X67439Y38862D01*
Y38862D02*
G01X67377Y38905D01*
Y38905D02*
G01X67251D01*
X67847D02*
G01Y38000D01*
Y38905D02*
G01X68130D01*
Y38905D02*
G01X68224Y38862D01*
Y38862D02*
G01X68255Y38819D01*
X68286Y38733*
Y38733D02*
G01Y38603D01*
Y38603D02*
G01X68255Y38517D01*
Y38517D02*
G01X68224Y38474D01*
X68130Y38431*
X67847*
X69729Y38776D02*
G01X69666Y38862D01*
Y38862D02*
G01X69572Y38905D01*
Y38905D02*
G01X69447D01*
Y38905D02*
G01X69353Y38862D01*
Y38862D02*
G01X69290Y38776D01*
Y38776D02*
G01Y38690D01*
Y38690D02*
G01X69321Y38603D01*
Y38603D02*
G01X69353Y38560D01*
Y38560D02*
G01X69415Y38517D01*
Y38517D02*
G01X69604Y38431D01*
X69666Y38388*
Y38388D02*
G01X69698Y38345D01*
X69729Y38258*
Y38258D02*
G01Y38129D01*
Y38129D02*
G01X69666Y38043D01*
Y38043D02*
G01X69572Y38000D01*
Y38000D02*
G01X69447D01*
X69353Y38043*
X69290Y38129*
X70011Y38905D02*
G01Y38000D01*
X70294Y38905D02*
G01Y38000D01*
Y38905D02*
G01X70513D01*
Y38905D02*
G01X70607Y38862D01*
Y38862D02*
G01X70670Y38776D01*
Y38776D02*
G01X70701Y38690D01*
Y38690D02*
G01X70733Y38560D01*
Y38560D02*
G01Y38345D01*
X70701Y38215*
Y38215D02*
G01X70670Y38129D01*
Y38129D02*
G01X70607Y38043D01*
Y38043D02*
G01X70513Y38000D01*
Y38000D02*
G01X70294D01*
X71015Y38905D02*
G01Y38000D01*
Y38905D02*
G01X71423D01*
X71015Y38474D02*
G01X71266D01*
X71015Y38000D02*
G01X71423D01*
X72646Y39078D02*
G01X72583Y38991D01*
Y38991D02*
G01X72521Y38862D01*
Y38862D02*
G01X72458Y38690D01*
X72427Y38474*
Y38301*
Y38301D02*
G01X72458Y38086D01*
X72521Y37913*
Y37913D02*
G01X72583Y37784D01*
Y37784D02*
G01X72646Y37698D01*
X72928Y38905D02*
G01Y38000D01*
Y38000D02*
G01X73305D01*
X73838Y38905D02*
G01X73587Y38000D01*
X73838Y38905D02*
G01X74089Y38000D01*
X73681Y38301D02*
G01X73995D01*
X74371Y38905D02*
G01X74622Y38474D01*
Y38474D02*
G01Y38000D01*
X74873Y38905D02*
G01X74622Y38474D01*
X75155Y38905D02*
G01Y38000D01*
Y38905D02*
G01X75563D01*
X75155Y38474D02*
G01X75406D01*
X75155Y38000D02*
G01X75563D01*
X75845Y38905D02*
G01Y38000D01*
Y38905D02*
G01X76128D01*
Y38905D02*
G01X76222Y38862D01*
Y38862D02*
G01X76253Y38819D01*
Y38819D02*
G01X76284Y38733D01*
Y38733D02*
G01Y38646D01*
Y38646D02*
G01X76253Y38560D01*
Y38560D02*
G01X76222Y38517D01*
Y38517D02*
G01X76128Y38474D01*
X75845*
X76065D02*
G01X76284Y38000D01*
X76567Y38733D02*
G01X76629Y38776D01*
Y38776D02*
G01X76724Y38905D01*
Y38905D02*
G01Y38000D01*
X77006Y39078D02*
G01X77069Y38991D01*
Y38991D02*
G01X77131Y38862D01*
Y38862D02*
G01X77194Y38690D01*
Y38690D02*
G01X77225Y38474D01*
Y38474D02*
G01Y38301D01*
Y38301D02*
G01X77194Y38086D01*
Y38086D02*
G01X77131Y37913D01*
Y37913D02*
G01X77069Y37784D01*
X77006Y37698*
X63250Y51405D02*
G01Y50500D01*
Y51405D02*
G01X63532D01*
Y51405D02*
G01X63626Y51362D01*
Y51362D02*
G01X63657Y51319D01*
Y51319D02*
G01X63689Y51233D01*
Y51146*
Y51146D02*
G01X63657Y51060D01*
Y51060D02*
G01X63626Y51017D01*
Y51017D02*
G01X63532Y50974D01*
X63250*
X63469D02*
G01X63689Y50500D01*
X63971Y51405D02*
G01Y50500D01*
Y51405D02*
G01X64379D01*
X63971Y50974D02*
G01X64222D01*
X63971Y50500D02*
G01X64379D01*
X64661Y51405D02*
G01X64912Y50500D01*
X65163Y51405D02*
G01X64912Y50500D01*
X65476Y50586D02*
G01X65445Y50543D01*
Y50543D02*
G01X65476Y50500D01*
Y50500D02*
G01X65508Y50543D01*
X65476Y50586*
X66041Y51405D02*
G01X65790Y50500D01*
X66041Y51405D02*
G01X66292Y50500D01*
X65884Y50801D02*
G01X66198D01*
G54D99*
X63050Y54300D02*
G01X64697D01*
Y54300D02*
G01X65143Y53354D01*
X68970Y54300D02*
G01Y54450D01*
X67770Y55500D02*
G01X68020D01*
X69220Y56700*
X67770Y55500D02*
G01X68970Y54300D01*
X65143Y53354D02*
G01X65205D01*
Y53354D02*
G01X66800Y51760D01*
X68970*
X51250Y61250D02*
G01X51750Y60750D01*
X51900Y60600*
X56425*
Y60600D02*
G01Y62489D01*
Y60600D02*
G01Y59125D01*
Y59125D02*
G01X56551Y59000D01*
Y59000D02*
G01X61750D01*
X62700Y58050*
Y56300*
X63500Y55500*
X67770*
X56425Y62489D02*
G01Y64000D01*
X56400Y62489D02*
G01Y60625D01*
Y60625D02*
G01X56425Y60600D01*
X60100Y62484D02*
G01X61050D01*
Y62484D02*
G01X61465Y62900D01*
X62250*
X64100*
X64250Y62750*
X66250Y62172D02*
G01Y63000D01*
X66550Y63300*
X67450*
X68350Y62400*
X70400*
X70814Y61985*
Y61985D02*
G01Y61300D01*
X68250Y60100D02*
G01Y60922D01*
X68327Y61300*
X65143Y57949D02*
G01X66250Y58556D01*
Y60750*
X68250Y59000D02*
G01Y60100D01*
X70814Y61300D02*
G01Y61100D01*
X70129Y59000D02*
G01X70814Y59685D01*
Y59685D02*
G01Y61100D01*
X79250Y62950D02*
G01X80000D01*
X81050Y61900*
Y58200*
X51960Y63500D02*
G01X54500D01*
X56400Y65600D02*
G01Y64000D01*
Y62489*
X56425Y64000D02*
G01Y65600D01*
X56400Y67489D02*
G01Y66500D01*
Y65600*
X57500Y70000D02*
G01X58934D01*
Y70000D02*
G01X59234Y69700D01*
Y69700D02*
G01Y68150D01*
Y68150D02*
G01X59900Y67484D01*
X63000Y69750D02*
G01X63250D01*
X60450Y73100D02*
G01X60929Y72621D01*
Y70000*
X61500Y69750D02*
G01X63000D01*
X60929Y70000D02*
G01Y69750D01*
X61500*
X69250Y75650D02*
G01X71000Y77400D01*
X73300Y75700D02*
G01X74050Y76450D01*
X75000*
X70650Y75700D02*
G01X70750D01*
X71300Y76250*
X72750*
X73300Y75700*
Y74914D02*
G01Y75700D01*
X76100Y75450D02*
G01Y76450D01*
Y76861*
Y76861D02*
G01X76694Y77455D01*
Y77455D02*
G01X77138Y77900D01*
X79350*
X79455*
Y77900D02*
G01X79900Y77455D01*
Y77455D02*
G01X80394D01*
Y77455D02*
G01X80400Y77450D01*
X75000Y76450D02*
G01X76100D01*
X79100Y80300D02*
G01X79400Y80000D01*
X80150*
X79100Y80300D02*
G01Y82650D01*
X79446Y82996*
Y82996D02*
G01X80589D01*
X50990Y87900D02*
G01Y87950D01*
X54090Y91050*
X62450*
X63150Y91750*
Y97700*
X64350Y98900*
X68810Y83306D02*
G01X68850Y83266D01*
Y83266D02*
G01Y83254D01*
X85900Y98850D02*
G01X86500Y98250D01*
Y95500*
G54D100*
X89500Y55000D02*
G01Y54100D01*
X91600*
X91750Y54250*
X86500Y56350D02*
G01X87300D01*
X88300Y55350*
Y54550*
X88750Y54100*
X89500*
X91750Y55000D02*
G01Y54250D01*
X91950Y54050*
X93050*
X93300Y54300*
Y54800*
X94300Y55800*
Y56650*
X94900Y57250*
X95827*
X56425Y60600D02*
G01X57530D01*
X55250Y61850D02*
G01X55700Y62300D01*
Y68250*
X55950Y68500*
Y71250*
X56400Y71700*
X58550*
X58650Y71600*
X59150*
X57525Y61539D02*
G01X57526Y61500D01*
X58300*
X58850Y60950*
X58900*
X57525Y62489D02*
G01X56425D01*
Y62489D02*
G01X56400D01*
X62250Y60000D02*
G01Y61000D01*
Y62900D02*
G01Y62066D01*
X69750Y61300D02*
G01X70814D01*
X78250Y60000D02*
G01Y58550D01*
X79800*
X86250Y60000D02*
G01Y58550D01*
X87800*
X96500Y60950D02*
G01Y61950D01*
X56400Y64000D02*
G01X56425D01*
X57535Y66550D02*
G01X58800D01*
X60750*
X61250Y66050*
X61450*
X61500Y66000*
X56425Y64000D02*
G01X57733D01*
X58800D02*
G01X59800D01*
X61500Y67066D02*
G01Y69750D01*
X67000Y65000D02*
G01X68250D01*
X76700Y66750D02*
G01X78250D01*
Y66000*
X86250D02*
G01Y66650D01*
X87900*
X63000Y69750D02*
G01Y67066D01*
X59616Y73100D02*
G01X60450D01*
X63250Y69750D02*
G01Y69700D01*
X63900*
Y67250*
X64150Y67000*
X64827*
X88200Y71250D02*
G01X89050D01*
X91000Y72000D02*
G01X90000D01*
Y71300*
X90200Y71100*
Y70000*
X91000*
X57400Y74000D02*
G01Y73300D01*
X57600Y73100*
X58550*
X68525Y76450D02*
G01X69600Y77524D01*
Y77524D02*
G01Y80462D01*
X71000Y77400D02*
G01Y77533D01*
Y77533D02*
G01X74900Y81450D01*
X88200Y74750D02*
G01X89050D01*
X87250Y77000D02*
G01X89450D01*
X90200Y76250*
X87000Y74750D02*
G01Y76200D01*
X87250Y76450*
Y77000*
X90000Y74000D02*
G01Y74450D01*
Y74700*
X90200Y74900*
Y76250*
X91000*
X90000Y74000D02*
G01X91000D01*
X61631Y82961D02*
G01X62092Y82500D01*
X63507*
Y82500D02*
G01X63950Y82057D01*
X59379Y80709D02*
G01X59400Y80689D01*
Y79500*
X68550Y80462D02*
G01X69600D01*
X68850Y83254D02*
G01X69600D01*
Y80462*
X72707Y79241D02*
G01X74900Y81450D01*
X78201Y79010D02*
G01X78212Y78600D01*
X80450*
X80150Y80000D02*
G01X81269D01*
X84500Y78450D02*
G01X84850D01*
X85500Y77800*
X86500*
X87250Y77050*
Y77000*
X68750Y85250D02*
G01Y85892D01*
X69700Y86842*
X68900Y87642D02*
G01X69700Y86842D01*
X71200D02*
G01X72042Y86000D01*
X74750*
X75550Y86800*
X69700Y86842D02*
G01X71200D01*
X75550Y86800D02*
G01X76000Y86350D01*
X78150*
X75500Y87250D02*
G01X75550Y87200D01*
Y86800*
X78150Y86350D02*
G01X79050D01*
X79200Y86200*
X80150*
X80550Y86600*
X81040*
X74120Y95500D02*
G01Y94138D01*
X75050Y93208*
Y90808*
X88707Y98165D02*
G01Y97706D01*
X58700Y98850D02*
G01X58710Y98839D01*
Y98839D02*
G01Y97706D01*
X61700Y98850D02*
G01X61710Y98839D01*
Y98839D02*
G01Y97706D01*
X64350Y98900D02*
G01X64750Y99300D01*
X85450*
X85900Y98850*
X88700Y98700D02*
G01X88707Y98692D01*
Y98692D02*
G01Y98165D01*
X91700Y98700D02*
G01X91707Y98692D01*
Y98692D02*
G01Y97706D01*
G54D101*
X78250Y60000D02*
G01Y66000D01*
X86250Y60000D02*
G01Y66000D01*
X50740Y67503D02*
G01Y61750D01*
X50750*
X51250Y61250*
X50740Y67503D02*
G01Y87650D01*
X50990Y87900*
X56400Y67489D02*
G01X57525D01*
X56425Y65600D02*
G01X57530D01*
X74997Y71497D02*
G01X75602D01*
Y71497D02*
G01X75800Y71300D01*
Y70897*
Y70897D02*
G01X76200Y70497D01*
Y70497D02*
G01X77075D01*
X65670Y80966D02*
G01X65702Y80935D01*
X65635Y81002D02*
G01X65655Y80982D01*
Y80982D02*
G01X65670Y80966D01*
X65613Y81024D02*
G01X65621Y81016D01*
X65513Y81002D02*
G01X65570Y80982D01*
X65702Y80935D02*
G01X65613Y80966D01*
Y80966D02*
G01X65570Y80982D01*
X68810Y83254D02*
G01Y83306D01*
X65621Y81016D02*
G01X65635Y81002D01*
X65540Y80910D02*
G01X65678D01*
Y80910D02*
G01X65702Y80935D01*
X80589Y82996D02*
G01X81145Y82440D01*
X86996Y79186D02*
G01X88736D01*
Y79186D02*
G01X88750Y79200D01*
X68810Y83306D02*
G01X68910Y83406D01*
Y83406D02*
G01Y84006D01*
X70708Y85804*
X70707Y87803D02*
G01X70710Y87800D01*
X73508Y87450D02*
G01Y87391D01*
Y87391D02*
G01X74000Y86900D01*
X76704Y87800D02*
G01X76708Y87804D01*
X79508Y87294D02*
G01X79600Y87203D01*
X79700*
X79600Y87103D02*
G01X79700Y87203D01*
X81298Y85704D02*
G01X81362Y85640D01*
X88707Y94707D02*
G01Y96284D01*
X91707Y94707D02*
G01Y96284D01*
G54D102*
X72707Y71750D02*
G01X72950Y71507D01*
Y71507D02*
G01X72957Y71500D01*
Y71500D02*
G01X73928D01*
Y71500D02*
G01X73930Y71497D01*
X72950Y71507D02*
G01Y71500D01*
X72957*
X79102Y72438D02*
G01X79240Y72300D01*
X78497Y70497D02*
G01X78974Y70975D01*
Y70975D02*
G01Y70983D01*
Y70983D02*
G01X79090Y71100D01*
Y71100D02*
G01X79240Y71250D01*
Y71250D02*
G01Y72300D01*
X77097Y75100D02*
G01X77100Y73750D01*
X77097Y75114D02*
G01X77100D01*
Y75100*
X77097Y75114D02*
G01Y75100D01*
X77100D02*
G01X77114Y75114D01*
X77901*
Y75114D02*
G01X78293Y74722D01*
Y74722D02*
G01X78300Y73750D01*
X78400Y77000D02*
G01Y75450D01*
X79090Y74750*
Y74750D02*
G01X79100Y73750D01*
X84760Y77639D02*
G01X85500Y76900D01*
X65628Y81024D02*
G01X65864Y81260D01*
X65613Y80982D02*
G01Y81002D01*
Y81008*
Y81008D02*
G01X65621Y81016D01*
X65605D02*
G01X65613Y81024D01*
X65521Y81016D02*
G01X65529Y81024D01*
X65764Y81260*
Y81260D02*
G01X65864D01*
X65591Y81002D02*
G01X65605Y81016D01*
X65513Y81002D02*
G01Y81008D01*
Y81008D02*
G01X65521Y81016D01*
X65864Y81260D02*
G01X67226D01*
Y81260D02*
G01X67227D01*
X65613Y80966D02*
G01Y80982D01*
X65570D02*
G01X65591Y81002D01*
X65621Y81016D02*
G01X65628Y81024D01*
X81050Y81239D02*
G01Y80439D01*
Y80439D02*
G01X82600Y80450D01*
X81050Y81239D02*
G01X82600Y81250D01*
X81269Y78839D02*
G01Y76667D01*
Y76667D02*
G01X81498Y76439D01*
X82600Y76450*
Y78850D02*
G01X81269Y78839D01*
Y78839D02*
G01Y80000D01*
Y80000D02*
G01Y80039D01*
Y80039D02*
G01X82600Y80050D01*
X81145Y82440D02*
G01X82600Y82450D01*
X81050Y81450D02*
G01Y81239D01*
X83990Y85640D02*
G01X84032Y85682D01*
Y85968*
X83959Y86040D02*
G01X84032Y85968D01*
X81362Y85640D02*
G01X82600Y85650D01*
X70700Y89150D02*
G01X70707Y87803D01*
X73500Y89150D02*
G01X73508Y87450D01*
X76700Y89150D02*
G01X76708Y87804D01*
X79500Y89150D02*
G01X79508Y87294D01*
X80300Y89150D02*
G01X80308Y87996D01*
Y87996D02*
G01X80786Y87519D01*
X80800Y87500*
M02*
