G04 Pcgerber II V5.0 Date:  Tue Dec  7 08:40:09 2010 *
G04 Database: (Untitled) *
G04 Layer 4: xk-1a-reva-smb. *
%FSLAX33Y33*%
%MOMM*%
%SFA1.000B1.000*%

%MIA0B0*%
%IPPOS*%
%ADD73C,1.49954*%
%ADD46R,1.06580X0.91280*%
%ADD47R,0.91280X1.06580*%
%ADD63R,1.59945X1.59945*%
%ADD65R,0.65880X0.65880*%
%ADD67C,4.09965*%
%ADD74R,1.70000X1.70000*%
%ADD75C,1.70000*%
%ADD98C,0.17992*%
%ADD115C,1.10000*%
%LNxk-1a-reva-smb.*%
%SRX1Y1I0J0*%
G54D73*
%LPD*%
G54D63*
X63250Y69750D03*
X64250Y62750D03*
X52750Y57500D03*
X69550Y63700D03*
G54D65*
X76997Y84996D03*
Y86063D03*
X77997Y81496D03*
X79064D03*
X75002Y78497D03*
Y77430D03*
X71972Y79997D03*
X70905D03*
X71998Y82996D03*
X70931D03*
X74997Y84996D03*
Y86063D03*
X72997Y84996D03*
Y86063D03*
X77930Y82996D03*
X78997D03*
X77997Y79997D03*
X79064D03*
X76964Y78530D03*
Y77463D03*
X72997Y78497D03*
Y77430D03*
X71998Y81496D03*
X70931D03*
G54D67*
X97000Y53000D03*
Y97000D03*
X53000D03*
Y53000D03*
G54D73*
X60947Y51555D03*
Y56551D03*
G54D74*
X66500Y95500D03*
X86750Y54300D03*
X95500Y63500D03*
X54500D03*
G54D75*
X66500Y98040D03*
X69040Y95500D03*
Y98040D03*
X71580Y95500D03*
Y98040D03*
X74120Y95500D03*
Y98040D03*
X76660Y95500D03*
Y98040D03*
X79200Y95500D03*
Y98040D03*
X81740Y95500D03*
Y98040D03*
X84280Y95500D03*
Y98040D03*
X86750Y51760D03*
X84210Y54300D03*
Y51760D03*
X81670Y54300D03*
Y51760D03*
X79130Y54300D03*
Y51760D03*
X76590Y54300D03*
Y51760D03*
X74050Y54300D03*
Y51760D03*
X71510Y54300D03*
Y51760D03*
X68970Y54300D03*
Y51760D03*
X98040Y63500D03*
X95500Y66040D03*
X98040D03*
X95500Y68580D03*
X98040D03*
X95500Y71120D03*
X98040D03*
X95500Y73660D03*
X98040D03*
X95500Y76200D03*
X98040D03*
X95500Y78740D03*
X98040D03*
X95500Y81280D03*
X98040D03*
X95500Y83820D03*
X98040D03*
X95500Y86360D03*
X98040D03*
X51960Y63500D03*
X54500Y66040D03*
X51960D03*
X54500Y68580D03*
X51960D03*
X54500Y71120D03*
X51960D03*
X54500Y73660D03*
X51960D03*
X54500Y76200D03*
X51960D03*
X54500Y78740D03*
X51960D03*
X54500Y81280D03*
X51960D03*
X54500Y83820D03*
X51960D03*
X54500Y86360D03*
X51960D03*
G54D115*
X93000Y51750D03*
X52500Y93000D03*
X97500D03*
G54D46*
X57250Y64827D03*
Y66250D03*
G54D47*
X91922Y79250D03*
X90500D03*
G54D98*
X49750Y40405D02*
G01Y39500D01*
Y40405D02*
G01X49969D01*
Y40405D02*
G01X50063Y40362D01*
Y40362D02*
G01X50126Y40276D01*
X50157Y40190*
Y40190D02*
G01X50189Y40060D01*
Y40060D02*
G01Y39845D01*
X50157Y39715*
Y39715D02*
G01X50126Y39629D01*
X50063Y39543*
Y39543D02*
G01X49969Y39500D01*
Y39500D02*
G01X49750D01*
X50471Y40405D02*
G01Y39500D01*
Y40405D02*
G01X50879D01*
X50471Y39974D02*
G01X50722D01*
X50471Y39500D02*
G01X50879D01*
X51600Y40276D02*
G01X51537Y40362D01*
Y40362D02*
G01X51443Y40405D01*
Y40405D02*
G01X51318D01*
Y40405D02*
G01X51224Y40362D01*
Y40362D02*
G01X51161Y40276D01*
Y40190*
X51192Y40103*
Y40103D02*
G01X51224Y40060D01*
Y40060D02*
G01X51286Y40017D01*
Y40017D02*
G01X51475Y39931D01*
X51537Y39888*
Y39888D02*
G01X51569Y39845D01*
X51600Y39758*
Y39758D02*
G01Y39629D01*
Y39629D02*
G01X51537Y39543D01*
Y39543D02*
G01X51443Y39500D01*
Y39500D02*
G01X51318D01*
X51224Y39543*
X51161Y39629*
X51882Y40405D02*
G01Y39500D01*
X52635Y40190D02*
G01X52604Y40276D01*
X52541Y40362*
Y40362D02*
G01X52478Y40405D01*
Y40405D02*
G01X52353D01*
Y40405D02*
G01X52290Y40362D01*
Y40362D02*
G01X52227Y40276D01*
Y40276D02*
G01X52196Y40190D01*
X52165Y40060*
Y40060D02*
G01Y39845D01*
X52196Y39715*
Y39715D02*
G01X52227Y39629D01*
Y39629D02*
G01X52290Y39543D01*
Y39543D02*
G01X52353Y39500D01*
X52478*
Y39500D02*
G01X52541Y39543D01*
Y39543D02*
G01X52604Y39629D01*
X52635Y39715*
Y39715D02*
G01Y39845D01*
X52478D02*
G01X52635D01*
X52917Y40405D02*
G01Y39500D01*
Y40405D02*
G01X53357Y39500D01*
Y40405D02*
G01Y39500D01*
X53639Y40405D02*
G01Y39500D01*
Y40405D02*
G01X54047D01*
X53639Y39974D02*
G01X53890D01*
X53639Y39500D02*
G01X54047D01*
X54329Y40405D02*
G01Y39500D01*
Y40405D02*
G01X54548D01*
Y40405D02*
G01X54642Y40362D01*
Y40362D02*
G01X54705Y40276D01*
Y40276D02*
G01X54737Y40190D01*
X54768Y40060*
Y40060D02*
G01Y39845D01*
X54737Y39715*
Y39715D02*
G01X54705Y39629D01*
Y39629D02*
G01X54642Y39543D01*
Y39543D02*
G01X54548Y39500D01*
Y39500D02*
G01X54329D01*
X55772Y40405D02*
G01Y39500D01*
Y40405D02*
G01X56054D01*
Y40405D02*
G01X56148Y40362D01*
Y40362D02*
G01X56179Y40319D01*
Y40319D02*
G01X56211Y40233D01*
Y40146*
Y40146D02*
G01X56179Y40060D01*
Y40060D02*
G01X56148Y40017D01*
Y40017D02*
G01X56054Y39974D01*
X55772D02*
G01X56054D01*
X56148Y39931*
Y39931D02*
G01X56179Y39888D01*
Y39888D02*
G01X56211Y39801D01*
Y39801D02*
G01Y39672D01*
Y39672D02*
G01X56179Y39586D01*
Y39586D02*
G01X56148Y39543D01*
Y39543D02*
G01X56054Y39500D01*
X55772*
X56493Y40405D02*
G01X56744Y39974D01*
Y39500*
X56995Y40405D02*
G01X56744Y39974D01*
X57309Y40103D02*
G01X57277Y40060D01*
Y40060D02*
G01X57309Y40017D01*
Y40017D02*
G01X57340Y40060D01*
Y40060D02*
G01X57309Y40103D01*
Y39586D02*
G01X57277Y39543D01*
Y39543D02*
G01X57309Y39500D01*
X57340Y39543*
X57309Y39586*
X57622Y39888D02*
G01X58187D01*
X59190Y40405D02*
G01Y39500D01*
Y40405D02*
G01X59410D01*
Y40405D02*
G01X59504Y40362D01*
Y40362D02*
G01X59567Y40276D01*
X59598Y40190*
Y40190D02*
G01X59630Y40060D01*
Y40060D02*
G01Y39845D01*
X59598Y39715*
Y39715D02*
G01X59567Y39629D01*
X59504Y39543*
Y39543D02*
G01X59410Y39500D01*
X59190*
X60163Y40405D02*
G01X59912Y39500D01*
X60163Y40405D02*
G01X60414Y39500D01*
X60006Y39801D02*
G01X60320D01*
X60696Y40405D02*
G01X60947Y39974D01*
Y39500*
X61198Y40405D02*
G01X60947Y39974D01*
X61480Y40405D02*
G01Y39500D01*
Y40405D02*
G01X61888D01*
X61480Y39974D02*
G01X61731D01*
X62358Y40405D02*
G01X62296Y40362D01*
Y40362D02*
G01X62233Y40276D01*
X62201Y40190*
Y40190D02*
G01X62170Y40060D01*
Y40060D02*
G01Y39845D01*
Y39845D02*
G01X62201Y39715D01*
Y39715D02*
G01X62233Y39629D01*
X62296Y39543*
X62358Y39500*
Y39500D02*
G01X62484D01*
X62547Y39543*
X62609Y39629*
Y39629D02*
G01X62641Y39715D01*
Y39715D02*
G01X62672Y39845D01*
Y40060*
Y40060D02*
G01X62641Y40190D01*
X62609Y40276*
Y40276D02*
G01X62547Y40362D01*
Y40362D02*
G01X62484Y40405D01*
Y40405D02*
G01X62358D01*
X62954D02*
G01Y39500D01*
Y40405D02*
G01X63237D01*
Y40405D02*
G01X63331Y40362D01*
Y40362D02*
G01X63362Y40319D01*
Y40319D02*
G01X63393Y40233D01*
Y40233D02*
G01Y40146D01*
Y40146D02*
G01X63362Y40060D01*
Y40060D02*
G01X63331Y40017D01*
Y40017D02*
G01X63237Y39974D01*
X62954*
X63174D02*
G01X63393Y39500D01*
X63676Y40405D02*
G01Y39500D01*
Y40405D02*
G01X63895D01*
Y40405D02*
G01X63989Y40362D01*
Y40362D02*
G01X64052Y40276D01*
Y40276D02*
G01X64083Y40190D01*
Y40190D02*
G01X64115Y40060D01*
Y40060D02*
G01Y39845D01*
X64083Y39715*
Y39715D02*
G01X64052Y39629D01*
Y39629D02*
G01X63989Y39543D01*
Y39543D02*
G01X63895Y39500D01*
Y39500D02*
G01X63676D01*
X65118Y40405D02*
G01Y39500D01*
Y40405D02*
G01X65338D01*
Y40405D02*
G01X65432Y40362D01*
Y40362D02*
G01X65495Y40276D01*
X65526Y40190*
Y40190D02*
G01X65558Y40060D01*
Y40060D02*
G01Y39845D01*
X65526Y39715*
Y39715D02*
G01X65495Y39629D01*
X65432Y39543*
Y39543D02*
G01X65338Y39500D01*
Y39500D02*
G01X65118D01*
X65840Y40405D02*
G01Y39500D01*
Y40405D02*
G01X66248D01*
X65840Y39974D02*
G01X66091D01*
X65840Y39500D02*
G01X66248D01*
X66969Y40276D02*
G01X66906Y40362D01*
Y40362D02*
G01X66812Y40405D01*
Y40405D02*
G01X66687D01*
Y40405D02*
G01X66593Y40362D01*
Y40362D02*
G01X66530Y40276D01*
Y40190*
X66561Y40103*
Y40103D02*
G01X66593Y40060D01*
Y40060D02*
G01X66655Y40017D01*
Y40017D02*
G01X66844Y39931D01*
X66906Y39888*
Y39888D02*
G01X66938Y39845D01*
X66969Y39758*
Y39758D02*
G01Y39629D01*
Y39629D02*
G01X66906Y39543D01*
Y39543D02*
G01X66812Y39500D01*
Y39500D02*
G01X66687D01*
X66593Y39543*
X66530Y39629*
X67251Y40405D02*
G01Y39500D01*
X68004Y40190D02*
G01X67973Y40276D01*
X67910Y40362*
Y40362D02*
G01X67847Y40405D01*
Y40405D02*
G01X67722D01*
Y40405D02*
G01X67659Y40362D01*
Y40362D02*
G01X67596Y40276D01*
Y40276D02*
G01X67565Y40190D01*
X67534Y40060*
Y40060D02*
G01Y39845D01*
X67565Y39715*
Y39715D02*
G01X67596Y39629D01*
Y39629D02*
G01X67659Y39543D01*
Y39543D02*
G01X67722Y39500D01*
X67847*
Y39500D02*
G01X67910Y39543D01*
X67973Y39629*
X68004Y39715*
Y39715D02*
G01Y39845D01*
X67847D02*
G01X68004D01*
X68286Y40405D02*
G01Y39500D01*
Y40405D02*
G01X68725Y39500D01*
Y40405D02*
G01Y39500D01*
X69447Y40276D02*
G01X69384Y40362D01*
Y40362D02*
G01X69290Y40405D01*
Y40405D02*
G01X69165D01*
Y40405D02*
G01X69070Y40362D01*
Y40362D02*
G01X69008Y40276D01*
Y40190*
X69039Y40103*
Y40103D02*
G01X69070Y40060D01*
Y40060D02*
G01X69133Y40017D01*
Y40017D02*
G01X69321Y39931D01*
Y39931D02*
G01X69384Y39888D01*
Y39888D02*
G01X69415Y39845D01*
Y39845D02*
G01X69447Y39758D01*
Y39758D02*
G01Y39629D01*
X69384Y39543*
Y39543D02*
G01X69290Y39500D01*
Y39500D02*
G01X69165D01*
X69070Y39543*
Y39543D02*
G01X69008Y39629D01*
X70451Y40405D02*
G01Y39500D01*
X70827*
X71329Y40405D02*
G01Y39500D01*
X71109Y40405D02*
G01X71548D01*
X71831D02*
G01Y39500D01*
Y40405D02*
G01X72050D01*
Y40405D02*
G01X72144Y40362D01*
Y40362D02*
G01X72207Y40276D01*
X72238Y40190*
Y40190D02*
G01X72270Y40060D01*
Y40060D02*
G01Y39845D01*
X72238Y39715*
Y39715D02*
G01X72207Y39629D01*
X72144Y39543*
Y39543D02*
G01X72050Y39500D01*
Y39500D02*
G01X71831D01*
X73493Y40578D02*
G01X73430Y40491D01*
Y40491D02*
G01X73368Y40362D01*
Y40362D02*
G01X73305Y40190D01*
X73273Y39974*
Y39974D02*
G01Y39801D01*
Y39801D02*
G01X73305Y39586D01*
X73368Y39413*
Y39413D02*
G01X73430Y39284D01*
Y39284D02*
G01X73493Y39198D01*
X73775Y40405D02*
G01Y39500D01*
Y40405D02*
G01X74058D01*
Y40405D02*
G01X74152Y40362D01*
Y40362D02*
G01X74183Y40319D01*
Y40319D02*
G01X74214Y40233D01*
Y40233D02*
G01Y40146D01*
Y40146D02*
G01X74183Y40060D01*
Y40060D02*
G01X74152Y40017D01*
Y40017D02*
G01X74058Y39974D01*
X73775*
X73995D02*
G01X74214Y39500D01*
X74497Y40405D02*
G01Y39500D01*
Y40405D02*
G01X74904D01*
X74497Y39974D02*
G01X74748D01*
X74497Y39500D02*
G01X74904D01*
X75187Y40405D02*
G01Y39500D01*
Y40405D02*
G01X75594D01*
X75187Y39974D02*
G01X75438D01*
X76598Y40405D02*
G01Y39500D01*
Y40405D02*
G01X76880D01*
Y40405D02*
G01X76975Y40362D01*
Y40362D02*
G01X77006Y40319D01*
X77037Y40233*
Y40233D02*
G01Y40146D01*
Y40146D02*
G01X77006Y40060D01*
Y40060D02*
G01X76975Y40017D01*
Y40017D02*
G01X76880Y39974D01*
X76598D02*
G01X76880D01*
Y39974D02*
G01X76975Y39931D01*
X77006Y39888*
X77037Y39801*
Y39801D02*
G01Y39672D01*
Y39672D02*
G01X77006Y39586D01*
X76975Y39543*
X76880Y39500*
Y39500D02*
G01X76598D01*
X77508Y40405D02*
G01X77414Y40362D01*
Y40362D02*
G01X77351Y40233D01*
X77320Y40017*
Y40017D02*
G01Y39888D01*
X77351Y39672*
Y39672D02*
G01X77414Y39543D01*
X77508Y39500*
X77570*
Y39500D02*
G01X77665Y39543D01*
X77727Y39672*
Y39672D02*
G01X77759Y39888D01*
Y40017*
Y40017D02*
G01X77727Y40233D01*
Y40233D02*
G01X77665Y40362D01*
Y40362D02*
G01X77570Y40405D01*
Y40405D02*
G01X77508D01*
X78041Y40233D02*
G01X78104Y40276D01*
X78198Y40405*
Y40405D02*
G01Y39500D01*
X78511Y40190D02*
G01Y40233D01*
Y40233D02*
G01X78543Y40319D01*
X78574Y40362*
Y40362D02*
G01X78637Y40405D01*
Y40405D02*
G01X78762D01*
Y40405D02*
G01X78825Y40362D01*
Y40362D02*
G01X78856Y40319D01*
Y40319D02*
G01X78888Y40233D01*
Y40146*
Y40146D02*
G01X78856Y40060D01*
Y40060D02*
G01X78794Y39931D01*
X78480Y39500*
Y39500D02*
G01X78919D01*
X79390Y40405D02*
G01X79296Y40362D01*
Y40362D02*
G01X79233Y40233D01*
X79201Y40017*
Y40017D02*
G01Y39888D01*
Y39888D02*
G01X79233Y39672D01*
Y39672D02*
G01X79296Y39543D01*
X79390Y39500*
X79452*
Y39500D02*
G01X79546Y39543D01*
Y39543D02*
G01X79609Y39672D01*
Y39672D02*
G01X79641Y39888D01*
Y40017*
Y40017D02*
G01X79609Y40233D01*
Y40233D02*
G01X79546Y40362D01*
Y40362D02*
G01X79452Y40405D01*
Y40405D02*
G01X79390D01*
X80236D02*
G01X79923Y39801D01*
Y39801D02*
G01X80393D01*
X80236Y40405D02*
G01Y39500D01*
X80676Y40578D02*
G01X80738Y40491D01*
Y40491D02*
G01X80801Y40362D01*
Y40362D02*
G01X80864Y40190D01*
X80895Y39974*
Y39974D02*
G01Y39801D01*
Y39801D02*
G01X80864Y39586D01*
X80801Y39413*
Y39413D02*
G01X80738Y39284D01*
Y39284D02*
G01X80676Y39198D01*
X50189Y37276D02*
G01X50126Y37362D01*
Y37362D02*
G01X50032Y37405D01*
Y37405D02*
G01X49906D01*
Y37405D02*
G01X49812Y37362D01*
Y37362D02*
G01X49750Y37276D01*
Y37190*
X49781Y37103*
Y37103D02*
G01X49812Y37060D01*
Y37060D02*
G01X49875Y37017D01*
Y37017D02*
G01X50063Y36931D01*
Y36931D02*
G01X50126Y36888D01*
X50157Y36845*
Y36845D02*
G01X50189Y36758D01*
Y36758D02*
G01Y36629D01*
X50126Y36543*
X50032Y36500*
X49906*
Y36500D02*
G01X49812Y36543D01*
Y36543D02*
G01X49750Y36629D01*
X50659Y37405D02*
G01X50596Y37362D01*
Y37362D02*
G01X50534Y37276D01*
X50502Y37190*
Y37190D02*
G01X50471Y37060D01*
Y37060D02*
G01Y36845D01*
X50502Y36715*
Y36715D02*
G01X50534Y36629D01*
X50596Y36543*
Y36543D02*
G01X50659Y36500D01*
Y36500D02*
G01X50785D01*
X50847Y36543*
Y36543D02*
G01X50910Y36629D01*
Y36629D02*
G01X50941Y36715D01*
Y36715D02*
G01X50973Y36845D01*
Y37060*
Y37060D02*
G01X50941Y37190D01*
Y37190D02*
G01X50910Y37276D01*
Y37276D02*
G01X50847Y37362D01*
Y37362D02*
G01X50785Y37405D01*
Y37405D02*
G01X50659D01*
X51255D02*
G01Y36500D01*
Y36500D02*
G01X51631D01*
X51914Y37405D02*
G01Y36500D01*
Y37405D02*
G01X52133D01*
Y37405D02*
G01X52227Y37362D01*
Y37362D02*
G01X52290Y37276D01*
Y37276D02*
G01X52321Y37190D01*
Y37190D02*
G01X52353Y37060D01*
Y37060D02*
G01Y36845D01*
X52321Y36715*
Y36715D02*
G01X52290Y36629D01*
Y36629D02*
G01X52227Y36543D01*
Y36543D02*
G01X52133Y36500D01*
Y36500D02*
G01X51914D01*
X52635Y37405D02*
G01Y36500D01*
Y37405D02*
G01X53043D01*
X52635Y36974D02*
G01X52886D01*
X52635Y36500D02*
G01X53043D01*
X53325Y37405D02*
G01Y36500D01*
Y37405D02*
G01X53607D01*
Y37405D02*
G01X53702Y37362D01*
Y37362D02*
G01X53733Y37319D01*
X53764Y37233*
Y37233D02*
G01Y37146D01*
Y37146D02*
G01X53733Y37060D01*
Y37060D02*
G01X53702Y37017D01*
Y37017D02*
G01X53607Y36974D01*
Y36974D02*
G01X53325D01*
X53545D02*
G01X53764Y36500D01*
X54768Y37405D02*
G01Y36500D01*
Y37405D02*
G01X55019Y36500D01*
X55270Y37405D02*
G01X55019Y36500D01*
X55270Y37405D02*
G01Y36500D01*
X55803Y37405D02*
G01X55552Y36500D01*
X55803Y37405D02*
G01X56054Y36500D01*
X55646Y36801D02*
G01X55960D01*
X56775Y37276D02*
G01X56713Y37362D01*
Y37362D02*
G01X56618Y37405D01*
Y37405D02*
G01X56493D01*
Y37405D02*
G01X56399Y37362D01*
Y37362D02*
G01X56336Y37276D01*
Y37276D02*
G01Y37190D01*
Y37190D02*
G01X56368Y37103D01*
Y37103D02*
G01X56399Y37060D01*
Y37060D02*
G01X56462Y37017D01*
Y37017D02*
G01X56650Y36931D01*
X56713Y36888*
X56744Y36845*
X56775Y36758*
Y36758D02*
G01Y36629D01*
Y36629D02*
G01X56713Y36543D01*
X56618Y36500*
Y36500D02*
G01X56493D01*
Y36500D02*
G01X56399Y36543D01*
X56336Y36629*
X57058Y37405D02*
G01Y36500D01*
X57497Y37405D02*
G01X57058Y36801D01*
X57214Y37017D02*
G01X57497Y36500D01*
X58500Y37405D02*
G01Y36500D01*
Y37405D02*
G01X58783D01*
Y37405D02*
G01X58877Y37362D01*
Y37362D02*
G01X58908Y37319D01*
Y37319D02*
G01X58940Y37233D01*
Y37146*
Y37146D02*
G01X58908Y37060D01*
Y37060D02*
G01X58877Y37017D01*
Y37017D02*
G01X58783Y36974D01*
X58500D02*
G01X58783D01*
X58877Y36931*
X58908Y36888*
Y36888D02*
G01X58940Y36801D01*
Y36801D02*
G01Y36672D01*
Y36672D02*
G01X58908Y36586D01*
Y36586D02*
G01X58877Y36543D01*
X58783Y36500*
X58500*
X59410Y37405D02*
G01X59347Y37362D01*
Y37362D02*
G01X59285Y37276D01*
X59253Y37190*
Y37190D02*
G01X59222Y37060D01*
Y37060D02*
G01Y36845D01*
X59253Y36715*
Y36715D02*
G01X59285Y36629D01*
X59347Y36543*
Y36543D02*
G01X59410Y36500D01*
X59535*
Y36500D02*
G01X59598Y36543D01*
Y36543D02*
G01X59661Y36629D01*
X59692Y36715*
Y36715D02*
G01X59724Y36845D01*
Y37060*
Y37060D02*
G01X59692Y37190D01*
Y37190D02*
G01X59661Y37276D01*
X59598Y37362*
Y37362D02*
G01X59535Y37405D01*
Y37405D02*
G01X59410D01*
X60225D02*
G01Y36500D01*
X60006Y37405D02*
G01X60445D01*
X60947D02*
G01Y36500D01*
X60727Y37405D02*
G01X61166D01*
X61637D02*
G01X61574Y37362D01*
Y37362D02*
G01X61511Y37276D01*
Y37276D02*
G01X61480Y37190D01*
Y37190D02*
G01X61449Y37060D01*
Y37060D02*
G01Y36845D01*
X61480Y36715*
Y36715D02*
G01X61511Y36629D01*
Y36629D02*
G01X61574Y36543D01*
Y36543D02*
G01X61637Y36500D01*
X61762*
Y36500D02*
G01X61825Y36543D01*
Y36543D02*
G01X61888Y36629D01*
X61919Y36715*
Y36715D02*
G01X61951Y36845D01*
Y37060*
Y37060D02*
G01X61919Y37190D01*
Y37190D02*
G01X61888Y37276D01*
X61825Y37362*
Y37362D02*
G01X61762Y37405D01*
Y37405D02*
G01X61637D01*
X62233D02*
G01Y36500D01*
Y37405D02*
G01X62484Y36500D01*
X62735Y37405D02*
G01X62484Y36500D01*
X62735Y37405D02*
G01Y36500D01*
X49750Y41905D02*
G01X50189Y41000D01*
Y41905D02*
G01X49750Y41000D01*
X50471Y41905D02*
G01Y41000D01*
Y41905D02*
G01X50722Y41000D01*
X50973Y41905D02*
G01X50722Y41000D01*
X50973Y41905D02*
G01Y41000D01*
X51443Y41905D02*
G01X51380Y41862D01*
Y41862D02*
G01X51318Y41776D01*
X51286Y41690*
Y41690D02*
G01X51255Y41560D01*
Y41560D02*
G01Y41345D01*
Y41345D02*
G01X51286Y41215D01*
Y41215D02*
G01X51318Y41129D01*
X51380Y41043*
Y41043D02*
G01X51443Y41000D01*
Y41000D02*
G01X51569D01*
X51631Y41043*
Y41043D02*
G01X51694Y41129D01*
Y41129D02*
G01X51726Y41215D01*
Y41215D02*
G01X51757Y41345D01*
Y41560*
Y41560D02*
G01X51726Y41690D01*
X51694Y41776*
Y41776D02*
G01X51631Y41862D01*
Y41862D02*
G01X51569Y41905D01*
Y41905D02*
G01X51443D01*
X52478Y41776D02*
G01X52416Y41862D01*
Y41862D02*
G01X52321Y41905D01*
Y41905D02*
G01X52196D01*
Y41905D02*
G01X52102Y41862D01*
Y41862D02*
G01X52039Y41776D01*
Y41776D02*
G01Y41690D01*
Y41690D02*
G01X52071Y41603D01*
Y41603D02*
G01X52102Y41560D01*
Y41560D02*
G01X52165Y41517D01*
Y41517D02*
G01X52353Y41431D01*
X52416Y41388*
X52447Y41345*
X52478Y41258*
Y41258D02*
G01Y41129D01*
Y41129D02*
G01X52416Y41043D01*
X52321Y41000*
Y41000D02*
G01X52196D01*
X52102Y41043*
X52039Y41129*
X53482Y41905D02*
G01X53921Y41000D01*
Y41905D02*
G01X53482Y41000D01*
X54203Y41905D02*
G01Y41000D01*
X54642Y41905D02*
G01X54203Y41301D01*
X54360Y41517D02*
G01X54642Y41000D01*
X54925Y41388D02*
G01X55489D01*
X55772Y41733D02*
G01X55834Y41776D01*
Y41776D02*
G01X55928Y41905D01*
Y41905D02*
G01Y41000D01*
X56462Y41905D02*
G01X56211Y41000D01*
X56462Y41905D02*
G01X56713Y41000D01*
X56305Y41301D02*
G01X56618D01*
X57716Y41905D02*
G01Y41000D01*
Y41905D02*
G01X57999D01*
Y41905D02*
G01X58093Y41862D01*
Y41862D02*
G01X58124Y41819D01*
Y41819D02*
G01X58155Y41733D01*
Y41733D02*
G01Y41646D01*
Y41646D02*
G01X58124Y41560D01*
Y41560D02*
G01X58093Y41517D01*
Y41517D02*
G01X57999Y41474D01*
X57716*
X57936D02*
G01X58155Y41000D01*
X58438Y41905D02*
G01Y41000D01*
Y41905D02*
G01X58845D01*
X58438Y41474D02*
G01X58689D01*
X58438Y41000D02*
G01X58845D01*
X59128Y41905D02*
G01X59379Y41000D01*
X59630Y41905D02*
G01X59379Y41000D01*
X59943Y41086D02*
G01X59912Y41043D01*
X59943Y41000*
Y41000D02*
G01X59975Y41043D01*
X59943Y41086*
X60508Y41905D02*
G01X60257Y41000D01*
X60508Y41905D02*
G01X60759Y41000D01*
X60351Y41301D02*
G01X60665D01*
X62923Y41905D02*
G01X62609Y41000D01*
X62484Y41905D02*
G01X62923D01*
X63770Y42078D02*
G01X63205Y40698D01*
X64052Y41733D02*
G01X64115Y41776D01*
X64209Y41905*
Y41905D02*
G01Y41000D01*
X64523Y41690D02*
G01Y41733D01*
X64554Y41819*
X64585Y41862*
Y41862D02*
G01X64648Y41905D01*
Y41905D02*
G01X64773D01*
Y41905D02*
G01X64836Y41862D01*
Y41862D02*
G01X64868Y41819D01*
X64899Y41733*
Y41646*
Y41646D02*
G01X64868Y41560D01*
Y41560D02*
G01X64805Y41431D01*
X64491Y41000*
Y41000D02*
G01X64930D01*
X65777Y42078D02*
G01X65213Y40698D01*
X66059Y41733D02*
G01X66122Y41776D01*
Y41776D02*
G01X66216Y41905D01*
Y41905D02*
G01Y41000D01*
X66687Y41905D02*
G01X66593Y41862D01*
Y41862D02*
G01X66530Y41733D01*
X66499Y41517*
Y41517D02*
G01Y41388D01*
X66530Y41172*
Y41172D02*
G01X66593Y41043D01*
X66687Y41000*
X66749*
Y41000D02*
G01X66844Y41043D01*
X66906Y41172*
Y41172D02*
G01X66938Y41388D01*
Y41517*
Y41517D02*
G01X66906Y41733D01*
Y41733D02*
G01X66844Y41862D01*
Y41862D02*
G01X66749Y41905D01*
Y41905D02*
G01X66687D01*
X49969Y38905D02*
G01Y38000D01*
X49750Y38905D02*
G01X50189D01*
X50471D02*
G01Y38000D01*
Y38905D02*
G01X50879D01*
X50471Y38474D02*
G01X50722D01*
X50471Y38000D02*
G01X50879D01*
X51161Y38905D02*
G01X51600Y38000D01*
Y38905D02*
G01X51161Y38000D01*
X52102Y38905D02*
G01Y38000D01*
X51882Y38905D02*
G01X52321D01*
X53325D02*
G01Y38000D01*
Y38905D02*
G01X53607D01*
Y38905D02*
G01X53702Y38862D01*
Y38862D02*
G01X53733Y38819D01*
X53764Y38733*
Y38733D02*
G01Y38646D01*
Y38646D02*
G01X53733Y38560D01*
Y38560D02*
G01X53702Y38517D01*
Y38517D02*
G01X53607Y38474D01*
Y38474D02*
G01X53325D01*
X53545D02*
G01X53764Y38000D01*
X54047Y38905D02*
G01Y38000D01*
X54799Y38690D02*
G01X54768Y38776D01*
X54705Y38862*
Y38862D02*
G01X54642Y38905D01*
Y38905D02*
G01X54517D01*
Y38905D02*
G01X54454Y38862D01*
Y38862D02*
G01X54392Y38776D01*
X54360Y38690*
Y38690D02*
G01X54329Y38560D01*
Y38560D02*
G01Y38345D01*
X54360Y38215*
Y38215D02*
G01X54392Y38129D01*
X54454Y38043*
Y38043D02*
G01X54517Y38000D01*
Y38000D02*
G01X54642D01*
Y38000D02*
G01X54705Y38043D01*
Y38043D02*
G01X54768Y38129D01*
X54799Y38215*
Y38215D02*
G01Y38345D01*
X54642D02*
G01X54799D01*
X55082Y38905D02*
G01Y38000D01*
X55521Y38905D02*
G01Y38000D01*
X55082Y38474D02*
G01X55521D01*
X56023Y38905D02*
G01Y38000D01*
X55803Y38905D02*
G01X56242D01*
X57246D02*
G01Y38000D01*
Y38905D02*
G01X57528D01*
Y38905D02*
G01X57622Y38862D01*
Y38862D02*
G01X57654Y38819D01*
X57685Y38733*
Y38646*
Y38646D02*
G01X57654Y38560D01*
Y38560D02*
G01X57622Y38517D01*
Y38517D02*
G01X57528Y38474D01*
Y38474D02*
G01X57246D01*
X57465D02*
G01X57685Y38000D01*
X57967Y38905D02*
G01Y38000D01*
Y38905D02*
G01X58375D01*
X57967Y38474D02*
G01X58218D01*
X57967Y38000D02*
G01X58375D01*
X58908Y38905D02*
G01X58657Y38000D01*
X58908Y38905D02*
G01X59159Y38000D01*
X58751Y38301D02*
G01X59065D01*
X59441Y38905D02*
G01Y38000D01*
Y38905D02*
G01X59661D01*
Y38905D02*
G01X59755Y38862D01*
Y38862D02*
G01X59818Y38776D01*
X59849Y38690*
Y38690D02*
G01X59880Y38560D01*
Y38560D02*
G01Y38345D01*
Y38345D02*
G01X59849Y38215D01*
Y38215D02*
G01X59818Y38129D01*
X59755Y38043*
Y38043D02*
G01X59661Y38000D01*
X59441*
X60163Y38905D02*
G01Y38000D01*
X60445Y38905D02*
G01Y38000D01*
Y38905D02*
G01X60884Y38000D01*
Y38905D02*
G01Y38000D01*
X61637Y38690D02*
G01X61606Y38776D01*
X61543Y38862*
Y38862D02*
G01X61480Y38905D01*
Y38905D02*
G01X61355D01*
Y38905D02*
G01X61292Y38862D01*
Y38862D02*
G01X61229Y38776D01*
Y38776D02*
G01X61198Y38690D01*
X61166Y38560*
Y38560D02*
G01Y38345D01*
Y38345D02*
G01X61198Y38215D01*
Y38215D02*
G01X61229Y38129D01*
Y38129D02*
G01X61292Y38043D01*
X61355Y38000*
X61480*
Y38000D02*
G01X61543Y38043D01*
X61606Y38129*
X61637Y38215*
Y38215D02*
G01Y38345D01*
X61480D02*
G01X61637D01*
X62641Y38905D02*
G01Y38000D01*
Y38905D02*
G01X63048D01*
X62641Y38474D02*
G01X62892D01*
X63331Y38905D02*
G01Y38000D01*
Y38905D02*
G01X63613D01*
Y38905D02*
G01X63707Y38862D01*
Y38862D02*
G01X63738Y38819D01*
Y38819D02*
G01X63770Y38733D01*
Y38646*
Y38646D02*
G01X63738Y38560D01*
Y38560D02*
G01X63707Y38517D01*
Y38517D02*
G01X63613Y38474D01*
X63331*
X63550D02*
G01X63770Y38000D01*
X64240Y38905D02*
G01X64178Y38862D01*
Y38862D02*
G01X64115Y38776D01*
X64083Y38690*
Y38690D02*
G01X64052Y38560D01*
Y38560D02*
G01Y38345D01*
Y38345D02*
G01X64083Y38215D01*
Y38215D02*
G01X64115Y38129D01*
X64178Y38043*
X64240Y38000*
Y38000D02*
G01X64366D01*
X64428Y38043*
Y38043D02*
G01X64491Y38129D01*
Y38129D02*
G01X64523Y38215D01*
Y38215D02*
G01X64554Y38345D01*
Y38560*
Y38560D02*
G01X64523Y38690D01*
X64491Y38776*
Y38776D02*
G01X64428Y38862D01*
Y38862D02*
G01X64366Y38905D01*
Y38905D02*
G01X64240D01*
X64836D02*
G01Y38000D01*
Y38905D02*
G01X65087Y38000D01*
X65338Y38905D02*
G01X65087Y38000D01*
X65338Y38905D02*
G01Y38000D01*
X66561Y38905D02*
G01Y38000D01*
X66342Y38905D02*
G01X66781D01*
X67251D02*
G01X67189Y38862D01*
Y38862D02*
G01X67126Y38776D01*
X67094Y38690*
Y38690D02*
G01X67063Y38560D01*
Y38560D02*
G01Y38345D01*
Y38345D02*
G01X67094Y38215D01*
Y38215D02*
G01X67126Y38129D01*
X67189Y38043*
X67251Y38000*
Y38000D02*
G01X67377D01*
X67439Y38043*
Y38043D02*
G01X67502Y38129D01*
Y38129D02*
G01X67534Y38215D01*
Y38215D02*
G01X67565Y38345D01*
Y38560*
Y38560D02*
G01X67534Y38690D01*
X67502Y38776*
Y38776D02*
G01X67439Y38862D01*
Y38862D02*
G01X67377Y38905D01*
Y38905D02*
G01X67251D01*
X67847D02*
G01Y38000D01*
Y38905D02*
G01X68130D01*
Y38905D02*
G01X68224Y38862D01*
Y38862D02*
G01X68255Y38819D01*
X68286Y38733*
Y38733D02*
G01Y38603D01*
Y38603D02*
G01X68255Y38517D01*
Y38517D02*
G01X68224Y38474D01*
X68130Y38431*
X67847*
X69729Y38776D02*
G01X69666Y38862D01*
Y38862D02*
G01X69572Y38905D01*
Y38905D02*
G01X69447D01*
Y38905D02*
G01X69353Y38862D01*
Y38862D02*
G01X69290Y38776D01*
Y38776D02*
G01Y38690D01*
Y38690D02*
G01X69321Y38603D01*
Y38603D02*
G01X69353Y38560D01*
Y38560D02*
G01X69415Y38517D01*
Y38517D02*
G01X69604Y38431D01*
X69666Y38388*
Y38388D02*
G01X69698Y38345D01*
X69729Y38258*
Y38258D02*
G01Y38129D01*
Y38129D02*
G01X69666Y38043D01*
Y38043D02*
G01X69572Y38000D01*
Y38000D02*
G01X69447D01*
X69353Y38043*
X69290Y38129*
X70011Y38905D02*
G01Y38000D01*
X70294Y38905D02*
G01Y38000D01*
Y38905D02*
G01X70513D01*
Y38905D02*
G01X70607Y38862D01*
Y38862D02*
G01X70670Y38776D01*
Y38776D02*
G01X70701Y38690D01*
Y38690D02*
G01X70733Y38560D01*
Y38560D02*
G01Y38345D01*
X70701Y38215*
Y38215D02*
G01X70670Y38129D01*
Y38129D02*
G01X70607Y38043D01*
Y38043D02*
G01X70513Y38000D01*
Y38000D02*
G01X70294D01*
X71015Y38905D02*
G01Y38000D01*
Y38905D02*
G01X71423D01*
X71015Y38474D02*
G01X71266D01*
X71015Y38000D02*
G01X71423D01*
X72646Y39078D02*
G01X72583Y38991D01*
Y38991D02*
G01X72521Y38862D01*
Y38862D02*
G01X72458Y38690D01*
X72427Y38474*
Y38301*
Y38301D02*
G01X72458Y38086D01*
X72521Y37913*
Y37913D02*
G01X72583Y37784D01*
Y37784D02*
G01X72646Y37698D01*
X72928Y38905D02*
G01Y38000D01*
Y38000D02*
G01X73305D01*
X73838Y38905D02*
G01X73587Y38000D01*
X73838Y38905D02*
G01X74089Y38000D01*
X73681Y38301D02*
G01X73995D01*
X74371Y38905D02*
G01X74622Y38474D01*
Y38474D02*
G01Y38000D01*
X74873Y38905D02*
G01X74622Y38474D01*
X75155Y38905D02*
G01Y38000D01*
Y38905D02*
G01X75563D01*
X75155Y38474D02*
G01X75406D01*
X75155Y38000D02*
G01X75563D01*
X75845Y38905D02*
G01Y38000D01*
Y38905D02*
G01X76128D01*
Y38905D02*
G01X76222Y38862D01*
Y38862D02*
G01X76253Y38819D01*
Y38819D02*
G01X76284Y38733D01*
Y38733D02*
G01Y38646D01*
Y38646D02*
G01X76253Y38560D01*
Y38560D02*
G01X76222Y38517D01*
Y38517D02*
G01X76128Y38474D01*
X75845*
X76065D02*
G01X76284Y38000D01*
X76567Y38733D02*
G01X76629Y38776D01*
Y38776D02*
G01X76724Y38905D01*
Y38905D02*
G01Y38000D01*
X77006Y39078D02*
G01X77069Y38991D01*
Y38991D02*
G01X77131Y38862D01*
Y38862D02*
G01X77194Y38690D01*
Y38690D02*
G01X77225Y38474D01*
Y38474D02*
G01Y38301D01*
Y38301D02*
G01X77194Y38086D01*
Y38086D02*
G01X77131Y37913D01*
Y37913D02*
G01X77069Y37784D01*
X77006Y37698*
M02*
